<svg xmlns="http://www.w3.org/2000/svg" id="Capa_2" class="w-24 mx-auto" data-name="Capa 2" viewBox="0 0 1321.42 1612.47"><!-- Source: https://football-logos.cc --><defs data-source="https://football-logos.cc"><style>.cls-1{fill:#049e6e}.cls-3{fill:#fff}.cls-4{fill:#d93146}.cls-5{fill:#e6bc7e}</style></defs><g id="Capa_1-2" data-name="Capa 1" data-source="https://football-logos.cc"><g id="audax_color" data-name="audax color"><circle id="dorado" cx="660.71" cy="951.76" r="660.71" class="cls-5"></circle><path id="azul" d="M1287.64 951.75c0 167.04-65.2 324.08-183.62 442.19-118.41 118.11-275.86 183.15-443.31 183.15s-324.9-65.04-443.31-183.15S33.77 1118.79 33.77 951.75 98.99 627.68 217.4 509.57s275.85-183.15 443.31-183.15 324.9 65.04 443.31 183.15 183.62 275.15 183.62 442.18" style="fill:#1f4794"></path><path id="aguila" d="M448.06 495.17c-141.66 66.84-246.08 197.9-279.39 350.64a39 39 0 0 0-.91 8.35c0 5.22 1.04 10.32 3.08 15.16 5.34 12.53 16.49 21.12 29.88 23.07C219.89 747 308.07 617.36 436.7 545.51l.15-.07c.55-.32 1.1-.63 1.62-.95 1.75-.99 3.43-2.04 5.03-3.09 12.04-7.95 18.11-16.32 18.06-24.89-.08-11.75-11.55-20-13.51-21.33Zm708.24 352.29c-16.65-76.38-51.09-147.32-99.07-207.55-47.98-60.21-109.51-109.68-180.32-143.1-1.93 1.32-13.78 9.94-13.51 21.85.22 9.53 7.99 18.76 23.08 27.47l1.65.93.14.06c128.63 71.85 216.81 201.5 235.98 346.88 18.83-2.76 32.96-19.08 32.96-38.21 0-2.77-.3-5.57-.91-8.34Z" class="cls-5"></path><path d="M1238.77 897.01v-.15c-.02-.99-.06-1.86-.16-2.77l-.04-.23v-.03c-.29-2.73-.61-5.53-.97-8.31-.61-5.23-1.35-10.73-2.19-16.33l-.03-.05V869c-.81-5.34-1.69-10.72-2.65-16.02-.04-.25-.06-.48-.11-.67l-.41-2.21c-.35-1.86-.7-3.71-1.06-5.55v-.19c-1.11-5.58-2.25-11.06-3.44-16.26-.61-2.72-1.24-5.44-1.88-8.1-.64-2.7-1.32-5.41-2-8.1-.51-2.08-1.07-4.16-1.62-6.25l-.48-1.79c-.74-2.66-1.48-5.34-2.24-8.01-.75-2.63-1.53-5.28-2.32-7.9-.02-.08-.03-.15-.05-.22-2.42-8-5.01-15.91-7.68-23.54a503 503 0 0 0-5.49-15.12c-.05-.11-.08-.22-.13-.34l-.05-.14q-.3-.825-.6-1.62c-.56-1.56-1.14-3.19-1.9-4.68-.25-.76-.48-1.39-.82-2.14-.92-2.32-1.87-4.65-2.83-6.96-1.02-2.44-2.02-4.79-3.04-7.15l-.09-.23c-.03-.1-.07-.21-.12-.29-3.23-7.52-6.62-14.94-10.09-22.11l-.09-.2c-.07-.13-.13-.26-.2-.4l-.3-.63c-.26-.53-.51-1.06-.79-1.61-.44-.88-.88-1.75-1.32-2.63-.75-1.52-1.51-3.04-2.28-4.53-3.29-6.54-6.8-13.15-10.73-20.21l-.16-.29c-1-1.8-2.02-3.61-3.05-5.39-1.09-1.93-2.2-3.78-3.27-5.51-.53-1-1.07-1.94-1.61-2.86l-.62-1.06c-.3-.54-.64-1.06-.98-1.6-2.41-4.09-4.95-8.15-7.34-11.96-2.23-3.5-4.5-6.92-6.83-10.4-2.87-4.36-5.83-8.68-8.78-12.83-2.17-3.13-4.37-6.18-6.53-9.06-1.47-2.01-2.94-4-4.44-5.99-10.79-14.29-22.57-28.48-35.02-42.16-2.01-2.15-3.99-4.27-5.98-6.42-8.13-8.61-16.85-17.29-25.93-25.82-1.68-1.56-3.33-3.11-5-4.62-1.7-1.61-3.48-3.2-5.2-4.74-.91-.82-1.83-1.66-2.74-2.46l-.13-.12c-.84-.76-1.69-1.53-2.59-2.29-.14-.14-.27-.25-.37-.34l-.13-.1c-6.4-5.55-12.82-10.89-19.08-15.89-1.58-1.26-3.14-2.48-4.76-3.73-.54-.44-1.09-.89-1.6-1.27-.51-.4-1.03-.79-1.54-1.18-.99-.77-1.99-1.54-3-2.29a68 68 0 0 0-2.73-2.09c-.71-.51-1.4-1.03-2.1-1.55-.76-.56-1.52-1.13-2.3-1.7-1.62-1.2-3.76-2.77-5.97-4.31-2.64-1.93-4.82-3.48-6.9-4.9-3.41-2.38-6.62-4.57-9.85-6.69-1.68-1.12-3.41-2.27-5.09-3.37l-.9-.57c-.76-.49-1.51-.97-2.28-1.44-.92-.63-1.83-1.2-2.74-1.79l-1.17-.75c-1.65-1.04-3.32-2.07-4.98-3.08-.39-.27-.77-.49-1.16-.71l-.16-.11c-1.25-.79-2.52-1.56-3.79-2.34l-2.24-1.34c-1.54-.9-3.07-1.8-4.61-2.69-.18-.12-.32-.2-.46-.28-.09-.05-.18-.09-.26-.14a424 424 0 0 0-6.63-3.79l-.99-.57c-.11-.04-.19-.09-.25-.13-2.11-1.19-4.2-2.34-6.29-3.48l-4.57-2.46c-7.62-4.05-15.34-7.95-22.93-11.57-7.66-3.65-15.54-7.19-23.41-10.52-8.14-3.46-16.28-6.69-24.2-9.62l-.16-.06c-2.42-.9-4.69-1.74-7.22-2.12-1.31-.2-2.58-.27-3.79-.2-.6.01-1.24.07-2 .19-.2.04-.42.11-.65.18-.41.13-.84.26-1.27.27-3.99 1.11-7.6 3.58-10.16 6.97l-83.89 113.83s-.05.1-.12.18l-.42.56-2.78-.55-16.05-3.01-.08-.6c-.04-.1-.06-.21-.08-.3-.14-.57-.27-1.18-.4-1.81l-.27-1.27c-.27-1.33-.55-2.65-.81-3.97-.06-.12-.08-.26-.09-.41-2.14-10.09-4.26-20.15-6.37-30.25-.35-1.61-.68-3.22-1.02-4.83-.3-1.48-.62-2.97-.93-4.46l-.04-.16c-.02-.09-.05-.18-.06-.28l-1.23-7.05c-3.55-20.51-7.2-41.72-13.24-61.5v-.02l-.02-.04-.05-.14c-3.14-10.48-6.76-19.86-11.08-28.65-.13-.15-.26-.35-.38-.6l-.22-.41.36-.3c1.89-1.59 3.43-4 4.58-7.18.09-.28.19-.56.29-.84 2.39-7.36 2.19-16.26 2.04-19.3-.04.02-.07.05-.12.06-.15.13-.34.22-.51.3l-.11.07c-4.34 2.81-11.22 4.06-21 3.84-9.1 0-18.21-1.32-27.04-2.59-2.6-.37-5.21-.75-7.81-1.09-5.27-.7-12.18-1.4-19-.6-5.86.69-11.68 2.97-17.26 6.75-3.48 2.44-6.56 5.44-9.41 9.17-.65.82-1.28 1.7-1.97 2.71l-.19.27c-.23.35-.47.69-.69 1.04-.16.25-.32.48-.46.71-.05.08-.08.14-.12.21-.27.5-.43.79-.84.78-.29 0-.61 0-.92.01-.32 0-.65 0-.96.03-.32.02-.64.02-.93.02-6.4 0-13.93 2.69-20.65 7.38-8.04 5.59-14.78 14.12-20.01 25.31-.28.61-.57 1.24-.84 1.86-.04.06-.09.23-.18.46-.35.91-.53 1.39-.71 1.65v.02c-.49 1.14-.99 2.34-1.45 3.56-.11.29-.22.6-.33.91 5.52-2.43 10.08-3.99 13.86-4.79l.05-.06.27-.02.63-.16c.43-.12.88-.22 1.32-.34l.48-.11c5.78-1.31 11.78.56 16.08 5 1.32 1.37 2.76 2.6 4.3 3.69 1.39.99 2.83 1.89 4.3 2.67 1.32.71 2.64 1.33 3.95 1.83 1.72.68 3.48 1.19 5.24 1.53 1.14.21 2.18.33 3.29.43.64.07 1.3.14 2 .22l.55.08-.05.55c-.01.13-.26 3.21-.41 4.04l-.86 4.94c-2.12 12.18-4.32 24.76-6.99 37.09-.49 2.23-.93 4.48-1.38 6.74-.71 3.63-1.46 7.39-2.38 11.06-.03.14-.06.26-.09.37-.02.13-.06.26-.09.38l-.12.58c-.26 1.32-.53 2.65-.82 3.98-.06.26-.1.53-.16.81-.08.39-.15.79-.25 1.19-.01.07-.04.18-.06.29-.02.1-.05.21-.06.3-.06.26-.09.45-.13.65-.33 1.48-.65 2.92-.93 4.37l-.13.62c-.06.28-.12.56-.18.83-.2.96-.4 1.9-.61 2.87l-3.27 15.49c-.05.28-.12.57-.19.89l-.07.34c-.1.44-.2.89-.29 1.34-.09.46-.2.91-.29 1.35-.18.44-.45.48-1.21.58l-.21.02c-.36.05-.69.1-1.02.16-.27.03-.5.08-.74.12l-.34.06c-1.46.26-3.86.69-5.32.98l-2.03.41-2.31.45c-1.26.25-2.48.49-3.71.76l-2.16.41h-.34l-.26-.45L541.33 493l-56.99-77.36c-3.88-5.38-10.6-8.32-17.13-7.51-3.46.44-6.7 1.62-10.27 3-10.9 4.18-21.74 8.64-32.21 13.25-1.13.5-2.25 1.02-3.37 1.52l-2.84 1.3c-.92.42-1.84.84-2.78 1.26-3.55 1.66-7.68 3.61-11.76 5.66-.79.35-1.56.75-2.34 1.13l-.91.46c-1.67.82-3.3 1.65-4.95 2.49l-.19.09c-.61.33-1.24.65-1.87.98-.74.39-1.48.77-2.19 1.16-1.41.7-2.8 1.44-4.17 2.18-.67.34-1.32.69-1.97 1.04-.43.25-.86.48-1.3.7-2.04 1.11-4.1 2.23-6.13 3.36-2.9 1.6-5.44 3.06-7.8 4.44-2.76 1.55-5.45 3.16-7.75 4.55a408 408 0 0 0-7.68 4.66c-2.1 1.31-4.88 3.02-7.6 4.79-2.53 1.62-5.07 3.25-7.5 4.89-2.21 1.47-4.82 3.2-7.47 5.02l-1.52 1.05a688 688 0 0 0-5.84 4.08l-2.15 1.54c-1.72 1.23-3.42 2.46-5.11 3.7l-.77.56c-.39.28-.77.57-1.18.86-1.47 1.1-2.99 2.23-4.48 3.34-.1.07-.15.12-.2.14-3.82 2.88-7.9 6.05-12.44 9.66-1.46 1.16-2.91 2.34-4.37 3.51-.86.7-1.74 1.41-2.62 2.11-1.73 1.4-3.43 2.84-5.46 4.57-2.8 2.35-5.8 4.94-9.19 7.9-2.1 1.83-4.17 3.69-6.26 5.57-.22.21-.46.43-.7.64-.3.28-.61.56-.91.85-2.02 1.82-4.18 3.82-6.62 6.11-2.32 2.21-4.64 4.41-6.95 6.62l-.35.35c-.05.06-.13.15-.26.26-7.73 7.59-14.72 14.79-21.32 21.96l-.13.12c-2.53 2.73-4.79 5.21-6.84 7.55-4.24 4.74-8.64 9.85-13.46 15.65-2.29 2.76-4.43 5.39-6.53 8.04-1.95 2.42-3.99 5.01-6.41 8.16a443 443 0 0 0-6.27 8.24c-1.99 2.67-4.09 5.53-6.11 8.38a412 412 0 0 0-5.36 7.61c-2.97 4.24-6.11 8.9-9.88 14.68-1.68 2.56-3.34 5.21-4.81 7.54-1.4 2.22-2.52 4.04-3.54 5.73-.49.76-.93 1.49-1.38 2.25-1.12 1.81-2.2 3.64-3.25 5.42l-.14.25c-.26.42-.48.82-.7 1.2l-.46.77c-1.74 2.97-3.07 5.25-4.29 7.44l-.78 1.39c-.85 1.52-1.69 3.04-2.52 4.57-.5.9-1 1.81-1.46 2.66-.53.95-1.04 1.89-1.53 2.84l-.57 1.06c-.34.65-.69 1.32-1.05 1.99-.46.85-.91 1.72-1.34 2.58l-.53 1.02c-.47.89-.93 1.77-1.38 2.69-.69 1.28-1.33 2.57-1.96 3.84-.82 1.61-1.61 3.21-2.36 4.78-.51.98-.98 1.94-1.45 2.9l-.26.53c-.27.6-.56 1.19-.84 1.79-.34.72-.69 1.45-1.02 2.18-.75 1.52-1.46 3.04-2.16 4.55s-1.39 3.02-2.07 4.54l-1.46 3.25c-.98 2.19-1.95 4.38-2.9 6.61l-.06.16c-1.07 2.44-2.13 4.95-3.25 7.68l-.09.25c-.09.21-.19.43-.26.67-1.04 2.5-2.13 5.13-3.14 7.81l-.11.16c-.49 1.28-.97 2.5-1.48 3.77-.06.16-.13.35-.18.53-.99 2.58-1.96 5.14-2.93 7.72l-.4 1.07c-.48 1.32-.96 2.64-1.42 3.96-1.38 3.81-2.7 7.6-3.91 11.27l-.13.39c-.63 1.9-1.26 3.78-1.84 5.67-.64 1.95-1.32 4.04-1.95 6.15-.65 2.06-1.19 3.83-1.66 5.45-.61 1.95-1.21 4.02-1.86 6.34-.67 2.24-1.27 4.45-1.88 6.64-.57 2.09-1.14 4.19-1.68 6.27-.33 1.24-.64 2.46-.95 3.68l-.19.75c-.35 1.28-.65 2.56-.97 3.83l-.35 1.44c-.6 2.43-1.28 5.27-1.88 8.01h-.6l.56.13c-.61 2.66-1.18 5.3-1.75 7.95l-.05.21c-.39 1.79-.76 3.56-1.12 5.36-.09.51-.2 1.06-.31 1.6l-.19.88c-.54 2.7-1.05 5.39-1.55 8.1-1.6 8.76-2.88 16.75-3.93 24.47l-.25 1.66c-.12.75-.22 1.48-.32 2.24-.11.89-.23 1.8-.35 2.71l-.13 1c-.3 2.45-.61 4.96-.89 7.43-.26 2.44-.32 4.61-.19 6.63l.04.42c.04.62.08 1.23.16 1.82.16 1.4.41 2.84.77 4.39.35 1.44.77 2.8 1.28 4.18 2.51 6.83 6.85 12.79 12.56 17.22.55.44 1.17.91 1.84 1.38.26.19.5.35.74.5l.26.16c.74.46 1.48.9 2.21 1.33 1.34.74 2.59 1.34 3.84 1.86.29.13.57.25.85.35.19.08.37.15.54.22.51.21 1.41.51 2.02.69l.35.1c.15.04.3.08.46.13.77.23 2.04.55 2.83.71l1.54.29c.37.06.74.12 1.1.15.44.06.9.12 1.31.16.14.02.23.03.33.03.08.01.18.01.26.02.43.04.85.07 1.25.09.02-.53.05-1.05.07-1.58.04-.77.07-1.55.11-2.34.26-4.76.57-9.5.84-13.51.21-2.65.47-5.78.77-8.97.22-2.71.51-5.62.88-8.91.44-3.93.98-8.61 1.6-13.33.89-6.46 1.76-12.22 2.69-17.62.25-1.46.49-2.93.75-4.4a540.7 540.7 0 0 1 25.35-93.55c2.36-6.32 4.38-11.51 6.36-16.35 1.68-4.08 3.92-9.42 6.27-14.72.16-.34.3-.67.44-1 .13-.29.26-.6.4-.9.93-2.08 1.9-4.17 2.87-6.28l1.19-2.57c.99-2.15 1.98-4.3 3.02-6.43 2.56-5.29 5.3-10.72 8.17-16.11 1.37-2.62 2.62-4.93 3.81-7.1 1.31-2.44 2.73-5 4.23-7.59 2.59-4.65 5.51-9.62 8.9-15.19 1.66-2.73 3.33-5.41 4.61-7.43 1.47-2.32 2.8-4.43 4.2-6.55 1.05-1.61 2.14-3.22 3.22-4.81.23-.4.51-.83.79-1.25.18-.26.34-.5.5-.76.8-1.2 1.59-2.36 2.42-3.49.96-1.46 1.93-2.86 2.86-4.13.23-.39.53-.79.82-1.2.16-.22.32-.45.48-.68l.68-.97c.9-1.26 1.79-2.51 2.71-3.76.58-.83 1.2-1.68 1.82-2.53 1.31-1.81 2.65-3.61 3.99-5.38.12-.16.25-.35.4-.53 1.28-1.73 2.57-3.42 3.91-5.17.61-.81 1.27-1.65 1.93-2.45 2.21-2.87 4.06-5.22 5.83-7.39 2.79-3.44 5.59-6.81 8.3-9.99a414 414 0 0 1 6.67-7.69l.11-.13c.15-.18.31-.35.47-.53 1.02-1.19 2.07-2.37 3.12-3.54l.5-.54c.33-.37.65-.74.97-1.07.3-.35.62-.69.95-1.03l1.11-1.23c.55-.62 1.1-1.23 1.67-1.82l.48-.53c.48-.5.95-1 1.41-1.53.53-.54 1.05-1.1 1.55-1.65.25-.22.43-.43.62-.64l.13-.14c.58-.63 1.18-1.26 1.79-1.89l.51-.54c.88-.92 1.77-1.84 2.7-2.78l.2-.2c.09-.13.2-.23.32-.34l.12-.12c.69-.71 1.4-1.45 2.09-2.15 1.25-1.26 2.5-2.51 3.74-3.72.33-.34.65-.67.99-.99.26-.26.53-.51.78-.78l.72-.74c1.31-1.3 2.6-2.55 3.93-3.82.95-.93 1.91-1.84 2.88-2.77l3.47-3.28c9.1-8.61 18.34-16.72 27.47-24.15l.01-.01.11.12c1.59-1.3 3.2-2.59 4.83-3.89l1.45-1.14c3.28-2.62 6.57-5.14 9.76-7.52 2.14-1.66 4.48-3.4 7.18-5.32 2.57-1.88 5.27-3.75 7.86-5.56l1.24-.86c.75-.56 1.61-1.18 2.55-1.8 2.29-1.58 4.61-3.13 6.9-4.66.41-.26.82-.53 1.21-.79.54-.36 1.07-.72 1.62-1.07 2.69-1.76 5.41-3.51 8.11-5.25l1.35-.85c.96-.6 1.91-1.18 2.85-1.77l.72-.44c2.03-1.25 4.08-2.5 6.14-3.71 2.4-1.48 4.88-2.92 7.27-4.31l.4-.22s.09-.05.15-.07c2.25-1.31 4.92-2.84 7.59-4.3 2.85-1.59 5.41-2.97 7.82-4.24l1.66-.76 23-9.81c.1-.08.35-.19.55-.27.28-.13.49-.21.69-.26.28-.14.56-.26.88-.37.1-.06.21-.09.28-.1.21-.07.32-.12.42-.15.09-.04.2-.08.29-.11.49-.21 1.05-.41 1.67-.58.33-.12.67-.21 1.02-.3.23-.07.48-.14.72-.22.27-.06.48-.12.69-.18.29-.07.58-.15.89-.21.18-.05.36-.08.54-.12l.4-.09c2.83-.58 5.76-.89 8.7-.89.53 0 1.04.01 1.56.05 2.53.09 5.14.42 7.69.97l.56.13c.32.08.63.15.93.22.51.13.99.27 1.47.41.12.01.2.05.27.08.35.11.71.22 1.09.34l.72.23c.46.18.88.35 1.33.5.41.16.79.33 1.18.49l.34.14c.33.14.63.28.96.42.39.15.77.36 1.16.57 1.88.9 3.68 1.97 5.49 3.26.47.3.89.63 1.33.98.53.39 1.05.81 1.56 1.21.32.3.61.55.89.79l.21.18c.44.4.88.81 1.3 1.2.37.33.72.71 1.07 1.1l.16.18c1.03 1.06 1.99 2.17 2.84 3.29.2.27.39.51.58.76l.12.14 1.75 2.38 42.04 57.13c.65.85.65.88.69.97l.2.57-.56.19c-9.06 2.94-18.1 6.21-26.87 9.71-19.57 7.87-38.55 17.14-56.45 27.55-6.99 4.07-13.38 8.01-19.49 12.04-14.16 9.22-28.14 19.58-41.54 30.77-3.21 2.72-6.06 5.18-8.73 7.53l-1.82 1.65c-.84.75-1.66 1.48-2.47 2.23-1.3 1.13-2.57 2.32-3.79 3.47l-.46.43c-2.87 2.69-5.66 5.36-8.3 7.93-1.03.98-2.03 2-3.05 3.01l-1.41 1.41c-.9.92-1.8 1.84-2.69 2.77l-.91.93c-1.32 1.37-2.64 2.73-3.93 4.11-1.32 1.41-2.62 2.81-3.88 4.2-1.3 1.39-2.59 2.83-3.86 4.24l-.6.69c-1.05 1.19-2.12 2.39-3.16 3.58-1.25 1.44-2.5 2.87-3.72 4.33-.85 1-1.7 2.02-2.56 3.04l-1.12 1.33c-1.17 1.44-2.35 2.88-3.53 4.34l-.34.43c-.7.86-1.41 1.75-2.08 2.63-4.03 5.09-7.88 10.17-11.45 15.12-3.62 5.03-6.87 9.74-9.94 14.4-.77 1.12-1.58 2.34-2.36 3.58l-.26.41c-.74 1.16-1.49 2.31-2.21 3.49-.61.92-1.2 1.86-1.79 2.78-.41.69-.97 1.6-1.53 2.51s-1.13 1.83-1.55 2.53c-.56.89-1.1 1.8-1.62 2.71l-.57.97c-1.48 2.49-2.9 5.01-4.2 7.36-.67 1.14-1.3 2.28-1.93 3.41l-.3.56c-.22.4-.47.83-.7 1.26-.28.53-.56 1.05-.85 1.59-.4.75-.81 1.51-1.2 2.27l-.15.27c-.22.41-.45.82-.65 1.24-.62 1.13-1.28 2.39-2.02 3.88-.32.58-.6 1.13-.88 1.7-.6 1.12-1.14 2.23-1.7 3.35l-.23.47a364 364 0 0 0-3.36 6.92c-.56 1.16-1.09 2.29-1.61 3.42l-.51 1.11c-.61 1.32-1.2 2.64-1.81 3.96l-.7 1.56q-1.17 2.655-2.34 5.37c-.49 1.12-.97 2.28-1.45 3.42l-.47 1.1c-.18.4-.33.76-.47 1.14l-.08.2c-.03.07-.06.15-.09.23-.63 1.56-1.17 3.23-1.62 5.06-.29 1.19-.54 2.42-.72 3.62-.84 5.85-.34 11.7 1.51 17.38.53 1.53 1.07 2.87 1.67 4.09.9 1.97 1.86 3.71 2.94 5.31.97 1.42 1.83 2.58 2.71 3.63 4.66 5.39 10.7 9.38 17.48 11.51 4.69-15.53 10.34-30.86 16.82-45.57l.61-1.33c.33-.72.65-1.45.97-2.18 1.7-3.71 3.11-6.68 4.39-9.34 3.41-7.03 7.05-14.03 10.82-20.82a398 398 0 0 1 40.76-59.38c2.65-3.16 5.51-6.55 8.49-9.85 8.42-9.53 17.62-18.9 27.33-27.88a393 393 0 0 1 35.18-28.89c3.29-2.42 6.77-4.88 10.62-7.52 3.5-2.37 7.08-4.71 10.92-7.15 3.54-2.22 7.33-4.56 11.19-6.78a386 386 0 0 1 34.84-18.19c6.01-2.73 12.14-5.36 18.2-7.79 8-3.2 16.39-6.24 24.97-9.03 3.79-1.23 7.97-2.51 12.77-3.9 3.75-1.09 7.73-2.16 12.93-3.49 4.24-1.07 8.66-2.1 13.15-3.06l.7-.15v.1c1.46-.3 2.92-.61 4.37-.88 1.54-.34 3.08-.64 4.71-.92l1.8-.34c1.26-.23 2.53-.47 3.81-.68.89-.15 1.79-.3 2.69-.45l2.41-.41c.98-.16 1.97-.3 2.95-.46.75-.1 1.49-.22 2.23-.33 1.73-.28 3.48-.51 5.23-.74l2-.2 8.13-.85 1.69-8.39c.9-4.16 1.81-8.32 2.7-12.46.12-.6.32-1.49.56-2.64l.05-.22c.02-.12.05-.22.07-.33.04-.19.07-.37.13-.55.01-.1.04-.21.06-.32.01-.07.03-.14.03-.21l.14-.6c.05-.22.09-.43.14-.65.57-2.69 1.3-6.01 2.05-9.46l.97-4.46c.92-4.28 1.82-8.45 2.53-11.61.02-.15.06-.37.11-.58.06-.21.09-.39.14-.56.02-.14.05-.27.08-.42.21-1 .41-1.91.57-2.57l.71-3.49h.62l50.77 4.3 1.11 5.52 7.64 38.61c.71 3.58 1.75 8.77 2.06 10.24 1.54.13 3.15.29 4.85.49l.67.08c.4.05.81.09 1.2.14.19.02.37.03.57.06.22.02.44.06.68.07 23.05 2.25 45.64 6.39 67.16 12.28 20.65 5.69 41.12 13.28 60.85 22.56 13.75 6.5 25.41 12.76 35.65 19.13 5.91 3.53 11.66 7.19 17.09 10.92.49.31.99.65 1.48.98.43.3.86.6 1.3.88 2.77 1.91 5.46 3.82 8 5.65 1.53 1.12 3.05 2.25 4.53 3.36 2.84 2.08 5.81 4.37 9.36 7.18l.63.5c1 .79 2.01 1.6 3.01 2.41 1.74 1.4 3.63 2.97 5.93 4.93.78.64 1.56 1.31 2.35 1.97l.89.76c.82.75 1.63 1.45 2.45 2.15l2.95 2.64c1.19 1.06 2.38 2.12 3.54 3.2.4.35.76.67 1.11 1.02.4.37.81.76 1.21 1.14.53.48 1.04.96 1.55 1.45 1.82 1.7 3.81 3.61 6.06 5.81.81.77 1.59 1.55 2.37 2.32l.96.96c1.38 1.39 2.78 2.8 4.12 4.23.88.88 1.74 1.77 2.6 2.69l1.47 1.56c.09.12.13.16.18.22 1.25 1.3 2.56 2.7 3.82 4.09l.76.84c1.05 1.17 2.11 2.34 3.16 3.54l.53.6c.9 1.02 1.8 2.03 2.66 3.06.95 1.06 1.88 2.17 2.81 3.27l.85 1c.74.86 1.45 1.74 2.16 2.6l.99 1.2c.97 1.17 1.9 2.32 2.85 3.51.96 1.2 1.9 2.38 2.85 3.63.84 1.05 1.68 2.15 2.53 3.27l.47.62c1.17 1.51 2.3 3.02 3.43 4.57.11.1.18.22.21.3.98 1.28 2.18 2.91 3.34 4.57.67.91 1.32 1.83 1.97 2.77.48.68.96 1.37 1.45 2.04 1.09 1.6 2.18 3.21 3.25 4.8.14.18.2.28.26.37l.33.48c.92 1.37 1.88 2.77 2.74 4.18 1.05 1.58 2.16 3.32 3.37 5.28.48.74.98 1.53 1.45 2.3.11.21.21.38.35.57.22.39.43.71.64 1.04l.61.98c.7 1.14 1.39 2.28 2.06 3.43.72 1.18 1.44 2.41 2.14 3.62l.08.13c.19.32.36.62.54.95 1.66 2.9 3.26 5.76 4.76 8.52.69 1.24 1.37 2.5 2.02 3.75l.43.83c.7 1.33 1.39 2.65 2.07 4 .6 1.13 1.18 2.3 1.75 3.47 4.76 9.45 9.22 19.36 13.28 29.48.75 1.86 1.48 3.71 2.17 5.58l.05.12s.03.09.07.13c.44 1.18.85 2.29 1.26 3.39.37 1.03.75 2.04 1.13 3.06l.33.95c.41 1.11.81 2.21 1.19 3.35.03.12.05.16.07.21q.06.15.09.33c.5 1.41 1.2 3.39 1.84 5.43.48 1.45.97 2.92 1.45 4.41.13.45.27.88.4 1.3l.2.63c.48 1.45.91 2.91 1.28 4.2.75 2.45 1.31 4.39 1.8 6.18 1.54-.46 2.88-.95 4.05-1.48.42-.15.81-.32 1.19-.49.69-.31 1.32-.64 1.97-1 .37-.18.69-.36 1.03-.56.6-.33 1.2-.7 1.83-1.12.3-.2.62-.41.9-.63.43-.27.81-.55 1.17-.82l.13-.09c.07-.06.14-.12.2-.16l.18-.16c.77-.57 1.42-1.11 2.08-1.69 1.51-1.34 2.91-2.83 4.17-4.4l.35-.47c.2-.26.4-.51.57-.76.3-.41.61-.84.9-1.26l.39-.61q.27-.405.51-.81c.5-.82.97-1.63 1.44-2.5l.02-.06.07-.13c.44-.85.85-1.73 1.32-2.79l.12-.3c.1-.27.22-.56.3-.84.6-1.48 1.06-2.95 1.4-4.41l.08-.32c.06-.25.1-.47.15-.69.05-.2.07-.32.09-.43l.08-.32c.45-2.39.69-4.72.69-6.9.01-.21.01-.35.01-.54v-.51c0-.35-.02-.7-.03-1.04l-.05-.79c-.01-.47-.03-.91-.1-1.35-.11-1.09-.26-2.19-.49-3.46-.36-1.83-.84-3.62-1.42-5.31-.12-.33-.25-.67-.36-1l-.16-.43c-1.11-2.85-2.18-5.52-3.26-8.15-1.14-2.77-2.32-5.5-3.47-8.14-.32-.7-.63-1.42-.96-2.15l-.83-1.87c-.6-1.32-1.19-2.65-1.81-3.99-1.24-2.66-2.49-5.3-3.77-7.95-.35-.69-.69-1.39-1.03-2.09-.4-.82-.79-1.64-1.2-2.43-.78-1.54-1.53-3.05-2.32-4.57-2.51-4.87-4.87-9.26-7.22-13.4-.6-1.09-1.2-2.17-1.84-3.23-1.07-1.94-2.14-3.75-3.25-5.56-.84-1.48-1.72-2.93-2.59-4.37a321 321 0 0 0-5.36-8.61c-.57-.91-1.14-1.8-1.73-2.69-.34-.54-.69-1.06-1.03-1.6-.42-.62-.84-1.25-1.27-1.89-.48-.71-.96-1.44-1.45-2.16l-.37-.56c-.56-.85-1.13-1.73-1.75-2.55-.93-1.39-2.03-2.99-3.14-4.53-1.1-1.6-2.28-3.25-3.61-5.07-1.06-1.47-2.15-2.92-3.25-4.39l-.44-.58c-1.23-1.66-2.48-3.32-3.74-4.96a81 81 0 0 0-2.24-2.84c-2.08-2.67-3.82-4.85-5.49-6.87-2.48-3.04-5.15-6.28-7.94-9.46l-.18-.19-.62-.71c-1.06-1.23-2.12-2.45-3.2-3.64l-.12-.13c-.06-.07-.13-.15-.19-.23l-4.04-4.46c-1.28-1.39-2.58-2.78-3.9-4.14-.21-.26-.42-.48-.63-.71-.79-.85-1.59-1.68-2.37-2.51l-.95-.99c-.16-.18-.31-.33-.47-.48l-.23-.26c-3.25-3.29-6-6.06-8.86-8.8-1.56-1.56-3.04-2.98-4.48-4.33-1.44-1.38-2.88-2.72-4.33-4.06-.01 0-.09-.06-.18-.16a.4.4 0 0 1-.09-.11c-.15-.13-.32-.26-.48-.4l-.22-.2c-2.08-1.9-4.2-3.82-6.33-5.7-1.88-1.65-3.76-3.26-5.65-4.88-.71-.63-1.42-1.21-2.15-1.81l-.16-.13c-1.39-1.2-2.56-2.16-3.67-3.04-2.23-1.84-4.62-3.82-7.09-5.71a78 78 0 0 0-2.99-2.32c-4.12-3.21-8.2-6.25-12.45-9.28-1.21-.9-2.81-2.06-4.45-3.12-2.54-1.83-5.11-3.58-7.33-5.08l-1-.67c-1.13-.76-2.25-1.51-3.4-2.25-7.03-4.57-14.27-8.98-21.51-13.1-1.21-.7-2.43-1.39-3.65-2.07-9.38-5.23-19.29-10.27-29.49-14.99-12.54-5.83-22.25-9.88-31.47-13.15-3.74-1.32-7.04-2.54-10.09-3.76l-1.03-.41c-1.34-.55-2.69-1.1-4.04-1.68-1.38-.62-4.54-2.01-4.54-2.01l-.64-.28.4-.58c.44-.65.9-1.3 1.35-1.94l.74-1.03c3.83-5.38 7.75-10.81 11.66-16.15l1.42-1.9c.68-.91 1.34-1.81 2-2.7.1-.15.27-.36.42-.54l1.88-2.52c.26-.34.51-.69.78-1.03 1.3-1.74 2.57-3.4 3.79-5l.16-.2c.36-.45.71-.92 1.05-1.37 1.94-2.52 3.9-5.02 6.37-8.11l.08-.11c1.8-2.23 3.7-4.58 5.49-6.69.3-.35.6-.68.86-1.02.89-1.03 1.75-2.03 2.62-3.05 4.73-5.53 9.62-11.27 15.86-15.47 6.82-4.55 15.05-7.06 23.19-7.06 2 0 4.06.16 6.14.48.62.08 1.27.2 1.89.31-.01-.01.1-.01.27.06.4.05.77.15 1.12.25.63.12 1.23.28 1.83.49.4.09.86.21 1.32.37.16.06.34.11.5.16.41.13.81.26 1.19.42.62.22 1.31.5 1.94.76.18.06.36.13.55.21l1.79.81 23.5 10.51c2.85 1.52 5.76 3.12 8.93 4.89 2.17 1.19 4.46 2.49 6.77 3.85.13.06.28.15.46.25 1.89 1.09 3.69 2.14 5.45 3.23 1.02.57 2.04 1.18 3.02 1.8 1.66.98 3.41 2.04 5.5 3.35 3.06 1.88 6.33 3.95 10.26 6.52 1.99 1.26 3.98 2.58 5.93 3.93 1.27.84 2.56 1.72 3.84 2.59.79.55 1.6 1.1 2.41 1.65l.75.54c.42.29.83.58 1.25.89.28.14.55.33.79.56 1.72 1.17 3.46 2.42 5.2 3.65l1.34.96c1.56 1.13 3.11 2.25 4.62 3.4 5.65 4.15 11.38 8.56 17.01 13.1 1.7 1.35 3.41 2.72 5.07 4.12.48.36.97.76 1.44 1.17l1.79 1.48c.78.65 1.55 1.3 2.32 1.95 1.02.88 2.06 1.76 3.11 2.64 4.71 4.04 8.51 7.4 11.97 10.6 2.06 1.86 4.1 3.74 6.15 5.66l.96.91c1.41 1.35 2.85 2.71 4.25 4.08 1.25 1.19 2.28 2.18 3.2 3.13l1.02 1c.54.51 1.07 1.04 1.6 1.58 1.26 1.24 2.5 2.49 3.71 3.71l.12.12c.12.1.22.21.32.34 1.6 1.59 3.21 3.25 4.82 4.93 1.31 1.37 2.62 2.76 3.92 4.13l1.1 1.17c1.34 1.44 2.66 2.87 3.97 4.31l2.17 2.38c1.25 1.39 2.5 2.76 3.72 4.16 4.8 5.44 9.59 11.08 14.23 16.74 5.07 6.26 9.48 11.9 13.49 17.26 3.68 4.92 6.96 9.43 10.04 13.79l1.54 2.23c1.05 1.52 2.09 3.02 3.12 4.54.13.18.25.34.37.56 1.4 2.02 2.81 4.14 4.17 6.2.16.23.33.48.48.72l.26.39c1.3 1.96 2.57 3.92 3.82 5.91.3.44.6.91.89 1.39 2.74 4.34 5.6 9 8.49 13.84l.1.18c.07.13.15.26.25.38.68 1.18 1.32 2.28 1.96 3.39.65 1.13 1.32 2.28 1.96 3.41 1.41 2.46 2.83 4.96 4.2 7.45.19.39.39.74.57 1.06 2.18 4.03 4.2 7.82 6.2 11.64l.33.63c1.56 3.07 3.19 6.26 4.71 9.39 1.13 2.31 2.45 5 3.68 7.64.96 2.02 1.88 3.99 2.81 6.04.62 1.32 1.23 2.67 1.81 4.02.77 1.68 1.54 3.41 2.31 5.15l.44 1.04c.83 1.96 1.67 3.91 2.49 5.91.5 1.18 1 2.36 1.49 3.58 1.65 4.05 3.4 8.42 5.02 12.73.5 1.28.99 2.6 1.47 3.92.36.91.7 1.83 1.04 2.77.2.53.39 1.05.58 1.56l.2.55c.33.91.65 1.82.97 2.76 1.41 3.95 2.86 8.21 4.56 13.37l.23.75c.29.85.57 1.72.82 2.57.41 1.2.79 2.44 1.18 3.67l1.3 4.24a737 737 0 0 1 2.31 7.87c.19.68.39 1.37.58 2.04l.58 2.1c.4 1.41.78 2.83 1.17 4.25.25.97.5 1.93.76 2.88l.5 1.93c.07.28.14.54.21.79.07.28.15.57.22.88.5 1.96.99 3.93 1.46 5.95.23.86.47 1.74.67 2.65.55 2.37 1.11 4.79 1.66 7.18.15.74.32 1.47.47 2.2.26 1.17.51 2.34.76 3.51.03.1.05.2.06.27.14.65.28 1.31.41 1.97.12.57.23 1.14.36 1.7l.02.15c.02.13.05.26.06.37.43 1.98.83 4.06 1.21 6.08l.46 2.46c.42 2.22.83 4.44 1.2 6.67.55 3.05 1.04 6.15 1.41 8.51.44 2.84.86 5.66 1.25 8.49l.03.19c.63 4.48 1.11 8.17 1.48 11.54l.15 1.31c.13 1.05.26 2.09.36 3.13.32 2.83.68 6.19.98 9.67.13 1.23.23 2.46.33 3.7.28 3.19.5 6.33.68 8.99.1 1.34.18 2.69.26 4.05l.05.83c.1 1.76.21 3.56.28 5.37.12 2.36.21 4.73.29 7.12.5-.02 1.03-.05 1.53-.1.35-.02.64-.06.93-.09.48-.05.88-.11 1.26-.19.35-.02.56-.05.74-.09.65-.09 1.19-.21 1.7-.33.2-.02.34-.05.44-.08l.36-.09c.51-.13 1-.25 1.48-.37.13-.02.19-.05.26-.07.12-.03.23-.06.36-.08 1.45-.26 2.84-.88 3.88-1.39l.64-.28c.35-.14.7-.29 1.03-.47.3-.14.57-.27.84-.42.53-.27 1.02-.51 1.46-.76l.56-.33c.55-.32 1.1-.63 1.62-.98.76-.48 1.35-.89 1.88-1.3.03-.02.16-.13.29-.2.22-.18.53-.42.83-.68l1.37-1.12c.37-.33.76-.67 1.12-1.02.93-.88 1.84-1.8 2.71-2.77.42-.49.84-.99 1.24-1.52.49-.6.84-1.07 1.16-1.56.84-1.16 1.53-2.22 2.12-3.29.69-1.23 1.26-2.36 1.74-3.48.27-.6.53-1.21.76-1.82.25-.62.48-1.25.67-1.86.47-1.49.79-2.71 1.04-3.84l.1-.55c.09-.48.2-.97.28-1.46.13-.9.2-1.6.23-1.97.21-2.14.21-4.26.2-5.07ZM638.95 470.29l.1-.62c2.28-13.78 3.57-27.73 3.88-41.47.26-11.69-.22-23.63-1.42-35.52l-.02-.29.21-.21c.6-.55 6.32.13 6.37.14 2.5.4 5 1.23 7.44 2.44 12.12 6.05 16.82 19.99 19.84 32.82 3.41 14.61 6.14 29.61 8.78 44.11l.55 3.04-45.72-4.44Z" class="cls-5"></path><g id="estrellas"><path d="m224.85 109.22 23.62 47.85a3.9 3.9 0 0 0 2.94 2.13l52.81 7.67c3.2.46 4.48 4.4 2.16 6.65l-38.21 37.25c-.92.9-1.34 2.19-1.12 3.45l9.02 52.59c.55 3.19-2.8 5.61-5.66 4.11l-47.23-24.83c-1.14-.6-2.49-.6-3.63 0l-47.23 24.83c-2.86 1.5-6.2-.93-5.66-4.11l9.02-52.59c.22-1.26-.2-2.56-1.12-3.45l-38.21-37.25c-2.31-2.26-1.04-6.19 2.16-6.65l52.81-7.67c1.27-.18 2.37-.98 2.94-2.13l23.62-47.85c1.43-2.9 5.56-2.9 6.99 0ZM496.42 2.17l23.62 47.85a3.9 3.9 0 0 0 2.94 2.13l52.81 7.67c3.2.46 4.48 4.4 2.16 6.65l-38.21 37.25c-.92.9-1.34 2.19-1.12 3.45l9.02 52.59c.55 3.19-2.8 5.61-5.66 4.11l-47.23-24.83c-1.14-.6-2.49-.6-3.63 0l-47.23 24.83c-2.86 1.5-6.2-.93-5.66-4.11l9.02-52.59c.22-1.26-.2-2.56-1.12-3.45l-38.21-37.25c-2.31-2.26-1.04-6.19 2.16-6.65l52.81-7.67c1.27-.18 2.37-.98 2.94-2.13l23.62-47.85c1.43-2.9 5.56-2.9 6.99 0ZM822.98 2.17l23.62 47.85a3.9 3.9 0 0 0 2.94 2.13l52.81 7.67c3.2.46 4.48 4.4 2.16 6.65l-38.21 37.25c-.92.9-1.34 2.19-1.12 3.45l9.02 52.59c.55 3.19-2.8 5.61-5.66 4.11l-47.23-24.83c-1.14-.6-2.49-.6-3.63 0l-47.23 24.83c-2.86 1.5-6.2-.93-5.66-4.11l9.02-52.59c.22-1.26-.2-2.56-1.12-3.45l-38.21-37.25c-2.31-2.26-1.04-6.19 2.16-6.65l52.81-7.67c1.27-.18 2.37-.98 2.94-2.13l23.62-47.85c1.43-2.9 5.56-2.9 6.99 0ZM1102.39 109.22l23.62 47.85a3.9 3.9 0 0 0 2.94 2.13l52.81 7.67c3.2.46 4.48 4.4 2.16 6.65l-38.21 37.25c-.92.9-1.34 2.19-1.12 3.45l9.02 52.59c.55 3.19-2.8 5.61-5.66 4.11l-47.23-24.83c-1.14-.6-2.49-.6-3.63 0l-47.23 24.83c-2.86 1.5-6.2-.93-5.66-4.11l9.02-52.59c.22-1.26-.2-2.56-1.12-3.45l-38.21-37.25c-2.31-2.26-1.04-6.19 2.16-6.65l52.81-7.67c1.27-.18 2.37-.98 2.94-2.13l23.62-47.85c1.43-2.9 5.56-2.9 6.99 0Z" class="cls-5"></path></g><g id="bandera"><path d="m598.63 937.75-53.02-.05v-81.21l61.12 61.53c-.19.28-.36.57-.54.87-3.4 5.6-5.93 11.75-7.45 18.29-.05.19-.08.37-.12.56ZM607.75 986.87l-62.14 61.73v-82.83l53.07.05c1.6 7.06 4.38 13.64 8.12 19.58.32.49.63.98.95 1.47M628.09 1006.24c5.68 3.4 11.93 5.95 18.59 7.45l-.95 282.21c-34.97-1.48-68.61-8.19-100.12-19.38v-188.35l82.48-81.92ZM626.45 898.05l-80.84-81.39V627.01c32.06-11.39 66.31-18.14 101.96-19.46l-.96 282.05a63.7 63.7 0 0 0-20.15 8.45ZM660.58 987.19c-19.59-.06-35.51-16.06-35.44-35.66.07-19.61 16.08-35.51 35.69-35.44 19.6.06 35.49 16.06 35.43 35.68-.07 19.6-16.07 35.5-35.68 35.43ZM775.8 627.01v191.66l-80.29 79.76c-.22-.16-.46-.3-.69-.46a63.7 63.7 0 0 0-18.52-8.02c-.54-.14-1.09-.27-1.64-.39l.96-281.95c35 1.48 68.64 8.19 100.18 19.39ZM715.03 918.59l60.77-60.36v79.44l-53.05-.05v-.02a62.5 62.5 0 0 0-7.73-19.01ZM722.77 965.69l53.03.05v82.68l-61.74-62.15c4.03-6.21 7.04-13.13 8.71-20.57ZM693.94 1005.84l81.86 82.41v188.26c-32.09 11.39-66.36 18.13-102.01 19.45l.95-282.26c.39-.08.76-.18 1.15-.27a62.5 62.5 0 0 0 17.2-7.06c.29-.18.58-.35.87-.53Z" class="cls-3"></path><path d="m775.8 1088.25 117.13 117.92c-33.62 30.7-73.34 54.81-117.13 70.34zM1004.88 965.94c-3.45 85.06-37.75 162.19-92.01 220.47L775.8 1048.4v-82.68l229.08.21ZM895.54 699.74 775.81 818.67V627.01c44.93 15.91 85.58 40.89 119.73 72.73M1004.89 937.88l-229.09-.21v-79.44l139.47-138.54c52.94 58.04 86.3 134.25 89.62 218.19" class="cls-4"></path><path d="M545.6 627.01v189.65L427.75 698.01c33.77-31.02 73.74-55.37 117.85-71M545.6 856.5v81.21l-229.07-.22c3.45-84.69 37.46-161.48 91.32-219.66zM545.6 965.77v82.83l-137.88 136.94c-53.88-58.27-87.87-135.2-91.21-219.99zM427.6 1205.35l118-117.2v188.35c-44.17-15.65-84.21-40.07-118-71.15" class="cls-1"></path></g></g><path d="m417.51 1258.54-25.93-22.57c-7.94-6.9-20.01-6.07-26.92 1.87l-110.63 127.13 20 17.41 30.22-34.72 14.71 12.81-30.22 34.72 20 17.41 110.64-127.12c6.9-7.94 6.07-20.01-1.87-26.92Zm-23.01 15.12-58.13 66.8-14.72-12.81 58.13-66.8zM557.53 1330.83l-57.02 152.73c-3.69 9.88-13.09 15.98-23.06 15.98-2.85 0-5.74-.5-8.57-1.55l-21.9-8.17c-6.15-2.3-11.03-6.85-13.77-12.82-2.72-5.98-2.95-12.66-.67-18.81l57.02-152.73 24.83 9.27-56.34 150.92 18.27 6.83 56.35-150.92 24.85 9.27ZM675.72 1342.88l-51.64-.08-.29 187.62 51.64.08h.03c5.58 0 10.81-2.17 14.76-6.09 3.96-3.95 6.13-9.19 6.14-14.78l.22-145.82c.02-11.52-9.34-20.91-20.86-20.92Zm-5.66 26.51-.2 134.59-19.51-.03.2-134.57 19.51.02ZM837.32 1323.89c-1.77-4.78-5.3-8.58-9.92-10.71a18.94 18.94 0 0 0-14.59-.55l-32.25 11.93c-9.87 3.65-14.92 14.65-11.27 24.52l58.52 158.04 24.87-9.2-15.98-43.17 18.3-6.78 15.98 43.17 24.87-9.2-58.52-158.05Zm-9.84 106-30.74-83.05 18.3-6.77 30.74 83.05zM1040.88 1388.11l-33.9-24.46 18.39 37.54-20.35 17.16-42.54-86.82-78.42-56.59 20.36-17.16 33.9 24.46-18.4-37.54 20.35-17.16 42.56 86.82 78.4 56.59z" class="cls-3"></path></g><!-- source: https://football-logos.cc --></svg>