<svg xmlns="http://www.w3.org/2000/svg" viewBox="232.4 238.02 328.91 646.48"><!-- Source: https://football-logos.cc --><defs data-source="https://football-logos.cc"><clipPath id="a" clipPathUnits="userSpaceOnUse"><path d="M0 841.89h595.276V0H0Z"></path></clipPath><clipPath id="b" clipPathUnits="userSpaceOnUse"><path d="M0 841.89h595.276V0H0Z"></path></clipPath><clipPath id="c" clipPathUnits="userSpaceOnUse"><path d="M0 841.89h595.276V0H0Z"></path></clipPath><clipPath id="d" clipPathUnits="userSpaceOnUse"><path d="M0 841.89h595.276V0H0Z"></path></clipPath><clipPath id="e" clipPathUnits="userSpaceOnUse"><path d="M0 841.89h595.276V0H0Z"></path></clipPath><clipPath id="f" clipPathUnits="userSpaceOnUse"><path d="M0 841.89h595.276V0H0Z"></path></clipPath><clipPath id="g" clipPathUnits="userSpaceOnUse"><path d="M0 841.89h595.276V0H0Z"></path></clipPath><clipPath id="h" clipPathUnits="userSpaceOnUse"><path d="M0 841.89h595.276V0H0Z"></path></clipPath><clipPath id="i" clipPathUnits="userSpaceOnUse"><path d="M0 841.89h595.276V0H0Z"></path></clipPath><clipPath id="j" clipPathUnits="userSpaceOnUse"><path d="M0 841.89h595.276V0H0Z"></path></clipPath><clipPath id="k" clipPathUnits="userSpaceOnUse"><path d="M0 841.89h595.276V0H0Z"></path></clipPath><clipPath id="l" clipPathUnits="userSpaceOnUse"><path d="M0 841.89h595.276V0H0Z"></path></clipPath><clipPath id="m" clipPathUnits="userSpaceOnUse"><path d="M0 841.89h595.276V0H0Z"></path></clipPath><clipPath id="n" clipPathUnits="userSpaceOnUse"><path d="M0 841.89h595.276V0H0Z"></path></clipPath><clipPath id="o" clipPathUnits="userSpaceOnUse"><path d="M0 841.89h595.276V0H0Z"></path></clipPath><clipPath id="p" clipPathUnits="userSpaceOnUse"><path d="M0 841.89h595.276V0H0Z"></path></clipPath><clipPath id="q" clipPathUnits="userSpaceOnUse"><path d="M0 841.89h595.276V0H0Z"></path></clipPath></defs><path d="M420.978 482.37V270.912c0-93.279-101.226-46.64-123.34-92.399-22.114 45.759-123.34-.88-123.34 92.399V482.37Z" clip-path="url(#a)" style="fill:#000;fill-opacity:1;fill-rule:nonzero;stroke:none" transform="matrix(1.33333 0 0 -1.33333 0 1122.52)"></path><path d="M404.478 349.001H301.512v114.191h102.966zm0-71.488c0-39.826-19.233-51.345-56.088-57.217-15.926-2.537-33.194-5.324-46.878-13.887v134.004h102.966Zm-110.714 71.488H190.799v114.191h102.965zm0-142.592c-13.684 8.563-30.952 11.35-46.878 13.887-36.856 5.872-56.088 17.391-56.088 57.217v62.9h102.966ZM183.538 473.13V270.912c0-28.86 10.44-39.344 18.293-44.72 11.556-7.91 28.005-10.532 43.913-13.066 19.29-3.073 39.08-6.263 51.894-18.943 12.813 12.68 32.603 15.87 51.893 18.943 15.908 2.534 32.358 5.156 43.913 13.066 7.854 5.376 18.293 15.86 18.293 44.72V473.13Z" clip-path="url(#b)" style="fill:#fff;fill-opacity:1;fill-rule:nonzero;stroke:none" transform="matrix(1.33333 0 0 -1.33333 0 1122.52)"></path><path d="M305.472 336.453V213.107c13.232 6.459 28.553 8.911 42.295 11.099 19.957 3.181 31.866 7.634 39.818 14.891 8.822 8.051 12.933 20.258 12.933 38.416v58.94zm-15.669 16.508h-95.045v106.271h95.045z" clip-path="url(#c)" style="fill:#ffea08;fill-opacity:1;fill-rule:nonzero;stroke:none" transform="matrix(1.33333 0 0 -1.33333 0 1122.52)"></path><path d="m410.106 436.72.01-.063zm-3.29 10.127-.066.276.006-.007.126-.559zm-7.343 13.247.072-.176zm-35.19-34.477.312-.131zm-1.816.481-.549.366.596-.378q-.024.005-.047.012m-19.452 29.28-.219 1.079 1.033-2.598zm-30.679-26.241-.296-.07.357.094zm-7.781-3.568.183.084zm-4.461-1.518.02.004zm-24.163-5.104-1.115-.242 1.891.504zm-1.631-.793-.111-.085.189.151zm-12.758-.711-.022.039.229-.096zm-28.9 19.61.018-.06zm177.541-.66-.099.57-.032.342-.225 1.175-.601 2.871.098-.8-.131.962c-.005.025.066-.632.066-.632l-.05.451-.188.775-.159.4v.208l-.348.697c-.152.303-.441.998-.506 1.217l-.237.795-.182.189-.487 1.169-.056.056c-.099.235-.279.671-.279.671l-.155.288q-.002.001-.002-.001c0-.023.073-.352.143-.667l-.006.006-.213.896-.581 1.365-.146.355-.071.144.222-1.16-.085.448-.264 1.028-.396.792.349-1.476-.552 1.888-.455.904-.25.307-.43.615.546-.725-1.319 2.243.415-1.602-.605 1.909-.03.104-.45.721-.118.133-1.328 2.196.204-.359-.813 1.187.612-.85-.393.786-.258.316-.429.612.466-.585-1.034 1.772-.173.239-.046.186-.854 1.498-.986.37c-.013.025-.031.044-.057.155l-.205.873-.726.762-3.901 4.159-.074.076c-1.204 1.203-2.374 2.543-3.506 3.838l-.938 1.073-.044.038-2.095 1.983-.003.019-.082.062-.028.026-.009.001-1.123.83-2.092 1.553c-.025.185-.064.452-.064.452l-1.685.984-.712.43-.362.279-.211.054-.083.063-.425.247-1.719.962.865-.624-.971.683h-.006c.125-.095.463-.346.587-.438l-.244.181-.389.257H232.432c-.024-.275-.047-.551-.086-.824l-.018-.122.048.298-.112-1.642-1.212-.654.548-2.435.011-.102-1.118-.56.416-2.413.004-.044-.573-1.103-.074-.935.009-.291-.288-.22-.388-.148h-1.721l-.634-.169-1.594-.4-.927-.487-1.759-1.106-.618-2.195.245 1.204-.875-1.772 1.465-2.095-.528.739.411-1.176.441-.283.336-.204.54.036.943-.026 3.131.034s-.053-1.636-.049-1.637l-.053-.104-.067-.919.047-1.139-.562-1.096-.135-.812-.14-2.658c-.047-1.5-.095-3.035-.095-4.61q-.001-.987.029-1.995l.011-.381.614-2.298-.099.799.158-1.04c.003-.01-.092.71-.092.71l.047-.355.297-1.112.446-1.233.203-.321.082-.369.33-.66-.143.603.299-.471-.433 1.038-.072.306 1.133-2.756-.652.949 1.563-3.199.16-.18.265-.531.083-.1.025-.049.216-.342.527-.809.711-1.082.022-.069-.017.063.011-.018-.058.182-.305 1.057.024-.081.41-1.333.229-.34 1.752-2.679.099-.009.361-.53 1.293-1.955h.002v-.412l3.342-1.599-.857.618 1.056-.75.624-.312.284-1.329 2.129-.303.121-.395 1.872-.935-.938.658 2.531-1.098-1.476.349 1.905-1.055-.848.616 2.597-1.098-1.602.415.728-.405.245-.105 1.007-.442.768-.446.9-.007h1.364l.933-.446.206-.082.678-.246.125-.082.679-.309.482-.27.739-.37.057-.033.461-.258.46-.229c.132-.09.269-.169.431-.251l2.11-1.266-.894.651 2.021-.854-.005-.082-1.12.31 1.098-.619-.117-1.63 2.736-.644c1.47-.346 3.23-.628 5.137-.099l-.883-.12 1.036.156-.622-.08.843.111 1.186.643-.018-.013.561.375 1.173.826-2.113-.765 2.887 1.218-.407-.274c.109.073 1.305.854 1.305.854l.143.114.048.025-.039-.033.044.035 2.142 1.065s-.17-.036-.238-.052c.21.069 1.001.323 1.44.465l.111.015-.089-.008.287.093.378.08 1.826.51.173.166 4.396.154.258.02 4.021.511c.64.007 1.174.037 1.651.157l.199.049.045.022.968.374.434.173 1.527.298-.409-.025.57.098.341.032 1.66.316.121.053.945.352.639.242-.5-.124 2.158.574-1.248-.223 2.658 1.093-1.785-.916 1.795.51.222.076-1.043-.17.906.225.534.077 2.008.771-1.335-.28 2.658 1.093-1.2-.762 1.143.416.141.109.771.322-.226-.085.948.381.59.244.212.064.221.097.784.356.382.192.525.233-1.339-.284 2.597 1.098-1.138-.742 3.564 1.453.314.204.228.05.529.265-.432-.102.076.05.678.179c1.792.831 3.709 1.722 5.636 2.754l.298.16.146.127.912.456.901.541.254.211.579.406-.591-.471.439.271 1.603 1.026.09.022 1.622 1.047.346.234.044.037.095.055 1.593 1.014.308.27.206.196 4.39 4.256.303.552.524.885.339.554-.625-.846 1.1 2.598-.435-1.636 1.234 2.222.028.169.643 1.448.019.08.659 1.907.029.628-.022.46.771 1.339-.048 1.248-.049.803c.187.331.992 1.745.992 1.745l-.281.958.902 1.662-.249.966c.137.25.904 1.665.904 1.665l-.268 1.063-.001.039c.025.073 1.136.802 1.136.802l.857-.524-.016-.113-.019-.252-.194-.979.488-1.071.411-.724-.087-1.309.29-.425.606-1.39c.119-.444.256-.967.324-1.222l-.046.086.026-.137.498-1.908.44-1.319-.126.505.303-1.17.107-.354.062-.325-.121.937 1.093-2.658-.916 1.787.513-1.802.075-.22-.171 1.045.509-1.984-.207.543.529-1.584.111-.267.02-.129.228-.646.479-1.38.397-.568c-.008.044-.01.052-.019.092l.023-.098.288-.41-.285.4.255-1.054.574-1.348.132-.321c.027-.049.297-.467.527-.826l-.327 1.264.384-1.351.024-.037-.276 1.058.103-.394.215-.729.181-.281-.162.215.164-.56.971-1.775.195-.271.022-.085.549-.965.443-.376c1.164-.989 2.157-2.055 2.95-3.165l.266-.373.357-.286c.516-.413 1.087-.983 1.639-1.535l.357-.357v-.663l1.47-.98a35 35 0 0 1 2.541-1.537l.098-.078-.076.064c.019-.01.04-.025.059-.036l.282-.213.807-.484.075-.075.165-.069.398-.238h.174l.659-.275-.412.275h.036l.614-.39h.001c0 .004-.3.211-.558.39l.045-.031 1.033-.569 1.471-.471.537-.091.334-.18-.071.015.396-.123.542-.152 1.021-.414.888-.33.671-.03c.393 0 .707.009 1.005.026l.352-.601 1.943-.085 2.423-.11 2.539-.155.916.681c.097.069.139.084.144.086.004-.013.229-.061.686-.361l.529-.344.479-.095.702-.144 1.507-1.622 2.487-1.643 1.645 4.967-.61 2.095-.121.668-.273 4.756-.03 1.151-.8 1.903-.316.763-.1.231-.246.822s-.115.179-.176.277l-.065.311-.331.726.128-.328-.475 1.125s-.03.068-.05.108l-.033.696-.391 3.625 3.649-2.489.277-.036.423-.189.478-.209.456-.26.166-.025.014-.006.286-.107 1.741-.582.864.346.504-.462 2.089-.334c.031-.524.059-1.048.059-1.048l2.677-1.129.058-.82 1.675-.743.817-.363v-1.333l2.523-.603.54-.213.403-.165.274-1.092 1.387-.786.643-.369 3.648-2.652 1.434 4.271.415 1.246-.352 3.93z" clip-path="url(#d)" style="fill:#fff;fill-opacity:1;fill-rule:nonzero;stroke:none" transform="matrix(1.33333 0 0 -1.33333 0 1122.52)"></path><path d="m203.602 528.463.132-.066c.265-.198.792-.462 1.122-.66l.132-.066c.264-.132.858-.463 1.188-.594l.132-.066c.264-.133.792-.396 1.056-.463l.264-.065c7.722-1.915 15.444-4.026 23.364-5.149.858.331 1.716.331 2.508-.131.528-.33 1.122-.792 1.65-1.254-.173-.797-.052-1.535-.264-2.574.396-5.808-1.782-11.418-.924-17.292-.132-6.402 2.574-12.606 1.65-19.008-.066-.33-.066-.991-.066-1.254.33-.924.132-1.65-.726-2.113.066-.263.132-.923.132-1.187.264-.924 0-1.65-.792-2.046.066-.33.066-.99.132-1.254-.198-.396-.528-1.056-.726-1.387 0-.527.066-1.451.066-1.98-.197-.263-.66-.857-.858-1.187-.264-.066-.858-.132-1.122-.198-.33-.198-1.056-.462-1.452-.594h-1.914a14 14 0 0 0-1.584-.396 9 9 0 0 0-1.056-.661c0-.065-.066-.197-.132-.329.132-.132.264-.528.33-.726.066-.066.264-.132.33-.199.991-.263 1.98-.461 3.036-.726.066 0 .198 0 .265-.065l.593-.066c1.057.33 1.716 0 1.914-.99.132-.396.264-1.32.33-1.717-.198-.396-.528-1.055-.726-1.385 0-.462 0-1.452.066-1.914-.197-.33-.527-1.056-.726-1.387-.066-.857-.066-1.649-.132-2.507-.065-2.112-.132-4.224-.065-6.402.131-.528.396-1.452.527-1.98 0-.067.066-.198.066-.33.198-.396.462-1.188.594-1.584a.7.7 0 0 0 .132-.33l.33-.66c0-.066.066-.264.132-.33.462-.924.925-1.914 1.386-2.838.066-.066.132-.198.198-.265l.264-.527c.066-.066.132-.198.198-.331.33-.461.924-1.451 1.254-1.913 0-.067.132-.198.132-.264.264-.396.858-1.255 1.122-1.716.066 0 .132-.132.198-.198.528-.726.99-1.452 1.518-2.244.925-.066 1.452-.594 1.452-1.518.396-.198 1.122-.528 1.518-.726.066-.067.198-.132.198-.132l.528-.264c.924 0 1.452-.462 1.65-1.386l.462-.066c.924.066 1.518-.396 1.782-1.255l.528-.263c.066-.066.132-.132.198-.132.529-.264 1.452-.792 1.914-1.056a.5.5 0 0 1 .264-.132l.594-.33c.33-.132 1.122-.462 1.452-.66h2.112c.396-.198 1.122-.528 1.518-.726l.726-.264c.066-.067.264-.132.396-.198l.726-.33c.132-.066.33-.198.462-.264l.792-.396c.133-.067.33-.198.462-.264l.66-.33c.066-.066.264-.198.33-.198.528-.33 1.518-.923 1.98-1.188a.5.5 0 0 1 .265-.131c.329-.199 1.121-.66 1.517-.859.924-.198 1.32-.725 1.254-1.649 1.122-.265 2.31-.462 3.498-.132.066 0 .198.065.33.065.396.33 1.32.858 1.716 1.188.066 0 .198.067.264.133.397.264 1.254.857 1.716 1.121.066.066.198.133.264.198.792.462 1.65.857 2.508 1.254.066 0 .198.066.33.132.33.066 1.056.33 1.386.462.066 0 .264.066.33.066.33.132 1.056.33 1.387.396.593.726 1.319.924 2.243.527 1.254.067 2.508.133 3.828.133 1.056.132 3.102.396 4.159.528.263 0 .857 0 1.121.065.396.133 1.122.463 1.518.595.528.132 1.518.33 2.047.396.065 0 .197.066.263.066.33.066 1.056.197 1.386.264.396.132 1.188.462 1.584.594.396.065 1.056.264 1.453.396.065 0 .263.066.33.132.395.066 1.122.33 1.517.462.132 0 .265.132.396.132.396.132 1.255.462 1.717.66.065 0 .263.066.33.132l.725.264c.067.066.265.132.397.197l.791.331c.396.132 1.188.528 1.65.66l.727.33.395.198.595.264c.065 0 .197.066.263.132 1.189.461 2.377.99 3.564 1.452a.5.5 0 0 0 .264.132l.528.264c.066 0 .198.066.33.132 1.849.858 3.696 1.716 5.544 2.706.066.066.198.132.265.198l.659.33q.2.098.396.198l.661.396c.065.066.263.131.329.197.529.33 1.518.925 1.98 1.255a.5.5 0 0 0 .265.132c.462.264 1.319.858 1.715 1.122a1 1 0 0 0 .198.132c.396.264 1.122.726 1.452.923 1.452 1.387 2.839 2.706 4.225 4.093.197.396.66 1.122.857 1.452a.5.5 0 0 1 .132.264c.264.461.726 1.32.99 1.782 0 .066.066.198.133.33.131.264.395.858.527 1.188.132.396.396 1.188.529 1.518 0 .329-.067.99-.067 1.254.198.396.594 1.055.792 1.385-.066.529-.066 1.453-.132 1.98.199.331.594.991.792 1.387-.066.264-.066.924-.132 1.188.199.396.594 1.056.791 1.452-.065.264-.065.924-.13 1.187.197.397.593 1.056.791 1.452-.066.265-.066.858-.066 1.188.132.396.396 1.123.529 1.519l.527 2.111c0 .067.066.265.066.33.132.396.462 1.189.595 1.585 0 .132.065.264.131.395l.265.595c.065.131.131.264.131.33.462.99.859 2.046 1.254 3.035.067.397.199 1.123.199 1.519.791.461 1.517.99 2.441.99l.198.066.132-.198c1.188-1.848.792-4.158.858-6.27.726-.462.924-1.122.66-2.047-.066-.461-.066-1.385-.131-1.913.792-.397 1.055-1.122.792-2.047-.067-.263-.067-.923-.132-1.188.197-.396.593-1.055.791-1.385-.066-.33-.066-.99-.066-1.321a26 26 0 0 1 .661-1.517c.065-.33.197-.99.329-1.32 0-.066 0-.198.066-.264.067-.33.198-1.056.33-1.386l.529-1.584c.065-.396.33-1.056.395-1.452 0-.066.066-.264.132-.33.066-.397.33-1.123.463-1.518 0-.132.065-.264.131-.396.132-.396.396-1.189.529-1.584.065-.132.131-.264.131-.396.132-.396.462-1.254.594-1.716.067-.066.132-.264.198-.396l.264-.661c.066-.131.132-.329.132-.461.198-.396.594-1.32.726-1.716.066-.132.133-.33.198-.396l.33-.594c0-.132.132-.264.132-.33.33-.528.858-1.518 1.122-2.047.066-.065.133-.131.133-.197l.264-.462c1.319-1.122 2.507-2.376 3.498-3.762.659-.528 1.319-1.188 1.914-1.782.923-.132 1.319-.66 1.319-1.584a32 32 0 0 1 2.508-1.518c.066-.067.199-.132.264-.198l.661-.396c.131 0 .33-.132.395-.198l.792-.33c.067-.066.33-.132.396-.199.462-.131 1.254-.396 1.651-.527a.7.7 0 0 0 .329-.132c.397-.067 1.057-.33 1.387-.397.395-.197 1.187-.461 1.517-.593.33 0 .991 0 1.254.066.924.33 1.584.066 2.046-.727 1.32 0 2.64-.131 3.96-.197 1.387.99 2.838.924 4.555-.199.263-.065.725-.131.989-.197.132.264.397.792.528 1.122-.066 1.122-.131 2.244-.198 3.432-.792.725-.989 1.848-.462 2.838-.132.33-.462 1.055-.594 1.451a.7.7 0 0 1-.132.331l-.198.66a.7.7 0 0 0-.131.33l-.331.726c-.131.396-.528 1.122-.66 1.517-.066.925-.066 1.783-.131 2.641a2.66 2.66 0 0 0-.595 2.904l-.264.528a.5.5 0 0 1-.132.264c-.132.396-.528 1.254-.726 1.65-.99-.066-1.518.33-1.716 1.254 0 .198-.132.594-.197.792h2.441c.33-.198 1.122-.594 1.519-.726l.593-.264c.132-.067.264-.067.397-.132a16 16 0 0 0 1.583-.661c.133 0 .33-.131.396-.131l.594-.33a.5.5 0 0 0 .265-.132c1.187-.594 2.375-1.254 3.563-1.914.067 0 .198-.066.264-.066.396-.198 1.122-.462 1.452-.66.066 0 .198-.066.33-.132l.594-.199c.99.397 2.179.199 2.97-.527.396-.066 1.254-.199 1.651-.264 1.187.065 2.111-.792 2.178-1.98.33-.132.923-.396 1.253-.528.924-.066 1.386-.528 1.452-1.452.264-.132.858-.396 1.188-.528.924-.066 1.452-.594 1.452-1.518.33-.066.924-.33 1.254-.462.991-.198 1.782-.991 2.046-2.046.265-.132.858-.462 1.122-.66l.198.594c-.066.99-.132 1.98-.263 2.97 0 .065-.067.198-.067.264-.264 1.32-.462 2.573-.792 3.894 0 .066-.066.263-.066.33l-.264.66c-.066.066-.132.264-.132.396-.198.396-.593 1.32-.726 1.782-.065.066-.197.329-.197.396l-.33.792c-.067.066-.199.33-.199.396l-.33.792c-.066.132-.198.33-.198.462-.198.396-.594 1.32-.726 1.716-.066.132-.198.395-.198.462l-.396.792c0 .066-.131.264-.198.396l-.33.66c-.066.065-.132.264-.198.33-.33.594-.99 1.65-1.32 2.244 0 .066-.132.197-.132.264l-.33.528c-.066.066-.132.198-.197.264-.33.594-.991 1.65-1.321 2.178-.065.132-.132.264-.198.33l-.264.528c-.066.065-.132.264-.198.33-.33.528-.924 1.518-1.187 2.046a.5.5 0 0 0-.133.264l-.264.462c-1.055.396-1.716 1.32-1.979 2.442-1.321 1.386-2.706 2.838-4.027 4.29-1.584 1.584-3.036 3.3-4.488 4.95-.395.396-.857.792-1.254 1.188-.858 0-1.452.396-1.584 1.32-.594.396-1.188.857-1.782 1.32q-1.386 0-1.584 1.386c-.33.198-1.056.594-1.386.857a.5.5 0 0 0-.263.133c-.462.263-1.453.858-1.981 1.121-.065.067-.264.133-.33.199l-.594.264c-.066.066-.198.132-.263.198l-.661.33c-3.366 1.98-6.797 3.96-9.965 6.204a4 4 0 0 0-.244.209c-1.107 1.048-1.289 2.636-1.382 4.076-.048.745-.068 1.495-.175 2.236-.048.333-.159.661-.2.992-.061.487-.051.964-.162 1.449-.096.423-.324.772-.507 1.16-.174.371-.299.812-.552 1.138-.211.273-.541.481-.779.734-.181.192-.347.39-.539.572-.303.287-.569.61-.871.892-.41.384-.813.81-1.31 1.08-.319.174-.692.26-1.028.372-.371.123-.727.157-1.08.359-.454.26-.607.395-1.185.437-.022.863.12 1.692.118 2.551-.001.963.025 1.927.066 2.89.041.965.097 1.928.157 2.891.055.916.001 1.923.168 2.824.205 1.099.283 1.514.33 2.046.198.792.33 1.65.463 2.442 1.122 0 2.244.132 3.431.198.462.066 1.518.197 2.046.264.066.066.132.066.198.066l.594.066c.529.99 1.518 1.518 2.64 1.518l.594.33c.066 0 .199.066.264.132l.66.33c.066.066.264.131.33.198l.726.329c.462.133 1.254.396 1.65.529.396.132 1.188.462 1.584.594.132 0 .331.131.397.131l.726.265c.131.065.33.132.395.198l.792.33c.132.066.33.132.396.198.396.198 1.188.528 1.584.726a.5.5 0 0 0 .331.132c.527.33 1.584.857 2.111 1.188.066.066.264.132.33.198l.727.33c.065.066.263.132.395.198l.66.33c.132.066.33.197.396.197l.66.33q.594 1.288 1.98 1.387l.462.263c.066 0 .198.067.264.133.661.33 1.32.726 2.047 1.056.197 1.121 1.187 1.848 2.375 1.716h.462c0 .924.463 1.385 1.452 1.385a30 30 0 0 0 2.31 1.717c.066.066.199.132.264.198l.462.264c.066.066.198.131.265.197.989.661 1.914 1.321 2.904 1.914.065 0 .197.067.197.067l.462.264c.462.99 1.32 1.782 2.442 2.045.33.199.99.661 1.386.925 0 0 .132.066.198.066.331.263 1.056.66 1.386.858.132.924.66 1.385 1.584 1.452.726.528 1.452 1.056 2.244 1.518 0 .066.132.132.199.132l.461.33c.396.858 1.056 1.32 1.98 1.254l.462.396c.066.066.198.132.265.198.263.198.857.66 1.122.924.065 0 .197.132.263.197l.397.331c.461 1.122 1.583 1.914 2.838 1.848l.263.462c0 .066.067.132.067.198.725 3.168.262 6.336-.067 9.504-.131.33-.396 1.056-.528 1.386l-.065.198c-2.641 5.94-6.931 10.89-10.626 16.17-2.376 3.498-5.347 6.534-8.712 9.042l-.33.264c-1.519.924-2.905 2.112-4.29 3.234l-.462.132c-.925 0-1.519.396-1.783 1.32l-.66.198c-.132.066-.264.132-.395.132l-.727.33c-.132.065-.33.132-.395.198l-.727.263c-.066.067-.264.133-.395.199l-.595.264c-9.371 4.29-17.951 10.032-26.598 15.576-2.706 2.64-4.62 5.874-6.6 9.041l-.33.396c-6.534 9.571-17.16 14.653-26.136 21.451-15.642 10.626-33.264 19.338-52.338 20.987a31 31 0 0 1-3.361.203c-4.505.027-9.026-.9-13.141-2.739a29 29 0 0 1-5.783-3.423 27 27 0 0 1-2.542-2.208c-.702-.692-1.126-1.59-1.659-2.429-.239-.376-.247-.925-.618-1.204-1.205-.909-.847 1.701-.842 2.298.01 1.176.403 2.101.417 3.258.026 2.282.46 5.404-1.181 7.235-1.716 1.914-5.082 1.385-6.666-.528-3.498-3.696-6.798-7.656-10.296-11.418-.412-.512-.742-1.114-1.061-1.728-.956-1.84-2.346-7.23-2.346-7.23s-2.071-5.628-2.599-10.116c-5.478-15.906-7.722-32.67-12.54-48.774-2.64-10.164-9.108-18.876-11.88-29.04-1.518-5.412-2.904-11.814.396-16.83 1.98-3.63 5.478-5.808 8.844-8.052" clip-path="url(#e)" style="fill:#000;fill-opacity:1;fill-rule:nonzero;stroke:none" transform="matrix(1.33333 0 0 -1.33333 0 1122.52)"></path><path d="M234.82 519.883c.095-.059.195-.128.293-.195.012.087.018.173.037.261-.528.462-1.122.924-1.65 1.254-.792.462-1.65.462-2.508.131-7.92 1.123-15.642 3.234-23.364 5.149l-.264.065c-.264.067-.792.33-1.056.463l-.132.066c-.33.131-.924.462-1.188.594l-.132.066c-.33.198-.857.462-1.122.66l-.132.066c-1.977 1.318-3.992 2.621-5.726 4.202 1.971-2.22 4.543-3.854 7.046-5.522l.132-.066c.264-.199.792-.462 1.122-.66l.132-.066c.264-.132.858-.462 1.188-.594l.132-.066c.264-.132.792-.397 1.057-.462l.263-.066c7.722-1.914 15.444-4.026 23.364-5.148.858.33 1.716.33 2.508-.132" clip-path="url(#f)" style="fill:#fff;fill-opacity:1;fill-rule:nonzero;stroke:none" transform="matrix(1.33333 0 0 -1.33333 0 1122.52)"></path><path d="M413.812 559.087c-.131.33-.396 1.056-.528 1.386l-.065.198a36 36 0 0 1-1.058 2.172q.204-.422.398-.852l.065-.198c.132-.33.397-1.056.528-1.386.329-3.168.792-6.336.067-9.504 0-.066-.067-.132-.067-.198l-.263-.462c-1.255.066-2.377-.726-2.838-1.848l-.397-.331c-.066-.065-.198-.197-.263-.197-.265-.264-.859-.726-1.122-.924-.067-.066-.199-.132-.265-.198l-.462-.396c-.924.066-1.584-.396-1.98-1.254l-.461-.33c-.067 0-.199-.066-.199-.132-.792-.462-1.518-.99-2.244-1.518-.924-.067-1.452-.528-1.584-1.452-.33-.198-1.055-.595-1.386-.858-.066 0-.198-.066-.198-.066-.396-.264-1.056-.726-1.386-.925-1.122-.263-1.98-1.055-2.442-2.045l-.462-.264s-.132-.067-.197-.067c-.99-.593-1.915-1.253-2.904-1.914-.067-.066-.199-.131-.265-.197l-.462-.264c-.065-.066-.198-.132-.264-.198a30 30 0 0 1-2.31-1.717c-.989 0-1.452-.461-1.452-1.385h-.462c-1.188.132-2.178-.595-2.375-1.716-.727-.33-1.386-.726-2.047-1.056a.5.5 0 0 0-.264-.133l-.462-.263q-1.386-.099-1.98-1.387l-.66-.33c-.066 0-.264-.131-.396-.197l-.66-.33c-.132-.066-.33-.132-.395-.198l-.727-.33c-.066-.066-.264-.132-.33-.198-.527-.331-1.584-.858-2.111-1.188a.5.5 0 0 1-.331-.132c-.396-.198-1.188-.528-1.584-.726-.066-.066-.264-.132-.396-.198l-.792-.33c-.065-.066-.264-.133-.395-.198l-.726-.265c-.066 0-.265-.131-.397-.131-.396-.132-1.188-.462-1.584-.594a50 50 0 0 0-1.65-.529l-.726-.329c-.066-.067-.264-.132-.33-.198l-.66-.33a.5.5 0 0 0-.264-.132l-.594-.33c-1.122 0-2.111-.528-2.64-1.518l-.594-.066c-.066 0-.132 0-.198-.066-.528-.067-1.584-.198-2.046-.264-1.187-.066-2.309-.198-3.431-.198-.133-.792-.265-1.65-.463-2.442-.047-.532-.125-.947-.33-2.046-.167-.901-.113-1.908-.168-2.824-.06-.963-.116-1.926-.157-2.891a66 66 0 0 1-.066-2.89c.002-.859-.14-1.688-.118-2.551.327-.024.517-.078.703-.167.035.464.076.927.075 1.398a65 65 0 0 0 .066 2.89c.041.964.097 1.928.156 2.891.057.916.002 1.923.169 2.824.205 1.098.283 1.514.33 2.046.198.792.33 1.65.462 2.442 1.123 0 2.245.132 3.432.198.462.066 1.518.198 2.046.263.066.067.132.067.198.067l.594.066c.528.99 1.518 1.518 2.64 1.518l.594.329c.066 0 .198.067.264.133l.661.33c.065.066.263.132.33.198l.725.33c.462.132 1.254.396 1.651.528.395.132 1.187.462 1.584.594.131 0 .329.132.395.132l.727.264c.132.066.33.132.395.197l.792.331c.132.066.33.132.396.198.396.198 1.188.528 1.585.726a.5.5 0 0 0 .329.132c.528.33 1.585.858 2.112 1.188.066.066.264.132.33.198l.726.33c.066.065.264.132.396.198l.66.33c.132.066.33.198.396.198l.66.33q.595 1.286 1.98 1.385l.462.265a.5.5 0 0 1 .264.132c.66.329 1.32.726 2.046 1.056.198 1.122 1.188 1.848 2.376 1.716h.462c0 .924.463 1.386 1.452 1.386a30 30 0 0 0 2.311 1.715c.065.067.197.133.263.199l.462.264c.067.066.198.132.265.198.989.66 1.914 1.319 2.903 1.914.067 0 .198.066.198.066l.462.264c.462.989 1.321 1.781 2.442 2.046.33.198.99.66 1.386.923 0 0 .132.067.199.067.33.264 1.055.66 1.385.858.132.924.661 1.386 1.584 1.451.726.529 1.453 1.057 2.245 1.519 0 .065.131.132.198.132l.461.329c.396.859 1.056 1.321 1.98 1.255l.462.396c.066.066.198.132.265.198.263.198.857.66 1.122.924.065 0 .197.132.263.198l.396.33c.462 1.122 1.584 1.914 2.838 1.848l.264.462c0 .066.066.132.066.198.726 3.167.264 6.335-.066 9.504" clip-path="url(#g)" style="fill:#fff;fill-opacity:1;fill-rule:nonzero;stroke:none" transform="matrix(1.33333 0 0 -1.33333 0 1122.52)"></path><path d="m404.851 549.104-7.528-5.689a.33.33 0 0 1 .399-.527l7.527 5.69a.33.33 0 0 1-.398.526m3.318 14.92a.33.33 0 0 1-.187-.428c1.461-3.729 2.105-6.805 1.968-9.405a.33.33 0 0 1 .659-.034c.143 2.695-.516 5.862-2.012 9.68a.33.33 0 0 1-.428.187M231.316 634.16l.495-7.178s3.053-.825 4.868-.825c9.322 0 9.874 8.212 15.632 13.57 3.606 3.355 10.603 4.828 13.929 4.828 2.448 0 4.622.082 7.069.082.753 0 4.462-.004 6.191-.004 9.731 0 17.209-4.381 25.887-9.731 10.484-6.466 19.964-14.566 26.155-20.719 3.929-3.904 6.646-7.217 7.024-8.239 1.76-4.749 10.317-13.22 21.945-19.057 3.712-1.864 7.558-3.044 11.791-4.118 3.183-.808 6.816-1.324 9.494-3.307 1.506-1.115 2.54-1.902 3.93-3.165 11.538-10.482 19.336-25.38 19.336-25.38 1.464.206 3.053 1.159 4.042 2.475 0 0-2.187 3.319-5.416 8.385-1.979 3.107-4.406 7.316-7.277 11.002-3.093 3.973-6.701 7.42-10.82 10.56-2.296 1.751-4.445 2.853-7.095 3.736-1.892.63-4.235 1.148-6.171 1.71-3.968 1.152-7.905 2.615-11.319 4.207-9.439 4.4-15.821 11.223-18.068 15.262-1.739 3.129-3.548 5.586-10.231 12.211-5.625 5.577-13.617 11.743-22.108 17.407-9.239 6.162-15.593 12.21-30.195 12.21-5.346 0-16.006-.165-17.325-.165-6.375 0-11.959-3.725-15.346-7.507-4.414-4.932-4.207-10.23-10.477-10.23-2.805 0-5.94 1.98-5.94 1.98m-1.559-8.591-7.178-32.092a.33.33 0 0 1 .25-.394.33.33 0 0 1 .394.25l7.177 32.092a.329.329 0 1 1-.643.144m-22.651-72.37c-2.161-4.998-3.265-9.418-3.374-13.51a.33.33 0 0 1 .661-.017c.106 4.006 1.192 8.345 3.319 13.266a.33.33 0 1 1-.606.261m-10.7-8.174a13.8 13.8 0 0 1-.291-4.596.33.33 0 1 1 .656.07 13 13 0 0 0 .278 4.376.33.33 0 1 1-.643.15m32.087 93.647 1.003-11.198c-1.199-4.96-2.425-9.514-3.51-14.542-1.56-7.224-2.963-14.903-4.699-21.749-1.908-7.516-4.412-14.276-6.333-21.376 0 0-12.202-18.519-12.202-30.922.044-.044 0-4.346 0-4.346-2.099.959-3.751 2.05-4.68 3.343 0 0-.134 1.727-.167 1.672 0 9.384 4.284 18.083 8.08 24.979a221 221 0 0 0 5.125 8.784c2.609 9.398 5.313 18.837 7.689 28.248 3.153 12.496 5.894 24.965 8.691 37.441z" clip-path="url(#h)" style="fill:#fff;fill-opacity:1;fill-rule:nonzero;stroke:none" transform="matrix(1.33333 0 0 -1.33333 0 1122.52)"></path><path d="M335.988 494.049c-1.634 0-2.615-2.614-2.615-4.794 0-5.448 5.665-12.965 10.678-12.965 2.723 0 6.972.762 10.023 1.525s6.755 6.538 6.755 8.825c0 2.288.109 4.794-.544 7.082-.339 1.188-1.325 2.379-2.483 3.727-1.073 1.249-1.797 2.701-3.291 2.701-1.657 0-2.398-.422-2.398-1.089 0-1.09 5.666-5.993 5.666-10.569 0-1.256-.68-2.454-1.192-3.532-.701-1.48-1.813-3.132-3.594-3.995-1.647-.798-3.87-.862-6.872-.862-3.051 0-9.411 3.141-9.208 9.207.047 1.375.491 1.797.491 2.669s-.435 2.07-1.416 2.07" clip-path="url(#i)" style="fill:#fff;fill-opacity:1;fill-rule:nonzero;stroke:none" transform="matrix(1.33333 0 0 -1.33333 0 1122.52)" data-source="https://football-logos.cc"></path><path d="m360.554 481.719-1.927-2.426 8.347-4.209.036 2.568z" clip-path="url(#j)" style="fill:#fff;fill-opacity:1;fill-rule:nonzero;stroke:none" transform="matrix(1.33333 0 0 -1.33333 0 1122.52)"></path><path d="M361.338 481.719h-.784l6.456-4.067z" clip-path="url(#k)" style="fill:#ffea08;fill-opacity:1;fill-rule:nonzero;stroke:none" transform="matrix(1.33333 0 0 -1.33333 0 1122.52)"></path><path d="M374.721 470.488c-.673.616-1.006 1.315-1.719 1.315-.999 0-1.712-.749-1.712-1.962s2.318-3.888 2.318-5.101c-1.925.607-3.353.571-4.245.571-.285 0-.82-.107-.82-.464 0-.927 3.246-2.068 3.853-2.068.606 0 9.701-.143 9.701-.143s-4.775 5.473-7.376 7.852" clip-path="url(#l)" style="fill:#fff;fill-opacity:1;fill-rule:nonzero;stroke:none" transform="matrix(1.33333 0 0 -1.33333 0 1122.52)"></path><path d="M276.673 558.979c-14.89 0-28.889-5.447-35.325-8.368l-1.716-3.361s14.547 11.01 36.836 11.01c6.779 0 11.812-1.233 11.812-1.233s-.822 1.952-11.607 1.952" clip-path="url(#m)" style="fill:#fff;fill-opacity:1;fill-rule:nonzero;stroke:none" transform="matrix(1.33333 0 0 -1.33333 0 1122.52)"></path><path d="M242.955 548.345c-1.421-.81-1.967-1.403-2.069-1.883l6.598 1.886.001.001c.818 1.128 2.091 1.803 3.34 2.497a223 223 0 0 1-7.87-2.501" clip-path="url(#n)" style="fill:#fff;fill-opacity:1;fill-rule:nonzero;stroke:none" transform="matrix(1.33333 0 0 -1.33333 0 1122.52)"></path><path d="M350.832 521.488c-.228 1.799-1.216 2.976-1.496 4.478-.681 3.636.258 5.182-1.996 7.437 0 0 .514-3.184.514-4.519 0-2.157 2.978-7.396 2.978-7.396m-48.274 32.15c-5.936 1.323-12.92 2.876-21.367 2.876-12.707 0-30.82-5.657-38.236-8.169-1.421-.81-1.967-1.403-2.069-1.883 0 0 4.926 1.41 11.55 3.3 2.456.7 4.98 1.764 7.81 2.42 3.37.781 7.201 1.063 10.56 1.65 3.808.666 7.022 1.705 10.175 1.705 2.736 0 6.79-.929 12.155-1.815 4.538-.749 10.34-1.145 14.74-2.2 7.447-1.786 13.25-4.293 13.25-4.293-3.52 1.793-9.693 4.431-18.568 6.409m-13.739-3.051s-2.723 1.815-6.188 1.732c-2.05-.059-6.029-.889-10.395-1.567-4.25-.66-8.853-1.153-13.365-2.31-3.539-.907-6.719-2.27-9.57-3.217-5.253-1.745-8.992-2.888-8.992-2.888l-.496-9.157.908.165c7.097 4.904 13.86 7.672 20.46 7.672 7.048 3.893 15.804 7.245 27.638 9.57m-8.842-61.186s-2.266.864-3.56.864-8.093-3.183-8.093-3.183c4.11.261 8.029.979 11.653 2.319m41.594 35.199s-3.12 8.588-12.87 11.714c-2.098.673-4.139 1.32-6.93 1.32-2.887 0-29.452-4.537-29.452-4.537 2.048-1.502 3.479-3.778 3.795-7.425 0 0-.165-3.217-.165-4.455 0-2.805 2.887-4.537 2.887-4.537l.082 7.92s6.188 2.722 8.993 2.722c.603 0 1.606.008 2.764.018l.783-.925s-.061-.396-.742-.578c-2.042-.545-6.517-.825-6.517-2.805 0-.247 0-1.073.495-1.073.494 0 .99.661 2.474.661.578 0-1.476-3.478-1.319-4.703 0 0 1.815 2.723 9.652 2.723 5.61 0 5.362-.661 10.561-.661 7.424 0 9.074 3.383 9.074 3.383-4.958-.866-11.789.454-19.965 3.383l.057.64c1.243.011 2.335.019 2.996.019 3.63 0 23.347-2.804 23.347-2.804m21.166.076v-1.069s-6.411-3.325-6.411-5.936c0-2.635-.679-5.558-1.058-7.845-1.602-9.642-6.006-16.104-9.685-19.99-3.073-3.247-5.64-4.694-5.64-4.694-3.078-4.395-4.393-9.913-7.124-15.315l-7.48 1.662c-2.576 4.504-5.144 7.801-7.701 10.881 0 0-9.621 4.064-14.801 6.096 1.838.173 3.625 0 3.625 0l3.621 4.808s-.934 1.84-1.84 1.84-1.543-2.73-1.543-2.73-.895-.713-1.544-.713c-2.589.266-8.308 2.494-9.141 2.494s-9.617-4.512-9.617-4.512l-8.903 5.224 4.037 28.73v13.535c4.994 3.933 12.206 6.877 22.16 9.753 3.766 1.088 11.201 3.425 12.981 3.425 3.434 0 6.547-.994 9.834-1.88 3.945-1.062 8.614-2.454 11.537-3.681 3.734-1.569 5.223-2.868 5.223-2.868 6.513-6.015 13.006-11.676 19.47-17.215m-102.22-45.47c4.901 4.745 11.72 7.601 19.589 9.379 0 0-3.863 2.785-5.58 4.867-.132.499-.356 1.069-.356 2.493 0 4.987 3.087 18.759 3.087 18.759a39.2 39.2 0 0 1-5.224-5.343l-14.247-4.274v-4.986c.206-5.146 1.055-9.65 2.612-13.416zm40.124-4.5c.07-.187.279-.153.415-.255.118-.089.116-.216.183-.327.055-.092.288-.294.398-.168.066.075-.065.355-.1.438-.061.143-.195.247-.245.399-.098.298-.003.671-.343.857-.42.231-.384-.745-.308-.944m6.959-3.201c.094-.16.11-.22.293-.23.146-.007.465-.052.578.043.126.106.072.273-.076.339-.202.09-.424-.009-.553.198-.117.188-.085.533-.311.618-.261.099-.501-.087-.432-.367.065-.26.371-.381.501-.601m7.711-4.695c.171-.186.401-.547.679-.542.048.207-.272.564-.383.728-.117.172-.654.819-.91.656-.269-.174.518-.738.614-.842m2.72 2.867c-.277-.091.056-.522.16-.605.274-.217.524-.498.771-.749.3-.306.612-.635.967-.869a2.1 2.1 0 0 1 1.164-.384c.142-.007.343.019.474-.023.091-.029.163-.113.256-.146.094-.033.204-.046.302-.075.361-.106.723-.248 1.1-.286.105-.011.205 0 .308-.03.196-.056.25-.129.395-.259.218-.199.486-.26.759-.332.216-.058.425-.108.653-.11.124-.001.275.001.395-.033.351-.101.681-.403.35-.729a1.5 1.5 0 0 0-.346-.259c-.123-.065-.256-.078-.383-.14-.134-.066-.241-.143-.381-.198-.164-.065-.329-.086-.498-.146-.236-.083-.467-.204-.704-.232a2.3 2.3 0 0 1-.686-.187c-.182-.079-.211-.165-.153-.371.165-.582.921-.299 1.268-.066.333.223.692.341 1.06.477.422.154.814.345 1.203.574.446.263.853.584 1.303.851.229.135.506.233.695.42.101.1.161.216.198.352.022.08.084.316.032.384-.053.07-.309.086-.397.095-.186.019-.381 0-.567 0-.238 0-.466-.015-.699-.031-.588-.04-1.173-.015-1.762-.015-.269 0-.545-.005-.811.031-.21.029-.383.123-.568.227a2.8 2.8 0 0 1-.769.31c-.272.067-.566.136-.838.229-.615.21-1.173.559-1.749.851-.387.196-.75.435-1.099.693-.206.153-.441.26-.63.433-.153.14-.554.42-.773.348m-44.535-14.951c3.785 0 9.009 4.996 9.009 5.829-3.785-.531-6.814 3.936-6.814 3.936 3.786 0 4.543-.984 9.917-.984 2.953 0 10.372.984 10.372.984-.969-1.399-3.196-2.911-5.98-4.467 0 0 5.602-5.45 6.888-5.45 3.823.492 20.061 5.602 25.21 8.706-1.511.403-3.59 2.121-5.069 1.213-1.984-1.219-4.586.841-5.722 2.321-.568.739-1.21 1.291-1.78 2.068-.319.435-.34.796-.888.509-.693-.363-.38-1.154-1.513-.841-.768.213-1.404.888-1.996 1.387-.692.581-1.417 1.122-2.087 1.729-.417.377-.847 1.198-1.353 1.438-.558.266-1.449.112-2.079.352a4.7 4.7 0 0 0-1.701 1.137c-1.118 1.158-2.158 1.227-3.686.652-.937-.353-1.887-.768-2.893-.864-.96-.091-1.915.103-2.875.103-.686 0-1.46-.096-2.136.035-1.05.204-2.026.595-3.127.646-1.54.071-3.036-1.065-4.094-2.026-.472-.428-.907-.982-1.463-1.289-.467.654.258 1.174.385 1.805.084.412.027.929.006 1.349-.919-.217-1.314-1.235-1.671-2.032-1.015-2.265-2.479-4.387-5.169-4.658l-.719 1.022-4.618-5.829s3.861-8.781 7.646-8.781m84.959 43.034c1.65 1.324 3.122 2.836 4.466 4.466 0 0 .51-3.164.51-6.685.358 0 .561.663.561 1.02 1.531 3.164 1.411 5.494 2.391 7.034.917 1.444 2.475 1.131 2.917 2.407 0 .511-1.786 4.006-4.006 4.006-2.731 0-4.899-4.9-6.558-6.558 0 4.95 1.377 10.563 6.889 10.563 3.419 0 5.154-5.357 5.154-8.777 0-8.879-10.716-16.431-10.716-16.431z" clip-path="url(#o)" style="fill:#ffd0c0;fill-opacity:1;fill-rule:nonzero;stroke:none" transform="matrix(1.33333 0 0 -1.33333 0 1122.52)"></path><path d="M329.158 551.574c-2.382 1.251-3.545 1.405-3.545 1.405l19.636-13.035s-4.373 3.796-8.993 7.096c-2.098 1.498-5.117 3.493-7.098 4.534m-40.878 5.453s-5.033 1.233-11.812 1.233c-15.263 0-26.893-5.162-32.71-8.417.041.015 21.888 7.904 32.607 7.904 2.801 0 11.915-.72 11.915-.72m62.552-35.539c-3.938 3.333-7.769 6.836-11.399 10.58l-14.793 13.147s-7.299 5.127-22.082 8.423c-5.936 1.323-12.92 2.876-21.367 2.876-16.331 0-41.601-9.347-41.601-9.347l.042.083 2.526 4.95s13.458 9.655 46.53 9.655c10.765 0 19.764-1.682 27.217-4.229 1.871-.639 3.356-2.104 4.731-3.063 2.839-1.984 5.002-3.788 7.703-5.547 3.367-2.193 6.421-4.168 8.936-6.163 6.598-5.234 10.065-9.45 10.065-9.45s.514-3.184.514-4.519c0-2.157 2.978-7.396 2.978-7.396m15.73-70.451 3.519-10.45-4.098 4.098c1.358-7.281 7.235-12.796 13.723-15.318-1.053 8.252-6.263 15.234-13.144 21.67m-21.176 23.815c-.605 0-.495-1.1-.495-1.76 0-3.626 2.422-9.644 4.015-15.814 1.34-5.186 2.336-10.995 4.372-15.068 2.156-4.311 5.413-6.738 9.159-6.738 2.034 0 1.723-.71 2.631-1.045.603-.222 1.202.049 1.755-.385 1.585-1.24 2.818-3.245 2.818-3.245l5.555-.44s-1.851.841-3.465 2.216c-1.036.883-1.642 1.985-2.691 3.225-1.124 1.329-2.102 3.46-2.854 4.789-1.004 1.775-1.605 2.621-1.605 3.025 0 1.375-4.294 2.71-7.205 7.48-1.565 2.565-2.43 5.622-3.52 8.349-1.019 2.551-1.21 3.641-3.08 7.271l.165-7.645s-4.235 12.76-4.235 15.015c0 .385-.716.77-1.32.77m5.455 21.165c.18.358.255.798.739.848.29.03.637-.219.827-.436.162-.185.231-.468.367-.675.365-.55.777-.949 1.212-1.441.32-.36.508-.759.795-1.146.769-1.033 1.086-2.264.99-3.543-.054-.719-.626-1.408-.851-2.086-.109-.33-.099-.642-.149-.989-.054-.382-.247-.691-.433-1.035-.563-1.038-1.445-1.638-2.273-2.44-.353-.343-.977-.542-1.397-.787-.212-.123-.468-.116-.682-.202-.253-.101-.441-.269-.666-.417-.604-.394-.941-.74-1.682-.824-.895-.102-1.756-.077-2.601.273-.544.225-.181.468.196.698.376.231.743.332 1.102.556.916.567 1.728 1.292 2.625 1.905.637.435 1.423.996 1.741 1.727.152.348.131.847-.366.815-.411-.027-.694-.594-.989-.824-.443-.344-.917-.656-1.368-.988-.686-.505-1.247-1.152-1.906-1.689-.447-.363-1.259-1.048-1.868-1.022-.433.019-.204.47-.034.778.357.646.952 1.283 1.478 1.821.795.81 1.855 1.262 2.691 2.017.751.675 1.319 1.618 1.982 2.375.693.792 1.488 1.523 2.122 2.363.309.41.595.957.667 1.48.067.477-.248.815-.263 1.289-.308.164-1.054.31-1.257-.105-.113-.232.032-.647-.061-.915-.134-.393-.491-.688-.675-1.053-.227-.449-.15-.937-.38-1.398-.261-.52-.701-.748-1.03-1.194-.222-.302-.367-.62-.626-.904-.244-.268-.424-.563-.671-.802-.295-.288-.751-.241-1.133-.19-.025.296.267.552.409.795.223.38.413.778.612 1.179.458.925.786 1.872 1.266 2.779.202.381.569.682.74 1.074.157.36.169.79.221 1.175.046.345.229.593.402.858q.097.142.177.3" clip-path="url(#p)" style="fill:#ffea08;fill-opacity:1;fill-rule:nonzero;stroke:none" transform="matrix(1.33333 0 0 -1.33333 0 1122.52)"></path><path d="M278.245 605.163c.564.593.456 1.2.661 1.938.211.761.393 1.384.114 2.136-.122.326-.153.697-.332 1.011-.163.284-.406.539-.6.798-.431.578-1.004 1.015-1.458 1.559-.406.486-.531.888-1.219.818-.632-.063-1.19-.151-1.589-.701-.432-.594-.675-1.357-.887-2.093-.195-.673-.078-1.501-.078-2.2 0-.362-.043-.755.025-1.109.104-.552.538-.995.846-1.459.257-.386.438-.725.864-.973.541-.316.966-.534 1.569-.621.974-.142 1.461.241 2.084.896m11.013-1.49c-.398-.074-.811-.214-1.217-.249-.53-.046-1.012.023-1.524-.105-.452-.113-.655-.136-.957-.512-.255-.316-.583-.55-.821-.873-.238-.324-.301-.733-.557-1.079a11 11 0 0 0-1.073-1.257c-.204-.201-.411-.43-.633-.621-.345-.297-.773-.37-1.182-.546-.45-.196-.686-.175-1.178-.081-.522.1-1.082.084-1.594.206-.501.12-.58.545-.939.802-.367.264-.928.157-1.349.215-.163.252-.317.506-.492.757-.263.377-.609.598-.973.914-.49.425-.848.902-1.568.931-.339.014-.625-.152-.944-.2a2.6 2.6 0 0 0-.964.025c-.605.125-.697.432-.695 1.069.002.84.081 1.709.271 2.52.169.723.223 1.462.703 2.04.415.498.7 1.237.485 1.878-.137.405-.552.636-.669 1.043-.077.268-.002.562-.09.825-.012.039-.234.49-.262.492-.612.025-.264-.18-.576-.414-.291-.217-.467.14-.546.348-.111.296-.064.612-.081.949-.02.425-.152.812-.096 1.25.052.411.253.772.348 1.164.085.35.105.7.191 1.052.106.433.256.779.504 1.148.798 1.183 1.411 2.558 2.536 3.509.978.826 2.268 1.084 3.305 1.77 1.277.846 2.704.985 4.185.697.491-.095.969-.264 1.462-.354.595-.11 1.03-.168 1.565-.516.561-.366 1.004-.798 1.51-1.241.725-.635 1.495-1.25 2.14-1.981.605-.685 1.101-1.264 1.466-2.102.175-.402.421-.773.488-1.21.056-.373.017-.767.035-1.146.019-.394.085-.755-.242-.99-.325-.234-.647-.222-.941-.497-.392-.366-.62-.542-.625-1.084-.004-.375.014-.748.034-1.113.027-.48-.336-.744-.451-.173-.074.363-.098.593-.278.93-.301.565-.673 1.13-1.255 1.461-.591.337-1.478.133-2.049-.097-.58-.234-1.269-.666-1.668-1.14-.246-.29-.299-.631-.408-.982-.091-.294-.255-.578-.354-.868-.257-.753-.709-1.123-.462-1.94.171-.563.131-1.386-.443-1.737-.364-.223-.451-.193-.59-.562-.096-.255-.259-.431-.425-.651-.363-.482-.92-1.158-.966-1.783-.049-.656.047-1.266.207-1.869.125-.465.043-1.06.577-1.262.364-.139.978-.053 1.377-.032.302.016.802.03 1.029.241.282.262.317.835.32 1.191.007.78.066 1.578.004 2.355-.036.452.084 1.133.72.76-.047-.323.306-.214.486-.313.206-.114.214-.284.493-.306.307-.024.478.141.653.349.166.197.482.398.716.496.289.12.63.03.912.168.017.009.084.45.109.51.079.196.205.359.34.519.273.321.673.605.816 1.015.161.464-.241 1.446.279 1.709.299-.407.318-.782.52-1.221.337-.73.93-1.189 1.496-1.739.308-.299.556-.613.589-1.039.05-.636-.006-1.285-.734-1.423m-15.889-6.398c.092-.1.421-.056.552-.05.205.009-.199.674-.26.734-.417.408-.459-.5-.292-.684m-.03-2.451c0-.618.285-.923.754-1.317.626-.525 1.217-1.089 1.826-1.631.284-.252.633-.456.889-.734.192-.209.359-.472.652-.564.299-.648 1.199-.464 1.764-.514.383-.033.761-.067 1.145-.067.436 0 .72.122 1.122.249.679.213 1.159.644 1.78.978.672.36 1.431.734 1.669 1.531.191.64.141 1.13-.012 1.747-.053.215-.07.446-.263.572-.201.131-.545.134-.782.146-.254.013-.452.036-.627-.153a13 13 0 0 1-.524-.6c-.101-.124-.174-.319-.337-.37-.126-.039-.459-.027-.586-.002-.268.055-.444.321-.695.416-.287.108-.583.009-.812-.181-.239-.2-.384-.165-.689-.184-.285-.016-.564-.109-.849-.07a5 5 0 0 1-.722.061c-.519-.001-1.143-.002-1.579.326-.235.177-.361.647-.609.733-.201.069-.469-.046-.677.004-.275.066-.388.231-.495.459-.133.284-.29.662-.577.824-.219.124-.697.306-.799-.035-.058-.196.016-.539.021-.747q.01-.44.012-.877m-3.906 3.89c-.624-.427-1.096-1.007-1.653-1.509-.676-.609-1.284-1.197-2.039-1.705-1.346-.904-2.431-2.088-3.72-3.122-.222-.178-.503-.293-.718-.495-.209-.196-.307-.451-.52-.631-.358-.301-.925-.466-1.348-.686-.816-.422-1.662-.746-2.5-1.107-.313-.134-.698-.142-.995-.297-.514-.269-1.036-.97-1.229-1.501-.164-.452-.156-1.424.36-1.669.175-.082.442-.037.629-.109.199-.075.36-.201.518-.337.24-.207.364-.384.492-.681.067-.154.233-.344.274-.485.039-.133-.029-.292.009-.425.045-.161.27-.543.436-.616.12-.051.251.002.364-.058.114-.06.149-.183.293-.253.184-.089.71-.155.91-.075.271.108.254.454.091.658-.214.267-.66.309-.939.496-.485.325-.698.865-1.132 1.252-.319.285-.137.431-.244.791-.104.357-.493.445-.628.762-.17.399.069.519.339.748.107.09.25.184.348.283.104.106.144.265.244.359.105.099.305.158.45.167.297.017.339-.109.56-.236.351-.201.982-.134 1.322.077.607.377 1.133 1.022 1.608 1.538.256.278.541.608.77.903.253.325.498.816.939.943.361.104.395-.072.576-.286s.406-.306.679-.33c.637-.056.621.279.856.728.26.492.663.962 1.078 1.329.29.257.454.604.733.835.299.248.572.402.828.696.089.102.153.209.233.313.137.179.327.299.521.455.257.207.455.463.71.667.498.393 1.037.735 1.525 1.126.288.231.346.549.6.805.257.259.606.433.774.77.054.111.134.194.088.338-.064.203-.083.081-.268.149-.184.067-.203.028-.329.206-.133.188-.087.323-.398.28-.306-.043-.434-.32-.631-.514-.249-.243-.584-.352-.866-.547m20.24 2.107a.3.3 0 0 0-.042-.051c-.308-.302-1.108.12-.964-.604.083-.413.461-.748.697-1.077.569-.795 1.312-1.449 1.914-2.214.287-.364.569-.742.869-1.098.187-.221.417-.363.591-.589.144-.188.25-.397.413-.567.368-.381.811-.68 1.196-1.039.217-.203.353-.457.569-.658.183-.172.379-.337.558-.513.565-.561 1.237-1.066 1.743-1.696.179-.223.989-1.203 1.14-.566.128.537-.22 1.223.643 1.222.426-.001.413-.094.672-.368.208-.219.473-.367.674-.594.235-.266.419-.57.674-.82.259-.255.649-.309.996-.321.283-.009.75.107.931-.193.174-.285.083-.743.037-1.054-.06-.409-.095-.835-.282-1.213-.213-.431-.279-1.474-.908-1.289-.401.118-.939.305-1.31.507-.259.141-.432.33-.745.329.139-.208.353-.43.54-.592.232-.199.25-.315.292-.604.048-.328.036-.68.106-1.004.14-.659 1.281-1.505 1.954-1.431.283.032.636.268.804.5.312.43.175 1.359.153 1.88-.017.371-.064.59.185.902.229.286.719.582.83.924.126.391.012.986.051 1.404.034.355.096.713.021 1.069-.155.728-.713.842-1.258 1.232-1.158.828-2.521 1.344-3.78 2.01-.528.278-1.115.491-1.6.859-.544.412-1.203.743-1.654 1.261-.906 1.043-1.89 1.886-2.924 2.798-.279.246-.518.61-.82.819-.296.206-.655.261-.952.514-.282.24-.399.54-.622.822-.171.217-.3.478-.448.711-.183.288-.216.957-.746.661-.121-.066-.133-.174-.198-.269m9.278 28.828c-.423-.772-.737-1.599-1.162-2.368-.954-1.721-2.099-3.394-3.186-5.057-.421-.643-.876-1.301-1.398-1.861-.291-.312-.495-.696-.761-1.035-.222-.284-.539-.402-.799-.644-.284-.265-.478-.506-.409-.926.059-.366-.064-.815.027-1.162a.553.553 0 0 1 .841-.308c.204.139.36.373.512.556.355.427.734.877 1.202 1.208.459.325.952.553 1.435.851.263.161.451.384.739.541.891.488 1.294 1.561 2.009 2.278.293.294.582.499.948.695.314.168.725.416 1.053.5.716.185 1.593-.052 2.335.006s1.408.56 1.407 1.356c-.001.804-.151 1.329-.848 1.758-.564.346-.977.636-1.142 1.324-.106.436.01.945-.013 1.39-.027.567-.188 1.047-.548 1.489-.089.11-.152.238-.252.338-.303.305-.85.409-1.198.166-.368-.259-.582-.711-.792-1.095m-38.491.935c.145-.136.288-.271.415-.426.322-.392.617-.785.971-1.142.396-.4.787-.816 1.088-1.294.459-.728.955-1.435 1.523-2.076.256-.289.504-.587.791-.855.308-.289.665-.511.987-.773.723-.588 1.503-1.182 2.148-1.863.133-.14.238-.321.379-.465.144-.146.338-.272.464-.428.192-.235.166-.508.166-.796 0-.277.025-.531.047-.795.03-.349-.219-.604-.314-.924-.245-.012-.323-.148-.595-.1a1 1 0 0 0-.357.112c-.294.17-.485.486-.675.75-.182.252-.451.464-.633.744-.156.24-.357.462-.519.694-.383.551-.89 1.157-1.502 1.438-.758.346-1.526.677-2.276 1.041-.405.198-.746.427-1.13.671-.875.558-2.11.598-2.899 1.317-.241.219-.592.513-.72.823-.231.561.39.568.701.789.178.127.281.427.448.612.187.205.404.344.452.639.094.579-.003 1.1-.389 1.527-.229.255-.398.467-.155.773.286.359 1.272.3 1.584.007" clip-path="url(#q)" style="fill:#fff;fill-opacity:1;fill-rule:nonzero;stroke:none" transform="matrix(1.33333 0 0 -1.33333 0 1122.52)" data-source="https://football-logos.cc"></path><!-- source: https://football-logos.cc --></svg>