<svg xmlns="http://www.w3.org/2000/svg" viewBox="18.6 8.52 905.49 1116.03"><!-- Source: https://football-logos.cc --><defs data-source="https://football-logos.cc"><clipPath id="a" clipPathUnits="userSpaceOnUse"><path d="M-693.069 424.9H15.592v-850.394h-708.66Z"></path></clipPath><clipPath id="b" clipPathUnits="userSpaceOnUse"><path d="M-487.09 689.702h708.66v-850.394h-708.66Z"></path></clipPath><clipPath id="c" clipPathUnits="userSpaceOnUse"><path d="M-209.26 584.387H499.4v-850.394h-708.66Z"></path></clipPath><clipPath id="d" clipPathUnits="userSpaceOnUse"><path d="M-327.12 658.869h708.66v-850.394h-708.66Z"></path></clipPath><clipPath id="e" clipPathUnits="userSpaceOnUse"><path d="M-373.611 658.869h708.66v-850.394h-708.66Z"></path></clipPath><clipPath id="f" clipPathUnits="userSpaceOnUse"><path d="M-352.747 648.879h708.661v-850.394h-708.66Z"></path></clipPath><clipPath id="g" clipPathUnits="userSpaceOnUse"><path d="M-368.768 656.64h708.66v-850.393h-708.66Z"></path></clipPath><clipPath id="h" clipPathUnits="userSpaceOnUse"><path d="M-127.224 321.478h708.661v-850.394h-708.66Z"></path></clipPath><clipPath id="i" clipPathUnits="userSpaceOnUse"><path d="M-121.205 341.612h708.661v-850.394h-708.66Z"></path></clipPath><clipPath id="j" clipPathUnits="userSpaceOnUse"><path d="M-117.21 361.148h708.66v-850.394h-708.66Z"></path></clipPath><clipPath id="k" clipPathUnits="userSpaceOnUse"><path d="M-114.65 381.274h708.661V-469.12h-708.66Z"></path></clipPath><clipPath id="l" clipPathUnits="userSpaceOnUse"><path d="M-601.362 685.96H107.3v-850.394h-708.66Z"></path></clipPath><clipPath id="m" clipPathUnits="userSpaceOnUse"><path d="M-590.03 701.777h708.661v-850.394h-708.66Z"></path></clipPath><clipPath id="n" clipPathUnits="userSpaceOnUse"><path d="M-578.797 715.939h708.66v-850.394h-708.66Z"></path></clipPath><clipPath id="o" clipPathUnits="userSpaceOnUse"><path d="M-567.274 729.103h708.661V-121.29h-708.66Z"></path></clipPath><clipPath id="p" clipPathUnits="userSpaceOnUse"><path d="M-394.678 667.796h708.661v-850.394h-708.66Z"></path></clipPath><clipPath id="q" clipPathUnits="userSpaceOnUse"><path d="M-502.7 510.121h708.66v-850.394H-502.7Z"></path></clipPath><clipPath id="r" clipPathUnits="userSpaceOnUse"><path d="M-380.11 670.396h708.66v-850.394h-708.66Z"></path></clipPath><clipPath id="s" clipPathUnits="userSpaceOnUse"><path d="M-495.14 508.196h708.66v-850.394h-708.66Z"></path></clipPath><clipPath id="t" clipPathUnits="userSpaceOnUse"><path d="M-402.962 217.807h708.66v-850.394h-708.66Z"></path></clipPath><clipPath id="u" clipPathUnits="userSpaceOnUse"><path d="M-350.377 170.189h708.661v-850.394h-708.66Z"></path></clipPath><clipPath id="v" clipPathUnits="userSpaceOnUse"><path d="M-379.734 176.829h708.66v-850.394h-708.66Z"></path></clipPath><clipPath id="w" clipPathUnits="userSpaceOnUse"><path d="M-396.587 196.388h708.661v-850.394h-708.66Z"></path></clipPath><clipPath id="x" clipPathUnits="userSpaceOnUse"><path d="M-401.44 217.81h708.66v-850.394h-708.66Z"></path></clipPath><clipPath id="y" clipPathUnits="userSpaceOnUse"><path d="M-398.787 233.85h708.66v-850.394h-708.66Z"></path></clipPath><clipPath id="z" clipPathUnits="userSpaceOnUse"><path d="M-349.135 258.714h708.661V-591.68h-708.66Z"></path></clipPath><clipPath id="A" clipPathUnits="userSpaceOnUse"><path d="M-320.383 238.703h708.661v-850.394h-708.66Z"></path></clipPath><clipPath id="B" clipPathUnits="userSpaceOnUse"><path d="M-343.906 193.444h708.661V-656.95h-708.66Z"></path></clipPath><clipPath id="C" clipPathUnits="userSpaceOnUse"><path d="M-378.324 207.536h708.661v-850.394h-708.66Z"></path></clipPath><clipPath id="D" clipPathUnits="userSpaceOnUse"><path d="M-379.443 240.367h708.66v-850.394h-708.66Z"></path></clipPath><clipPath id="E" clipPathUnits="userSpaceOnUse"><path d="M-303.97 309.231h708.662v-850.394H-303.97Z"></path></clipPath><clipPath id="F" clipPathUnits="userSpaceOnUse"><path d="M-192.18 193.513h708.661v-850.394H-192.18Z"></path></clipPath><clipPath id="G" clipPathUnits="userSpaceOnUse"><path d="M-232.686 159.348h708.661v-850.394h-708.66Z"></path></clipPath><clipPath id="H" clipPathUnits="userSpaceOnUse"><path d="M-269.726 139.559h708.661v-850.394h-708.66Z"></path></clipPath><clipPath id="I" clipPathUnits="userSpaceOnUse"><path d="M-329.292 115.553h708.66v-850.394h-708.66Z"></path></clipPath><clipPath id="J" clipPathUnits="userSpaceOnUse"><path d="M-458.453 114.495h708.66V-735.9h-708.66Z"></path></clipPath><clipPath id="K" clipPathUnits="userSpaceOnUse"><path d="M-542.064 139.796h708.661v-850.394h-708.66Z"></path></clipPath><clipPath id="L" clipPathUnits="userSpaceOnUse"><path d="M-651.16 462.796H57.5v-850.394h-708.66Z"></path></clipPath><clipPath id="M" clipPathUnits="userSpaceOnUse"><path d="M-571.23 204.998h708.661v-850.394h-708.66Z"></path></clipPath><clipPath id="N" clipPathUnits="userSpaceOnUse"><path d="M-589.432 267.14H119.23v-850.394h-708.66Z"></path></clipPath><clipPath id="O" clipPathUnits="userSpaceOnUse"><path d="M-622.5 322.168H86.16v-850.394H-622.5Z"></path></clipPath><clipPath id="P" clipPathUnits="userSpaceOnUse"><path d="M-655.293 403.555H53.368V-446.84h-708.66Z"></path></clipPath><clipPath id="Q" clipPathUnits="userSpaceOnUse"><path d="M-647.05 516.86H61.61v-850.394h-708.66Z"></path></clipPath><clipPath id="R" clipPathUnits="userSpaceOnUse"><path d="M-69.75 565.656h708.66v-850.394H-69.75Z"></path></clipPath><clipPath id="S" clipPathUnits="userSpaceOnUse"><path d="M-87.487 608.284h708.661V-242.11h-708.66Z"></path></clipPath><clipPath id="T" clipPathUnits="userSpaceOnUse"><path d="M-401.805 741.724h708.66V-108.67h-708.66Z"></path></clipPath><clipPath id="U" clipPathUnits="userSpaceOnUse"><path d="M-190.08 660.482h708.662v-850.394H-190.08Z"></path></clipPath><clipPath id="V" clipPathUnits="userSpaceOnUse"><path d="M-189.752 705.767h708.66v-850.394h-708.66Z"></path></clipPath><clipPath id="W" clipPathUnits="userSpaceOnUse"><path d="M-255.278 779.972h708.661V-70.422h-708.661Z"></path></clipPath><clipPath id="X" clipPathUnits="userSpaceOnUse"><path d="M-352.186 746.983h708.66v-850.394h-708.66Z"></path></clipPath></defs><path d="M0 0c0-231.138-152.026-418.513-339.56-418.513S-679.12-231.138-679.12 0s152.026 418.513 339.56 418.513S0 231.138 0 0" clip-path="url(#a)" style="fill:#edbc57;fill-opacity:1;fill-rule:nonzero;stroke:none" transform="matrix(1.33333 0 0 -1.33333 924.092 566.534)"></path><path d="m0 0 67.111-52.896c-54.905-53.731-124.216-85.75-199.876-85.75-179.665 0-325.31 180.677-325.31 403.562 0 27.847 2.277 55.043 6.601 81.311l77.822-60.111c1.027 58.386 17.933 92.313 17.933 92.313l-72.523 55.526c51.546 138.453 164.468 234.523 295.477 234.523 179.658 0 323.563-180.792 323.563-403.677 0-95.571-26.46-183.368-70.853-252.472L52.528 64.343C39.908 40.023 14.706 13.671 0 0" clip-path="url(#b)" style="fill:#000;fill-opacity:1;fill-rule:nonzero;stroke:none" transform="matrix(1.33333 0 0 -1.33333 649.454 919.602)"></path><path d="M0 0s12.766-8.108 30.966-7.073c0 0-15.612 29.413-16.389 41.748 0 0 13.916-29.701 72.374-46.009a4.14 4.14 0 0 0 2.996-3.428c.345-2.511.224-6.605-.155-8.182-1.847-4.165-7.606-13.546-7.606-13.546s20.645-10.174 58.713-10.174c28.292 0 71.031 10.092 71.031 10.092l-8.856 16.064c-1.879 3.407-.258 7.688 3.41 8.985 16.411 5.802 56.789 21.925 70.742 44.386 0 0 4.198-16.273-13.14-40.166 0 0 19.437 3.249 30.477 7.303 0 0-7.331-19.925-43.214-35.537l5.552-11.903a5.345 5.345 0 0 0-2.153-6.872C218.75-75.33 181.796-85.134 143.271-85.134c-39.343 0-74.127 10.617-105.639 32.17a4.72 4.72 0 0 0-1.591 5.957l5.534 11.383S11.932-23.088 0 0" clip-path="url(#c)" style="fill:#edbc57;fill-opacity:1;fill-rule:nonzero;stroke:none" transform="matrix(1.33333 0 0 -1.33333 279.014 779.183)"></path><path d="M0 0c5.744 6.16 9.238 9.618 9.338 14.585.05 2.518-1.579 4.288-3.628 4.288-1.914 0-3.53-.989-4.134-3.678l-1.378.069c.874 4.594 4.109 6.571 7.024 6.571 3.728 0 6.688-1.752 6.631-6.352-.027-2.144-1.056-3.791-2.5-5.595-.638-.783-2.302-2.657-7.154-7.08h6.113c2.049 0 3.972.944 4.576 3.101l.632-.058-1.749-7.263H0Z" clip-path="url(#d)" style="fill:#000;fill-opacity:1;fill-rule:nonzero;stroke:none" transform="matrix(1.33333 0 0 -1.33333 436.16 878.492)"></path><path d="M0 0c5.744 6.16 9.238 9.618 9.338 14.585.05 2.518-1.579 4.288-3.628 4.288-1.914 0-3.53-.989-4.134-3.678l-1.378.069c.874 4.594 4.109 6.571 7.024 6.571 3.728 0 6.688-1.752 6.631-6.352-.027-2.144-1.056-3.791-2.5-5.595-.638-.783-2.302-2.657-7.154-7.08h6.113c2.049 0 3.972.944 4.576 3.101l.632-.058-1.749-7.263H0Z" clip-path="url(#e)" style="fill:#000;fill-opacity:1;fill-rule:nonzero;stroke:none" transform="matrix(1.33333 0 0 -1.33333 498.148 878.492)"></path><path d="M0 0c0 7.08.267 10.927-2.286 10.927-2.449 0-2.656-3.609-2.656-10.11 0-7.726.034-11.799 2.656-11.799C.267-10.982 0-7.148 0 0m-2.286-11.845c-4.45 0-7.59 4.255-7.59 11.811 0 7.59 3.243 11.879 7.59 11.879S5.305 7.556 5.305-.034c0-7.556-3.174-11.811-7.591-11.811" clip-path="url(#f)" style="fill:#000;fill-opacity:1;fill-rule:nonzero;stroke:none" transform="matrix(1.33333 0 0 -1.33333 470.33 865.172)"></path><path d="M0 0c.036-2.225.605-2.922 3.426-2.99v-.651H-9.049v.593c2.821.068 3.996.823 4.026 2.904l.057 16.36c-2.181-.591-2.824-.669-4.241-.69l-.13 1.064c2.013.373 5.607 1.178 8.094 3.321h1.208z" clip-path="url(#g)" style="fill:#000;fill-opacity:1;fill-rule:nonzero;stroke:none" transform="matrix(1.33333 0 0 -1.33333 491.691 875.52)"></path><path d="M0 0a184 184 0 0 1-3.029-9.185l-72.086 55.479a389 389 0 0 0 3.051 9.163z" clip-path="url(#h)" style="fill:#c51218;fill-opacity:1;fill-rule:nonzero;stroke:none" transform="matrix(1.33333 0 0 -1.33333 169.631 428.637)"></path><path d="M0 0a230 230 0 0 1-2.208-9.829l-72.884 56.108a425 425 0 0 0 2.683 9.454z" clip-path="url(#i)" style="fill:#c51218;fill-opacity:1;fill-rule:nonzero;stroke:none" transform="matrix(1.33333 0 0 -1.33333 161.607 455.482)"></path><path d="M0 0a282 282 0 0 1-1.426-9.714L-75.713 47.46a492 492 0 0 0 2.192 9.131z" clip-path="url(#j)" style="fill:#c51218;fill-opacity:1;fill-rule:nonzero;stroke:none" transform="matrix(1.33333 0 0 -1.33333 156.28 481.53)"></path><path d="M0 0q-.46-4.959-.759-10.228l-76.373 58.777a472 472 0 0 0 1.863 9.384z" clip-path="url(#k)" style="fill:#c51218;fill-opacity:1;fill-rule:nonzero;stroke:none" transform="matrix(1.33333 0 0 -1.33333 152.866 508.365)"></path><path d="M0 0a345 345 0 0 0-5.221-7.483L-72.003 43.91a172 172 0 0 1 5.053 7.621z" clip-path="url(#l)" style="fill:#c51218;fill-opacity:1;fill-rule:nonzero;stroke:none" transform="matrix(1.33333 0 0 -1.33333 801.816 914.613)"></path><path d="M0 0a322 322 0 0 0-5.589-7.207l-66.904 51.493a258 258 0 0 1 5.697 7.13z" clip-path="url(#m)" style="fill:#c51218;fill-opacity:1;fill-rule:nonzero;stroke:none" transform="matrix(1.33333 0 0 -1.33333 786.706 935.703)"></path><path d="M0 0a332 332 0 0 0-5.597-6.548l-67.249 51.761a352 352 0 0 1 5.773 6.418z" clip-path="url(#n)" style="fill:#c51218;fill-opacity:1;fill-rule:nonzero;stroke:none" transform="matrix(1.33333 0 0 -1.33333 771.73 954.585)"></path><path d="M0 0a346 346 0 0 0-6.026-6.402L-73.659 45.65a351 351 0 0 1 6.219 6.264z" clip-path="url(#o)" style="fill:#c51218;fill-opacity:1;fill-rule:nonzero;stroke:none" transform="matrix(1.33333 0 0 -1.33333 756.365 972.138)"></path><path d="M0 0c-10.404-9.668-21.376-18.555-38.152-29.526C-51.117-21.108-63.055-11.8-74.119-2.323c10.313-1.633 20.955-2.446 31.973-2.446C-29.81-4.769-15.281-3.19 0 0" clip-path="url(#p)" style="fill:#feffff;fill-opacity:1;fill-rule:nonzero;stroke:none" transform="matrix(1.33333 0 0 -1.33333 526.237 890.395)"></path><path d="M0 0c-4.048-10.573-8.702-22.818-14.859-36.25l-.728 3.419c-.177.46-.844.399-.928-.092-.268-1.564-.675-4.071-2.285-6.877-12.597-21.959-50.419-36.021-69.173-43.121-3.197-1.211-5.605-3.956-6.126-7.467-.315-2.078.153-4.202 1.173-6.042l6.808-12.36c-11.094-2.522-43.618-9.446-66.298-9.446-28.683 0-47.467 6.15-54.429 8.894 1.886 3.175 4.731 8.082 5.98 10.895l.108.253.069.276c.483 2.025.59 6.548.207 9.308a7.2 7.2 0 0 1-5.191 5.942c-39.624 11.049-62.434 30.056-70.607 44.025-2.944 5.045-1.234 6.111-6.44 9.186-4.639 10.772-9.002 21.951-13.249 33.628-30.017 82.575-24.183 174.091-17.911 203.364 48.089 1.955 80.781 15.588 130.012 42.446-13.348 10.097-21.981 26.137-21.981 44.193 0 30.562 24.719 55.334 55.211 55.334s55.211-24.772 55.211-55.334c0-17.719-8.311-33.498-21.238-43.626 37.309-19.958 74.142-40.406 130.335-42.331C29.312 128.517 16.477 43.067 0 0" clip-path="url(#q)" style="fill:#feffff;fill-opacity:1;fill-rule:nonzero;stroke:none" transform="matrix(1.33333 0 0 -1.33333 670.267 680.161)"></path><path d="M0 0c-6.977-5.827-14.46-11.531-23.584-18.064A519 519 0 0 0-45.198-1.449a211 211 0 0 1 17.619-.721C-19.237-2.17-9.898-1.449 0 0" clip-path="url(#r)" style="fill:#c51218;fill-opacity:1;fill-rule:nonzero;stroke:none" transform="matrix(1.33333 0 0 -1.33333 506.813 893.86)"></path><path d="m0 0-1.004-2.699c-6.149-15.794-13.694-34.502-25.647-55.533-16.745-12.735-40.222-21.484-53.762-26.613-3.198-1.211-5.605-3.956-6.126-7.468-.315-2.078.153-4.201 1.173-6.042l6.808-12.359c-11.094-2.523-43.618-9.446-66.298-9.446-28.683 0-47.467 6.149-54.429 8.894 1.886 3.174 4.73 8.081 5.98 10.895l.108.253.069.276c.483 2.024.59 6.548.207 9.308a7.2 7.2 0 0 1-5.191 5.942c-24.067 6.709-41.932 16.354-54.077 26.022-10.335 18.287-20.494 39.026-29.273 63.163-27.127 74.532-24.642 158.519-18.685 193.565 47 2.906 80.406 17.297 131.446 45.252 7.606-4.255 16.446-6.694 25.877-6.694 9.66 0 18.7 2.561 26.429 7.016 2.215-1.181 4.424-2.354 6.609-3.527 35.223-18.838 71.596-38.298 124.837-41.387C28.783 122.552 17.244 44.155 0 0" clip-path="url(#s)" style="fill:#c51218;fill-opacity:1;fill-rule:nonzero;stroke:none" transform="matrix(1.33333 0 0 -1.33333 660.188 677.595)"></path><path d="M0 0c0-28.126-22.701-50.927-50.704-50.927S-101.408-28.126-101.408 0s22.701 50.927 50.704 50.927S0 28.126 0 0" clip-path="url(#t)" style="fill:#000;fill-opacity:1;fill-rule:nonzero;stroke:none" transform="matrix(1.33333 0 0 -1.33333 537.283 290.41)"></path><path d="M0 0s-7.59-.169-13.977-9.914c0 0-6.671-.874-14.491-3.711l-.338 4.601c7.921 6.371 17.842 10.32 28.66 10.757z" clip-path="url(#u)" style="fill:#fff;fill-opacity:1;fill-rule:nonzero;stroke:none" transform="matrix(1.33333 0 0 -1.33333 467.17 226.919)"></path><path d="M0 0h-8.833c-6.816 7.36-18.999 6.954-18.999 6.954l-.123 1.457c.162.008.315.008.476.008A48.83 48.83 0 0 0 0 0" clip-path="url(#v)" style="fill:#fff;fill-opacity:1;fill-rule:nonzero;stroke:none" transform="matrix(1.33333 0 0 -1.33333 506.313 235.772)"></path><path d="M0 0v-.008c-.291-3.695-1.119-9.055-4.209-12.351l-11.785.636s-8.342 14.376-11.04 16.101c0 0 1.548 9.377 1.38 13.571l10.787.184A49.57 49.57 0 0 0 0 0" clip-path="url(#w)" style="fill:#fff;fill-opacity:1;fill-rule:nonzero;stroke:none" transform="matrix(1.33333 0 0 -1.33333 528.783 261.85)"></path><path d="M0 0c0-4.999-.736-9.822-2.116-14.368l-3.841 3.649s2.422 8.917-1.611 18.808c0 0 2.607 3.956 4.394 9.392A49.3 49.3 0 0 0 0 0" clip-path="url(#x)" style="fill:#fff;fill-opacity:1;fill-rule:nonzero;stroke:none" transform="matrix(1.33333 0 0 -1.33333 535.254 290.413)"></path><path d="M0 0a49.44 49.44 0 0 0-18.11-24.274c-3.274.245-7.1.912-8.25 2.63 0 0 5.521 4.715 8.511 14.314 0 0 7.59.23 14.199 10.757z" clip-path="url(#y)" style="fill:#fff;fill-opacity:1;fill-rule:nonzero;stroke:none" transform="matrix(1.33333 0 0 -1.33333 531.717 311.8)" data-source="https://football-logos.cc"></path><path d="m0 0-7.284-7.376C-17.151-5.244-25.915-.138-32.601 6.962v7.813l5.061 4.033s14.375-6.556 17.941-5.812c0 0 4.884-8.856 9.599-12.996" clip-path="url(#z)" style="fill:#fff;fill-opacity:1;fill-rule:nonzero;stroke:none" transform="matrix(1.33333 0 0 -1.33333 465.513 344.952)"></path><path d="m0 0-4.999-3.68-8.235 4.868c-2.622 6.034-4.071 12.697-4.071 19.705q0 2.555.253 5.053c1.994 2.124 4.838 4.7 8.771 7.291l6.679-10.749S-2.185 11.669 0 0" clip-path="url(#A)" style="fill:#fff;fill-opacity:1;fill-rule:nonzero;stroke:none" transform="matrix(1.33333 0 0 -1.33333 427.177 318.27)"></path><path d="M0 0s-6.325-10.872-6.9-16.454c0 0-1.902-4.194-16.623-5.919l-6.609 11.21s1.38 12.543 6.954 17.603c5.582 5.061 16.224 4.999 16.224 4.999S-2.185 5.804 0 0" clip-path="url(#B)" style="fill:#fff;fill-opacity:1;fill-rule:nonzero;stroke:none" transform="matrix(1.33333 0 0 -1.33333 458.54 257.925)"></path><path d="M0 0s-.782-10.059-7.337-19.145c0 0-13.679-1.556-20.702-1.38 0 0-6.325 4.83-12.014 16.331 0 0 2.123 9.829 6.724 16.385 0 0 5.758 4.424 22.802 2.561 0 0 7.851-7.591 10.527-14.752" clip-path="url(#C)" style="fill:#fff;fill-opacity:1;fill-rule:nonzero;stroke:none" transform="matrix(1.33333 0 0 -1.33333 504.432 276.714)"></path><path d="M0 0s-.859-6.563-10.412-15.994c0 0-7.706-2.76-19.199-.805 0 0-3.91 3.91-8.342 12.022 0 0 5.92 5.574 8.91 15.465 0 0 10.465-.744 20.647 1.602 0 0 6.211-7.061 8.396-12.29" clip-path="url(#D)" style="fill:#fff;fill-opacity:1;fill-rule:nonzero;stroke:none" transform="matrix(1.33333 0 0 -1.33333 505.924 320.489)"></path><path d="m0 0 2.415 6.038S7.763-.604 12.047-.259c6.969.561 10.638-2.53 13.168-3.738 2.531-1.207 5.379-.184 9.374-3.392 3.795-3.048 3.795-8.741 7.073-10.983h1.341c3.36 0 6.11-2.673 6.206-6.032l.432-10.357s3.866-1.438 3.881-3.666c.022-3.407-1.079-2.501-1.079-2.501l.547-4.586.532-1.754s5.649-4.485 6.339-12.68.949-13.801-2.587-16.216c0 0-6.038-11.041-6.728-15.957 0 0 4.83-6.211 5.865-16.302 0 0 4.831-11.818 16.216-17.597s33.209-11.127 37.435-29.327c0 0 25.561 6.441 37.637-1.38 0 0 11.155-5.29 10.58-21.391 0 0 1.15-7.936-1.61-11.616s-12.651-21.506-12.651-21.506.058-37.665-11.486-37.306l1.38 6.067s.129 3.939-.474 5.477c0 0-1.955-8.971-20.587-8.511 0 0 9.687 7.496 8.626 19.552-1.064 12.09-3.835 17.443-1.584 21.724 2.849 5.418 11.244 10.363 13.085 21.519 1.84 11.155-5.408 13.739-12.306 14.031-8.166.345-12.651-7.131-13.111-15.066-.566-9.76 10.581-14.951 10.236-25.302s-5.406-14.951-7.016-17.481-4.14-24.957-4.14-24.957l-.345-.92-.235-15.587-12.186.291-.575-1.035s1.61-3.68-2.07-7.246c0 0-15.871-2.185-19.551-1.265 0 0-.23 14.836 16.676 18.172 0 0 2.875 7.13 4.83 9.89l1.035 13.456.69 23.922s-2.875-.92-4.715 3.105c0 0-2.875-7.476-1.38-12.536s.23-5.175.23-5.175l-3.695-.124s-6.541-4.132-10.221-10.687-6.613-17.596-9.086-17.481c-3.793.176-6.21 2.415-7.705.92-.387-.387-1.083-1.452-.849-2.818.672-3.919 3.484-10.61.159-13.168 0 0-1.61-.805-18.862-2.07l3.796 11.615s.23 14.951 6.9 18.402c6.67 3.45 15.296 9.43 24.497 22.541l.115 6.671s-14.899 5.347-23.924 37.952c0 0-10.588 8.912-23.494 9.79-22.191 1.51-36.337 17.639-36.768 26.61 0 0-14.232-3.45-16.13 3.882 0 0-6.728 4.661-15.439-1.335 0 0 .258-2.461-.777-2.461 0 0 1.725-18.286-2.674-20.27s-7.849-1.035-7.849-1.035v-6.9l2.588-.173s3.795-2.846 4.83-7.245l-14.577-12.68s-2.847-.776-3.882.086c-1.035.863-2.674 4.227-2.501 10.006.172 5.779.69 6.383.69 6.383l.345 12.248.604.518-.777.604-.258 7.849s2.674 4.054 5.951 5.951c3.278 1.898 8.54 13.198 10.092 18.545s2.07 9.747 4.831 10.179c2.76.431 6.037.838 11.04-1.781 0 0 7.332 4.023 10.523 2.988l.604 9.575s-4.485 7.418-10.178 7.245c-5.693-.172-8.108-3.364-8.108-3.364s-2.933-9.229-8.108-9.488-8.022 2.674-9.919.69-1.035-2.933-1.035-2.933.258-11.903-1.812-13.283c0 0-16.647-6.9-20.442.086s13.197 19.408 13.197 19.408l2.932 2.76s-1.293 6.728 3.019 9.833 7.246 3.537 15.44 2.674c0 0 8.108 3.105 17.337 11.127 0 0 4.227 2.76 8.281-.259 0 0 1.208-1.294 1.121-3.881 0 0 3.278-3.429 7.677-2.534S-4.83-81.08.604-75.258s7.849 7.72 7.935 15.31c.087 7.591-.172 10.006-.172 10.006s-7.591-1.811-13.629-.776c0 0-3.105-2.071-5.434-1.553 0 0-11.414-11.472-17.165-9.143-4.79 1.94.863 11.472.863 11.472s-8.338-5.52-9.488 0c-1.346 6.459.172 9.143.172 9.143l15.613 14.922 12.075 11.041S-6.469 2.76-5.52 4.83c0 0 2.587-1.207 5.52-4.83" clip-path="url(#E)" style="fill:#fefefe;fill-opacity:1;fill-rule:nonzero;stroke:none" transform="matrix(1.33333 0 0 -1.33333 405.292 412.308)"></path><path d="M0 0c-1.495-6.295-4.539-13.234-8.411-18.854-13.004-18.907-33.68-24.669-49.331-12.359C-77.31-15.822-75.414 3.688-61.636 21.89c3.833 5.06 7.805 9.377 12.006 12.727 0 0 8.066-5.014 12.015-6.908 2.262-1.089.997-3.074.069-4.14-8.748 2.66-17.044 1.104-22.825-7.384-6.947-10.197-1.84-24.88 11.148-34.119 12.988-9.246 29.058-8.955 35.89.645 4.78 6.725 6.319 16.009.561 24.303a2.31 2.31 0 0 0-.267 2.087C-11.741 12.75-8.042 11.27 0 0" clip-path="url(#F)" style="fill:#edbc57;fill-opacity:1;fill-rule:nonzero;stroke:none" transform="matrix(1.33333 0 0 -1.33333 256.24 258.017)"></path><path d="m0 0-34.928-33.343a1.42 1.42 0 0 0-2.026.066l-.707.768a1.42 1.42 0 0 0-.086 1.821l3.176 4.183a3.075 3.075 0 0 1-.2 3.956l-33.367 35.698a4.28 4.28 0 0 1-5.513.629l-3.155-2.125a1.34 1.34 0 0 0-1.735.203l-.697.755a1.34 1.34 0 0 0 .08 1.9l20.68 18.91c.546.5 1.395.462 1.895-.085l.53-.58a1.34 1.34 0 0 0 .052-1.751l-1.267-1.56c-3.161-3.108.231-6.597.231-6.597C-40.506 3.623-25.792-10.57-25.792-10.57a5.024 5.024 0 0 1 7.129-.212l7.27 6.902.544.518a10.19 10.19 0 0 1 2.974 9.337l-1.416 7.226c-.19.971.267 1.986 1.16 2.413.303.145.604.211.916.211.752 0 1.465-.406 1.848-1.096L-.69 6.295.606 3.949A3.26 3.26 0 0 0 0 0" clip-path="url(#G)" style="fill:#edbc57;fill-opacity:1;fill-rule:nonzero;stroke:none" transform="matrix(1.33333 0 0 -1.33333 310.247 212.463)"></path><path d="m0 0-7.675-3.197c-10.389-4.746-22.403-1.066-27.862 9.699l-15.922 31.43a5.353 5.353 0 0 1-7.193 2.357l-1.057-.535A1.82 1.82 0 0 0-61.353 43l23.98 12.149a1.819 1.819 0 1 0 1.645-3.245l-1.116-.566a5.09 5.09 0 0 1-2.22-6.884l15.771-30.469c4.83-9.967 13.54-12.567 20.678-8.618l.89.491C6.67 10.113 8.426 21.2 4.171 29.595l-13.705 27.06a7.59 7.59 0 0 1-10.205 3.342l-.544-.275a1.82 1.82 0 0 0-2.445.8l-.002.004a1.82 1.82 0 0 0 .801 2.446l19.197 9.72a1.819 1.819 0 0 0 1.644-3.246l-.718-.363a6.345 6.345 0 0 1-2.82-8.468L10.09 30.814C15.917 19.306 11.501 5.827 0 0" clip-path="url(#H)" style="fill:#edbc57;fill-opacity:1;fill-rule:nonzero;stroke:none" transform="matrix(1.33333 0 0 -1.33333 359.634 186.078)"></path><path d="M0 0s-8.457-.951-9.645 9.599c-.008.008-.008.023-.008.031l-1.809 16.247a6.36 6.36 0 0 0 3.503 1.549l2.339.26c7.399.828 14.077-4.508 14.905-11.915l.406-3.649C10.358 6.103 6.019.675 0 0m-14.552 53.517a6.26 6.26 0 0 0 3.887 1.924l.537.062c6.517.728 12.382-3.964 13.111-10.481l.122-1.074c.683-6.149-3.741-11.692-9.898-12.375l-2.86-.161c-.989-.007-1.802.092-2.461.307zm39.409-37.178c-1.096 9.806-9.04 16.231-20.203 15.771 14.905 3.795 12.29 16.37 12.29 16.37-.874 7.851-10.014 13.304-28.912 11.163-5.031-.57-19.756-3.122-23.295-3.74a.833.833 0 0 1-.684-.915l.245-2.162a.835.835 0 0 1 .789-.739l2.749-.133a5.24 5.24 0 0 0 4.958-4.656l5.163-46.29a3.126 3.126 0 0 0-2.071-3.297l-4.871-1.71a.74.74 0 0 1-.492-.72l.069-2.011a.734.734 0 0 1 .804-.708C-14.509-6.064 1.86-4.29 6.908-3.025c20.644 5.176 17.949 19.364 17.949 19.364" clip-path="url(#I)" style="fill:#edbc57;fill-opacity:1;fill-rule:nonzero;stroke:none" transform="matrix(1.33333 0 0 -1.33333 439.056 154.07)"></path><path d="M0 0s-9.661-21.161-28.484-16.937l-4.158 1.845a8.86 8.86 0 0 0-4.505 11.686l17.589 39.669a3.67 3.67 0 0 0 4.84 1.867l4.398-1.949C1.794 30.807 7.591 16.446 0 0m16.216 17.021C13.402 26.076 5.175 34.012-2.921 37.677l-31.827 13.872a1 1 0 0 1-1.273-.432l-.896-1.616a1 1 0 0 1 .361-1.341l2.424-1.45a4.036 4.036 0 0 0 1.617-5.099L-52.104-2.556a3.44 3.44 0 0 0-4.07-1.916l-4.877 1.369a1.165 1.165 0 0 1-1.382-.656l-.466-1.07a1.165 1.165 0 0 1 .579-1.522l28.592-13.2C1.894-33.866 13.916-7.016 13.916-7.016c3.327 7.514 4.7 16.301 2.3 24.037" clip-path="url(#J)" style="fill:#edbc57;fill-opacity:1;fill-rule:nonzero;stroke:none" transform="matrix(1.33333 0 0 -1.33333 611.271 152.66)"></path><path d="m0 0-8.449-10.259a1.1 1.1 0 0 0-1.557-.138l-1.211 1.02a1.09 1.09 0 0 0-.307 1.273l1.902 4.485a8.83 8.83 0 0 1-2.285 10.075l-10.481 9.254L-36.404.056a2.29 2.29 0 0 1 .179-3.23l7.315-6.547a4.443 4.443 0 0 1 6.075.139l1.677 1.644c.672.659 1.725.842 2.523.342a1.992 1.992 0 0 0 .41-3.046l-12.482-13.456a1.98 1.98 0 0 0-2.814-.107 2 2 0 0 0-.636 1.464c0 .453.153.905.467 1.281l1.093 1.296a5.353 5.353 0 0 1-.521 7.437l-6.474 5.803a2.287 2.287 0 0 1-3.23-.178l-11.422-12.754a6.815 6.815 0 0 1 .53-9.624l7.657-6.855a9.45 9.45 0 0 1 9.538-1.84l6.295 2.285a2.186 2.186 0 0 0 2.553-.813l.031-.046a2.194 2.194 0 0 0-.637-3.09l-11.853-7.475a1.25 1.25 0 0 0-1.487.13l-27.84 25.547c-.391.353-9.362 7.767-9.362 7.767a1.953 1.953 0 0 0-.153 2.76l.077.085a1.956 1.956 0 0 0 2.576.299l3.824-2.673a4.413 4.413 0 0 1 5.817.673l31.811 35.515a3.96 3.96 0 0 1 .342 4.846l-2.422 3.622a1.21 1.21 0 0 0 .183 1.558l.851.79c.46.43 1.173.437 1.641.008l8.671-8.327L-.176 2.477A1.795 1.795 0 0 0 0 0" clip-path="url(#K)" style="fill:#edbc57;fill-opacity:1;fill-rule:nonzero;stroke:none" transform="matrix(1.33333 0 0 -1.33333 722.752 186.395)"></path><path d="m0 0-13.337-.663A1.1 1.1 0 0 0-14.461.423l-.022 1.583c-.015.485.299.919.761 1.066l4.634 1.5a8.83 8.83 0 0 1 6.118 8.324l.13 13.982-21.01.34a2.287 2.287 0 0 1-2.323-2.25l-.147-9.152c-.037-2.342 1.622-4.667 3.956-4.857l2.341-.19c.938-.077 1.883-1.06 2.027-1.99a1.99 1.99 0 0 0-.661-1.816 2 2 0 0 0-1.372-.489l-18.343.621a1.98 1.98 0 0 0-1.924 2.056 1.99 1.99 0 0 0 1.964 1.925l1.695.023a5.353 5.353 0 0 1 5.279 5.264l.146 8.693a2.287 2.287 0 0 1-2.249 2.325l-17.12.279a6.814 6.814 0 0 1-6.925-6.703l-.147-9.067c-.053-3.486 2.757-8.471 5.805-10.162l4.881-2.721a2.186 2.186 0 0 0 1.057-2.462l-.014-.053a2.193 2.193 0 0 0-2.752-1.542L-62.088-.988a1.25 1.25 0 0 0-.876 1.209l1.075 37.77c.01.526-.261 12.161-.261 12.161a1.954 1.954 0 0 0 1.985 1.924l.114-.003a1.955 1.955 0 0 0 1.913-1.751l.484-4.64a4.415 4.415 0 0 1 4.319-3.956l47.672-.782a3.96 3.96 0 0 1 3.887 2.916l1.151 4.202c.157.573.707.947 1.297.882l1.154-.126a1.206 1.206 0 0 0 1.081-1.235l-.614-12.006-.537-33.822A1.794 1.794 0 0 0 0 0" clip-path="url(#L)" style="fill:#edbc57;fill-opacity:1;fill-rule:nonzero;stroke:none" transform="matrix(1.33333 0 0 -1.33333 868.214 617.062)"></path><path d="M0 0c-8.365-6.072-18.754-3.397-25.539 4.355l-3.06 3.305a1.75 1.75 0 0 0 .238 2.591c.284.215.629.33.974.33.299 0 .606-.092.866-.276 2.891-2.04 10.236-4.593 18.087 2.047C.36 19.804-1.595 27.74-4.332 31.635l-.287.378a2.897 2.897 0 0 1-4.058.554L-48.036 2.661a4.22 4.22 0 0 1-1.053-5.551l2.035-3.351a1.637 1.637 0 0 0-.414-2.162 1.64 1.64 0 0 0-2.307.314l-17.489 23.016a1.307 1.307 0 0 0 .245 1.826l.56.429a1.313 1.313 0 0 0 1.74-.146l2.46-2.63a4.597 4.597 0 0 1 6.163-.502l37.763 29.081a4.05 4.05 0 0 1 .943 5.389l-1.77 2.774a.79.79 0 0 0 .153 1.104l.69.529a2.144 2.144 0 0 0 3.013-.414l12.651-15.22C3.42 30.324 15.143 11.002 0 0" clip-path="url(#M)" style="fill:#edbc57;fill-opacity:1;fill-rule:nonzero;stroke:none" transform="matrix(1.33333 0 0 -1.33333 761.64 273.33)"></path><path d="M0 0c-14.246-7.315-28.783-8.288-33.682 2.331-5.168 11.194.445 22.166 17.742 31.543 14.054 7.621 28.422 6.402 32.685-2.906C21.445 20.717 16.745 8.603 0 0m22.219 30.508c-7.92 17.328-27.977 25.163-44.845 17.473-16.868-7.682-25.808-24.458-16.231-45.313 9.085-19.773 27.525-24.703 44.293-17.458 17.013 7.353 25.516 26.206 16.783 45.298" clip-path="url(#N)" style="fill:#edbc57;fill-opacity:1;fill-rule:nonzero;stroke:none" transform="matrix(1.33333 0 0 -1.33333 785.909 356.187)"></path><path d="m0 0-2.101-.613c-3.872-1.12-8.219-.522-11.171 1.778-1.165.905-2.039 2.14-2.706 3.527-.721 1.495-1.12 3.121-1.296 4.777l-.345 3.251 21.276 6.172c3.435.353 4.524-.161 5.467-2.316.36-1.249.537-2.499.537-3.741C9.661 7.039 5.85 1.694 0 0m12.559 20.617-5.996 19.13a1.32 1.32 0 0 1-1.541.92l-1.237-.258a1.31 1.31 0 0 1-1.043-1.35l.214-4.863c.045-1.047-.912-2.054-1.918-2.346l-45.434-13.18a5.33 5.33 0 0 0-6.224 2.674l-1.333 2.578a1.6 1.6 0 0 1-1.917.889l-.345-.1a1.6 1.6 0 0 1-1.096-1.993l7.483-25.808a1.604 1.604 0 0 1 1.994-1.096l.36.099a1.61 1.61 0 0 1 1.142 1.772l-.407 2.877a4.79 4.79 0 0 0 3.41 5.274l17.262 5.012a1.38 1.38 0 0 0 1.709-.942l1.112-3.793a2.5 2.5 0 0 0-.669-2.508L-34.579-8.541s-7.245-6.126-6.816-14.315c.291-5.497 1.204-9.637 3.228-13.9.843-1.772 3.511-1.082 3.396.874l-.107 1.633c-.245 4.201 2.668 8.756 4.439 10.611l15.547 15.62a.98.98 0 0 0 1.427-.036c2.15-2.386 9.228-9.142 17.981-5.908 17.483 6.459 9.814 28.108 8.043 34.579" clip-path="url(#O)" style="fill:#edbc57;fill-opacity:1;fill-rule:nonzero;stroke:none" transform="matrix(1.33333 0 0 -1.33333 830 429.557)"></path><path d="M0 0v-2.975l-16.446-.245a.97.97 0 0 0-.981.966v1.035c0 .353.191.682.506.851l4.677 2.53A8 8 0 0 1-8.12 10.09l-1.111 9.339-49.826-5.7a5.837 5.837 0 0 1-5.161-6.195l.274-4.022-3.496.145-3.711 32.471 3.496-.184.871-5.266a4.167 4.167 0 0 1 4.586-3.461l51.334 5.875-1.15 9.668a9.07 9.07 0 0 1-6.295 7.567l-6.195 1.933v3.565l18.915-1.058-.338-2.446-.904-.583a2.22 2.22 0 0 1-1.013-2.116l5.153-47.053A2.89 2.89 0 0 1 0 0" clip-path="url(#P)" style="fill:#edbc57;fill-opacity:1;fill-rule:nonzero;stroke:none" transform="matrix(1.33333 0 0 -1.33333 873.724 538.073)"></path><path d="m0 0-4.202-1.066a2.8 2.8 0 0 0-1.012-.076l-7.598.751c-.966.1-1.779.797-1.955 1.756a4 4 0 0 0-.054.836c.054 1.61 3.78 1.456 7.3 3.388C-3.496 7.79.406 11.945-.115 17.619c0 0-1.05 8.595-9.668 8.058-3.834-.237-7.637-4.569-8.319-5.382a1 1 0 0 1-.092-.115l-.016-.015-9.675-12.483q.002 0-.054-.068c-.568-.698-5.398-6.28-14.43-6.28-2.806 0-5.42.422-7.774 1.296-7.338 2.676-12.114 9.607-12.122 21.192 0 12.934 6.333 20.096 6.333 20.096l2.499 1.004h12.475s1.84.245 1.84-1.871c0-3.189-17.565-4.109-18.486-18.025 0 0-.124-9.858 10.15-10.495 5.674-.352 10.192 4.744 11.257 6.078q.127.164.184.246l.046.061 8.005 10.32s.107.146.306.391c1.105 1.342 5.091 5.689 11.095 6.387 4.11.475 7.897.008 11.079-1.449 5.72-2.592 9.515-8.342 9.806-17.458C4.746 6.172 0 0 0 0" clip-path="url(#Q)" style="fill:#edbc57;fill-opacity:1;fill-rule:nonzero;stroke:none" transform="matrix(1.33333 0 0 -1.33333 862.734 689.147)"></path><path d="m0 0-10.072 45.275a1.37 1.37 0 0 0 1.058 1.64l.981.205c.647.135.923-.46 1.167-1.073l1.861-4.685c.534-1.336 3.085-1.899 5.873-1.382l42.927 9.862c1.97.427 3.752 1.924 3.652 3.939l-.022 3.837c-.208 2.172 2.897 2.345 3.184.332l5.377-24.669c.538-2.767-2.415-3.565-3.417-.533-1.663 5.031-5.036 4.184-5.036 4.184-24.382-4.916-43.43-10.429-43.43-10.429a4.855 4.855 0 0 1-3.708-5.78l2.222-10.11A9.72 9.72 0 0 1 8.81 3.554l6.637-2.396c.892-.322 1.499-1.2 1.407-2.147a2 2 0 0 0-.281-.861c-.372-.62-1.575-.601-2.608-.622l-8.453-.063-2.569.088A3.11 3.11 0 0 0 0 0" clip-path="url(#R)" style="fill:#edbc57;fill-opacity:1;fill-rule:nonzero;stroke:none" transform="matrix(1.33333 0 0 -1.33333 93 754.208)"></path><path d="m0 0-9.392 22.833c-.662 1.754 2.041 3.019 2.896 1.652l2.333-3.794c.756-1.225 3.365-1.34 6.023-.35l40.586 17.112c1.867.76 3.155 2.217 2.708 4.185l-.795 4.297c-.579 2.104 2.623 2.946 3.253 1.013l9.696-23.708c1.007-2.633-1.765-3.928-3.275-1.114-2.504 4.669-5.681 3.254-5.681 3.254C25.182 16.336 6.047 7.479 6.047 7.479c-2.481-1.01-3.427-3.253-2.41-5.732l.57-1.743C5.48-3.088 1.102-4.366 0 0" clip-path="url(#S)" style="fill:#edbc57;fill-opacity:1;fill-rule:nonzero;stroke:none" transform="matrix(1.33333 0 0 -1.33333 116.65 811.045)"></path><path d="m0 0 1.89-12.56a1.02 1.02 0 0 0-.896-1.171l-1.497-.176a1.07 1.07 0 0 0-1.099.618l-1.97 4.247c-1.533 3.314-5.005 5.327-8.61 4.988l-11.665-1.088a1.577 1.577 0 0 1-1.421-1.74l1.995-18.355c.131-1.207.736-2.665 1.946-2.56l9.443 1.003c2.209.191 4.209 2.469 4.113 4.684l-.097 2.241c-.039.893.509 1.753 1.375 1.976a1.93 1.93 0 0 0 1.79-.451c.349-.321.579-.758.626-1.253l1.585-17.447a1.84 1.84 0 0 0-1.719-2.023 1.94 1.94 0 0 0-1.446.513 1.94 1.94 0 0 0-.61 1.161l-.223 1.604c-.381 2.738-2.661 4.202-5.407 3.967l-8.28-.46c-1.197-.103-2.241-.887-2.111-2.081l1.763-16.254c.388-3.573 3.69-5.967 7.263-5.659l8.195.464c3.308.288 8.117 4.073 9.358 7.127l1.896 4.281c.353.875 1.386 1.726 2.33 1.584 1.175-.186 1.913-1.644 1.716-2.808L7.827-58.216a1.156 1.156 0 0 0-1.042-.948L-28.97-62.34c-.499-.041-11.488-1.431-11.488-1.431a1.914 1.914 0 0 0-2.057 1.695l-.011.108a1.816 1.816 0 0 0 1.432 1.984l4.338.91a4.1 4.1 0 0 1 3.235 4.478l-4.773 44.006a4.04 4.04 0 0 1-3.358 3.552l-4.121.683a1.18 1.18 0 0 0-.985 1.143l-.017 1.106a1.12 1.12 0 0 0 1.041 1.144L-1.87 1.494A1.76 1.76 0 0 0 0 0" clip-path="url(#T)" style="fill:#edbc57;fill-opacity:1;fill-rule:nonzero;stroke:none" transform="matrix(1.33333 0 0 -1.33333 535.74 988.965)"></path><path d="m0 0-.652-.452a1.41 1.41 0 0 0-1.878.245l-1.965 2.342a5.18 5.18 0 0 1-6.96.903l-36.909-26.066a4.247 4.247 0 0 1-1.294-5.476l1.168-2.182a1.343 1.343 0 0 0-.442-1.754l-.567-.376a1.346 1.346 0 0 0-1.871.368l-14.545 21.614a1.025 1.025 0 0 0 .276 1.426l.936.629a1.027 1.027 0 0 0 1.357-.184l2.294-2.684a3.916 3.916 0 0 1 5.218-.667L-24.55 9.507-73.781.606c-1.79-.33-3.299 2.818-2.645 3.895l26.865 42.008-31.431-20.468a4.37 4.37 0 0 1-1.504-5.656l1.531-2.988a1.44 1.44 0 0 0-.476-1.856l-.559-.375a1.44 1.44 0 0 0-2.002.391l-11.73 17.427a1.347 1.347 0 0 0 .368 1.871l.705.468a1.34 1.34 0 0 0 1.779-.246l1.438-1.693a5.406 5.406 0 0 1 6.963-1.1l37.386 23.101a5.3 5.3 0 0 1 2.05 6.677l-1.175 2.618a1.186 1.186 0 0 0 .422 1.465l.997.651a1.176 1.176 0 0 0 1.633-.329l10.758-16.214a1.5 1.5 0 0 0-.415-2.072l-1.366-.909a3.75 3.75 0 0 1-1.13-1.18L-57.504 9.461l38.51 6.716q.654.114 1.285.321l5.105 1.676c1.359.41 1.747-.022 2.48-1.143L.36 1.955A1.403 1.403 0 0 0 0 0" clip-path="url(#U)" style="fill:#edbc57;fill-opacity:1;fill-rule:nonzero;stroke:none" transform="matrix(1.33333 0 0 -1.33333 253.439 880.643)"></path><path d="m0 0-7.032 6.445a1.2 1.2 0 0 0 .236 1.936l17.244 9.41L2.583.526A1.63 1.63 0 0 0 0 0m27.185 24.216-.069.881c-.046.56-.514.997-1.073.997l-5.858.031a3.15 3.15 0 0 0-1.296.276l-1.319.59a1.63 1.63 0 0 1-1.679-.222l-1.817-1.449-44.886-22.364a5.69 5.69 0 0 0-5.807.436l-2.433 1.709a1.086 1.086 0 0 1-1.418-.138l-.698-.728a1.1 1.1 0 0 1 .039-1.549l14.483-13.747a1.09 1.09 0 0 1 1.541.038l.736.775c.376.398.406 1.012.061 1.441l-2.391 2.961a2.508 2.508 0 0 0 .75 3.776l11.557 6.306c.948.518 2.12.375 2.917-.355l9.342-8.564a3.09 3.09 0 0 0 .725-3.56l-5.615-12.334a1.762 1.762 0 0 0-2.587-.732l-2.77 1.865a1.325 1.325 0 0 1-1.715-.204l-.675-.736a1.313 1.313 0 0 1 .077-1.863L3.739-39.131a1.317 1.317 0 0 1 1.832.046l.53.538a1.32 1.32 0 0 1 .099 1.74l-1.875 2.392a5.21 5.21 0 0 0-.662 5.335l23.438 52.767c.069.168.099.352.084.529" clip-path="url(#V)" style="fill:#edbc57;fill-opacity:1;fill-rule:nonzero;stroke:none" transform="matrix(1.33333 0 0 -1.33333 253.003 941.023)"></path><path d="M0 0c-6.159 1.037-13.95 4.026-19.602 7.364-19.011 11.207-25.811 30.511-14.885 46.14 13.661 19.543 32.585 18.931 50.963 6.945 5.11-3.336 8.737-6.027 12.22-9.817 0 0-4.207-8.192-5.795-12.061-.914-2.217-2.904-1.136-3.988-.319 2.039 8.479.671 15.668-7.86 20.646-10.25 5.981-24.284 1.142-32.224-12.681-8.257-14.374-5.802-28.527 2.094-34.12 6.383-4.521 14.764-7.396 24.554.496.553.446 1.737 1.036 2.415.82C10.868 12.464 9.661 10.437 0 0" clip-path="url(#W)" style="fill:#edbc57;fill-opacity:1;fill-rule:nonzero;stroke:none" transform="matrix(1.33333 0 0 -1.33333 340.37 1039.963)"></path><path d="m0 0-.276-1.173a.91.91 0 0 0-1.004-.69l-2.045.264a4.83 4.83 0 0 1-5.317-3.673l-10.282-43.246a4.93 4.93 0 0 1 2.842-5.664l2.795-1.206a.64.64 0 0 0 .375-.743l-.345-1.519a.647.647 0 0 0-.774-.49l-26.758 6.103a.65.65 0 0 0-.491.782l.345 1.518a.645.645 0 0 0 .659.506l3.794-.166a4.34 4.34 0 0 1 4.411 3.332l4.783 20.142-26.543 6.31-4.804-20.212a4 4 0 0 1 2.455-4.658l3.951-1.52a.74.74 0 0 0 .46-.859l-.398-1.74a.745.745 0 0 0-.89-.56l-26.574 6.065a.75.75 0 0 0-.568.889l.399 1.748a.74.74 0 0 0 .782.575l3.521-.259a3.46 3.46 0 0 1 3.616 2.647l10.613 44.634a4.2 4.2 0 0 1-2.655 4.919l-2.827 1.024a.98.98 0 0 0-.614 1.143l.33 1.403a.976.976 0 0 0 1.173.72l25.371-5.98a.975.975 0 0 0 .72-1.188l-.299-1.173a.98.98 0 0 0-1.058-.729l-1.89.22a4.817 4.817 0 0 1-5.241-3.67l-4.347-18.279 26.544-6.31 4.427 18.589a4.617 4.617 0 0 1-2.926 5.412l-3.126 1.125a.91.91 0 0 0-.583 1.065l.284 1.181a.905.905 0 0 0 1.089.675L-.675 1.089A.907.907 0 0 0 0 0" clip-path="url(#X)" style="fill:#edbc57;fill-opacity:1;fill-rule:nonzero;stroke:none" transform="matrix(1.33333 0 0 -1.33333 469.582 995.977)" data-source="https://football-logos.cc"></path><!-- source: https://football-logos.cc --></svg>