<svg xmlns="http://www.w3.org/2000/svg" viewBox="158.38 340.37 476.94 441.78"><!-- Source: https://football-logos.cc --><defs data-source="https://football-logos.cc"><clipPath id="a" clipPathUnits="userSpaceOnUse"><path d="M0 841.89h595.276V0H0Z"></path></clipPath><clipPath id="b" clipPathUnits="userSpaceOnUse"><path d="M0 841.89h595.276V0H0Z"></path></clipPath><clipPath id="c" clipPathUnits="userSpaceOnUse"><path d="M0 841.89h595.276V0H0Z"></path></clipPath><clipPath id="d" clipPathUnits="userSpaceOnUse"><path d="M0 841.89h595.276V0H0Z"></path></clipPath><clipPath id="e" clipPathUnits="userSpaceOnUse"><path d="M0 841.89h595.276V0H0Z"></path></clipPath><clipPath id="f" clipPathUnits="userSpaceOnUse"><path d="M0 841.89h595.276V0H0Z"></path></clipPath><clipPath id="g" clipPathUnits="userSpaceOnUse"><path d="M0 841.89h595.276V0H0Z"></path></clipPath><clipPath id="h" clipPathUnits="userSpaceOnUse"><path d="M0 841.89h595.276V0H0Z"></path></clipPath><clipPath id="i" clipPathUnits="userSpaceOnUse"><path d="M0 841.89h595.276V0H0Z"></path></clipPath><clipPath id="j" clipPathUnits="userSpaceOnUse"><path d="M0 841.89h595.276V0H0Z"></path></clipPath><clipPath id="k" clipPathUnits="userSpaceOnUse"><path d="M0 841.89h595.276V0H0Z"></path></clipPath><clipPath id="l" clipPathUnits="userSpaceOnUse"><path d="M0 841.89h595.276V0H0Z"></path></clipPath><clipPath id="m" clipPathUnits="userSpaceOnUse"><path d="M0 841.89h595.276V0H0Z"></path></clipPath><clipPath id="n" clipPathUnits="userSpaceOnUse"><path d="M0 841.89h595.276V0H0Z"></path></clipPath></defs><path d="M471.575 481.708c-5.539 14.143-16.176 21.875-30.754 22.418.361 6.518.57 13.166.57 19.979 0 6.624-.675 13.899-1.074 17.154-1.027 8.382-2.973 15.1-3.055 15.382l-2.366 8.103-26.578-7.193c-.293-.08-27.106-7.322-46.725-7.322-25.442 0-49.021 20.929-49.257 21.14l-16.856 15.242-16.857-15.242c-.236-.211-23.816-21.14-49.256-21.14-19.602 0-46.436 7.243-46.704 7.315l-26.6 7.2-2.367-8.103c-.082-.282-2.028-7-3.053-15.382-.399-3.258-1.075-10.536-1.075-17.154 0-13.511.76-26.419 2.115-38.765l-5.579-.728-.75-.25c-17.631-5.88-26.57-24.379-26.57-54.981 0-17.261 2.845-29.886 8.701-38.598 7.91-11.784 21.687-17.758 40.949-17.758h.551l7.811 1.054.195.035c2.82.521 5.002 1.041 6.794 1.618 10.04-19.923 21.111-36.551 31.493-49.917 32.784-42.212 66.062-62.164 67.462-62.993l12.74-7.544 12.741 7.544c1.398.829 34.677 20.781 67.461 62.993 13.201 16.998 27.517 39.267 39.409 66.886l25.562.704.523.084c14.174 2.239 24.628 10.443 30.233 23.72 3.42 8.055 5.083 18.311 5.083 31.341 0 14.178-1.607 25.025-4.917 33.158" clip-path="url(#a)" style="fill:#231f20;fill-opacity:1;fill-rule:nonzero;stroke:none" transform="matrix(1.33333 0 0 -1.33333 0 1122.52)"></path><path d="M431.771 540.213c-.954 7.783-2.773 14.015-2.773 14.015l-18.43-4.989c-.278-.076-28.175-7.62-48.975-7.62-29.039 0-54.777 23.131-55.032 23.365l-11.081 10.019-11.082-10.019c-.256-.234-25.992-23.365-55.031-23.365-20.801 0-48.697 7.544-48.976 7.62l-18.43 4.989s-1.819-6.232-2.772-14.015c-.362-2.96-1.01-9.911-1.01-16.108 0-91.524 34.748-155.476 63.898-193.008 31.773-40.912 63.704-60.071 65.048-60.864l8.355-4.949 8.354 4.949c1.344.793 33.274 19.952 65.048 60.864 29.15 37.532 63.897 101.484 63.897 193.008 0 6.197-.646 13.148-1.008 16.108" clip-path="url(#b)" style="fill:#d51e25;fill-opacity:1;fill-rule:nonzero;stroke:none" transform="matrix(1.33333 0 0 -1.33333 0 1122.52)"></path><path d="M295.48 548.292c7.841-6.538 34.427-26.558 66.113-26.558 19.086 0 42.045 5.248 50.713 7.415.304-1.553.589-3.391.589-5.044 0-85.744-32.371-145.518-59.527-180.564-25.417-32.804-51.092-50.653-57.888-55.074-6.796 4.421-32.473 22.27-57.89 55.074-27.155 35.046-59.526 94.82-59.526 180.564 0 1.653.286 3.491.59 5.044 8.666-2.167 31.626-7.415 50.713-7.415 31.685 0 58.271 20.02 66.113 26.558m-2.361 7.166c-.291-.269-29.476-26.753-63.752-26.753-22.592 0-52.084 7.994-52.38 8.075a3.485 3.485 0 0 1-4.267-2.39c-.066-.229-1.627-5.661-1.627-10.285 0-87.865 33.273-149.15 61.184-185.088 30.284-38.991 60.17-56.928 61.427-57.673a3.48 3.48 0 0 1 3.551 0c1.258.745 31.142 18.682 61.427 57.673 27.911 35.938 61.183 97.223 61.183 185.088 0 4.623-1.559 10.055-1.626 10.284a3.483 3.483 0 0 1-4.265 2.391c-.297-.081-29.789-8.075-52.381-8.075-34.277 0-63.461 26.484-63.753 26.753a3.49 3.49 0 0 1-4.721 0" clip-path="url(#c)" style="fill:#fff;fill-opacity:1;fill-rule:nonzero;stroke:none" transform="matrix(1.33333 0 0 -1.33333 0 1122.52)"></path><path d="M463.98 478.62c-4.462 11.389-12.504 17.125-24.105 17.35-.099-1.273-.171-2.568-.28-3.828 8.084.3 14.097-3.998 18.035-12.924 3.235-7.307 4.913-16.772 4.913-28.513 0-10.423-1.081-18.689-3.359-24.797-2.035-5.869-5.386-10.18-9.942-13.179-3.956-2.519-9.462-4.309-16.532-5.154l-23.123-.841-245.945 1.922c-2.756.361-4.193-1.317-4.193-4.793 0-2.998 1.078-5.629 3.353-7.907q3.415-3.233 7.908-3.235c1.318 0 3.353.484 5.99 1.437q-2.337 3.78-3.234 7.548h16.77l210.731-1.193 38.929 1.077c11.379 1.798 19.408 8.023 23.96 18.807 2.999 7.069 4.436 16.41 4.436 28.153 0 12.937-1.437 23.001-4.312 30.07" clip-path="url(#d)" style="fill:#fff;fill-opacity:1;fill-rule:nonzero;stroke:none" transform="matrix(1.33333 0 0 -1.33333 0 1122.52)"></path><path d="M441.935 481.018c-1.108.957-2.212 1.563-3.318 1.914-.234-2.039-.442-4.102-.708-6.11h-7.414c-.101-.198-.187-.414-.3-.601l-11.407 1.059.265-.458-251.818 2.276-19.287-2.515c-14.016-4.674-20.965-20.485-20.965-47.202 0-15.451 2.397-26.719 7.308-34.026 6.35-9.457 17.73-14.129 34.143-14.129l7.068.953c1.921.356 3.502.709 4.784 1.064a287 287 0 0 0-1.853 4.017l-11.916-1.602c-14.017 0-23.48 5.269-28.632 15.808-3.474 7.07-5.151 17.849-5.151 32.346 0 6.35.358 11.503.957 15.457.84 5.509 2.517 9.944 4.793 13.417 5.629 8.745 16.411 12.218 32.226 10.422l156.213.603 111.656-1.321c4.072.36 6.11 1.915 6.11 4.432 0 1.317-.96 2.757-2.754 4.196" clip-path="url(#e)" style="fill:#fff;fill-opacity:1;fill-rule:nonzero;stroke:none" transform="matrix(1.33333 0 0 -1.33333 0 1122.52)"></path><path d="M170.71 392.721q-4.493.002-7.908 3.235c-2.275 2.278-3.353 4.909-3.353 7.907 0 3.476 1.437 5.154 4.193 4.793l245.945-1.922 23.123.841c7.07.845 12.576 2.635 16.532 5.154 4.556 2.999 7.907 7.31 9.942 13.179 2.278 6.108 3.359 14.374 3.359 24.797 0 11.741-1.678 21.206-4.913 28.513-3.938 8.926-9.951 13.224-18.035 12.924.034.385.057.779.086 1.169-1.284-.284-2.339-.908-2.906-2.047-.86-1.73-.732-6.694-.33-8.671.284-1.392 1.219-2.752 1.672-3.981q.252 2.157.5 4.32c1.106-.351 2.21-.957 3.318-1.914 1.794-1.439 2.754-2.879 2.754-4.196 0-2.517-2.038-4.072-6.11-4.432l-111.656 1.321-156.213-.603c-15.815 1.796-26.597-1.677-32.226-10.422-2.276-3.473-3.953-7.908-4.793-13.417-.599-3.954-.957-9.107-.957-15.457 0-14.497 1.677-25.276 5.151-32.346 5.152-10.539 14.615-15.808 28.632-15.808l11.916 1.602c.298-.661.602-1.306.903-1.962.397 3.379-1.2 5.97-3.173 8.681-2.366-.822-4.23-1.258-5.453-1.258" clip-path="url(#f)" style="fill:#231f20;fill-opacity:1;fill-rule:nonzero;stroke:none" transform="matrix(1.33333 0 0 -1.33333 0 1122.52)"></path><path d="M184.368 453.701h-9.585c.36-.959.479-3.593.479-7.908l-.239-7.187-12.339 13.656 1.318 1.439h-12.821l1.918-1.439v-24.678l-1.557-1.438c2.997-.36 6.109-.36 9.104-.12-.598 5.87-.598 11.858-.119 17.732l14.856-16.893-1.198-.719h9.823l-1.557 1.438v23.959zm-9.944 9.105h2.755c.599-2.516-.12-4.316-1.915-5.391-.96-.601-2.159-.959-3.716-.959l-7.546 1.918c-.72 0-1.318-.24-1.678-.719l-1.079-1.798h-2.995c-.358 2.757.36 4.553 1.917 5.51l4.432.841 6.35-1.322 1.798.481z" clip-path="url(#g)" style="fill:#fff;fill-opacity:1;fill-rule:nonzero;stroke:none" transform="matrix(1.33333 0 0 -1.33333 0 1122.52)" data-source="https://football-logos.cc"></path><path d="M194.549 452.262v-18.566c0-2.995 2.036-5.271 5.991-6.591 2.515-.838 5.272-1.319 8.386-1.319 3.236 0 5.99.481 8.385 1.319 4.433 1.558 6.59 4.192 6.59 8.148v16.77c0 1.08.357 1.678 1.198 1.796h-9.465l.239-17.248c-.598-2.875-2.754-4.315-6.588-4.315-4.673 0-7.068 1.556-7.068 4.793v15.213l1.916 1.439h-11.5z" clip-path="url(#h)" style="fill:#fff;fill-opacity:1;fill-rule:nonzero;stroke:none" transform="matrix(1.33333 0 0 -1.33333 0 1122.52)"></path><path d="M242.953 432.132h12.401a2.638 2.638 0 0 1 0 5.275h-12.401zm0 10.907h11.261a2.276 2.276 0 1 1 0 4.55h-11.261zm-8.75 10.9h21.803c1.918 0 3.714-.718 5.393-2.033 1.795-1.56 2.635-3.238 2.635-5.274 0-1.199-.24-2.156-.599-2.994l-3.835-3.476 3.714-2.755c1.319-1.435 2.038-2.754 2.038-3.951 0-1.918-.958-3.716-2.756-5.396q-2.336-2.334-4.672-2.152h-22.523v26.594c0 .601-.239.841-.599.957z" clip-path="url(#i)" style="fill:#fff;fill-opacity:1;fill-rule:nonzero;stroke:none" transform="matrix(1.33333 0 0 -1.33333 0 1122.52)"></path><path d="M283.201 453.701H272.42c.24-.242.596-.358.959-.358l.359-.841v-26.476h27.911v6.106h-19.765v19.891c.121 1.08.477 1.56 1.317 1.678" clip-path="url(#j)" style="fill:#fff;fill-opacity:1;fill-rule:nonzero;stroke:none" transform="matrix(1.33333 0 0 -1.33333 0 1122.52)"></path><path d="M335.314 454.304q-.18-.364-1.081-.365h-25.997l.601-.48.597-.957v-26.594h24.799c1.081-.122 1.678-.48 1.678-1.321v9.225l-1.437-1.68h-17.49v5.275h10.423l1.558-1.319v6.951h-11.981v4.55h17.249c1.081 0 1.678-.478 1.798-1.313v8.863z" clip-path="url(#k)" style="fill:#fff;fill-opacity:1;fill-rule:nonzero;stroke:none" transform="matrix(1.33333 0 0 -1.33333 0 1122.52)"></path><path d="M376.282 453.701h-9.341c.481-5.033.481-10.063.117-15.095l-12.336 13.656 1.197 1.439h-12.7l1.918-2.158v-23.959l-1.674-1.438 9.217-.12c-.597 5.87-.597 11.74-.117 17.732l14.859-16.893c-.364-.36-.721-.598-1.321-.719h9.941l-1.557 1.438v24.678z" clip-path="url(#l)" style="fill:#fff;fill-opacity:1;fill-rule:nonzero;stroke:none" transform="matrix(1.33333 0 0 -1.33333 0 1122.52)"></path><path d="M386.949 436.688c-2.034-2.992-3.355-6.107-4.072-9.34l14.854-1.562c10.422 0 15.692 3.117 15.692 9.347 0 4.671-3.111 7.668-9.225 8.742l-7.427.839c-2.755.241-4.673.719-5.75 1.32l.601.957c1.793 1.197 3.835 1.798 6.109 1.798l6.347-1.318c2.634-.961 4.308-1.796 5.149-2.516 1.797 3.115 2.882 5.631 3.479 7.547l-15.211 1.437c-3.235 0-5.873-.48-8.151-1.437-3.48-1.557-5.266-4.074-5.266-7.547 0-2.396 1.073-4.19 3.348-5.271 1.557-.717 4.076-1.198 7.43-1.556l7.424-.843c2.275-.354 3.476-1.197 3.476-2.512 0-2.038-2.395-3.115-7.308-3.115l-5.87.957c-2.99.961-4.788 2.278-5.629 4.073" clip-path="url(#m)" style="fill:#fff;fill-opacity:1;fill-rule:nonzero;stroke:none" transform="matrix(1.33333 0 0 -1.33333 0 1122.52)"></path><path d="m420.494 453.939.601-.48.596-.957v-26.594h24.913c1.084-.122 1.561-.48 1.681-1.321v9.583l-.961-1.073-.6-.965h-17.486v5.275h10.542l1.554-1.319v6.951h-12.096v4.55h17.366l1.201-.714.48-.483v8.747l-.597-.835-1.084-.365z" clip-path="url(#n)" style="fill:#fff;fill-opacity:1;fill-rule:nonzero;stroke:none" transform="matrix(1.33333 0 0 -1.33333 0 1122.52)" data-source="https://football-logos.cc"></path><!-- source: https://football-logos.cc --></svg>