<svg xmlns="http://www.w3.org/2000/svg" xml:space="preserve" viewBox="32 32 436 436"><!-- Source: https://football-logos.cc --><circle cx="250" cy="250" r="207.796" style="fill:#b8323b" data-source="https://football-logos.cc"></circle><path d="M250 34.907c118.603 0 215.093 96.49 215.093 215.093S368.603 465.093 250 465.093 34.907 368.603 34.907 250 131.397 34.907 250 34.907M250 32C129.602 32 32 129.602 32 250s97.602 218 218 218 218-97.602 218-218S370.398 32 250 32" style="fill:#96293c"></path><path d="M250 42.204C135.238 42.204 42.204 135.238 42.204 250c0 47.502 15.973 91.253 42.795 126.253L412.07 120.018C373.986 72.593 315.557 42.204 250 42.204" style="fill:#98293a"></path><circle cx="250" cy="250" r="134.758" style="fill:#fff" data-source="https://football-logos.cc"></circle><path d="M173.501 185.145v97.311c0 9.01 3.965 12.254 10.273 12.254s10.271-3.244 10.271-12.254v-97.311h18.741v96.048c0 20.185-10.092 31.718-29.553 31.718-19.462 0-29.553-11.533-29.553-31.718v-96.048zM227.026 185.145h19.822v108.123h32.618v18.019h-52.439V185.145zM327.578 275.294v6.98c0 9.01-3.963 12.254-10.27 12.254s-10.273-3.244-10.273-12.254v-68.117c0-9.011 3.965-12.434 10.273-12.434s10.27 3.423 10.27 12.434v7.332h18.743v-6.07c0-20.183-10.091-31.716-29.555-31.716-19.461 0-29.552 11.533-29.552 31.716v65.594c0 20.182 10.091 31.715 29.552 31.715 19.464 0 29.555-11.533 29.555-31.715v-5.72h-18.743z" style="fill:#219d78"></path><path d="M287.214 215.419v2.413l41.303-32.358c-3.439-1.15-7.342-1.772-11.751-1.772-19.461.001-29.552 11.534-29.552 31.717M212.786 185.145h-18.741v97.311c0 9.01-3.964 12.254-10.271 12.254s-10.273-3.244-10.273-12.254v-97.311h-19.822v96.048c0 14.576 5.29 24.609 15.543 29.077l43.564-34.129zM227.026 185.145v79.841l19.821-15.529v-64.312z" style="fill:#26225f"></path><path d="m177.356 98.02-6.123-15.267c-.094-.224 0-.436.224-.525l5.847-2.349c.224-.091.437 0 .525.224l6.296 15.677c1.025 2.552 3.034 3.442 5.175 2.584 2.211-.888 2.938-2.878 1.91-5.429l-6.29-15.679c-.091-.224-.003-.434.224-.525l5.85-2.347c.224-.091.434-.003.528.221l6.126 15.267c2.725 6.788.088 11.94-5.984 14.38-6.19 2.484-11.58.557-14.308-6.232m30.963-28.111c-.043-.238.091-.426.329-.466l5.859-.985c.278-.048.576.026.744.284l10.744 13.966.159-.028-2.577-15.337c-.04-.238.091-.426.329-.466l5.578-.94c.241-.037.426.094.466.332l4.422 26.295c.04.238-.094.424-.332.466l-5.856.985c-.278.045-.579-.026-.744-.285l-10.659-13.937-.238.04 2.572 15.297c.037.24-.094.426-.332.467l-5.578.937c-.238.041-.426-.092-.466-.331zm38.295-4.377c-.003-.244.159-.406.403-.409l6.302-.054c.244-.003.406.159.409.4l.233 26.671c0 .243-.159.406-.4.406l-6.304.057c-.241.001-.406-.159-.406-.4zm20.747 21.371c-.29-2.18-.179-3.799.448-7.502.627-3.704 1.056-5.271 2.044-7.233 2.18-4.178 6.503-5.742 11.283-4.933 4.774.812 8.342 3.707 9.027 8.371.326 2.186.179 3.798-.451 7.502-.627 3.703-1.016 5.275-2.041 7.233-2.183 4.177-6.503 5.74-11.28 4.931-4.781-.81-8.346-3.707-9.03-8.369m13.954.314c.474-.863.764-2.083 1.311-5.309.542-3.225.673-4.474.508-5.444-.221-1.592-1.306-2.677-3.06-2.975-1.751-.298-3.137.372-3.869 1.802-.474.863-.761 2.083-1.309 5.308-.545 3.227-.673 4.475-.511 5.444.224 1.594 1.309 2.68 3.06 2.976 1.752.297 3.137-.37 3.87-1.802m-2.677-22.656c-.241-.043-.287-.253-.094-.426l4.882-4.17c.241-.207.468-.332.786-.278l5.657.957c.238.04.324.261.131.434l-5.93 4.034c-.324.233-.494.284-.854.224zm29.504 9.943c.091-.224.301-.315.525-.227l5.518 2.203c.264.105.48.321.488.63l1.93 17.522.15.06 5.768-14.452c.091-.227.298-.316.525-.227l5.254 2.096c.227.089.315.299.224.525l-9.878 24.776c-.091.224-.301.315-.528.226l-5.518-2.2c-.264-.105-.48-.322-.488-.63l-1.873-17.454-.224-.089-5.748 14.416c-.091.224-.301.315-.528.224l-5.254-2.096c-.224-.089-.315-.299-.227-.524zM140.699 364.203c.158-.182.386-.202.571-.043l4.789 4.096c.186.159.204.386.045.571l-13.344 15.601q-.155.183.028.341l8.841 7.565c.186.156.202.386.045.571l-3.574 4.176c-.159.185-.386.202-.571.043l-14.123-12.081c-.185-.159-.202-.386-.045-.571zm27.419 20.807c.19-.17.413-.23.657-.088l5.707 3.287c.246.142.304.361.255.613l-5.258 27.744c-.053.25-.238.329-.45.207l-5.776-3.327c-.246-.139-.304-.361-.253-.61l.998-4.323-7.735-4.457-3.239 3.032c-.19.17-.413.23-.659.088l-5.742-3.31c-.209-.119-.234-.321-.041-.491zm-2.716 17.505 2.071-8.694-.108-.06-6.583 6.092zm34.528 11.504c.958-3.968 1.504-5.373 2.531-7.04 2.47-4.019 6.469-5.424 11.303-4.255 4.713 1.138 7.551 4.195 8.113 8.408.053.301-.024.448-.328.502l-5.779 1.016c-.301.051-.441-.065-.491-.369-.369-1.754-1.081-2.924-2.888-3.361-1.689-.409-2.951.162-3.782 1.539-.474.761-.792 1.556-1.685 5.251-.891 3.693-.972 4.545-.898 5.436.111 1.609.972 2.691 2.664 3.1 1.807.437 2.976-.278 4.105-1.669.185-.247.359-.29.606-.105l4.672 3.543c.247.185.25.352.064.599-2.424 3.489-6.341 4.911-11.056 3.772-4.835-1.167-7.752-4.244-8.114-8.947-.152-1.95 0-3.451.963-7.42m38.36-6.568c.091-.238.261-.395.542-.378l6.573.326c.284.017.436.185.505.431l7.948 27.085c.071.244-.06.4-.301.389l-6.656-.335c-.284-.014-.437-.182-.505-.429l-1.08-4.298-8.912-.446-1.503 4.17c-.092.238-.263.392-.542.378l-6.617-.332c-.244-.011-.355-.179-.264-.417zm5.546 16.816-2.115-8.677-.122-.009-3.085 8.419zm18.407-16.648c-.028-.241.111-.423.349-.454l6.248-.837c.238-.031.42.108.451.349l2.719 20.341c.02.162.114.23.273.21l11.533-1.541c.241-.034.426.105.454.346l.729 5.444c.031.241-.108.423-.346.454l-18.422 2.464c-.238.031-.42-.108-.454-.349zm26.625-4.352c-.074-.233.031-.434.264-.508l17.153-5.413c.233-.074.434.034.508.264l1.567 4.973c.074.233-.031.434-.264.508l-10.525 3.318q-.229.072-.156.304l1.252 3.971q.072.23.304.159l8.635-2.725c.233-.071.434.034.508.264l1.533 4.857c.074.233-.031.434-.264.508l-8.638 2.725q-.229.072-.156.304l1.326 4.201q.072.232.304.159l10.525-3.321c.233-.071.434.034.508.267l1.567 4.97c.074.23-.031.434-.261.508l-17.156 5.413c-.233.071-.437-.034-.508-.267zm51.253 8.263c-.321.17-.485.122-.724-.074l-8.064-6.338-2.322 1.229c-.142.074-.179.185-.102.326l4.272 8.073c.116.216.048.434-.167.548l-5.575 2.946c-.21.114-.431.048-.545-.167l-12.473-23.577c-.114-.213-.045-.431.167-.545l9.892-5.234c5.572-2.949 10.471-1.38 12.893 3.191 1.607 3.037 1.482 6.259-.412 8.904l9.359 6.889c.224.156.23.429-.023.559zm-8.995-16.225c-.832-1.573-2.433-2.004-4.221-1.059l-3.358 1.777q-.214.113-.099.326l2.492 4.715c.079.145.185.179.329.102l3.358-1.777c1.785-.945 2.33-2.511 1.499-4.084m15.172-20.196c-.088-.238-.065-.466.156-.644l5.121-4.139c.221-.179.448-.156.664-.017l23.989 14.9c.216.139.224.341.034.491l-5.183 4.193c-.219.176-.448.153-.661.014l-3.676-2.487-6.943 5.615 1.661 4.11c.091.241.065.466-.153.644l-5.155 4.164c-.19.153-.386.105-.474-.136zm15.353 8.839-7.363-5.061-.097.077 3.313 8.337z" style="fill:#fff" data-source="https://football-logos.cc"></path><!-- source: https://football-logos.cc --></svg>