<svg xmlns="http://www.w3.org/2000/svg" xml:space="preserve" viewBox="0 0 264.06 302.36"><path d="M982.484 2267.72h15.493c14.173-6.87 26.423-16.82 39.823-24.95 23.53-14.28 47.5-27.77 71.64-40.96 29.44-16.1 59.65-30.72 89.74-45.56 40.49-19.98 81.79-38.21 123.37-55.77 75.11-31.71 151.59-59.71 229.22-84.56 45.02-14.42 90.45-27.48 136.19-39.49 56.95-14.95 114.41-27.55 172.22-38.63 21.07-4.03 42.22-7.72 63.45-10.91 11.24-1.69 12.8-3.24 15.71-14.64 6.16-24.14 10.94-48.59 15.3-73.11 6.47-36.33 11.63-72.85 15.92-109.52 4.85-41.39 8.46-82.81 8.76-124.51.06-7.72.35-15.46.49-23.19v-16.22c.33-3.54-.71-7.16.65-10.64v-121.35c-1.36-3.43-.32-7-.65-10.49v-14.71c.1-25.13-.66-50.27-2.19-75.32-1.63-26.74-4.91-53.37-8.22-79.98-4.34-34.93-9.55-69.72-15.95-104.33a1760 1760 0 0 0-19.73-92.56c-19.39-80.34-44.82-158.742-76.43-235.09-15.13-36.539-31.55-72.539-49.81-107.64-27.29-52.469-57.22-103.399-90.63-152.219-26.21-38.312-54.17-75.332-84.04-110.859-14.49-17.25-29.36-34.203-44.84-50.633-14.88-15.789-29.31-32.051-44.96-47.051-26.96-25.848-54.21-51.387-82.7-75.617-51.14-43.481-104.84-83.441-160.9-120.289-36.64-24.09-74.25-46.582-112.67-67.723-24.1-13.258-48.32-26.308-73.05-38.367-34.38-16.773-68.99-33.062-104.35-47.71-4.64-1.93-9.524-2.43-14.399-3.122h-8.019c-12.492.172-23.078 6.36-34.039 11.102-38.875 16.84-77.016 35.257-114.68 54.648-47.797 24.602-94.32 51.441-139.68 80.289-38.996 24.801-76.929 51.152-113.585 79.289-26.063 20.012-51.446 40.852-76.336 62.332-34.375 29.66-67.118 61.031-98.497 93.77-29.421 30.691-57.363 62.75-83.871 96.05-25.308 31.79-49.312 64.52-71.773 98.352-26.637 40.117-51.098 81.547-73.602 124.168-33.894 64.18-62.613 130.559-86.812 198.961-23.387 66.109-42.18 133.469-56.91 202.029-7.266 33.8-13.348 67.81-18.719 101.93-3.934 25-6.863 50.16-9.766 75.31-4.476 38.86-7.105 77.76-7.523 116.87-.102 9.44-.285 18.89-.484 28.35v19.01c-.387 5.25.804 10.57-.645 15.77v72.31c1.453 5.14.258 10.39.645 15.58v21.2c-.122 27.71.753 55.42 2.19 83.06 1.267 24.38 4.063 48.69 6.938 72.97 2.801 23.65 5.805 47.25 9.29 70.8 4.75 32.06 10.394 63.96 17.308 95.62 1.742 7.97 4.113 15.82 5.613 23.81 1.54 8.2 5.828 12.12 14.024 13.32 24.625 3.62 49.101 8.14 73.578 12.68 28.078 5.22 55.984 11.21 83.828 17.51 74.617 16.89 148.313 37.14 221.156 60.57 54.844 17.64 109.028 37.06 162.672 58.03 51.848 20.27 102.93 42.29 153.426 65.7 67.125 31.14 132.73 65.11 196.016 103.49 9.539 5.79 18.945 11.85 27.867 18.59 2.453 1.86 5.429 2.58 7.933 4.25" style="fill:#da1e2f;fill-opacity:1;fill-rule:nonzero;stroke:none" transform="matrix(.13333 0 0 -.13333 0 302.36)"/><path d="M1888.83 1494.41c.77-56.55-1.84-111.11-6.7-165.52-16.58-185.61-60.04-364.21-140.15-533.14-56.23-118.559-128.17-226.609-216.44-323.75-108.08-118.922-234.08-215-373.81-293.609-50.6-28.469-102.59-54.172-155.621-77.789-3.839-1.711-7.011-1.883-10.937-.141-131.5 58.289-255.024 129.93-367.613 219.809-159.485 127.339-285 281.949-373.938 465.941-53.391 110.461-91.273 226.069-116.062 346.119-12.789 61.93-21.95 124.38-27.864 187.3-3.922 41.73-6.191 83.58-7.3 125.51-.77 29.25-1.094 58.5-.352 87.73 1.215 47.92 3.754 95.77 8.34 143.52 5.14 53.5 12.207 106.7 21.988 159.56.805 4.35 2.395 6.2 6.68 6.98 109.41 19.82 216.961 47.13 322.941 80.65 134.789 42.63 265.934 94.41 392.797 156.91 47.84 23.56 94.867 48.62 140.391 76.42 3.41 2.08 5.992 2.93 9.859.58 97.961-59.53 201.331-108.17 307.171-151.71 130.32-53.61 263.88-97.4 400.75-131 49.24-12.09 98.73-22.98 148.68-31.69 5.84-1.02 6.51-4.46 7.26-8.69 6.93-38.71 12.7-77.58 17.27-116.65 5.37-45.93 8.95-91.99 11.11-138.16 1.36-29 2.19-58.02 1.55-85.18" style="fill:#fab40a;fill-opacity:1;fill-rule:nonzero;stroke:none" transform="matrix(.13333 0 0 -.13333 0 302.36)"/><path d="M257.211 1264.02c-.871 15.9.922 29.85 3.633 43.67 6.648 33.87 19.957 64.44 45.57 88.5 24.856 23.34 55.168 34.45 88.582 37.42 32.856 2.93 65.133-2.61 97.305-8.38 11.988-2.15 23.89-4.8 37.277-7.52-7.676 9.29-15.867 15.83-24.195 22.13-28.09 21.26-59.297 34.85-94.895 35.93-13.925.43-27.914-.53-41.859.59-40.852 3.29-77.91 15.41-106.883 46.16-20.676 21.95-32.969 48.54-41.945 76.87-3.223 10.18-6.254 20.43-8.418 33 9.293-10.89 17.816-19.89 27.508-27.68 17.839-14.36 37.273-25.39 60.257-29.05 31.137-4.97 58.551 4.75 81.008 25.15 32.422 29.44 70.106 34.16 110.739 28.28 28.882-4.19 56.843-3.4 82.238 12.63 29.605 18.68 47.086 45.26 52.019 80.5 7.051 50.33 26.664 95.87 56.453 136.89 47.18 64.96 111.59 103.3 189.2 120.55 48.668 10.82 97.933 12.69 147.475 8.05 5.91-.55 10 .6 13.74 5.61 12.35 16.54 25.17 32.73 37.81 49.05.92 1.19 1.76 2.45 2.75 3.57 8.96 10.16 14.6 10.19 22.01-1.05 18.82-28.53 37.28-57.3 55.76-86.06 3.1-4.83 6.9-8.38 12.01-11.18 23.89-13.06 45.86-28.79 64.95-48.34 2.76-2.82 4.81-5.99 6.44-9.56 19.41-42.38 38.87-84.75 58.33-127.11 4.41-9.6 10.1-18.44 15.9-27.26 12.08-18.36 30.13-25.61 50.85-29.28 55.05-9.76 88.5-44.19 97.68-99.61 4.06-24.49 16.5-37.62 41.26-43.63 10.26-2.49 20.73-3.68 31.14-5.14 36.72-5.16 64.65-23.09 84.29-55.03 16.78-27.29 42.44-42.68 73.78-48.29 26.08-4.67 51.34-.37 76.04 8.35 1.61.57 3.23 1.11 4.85 1.65.18.06.41-.04 1.2-.13-.21-2.84-1.92-5.03-3.29-7.25-24.15-39.34-59.46-63.1-103.94-73.52-40.74-9.54-81.15-5.45-121.27 4.35-12.1 2.96-24.01 6.61-35.82 10.6-2.09.7-4.18 2.38-7.29 1.03 16.49-23.71 35.46-44.46 60.9-58.51 10.84-5.99 22.4-9.86 34.86-10.6 18.68-1.1 35.06 5.13 49.95 15.92 3.46 2.51 6.7 5.31 10.57 8.4.66-2.67-.1-4.76-.77-6.86-15.39-48.35-49.06-76.94-97.25-89.59-35.28-9.26-69.84-6.59-103.55 7.27-19.83 8.16-40.31 14-61.83 14.16-37.23.27-64.98-16.62-83.81-48.5-5.38-9.11-9.81-18.69-12.71-28.84-4.28-14.97-13.9-24.07-28.61-28.77-25.35-8.12-50.49-16.9-75.86-24.98-5.33-1.7-6.39-3.46-4.73-8.88 17.41-56.88 34.43-113.87 51.88-170.739 1.74-5.691.56-7.34-4.94-8.473-35.68-7.347-68.72-1.918-98.75 19.41-18.38 13.051-39.45 18.922-61.47 21.262-46.49 4.93-91.168-3.18-134.469-20-39.738-15.43-80.211-28.34-122.469-34.781-27.336-4.168-54.863-6.328-81.797 2.09-17.109 5.351-14.242 2.902-12.847 19.301 2.551 29.98 5.601 59.91 8.43 89.87 1.496 15.83 2.492 31.72 4.531 47.49 5.293 40.95-16.746 70.97-57.692 78.22-16.886 2.99-33.707 2.49-50.722 1.13-37.203-2.98-70.977 7.41-101.688 28.18-18 12.17-32.867 27.6-45.961 44.87-16.801 22.15-36.64 41.08-60.769 55.13-46.274 26.96-92.489 21.05-130.852-16.39-9.808-9.57-18.816-19.83-27.824-32.25M1153.13 807.551c-2.55 5.82-4.87 11.75-7.69 17.429-10.07 20.321-24.37 35.911-47.59 40.891-21.95 4.707-40.29-1.652-54.92-18.691-15.91-18.532-22.58-40.821-25.3-64.418-3.64-31.492-1.23-62.653 7.45-93.211 4.49-15.84 12.64-29.34 24.69-40.821 27.05-25.761 75.48-20.281 96.33 12.399 10.52 16.48 16.88 34.769 23.58 52.859 14.92 40.282 29.23 80.782 43.76 121.203 1.16 3.239 2.04 6.571 3.13 9.829 5.19 15.429 5.59 30.07-7.28 42.289 1.77 2.363 3.86 1.402 5.6 1.402 28.83.078 57.66-.082 86.49.18 4.92.039 7.08-1.661 8.9-6.051 28.3-68.258 56.76-136.449 85.2-204.649a207 207 0 0 1 3.39-7.66c10.27-22.07 26.85-35.203 51.72-36.871 15.59-1.051 30.93-.609 45.58 5.719 4.17 1.812 8.11 3.961 11.72 6.699 14.98 11.371 18.13 27.934 8.14 43.852-7.01 11.16-16.99 19.32-27.8 26.511-18.45 12.258-37.03 24.321-55.42 36.661-28.76 19.308-42.39 58.226-31.94 91.16 5.76 18.136 18.29 30.25 35.11 38.316 19.21 9.223 39.82 11.684 60.77 12.66 24.03 1.133 47.52-3.379 71.11-6.777 6.76-.981 13.24.269 19.81 1.269 2.42.372 5.36 1.622 5.35-2.878-.04-23.743-.02-47.493-1.16-71.493-1.28 2.852-2.53 5.711-3.84 8.539-14.43 31.34-44.45 48.93-77.98 45.692-15.96-1.539-27.42-10.36-29.74-23.192-1.73-9.539 1.77-17.777 7.21-25.308 6.26-8.668 14.51-15.231 23.35-21.059 19.02-12.551 38.3-24.722 57.11-37.57 22.3-15.231 35.89-36.141 38.29-63.43 3.07-34.769-10.77-61.011-40.95-78.461-19.43-11.23-40.82-16.332-62.93-16.66-34.18-.519-68.4-1.648-102.56 1.012-11.16.859-22.13 2.828-32.94 5.828-21.38 5.91-35.8 19.469-44.85 39.461-10.63 23.48-21.75 46.738-32.41 70.211-2.02 4.437-4.29 6.449-9.55 6.348-19.57-.379-39.16-.36-58.73-.008-5.28.09-7.5-1.821-9.28-6.543-6.51-17.278-13.05-34.578-20.36-51.528-18.07-41.953-49.14-66.261-95.63-69.121-27.23-1.672-54.43-1.558-79.96 9.289-50.563 21.481-79.872 59.289-85.395 114.61-2.774 27.761-.399 55.043 8.527 81.461 19.063 56.422 64.578 88.789 124.468 89.441 20.08.219 39.86-2.801 59.75-4.723 8.6-.828 17.15-1.457 25.66.262 4.11.82 5.17-.48 5.15-4.531-.15-25.809-.08-51.629-.08-77.438-.35-.132-.7-.261-1.06-.39M857.094 888.41h68.793c.039-.551.254-1.129.07-1.308-10.805-10.614-13.359-24.024-13.336-38.43.07-42.594.16-85.184-.035-127.774-.09-19.75-3.32-38.988-12.258-56.839-17.039-34.039-45.098-52.75-82.406-57.7-24.324-3.23-48.477-1.23-72.266 4.77-39.258 9.891-61.484 35.543-69.101 74.742-2.551 13.149-3.367 26.449-3.442 39.758-.211 39.582-.074 79.16-.074 118.742 0 22.617-1.332 26.461-15.051 43.43 4.805 1.199 105.336 1.48 113.606.187-6.18-6.726-11.856-13.488-13.043-22.566-.781-5.953-1.637-11.953-1.653-17.934-.14-42.808-.199-85.617-.011-128.418.066-15.871 2.593-31.332 11.379-45.031 11.199-17.469 27.906-23.207 47.933-23.609 28.364-.559 53.371 27.23 55.27 59.23 2.242 37.82.566 75.68.949 113.531.102 9.868.016 19.758-.363 29.649-.504 13.16-3.121 25.16-14.961 35.57M696.848 610.43c-8.95 0-17.899-.059-26.844.011-15.051.118-30.109.047-45.149.547-21.32.703-34.343 12.821-41.953 31.762-10.172 25.32-20.355 50.629-30.222 76.07-1.844 4.75-4.125 6.461-9.328 6.371-20.008-.351-40.02-.132-60.032-.16-2.472 0-4.984.571-6.148-2.98-8.344-25.52-17.477-50.789-25.125-76.512-5.199-17.469-2.375-22.879 13.215-34.687h-83.914c0 .339-.141 1.007.019 1.089 15.668 8.047 23.516 22.219 29.199 37.86 17.747 48.859 35.34 97.769 52.946 146.679 5.383 14.95 10.972 29.84 15.828 44.969 6.781 21.141 5.73 26.93-6.176 44.629 1.676 2.012 3.977 1.063 5.941 1.063 28.403.07 56.805-.082 85.208.168 5.085.043 7.453-1.477 9.402-6.309 30.316-75.102 60.871-150.102 91.359-225.129 7.035-17.312 15.11-33.851 32.274-43.871-.168-.52-.336-1.051-.5-1.57" style="fill:#da1e2f;fill-opacity:1;fill-rule:nonzero;stroke:none" transform="matrix(.13333 0 0 -.13333 0 302.36)"/><path d="M1199.31 1632.72c11.03-10.76 23.41-11.56 37.32-7.46 14.96 4.4 30.44-1.85 40.37-16.13 10.21-14.66 19.03-30.18 25.68-46.83 5.04-12.63 2.79-25.51.51-38.15-11.44-63.4-25.3-126.31-38.6-189.33-3.99-18.93-3.29-37.42-.14-56.27 2.65-15.88 4.45-31.95 3.47-48.14-1.18-19.62-11.58-29.79-31.27-30.33-12.85-.35-25.28 2.43-37.15 7.01-22.27 8.58-45.27 9.1-68.6 7.72-36.51-2.16-71.35-12.69-106.78-20.49-48.753-10.74-98.018-12.51-147.276-3.32-36.082 6.72-62.188 32.63-69.309 67.17-.715 3.48-.191 5.39 3.012 7.3 30.574 18.19 50.039 45.3 61.844 78.3 1.601 4.47 3.644 5.91 8.25 5.84 23.941-.37 45.929-8.16 67.601-17.27 2.153-.91 4.293-1.83 7.34-3.13-3.469 14.54-8.355 27.74-13.543 40.84-14.012 35.39-35.453 66.16-59.184 95.56-12.964 16.06-26.941 31.33-38.32 48.63-18.555 28.21-29.633 58.85-27.16 92.99 3.078 42.6 20.113 78.99 53.086 106.61 51.465 43.11 111.34 67.38 177.599 76.39 63.91 8.69 126.88 3.64 189.06-13.1 5.57-1.5 9.21-4.06 11.86-9.43 9.98-20.22 20.49-40.19 30.8-60.26 1.16-2.26 2.26-4.55 3.89-7.84-7.91 2.48-12.62-1.32-17.1-5.96-9.19-9.49-19.17-17.93-31.71-22.75-15.67-6.02-26.11-2.84-35.97 10.75-4.93 6.79-7.89 14.6-11.64 23.35-5.16-16.68-9.88-32.04-14.67-47.38-1-3.21.56-5.95 1.42-8.74 11.44-36.93 22.31-74.01 30.07-111.92 2.68-13.11 4.33-26.3 3.18-39.71-1.15-13.29-6.37-18.68-19.52-16.94-27.88 3.67-54.25-2.99-80.6-10.13-22.13-5.99-31.07 2.23-26.04 24.59.47 2.06 1.01 4.11 1.61 6.58-10.73-8.28-16.93-27.95-12.92-39.86 3.18-9.43 12.49-15.28 24.91-16.16 12.86-.91 25.16 2.06 37.61 4.48 12.02 2.34 24.16 4.3 36.47 2.04 2.31-.42 4.73-.81 6.81-1.8 3.4-1.63 4.1-4.22 1.47-7.26-2.6-2.99-5.96-4.89-9.43-6.64-2.23-1.13-5.51-1.86-4.68-5.19.96-3.9 4.61-2.52 7.09-2.22 11.59 1.37 22.7 4.72 33.42 9.27 11.9 5.06 23.01 11.54 33.62 18.97 6.55 4.58 9.61 10.78 10.06 18.51 1.28 21.7-5.02 42.06-11.19 62.43-9.12 30.08-22.41 58.55-34.01 87.67-.94 2.35-1.75 4.76-2.62 7.14" style="fill:#fab40a;fill-opacity:1;fill-rule:nonzero;stroke:none" transform="matrix(.13333 0 0 -.13333 0 302.36)"/><path d="M941.117 1819.78c-31.422-8.24-60.347-22.28-88.34-38.38-34.937-20.09-67.504-43.56-98.136-69.73-1.59-1.35-3.254-2.62-5.161-4.15-2.109 6.32-.984 10.65 3.668 15.21 53.168 52.1 111.801 96.58 178.887 129.41.567 1.47 0 1.75-1.312 1.27-29.657-7.87-57.364-20.51-84.297-34.93-33.438-17.89-64.957-38.76-94.824-62.12-1.481-1.16-3.051-2.22-5.161-3.73-1.023 8.17-3.058 14.64 4.727 21.15 51.453 43.01 106.531 79.99 169.191 104.79 30.461 12.05 61.797 20.99 94.341 25.32 3.67.49 6.13 2.11 8.22 5.3 19.06 29.15 38.3 58.18 57.45 87.26 3.96 6.01 6.17 6.04 9.98-.41 17.39-29.41 34.79-58.83 51.97-88.37 2.31-3.98 4.89-6.45 9.48-7.58 11.9-2.93 23.29-7.42 34.72-11.85 9.98-3.86 16.78-9.93 18.66-21.48-5.73 1.14-11.42 2.28-17.12 3.41 11.42-9.42 27.24-14.22 29.82-32.03-5.33-.98-10.38 2.52-16.45 1.58 16.97-8.42 29.75-20.21 33.21-40.03-10.66 2.5-21.54 5.18-32.47 7.6-38.14 8.44-76.76 12.92-115.79 11.91-103.638-2.66-194.091-38.68-270.915-108.51-23.309-21.19-43.887-44.74-62.203-71.84-1.516 13.28-3.188 24.38 5.668 35.87 28.062 36.4 62.457 65.61 99.55 92.04 26.817 19.11 54.95 36.11 83.887 51.79.492.56.328 1.05-.215 1.44-.339.25-.707.15-1.035-.21M736.059 1540.1c26.918-.75 47.3-14.31 64.043-33.91 24.484-28.67 36.246-62.47 38.195-99.89 1.285-24.66-2.203-48.46-13.289-70.74-24.801-49.86-77.574-59.14-118.012-20.78-28.242 26.79-42.648 60.34-47.316 98.44-3.641 29.68-.352 58.42 13.687 85.23 10.629 20.3 26.082 35.07 49.172 40.39 4.453 1.02 8.961 1.01 13.52 1.26M777.977 1257.04c3.773-13.84 7.785-27.37 14.742-39.81 5.836-10.44 13.027-19.86 22.265-27.37 11.891-9.67 18.766-22.26 22.829-36.56 12.144-42.75 24.062-85.57 36.05-128.38 1.969-7.03 3.621-14.15 5.84-21.1 1.016-3.17.285-4.679-2.562-6.05-23.457-11.27-48.036-18.551-73.969-21.129-15.035-1.493-30.004-1.243-44.988 1.019-4.407.66-5.7 2.102-5.325 6.551 5.118 60.389 9.981 120.799 15.11 181.189 2.437 28.69 5.308 57.34 8.015 86.01.176 1.86-.043 3.92 1.993 5.63M1344.67 1530.49c7.75-9.4 13.38-18.71 17.87-28.66 18.84-41.82 23.38-84.65 7.13-128.26-8.73-23.43-23.55-41.85-48.27-50.33-4.9-1.68-10.01-2.39-15.12-3.03-2.89-.35-3.97.71-3.36 3.63 2.42 11.54 4.8 23.1 7.15 34.66.36 1.76.74 3.31 2.78 3.87 12.04 3.32 18.01 12.81 22.37 23.27 11.38 27.31 9.54 54.98.75 82.51-1.62 5.09-2.19 9.76-1.05 14.98 3.34 15.29 6.34 30.66 9.75 47.36M1154.91 1129.52c9.41-29.18 18.51-57.33 27.57-85.48 5.46-16.95 10.72-33.97 16.43-50.841 1.65-4.879.75-6.25-4.4-6.551-15.72-.91-29.18 4.43-40.92 14.322-13.3 11.2-27.43 20.74-44.63 24.73-5.66 1.32-2.73 5.25-2.23 7.66 4.81 23.32 13.38 45.22 25.65 65.65 6.31 10.5 13.21 20.57 22.53 30.51M1244.92 1652.93c10.26 4.34 16.9 9.96 22.84 16.5 1.01 1.11 2.14 2.11 3.3 3.04 3.37 2.7 7.18 4.32 11.27 2.16 3.82-2.03 4.69-5.96 4.54-9.97-.4-10.03-5.26-18.34-10.53-26.46-1.54-2.38-2.93-.85-4.12.21-7.4 6.59-15.61 11.74-27.3 14.52" style="fill:#fab40a;fill-opacity:1;fill-rule:nonzero;stroke:none" transform="matrix(.13333 0 0 -.13333 0 302.36)"/><path d="M941.117 1819.78c1.289.88 2.797 2.27 4 .5.399-.59-1.543-1.5-2.75-1.73q-.622.615-1.25 1.23" style="fill:#f35d28;fill-opacity:1;fill-rule:nonzero;stroke:none" transform="matrix(.13333 0 0 -.13333 0 302.36)"/><path d="M930.723 1853.41c1.179.98 2.465 1.53 4.48.86-.707-1.4-1.832-1.89-3.168-2.13-.437.43-.875.85-1.312 1.27" style="fill:#f2532a;fill-opacity:1;fill-rule:nonzero;stroke:none" transform="matrix(.13333 0 0 -.13333 0 302.36)"/><path d="M1247.57 826.781c9.07-23.73 17.43-45.75 25.92-67.73 1.29-3.34.16-4.192-3.01-4.18-13.74.059-27.48.039-41.22.008-2.76-.008-4.71.312-3.53 3.961 7.13 21.992 14.16 44.012 21.84 67.941M538.504 753.332c-16.484 0-32.094.008-47.699 0-5.239 0-2.575 3.148-1.926 5.168 6.285 19.57 12.66 39.109 19.023 58.66.793 2.43 1.649 4.852 3.153 9.25 9.441-25.148 18.297-48.719 27.449-73.078" style="fill:#fab40a;fill-opacity:1;fill-rule:nonzero;stroke:none" transform="matrix(.13333 0 0 -.13333 0 302.36)"/><path d="M929.035 1600.16c27.879 30.93 61.727 47 100.645 53.48.48 1.4-.41 1.93-1.46 2.32-29.841 11.06-60.314 17.57-92.161 10.99-23.813-4.92-43.559-16.61-57.153-37.64-6.269 14.59-2.504 30.21 9.77 41.54 16.066 14.82 35.847 19.79 56.879 20.86 25.402 1.3 50.078-3.19 74.275-10.6 22.59-6.92 45.41-13 68.47-18.13 7.32-1.64 14.77-2.44 22.39-1.09 13.65 2.43 21.8 10.32 24.16 24.02 1.22 7.04 1.86 14.1.46 21.15-.96 4.78 1.22 7.8 5.38 8.8 4.51 1.07 6.79-2.24 7.35-6.19 3.75-26.48 2.42-52.47-10.53-76.5-9.08-16.85-28.16-24.27-49.63-20.71-14.17 2.36-28 6.38-42.47 7.41-31.33 2.23-61.672-2.56-91.527-11.48-7.781-2.32-15.426-5.09-24.848-8.23M1245.7 1347.08c2-14.42 1.58-27.02-7.23-37.49-6.86-8.16-7.48-15.75-2.65-25.3 7.03-13.89 8.65-29.1 7.34-44.58-.08-1.01.1-2.2-1.26-2.74-2.6.45-2.17 2.7-2.59 4.46-7.28 30.38-28.94 47.3-60.23 47.92-17.02.33-33.13-4.33-49.57-7.32-14.28-2.6-28.23-2.21-41.4 4.82-17.21 9.18-24.03 26.49-17.23 44.09.55-.28 1.24-.44 1.62-.87 18.51-20.31 41.42-25.55 67.48-19.52 20.61 4.78 41.34 7.58 62.57 5.97 22.62-1.71 32.28 5.04 43.15 30.56M1243.99 1358.35c-6.37 20.46-13.1 23.38-32.48 14.59-.98-.44-2.02-.78-2.92-1.35-20.7-13.09-42.63-14.2-65.63-7.34-19.28 5.75-38.17 3.61-56.82-3.46-16.09-6.09-31.81-12.99-47.49-20.03-1.95-.88-4.49-4.23-6.52-.67-1.81 3.16-1.43 6.46 2.01 9.08 13.34 10.18 27.09 19.76 41.14 28.93 7.55 4.93 15.34 9.5 23.03 14.24 8.33 5.12 16.91 6.08 26.53 3.45 14.28-3.91 28.31-8.8 42.89-11.56 7.21-1.37 14.05-.52 20.73 2.59 9.54 4.44 19.19 8.66 28.8 12.95 3.92 1.76 7.69 2.14 11.62-.41 9.84-6.4 18.45-28.65 15.11-41.01M1087.29 1923.01c22.71-.02 40.25-17.98 41.93-41.05 1.57-21.75-13.52-41.16-34.12-43.87-17.68-2.33-35.95 10.89-41.88 30.31-7.3 23.92 5.59 48.49 28.26 53.77 2.49.58 5.07.74 5.81.84M787.816 1398.27c.164-15.48-2.113-30.43-10.23-43.95-8.582-14.31-17.824-16.28-31.367-6.38-17.289 12.63-26.586 30.58-32.281 50.63-6.352 22.36-7.411 44.82.054 67.21 2.051 6.16 4.852 11.95 9.156 16.88 6.547 7.51 12.922 8.93 21.793 4.3 14.547-7.6 23.789-20.18 30.747-34.52 8.281-17.05 12.472-35.13 12.128-54.17" style="fill:#da1e2f;fill-opacity:1;fill-rule:nonzero;stroke:none" transform="matrix(.13333 0 0 -.13333 0 302.36)"/><path d="M1107.4 1879.59c.05-9.83-5.93-18.05-13.99-19.5-7.75-1.39-16.22 4.82-19.13 14.04-.06.2-.09.41-.15.62-2.24 8.5-1.19 16.32 5.43 22.57 4.48 4.23 9.92 5.06 15.54 2.43 8.59-4.02 11.51-11.62 12.3-20.16" style="fill:#fab40a;fill-opacity:1;fill-rule:nonzero;stroke:none" transform="matrix(.13333 0 0 -.13333 0 302.36)"/></svg>