<svg xmlns="http://www.w3.org/2000/svg" viewBox="329.02 51.98 1231.72 1785.8"><path d="M1034.446 443.165h-648.55v576.841h648.55z" style="fill:#fac207;fill-opacity:1;fill-rule:nonzero;stroke:none" transform="matrix(1.33333 0 0 -1.33333 0 1889.76)"/><path d="M0 0v-761.636c0-123.406-101.867-200.282-248.826-242.668-136.477-39.379-179.201-87.356-199.116-115.841l-.345-.88c-.03.082-.083.136-.106.21-.052-.074-.105-.128-.158-.21l-.323.88c-19.944 28.485-62.638 76.462-199.147 115.841-146.95 42.386-248.79 119.262-248.79 242.668V0l-.244.64H.209Zm13.231 17.216h-923.518l.267-.662v-784.099c0-127.066 104.809-206.259 256.113-249.863 140.538-40.52 184.51-89.927 205.011-119.24l.345-.871a.44.44 0 0 1 .158.157c.023-.082.076-.127.106-.157l.368.871c20.501 29.313 64.472 78.72 205.011 119.24C-91.575-973.804 13.231-894.611 13.231-767.545V16.554l.27.662z" clip-path="url(#clipPath3)" style="fill:#1e1f1d;fill-opacity:1;fill-rule:nonzero;stroke:none" transform="matrix(1.33333 0 0 -1.33333 1542.739 321.087)"/><path d="M0 0c1.932.074 3.683-.474 4.586-2.278C3.683-.474 1.954.074 0 0" clip-path="url(#clipPath5)" style="fill:#94644e;fill-opacity:1;fill-rule:nonzero;stroke:none" transform="matrix(1.33333 0 0 -1.33333 801.423 1221.038)"/><path d="M0 0c-.105.076-.184.129-.289.234A3 3 0 0 1-.21-.164Z" clip-path="url(#clipPath7)" style="fill:#1e1f1d;fill-opacity:1;fill-rule:nonzero;stroke:none" transform="matrix(1.33333 0 0 -1.33333 545.611 1274.285)"/><path d="M0 0" clip-path="url(#clipPath9)" style="fill:#94644e;fill-opacity:1;fill-rule:nonzero;stroke:none" transform="matrix(1.33333 0 0 -1.33333 894.383 799.069)"/><path d="M0 0c.481.105.925.105 1.405.105C.925.105.481.105 0 0" clip-path="url(#clipPath11)" style="fill:#94644e;fill-opacity:1;fill-rule:nonzero;stroke:none" transform="matrix(1.33333 0 0 -1.33333 896.578 798.608)"/><path d="M0 0c.188-.053.368-.053.557-.105C.368-.053.188-.053 0 0" clip-path="url(#clipPath13)" style="fill:#94644e;fill-opacity:1;fill-rule:nonzero;stroke:none" transform="matrix(1.33333 0 0 -1.33333 913.478 802.286)"/><path d="M0 0c.053 0 .076.052.158.052C.076.052.053 0 0 0" clip-path="url(#clipPath15)" style="fill:#94644e;fill-opacity:1;fill-rule:nonzero;stroke:none" transform="matrix(1.33333 0 0 -1.33333 915.533 802.427)"/><path d="M0 0h-.21Z" clip-path="url(#clipPath17)" style="fill:#94644e;fill-opacity:1;fill-rule:nonzero;stroke:none" transform="matrix(1.33333 0 0 -1.33333 862.487 792.885)"/><path d="M0 0c-.023 0-.052 0-.052-.031C-.052 0-.023 0 0 0" clip-path="url(#clipPath19)" style="fill:#94644e;fill-opacity:1;fill-rule:nonzero;stroke:none" transform="matrix(1.33333 0 0 -1.33333 866.125 792.272)"/><path d="M0 0" clip-path="url(#clipPath21)" style="fill:#94644e;fill-opacity:1;fill-rule:nonzero;stroke:none" transform="matrix(1.33333 0 0 -1.33333 892.408 799.88)"/><path d="M0 0c-.052-.031-.106-.031-.106-.053 0 .022.054.022.106.053" clip-path="url(#clipPath23)" style="fill:#94644e;fill-opacity:1;fill-rule:nonzero;stroke:none" transform="matrix(1.33333 0 0 -1.33333 864.402 792.663)"/><path d="M0 0c-.083.031-.158.031-.241.031.083 0 .158 0 .241-.031" clip-path="url(#clipPath25)" style="fill:#94644e;fill-opacity:1;fill-rule:nonzero;stroke:none" transform="matrix(1.33333 0 0 -1.33333 860.402 792.704)"/><path d="M0 0" clip-path="url(#clipPath27)" style="fill:#94644e;fill-opacity:1;fill-rule:nonzero;stroke:none" transform="matrix(1.33333 0 0 -1.33333 859.52 813.914)"/><path d="M0 0c-.052 0-.052.03-.097.06.21-.323.39-.722.579-1.173C.324-.685.113-.316 0 0" clip-path="url(#clipPath29)" style="fill:#94644e;fill-opacity:1;fill-rule:nonzero;stroke:none" transform="matrix(1.33333 0 0 -1.33333 861.705 815.939)"/><path d="M0 0h.076Z" clip-path="url(#clipPath31)" style="fill:#94644e;fill-opacity:1;fill-rule:nonzero;stroke:none" transform="matrix(1.33333 0 0 -1.33333 859.029 813.814)"/><path d="M0 0c-.052.053-.113.053-.165.106C-.113.053-.052.023 0-.03Z" clip-path="url(#clipPath33)" style="fill:#94644e;fill-opacity:1;fill-rule:nonzero;stroke:none" transform="matrix(1.33333 0 0 -1.33333 860.442 814.446)"/><path d="M0 0" clip-path="url(#clipPath35)" style="fill:#94644e;fill-opacity:1;fill-rule:nonzero;stroke:none" transform="matrix(1.33333 0 0 -1.33333 848.624 819.437)"/><path d="M0 0c-.083.052-.135.052-.248.105C-.135.052-.083.052 0 0" clip-path="url(#clipPath37)" style="fill:#94644e;fill-opacity:1;fill-rule:nonzero;stroke:none" transform="matrix(1.33333 0 0 -1.33333 855.741 791.25)"/><path d="M0 0" clip-path="url(#clipPath39)" style="fill:#94644e;fill-opacity:1;fill-rule:nonzero;stroke:none" transform="matrix(1.33333 0 0 -1.33333 889.12 802.147)"/><path d="M0 0" clip-path="url(#clipPath41)" style="fill:#94644e;fill-opacity:1;fill-rule:nonzero;stroke:none" transform="matrix(1.33333 0 0 -1.33333 890.674 800.873)"/><path d="M0 0c.263.324.557.609.85.902C.557.609.263.324 0 0" clip-path="url(#clipPath43)" style="fill:#94644e;fill-opacity:1;fill-rule:nonzero;stroke:none" transform="matrix(1.33333 0 0 -1.33333 887.737 803.56)"/><path d="M0 0c-.21-.106-.451-.158-.691-.21.24.052.481.127.691.21" clip-path="url(#clipPath45)" style="fill:#94644e;fill-opacity:1;fill-rule:nonzero;stroke:none" transform="matrix(1.33333 0 0 -1.33333 872.741 819.327)"/><path d="M0 0c.263.316.503.586.767.902C.503.586.263.316 0 0" clip-path="url(#clipPath47)" style="fill:#94644e;fill-opacity:1;fill-rule:nonzero;stroke:none" transform="matrix(1.33333 0 0 -1.33333 886.464 805.043)"/><path d="M0 0c.105.166.18.271.24.429C.18.271.105.166 0 0" clip-path="url(#clipPath49)" style="fill:#94644e;fill-opacity:1;fill-rule:nonzero;stroke:none" transform="matrix(1.33333 0 0 -1.33333 862.347 817.423)"/><path d="M0 0" clip-path="url(#clipPath51)" style="fill:#94644e;fill-opacity:1;fill-rule:nonzero;stroke:none" transform="matrix(1.33333 0 0 -1.33333 885.331 806.667)"/><path d="M0 0c3.286-2.089 3.158.849 5.623-3.18-.323 4.406 5.94-7.293 2.835-1.616.293 1.196-.023 3.127 1.375 3.158 0-.902 1.151-1.835 1.406.022C6.789.398 1.323 2.18 0 0" clip-path="url(#clipPath53)" style="fill:#94644e;fill-opacity:1;fill-rule:nonzero;stroke:none" transform="matrix(1.33333 0 0 -1.33333 692.755 1027.12)"/><path d="M0 0c.85 14.299-18.815 7.645-28.574 12.156-8.645 4.037-13.839 12.066-15.937 19.359 0 .059.082.166.082.293.654 7.239 4.82 16.208 11.353 18.666.473.113.871.406 1.322.586.158-.158.316-.451.474-.609 0 .324.053.64.053.933 2.653 1.616 4.721 4.029 6.473 6.893 4.743 7.609 6.149 16.946 8.171 25.914h.023a77 77 0 0 1 3.932 8.406c1.932-.715 3.15-1.218 1.24.767-.262.293-.428.586-.586 1.038 1.594 4.427 2.706 9.118 2.654 13.681.263.452.534.827.796 1.196 1.279-3.211 7.165-.451 2.782 1.593-.233-3.322-1.639.106-3.842.451-.029.181-.052.422-.075.632-.616 3.579-2.999 6.472-5.946 7.668-2.94 1.248-5.834 2.12-8.668 3.263.105.241.21.503.316.767-1.166.474-1.857.421-2.285.105a23.5 23.5 0 0 0-4.263 2.571c-2.151 1.7-4.09 3.578-6.128 5.36-1.007 1.646-1.887 2.068-2.758 2.12-.902.609-1.835 1.195-2.729 1.646-.189.107-.459.129-.617.234 0 .324-.263.691-.902.775-.053-.084-.105-.158-.211-.316-4.848 1.985-9.788 2.194-14.982 2.194-9.924 0-19.818.429-29.681.535-2.699.135-8.006-2.706-3.548-5.706 2.277-1.564 4.458-3.075 6.465-4.744 1.12-1.436 2.233-2.571 3.241-3.076.848-.879 1.698-1.855 2.382-2.788.64-2.09 1.489-2.969 2.309-3.496 2.999-4.511 5.916-9.157 8.938-13.637 1.166-1.744 2.338-3.421 3.473-5.173-.977-.473-1.827-1.082-2.518-1.931 1.984.082 3.127-.767 4.24-1.647.06.294.218.452.323.692.587-.903 1.165-1.751 1.774-2.654-.18-.428-.451-.767-.684-1.195.557-.129 1.113-.18 1.669-.211.526-1.007 1.166-1.932 1.699-2.811 4.03-6.76 2.594-15.037 1.609-22.517a41 41 0 0 1-.18-1.541c-.692-.127-1.384 0-2.015 0-3.127-2.225 1.691-3.894-1.436-4.773-.631 1.226-6.255 2.443-2.857-1.587-4.33.158-7.803-.661-9.871-3.187 1.7-.287.902-1.744-.052-3.151 3.638-.158 5.518-2.307 5.676-6.397-1.436-3.549-7.639 3.504-9.864-1.511 9.706-4.451 15.803 6.052 19.727 10.983a32 32 0 0 1 .428-4.112c-3.24-7.533-20.215-14.72-21.644-24.395 3.872-2.895 10.713-4.195 7.06-11.141 6.788-4.271 10.735-5.278 16.862-.136 1.489-4.059-4.292-7.608-.052-9.517 11.081 10.208 18.99-5.811 18.35-14.984 1.301 7.713 16.179 4.902 11.112-2.6.902 5.645-4.105 4.878-8.352 4.773-.737-6.044.556-9.946 4.142-11.194 3.015 2.917 4.158 5.488 8.533 3.233 3.135 15.57-2.068 20.479-13.998 22.358C-19.71 17.359-20.958-6.381-10.96-9.916c2.812 1.091.316 8.652 3.444 9.314 1.195-.526 2.18-3.893 3.421-5.675C-3.298-4.421-1.962-.925 0 0" clip-path="url(#clipPath55)" style="fill:#94644e;fill-opacity:1;fill-rule:nonzero;stroke:none" transform="matrix(1.33333 0 0 -1.33333 824.204 1196.58)"/><path d="M0 0c4.322-6.15 2.411-17.93-3.694-18.569 7.533 1.06 9.285.264 11.667 7.112 2.444 6.788-2.3 14.374-8.449 20.975-2.128 2.285-1.948 5.33-1.948 7.931-.075.819-10.923-1.676-3.758-9.976C-3.589 4.744-2.571 3.609 0 0" clip-path="url(#clipPath57)" style="fill:#94644e;fill-opacity:1;fill-rule:nonzero;stroke:none" transform="matrix(1.33333 0 0 -1.33333 772.077 660.691)"/><path d="M0 0c-.293.135-.609.271-.902.481-.609.21-1.301.481-1.887.85 0-.023-.053-.053-.053-.083A3.4 3.4 0 0 1-1.436.586 5.8 5.8 0 0 1 0 0" clip-path="url(#clipPath59)" style="fill:#94644e;fill-opacity:1;fill-rule:nonzero;stroke:none" transform="matrix(1.33333 0 0 -1.33333 866.557 818.344)"/><path d="M0 0c-.076 0-.158.052-.234.083C-.158.052-.076 0 0 0" clip-path="url(#clipPath61)" style="fill:#94644e;fill-opacity:1;fill-rule:nonzero;stroke:none" transform="matrix(1.33333 0 0 -1.33333 858.137 792.172)"/><path d="M0 0c-.083 0-.188 0-.376.06Z" clip-path="url(#clipPath63)" style="fill:#94644e;fill-opacity:1;fill-rule:nonzero;stroke:none" transform="matrix(1.33333 0 0 -1.33333 859.31 777.748)"/><path d="M0 0c5.759-1.143-3.496-15.749 2.759-23.869C-5.567-17.982.692-6.097 0 0" clip-path="url(#clipPath65)" style="fill:#94644e;fill-opacity:1;fill-rule:nonzero;stroke:none" transform="matrix(1.33333 0 0 -1.33333 633.765 689.269)"/><path d="M0 0c2.918-5.886 8.54-12.013 15.539-11.457l.158-2.12c-.42-.03-.789-.03-1.105-.03C7.27-13.577 1.436-7.209-1.699-1.06z" clip-path="url(#clipPath67)" style="fill:#94644e;fill-opacity:1;fill-rule:nonzero;stroke:none" transform="matrix(1.33333 0 0 -1.33333 663.896 659.85)"/><path d="M0 0c-3.255 5.999-8.668 24.801 1.542 23.921C-5.804 18.539-.609 9.315 0 0" clip-path="url(#clipPath69)" style="fill:#94644e;fill-opacity:1;fill-rule:nonzero;stroke:none" transform="matrix(1.33333 0 0 -1.33333 652.259 763.675)"/><path d="M0 0c5.172-8.562-4.135-26.492 6.924-31.853 3.661 5.759.105 10.774 4.292 14.292 1.858-9.465-4.375-17.555 2.707-25.456C4.375-41.348-6.157-12.013 0 0" clip-path="url(#clipPath71)" style="fill:#94644e;fill-opacity:1;fill-rule:nonzero;stroke:none" transform="matrix(1.33333 0 0 -1.33333 645.122 668.089)"/><path d="M0 0c3.631 4.992 3.947-7.134 11.209-3.232C13.495-6.872-.248-4.45 0 0" clip-path="url(#clipPath73)" style="fill:#94644e;fill-opacity:1;fill-rule:nonzero;stroke:none" transform="matrix(1.33333 0 0 -1.33333 663.656 736.09)"/><path d="M0 0c-1.165-1.594-4.932.578-7.052-3.241-.428-6.254.474-11.006 4.135-12.727C-17.08-13.976-.661 7.953-1.376 12.675 2.812 8.277-3.345 1.082 0 0" clip-path="url(#clipPath75)" style="fill:#94644e;fill-opacity:1;fill-rule:nonzero;stroke:none" transform="matrix(1.33333 0 0 -1.33333 688.154 714.869)"/><path d="m0 0 1.752-.685C1.248-2.413.234-7.368 1.617-9.653c.48-.737 1.3-1.165 2.435-1.136 2.714-.029 6.263.715 9.714 1.459 5.059 1.083 9.81 2.068 12.779 1.083l-.526-2.091c-2.067.738-5.676.181-9.472-.586 2.947-1.962 7.878-3.338 9.894-3.766l-.369-2.09c-.323.075-8.653 1.932-12.096 5.353-3.503-.715-7.112-1.459-9.924-1.459-1.743 0-3.074.692-3.976 2.015C-2.097-7.345-.21-.767 0 0" clip-path="url(#clipPath77)" style="fill:#94644e;fill-opacity:1;fill-rule:nonzero;stroke:none" transform="matrix(1.33333 0 0 -1.33333 689.607 679.656)"/><path d="M0 0c.158 4.06 5.518 2.233 5.729 6.315 1.97-.715-.211-1.376-.053-3.18 7.405 3.608 7.134 11.983 12.736 14.291C12.465 7.849 12.525 1.173 0 0" clip-path="url(#clipPath79)" style="fill:#94644e;fill-opacity:1;fill-rule:nonzero;stroke:none" transform="matrix(1.33333 0 0 -1.33333 785.113 899.957)"/><path d="M0 0c-3.797-1.594 1.827-13.788-4.3-12.728C-.482-11.195-6.127 1.082 0 0" clip-path="url(#clipPath81)" style="fill:#94644e;fill-opacity:1;fill-rule:nonzero;stroke:none" transform="matrix(1.33333 0 0 -1.33333 821.12 815.157)"/><path d="M0 0c.902-1.692 2.225-2.947 3.736-3.924a6.5 6.5 0 0 0 1.835-.88c8.668-3.684 22.643-1.271 25.297-14.397-3.346 8.3-14.374 7.135-25.297 14.375v.022q-.958.44-1.835.88c-2.308.849-5.067.638-3.796-4.06C-3.315-7.586-.827-.978 0 0" clip-path="url(#clipPath83)" style="fill:#94644e;fill-opacity:1;fill-rule:nonzero;stroke:none" transform="matrix(1.33333 0 0 -1.33333 817.3 834.252)"/><path d="M0 0c-8.375 3.661-19.517 2.203-29.59.105C-21.058 6.631-9.142 6.209 0 0" clip-path="url(#clipPath85)" style="fill:#94644e;fill-opacity:1;fill-rule:nonzero;stroke:none" transform="matrix(1.33333 0 0 -1.33333 820.97 866.148)"/><path d="M0 0c4.188 1.06-1.376 3.451.052 6.39 1.963 5.119.054-7.157 5.571-3.18C.639-6.999-5.277 5.758-9.863 9.578-10.743 13.555-1.646 3.579 0 0" clip-path="url(#clipPath87)" style="fill:#94644e;fill-opacity:1;fill-rule:nonzero;stroke:none" transform="matrix(1.33333 0 0 -1.33333 751.665 817.102)"/><path d="M0 0c1.511 3.872.504 3.398 1.459 9.547C6.233 9.014 8.015-1.962 0 0" clip-path="url(#clipPath89)" style="fill:#94644e;fill-opacity:1;fill-rule:nonzero;stroke:none" transform="matrix(1.33333 0 0 -1.33333 742.081 844.647)"/><path d="M0 0c5.631.42 19.208 14.615 25.357 1.511C12.893 9.149 3.609-8.593-8.487 3.232-6.623 9.969-2.759 1.534 0 0" clip-path="url(#clipPath91)" style="fill:#94644e;fill-opacity:1;fill-rule:nonzero;stroke:none" transform="matrix(1.33333 0 0 -1.33333 725.563 753.27)"/><path d="M0 0c-7.21 3.022-13.945 6.556-18.298 12.81C-20.313 17.215-4.826 3.451 0 0" clip-path="url(#clipPath93)" style="fill:#94644e;fill-opacity:1;fill-rule:nonzero;stroke:none" transform="matrix(1.33333 0 0 -1.33333 732.99 785.136)"/><path d="M0 0c4.691 3.263 9.382 6.285 13.968 9.262 14.035 9.119 26.237 16.945 25.756 23.817l1.879.157c.564-8.224-11.532-15.967-26.756-25.831-4.54-2.947-9.179-5.969-13.9-9.232-19.674-13.66-21.719-29.064-21.719-29.199l-1.932.293C-22.599-30.071-20.456-14.156 0 0" clip-path="url(#clipPath95)" style="fill:#94644e;fill-opacity:1;fill-rule:nonzero;stroke:none" transform="matrix(1.33333 0 0 -1.33333 703.721 954.166)"/><path d="M0 0c-.586 2.571-1.143 4.691-1.782 6.631-1.962 6.706-3.391 11.584.376 24.448 4.533 15.433.955 24.162.955 24.245l1.699.924c.128-.338 3.924-9.547-.902-25.906C-3.188 18.215-1.94 13.893 0 7.322A86 86 0 0 0 1.827.609C4.375-10.818 5.593-23.103-9.39-37.875l-1.248 1.595C4.721-21.163 1.879-8.353 0 0" clip-path="url(#clipPath97)" style="fill:#94644e;fill-opacity:1;fill-rule:nonzero;stroke:none" transform="matrix(1.33333 0 0 -1.33333 662.734 1068.768)"/><path d="M0 0c-1.225-1.564-2.443-3.368-3.849-5.015C-2.443-3.368-1.195-1.564 0 0" clip-path="url(#clipPath99)" style="fill:#94644e;fill-opacity:1;fill-rule:nonzero;stroke:none" transform="matrix(1.33333 0 0 -1.33333 879.748 779.191)"/><path d="M0 0" clip-path="url(#clipPath101)" style="fill:#94644e;fill-opacity:1;fill-rule:nonzero;stroke:none" transform="matrix(1.33333 0 0 -1.33333 915.002 802.427)"/><path d="M0 0" clip-path="url(#clipPath103)" style="fill:#94644e;fill-opacity:1;fill-rule:nonzero;stroke:none" transform="matrix(1.33333 0 0 -1.33333 871.147 789.346)"/><path d="M0 0c-.105-.105-.21-.188-.293-.263.083.075.188.158.293.263" clip-path="url(#clipPath105)" style="fill:#94644e;fill-opacity:1;fill-rule:nonzero;stroke:none" transform="matrix(1.33333 0 0 -1.33333 872.671 787.963)"/><path d="M0 0c-.771 2.226-4.267 3.022-5.492 3.18l.053.902c-.132-.525-.29-1.142-.421-1.72-.504.367-1.143.767-1.966.902.665-1.46.744-3.527 1.064-5.413-1.748-6.789-4.296-13.419-7.052-19.757a33.5 33.5 0 0 1-1.673-4.248c.079 0 .132.053.188.053.26 0 .447-.075.684-.158.587 3.187 1.967 8.382 11.142 18.726C-.661-4.353.582-1.751 0 0" clip-path="url(#clipPath107)" style="fill:#94644e;fill-opacity:1;fill-rule:nonzero;stroke:none" transform="matrix(1.33333 0 0 -1.33333 554.382 1179.591)"/><path d="M0 0" clip-path="url(#clipPath109)" style="fill:#94644e;fill-opacity:1;fill-rule:nonzero;stroke:none" transform="matrix(1.33333 0 0 -1.33333 867.9 791.531)"/><path d="M0 0c-.045-.052-.127-.052-.18-.097.053.045.135.045.18.097" clip-path="url(#clipPath111)" style="fill:#94644e;fill-opacity:1;fill-rule:nonzero;stroke:none" transform="matrix(1.33333 0 0 -1.33333 869.554 790.549)"/><path d="M0 0c.24-.324 2.522-2.068 2.947-3.03.157.879 2.36 8.435-6.316 24.35-11.772 13.209-36.28 10.931-36.543 10.871l-.109 2.127c.958.128 20.681 1.559 33.679-7.56-.425.683-1.319 1.727-1.797 2.441-4.567 6.841-11.355 9.307-18.568 10.63-6.579 2.285-14.799 3.24-19.096 9.39-1.376 1.962-2.781 9.871-5.965 9.179-2.522-.586-3.341-14.562-3.42-15.224a108 108 0 0 1-.083-4.134c4.751 1.962 15.149 5.037 15.276-6.105.083-6.946-5.567-6.946-7.687-7.104-1.195-.106-3.954-.481-6.446-.083 1.165-3.158 4.082-5.804 4.796-9.149.932-4.691-2.41-10.473-1.35-15.171.32-1.699 1.538-3.548 3.049-3.977 2.443-.714 4.376-.902 6.473.767.612.504 1.195 3.984 1.59 4.699 1.94 3.601 4.484 1.511 7.721 1.375 4.19-.18 8.378.85 12.411 1.647 3.18.639 4.35 1.436 8.326.954C-7.079 6.473-2.812 3.548 0 0" clip-path="url(#clipPath113)" style="fill:#94644e;fill-opacity:1;fill-rule:nonzero;stroke:none" transform="matrix(1.33333 0 0 -1.33333 608.696 842.31)"/><path d="M0 0c-.158-.188-.316-.345-.474-.534.158.189.316.346.474.534" clip-path="url(#clipPath115)" style="fill:#94644e;fill-opacity:1;fill-rule:nonzero;stroke:none" transform="matrix(1.33333 0 0 -1.33333 874.154 786.369)"/><path d="M0 0c-.85 5.382-9.547 8.089-9.604 8.089l.534 2.067C-8.755 10.02.767 7.133 1.854.42c.533-3.097-.85-6.39-4.03-9.81 1.033.578 2.071 1.248 3.078 1.931.052.084.052.113.052.113s.027 0 .027-.029c2.68 1.833 5.225 4.029 6.976 5.435a87 87 0 0 0 4.346 3.232c.214 1.94 0 3.67-.74 5.232-2.388 4.775-8.965 5.751-9.018 5.751l.236 2.151c.268-.082 7.56-1.165 10.428-6.871.74-1.459 1.083-3.128 1.06-4.932 1.642 1.06 3.338 2.15 5.357 3.45.079 1.407-.106 2.752-.636 4.06-2.334 5.729-9.736 8.375-9.815 8.511l.53 1.962c.32-.136 8.327-3.053 11.006-9.577a13.5 13.5 0 0 0 .823-3.602c4.373 4.188-.424 13.074-5.356 14.69-4.457 1.429-8.855 1.939-13.476 1.962-5.194.053-10.821 1.331-16.069 2.76-.158.029-11.194 8.802-11.881 13.419-.692 4.593.052 6.789 2.067 11.539 2.041 4.722 6.153 5.616 9.39 7.42 1.804 1.038 3.288 1.729 4.427 3.474.241-.128.505-.158.82-.339-.049.579-.101.978-.211 1.503 1.275 3-.135 7.51-1.165 10.293-.03.03-.03.082-.053.166 17.13 3.104 35.59 4.795 42.33 19.756-1.17 1.03-4.327 7.449-1.357 8.007 4.698-8.541 8.908-17.555 11.164-28.719 5.548-.775 7.292 3.316 9.818-1.669-2.443-3.27-4.353-1.353-5.623-3.135 6.998-5.412 13.795 8.887 19.734 4.745-.053 4.855 2.97 6.157 4.292 9.546-2.969 2.76-4.134 3.564-8.487 1.624-20.313 22.412 7.849 44.611 14.321 65.218-1.112.367-2.812.023-2.812 1.616 6.263 1.113 3.241 14.397 2.865 12.728-3.127-2.331 1.752-3.873-1.458-4.775.849 3.789-.767 4.985-3.203 5.384.023.271.023.616 0 .931 3.127-.187 5.856.076 6.067 3.233-5.277 1.278-.083 5.549-2.759 7.954h-2.834c-.031-.714-.241-1.134-.587-1.563.083.722.083 1.382.113 2.044.158.398.368.714.474 1.114h-.504c0 .609 0 1.164.053 1.728.022.338.022.714 0 1.007.187.158.345.287.451.451-.031.316-.106 1.451-.218 3.022.962 11.248 4.247 21.134 9.502 30.448.631.045 8.804 13.096 10.187 14.66.631.345 11.615 10.795 11.502 10.795.165.105 4.06 4.511 6.051 6.736 2.016 2.181 9.015 7.323 13.947 10.616-2.309-.903 5.097 3.871 4.961 4.608 16.915 11.78 32.282 12.862 38.694 14.427 5.255 10.878 9.6 13.952 19.787 17.403 1.639 9.811-6.044 9.036-8.382 14.344 4.984-1.248 6.871-6.022 12.645-6.338 1.969 2.016 1.435 6.924 1.466 11.06 9.464 2.728 8.3-6.526 11.246-11.164 7.21-4.594 8.112 6.36 11.27 11.141 4.796-2.022 5.329-8.811 11.216-9.608 4.3-.045 5.518 3.345 8.488 4.782 3.293 16.336-11.089 12.915-15.435 20.733 19.81-2.706 18.036-11.164 29.599-3.285-4.932 5.405-7.955 3.872-11.27 9.548 4.293 0 3.579 5.616 4.263 9.6-1.105.315-1.64 1.323-1.406 3.18-6.706 1.962-5.458-6.097-8.457 0-5.015-23.869-26.997-10.292-43.709-15.75-.106 8.165 2.015 12.75 4.353 23.839-17.081 7.3-24.456-11.585-38.138-15.749.075 3.097 3.871 2.014 2.917 6.337-3.819 4.721-33.206 14.742-33.785 6.473 1.082 4.901-3.872 3.075-2.812 7.984 11.562-8.992 36.912-.189 37.98-14.487 13.682 5.412 21.102 19.546 35.191 12.652 0 0 1.3 11.247.105 14.803-1.196 3.443-1.594 4.029 2.489 1.586 2.473-1.511 3.819-2.12 4.592-2.383.076 0 .212.053.294.053.662-.534 1.458-1.113 2.466-1.353.105.451 1.511.345 1.428 0 1.91-.504 2.654-2.309 5.571-1.617 0 .316.481.895 1.112 1.564 1.06 6.999-6.653 18.141-6.653 18.141-1.09 1.721 12.465-6.496 17.501-9.736a26.6 26.6 0 0 1 4.271 4.774c1.165 1.646 1.992 3.45 2.571 5.307.188 1.324.398 9.916-5.962 10.42-6.743.503-7.803-1.038-11.119-.819-3.284.158-3.284 3.232.031 3.811 3.285.587 8.909-.631 11.404-.045 2.489.609 3.549-.376 5.015 3.157.097.339.285.601.473.872a39 39 0 0 1-.978 3.233c.212 1.593-.112 1.962-.744 2.075q-.324.867-.639 1.669c-.315.045-.683.075-1.059.135-2.97.474-4.03 1.481-4.985 3.97-.902 2.495 2.015 4.037 2.015 4.037s0-.113.075-.158c-1.188 1.849-2.624 3.443-4.345 4.556-.985 1.699-1.992 3.127-3.052 1.277-.715.023-1.376-.165-1.91-.586-1.323 1.008-2.699 1.429-2.781-1.909.586-.135.932-.211 1.353-.369a13 13 0 0 1-.64-1.834c-1.112-.399-2.224-.661-2.172-.977.85-.083 1.699-.241 1.459-1.594-.767 0-1.511-1.143-.241-1.511-.526-2.571-1.008-5.172-2.015-7.45a43.3 43.3 0 0 0-7.796-11.781c-.316-.316-.692-.609-1.008-.955-4.615.053-7.111-1.616-11.561-5.3.158-.241.262-.451.368-.638-.451-.294-.88-.527-1.218-.85-4.458-3.075-8.593-6.811-12.998-10.074-1.722-1.225-3.391-2.601-5.038-4.029-.902-.828-1.615-1.971-2.39-2.977 1.594-.211 3.819-.474 6.337-.264 5.624.534 8.939 2.812 11.759 3.661 2.781.902 5.938 3.338 9.863 3.978 3.894.691 6.894-2.948 8.427-3.82 1.541-.902 2.496-2.172 0-2.225-2.489-.03-7.66 1.88-11.72 2.278-4.03.316-6.736-2.97-12.705-5.248-5.939-2.307-13.766.023-13.766.023l-.262.451c-1.827-1.699-3.504-3.556-4.88-5.676-17.501 12.412-31.927-9.465-47.948.166 11.585-1.729 12.622 1.105 22.539 3.127-2.436 11.164-19.201 2.699-22.456 9.623 14.314 3.052 23.839-8.939 33.755-4.902-2.12 2.383-5.94 2.887-7.052 6.413l.075 6.337c3.714 2.361 11.54-2.037 14.059 4.752-9.684-1.218-11.27 3.39-16.893 1.669 4.112 4.585-3.789 3.789-4.188 7.984 2.594.158 4.692 1.007 5.669 3.18-6.36-.422-27.102-1.858-25.328 1.616-17.786-8.961-41.738-.714-31.634 20.29 3.18-.232 6.419-.21 9.653-.421 4.134-.368 13.313-2.337 16.787 1.407 1.037 1.082 1.375 2.089 1.623 3.631 0 .21.045.428.075.609 0 0 .986 2.758.474 3.69.346 2.519.586 5.06.955 7.556.03.135.06.24.082.346-1.586 1.827-4.668 1.112-12.043-.586-8.54-1.985-17.606 3.052-17.448 5.044.082 2.067-.505 6.465 2.014 8.668 2.549 2.15 10.871-.451 19.945-1.669 4.931-.662 7.796.421 9.337 1.511.053.421.105.872.128 1.271.932.691 1.36 1.676.879 3.105.639 1.804.451 4.457.233 6.683.166.345.324.692.512 1.007-.241-.053-.481-.053-.67-.105a4.8 4.8 0 0 0-.127 1.165c-.482 3.082-2.278 5.15-4.88 6.104-.104.106-.158.181-.315.316-1.909 1.481-4.09 2.706-6.158 4.135-1.939 1.278-3.502 3.451-4.931 5.571.211.503.316 1.173.263 1.962-.586 0-1.112.053-1.593.158-1.639 2.601-3.391 4.992-5.458 7.029-.053.135-.083.263-.271.398-7.21 7.879-20.681 5.436-30.763 5.014.053.129.082.188.105.346a9 9 0 0 0-.556-.346c-1.136-.029-2.255-.082-3.263-.082.797-1.271 1.541-2.865 1.324-4.398-.128-.797-.58-1.909-1.91-2.631l-.368-.18c-3.662-2.023-5.616-3.075-4.293-8.435.451-2.12 1.06-3.557 1.533-4.721 1.091-2.467 1.594-4.083-.924-6.549l-3.21-3.293-1.248 1.617 3.21 3.187c1.594 1.587 1.436 1.91.503 4.135a31 31 0 0 0-1.773 4.985c-1.7 7.186 1.743 8.968 5.404 10.953l.377.263c.661.346.789.722.849.984.158 1.218-1.12 3.128-1.993 4.271-4.48.346-8.908 1.029-12.675-1.271-.187 0-.451-.03-.713-.135-.053-.105-.083-.263-.113-.481-.662-.474-1.271-1.06-1.91-1.804-2.571-3.18-5.033-6.736-7.314-10.495-.636-.586-1.301-1.143-1.962-1.436.42-.053.74 0 1.164 0a89 89 0 0 1-3.634-6.999 20 20 0 0 0-1.775-.985c2.917-.902-2.149-4.796 2.759-1.586-.691-1.992-3.555-9.502-1.432-9.578 1.696 2.391 1.245 7.135 5.676 6.42-.056-17.215-31.112-25.861-14.216-44.581.951 14.375 11.51 17.848 16.975 27.019-.06-1.615 1.166-1.908 1.429-3.232-5.36-3.525-8.755-9.231-12.754-14.269 6.999-9.284 3.575-26.785-5.729-33.416 9.304-6.842 12.119 6.022 14.081 12.727 2.011-8.54-7.161-12.78-1.432-15.96-3.266-6.285-13.607-9.735-8.541-20.667 6.549-.503 8.435 12.683 12.729 9.473-2.7-3.819-.899-12.781-1.511-19.065 5.277-.669 2.706 7.66 7.134 7.924-.639-4.398 5.225-1.511 5.593-4.774-3.895-5.195-5.488-7.984-5.699-14.322 3.316.482 5.308 2.496 9.916 1.542.061-5.864 2.068-5.12-1.481-7.962 3.421-.977 10.209 1.94 11.27-1.639-4.902.106-4.691-5.097-8.51-12.675 8.171-2.706 6.63-14.486 14.028-14.404 4.856.075 9.518 17.637 15.569 11.111-4.195-1.06-4.217-6.946-9.871-6.36-.578-4.563-1.376-3.796-4.292-7.939 3.044-3.999 8.224-5.623 11.246-9.569-3.661.428-6.044-.557-5.653-4.804 3.796-1.188 2.842 3.157 5.653 3.21 1.113-3.706 1.165-8.699 2.654-12.014-.534-1.511-1.173-2.917-1.782-4.322-1.669-1.188-1.669-1.858-1.406-3.444-1.752-4.804-4.082-8.277-6.736-12.231-1.322-1.24-2.308-2.782-2.999-4.797-1.639-2.969-2.917-6.157-4.052-9.389-.534-.241-.955-.692-1.331-1.534.294 0 .481-.112.714-.166-1.451-4.24-2.834-8.539-4.744-12.569a1.13 1.13 0 0 1-.714-.451c-4.586-8.142-5.33-18.727-8.465-27.718-.579-.422-1.007-.977-1.03-2.068.106-.023.18-.052.241-.052-1.594-3.819-3.451-7.42-5.518-11.059-.105-.022-.211-.076-.346-.022-.023-.294-.023-.505-.083-.798-1.029-1.721-2.067-3.503-3.127-5.277-.263-.082-.692-.136-1.06-.263a18 18 0 0 1-.473-2.421c-1.166-1.932-2.339-3.788-3.451-5.857-.211-.135-.293-.345-.376-.609-.365-.773-.79-1.54-1.214-2.233-.478 0-1.008 0-1.542-.051-3.661-11.879-14.054-15.961-22.621-22.223-5.965 6.149-15.858 5.886-23.895 4.879-5.623 9.893-11.934 29.522-3.925 44.077 4.77 2.653 10.183 2.308 14.8 5.706.157.135.319.263.477.398 1.165-.105 2.255.211 2.86 2.331h-.21l1.537 1.699c0-.03 0-.03.056-.136.102.136.158.346.237.481a19 19 0 0 1 3.448 6.391c1.672 5.142 2.097 10.502 2.334 15.968.026 3.924 1.086 10.284-1.034 13.787-.158.534-.316 1.06-.609 1.624a3.5 3.5 0 0 0-.161-.827c-2.016 1.353-5.808-.316-7.556-.932-.556-.181-1.379-.181-2.072-.391-2.334.285-3.845 0-2.916-2.444-.902-1.804-1.376-3.818-1.721-5.886-.613-4.082-1.249-7.796-2.286-11.352a7.3 7.3 0 0 1-.553-1.856c-.902-2.707-2.018-5.383-3.555-8.112-1.06-1.857-1.989-3.819-2.598-5.97-.586-2.36-.797-6.315-2.575-7.984-.293-.315-.346-.638-.293-.954-14.69-24.981-2.732-54.633 18.941-58.428 6.206-1.031 4.613 1.856 5.619-3.18 2.309 4.826 9.71 3.848 14.059 6.337-1.007-4.352 2.811-3.21 2.811-6.39-5.036-1.249-5.675-14.51-1.488-12.728-5.623-7.458-10.423-22.515-23.974-15.893-.158-9.119 12.517-3.893 16.866-8.006-8.488-3.766-16.494-14.615-28.109 1.7-5.996-11.406 9.814-10.797 14.002-16.022-.211-2.359.481-5.833-1.432-6.314-20.317 7.856-24.482-10.871-23.974-23.786.451-.293.898-.422 1.375-.609-.053-.242-.101-.4-.132-.64 1.038-.075 5.729-.902 6.924-4.48.85-2.571-.481-5.864-3.924-9.683-9.074-10.262-10.183-15.089-10.664-17.922 2.147-1.46 3.661-4.669 3.661-8.435 0-5.12-2.755-9.233-6.259-9.202-.638 0-1.274.18-1.908.451-.584-7.668-3.106-17.269 2.438-22.629.264-.285.64-.474.956-.736l5.995 6.518s-.056-5.038 1.06-9.864c.106-.105.184-.158.289-.234l6.977 7.211s.316-8.542 2.707-14.135c3.976-2.819 8.006-5.044 12.941-4.961.267.022.526.022.794.053l-.132.158C-1.699-6.737.53-3.129 0 0" clip-path="url(#clipPath117)" style="fill:#94644e;fill-opacity:1;fill-rule:nonzero;stroke:none" transform="matrix(1.33333 0 0 -1.33333 585.325 1275.527)"/><path d="M0 0a62 62 0 0 1 1.835-.88A6.5 6.5 0 0 1 0 0" clip-path="url(#clipPath119)" style="fill:#1e1f1d;fill-opacity:1;fill-rule:nonzero;stroke:none" transform="matrix(1.33333 0 0 -1.33333 822.281 839.484)"/><path d="M0 0c.188-.06.293-.06.376-.06Z" clip-path="url(#clipPath121)" style="fill:#1e1f1d;fill-opacity:1;fill-rule:nonzero;stroke:none" transform="matrix(1.33333 0 0 -1.33333 858.808 777.669)"/><path d="M0 0" clip-path="url(#clipPath123)" style="fill:#1e1f1d;fill-opacity:1;fill-rule:nonzero;stroke:none" transform="matrix(1.33333 0 0 -1.33333 859.31 777.748)"/><path d="M0 0c10.073 2.097 21.215 3.555 29.59-.105C20.448 6.104 8.532 6.525 0 0" clip-path="url(#clipPath125)" style="fill:#1e1f1d;fill-opacity:1;fill-rule:nonzero;stroke:none" transform="matrix(1.33333 0 0 -1.33333 781.516 866.007)"/><path d="M0 0c-.158 1.804 2.023 2.466.052 3.18-.21-4.082-5.57-2.255-5.728-6.315C6.849-1.962 6.789 4.714 12.736 14.291 7.134 11.983 7.405 3.609 0 0" clip-path="url(#clipPath127)" style="fill:#1e1f1d;fill-opacity:1;fill-rule:nonzero;stroke:none" transform="matrix(1.33333 0 0 -1.33333 792.682 895.777)"/><path d="M0 0c-1.94 6.571-3.188 10.893.346 23.021 4.826 16.358 1.03 25.567.902 25.905l-1.699-.924c0-.083 3.578-8.811-.955-24.245C-5.173 10.893-3.744 6.015-1.782-.691-1.143-2.631-.586-4.751 0-7.322c1.879-8.353 4.721-21.163-10.638-36.28l1.248-1.595C5.593-30.424 4.375-18.139 1.827-6.713A86 86 0 0 1 0 0" clip-path="url(#clipPath129)" style="fill:#1e1f1d;fill-opacity:1;fill-rule:nonzero;stroke:none" transform="matrix(1.33333 0 0 -1.33333 662.734 1059.005)"/><path d="M0 0c-4.586-2.977-9.277-5.999-13.968-9.262-20.456-14.157-22.598-30.071-22.704-30.733l1.932-.293c0 .135 2.045 15.539 21.72 29.199C-8.3-7.826-3.661-4.804.88-1.857 16.103 8.006 28.199 15.75 27.635 23.974l-1.879-.158C26.237 16.945 14.035 9.119 0 0" clip-path="url(#clipPath131)" style="fill:#1e1f1d;fill-opacity:1;fill-rule:nonzero;stroke:none" transform="matrix(1.33333 0 0 -1.33333 722.345 941.817)"/><path d="m0 0 1.06-1.797c0 .045 4 3.022 10.293 1.722 5.382-1.143 9.411.398 12.088 4.428l1.406 2.067-1.511 1.3-1.376-2.097c-2.285-3.39-5.601-4.556-10.239-3.631C4.616 3.451.211.158 0 0" clip-path="url(#clipPath133)" style="fill:#1e1f1d;fill-opacity:1;fill-rule:nonzero;stroke:none" transform="matrix(1.33333 0 0 -1.33333 687.803 658.295)"/><path d="M0 0c-2.436-.135-6.098 3.211-7.315 4.533l-1.278-1.586c.481-.481 4.879-5.036 8.487-5.036h.211c1.007.045 1.91.473 2.601 1.345C3.871.767 4.353 2.308 4.195 3.766 3.977 6.098 2.172 7.744.714 8.917l-1.06-1.782c1.037-.85 2.496-2.12 2.737-3.609.052-.849-.376-1.774-1.068-2.864C.902.241.533.031 0 0" clip-path="url(#clipPath135)" style="fill:#1e1f1d;fill-opacity:1;fill-rule:nonzero;stroke:none" transform="matrix(1.33333 0 0 -1.33333 676.627 658.045)"/><path d="M0 0c.098.128 9.224 15.539 17.156 15.916-2.947-.911-5.067-3.827-5.067-7.406-.053-2.255.797-4.218 2.12-5.623-.316.03-.609.03-.932.083-3.097 0-5.909-.955-9.202-2.97C1.669-1.541.444-1.804 0-1.804c-.165.022-.429.022-.429.128C-.511-1.36-.375-.534 0 0m-.03-3.932c1.248 0 2.835.692 5.037 2.022C8.804.526 11.398.789 13.277.789c1.098 0 2.158-.128 3.082-.263 1.007-.105 1.992-.188 3.052-.188 1.639 0 2.917.293 3.872.745 1.541.398 2.864 1.089 3.894 2.149 2.255 2.256 2.413 5.278 2.444 5.436l-1.88.053c0-.076-.165-1.962-1.466-3.549.03.316.083.632.083.925.24 4.428-.053 9.284-6.579 11.562a6.9 6.9 0 0 1-2.337.376C8.428 18.081-1.173 1.827-1.541 1.188c-.534-.744-1.173-2.458-.534-3.789.166-.474.715-1.331 2.045-1.331" clip-path="url(#clipPath137)" style="fill:#1e1f1d;fill-opacity:1;fill-rule:nonzero;stroke:none" transform="matrix(1.33333 0 0 -1.33333 668.076 636.223)"/><path d="M0 0c.692-6.097-5.567-17.982 2.759-23.869C-3.496-15.749 5.759-1.143 0 0" clip-path="url(#clipPath139)" style="fill:#1e1f1d;fill-opacity:1;fill-rule:nonzero;stroke:none" transform="matrix(1.33333 0 0 -1.33333 633.765 689.269)"/><path d="M0 0c-6.127 1.082-.482-11.195-4.3-12.728C1.827-13.788-3.797-1.594 0 0" clip-path="url(#clipPath141)" style="fill:#1e1f1d;fill-opacity:1;fill-rule:nonzero;stroke:none" transform="matrix(1.33333 0 0 -1.33333 821.12 815.157)"/><path d="M0 0c-.955-6.149.052-5.675-1.459-9.547C6.556-11.509 4.774-.533 0 0" clip-path="url(#clipPath143)" style="fill:#1e1f1d;fill-opacity:1;fill-rule:nonzero;stroke:none" transform="matrix(1.33333 0 0 -1.33333 744.027 831.917)"/><path d="M0 0c.714-4.722-15.704-26.651-1.541-28.643-3.662 1.721-4.564 6.473-4.135 12.727 2.12 3.819 5.886 1.647 7.052 3.241C-1.969-11.593 4.188-4.398 0 0" clip-path="url(#clipPath145)" style="fill:#1e1f1d;fill-opacity:1;fill-rule:nonzero;stroke:none" transform="matrix(1.33333 0 0 -1.33333 686.32 697.969)"/><path d="M0 0c-7.082 7.901-.849 15.99-2.706 25.456-4.187-3.519-.632-8.534-4.293-14.292-11.058 5.36-1.752 23.29-6.924 31.853C-20.08 31.004-9.547 1.669 0 0" clip-path="url(#clipPath147)" style="fill:#1e1f1d;fill-opacity:1;fill-rule:nonzero;stroke:none" transform="matrix(1.33333 0 0 -1.33333 663.686 725.444)"/><path d="M0 0c-10.21.88-4.797-17.922-1.542-23.921C-2.151-14.607-7.345-5.382 0 0" clip-path="url(#clipPath149)" style="fill:#1e1f1d;fill-opacity:1;fill-rule:nonzero;stroke:none" transform="matrix(1.33333 0 0 -1.33333 654.314 731.78)"/><path d="M0 0c-.248-4.45 13.495-6.872 11.209-3.232C3.947-7.134 3.631 4.992 0 0" clip-path="url(#clipPath151)" style="fill:#1e1f1d;fill-opacity:1;fill-rule:nonzero;stroke:none" transform="matrix(1.33333 0 0 -1.33333 663.656 736.09)"/><path d="M0 0c-2.759 1.534-6.623 9.969-8.487 3.232C3.609-8.593 12.893 9.149 25.357 1.511 19.208 14.615 5.631.42 0 0" clip-path="url(#clipPath153)" style="fill:#1e1f1d;fill-opacity:1;fill-rule:nonzero;stroke:none" transform="matrix(1.33333 0 0 -1.33333 725.563 753.27)"/><path d="M0 0c4.353-6.255 11.088-9.788 18.298-12.81C13.472-9.36-2.015 4.405 0 0" clip-path="url(#clipPath155)" style="fill:#1e1f1d;fill-opacity:1;fill-rule:nonzero;stroke:none" transform="matrix(1.33333 0 0 -1.33333 708.593 768.055)"/><path d="M0 0c-1.646 3.579-10.743 13.555-9.863 9.578C-5.277 5.758.639-6.999 5.623 3.21.106-.767 2.015 11.509.052 6.39-1.376 3.451 4.188 1.06 0 0" clip-path="url(#clipPath157)" style="fill:#1e1f1d;fill-opacity:1;fill-rule:nonzero;stroke:none" transform="matrix(1.33333 0 0 -1.33333 751.665 817.102)"/><path d="M0 0c-.827-.978-3.315-7.586-.06-7.984-1.271 4.698 1.488 4.909 3.796 4.06C2.225-2.947.902-1.692 0 0" clip-path="url(#clipPath159)" style="fill:#1e1f1d;fill-opacity:1;fill-rule:nonzero;stroke:none" transform="matrix(1.33333 0 0 -1.33333 817.3 834.252)"/><path d="M0 0v-.023c10.923-7.239 21.952-6.074 25.297-14.374C22.644-1.271 8.668-3.684 0 0" clip-path="url(#clipPath161)" style="fill:#1e1f1d;fill-opacity:1;fill-rule:nonzero;stroke:none" transform="matrix(1.33333 0 0 -1.33333 824.728 840.657)"/><path d="M0 0c.316 0 .685 0 1.105.03L.947 2.15c-6.999-.556-12.622 5.571-15.539 11.457l-1.699-1.06C-13.156 6.398-7.322.03 0 0" clip-path="url(#clipPath163)" style="fill:#1e1f1d;fill-opacity:1;fill-rule:nonzero;stroke:none" transform="matrix(1.33333 0 0 -1.33333 683.352 677.992)"/><path d="M0 0c-1.135-.03-1.955.399-2.436 1.136-1.383 2.285-.368 7.239.136 8.968l-1.752.685c-.211-.767-2.098-7.346.075-10.871C-3.075-1.406-1.744-2.097 0-2.097c2.812 0 6.421.744 9.923 1.458 3.444-3.421 11.773-5.277 12.096-5.352l.369 2.089c-2.015.429-6.946 1.805-9.893 3.767 3.796.766 7.404 1.323 9.472.586l.526 2.09c-2.969.985-7.72 0-12.78-1.082C6.263.714 2.714-.03 0 0" clip-path="url(#clipPath165)" style="fill:#1e1f1d;fill-opacity:1;fill-rule:nonzero;stroke:none" transform="matrix(1.33333 0 0 -1.33333 695.01 694.04)"/><path d="M0 0c9.33-1.482 14.554-4.849 14.847-13.811l2.497 3.736C13.577-2.7 10.179 5.307 0 0" clip-path="url(#clipPath167)" style="fill:#1e1f1d;fill-opacity:1;fill-rule:nonzero;stroke:none" transform="matrix(1.33333 0 0 -1.33333 776.774 1184.441)"/><path d="M0 0c.334-.144.529-.189.629-.205C.516-.119.4-.033.293.053.211.053.076 0 0 0" clip-path="url(#clipPath169)" style="fill:#1e1f1d;fill-opacity:1;fill-rule:nonzero;stroke:none" transform="matrix(1.33333 0 0 -1.33333 853.225 777.458)"/><path d="m0 0 .068-.053.017.041S.051-.009 0 0" clip-path="url(#clipPath171)" style="fill:#1e1f1d;fill-opacity:1;fill-rule:nonzero;stroke:none" transform="matrix(1.33333 0 0 -1.33333 854.064 777.732)"/><path d="M0 0c98.265-28.305 128.998-62.856 143.379-83.388l.211-.578c.023.022.053.074.105.104 0-.03.053-.082.076-.104l.24.578C158.385-62.856 189.095-28.305 287.36 0c96.619 27.899 166.076 76.456 177.428 152.385h-642.186C-166.076 76.456-96.615 27.899 0 0" clip-path="url(#clipPath173)" style="fill:#e52521;fill-opacity:1;fill-rule:nonzero;stroke:none" transform="matrix(1.33333 0 0 -1.33333 753.288 1501.061)"/><path d="M0 0c6.259-32.809 24.456-61.632 54.103-85.742 28.988-23.605 69.013-42.858 118.976-57.285 90.281-25.988 124.908-57.338 142.365-80.305 17.419 22.967 52.061 54.317 142.342 80.305 49.963 14.427 89.958 33.68 118.97 57.285 29.68 24.11 47.819 52.933 54.128 85.742zm316.767-241.451-1.323 1.805-1.331-1.805-3.255 8.226c-15.517 22.012-47.076 54.128-140.433 81.071-51.211 14.75-92.375 34.642-122.371 59.037C14.878-66.12-4.777-33.418-10.371 4.029l-.819 5.466h653.267l-.849-5.466c-5.571-37.447-25.245-70.149-58.399-97.146-29.996-24.395-71.185-44.287-122.397-59.037-93.327-26.943-124.916-59.059-140.425-81.071z" clip-path="url(#clipPath175)" style="fill:#1e1f1d;fill-opacity:1;fill-rule:nonzero;stroke:none" transform="matrix(1.33333 0 0 -1.33333 524.29 1304.245)"/><path d="m0 0-.075-22.545 7.209-.084c6.504 0 9.736 3.692 9.788 11.059C16.945-4.164 13.795-.053 8.225 0Zm-9.547 8.006 19.629-.053C20.291 7.931 26.951.211 26.891-11.781c-.052-11.667-6.518-18.929-16.809-18.929l-19.787.052z" clip-path="url(#clipPath177)" style="fill:#fff;fill-opacity:1;fill-rule:nonzero;stroke:none" transform="matrix(1.33333 0 0 -1.33333 665.469 1339.92)"/><path d="m0 0 26.951-.053-1.458-7.111-15.99.082-.06-8.037 14.779-.051v-7.082L9.42-22.17v-9.413l16.441-.082 1.384-7.051-27.372.051z" clip-path="url(#clipPath179)" style="fill:#fff;fill-opacity:1;fill-rule:nonzero;stroke:none" transform="matrix(1.33333 0 0 -1.33333 726.253 1329.245)"/><path d="M0 0v-10.051l8.698-.022c3.451 0 5.939 2.171 5.97 5.058-.053 3.083-2.151 4.992-5.706 4.992zm-9.442 7.082 18.517-.053c9.592 0 15.697-4.616 15.591-12.118 0-6.684-5.751-12.066-12.833-12.066l-11.802.023-.061-14.502-9.517.051z" clip-path="url(#clipPath181)" style="fill:#fff;fill-opacity:1;fill-rule:nonzero;stroke:none" transform="matrix(1.33333 0 0 -1.33333 799.987 1338.687)"/><path d="M0 0c6.367-.053 10.081 4.646 10.081 12.118.053 7.405-3.608 12.021-9.976 12.021-6.36 0-10.051-4.511-10.127-11.991C-9.969 4.698-6.315-.053 0 0m.127 32.596c11.014 0 20.081-7.344 20.028-20.552C20.102-.902 11.036-8.435 0-8.406c-11.029.053-20.103 7.428-20.05 20.554.052 13.262 9.179 20.471 20.177 20.448" clip-path="url(#clipPath183)" style="fill:#fff;fill-opacity:1;fill-rule:nonzero;stroke:none" transform="matrix(1.33333 0 0 -1.33333 881.671 1371.184)"/><path d="m0 0-.023-8.751h9.338c3.39-.03 5.54 1.7 5.594 4.429.022 2.495-2.227 4.217-5.362 4.299zm-9.653 6.977 19.87-.106c8.961 0 14.66-4.353 14.66-11.035-.053-3.631-1.849-8.932-8.962-10.42l10.186-17.208H15.704l-9.599 15.99-6.315.023v-15.962l-9.549.045z" clip-path="url(#clipPath185)" style="fill:#fff;fill-opacity:1;fill-rule:nonzero;stroke:none" transform="matrix(1.33333 0 0 -1.33333 945.673 1338.477)"/><path d="m0 0 38.115-.105-.075-7.984-14.322.029-.113-30.656-9.546.022.082 30.688-14.215.075z" clip-path="url(#clipPath187)" style="fill:#fff;fill-opacity:1;fill-rule:nonzero;stroke:none" transform="matrix(1.33333 0 0 -1.33333 999.42 1329.245)"/><path d="m0 0 9.472-.023-.104-38.671H-.127z" clip-path="url(#clipPath189)" style="fill:#fff;fill-opacity:1;fill-rule:nonzero;stroke:none" transform="matrix(1.33333 0 0 -1.33333 1074.387 1329.245)"/><path d="m0 0 9.683-.023 10.502-26.5L30.763-.076l9.63-.059-15.404-38.581-9.548.022z" clip-path="url(#clipPath191)" style="fill:#fff;fill-opacity:1;fill-rule:nonzero;stroke:none" transform="matrix(1.33333 0 0 -1.33333 1111.555 1329.245)"/><path d="M0 0c6.368 0 10.081 4.669 10.081 12.179.076 7.481-3.637 12.014-9.975 12.043-6.337 0-10.021-4.51-10.081-11.99C-9.975 4.752-6.338.031 0 0m.135 32.68c11.006-.113 20.126-7.344 20.021-20.553C20.05-.789 11.006-8.374-.022-8.269c-11.013 0-20.08 7.344-20.005 20.524.03 13.238 9.127 20.447 20.162 20.425" clip-path="url(#clipPath193)" style="fill:#fff;fill-opacity:1;fill-rule:nonzero;stroke:none" transform="matrix(1.33333 0 0 -1.33333 1210.359 1371.295)"/><path d="M0 0c-1.669-2.78-5.698-9.464-17.02-9.442-12.254.053-20.005 7.931-19.945 20.532.053 12.035 7.766 20.366 18.825 20.312 13.103-.03 16.238-7.608 17.666-10.659l-7.743-4.482c-2.014 4.556-4.668 7.211-9.262 7.211-5.909.029-9.435-4.556-9.435-12.466 0-7.742 3.579-12.246 9.894-12.246 5.668-.029 8.427 4.639 9.487 6.548z" clip-path="url(#clipPath195)" style="fill:#fff;fill-opacity:1;fill-rule:nonzero;stroke:none" transform="matrix(1.33333 0 0 -1.33333 793.973 1443.677)"/><path d="m0 0-.098-24.185c0-5.149 2.248-7.615 6.916-7.615 5.037-.076 7.428 2.466 7.428 7.668l.105 24.027h9.548l-.136-26.787c0-8.697-5.698-13.132-16.945-13.05-11.247.113-16.441 4.48-16.366 13.179L-9.518 0Z" clip-path="url(#clipPath197)" style="fill:#fff;fill-opacity:1;fill-rule:nonzero;stroke:none" transform="matrix(1.33333 0 0 -1.33333 830.43 1402.408)"/><path d="m0 0 26.944-.113-1.436-7.081-16.065.082v-8.06l14.742-.029-.022-7.104-14.72.074-.053-9.382 16.411-.06 1.459-7.082-27.418.053z" clip-path="url(#clipPath199)" style="fill:#fff;fill-opacity:1;fill-rule:nonzero;stroke:none" transform="matrix(1.33333 0 0 -1.33333 888.818 1403.18)"/><path d="m0 0 11.225-.084 13.577-22.703.029 22.674 9.225-.022-.158-38.62H23.449L9.105-14.615l-.053-24.109-9.179.022z" clip-path="url(#clipPath201)" style="fill:#fff;fill-opacity:1;fill-rule:nonzero;stroke:none" transform="matrix(1.33333 0 0 -1.33333 950.374 1403.18)"/><path d="M0 0c-1.646-2.834-5.675-9.495-17.028-9.495-12.275.082-19.974 7.984-19.943 20.532.051 12.035 7.719 20.394 18.854 20.343 13.051-.061 16.208-7.639 17.666-10.668l-7.826-4.504c-1.909 4.556-4.669 7.211-9.224 7.211-5.893.029-9.367-4.587-9.473-12.436.053-7.772 3.609-12.276 9.917-12.276 5.676-.06 8.435 4.662 9.547 6.517z" clip-path="url(#clipPath203)" style="fill:#fff;fill-opacity:1;fill-rule:nonzero;stroke:none" transform="matrix(1.33333 0 0 -1.33333 1071.46 1443.606)"/><path d="m0 0-5.54-15.562 10.848-.06zm-6.127 8.203 12.149-.084 13.817-38.671-9.419.031-2.489 7.479H-8.06l-2.6-7.428h-9.443z" clip-path="url(#clipPath205)" style="fill:#fff;fill-opacity:1;fill-rule:nonzero;stroke:none" transform="matrix(1.33333 0 0 -1.33333 1118.592 1414.117)"/><path d="M0 0v-548.251c0-88.785-73.284-144.139-179.074-174.638-98.265-28.327-128.975-62.91-143.35-83.38l-.24-.617a.5.5 0 0 0-.076.135c-.052-.022-.082-.104-.104-.135l-.211.617c-14.381 20.47-45.115 55.053-143.38 83.38-105.764 30.499-179.07 85.853-179.07 174.638V0l-.184.451H.158Zm125.653 157.589h-897.055l.244-.64v-761.635c0-123.406 101.84-200.283 248.791-242.669 136.508-39.378 179.202-87.356 199.147-115.841l.323-.88c.053.083.105.136.157.21.023-.074.076-.127.106-.21l.345.88c19.915 28.485 62.639 76.463 199.117 115.841 146.958 42.386 248.825 119.263 248.825 242.669v761.635l.21.64z" clip-path="url(#clipPath207)" style="fill:#0e833b;fill-opacity:1;fill-rule:nonzero;stroke:none" transform="matrix(1.33333 0 0 -1.33333 1375.201 530.353)"/><path d="M0 0c-3.128-5.12-10.503-17.427-31.289-17.291-22.598.052-36.657 14.585-36.604 37.634.052 22.17 14.193 37.424 34.581 37.371C-9.39 57.609-3.548 43.708-.902 38.085l-14.322-8.247c-3.631 8.352-8.54 13.179-16.967 13.262-10.796.022-17.246-8.406-17.299-22.81-.053-14.291 6.578-22.568 18.141-22.621 10.367-.052 15.464 8.593 17.456 12.043z" clip-path="url(#clipPath209)" style="fill:#fff;fill-opacity:1;fill-rule:nonzero;stroke:none" transform="matrix(1.33333 0 0 -1.33333 806.564 445.842)"/><path d="m0 0 17.403-.023-.217-56.917 32.68-.106-.053-14.186-50.076.181z" clip-path="url(#clipPath211)" style="fill:#fff;fill-opacity:1;fill-rule:nonzero;stroke:none" transform="matrix(1.33333 0 0 -1.33333 850.338 371.476)"/><path d="m0 0-.158-44.475c-.031-9.255 4.164-13.924 12.757-13.924 9.12-.03 13.524 4.564 13.578 14.111l.188 44.182 17.501-.052-.157-49.166c0-15.999-10.533-24.141-31.132-23.975-20.666.158-30.206 8.195-30.161 24.185L-17.419.03z" clip-path="url(#clipPath213)" style="fill:#fff;fill-opacity:1;fill-rule:nonzero;stroke:none" transform="matrix(1.33333 0 0 -1.33333 981.569 371.867)"/><path d="m0 0-.053-17.456 17.614-.03c6.549-.075 10.134 2.871 10.134 8.307C27.718-3.029 23.501-.06 14.803 0Zm.06 27.794V12.991l15.938-.053c7.209 0 11.006 2.655 11.029 7.743.029 4.353-3.924 7.007-10.684 7.082zm-17.457 12.855 36.492-.075c9.15-.053 15.434-1.857 19.576-5.917 3.128-2.939 4.804-6.998 4.804-11.269-.082-11.269-10.742-14.426-17.163-16.284 5.383-1.112 7.586-1.909 10.555-3.608 5.488-3.158 9.202-8.089 9.15-14.983 0-11.322-9.969-19.065-24.396-19.065l-39.227.15z" clip-path="url(#clipPath215)" style="fill:#fff;fill-opacity:1;fill-rule:nonzero;stroke:none" transform="matrix(1.33333 0 0 -1.33333 1112.368 426.457)"/><path d="M0 0c-95.422-27.531-125.313-61.083-139.237-80.975l-.24-.631c-.023.022-.076.104-.098.127-.03-.023-.06-.105-.082-.127l-.211.631C-153.821-61.083-183.682-27.531-279.105 0c-87.147 25.108-151.466 67.599-169.046 132.524h617.25C151.514 67.599 87.095 25.108 0 0m-453.034 702.568h627.095l-.158-.42V169.624c0-9.015-.851-17.69-2.362-26.065h-622.214a143 143 0 0 0-1.778 12.939c-.369 4.3-.583 8.645-.583 13.126v532.524l-.184.42zm636.221 11.593h-645.663l.158-.481V165.458c0-88.784 73.306-144.139 179.07-174.637 98.265-28.327 128.999-62.91 143.38-83.38l.211-.617c.022.03.052.113.082.158.022-.045.075-.128.098-.158l.24.617c14.375 20.47 45.084 55.053 143.35 83.38 105.79 30.498 179.074 85.853 179.074 174.637V713.68l.158.481z" clip-path="url(#clipPath217)" style="fill:#1e1f1d;fill-opacity:1;fill-rule:nonzero;stroke:none" transform="matrix(1.33333 0 0 -1.33333 1130.952 1481.966)"/><path d="m0 0-13.096-45.219c-1.068-3.901-3.374-7.082-6.368-9.015-2.684-1.759-5.593-2.255-8.277-1.488l-21.35 6.684a8.85 8.85 0 0 0-3.842 2.413c-3.315 3.397-4.428 9.179-2.864 14.668l13.073 45.241c1.113 3.872 3.421 7.082 6.39 9.044 2.677 1.752 5.624 2.226 8.277 1.406l21.322-6.601a9.3 9.3 0 0 0 2.255-1.089l3.053-3.211C.744 9.39 1.302 4.616 0 0m-72.291-102.851-1.383 1.007c-6.098 4.429-13.63 5.751-21.216 3.85-7.187-1.835-13.606-6.526-18.035-13.074l-6.473-9.653c-15.434-3.609-30.921-4.277-35.536 12.57 2.067 10.578 13.336 11.984 18.35 19.043 4.511 6.496 2.12 15.456 9.946 19.064 2.361-8.833 6.391-25.62 18.224-14.35-5.549 5.277-3.398 12.359.022 19.125-1.669 10.262-9.57 13.471-12.54 22.357 4.474-.398 5.963 2.782 11.24 1.534-7.48 8.465-2.383 24.14-11.134 28.778-4.03-1.638.316-6.871-.083-9.622-7.48-1.7-10.366 14.448-23.846 11.217-8.217 19.358-36.492 16.2-61.925 16.147-.819 3.579 1.624 10.744 2.865 12.683 1.406 2.383 6.977 3.767 9.893 6.36 10.796 9.976 28.538 31.959 39.574 38.138 11.029 6.104 28.643-.451 30.973 14.164 8.593-.211 11.931-2.151 19.735-.053-.03-.105-.083-.188-.083-.368 2.383 1.082 4.541 2.435 6.706 3.976.481 4.661 1.12 9.285 1.864 13.946 4.826-1.481 9.413-3.233 11.247-8.006 3.548 1.27 2.007 8.382 4.292 11.111 1.271.211 2.068-.188 2.519-.955 4.217-.241 8.352-1.405 12.57-1.992 2.947 4.669 7.773 7.48 11.645 4.984v.804c2.33-3.503 5.3-6.472 8.728-8.728 1.744-1.165 3.578-2.044 5.436-2.759l15.697-6.502 3.555-16.675-.27-1.3-3.917-18.412-15.705-6.465c-1.857-.692-3.661-1.624-5.435-2.759-6.285-4.083-10.953-10.608-13.186-18.298l-13.074-45.251c-3.263-11.373-.661-23.312 6.872-31.078 2.969-3.105 6.525-5.329 10.524-6.555l1.226-.421zm8.961-44.213-26.049-38.693c-2.225-3.285-5.353-5.647-8.826-6.549-3.052-.744-5.992-.293-8.247 1.353l-18.306 13.262c-.684.473-1.271 1.082-1.797 1.744l-1.909 4.038c-.587 2.331-.511 4.953.18 7.555.504 1.751 1.249 3.504 2.361 5.066l6.315 9.413 2.97 4.406 6.157 9.096 4.262 6.421 4.353 6.442 1.992 2.969c2.226 3.293 5.352 5.593 8.803 6.473 3.076.82 5.992.316 8.27-1.331l18.306-13.2c1.218-.902 2.173-2.097 2.917-3.557 2.12-4.353 1.428-10.186-1.752-14.908m-71.502 3.451-2.496-3.736-1.638-2.444c-1.166-1.751-2.181-3.524-2.977-5.359-1.692-.421-2.857-2.09-4.767-3.978-3.586 1.249-4.879 5.15-4.142 11.195 4.247.105 9.254.871 8.352-4.773 5.067 7.502-9.811 10.313-11.112 2.6.64 9.173-7.269 25.192-18.35 14.983-4.24 1.909 1.541 5.458.052 9.518-6.127-5.142-10.074-4.136-16.862.135 3.653 6.946-3.188 8.247-7.059 11.141 1.428 9.676 18.403 16.862 21.644 24.395a32 32 0 0 0-.429 4.113c-3.924-4.931-10.021-15.435-19.727-10.984 2.226 5.015 8.428-2.037 9.864 1.512-.158 4.09-2.038 6.239-5.676 6.397.954 1.406 1.752 2.864.052 3.151 2.068 2.526 5.541 3.344 9.871 3.186-3.398 4.031 2.226 2.813 2.857 1.587 3.127.88-1.691 2.549 1.436 4.773.631 0 1.323-.127 2.015 0 .052.504.105 1.009.18 1.542.985 7.48 2.421 15.757-1.609 22.516-.533.88-1.173 1.805-1.699 2.811a10 10 0 0 0-1.669.212c.233.428.504.766.684 1.195-.609.902-1.187 1.751-1.773 2.653-.106-.24-.264-.398-.324-.691-1.113.88-2.256 1.729-4.24 1.646.692.849 1.541 1.458 2.518 1.932-1.135 1.751-2.307 3.428-3.473 5.173-3.022 4.48-5.939 9.126-8.938 13.636-.82.527-1.669 1.407-2.309 3.496-.684.933-1.533 1.909-2.382 2.789-1.008.504-2.12 1.64-3.241 3.075-2.007 1.669-4.188 3.18-6.465 4.744-4.458 3 .849 5.842 3.548 5.706 9.864-.106 19.757-.534 29.681-.534 5.194 0 10.134-.21 14.982-2.195.106.158.158.232.211.316.639-.084.902-.451.902-.775.158-.104.428-.127.617-.233.894-.451 1.827-1.038 2.729-1.647.871-.051 1.751-.473 2.759-2.12 2.037-1.781 3.976-3.66 6.127-5.359a23.5 23.5 0 0 1 4.263-2.571c.428.315 1.119.368 2.285-.105-.106-.264-.211-.527-.316-.767 2.834-1.144 5.729-2.015 8.668-3.264 2.947-1.195 5.33-4.088 5.947-7.668.022-.209.045-.451.074-.631 2.204-.345 3.609-3.773 3.843-.452 4.382-2.044-1.504-4.803-2.783-1.593-.262-.369-.533-.744-.796-1.195.052-4.564-1.06-9.255-2.654-13.682.158-.451.324-.744.586-1.037 1.91-1.985.692-1.482-1.24-.767a77 77 0 0 0-3.932-8.406h-.022c-2.023-8.968-3.428-18.306-8.172-25.914-1.752-2.864-3.82-5.278-6.473-6.893 0-.294-.053-.609-.053-.933-.158.158-.316.451-.474.609-.451-.181-.849-.474-1.322-.587-6.533-2.458-10.698-11.426-11.352-18.666 0-.127-.083-.233-.083-.293 2.098-7.293 7.292-15.322 15.937-19.359 4.564-2.067 11.3-2.142 17.082-3.127zm-70.524 126.428c-1.399-.03-1.083-1.962-1.376-3.157 3.105-5.677-3.158 6.022-2.835 1.615-2.465 4.03-2.337 1.091-5.623 3.18 1.324 2.18 6.789.398 11.239-1.615-.255-1.858-1.405-.925-1.405-.023m123.435 157.904c-.986-.105-1.985.03-2.917.316a5.8 5.8 0 0 0-1.436.586 3.45 3.45 0 0 0-1.406.661v.03c-.022-.104-.045-.135-.075-.158-.06-.158-.136-.262-.24-.428-.189.451-.369.85-.58 1.173-.3.473-.586.789-.849 1.03-.053.052-.113.083-.165.135-.075.052-.181.128-.264.158a.6.6 0 0 1-.263.135c-.105.023-.157.075-.293.075h-.075c-2.128.211-4.353-3.713-7.804-4.217-.316-.053-.639-.075-1.007-.053.616 8.435 4.586 13.021 4.405 22.253a20 20 0 0 1 1.692-.955c.113-.052.165-.052.248-.105.526-.24 1.03-.428 1.563-.608.076-.031.158-.083.234-.083.503-.158.984-.264 1.458-.369.083 0 .158 0 .241-.03.473-.075.925-.075 1.353-.136h.21c.451.061.88.061 1.331.113 0 .023.053.023.105.053.422.053.85.158 1.241.263 0 .031.03.031.052.031.406.127.827.315 1.196.503.03.023.083.052.135.052.369.211.714.399 1.06.64.053.045.135.045.18.097.324.219.64.451.963.692.075.082.158.158.233.21.293.219.564.481.849.775.083.075.188.158.293.263.211.241.422.451.639.661.158.189.316.347.474.534.113.128.211.264.346.368 1.406 1.647 2.624 3.451 3.849 5.015.399.556.797 1.06 1.165 1.511a87 87 0 0 0-1.405-3.954c1.669 2.308 3.157 4.668 5.014 6.765-2.023-6.209-2.18-13.178-.241-19.996l.933-3.18a2.8 2.8 0 0 0-.429-.534c-.105-.158-.188-.294-.293-.422a6 6 0 0 1-.556-.796c-2.361-3.345-4.293-7.217-8.09-8.969-.052-.105-.21-.24-.503-.21v-.03c-.264-.076-.526-.181-.85-.286a5 5 0 0 0-.691-.211c.06.233.188.316.24.527-.451.052-.872.052-1.27.105m-105.769 76.17c-4.511-6.443-15.486-5.142-22.545-4.721v7.954c8.097-.474 16.261-.737 22.545-3.233M-302.554-45.534c5.04 1.134 10.13.818 15.434-1.573-.951-7.156.293-8.509-4.266-12.78-5.917 2.332-9.683 7.135-11.168 14.353m78.403 8.322c2.436-.4 4.052-1.595 3.203-5.384 3.21.902-1.669 2.444 1.458 4.775.376 1.669 3.398-11.615-2.864-12.728 0-1.594 1.699-1.249 2.812-1.616-6.473-20.608-34.635-42.807-14.322-65.218 4.353 1.939 5.518 1.135 8.487-1.624-1.322-3.39-4.344-4.691-4.292-9.547-5.939 4.142-12.735-10.157-19.734-4.744 1.27 1.782 3.18-.135 5.623 3.135-2.526 4.984-4.27.894-9.818 1.669-2.255 11.164-6.466 20.177-11.164 28.718-2.97-.557.188-6.977 1.357-8.006-6.74-14.961-25.2-16.652-42.329-19.757.022-.083.022-.135.053-.166 1.029-2.782 2.439-7.292 1.164-10.292.11-.525.162-.925.211-1.503-.315.18-.579.211-.819.338-1.139-1.745-2.624-2.436-4.428-3.473-3.237-1.804-7.349-2.699-9.39-7.42-2.015-4.751-2.759-6.947-2.067-11.54.688-4.616 11.723-13.39 11.881-13.419 5.248-1.429 10.875-2.706 16.07-2.759 4.62-.023 9.018-.534 13.475-1.962 4.932-1.616 9.729-10.502 5.357-14.691a13.6 13.6 0 0 1-.823 3.602c-2.68 6.525-10.687 9.442-11.007 9.577l-.53-1.962c.079-.135 7.481-2.782 9.815-8.51.53-1.309.715-2.654.636-4.06-2.019-1.3-3.714-2.391-5.357-3.451.023 1.805-.319 3.473-1.06 4.933-2.868 5.706-10.16 6.789-10.427 6.871l-.237-2.151c.053 0 6.63-.976 9.018-5.751.74-1.563.954-3.293.74-5.232a87 87 0 0 1-4.345-3.232c-1.752-1.406-4.297-3.602-6.977-5.435 0 .029-.026.029-.026.029s0-.029-.053-.113a50 50 0 0 0-3.104-1.957l.026.025c3.18 3.42 4.563 6.713 4.03 9.811-1.087 6.713-10.609 9.6-10.924 9.735l-.533-2.067c.056 0 8.753-2.706 9.603-8.088.53-3.129-1.699-6.737-6.499-10.744l.132-.158c-.267-.03-.527-.03-.793-.053-4.936-.082-8.966 2.143-12.942 4.962-2.391 5.593-2.706 14.134-2.706 14.134l-6.978-7.21-.21-.164a4 4 0 0 0-.079.397c-1.116 4.827-1.06 9.864-1.06 9.864l-5.995-6.518c-.316.263-.692.451-.955.737-5.544 5.359-3.022 14.96-2.439 22.629.635-.271 1.27-.451 1.909-.451 3.504-.031 6.258 4.082 6.258 9.202 0 3.766-1.514 6.975-3.661 8.434.481 2.834 1.59 7.661 10.664 17.922 3.444 3.82 4.774 7.113 3.924 9.684-1.195 3.578-5.886 4.404-6.924 4.48.031.24.08.398.133.639-.478.187-.925.316-1.376.609-.508 12.915 3.657 31.643 23.974 23.786 1.913.482 1.221 3.955 1.432 6.315-4.187 5.224-19.997 4.616-14.002 16.021 11.615-16.314 19.621-5.466 28.11-1.699-4.35 4.112-17.025-1.114-16.867 8.006 13.551-6.623 18.351 8.435 23.974 15.892-4.187-1.782-3.548 11.48 1.489 12.728 0 3.18-3.819 2.038-2.812 6.391-4.349-2.489-11.75-1.511-14.058-6.338-1.007 5.036.586 2.15-5.619 3.181-21.674 3.795-33.632 33.446-18.942 58.427-.052.316 0 .639.293.955 1.779 1.669 1.989 5.624 2.575 7.984.609 2.151 1.538 4.113 2.598 5.969 1.537 2.729 2.653 5.406 3.555 8.112.106.691.316 1.331.553 1.857 1.037 3.556 1.673 7.269 2.286 11.351.345 2.068.819 4.083 1.721 5.887-.929 2.444.582 2.729 2.917 2.444.692.21 1.515.21 2.071.391 1.748.616 5.541 2.285 7.556.931.082.264.131.482.161.828.293-.564.451-1.09.609-1.624 2.12-3.503 1.06-9.863 1.034-13.788-.237-5.466-.662-10.825-2.334-15.967a19 19 0 0 0-3.448-6.391c-.079-.136-.135-.346-.236-.481-.057.105-.057.105-.057.135l-1.537-1.698h.211c-.605-2.12-1.696-2.436-2.861-2.332-.158-.135-.319-.262-.477-.397-4.617-3.399-10.029-3.053-14.799-5.706-8.01-14.555-1.699-34.184 3.924-44.077 8.037 1.007 17.93 1.269 23.895-4.88 8.567 6.262 18.96 10.344 22.621 22.224.534.051 1.064.051 1.542.051.424.693.849 1.46 1.214 2.233.083.264.165.473.376.609 1.112 2.068 2.285 3.924 3.451 5.856.104.828.262 1.647.473 2.422.368.127.797.18 1.06.262 1.06 1.775 2.098 3.556 3.127 5.278.061.293.061.504.083.797.136-.053.241 0 .346.023 2.067 3.638 3.924 7.239 5.518 11.058-.06 0-.135.03-.241.053.023 1.09.451 1.646 1.031 2.067 3.134 8.992 3.879 19.577 8.464 27.718.189.264.451.399.715.451 1.909 4.03 3.293 8.33 4.743 12.57-.233.053-.42.166-.713.166.375.842.796 1.293 1.33 1.533 1.135 3.233 2.413 6.42 4.052 9.39.692 2.014 1.677 3.556 2.999 4.797 2.654 3.954 4.985 7.427 6.737 12.231-.264 1.586-.264 2.255 1.405 3.443.609 1.406 1.249 2.811 1.782 4.322-1.489 3.316-1.541 8.308-2.653 12.014-2.812-.052-1.858-4.398-5.654-3.21-.391 4.248 1.992 5.233 5.654 4.804-3.023 3.947-8.203 5.571-11.247 9.57 2.916 4.143 3.714 3.376 4.292 7.939 5.654-.586 5.676 5.3 9.871 6.36-6.051 6.525-10.713-11.036-15.569-11.112-7.397-.082-5.857 11.698-14.028 14.405 3.819 7.578 3.608 12.78 8.51 12.675-1.06 3.579-7.849.661-11.27 1.639 3.549 2.842 1.542 2.097 1.482 7.961-4.609.955-6.601-1.06-9.917-1.541.211 6.337 1.805 9.126 5.699 14.321-.368 3.263-6.232.376-5.593 4.774-4.428-.263-1.857-8.593-7.134-7.923.612 6.284-1.188 15.246 1.511 19.065-4.293 3.209-6.18-9.976-12.728-9.473-5.067 10.931 5.274 14.382 8.54 20.666-5.729 3.18 3.444 7.42 1.432 15.961-1.962-6.706-4.777-19.569-14.08-12.728 9.303 6.631 12.727 24.133 5.728 33.417 3.999 5.037 7.394 10.743 12.754 14.269-.263 1.323-1.488 1.616-1.429 3.232-5.465-9.171-16.024-12.644-16.974-27.019-16.897 18.719 14.159 27.366 14.215 44.581-4.431.714-3.98-4.03-5.676-6.421-2.123.076.741 7.587 1.432 9.579-4.908-3.21.158.683-2.758 1.585.605.294 1.218.64 1.774.986a89 89 0 0 0 3.634 6.998c-.424 0-.744-.052-1.164 0 .661.294 1.326.85 1.962 1.437 2.281 3.759 4.743 7.314 7.314 10.494.639.744 1.248 1.331 1.91 1.804.03.219.06.377.113.481.263.106.526.136.714.136 3.766 2.3 8.195 1.616 12.675 1.271.872-1.143 2.15-3.053 1.992-4.271-.06-.263-.188-.639-.849-.984l-.376-.264c-3.661-1.984-7.105-3.766-5.405-10.953a31 31 0 0 1 1.773-4.984c.933-2.225 1.091-2.548-.503-4.135l-3.21-3.187 1.248-1.617 3.21 3.293c2.518 2.466 2.015 4.082.924 6.548-.473 1.165-1.082 2.601-1.533 4.721-1.323 5.361.631 6.413 4.293 8.435l.368.181c1.331.721 1.782 1.834 1.91 2.631.217 1.533-.527 3.127-1.323 4.397 1.007 0 2.127.053 3.262.083.188.106.316.188.556.346-.022-.158-.052-.218-.105-.346 10.082.421 23.554 2.864 30.763-5.014.188-.135.218-.263.271-.399 2.067-2.037 3.819-4.427 5.458-7.028a7.4 7.4 0 0 1 1.593-.158c.053-.79-.052-1.459-.262-1.962 1.428-2.12 2.991-4.294 4.931-5.571 2.067-1.429 4.248-2.654 6.157-4.135.158-.136.211-.211.315-.316 2.602-.954 4.399-3.022 4.88-6.104 0-.338.023-.744.127-1.166.189.053.429.053.67.106-.188-.316-.346-.662-.512-1.008.219-2.225.406-4.879-.232-6.683.48-1.429.052-2.413-.88-3.105-.023-.399-.075-.85-.128-1.27-1.541-1.091-4.405-2.173-9.337-1.511-9.074 1.218-17.396 3.819-19.945 1.669-2.518-2.203-1.932-6.601-2.014-8.669-.158-1.992 8.908-7.028 17.448-5.044 7.375 1.699 10.458 2.413 12.044.587-.023-.106-.053-.211-.083-.347-.368-2.495-.608-5.036-.955-7.555.512-.932-.473-3.691-.473-3.691-.03-.18-.075-.398-.075-.609-.248-1.541-.587-2.548-1.624-3.631-3.473-3.744-12.653-1.774-16.787-1.406-3.233.211-6.473.188-9.653.421-10.104-21.004 13.848-29.252 31.634-20.291-1.773-3.473 18.968-2.037 25.328-1.616-.977-2.173-3.075-3.022-5.668-3.18.398-4.195 8.299-3.398 4.187-7.984 5.623 1.722 7.209-2.886 16.893-1.669-2.519-6.788-10.345-2.39-14.059-4.751l-.075-6.338c1.113-3.525 4.932-4.029 7.052-6.412-9.916-4.037-19.441 7.953-33.755 4.901 3.255-6.923 20.02 1.541 22.456-9.623-9.916-2.022-10.954-4.856-22.539-3.127 16.021-9.63 30.447 12.247 47.949-.166 1.375 2.121 3.052 3.978 4.879 5.677-.13-.122.263-.451.263-.451s7.826-2.331 13.765-.023c5.969 2.278 8.675 5.564 12.705 5.248 4.06-.399 9.232-2.309 11.721-2.278 2.495.052 1.541 1.323 0 2.225-1.534.872-4.533 4.51-8.428 3.819-3.924-.639-7.082-3.075-9.863-3.977-2.819-.849-6.135-3.127-11.759-3.661-2.518-.21-4.743.052-6.337.263.775 1.007 1.488 2.15 2.391 2.977 1.646 1.428 3.315 2.804 5.037 4.029 4.405 3.263 8.54 7 12.998 10.074.338.323.767.557 1.218.85-.106.188-.21.398-.368.639 4.45 3.684 6.946 5.352 11.562 5.3.316.346.692.639 1.007.954a43.4 43.4 0 0 1 7.797 11.781c1.006 2.278 1.488 4.879 2.014 7.45-1.27.368-.526 1.511.241 1.511.24 1.354-.609 1.512-1.459 1.595-.052.315 1.06.578 2.173.977.158.586.376 1.247.639 1.834-.421.158-.767.233-1.353.369v.315c2.495.271 4.879.88 7.134 1.857.21-.293.421-.609.609-.955 1.675-1.083 3.076-2.626 4.245-4.412-.14-.076-2.869-1.59-1.99-4.023.955-2.489 2.015-3.495 4.985-3.969.376-.06.744-.09 1.06-.135q.314-.802.639-1.669c.631-.113.955-.482.744-2.075.369-1.06.692-2.12.978-3.233-.189-.271-.377-.534-.474-.872-1.466-3.534-2.526-2.548-5.015-3.157-2.495-.587-8.119.631-11.404.045-3.315-.579-3.315-3.654-.031-3.812 3.316-.218 4.376 1.323 11.119.819 6.36-.503 6.15-9.096 5.962-10.419-.579-1.857-1.406-3.661-2.571-5.308a26.6 26.6 0 0 0-4.27-4.774c-5.037 3.241-18.592 11.457-17.502 9.736 0 0 7.713-11.141 6.654-18.141-.632-.668-1.113-1.248-1.113-1.563-2.916-.692-3.661 1.112-5.571 1.616.083.346-1.323.451-1.428 0-.812.194-1.483.608-2.062 1.042l.017.041s-.21 0-.714.217c-.774.264-2.12.873-4.593 2.384-4.082 2.443-3.684 1.856-2.489-1.586 1.195-3.557-.105-14.803-.105-14.803-14.088 6.894-21.508-7.24-35.191-12.653-1.067 14.299-26.418 5.496-37.98 14.488-1.06-4.91 3.894-3.083 2.812-7.984.579 8.269 29.966-1.752 33.785-6.473.954-4.323-2.842-3.241-2.917-6.338 13.682 4.165 21.057 23.05 38.138 15.75-2.338-11.089-4.458-15.675-4.353-23.839 14.96 4.901 34.108-5.465 41.589 9.389l4.961-17.245c-3.263 1.511-7.721 3.503-15.569 4.563 4.345-7.819 18.727-4.398 15.434-20.734-2.97-1.436-4.188-4.826-8.488-4.781-5.886.796-6.42 7.585-11.216 9.608-3.158-4.782-4.06-15.735-11.27-11.142-2.946 4.638-1.781 13.893-11.246 11.164-.03-4.135.504-9.044-1.466-11.059-5.773.316-7.661 5.09-12.645 6.337 2.338-5.307 10.021-4.533 8.383-14.344-10.187-3.45-14.533-6.525-19.788-17.403-6.412-1.564-21.778-2.646-38.694-14.427.136-.737-7.27-5.51-4.961-4.608-4.932-3.293-11.931-8.435-13.946-10.615-1.992-2.226-5.887-6.631-6.052-6.736.113 0-10.871-10.45-11.502-10.796-1.383-1.564-9.556-14.614-10.187-14.659-5.255-9.315-8.54-19.201-9.502-30.448.112-1.571.187-2.706.218-3.022-.106-.165-.263-.294-.451-.451a7 7 0 0 0 0-1.007c-.053-.564-.053-1.12-.053-1.729h.504c-.106-.399-.316-.715-.474-1.113-.03-.662-.03-1.322-.112-2.044.345.428.555.849.586 1.562h2.834c2.676-2.405-2.518-6.676 2.759-7.953-.211-3.157-2.94-3.42-6.067-3.233a6 6 0 0 0 0-.931m-108.632-114.594c2.755 6.337 5.304 12.968 7.052 19.757-.32 1.886-.399 3.953-1.064 5.412.823-.135 1.462-.535 1.966-.902.049.217.104.44.158.661 1.821-.336 5.068-1.191 5.702-3.023.582-1.751-.661-4.352-3.473-7.532-9.176-10.344-10.555-15.54-11.142-18.726-.237.082-.424.158-.684.158-.056 0-.109-.053-.188-.053.448 1.383.981 2.811 1.673 4.248m160.738 418.049c5.045-3.893 8.728-9.224 12.63-14.344-1.857-8.201-16.764-4.721-21.088-1.593 4.248 3.736 8.165 7.796 8.458 15.937m13.923 10.48c0-2.6-.316-6.285 1.812-8.57 6.149-6.601 11.029-13.547 8.585-20.336-2.383-6.848-4.135-6.051-11.667-7.111 6.104.638 8.622 12.224 4.3 18.373-2.571 3.609-4.195 4.94-6.789 7.669-7.164 8.299 3.684 10.795 3.759 9.975m58.88-28.62-26.042 38.695c-2.654 3.924-3.556 8.697-2.549 12.682l1.91 3.976c.534.684 1.112 1.271 1.804 1.752l18.298 13.262c2.256 1.638 5.203 2.142 8.277 1.322 3.451-.879 6.579-3.187 8.804-6.495l26.049-38.723c3.181-4.669 3.864-10.533 1.744-14.878a9.5 9.5 0 0 0-2.916-3.557l-18.299-13.23c-2.278-1.647-5.195-2.12-8.277-1.331-3.443.88-6.578 3.187-8.803 6.525m46.949-73.968c1.105 1.166 2.413 2.015 3.841 2.444l21.373 6.631c2.654.796 5.571.315 8.247-1.437 3.03-1.962 5.277-5.142 6.421-9.014L.609 127.51c1.353-4.608.775-9.39-1.405-12.833l-3.022-3.21a11.7 11.7 0 0 0-2.226-1.09l-21.381-6.601c-2.646-.849-5.593-.346-8.269 1.406-2.151 1.406-3.924 3.451-5.142 5.939a17 17 0 0 0-1.249 3.105l-11.381 39.386-1.639 5.834c-1.624 5.518-.504 11.299 2.812 14.689m-237.052-44.182c-3.977.482-5.146-.316-8.327-.954-4.033-.797-8.22-1.827-12.411-1.647-3.237.135-5.781 2.226-7.721-1.376-.394-.714-.978-4.195-1.59-4.698-2.097-1.669-4.029-1.481-6.473-.767-1.511.429-2.729 2.278-3.048 3.977-1.06 4.698 2.282 10.48 1.349 15.171-.714 3.345-3.631 5.991-4.796 9.149 2.492-.398 5.251-.023 6.446.083 2.052.152 7.395.177 7.662 6.476l.108-.116c.263.06 24.771 2.338 36.544-10.871 8.676-15.916 6.473-23.471 6.315-24.351-.425.963-2.707 2.707-2.947 3.031-2.812 3.548-7.078 6.473-11.111 6.893m-44.16 32.147q.002 2.061.083 4.134c.079.661.898 14.637 3.42 15.224 3.184.692 4.59-7.217 5.966-9.179 4.296-6.15 12.517-7.105 19.095-9.39 7.213-1.323 14.002-3.789 18.569-10.631a72 72 0 0 0 1.327-2.067c-10.837 7.603-27.511 7.831-33.316 7.622-1.208 8.956-10.673 6.133-15.144 4.287M5.886 28.666-4.931 40.153 0 63.436l.744.135-5.036 23.839L6.526 98.845c.88.714 1.729 1.458 2.54 2.277 7.488 7.774 10.112 19.705 6.797 31.139l-13.021 45.22c-2.256 7.691-6.924 14.216-13.209 18.298-6.548 4.301-14.088 5.465-21.14 3.286l-23.095 43.686a25.3 25.3 0 0 1 7.871 9.517c4.774 9.841 3.662 22.012-2.894 31.77l-26.064 38.724c-4.458 6.579-10.871 11.247-18.035 13.104-2.015.503-4.03.796-5.992.819l-16.87 1.037-4.797 8.165h-23.951l12.6-19.411-6.819-14.374a23.5 23.5 0 0 1-1.699-3c-4.773-9.811-3.684-22.011 2.895-31.747l26.063-38.717c4.436-6.631 10.826-11.269 18.036-13.126.586-.135 1.143-.24 1.729-.293-1.248-4.405-1.887-9.548-2.233-14.99-3.736-3.203-8.33-5.436-12.697-7.925-11.382-7.217-24.93-32.356-38.115-22.17 8.457 4.827 15.862 10.713 14.216 26.997-7.135-1.511-9.308-8.593-19.757-6.262 1.135 9.202-1.722 13.952-4.188 19.148-4.405.217-4.827-4.136-5.623-7.954-3.954.368-9.547 1.278-16.922 1.594-1.06 4.217-1.91 13.095.052 20.734 21.162-8.195 38.266.428 35.326 20.636-1.646 10.871-13.05 13.232-11.194 27.102-4.879-.158-15.065 0-16.922-7.902-17.923 16.367-30.177 39.04-64.654 36.785-.744 5.654 5.015 3.954 4.293 9.525-13.262-.902-27.132-1.173-29.65-14.164-4.533-.345-3.394 5.676-5.62 7.977-6.845-1.744-4.165-14.712-1.432-19.14-5.067-2.308-11.247 1.721-18.329 1.669-2.65-3.82.451-11.247 4.218-12.781-.425-3.714-6.206-.902-7.104.046-1.571-8.668 3.337-10.021 4.157-15.938-4.424 1.353-5.304-1.406-6.999-3.181-.474-6.893 7.8-3.954 6.977-11.193-12.097-11.059-5.146-31.507 6.92-36.627-1.139-10.179-9.995-.842-12.705 1.646-3.763-11.216 1.567-20.027 9.791-22.335-5.066-13.735 3.899-19.539 2.783-30.282 4.296-1.112 5.093 1.617 8.43 1.594-1.06-11.773 6.21-14.216 5.549-25.546 5.221-.074 5.536 5.383 12.701 3.188-.053-14.803 8.54-20.028 15.382-27.184-.745-3.925-2.699-6.473-4.271-9.495 1.887-7.856 8.886-11.405 14.028-11.194-21.748-38.033-24.763-98.709-65.134-119.292 2.334 7.457.482 12.517-4.139 15.967-6.153.525-2.781-9.653-5.728-12.705-15.912-2.969-14.69 23.395-8.352 31.852 3.74 1.669 8.672 1.88 14.134 1.542 6.261 11.502 13.58 21.899 11.299 43.017 26.654 28.455 20.102 95.551-13.631 109.895-.345 5.842 3.978 6.21 4.218 11.171-5.995 4.481-9.893-5.119-14.058-7.983-3.315 2.149-9.736.766-12.675 3.315-5.597 8.089-.346 14.374 2.891 20.659-6.845 11.352-18.302 7.323-22.28-2.594v-5.683c.478-2.226 1.143-4.766 1.064-7.608-.108-4.165-.534-8.089-1.064-11.698v-25.621c1.324-2.571 3.421-4.984 6.605-7.292-1.353-1.165-2.146-2.834-2.838-4.744-1.643-.503-2.868-.503-3.767-.217v-14.344c9.864-5.068 24.4-4.91 30.5 4.908 5.357-4.511 6.499-13.9 13.95-15.968 6.897 3.978-4.244 11.992 1.541 19.096 21.692-1.323 11.637-41.536 1.217-47.791-.691 4.188 7.928 13.999 2.865 23.922-6.101-9.021-14.48-15.435-19.761-25.485-6.205-.083-12.464-.241-12.648 6.442 4.454.797 4.988-2.917 9.867-1.616.77 10.42-1.699 13.284-7.003 14.397-19.227 3.954-12.705-41.424 5.488-41.454-8.668-4.375-10.766 3.639-19.704 3.21-.32-11.457 5.729-15.749 14.058-17.554-16.288-26.094-17.452-75.351 15.167-81.26 2.443-15.096-2.146-15.412-4.267-27.078-6.498 2.278-8.539 9.464-15.463 11.215-4.77.106-6.154-3.682-8.462-6.389 2.256-4.88 10.161-3.264 12.649-8.006-2.383-3.474-2.33-14.277 1.327-15.886-12.359-4.037-9.649-25.229-19.835-31.778-1.271-7.209 2.334-9.013 2.811-14.321-1.726 0-3.131.398-4.297.984v-51.879c0-4.482.215-8.827.583-13.126 2.439-1.723 5.571-3.158 9.097-4.511 7.029-2.647 16.787-13.21 21.087-14.397 4.402-1.271 8.747-.293 12.728.555.477-.533.823-1.088 1.007-1.675 1.087-3.202 3.289.827 3.237 2.495 3.341.452 6.206.054 8.326-3.097 4.059.233 2.623 6.706 2.89 11.164 4.958-.271 6.289-4.511 11.273-4.833 1.275 1.066 1.323 6.344 1.433 12.787 5.83-.504 5.514 2.045 9.836-.053-10.314 9.842-9.57 28.004-23.839 30.343-4.243.713-10.025-4.166-15.49-3.158-7.792 1.458-25.402 14.322-16.814 24.004 5.623.526 3.661-7.533 7.003-9.631 7.108 4.189 9.281 13.954 8.563 27.05 18.17-2.038 25.782 7.879 36.63 14.217-.217-7.082 3.444-9.895 4.165-15.917-3.796-4.029-7.405 1.015-12.709 0 9.236-29.86 36.443 9.895 50.712-1.691.263-6.682-11.171-.052-9.863-7.984 6.044-6.736 15.697-.187 18.298 6.337-1.699 11.195-7.639 17.744-4.112 27.081-1.353 5.863-6.338 7.668-9.788 11.215-1.271-1.247-1.218-5.119-1.482-11.186-8.705-.827-7.585 9.466-11.247 14.344.316 1.857 1.482.932 1.482 0 9.231 19.305 28.221 36.04 24.162 65.187 8.299 1.993 15.088-11.457 21.035-17.501-.85-9.864.526-14.133-8.541-15.915 3.556-2.94 5.413.105 11.3-1.64-5.887-2.42-9.232-7.615-8.488-17.479-8.938-.051-8.54-.879-15.517-3.157.873-1.436 1.669-2.811-.052-3.158 5.623-1.195.398-1.931 7.082-3.231-4.564-7.962 4.638-6.557 8.382-9.602-4.428-8.435-6.157-17.637 5.593-19.177-.556-4.639-4.856-5.037-7.082-7.848-.375-6.157 10.315-5.068 5.624-11.195 3.42 1.384 8.119 1.407 8.435 6.315 2.781-3.022 5.991-11.194 4.217-14.352 4.857 1.437 5.616 7.481 11.269 7.933 1.94-6.947-3.397-5.729-4.27-9.549 4.902.849 7.481 4.323 11.27 6.391 1.751-11.299 10.239-14.983 12.599-25.561 2.203.632 3.527 2.3 4.797 4.029-.368-5.329.534-10.607 2.871-15.381a25 25 0 0 1 1.669-2.924l6.842-14.449-10.608-16.337h23.734l3.029 5.112 16.863 1.068c1.962.053 3.977.285 5.991.842 7.165 1.834 13.586 6.473 18.036 13.11l26.049 38.665c6.57 9.758 7.691 21.959 2.909 31.77-1.849 3.901-4.533 7.059-7.871 9.525l23.102 43.678c7.052-2.171 14.586-.984 21.133 3.264C-4.72-64.209-.052-57.662 2.204-49.94l13.05 45.189c3.285 11.435.662 23.366-6.842 31.139a28 28 0 0 1-2.526 2.278" clip-path="url(#clipPath219)" style="fill:#1e1f1d;fill-opacity:1;fill-rule:nonzero;stroke:none" transform="matrix(1.33333 0 0 -1.33333 979.674 1006.39)"/><path d="M950.533 1014.992h39.866V443.007h-39.866z" clip-path="url(#clipPath221)" style="fill:#e52521;fill-opacity:1;fill-rule:nonzero;stroke:none" transform="matrix(1.33333 0 0 -1.33333 0 1889.76)"/><path d="M955.306 447.571h30.312v562.805h-30.312zm39.889-9.202h-49.429v581.186h49.429z" clip-path="url(#clipPath223)" style="fill:#1e1f1d;fill-opacity:1;fill-rule:nonzero;stroke:none" transform="matrix(1.33333 0 0 -1.33333 0 1889.76)"/><path d="M870.993 1014.992h39.92V443.007h-39.92z" clip-path="url(#clipPath225)" style="fill:#e52521;fill-opacity:1;fill-rule:nonzero;stroke:none" transform="matrix(1.33333 0 0 -1.33333 0 1889.76)"/><path d="M875.797 447.571h30.342v562.805h-30.342zm39.882-9.202H866.25v581.186h49.429z" clip-path="url(#clipPath227)" style="fill:#1e1f1d;fill-opacity:1;fill-rule:nonzero;stroke:none" transform="matrix(1.33333 0 0 -1.33333 0 1889.76)"/><path d="M791.515 1014.992h39.891V443.007h-39.891z" clip-path="url(#clipPath229)" style="fill:#e52521;fill-opacity:1;fill-rule:nonzero;stroke:none" transform="matrix(1.33333 0 0 -1.33333 0 1889.76)"/><path d="M796.29 447.571h30.334v562.805H796.29Zm39.88-9.202h-49.429v581.186h49.429z" clip-path="url(#clipPath231)" style="fill:#1e1f1d;fill-opacity:1;fill-rule:nonzero;stroke:none" transform="matrix(1.33333 0 0 -1.33333 0 1889.76)"/><path d="M711.999 1014.992h39.891V443.007h-39.891z" clip-path="url(#clipPath233)" style="fill:#e52521;fill-opacity:1;fill-rule:nonzero;stroke:none" transform="matrix(1.33333 0 0 -1.33333 0 1889.76)"/><path d="M716.774 447.571h30.341v562.805h-30.341zm39.889-9.202h-49.43v581.186h49.43z" clip-path="url(#clipPath235)" style="fill:#1e1f1d;fill-opacity:1;fill-rule:nonzero;stroke:none" transform="matrix(1.33333 0 0 -1.33333 0 1889.76)"/><path d="m0 0 .824-1.302a85.3 85.3 0 0 1-7.586 33.795 88 88 0 0 1-4.062 7.874l-.453-4.455z" clip-path="url(#clipPath237)" style="fill:#fff;fill-opacity:1;fill-rule:nonzero;stroke:none" transform="matrix(1.33333 0 0 -1.33333 1267.527 753.84)"/><path d="m0 0-3.751-5.402C12.025-.023 26.034 9.775 36.378 22.805l-4.18-1.244z" clip-path="url(#clipPath239)" style="fill:#fff;fill-opacity:1;fill-rule:nonzero;stroke:none" transform="matrix(1.33333 0 0 -1.33333 1195.627 858.26)"/><path d="M0 0c-5.624 0-11.148-.611-16.543-1.67l2.672-1.316 41.98-2.917 2.271.389-.032.014C20.657-1.85 10.449 0 0 0" clip-path="url(#clipPath241)" style="fill:#fff;fill-opacity:1;fill-rule:nonzero;stroke:none" transform="matrix(1.33333 0 0 -1.33333 1153.908 643.067)"/><path d="m0 0-6.233 1.66c9.879-14.592 23.922-25.809 40.759-32.141.718-.269 1.453-.458 2.175-.707l-3.728 6.04z" clip-path="url(#clipPath243)" style="fill:#fff;fill-opacity:1;fill-rule:nonzero;stroke:none" transform="matrix(1.33333 0 0 -1.33333 1067.122 823.636)"/><path d="m0 0-.256 9.165C-6.45 1.883-11.509-6.441-14.988-15.645c-3.259-8.569-5.024-17.446-5.442-26.352l6.16 6.589z" clip-path="url(#clipPath245)" style="fill:#fff;fill-opacity:1;fill-rule:nonzero;stroke:none" transform="matrix(1.33333 0 0 -1.33333 1066.35 696.055)"/><path d="m0 0 27.825 7.45 12.517 32.912-16.337 23.9-26.898-5.307-14.555-36.259Z" clip-path="url(#clipPath247)" style="fill:#fff;fill-opacity:1;fill-rule:nonzero;stroke:none" transform="matrix(1.33333 0 0 -1.33333 1077.485 775.372)"/><path d="m0 0-2.331-28.748 24.583-9.863L52.939-18.14l1.692 27.319-25.402 9.758z" clip-path="url(#clipPath249)" style="fill:#fff;fill-opacity:1;fill-rule:nonzero;stroke:none" transform="matrix(1.33333 0 0 -1.33333 1161.646 800.943)"/><path d="m0 0 18.636 22.441L4.502 47.046l-37.979 2.655-17.155-23.555 16.974-24.499Z" clip-path="url(#clipPath251)" style="fill:#fff;fill-opacity:1;fill-rule:nonzero;stroke:none" transform="matrix(1.33333 0 0 -1.33333 1183.508 720.813)"/><path d="m0 0 26.472-10.157L43.469 11.54l-9.977 31.876L9.54 54.932-9.05 32.597Z" clip-path="url(#clipPath253)" style="fill:#fff;fill-opacity:1;fill-rule:nonzero;stroke:none" transform="matrix(1.33333 0 0 -1.33333 1201.68 768.306)"/><path d="m0 0-2.706-28.884 28.62-21.794 28.109 9.119 2.18 27.102L28.695 7.45Z" clip-path="url(#clipPath255)" style="fill:#fff;fill-opacity:1;fill-rule:nonzero;stroke:none" transform="matrix(1.33333 0 0 -1.33333 1079.36 782.59)"/><path d="m0 0 .452 4.455a88 88 0 0 0 4.063-7.874A85.3 85.3 0 0 0 12.1-37.214l-.823 1.302zm-11.637-56.917L-38.109-46.76l-9.05 32.597 18.59 22.335L-4.617-3.345 5.36-35.221zM-46.4-119.628l3.752 5.402 32.198 21.561 4.18 1.245c-10.345-13.03-24.353-22.829-40.13-28.208m-21.734 48.389 29.229 18.938 25.402-9.758-1.691-27.32-30.688-20.471-24.583 9.863zm-7.691-27.793-28.109-9.119-28.62 21.794 2.706 28.884 28.696 7.45 27.507-21.907zm-28.676-19.708c-16.837 6.333-30.88 17.55-40.759 32.142l6.233-1.66 32.973-25.148 3.728-6.041c-.723.25-1.457.438-2.175.707M-134.148 6.894l26.898 5.307 16.337-23.899-12.517-32.912-27.825-7.45-17.448 22.696zm-25.888-41.464c.418 8.906 2.183 17.784 5.442 26.353 3.48 9.204 8.539 17.528 14.733 24.809l.255-9.165-14.269-35.408zm74.821 73.129 37.98-2.654 14.133-24.606-18.636-22.44-33.657 1.646-16.975 24.5zm11.277 8.609c10.449 0 20.657-1.85 30.349-5.5l.032-.014-2.271-.388-41.98 2.916-2.673 1.316c5.395 1.059 10.92 1.67 16.543 1.67M7.966-1.853C3.492 8.043-2.786 16.681-10.22 24.142c-.246.253-.497.5-.746.751a87 87 0 0 1-5.605 5.141c-2.572 2.17-5.24 4.226-8.052 6.094l-.003.001a89 89 0 0 1-10.67 6.065c-.33.158-.623.376-.955.53l-.271.135-.224-.038c-1.811.819-3.606 1.666-5.484 2.372a89.7 89.7 0 0 1-31.708 5.767c-7.517 0-14.881-.99-21.98-2.786l-.198.098-.263-.06c-.875-.229-1.683-.612-2.549-.866-2.912-.854-5.793-1.779-8.578-2.911-.983-.4-1.933-.852-2.899-1.285-3.236-1.452-6.426-2.999-9.452-4.818-.172-.103-.335-.216-.507-.321-16.966-10.178-30.554-25.79-37.81-44.89-8.469-22.275-7.72-46.538 2.109-68.322 9.88-21.896 27.723-38.62 50.221-47.08 10.113-3.835 20.786-5.78 31.717-5.78 37.225 0 71.085 23.256 84.254 57.865 8.452 22.275 7.686 46.546-2.161 68.343" clip-path="url(#clipPath257)" style="fill:#1e1f1d;fill-opacity:1;fill-rule:nonzero;stroke:none" transform="matrix(1.33333 0 0 -1.33333 1252.491 705.958)"/><path d="m0 0-54.863-28.843 10.478 61.091-44.385 43.265 61.338 8.913L0 140.008l27.432-55.582 61.338-8.913-44.385-43.265 10.478-61.091Z" clip-path="url(#clipPath259)" style="fill:#fac207;fill-opacity:1;fill-rule:nonzero;stroke:none" transform="matrix(1.33333 0 0 -1.33333 944.881 261.276)"/><path d="m0 0 44.891-23.6-8.573 49.986 36.318 35.403-50.189 7.292L0 114.562l-22.444-45.481-50.189-7.292 36.318-35.403-8.574-49.986Zm-64.834-51.054 12.381 72.196-52.45 51.13 72.486 10.536L0 148.492l32.42-65.684 72.486-10.536-52.45-51.13 12.381-72.196L0-16.965Z" clip-path="url(#clipPath261)" style="fill:#1e1f1d;fill-opacity:1;fill-rule:nonzero;stroke:none" transform="matrix(1.33333 0 0 -1.33333 944.88 249.966)"/><path d="M0 0c-11.22 7.799-21.578 7.383-29.434-.116-7.855-7.499-6.586-24.228 2.895-34.223C-23.085-38.718-4.285-54.479 0-54.313c4.285-.166 23.085 15.595 26.539 19.974 9.481 9.995 10.75 26.724 2.895 34.223S11.22 7.799 0 0" clip-path="url(#clipPath263)" style="fill:#fac207;fill-opacity:1;fill-rule:nonzero;stroke:none" transform="matrix(1.33333 0 0 -1.33333 430.76 518.311)"/><path d="M0 0c-11.22 7.799-21.578 7.383-29.434-.116-7.855-7.499-6.586-24.228 2.895-34.223C-23.085-38.717-4.285-54.479 0-54.313c4.285-.166 23.085 15.596 26.539 19.974 9.481 9.995 10.75 26.724 2.895 34.223S11.22 7.799 0 0" clip-path="url(#clipPath265)" style="fill:#fac207;fill-opacity:1;fill-rule:nonzero;stroke:none" transform="matrix(1.33333 0 0 -1.33333 430.76 785.567)"/><path d="M0 0c-11.22 7.799-21.578 7.383-29.434-.116-7.855-7.499-6.586-24.228 2.895-34.223C-23.085-38.718-4.285-54.479 0-54.313c4.285-.166 23.085 15.595 26.539 19.974 9.481 9.995 10.75 26.724 2.895 34.223S11.22 7.799 0 0" clip-path="url(#clipPath267)" style="fill:#fac207;fill-opacity:1;fill-rule:nonzero;stroke:none" transform="matrix(1.33333 0 0 -1.33333 430.76 1052.822)"/><path d="M0 0c-11.22 7.799-21.578 7.383-29.434-.116-7.855-7.499-6.586-24.228 2.895-34.223C-23.085-38.717-4.285-54.479 0-54.313c4.285-.166 23.085 15.596 26.539 19.974 9.481 9.995 10.75 26.724 2.895 34.223S11.22 7.799 0 0" clip-path="url(#clipPath269)" style="fill:#fac207;fill-opacity:1;fill-rule:nonzero;stroke:none" transform="matrix(1.33333 0 0 -1.33333 430.76 1320.076)"/><path d="M0 0c-11.22 7.799-21.578 7.383-29.434-.116-7.855-7.499-6.586-24.228 2.895-34.223C-23.084-38.718-4.285-54.479 0-54.313c4.285-.166 23.084 15.595 26.539 19.974 9.481 9.995 10.75 26.724 2.895 34.223S11.22 7.799 0 0" clip-path="url(#clipPath271)" style="fill:#fac207;fill-opacity:1;fill-rule:nonzero;stroke:none" transform="matrix(1.33333 0 0 -1.33333 1459.111 518.311)"/><path d="M0 0c-11.22 7.799-21.578 7.383-29.434-.116-7.855-7.499-6.586-24.228 2.895-34.223C-23.084-38.717-4.285-54.479 0-54.313c4.285-.166 23.084 15.596 26.539 19.974 9.481 9.995 10.75 26.724 2.895 34.223S11.22 7.799 0 0" clip-path="url(#clipPath273)" style="fill:#fac207;fill-opacity:1;fill-rule:nonzero;stroke:none" transform="matrix(1.33333 0 0 -1.33333 1459.111 785.567)"/><path d="M0 0c-11.22 7.799-21.578 7.383-29.434-.116-7.855-7.499-6.586-24.228 2.895-34.223C-23.084-38.718-4.285-54.479 0-54.313c4.285-.166 23.084 15.595 26.539 19.974 9.481 9.995 10.75 26.724 2.895 34.223S11.22 7.799 0 0" clip-path="url(#clipPath275)" style="fill:#fac207;fill-opacity:1;fill-rule:nonzero;stroke:none" transform="matrix(1.33333 0 0 -1.33333 1459.111 1052.822)"/><path d="M0 0c-11.22 7.799-21.578 7.383-29.434-.116-7.855-7.499-6.586-24.228 2.895-34.223C-23.084-38.717-4.285-54.479 0-54.313c4.285-.166 23.084 15.596 26.539 19.974 9.481 9.995 10.75 26.724 2.895 34.223S11.22 7.799 0 0" clip-path="url(#clipPath277)" style="fill:#fac207;fill-opacity:1;fill-rule:nonzero;stroke:none" transform="matrix(1.33333 0 0 -1.33333 1459.111 1320.076)"/><path d="M0 0c-11.22 7.799-21.578 7.383-29.434-.116-7.855-7.499-6.586-24.228 2.895-34.223C-23.085-38.717-4.285-54.479 0-54.313c4.285-.166 23.085 15.596 26.539 19.974 9.481 9.995 10.75 26.724 2.895 34.223S11.22 7.799 0 0" clip-path="url(#clipPath279)" style="fill:#fac207;fill-opacity:1;fill-rule:nonzero;stroke:none" transform="matrix(1.33333 0 0 -1.33333 588.894 1509.485)"/><path d="M0 0c-11.22 7.799-21.578 7.383-29.434-.116-7.855-7.499-6.586-24.228 2.895-34.223C-23.085-38.717-4.285-54.479 0-54.313c4.285-.166 23.085 15.596 26.539 19.974 9.481 9.995 10.75 26.724 2.895 34.223S11.22 7.799 0 0" clip-path="url(#clipPath281)" style="fill:#fac207;fill-opacity:1;fill-rule:nonzero;stroke:none" transform="matrix(1.33333 0 0 -1.33333 944.882 1656.385)"/><path d="M0 0c-11.22 7.799-21.578 7.383-29.434-.116-7.855-7.499-6.586-24.228 2.895-34.223C-23.085-38.717-4.285-54.479 0-54.313c4.285-.166 23.084 15.596 26.539 19.974 9.481 9.995 10.75 26.724 2.895 34.223S11.22 7.799 0 0" clip-path="url(#clipPath283)" style="fill:#fac207;fill-opacity:1;fill-rule:nonzero;stroke:none" transform="matrix(1.33333 0 0 -1.33333 1300.87 1509.485)"/></svg>