<svg xmlns="http://www.w3.org/2000/svg" viewBox="0 0 580.66 694.88"><defs><clipPath id="a" clipPathUnits="userSpaceOnUse"><path d="M-213.055 512.839h435.497V-8.322h-435.497Z"/></clipPath><clipPath id="b" clipPathUnits="userSpaceOnUse"><path d="M-12.263 134.666h435.497v-521.161H-12.263Z"/></clipPath><clipPath id="c" clipPathUnits="userSpaceOnUse"><path d="M-28.657 60.89H406.84v-521.162H-28.657Z"/></clipPath><clipPath id="d" clipPathUnits="userSpaceOnUse"><path d="M-32.426 139.895h435.497v-521.161H-32.426Z"/></clipPath><clipPath id="e" clipPathUnits="userSpaceOnUse"><path d="M-32.82 61.291h435.496v-521.16H-32.82Z"/></clipPath><clipPath id="f" clipPathUnits="userSpaceOnUse"><path d="M-406.374 62.971H29.123v-521.16h-435.497Z"/></clipPath><clipPath id="g" clipPathUnits="userSpaceOnUse"><path d="M-142.4 34.347h435.498v-521.161H-142.4Z"/></clipPath><clipPath id="h" clipPathUnits="userSpaceOnUse"><path d="M-295.198 33.857h435.497v-521.161h-435.497Z"/></clipPath><clipPath id="i" clipPathUnits="userSpaceOnUse"><path d="M-241.485 30.02h435.497v-521.161h-435.497Z"/></clipPath><clipPath id="j" clipPathUnits="userSpaceOnUse"><path d="M-338.38 228.526H97.119v-521.161H-338.38Z"/></clipPath><clipPath id="k" clipPathUnits="userSpaceOnUse"><path d="M-218.362 110.146h435.497v-521.161h-435.497Z"/></clipPath><clipPath id="l" clipPathUnits="userSpaceOnUse"><path d="M-230.861 181.34h435.497v-521.161h-435.497Z"/></clipPath><clipPath id="m" clipPathUnits="userSpaceOnUse"><path d="M-314.206 188.407h435.497v-521.161h-435.497Z"/></clipPath><clipPath id="n" clipPathUnits="userSpaceOnUse"><path d="M-231.692 271.58h435.497v-521.16h-435.497Z"/></clipPath><clipPath id="o" clipPathUnits="userSpaceOnUse"><path d="M-234.04 303.73h435.497v-521.16H-234.04Z"/></clipPath><clipPath id="p" clipPathUnits="userSpaceOnUse"><path d="M-211.05 271.47h435.498v-521.16H-211.05Z"/></clipPath><clipPath id="q" clipPathUnits="userSpaceOnUse"><path d="M-138.965 177.628h435.497v-521.161h-435.497Z"/></clipPath><clipPath id="r" clipPathUnits="userSpaceOnUse"><path d="M-206.301 330.847h435.497v-521.161h-435.497Z"/></clipPath><clipPath id="s" clipPathUnits="userSpaceOnUse"><path d="M-208.246 326.596h435.497v-521.161h-435.497Z"/></clipPath><clipPath id="t" clipPathUnits="userSpaceOnUse"><path d="M-78.548 134.802H356.95V-386.36H-78.548Z"/></clipPath><clipPath id="u" clipPathUnits="userSpaceOnUse"><path d="M-84.399 123.776h435.497v-521.16H-84.399Z"/></clipPath><clipPath id="v" clipPathUnits="userSpaceOnUse"><path d="M-86 125.033h435.498v-521.161H-86Z"/></clipPath><clipPath id="w" clipPathUnits="userSpaceOnUse"><path d="M-105.533 102.089h435.497v-521.161h-435.497Z"/></clipPath><clipPath id="x" clipPathUnits="userSpaceOnUse"><path d="M-127.771 113.784h435.497v-521.161h-435.497Z"/></clipPath><clipPath id="y" clipPathUnits="userSpaceOnUse"><path d="M-122.785 104.095h435.497v-521.161h-435.497Z"/></clipPath><clipPath id="z" clipPathUnits="userSpaceOnUse"><path d="M-131.02 86.277h435.496v-521.161H-131.02Z"/></clipPath><clipPath id="A" clipPathUnits="userSpaceOnUse"><path d="M-154.672 72.463h435.497v-521.16h-435.497Z"/></clipPath><clipPath id="B" clipPathUnits="userSpaceOnUse"><path d="M-167.825 82.06h435.497V-439.1h-435.497Z"/></clipPath><clipPath id="C" clipPathUnits="userSpaceOnUse"><path d="M-172.898 67.11H262.6v-521.16h-435.497Z"/></clipPath><clipPath id="D" clipPathUnits="userSpaceOnUse"><path d="M-180.069 66.758h435.497v-521.16h-435.497Z"/></clipPath><clipPath id="E" clipPathUnits="userSpaceOnUse"><path d="M-206.435 60.825h435.497v-521.16h-435.497Z"/></clipPath><clipPath id="F" clipPathUnits="userSpaceOnUse"><path d="M-228.29 92.068h435.497v-521.161H-228.29Z"/></clipPath><clipPath id="G" clipPathUnits="userSpaceOnUse"><path d="M-221.11 60.427h435.496v-521.16H-221.11Z"/></clipPath><clipPath id="H" clipPathUnits="userSpaceOnUse"><path d="M-241.01 85.143h435.497v-521.161H-241.01Z"/></clipPath><clipPath id="I" clipPathUnits="userSpaceOnUse"><path d="M-243.259 83.468h435.497v-521.16h-435.497Z"/></clipPath><clipPath id="J" clipPathUnits="userSpaceOnUse"><path d="M-260.801 98.086h435.497v-521.16h-435.497Z"/></clipPath><clipPath id="K" clipPathUnits="userSpaceOnUse"><path d="M-260.68 65.54h435.496v-521.161H-260.68Z"/></clipPath><clipPath id="L" clipPathUnits="userSpaceOnUse"><path d="M-281.665 106.38h435.497v-521.16h-435.497Z"/></clipPath><clipPath id="M" clipPathUnits="userSpaceOnUse"><path d="M-271.543 68.607h435.497v-521.16h-435.497Z"/></clipPath><clipPath id="N" clipPathUnits="userSpaceOnUse"><path d="M-301.49 118.282h435.498v-521.16H-301.49Z"/></clipPath><clipPath id="O" clipPathUnits="userSpaceOnUse"><path d="M-296.476 78.733H139.02v-521.16h-435.497Z"/></clipPath><clipPath id="P" clipPathUnits="userSpaceOnUse"><path d="M-313.66 128.105h435.497v-521.16H-313.66Z"/></clipPath><clipPath id="Q" clipPathUnits="userSpaceOnUse"><path d="M-319.914 92.918h435.497v-521.16h-435.497Z"/></clipPath><clipPath id="R" clipPathUnits="userSpaceOnUse"><path d="M-333.664 150.397h435.497v-521.161h-435.497Z"/></clipPath><clipPath id="S" clipPathUnits="userSpaceOnUse"><path d="M-341.081 110.949H94.416v-521.161h-435.497Z"/></clipPath></defs><path d="M0 0c-91.11 59.608-132.528 135.403-167.142 207.928-31.268 65.508-38.814 165.407-39.12 169.628l-.02.273s-3.163 60.007.523 89.378l3.861 1.918c3.058 1.518 76.385 37.207 205.677 38.195 1.665.013 3.307.018 4.955.018 126.389 0 199.803-36.685 202.867-38.247l3.184-1.776c.968-6.031 2.433-36.997 2.113-85.356-.489-74.729-34.163-154.013-36.264-158.885C145.169 131.818 100.06 76.052 68.455 45.331 33.845 11.689 7.758-.06 6.664-.544l-3.48-1.539z" clip-path="url(#a)" style="fill:#fff;fill-opacity:1;fill-rule:nonzero;stroke:none" transform="matrix(1.33333 0 0 -1.33333 284.073 683.785)"/><path d="m0 0 .016-.215C.318-4.397 7.78-103.278 38.614-167.876c34.278-71.821 75.269-146.865 165.189-205.694l.682-.447.746.33c1.057.468 26.275 11.831 60.182 44.789 31.209 30.336 75.781 85.459 110.887 175.791l.076.186c1.442 3.344 35.33 82.762 35.814 156.743.288 43.514-.876 72.375-1.748 81.887l-.635.354c-4.168 2.108-78.182 38.576-205.194 37.584C76.593 122.669 4.352 87.521 1.339 86.025l-1.181-.587C-2.853 56.37-.105 2.042 0 0m203.467-386.495-5.686 3.72c-92.3 60.386-134.145 136.933-169.094 210.161C-3.032-106.164-10.646-5.277-10.956-1.015l-.026.381c-.13 2.47-3.146 60.836.558 90.353l.367 2.928 6.504 3.23c3.106 1.543 77.555 37.772 208.082 38.77 130.707.995 207.209-37.222 210.361-38.829l.182-.096 5.512-3.076.423-2.632c1.067-6.639 2.498-38.647 2.183-86.264-.495-75.593-34.694-156.327-36.672-160.932-35.819-92.128-81.455-148.515-113.438-179.604-35.305-34.317-62.268-46.461-63.399-46.961z" clip-path="url(#b)" style="fill:#000;fill-opacity:1;fill-rule:nonzero;stroke:none" transform="matrix(1.33333 0 0 -1.33333 16.35 179.555)"/><path d="m0 0-.463-79.152s6.907-95.259 35.895-156.002c28.993-60.744 67.185-134.836 153.702-191.434 0 0 95.715 42.339 158.989 205.239 0 0 32.904 75.932 33.367 145.875C381.953-5.524 380.107 0 380.107 0s-70.406 35.895-190.973 34.969C68.567 34.05 0 0 0 0" clip-path="url(#c)" style="fill:#fff;fill-opacity:1;fill-rule:nonzero;stroke:none" transform="matrix(1.33333 0 0 -1.33333 38.21 81.185)"/><path d="M0 0c.34-4.431 7.728-96.17 35.48-154.326 31.4-65.784 68.865-134.475 150.188-188.391 14.043 7.264 97.982 55.77 154.743 201.903.389.903 32.629 76.132 33.08 144.373.342 51.519-.587 67.828-1.034 72.61-12.156 5.6-79.949 34.496-187.059 33.576C79.319 108.934 13.365 82.05.446 76.292Zm184.974-352.381-1.925 1.258c-84.545 55.31-123.03 125.747-155.203 193.154C-1.152-97.207-8.165-4.373-8.45-.452l-.013.165.001.166.478 81.758 2.334 1.157c2.835 1.409 70.823 34.494 190.984 35.411 120.146.98 190.049-33.964 192.926-35.43l1.542-.787.55-1.642c.484-1.452 2.033-11.286 1.599-76.842-.462-69.996-33.383-146.761-33.714-147.529-63.12-162.511-157.188-205.668-161.16-207.425z" clip-path="url(#d)" style="fill:#000;fill-opacity:1;fill-rule:nonzero;stroke:none" transform="matrix(1.33333 0 0 -1.33333 43.234 186.527)"/><path d="M0 0s20.172 7.14 25.394 8.157l-.076-220.861S-.887-124.439-.81-87.255C-.727-50.072 0 0 0 0" clip-path="url(#e)" style="fill:#000;fill-opacity:1;fill-rule:nonzero;stroke:none" transform="matrix(1.33333 0 0 -1.33333 43.76 81.722)"/><path d="M0 0s-20.467 8.429-25.666 9.532v-209.21S-.92-124.445-.457-87.261C0-50.077 0 0 0 0" clip-path="url(#f)" style="fill:#000;fill-opacity:1;fill-rule:nonzero;stroke:none" transform="matrix(1.33333 0 0 -1.33333 541.831 83.962)"/><path d="m0 0-43.628-8.135.37-312.429s31.796-53.135 43.996-62.371z" clip-path="url(#g)" style="fill:#000;fill-opacity:1;fill-rule:nonzero;stroke:none" transform="matrix(1.33333 0 0 -1.33333 189.866 45.796)"/><path d="m0 0 43.627-8.129-.325-312.428S11.511-374.695-.689-383.936z" clip-path="url(#h)" style="fill:#000;fill-opacity:1;fill-rule:nonzero;stroke:none" transform="matrix(1.33333 0 0 -1.33333 393.598 45.142)"/><path d="M0 0s-38.274-.071-44.487-.514l-1.773-438.135 23.072-14.419 23.932 14.91z" clip-path="url(#i)" style="fill:#000;fill-opacity:1;fill-rule:nonzero;stroke:none" transform="matrix(1.33333 0 0 -1.33333 321.98 40.027)"/><path d="M0 0c0-66.155-53.63-119.785-119.79-119.785-66.155 0-119.785 53.63-119.785 119.785 0 66.161 53.63 119.79 119.785 119.79C-53.63 119.79 0 66.161 0 0" clip-path="url(#j)" style="fill:#000;fill-opacity:1;fill-rule:nonzero;stroke:none" transform="matrix(1.33333 0 0 -1.33333 451.173 304.701)"/><path d="M0 0c-65.272 0-118.375-53.105-118.375-118.38 0-65.272 53.103-118.375 118.375-118.375 65.275 0 118.38 53.103 118.38 118.375C118.38-53.105 65.275 0 0 0m0-239.575c-66.827 0-121.195 54.368-121.195 121.195C-121.195-51.551-66.827 2.82 0 2.82c66.829 0 121.2-54.371 121.2-121.2 0-66.827-54.371-121.195-121.2-121.195" clip-path="url(#k)" style="fill:#fff;fill-opacity:1;fill-rule:nonzero;stroke:none" transform="matrix(1.33333 0 0 -1.33333 291.15 146.86)"/><path d="m0 0-9.342 5.072-9.473-4.825 1.933 10.455-7.512 7.512 10.536 1.394 4.825 9.467 4.583-9.589 10.497-1.663-7.71-7.32z" clip-path="url(#l)" style="fill:#fff;fill-opacity:1;fill-rule:nonzero;stroke:none" transform="matrix(1.33333 0 0 -1.33333 307.815 241.787)"/><path d="M0 0s-24.648 62.364-93.419 63.104c-68.776.738-105.502-60.394-104.269-100.568 1.234-40.18 17.994-86.518 80.354-103.774 0 0 75.182-22.676 116.596 58.664l-11.588 24.158-2.463-2.22s-.985-9.121-4.935-17.008c-3.938-7.887-34.016-64.084-105.249-40.422-71.233 23.661-61.87 114.37-23.91 142.96C-110.923 53.492-47.571 54.968-16.27-9.121c0 0 1.785-3.943.677-8.747l1.845-2.401z" clip-path="url(#m)" style="fill:#fff;fill-opacity:1;fill-rule:nonzero;stroke:none" transform="matrix(1.33333 0 0 -1.33333 418.94 251.21)"/><path d="m0 0 .248-34.265h3.448L70.743 91.694s.49.986 2.71 1.227l-.491 4.935-28.348.492v-4.682s3.205.489 3.943-.986c.744-1.481 1.234.491-.49-2.71C46.338 86.765 0 0 0 0" clip-path="url(#n)" style="fill:#fff;fill-opacity:1;fill-rule:nonzero;stroke:none" transform="matrix(1.33333 0 0 -1.33333 308.923 362.107)"/><path d="M0 0h.079l66.449 124.839c.154.309.743 1.244 2.291 1.851l-.122 1.234-24.316.422v-.383c2.078-.212 3.098-1.121 3.601-1.966l.52-.193.395-1.011c.33-1.002-.162-1.75-.371-2.07a20 20 0 0 1-.945-1.605c-1.641-3.044-44.11-82.561-47.809-89.49Zm2.618-4.229H-4.2l-.267 36.9.254.477c.463.866 46.359 86.804 48.07 89.976q.18.33.33.599c-.428.07-1.525.012-1.61.002l-2.418-.352-.008 9.277 32.382-.562.884-8.894-2.083-.225c-.711-.078-1.054-.243-1.181-.32z" clip-path="url(#o)" style="fill:#000;fill-opacity:1;fill-rule:nonzero;stroke:none" transform="matrix(1.33333 0 0 -1.33333 312.054 404.974)"/><path d="m0 0 .088-34.266-3.448-.032-68.275 125.299s-.501.98-2.721 1.205l.446 4.936 28.338.77.044-4.686s-3.206.463-3.932-1.026c-.728-1.486-1.24.486.517-2.703S0 0 0 0" clip-path="url(#p)" style="fill:#fff;fill-opacity:1;fill-rule:nonzero;stroke:none" transform="matrix(1.33333 0 0 -1.33333 281.399 361.96)"/><path d="M0 0c1.552-.596 2.155-1.533 2.333-1.88l67.642-124.134.077.001-.082 31.628c-3.741 6.842-47 85.969-48.68 89.019-.513.928-.812 1.374-.962 1.6l-.571.852.183 1.221c.096.294.326.779.863 1.132.5.889 1.513 1.838 3.617 2.072l-.002.387L.112 1.237Zm67.474-130.266L-1.3-4.052c-.128.075-.473.239-1.185.312l-2.082.213.804 8.887 32.37.882.087-9.306-2.44.353c-.072.011-1.18.063-1.597-.017q.155-.265.336-.597C26.75-6.513 73.94-92.828 73.94-92.828l.258-.472.095-36.904z" clip-path="url(#q)" style="fill:#000;fill-opacity:1;fill-rule:nonzero;stroke:none" transform="matrix(1.33333 0 0 -1.33333 185.287 236.837)"/><path d="m0 0-.248 6.126S4.191 5.878 5.177 9.8s-.49 127.403-.49 127.403-.738 1.96-3.453 2.693v4.902h27.611l-.248-5.145s-3.454.982-3.454-2.45S25.391 9.8 25.391 9.8s.248-2.941 2.958-2.941l.248-6.615z" clip-path="url(#r)" style="fill:#fff;fill-opacity:1;fill-rule:nonzero;stroke:none" transform="matrix(1.33333 0 0 -1.33333 275.069 441.13)"/><path d="m0 0 .087-2.118 24.37.206-.106 2.82c-1.973.874-2.884 2.953-3.012 4.464-.007.173-.255 124.148-.255 127.58 0 2.5 1.366 4.224 3.555 4.612l.041.868H1.404v-1.334c2.422-1.199 3.222-3.146 3.319-3.402l.135-.719C5.104 112.31 6.285 9.019 5.284 5.033 4.534 2.053 2.264.544 0 0m-3.976-6.382L-4.4 4.116l2.326-.129c.848 0 2.784.203 3.255 2.079.655 3.819.036 77.452-.547 126.34-.228.31-.784.896-1.896 1.197l-1.564.421v8.638H29.12l-.484-10.023-2.561.728c-.004-.001-.593.055-.736.022.008-.034-.025-.175-.025-.437 0-3.432.248-127.399.248-127.399.07-.482.356-.83.842-.83h2.038l.405-10.826z" clip-path="url(#s)" style="fill:#000;fill-opacity:1;fill-rule:nonzero;stroke:none" transform="matrix(1.33333 0 0 -1.33333 277.661 435.461)"/><path d="m0 0 1.175 1.618a180 180 0 0 0 3.784 5.02l1.234 1.578 23.045-18.07-1.23-1.574a146 146 0 0 1-3.141-4.167l-1.176-1.618z" clip-path="url(#t)" style="fill:#000;fill-opacity:1;fill-rule:nonzero;stroke:none" transform="matrix(1.33333 0 0 -1.33333 104.73 179.735)"/><path d="m0 0-2.467-3.155a182 182 0 0 1-3.827-5.077l-2.351-3.236 3.236-2.351 10.368-7.533 10.087-7.329 3.236-2.351 2.351 3.236a146 146 0 0 0 3.099 4.111l2.461 3.147-3.144 2.465L10.244-8.032l-7.092 5.56zm.684-5.619 19.897-15.602a151 151 0 0 1-3.184-4.224L-3.058-10.583A177 177 0 0 0 .684-5.619" clip-path="url(#u)" style="fill:#fff;fill-opacity:1;fill-rule:nonzero;stroke:none" transform="matrix(1.33333 0 0 -1.33333 112.532 165.035)"/><path d="m0 0 1.282 1.529a174 174 0 0 0 3.936 4.534l.681.759 1.014-.106a163 163 0 0 0 14.005-2.079l-8.553 8.93 1.435 1.384a171 171 0 0 0 4.096 3.82l1.489 1.344L38.949-1.691l-1.48-1.336a144 144 0 0 1-3.665-3.427L33-7.233l-1.085.278a151 151 0 0 1-12.612 2.666l8.833-7.959-1.331-1.485a147 147 0 0 1-3.118-3.597L22.4-18.865Z" clip-path="url(#v)" style="fill:#000;fill-opacity:1;fill-rule:nonzero;stroke:none" transform="matrix(1.33333 0 0 -1.33333 114.665 166.71)"/><path d="m0 0-2.978-2.688a170 170 0 0 1-4.144-3.865L-9.993-9.32l2.758-2.879 2.963-3.093c-2.702.418-5.421.77-8.142 1.054l-2.027.211-1.363-1.516a178 178 0 0 1-3.981-4.587l-2.564-3.058 3.052-2.571 11.258-9.481 8.084-6.808 3.066-2.582 2.575 3.072a144 144 0 0 0 3.074 3.546l2.662 2.971-2.963 2.671-2.024 1.822q2.748-.594 5.449-1.288l2.169-.557 1.609 1.559a139 139 0 0 0 3.612 3.377l2.961 2.672-2.663 2.969L2.679-2.986zm-.298-5.657 16.892-18.83a144 144 0 0 1-3.715-3.474A154 154 0 0 1-6.47-24.304L5.781-35.342a149 149 0 0 1-3.16-3.646L-16.72-22.7a169 169 0 0 0 3.892 4.483 159 159 0 0 0 20.166-3.414L-4.346-9.433A167 167 0 0 0-.298-5.657" clip-path="url(#w)" style="fill:#fff;fill-opacity:1;fill-rule:nonzero;stroke:none" transform="matrix(1.33333 0 0 -1.33333 140.71 136.119)"/><path d="M0 0q.749.566 1.5 1.122c1.307.965 1.826 1.454 2.03 1.693.359.416.577.811.675 1.217.04.166.098.667-.222 1.743-.195.657-.68 1.817-1.876 3.615-1.192 1.791-2.01 2.588-2.486 2.94-.604.448-1.178.704-1.706.761q-.141.015-.28.015c-.459 0-.964-.123-1.502-.366-.253-.113-1.223-.6-3.528-2.336l-.426-.323zm-20.643 10.382 1.53 1.281a170 170 0 0 0 8.535 6.693c2.029 1.488 3.794 2.511 5.247 3.04 1.299.468 2.615.705 3.915.705.665 0 1.335-.062 1.993-.185 1.893-.354 3.674-1.168 5.294-2.421 1.551-1.202 2.983-2.888 4.379-5.155 1.188-1.929 1.997-3.814 2.404-5.601.493-2.174.536-4.222.128-6.092-.323-1.484-1.029-2.928-2.161-4.411-.806-1.049-2.011-2.152-3.687-3.375a142 142 0 0 1-7.288-5.704l-1.537-1.288z" clip-path="url(#x)" style="fill:#000;fill-opacity:1;fill-rule:nonzero;stroke:none" transform="matrix(1.33333 0 0 -1.33333 170.361 151.711)"/><path d="M0 0c1.367.967 1.897 1.208 1.924 1.22.381.172.599.197.697.197q.03 0 .058-.003c.05-.005.286-.045.734-.378.232-.172.888-.75 2.014-2.443 1.115-1.675 1.497-2.648 1.625-3.079.123-.412.157-.659.167-.771a1.5 1.5 0 0 0-.211-.303c-.045-.051-.364-.4-1.646-1.351Zm3.57 14.411c-1.533 0-3.076-.276-4.588-.821-1.64-.596-3.573-1.708-5.757-3.31a172 172 0 0 1-8.636-6.772L-18.47.946l2.553-3.065 3.76-4.514L.274-21.559l2.567-3.081 3.075 2.574a139 139 0 0 0 7.184 5.624c1.856 1.355 3.156 2.551 4.088 3.764 1.304 1.709 2.153 3.459 2.534 5.215.471 2.152.427 4.494-.131 6.953-.457 2.005-1.349 4.093-2.653 6.21-1.523 2.475-3.111 4.335-4.855 5.686-1.876 1.451-3.946 2.395-6.154 2.807a13 13 0 0 1-2.359.218m1.056-26.899q1.512 1.178 3.048 2.312c1.149.848 1.94 1.509 2.364 2.005.557.647.923 1.326 1.096 2.045s.091 1.644-.248 2.783C10.547-2.206 9.841-.819 8.757.809 7.674 2.437 6.69 3.587 5.797 4.248 4.904 4.91 4.01 5.294 3.115 5.39a5 5 0 0 1-.494.027q-1.119 0-2.326-.543c-.738-.329-2.051-1.163-3.907-2.561q-1.022-.771-2.035-1.56zM3.57 10.411q.818 0 1.625-.15c1.596-.298 3.075-.983 4.438-2.037 1.364-1.057 2.656-2.602 3.899-4.621C14.624 1.83 15.336.16 15.69-1.395c.431-1.9.469-3.638.123-5.22-.26-1.197-.861-2.399-1.796-3.625-.703-.913-1.796-1.892-3.277-2.973a142 142 0 0 1-7.392-5.786L-12.843.441a167 167 0 0 0 8.434 6.614C-2.47 8.477-.876 9.385.339 9.827a9.5 9.5 0 0 0 3.231.584" clip-path="url(#y)" style="fill:#fff;fill-opacity:1;fill-rule:nonzero;stroke:none" transform="matrix(1.33333 0 0 -1.33333 163.714 138.793)"/><path d="m0 0 1.733.999a170 170 0 0 0 19.011 9.424l1.84.773 3.222-7.628-1.848-.776A162 162 0 0 1 12.476-2.57l.756-1.421A161 161 0 0 0 23.663.919l1.836.785 3.228-7.516-1.81-.863a153 153 0 0 1-9.801-4.61l1.358-2.549a149 149 0 0 0 10.893 5.059l1.843.767 3.189-7.622-1.85-.77a141 141 0 0 1-16.177-7.988l-1.732-.998z" clip-path="url(#z)" style="fill:#000;fill-opacity:1;fill-rule:nonzero;stroke:none" transform="matrix(1.33333 0 0 -1.33333 174.694 115.036)"/><path d="m0 0-3.681-1.546a172 172 0 0 1-19.236-9.536l-3.466-1.998 1.999-3.466 6.269-10.872 6.372-11.048 1.998-3.465 3.465 1.998A139 139 0 0 0 9.667-32.06l3.7 1.54-1.547 3.697-1.646 3.932-1.541 3.683-1.323-.551-1.154 2.688-.999 2.326-.683 1.591-.624 1.451.926.389-1.558 3.692-.96 2.273-.705 1.67zm-2.132-5.234 1.664-3.944a163 163 0 0 1-13.419-6.368l2.636-4.951A158 158 0 0 0 .798-14.733L2.48-18.65a154 154 0 0 1-11.727-5.61l3.237-6.079a147 147 0 0 0 12.495 5.904l1.645-3.932a142 142 0 0 1-16.408-8.101l-12.641 21.921A168 168 0 0 0-2.132-5.234" clip-path="url(#A)" style="fill:#fff;fill-opacity:1;fill-rule:nonzero;stroke:none" transform="matrix(1.33333 0 0 -1.33333 206.229 96.618)"/><path d="m0 0 .881.289c2.445.792 3.102 1.176 3.271 1.304.286.217.465.448.563.726.093.264.095.526.004.847-.138.486-.344.661-.528.766a1.67 1.67 0 0 1-.869.225q-.152 0-.31-.021c-.228-.028-1.121-.174-3.461-.938l-.594-.196Zm-12.908 7.508 1.872.717a171 171 0 0 0 8.665 3.054c2.254.724 5.308 1.6 7.072 1.664q.183.007.372.007c1.949 0 3.752-.589 5.36-1.75 1.718-1.24 2.893-3.104 3.493-5.541.447-1.816.476-3.495.087-4.992-.376-1.452-1.018-2.716-1.909-3.756-.856-.998-1.809-1.779-2.832-2.325-1.169-.596-2.798-1.214-5.315-2.023q-.617-.197-1.232-.401l3.129-9.001-1.895-.654a142 142 0 0 1-4.464-1.625l-1.864-.714z" clip-path="url(#B)" style="fill:#000;fill-opacity:1;fill-rule:nonzero;stroke:none" transform="matrix(1.33333 0 0 -1.33333 223.767 109.415)"/><path d="M0 0q-.226 0-.454-.009c-1.59-.058-4.15-.649-7.599-1.757a175 175 0 0 1-8.771-3.092l-3.743-1.434 1.442-3.74 9.099-23.607 1.436-3.724 3.728 1.428c1.456.557 2.936 1.096 4.401 1.601l3.79 1.308-1.316 3.787-.192.55-1.609 4.631c2.226.732 3.743 1.324 4.862 1.894l.033.017.033.018c1.246.664 2.393 1.602 3.409 2.787 1.091 1.273 1.874 2.806 2.328 4.558.473 1.82.446 3.83-.082 5.971-.715 2.91-2.15 5.159-4.264 6.685C4.576-.716 2.379 0 0 0m-6.31-17.48q1.365.471 2.737.917c1.975.64 3.265 1.16 3.861 1.613q.895.676 1.241 1.653c.229.652.246 1.336.042 2.056-.25.885-.732 1.54-1.453 1.956a3.7 3.7 0 0 1-1.869.492 5 5 0 0 1-.562-.037c-.661-.08-1.943-.405-3.83-1.021q-1.264-.414-2.524-.849zM0-4c1.526 0 2.929-.461 4.19-1.372 1.344-.97 2.241-2.443 2.721-4.398.372-1.507.397-2.845.094-4.01q-.453-1.747-1.493-2.959-1.037-1.211-2.253-1.86c-1.112-.567-2.776-1.174-4.985-1.883a155 155 0 0 1-3.173-1.057l3.133-9.013A143 143 0 0 1-6.293-32.2l-9.1 23.607a170 170 0 0 0 8.564 3.019c3.272 1.051 5.462 1.529 6.53 1.568Q-.149-4 0-4" clip-path="url(#C)" style="fill:#fff;fill-opacity:1;fill-rule:nonzero;stroke:none" transform="matrix(1.33333 0 0 -1.33333 230.53 89.48)"/><path d="m0 0 1.959.422A174 174 0 0 0 22.57 3.576l1.989.182.767-8.242-1.993-.183a166 166 0 0 1-12.336-1.604l.29-1.581a164 164 0 0 0 11.21 1.493l1.987.195.817-8.22-1.993-.196c-3.507-.342-7.04-.812-10.532-1.397l.519-2.836c3.872.648 7.797 1.15 11.693 1.496l1.989.176.741-8.226-1.995-.177A144 144 0 0 1 8.183-28.2l-1.952-.421z" clip-path="url(#D)" style="fill:#000;fill-opacity:1;fill-rule:nonzero;stroke:none" transform="matrix(1.33333 0 0 -1.33333 240.092 89.01)"/><path d="m0 0-3.978-.365a176 176 0 0 1-20.849-3.191l-3.919-.844.853-3.917 3.753-17.236 1.627-7.476.85-3.9 3.901.841A142 142 0 0 0-.466-33.469l3.989.354-.358 3.988-.26 2.886-.122 1.357-.358 3.98-1.409-.125-.288 2.903-.379 3.814-.042.425-.156 1.571.987.091-.371 3.987-.265 2.84-.132 1.42zm-3.613-4.349.397-4.259A167 167 0 0 1-17.7-10.581l1.011-5.515a162 162 0 0 0 13.015 1.814l.421-4.239a157 157 0 0 1-12.668-1.766l1.241-6.77c4.467.809 8.966 1.414 13.479 1.815l.382-4.243a146 146 0 0 1-17.785-2.693l-5.381 24.712A171 171 0 0 0-3.613-4.349" clip-path="url(#E)" style="fill:#fff;fill-opacity:1;fill-rule:nonzero;stroke:none" transform="matrix(1.33333 0 0 -1.33333 275.246 81.1)"/><path d="M0 0c-1.558.106-3.144.187-4.714.242l-1.154.04-.542 1.02a166 166 0 0 1-6.044 10.433l.35-11.41-2-.06a150 150 0 0 1-4.367-.199l-1.995-.121-1.794 29.23 1.998.121c1.826.111 3.68.193 5.511.246l1.064.031.62-.865A180 180 0 0 0-5.71 17.582l.454 11.985 1.997-.074c1.758-.066 3.529-.159 5.262-.277L4 29.081 1.996-.103Z" clip-path="url(#F)" style="fill:#000;fill-opacity:1;fill-rule:nonzero;stroke:none" transform="matrix(1.33333 0 0 -1.33333 304.387 122.757)"/><path d="m0 0-.151-3.995-.135-3.559a183 183 0 0 1-3.975 5.785l-1.24 1.731-2.128-.061a176 176 0 0 1-5.574-.249L-17.2-.59l.246-3.996 1.508-24.573.041-.664.245-3.99 3.989.242c1.426.087 2.875.153 4.305.196l4.001.12-.123 4-.052 1.702q1.05-1.856 2.043-3.724l1.084-2.039 2.308-.081c1.548-.054 3.112-.135 4.649-.239l3.988-.27.273 3.987.856 12.461.877 12.764.274 3.994-3.994.271c-1.759.119-3.55.213-5.323.28zm-7.514-4.098A175 175 0 0 0 3.207-21.019l.639 16.873a170 170 0 0 0 5.201-.274L7.315-29.645q-2.388.162-4.78.245A170 170 0 0 1-7.49-12.897l.504-16.48a146 146 0 0 1-4.427-.201l-1.549 25.237q2.723.165 5.448.243" clip-path="url(#G)" style="fill:#fff;fill-opacity:1;fill-rule:nonzero;stroke:none" transform="matrix(1.33333 0 0 -1.33333 294.814 80.57)"/><path d="M0 0q.849-.126 1.698-.263C2.735-.43 3.509-.514 3.996-.514q.111 0 .203.007c.514.037.923.157 1.262.368.143.089.529.4 1.066 1.39.474.88.896 2.189 1.253 3.889.443 2.11.444 3.256.367 3.846-.098.744-.307 1.332-.623 1.744-.314.411-.786.742-1.405.987-.246.099-1.219.437-3.956.85l-.428.064Zm4.43-8.844c-.984 0-2.103.106-3.422.324a145 145 0 0 1-8.785 1.174l-1.992.204 3.023 29.129 1.987-.203c3.428-.351 6.89-.811 10.287-1.367 2.413-.394 4.322-.927 5.671-1.584 1.835-.897 3.311-2.185 4.388-3.827 1.042-1.59 1.684-3.422 1.911-5.444.216-1.939.013-4.134-.622-6.711-.54-2.198-1.306-4.094-2.274-5.635-1.184-1.878-2.586-3.351-4.167-4.38-1.248-.814-2.785-1.35-4.565-1.591a11 11 0 0 0-1.44-.089" clip-path="url(#H)" style="fill:#000;fill-opacity:1;fill-rule:nonzero;stroke:none" transform="matrix(1.33333 0 0 -1.33333 321.347 113.524)"/><path d="m0 0 .766 5.58.422 3.071c1.443-.27 1.916-.456 1.922-.459.29-.114.49-.238.574-.348.019-.024.156-.217.231-.791.038-.289.08-1.174-.341-3.176C3.159 1.894 2.733.925 2.517.524a4.2 4.2 0 0 0-.427-.666 1.3 1.3 0 0 0-.272-.045l-.069-.002C1.548-.189 1.062-.163 0 0m-10.777 22.506-.412-3.973L-13.8-6.618l-.413-3.983 3.984-.409c2.886-.296 5.801-.686 8.662-1.158 1.428-.236 2.654-.351 3.748-.351.599 0 1.171.036 1.698.106 2.088.283 3.901.922 5.401 1.9 1.823 1.187 3.427 2.865 4.764 4.986 1.085 1.725 1.934 3.819 2.527 6.226.691 2.811.909 5.235.666 7.41-.262 2.339-1.01 4.464-2.225 6.317-1.278 1.949-3.02 3.472-5.18 4.527-1.531.745-3.625 1.338-6.229 1.764a177 177 0 0 1-10.406 1.382zM1.749-4.189q.195 0 .359.013 1.235.089 2.16.664.926.575 1.769 2.137C6.6-.332 7.088 1.141 7.489 3.055c.402 1.912.536 3.419.392 4.516-.143 1.096-.481 2-1.017 2.7s-1.29 1.249-2.259 1.632c-.724.291-2.187.634-4.393.967q-1.216.183-2.434.348L-4.501-3.374q1.82-.247 3.633-.539c1.121-.179 1.992-.276 2.617-.276m-8.96 22.309q5.101-.523 10.168-1.351c2.285-.373 3.992-.861 5.118-1.409 1.514-.74 2.716-1.791 3.591-3.126.877-1.337 1.405-2.864 1.596-4.57.19-1.706-.01-3.709-.576-6.01-.497-2.02-1.18-3.702-2.027-5.049-1.036-1.644-2.225-2.896-3.564-3.768-1.012-.66-2.258-1.083-3.742-1.285a9 9 0 0 0-1.172-.071c-.886 0-1.917.103-3.096.297q-4.438.733-8.906 1.191z" clip-path="url(#I)" style="fill:#fff;fill-opacity:1;fill-rule:nonzero;stroke:none" transform="matrix(1.33333 0 0 -1.33333 324.345 111.291)"/><path d="M0 0c-1.504.463-3.034.907-4.547 1.319l-1.934.526 7.76 28.248 1.926-.525a170 170 0 0 0 5.481-1.59l1.916-.591L1.907-.588Z" clip-path="url(#J)" style="fill:#000;fill-opacity:1;fill-rule:nonzero;stroke:none" transform="matrix(1.33333 0 0 -1.33333 347.735 130.782)"/><path d="m0 0-1.057-3.848-3.35-12.195-3.351-12.196-1.062-3.866 3.869-1.053c1.492-.406 3-.843 4.482-1.3l3.814-1.175 1.184 3.81 5.31 17.084 2.198 7.072 1.19 3.829-3.831 1.181a176 176 0 0 1-5.545 1.609zm2.8-4.908a170 170 0 0 0 5.418-1.571L.709-30.635q-2.295.707-4.609 1.337z" clip-path="url(#K)" style="fill:#fff;fill-opacity:1;fill-rule:nonzero;stroke:none" transform="matrix(1.33333 0 0 -1.33333 347.574 87.386)"/><path d="M0 0a142 142 0 0 1-16.568 6.895l-1.896.651 9.579 27.687 1.887-.648a171 171 0 0 0 19.491-8.074l1.799-.88-3.647-7.434-1.794.877A162 162 0 0 1-2.71 24.178l-.576-1.502a161 161 0 0 0 10.514-4.603l1.804-.869L5.44 9.763l-1.8.866a152 152 0 0 1-9.887 4.332l-1.034-2.694A150 150 0 0 0 3.658 7.409l1.796-.886L1.792-.883Z" clip-path="url(#L)" style="fill:#000;fill-opacity:1;fill-rule:nonzero;stroke:none" transform="matrix(1.33333 0 0 -1.33333 375.553 141.84)"/><path d="m0 0-1.305-3.772-1.138-3.289-7.133-20.618-1.311-3.789 3.791-1.302a140 140 0 0 0 16.333-6.797l3.584-1.767 1.771 3.581.123.25 1.767 3.572 1.774 3.589-1.291.637 1.266 2.624.146.302 1.708 3.537.692 1.434.906-.443 1.76 3.587 1.273 2.595.612 1.248 1.764 3.596-3.598 1.759a173 173 0 0 1-19.719 8.17zm2.475-5.079a168 168 0 0 0 19.262-7.98l-1.885-3.843a164 164 0 0 1-13.587 5.898l-2.01-5.236a158 158 0 0 0 12.228-5.263l-1.854-3.839A154 154 0 0 1 2.728-20.22L.261-26.649a147 147 0 0 0 12.635-5.509l-1.89-3.822a143 143 0 0 1-16.802 6.993z" clip-path="url(#M)" style="fill:#fff;fill-opacity:1;fill-rule:nonzero;stroke:none" transform="matrix(1.33333 0 0 -1.33333 362.057 91.477)"/><path d="M0 0c-1.318.948-2.67 1.885-4.021 2.786l-.943.629.056 1.133c.202 4.085.254 8.231.156 12.388l-5.754-10.06-1.736.993a136 136 0 0 1-3.917 2.157l-1.768.938 13.743 25.882 1.766-.936c1.67-.886 3.335-1.805 4.947-2.73l.91-.522.087-1.047c.378-4.562.585-9.143.62-13.685l6.777 10.122 1.663-1.115a174 174 0 0 0 4.488-3.118l1.621-1.166L1.626-1.169Z" clip-path="url(#N)" style="fill:#000;fill-opacity:1;fill-rule:nonzero;stroke:none" transform="matrix(1.33333 0 0 -1.33333 401.986 157.71)"/><path d="m0 0-1.875-3.531-8.196-15.436-3.671-6.912-1.877-3.536 3.537-1.875c1.291-.684 2.59-1.4 3.861-2.126l3.472-1.985 1.985 3.472 1.038 1.814a161 161 0 0 0-.167-4.787l-.112-2.266 1.887-1.259a140 140 0 0 0 3.964-2.746l3.252-2.338 2.334 3.256L24.17-19.688l2.327 3.247-3.243 2.331a174 174 0 0 1-4.541 3.154l-3.325 2.232-2.228-3.328-2.159-3.224a185 185 0 0 1-.469 7.504l-.173 2.093-1.822 1.046c-1.636.938-3.32 1.867-5.005 2.761zm1.658-5.406a169 169 0 0 0 4.888-2.697c.565-6.818.741-13.569.537-20.216l9.401 14.042a169 169 0 0 0 4.435-3.081L6.18-37.925A143 143 0 0 1 2.102-35.1c.318 6.401.273 12.906-.145 19.481l-8.193-14.324a144 144 0 0 1-3.973 2.188z" clip-path="url(#O)" style="fill:#fff;fill-opacity:1;fill-rule:nonzero;stroke:none" transform="matrix(1.33333 0 0 -1.33333 395.302 104.977)"/><path d="M0 0a143 143 0 0 1-3.743 3.264L-5.27 4.548 8.212 20.657a161 161 0 0 1-4.961 3.91L1.66 25.771l4.986 6.612 1.597-1.209a171 171 0 0 0 17.756-15.489l1.408-1.412-5.843-5.866-1.417 1.42a162 162 0 0 1-4.625 4.457L1.488-1.344Z" clip-path="url(#P)" style="fill:#000;fill-opacity:1;fill-rule:nonzero;stroke:none" transform="matrix(1.33333 0 0 -1.33333 418.214 170.807)"/><path d="m0 0-2.412-3.199-2.241-2.972-.337-.447-2.403-3.188 3.184-2.409q1.676-1.269 3.329-2.59l-7.994-9.552-2.903-3.469-2.561-3.06 3.053-2.568a140 140 0 0 0 3.69-3.217l2.977-2.689 2.68 2.985 4.37 4.865 6.959 7.75a160 160 0 0 0 3.087-3.013l2.835-2.84 2.831 2.843 1.132 1.137 1.887 1.895 2.814 2.826-2.817 2.822A173 173 0 0 1 3.195-2.418Zm.781-5.608a168 168 0 0 0 17.548-15.307l-3.019-3.032a165 165 0 0 1-6.182 5.881L-4.914-33.703a142 142 0 0 1-3.796 3.31L4.78-14.274a163 163 0 0 1-6.575 5.248z" clip-path="url(#Q)" style="fill:#fff;fill-opacity:1;fill-rule:nonzero;stroke:none" transform="matrix(1.33333 0 0 -1.33333 426.552 123.89)"/><path d="M0 0a146 146 0 0 1-12.408 14.896l-1.376 1.443L7.354 36.616l1.385-1.452a176 176 0 0 0 14.6-17.468l1.18-1.613-6.679-4.889-1.181 1.614a169 169 0 0 1-8.63 10.833l-1.198-1.07a167 167 0 0 0 7.878-9.823l1.191-1.606-6.631-4.923-1.193 1.607a158 158 0 0 1-7.408 9.242l-2.15-1.92A156 156 0 0 0 6.682 4.855l1.175-1.617-6.681-4.856Z" clip-path="url(#R)" style="fill:#000;fill-opacity:1;fill-rule:nonzero;stroke:none" transform="matrix(1.33333 0 0 -1.33333 444.885 200.53)"/><path d="m0 0-2.895-2.777-8.682-8.328-9.57-9.18-2.877-2.76 2.751-2.887A144 144 0 0 0-9.036-40.623l2.352-3.237 3.236 2.352 2.165 1.573 1.281.931 3.236 2.351-.925 1.273 2.341 1.738 3.419 2.539 1.27.943.651-.889 3.228 2.362 2.126 1.556 1.326.97 3.227 2.362-2.361 3.228A178 178 0 0 1 2.769-2.904zm-.126-5.664a173 173 0 0 0 14.433-17.269l-3.451-2.526A170 170 0 0 1 .784-12.971l-4.181-3.734a164 164 0 0 0 9.082-11.186l-3.42-2.539a160 160 0 0 1-8.84 10.887l-5.134-4.584a153 153 0 0 0 9.356-11.641l-3.446-2.504a148 148 0 0 1-12.579 15.101z" clip-path="url(#S)" style="fill:#fff;fill-opacity:1;fill-rule:nonzero;stroke:none" transform="matrix(1.33333 0 0 -1.33333 454.775 147.932)"/></svg>