<svg xmlns="http://www.w3.org/2000/svg" xmlns:xlink="http://www.w3.org/1999/xlink" viewBox="123.1 3.8 54.3 59"><defs><radialGradient id="radial-gradient" cx="153.1" cy="41.8" r="15.9" fx="153.1" fy="41.8" gradientTransform="translate(-1.5 -1.1)" gradientUnits="userSpaceOnUse"><stop offset="0" stop-color="#f70000"/><stop offset="1" stop-color="#b70000"/></radialGradient><radialGradient id="radial-gradient-2" cx="134.4" cy="19.4" r="18.8" fx="134.4" fy="19.4" gradientTransform="translate(-1.5 -1.1)" gradientUnits="userSpaceOnUse"><stop offset="0" stop-color="#0064b3"/><stop offset=".2" stop-color="#004198"/><stop offset="1" stop-color="#172060"/></radialGradient><linearGradient id="Nueva_muestra_de_degradado_1" x1="160" x2="160.4" y1="27.2" y2="27.2" data-name="Nueva muestra de degradado 1" gradientTransform="translate(-1.5 -1.1)" gradientUnits="userSpaceOnUse"><stop offset="0" stop-color="#d9af26"/><stop offset=".3" stop-color="#b2933c"/><stop offset=".5" stop-color="#dec891"/><stop offset=".6" stop-color="#d9af26"/><stop offset=".8" stop-color="#dec891"/><stop offset="1" stop-color="#d9af26"/></linearGradient><linearGradient xlink:href="#Nueva_muestra_de_degradado_1" id="Nueva_muestra_de_degradado_1-2" x1="124.6" x2="178.4" y1="40" y2="40" data-name="Nueva muestra de degradado 1"/><style>.cls-7,.cls-8{stroke-width:0}.cls-7{fill:#c1aa44}.cls-8{fill:#a98f00}</style></defs><g style="isolation:isolate"><g id="Capa_1" data-name="Capa 1"><path d="m150.4 61.1 25.5-44.8-38.5 22.8z" style="stroke-width:0;fill:url(#radial-gradient)"/><path d="m175.6 16.4-51.3-.1L137.6 39z" style="stroke-width:0;fill:url(#radial-gradient-2)"/><path d="M142.8 25.4h-1.3v-3.6h6.8v3.6H147v13s.1 2.1 3.3 2c3 0 3.4-2.1 3.4-2.1v-13h-1.3v-3.6h6.8v3.6h-1.3v13s-.8 6.1-7.5 6c-6.9 0-7.7-6-7.7-6v-13Z" style="stroke-width:0;fill:#f7f7f6"/><path d="m177.2 16.1-.3-.4-53.3.4 13.7 23.8.1.2 12.7 22.2.7.4L177 16.3m-51.5 0 49.7.4-15 9.1v-4.1l-.5-.4-7.4.4-.2 4.1.2.9h1.3v3.1l-5.6 3.4v-6.5h1.4v-4.9l-.7-.4-7.3.4-.5 4.1.5.7h1.3l-.2 9.7-4.2 2.4-12.8-22.3ZM153.6 39s-.2 1.5-2.8 1.6h-.2c-2.4 0-2.5-1.5-2.5-1.6v-4.9l5.6-3.4V39Zm-6.2-13.5V39s.2 2.2 3.3 2.2h.1c3.1 0 3.5-2.2 3.5-2.3V25.4H153v-3.1h6.4v3.1h-1.3v13.5s-1.1 5.6-7.5 5.6c-6.6 0-7.2-5.4-7.3-5.6V25.6l-1-.2-.2-3.1h6.5v3.1h-1.3Zm3.8 35.1-12.3-21.1 3.8-2.2V39s.9 6.7 8.2 6.7c7 0 8.2-5.7 8.2-6.9V27.3l16.4-10-24.4 43.3Z" style="stroke-width:0;fill:#bbbbba;mix-blend-mode:multiply"/><path d="m176.9 15.7-26.6 46.6.9.5 26.2-46.4-.5-.6Z" style="stroke-width:0;fill:#87784b"/><path d="M152.4 21.7v3.6h1.3v13s-.4 2-3.4 2.1c-3.1 0-3.3-2-3.3-2v-13h1.3v-3.6h-6.8v3.6h1.3v13s.8 6 7.7 6c6.7 0 7.5-6 7.5-6v-13h1.3v-3.6h-6.8Z" style="stroke-width:0;fill:#fff"/><path d="m158.9 26-.4.2z" style="fill:url(#Nueva_muestra_de_degradado_1);stroke-width:0"/><path d="m123.1 15.6 13.8 23.6.1.2 13.3 22.8 26.6-46.6zm1.3.8h50.5l-15 9h-.1v-4.2h-7.7v4.4h1.3v3.7l-5.9 3.6v-7.2h1.3v-4.5h-7.7v4.4h1.3v10.3l-4.8 2.9-13.1-22.5Zm34.5 9.6-.4.2v-.6h1l-.5.3Zm-1.3 1.6v10.1s.1 2.6-1.6 4.4c-1.2 1.3-3.1 2-5.5 1.9s-4.5-.7-5.8-1.9c-1.6-1.6-1.6-3.7-1.6-3.7V24.9h-1.3v-2.8h6.1v2.8h-1.3v13.5s0 .8.6 1.5 1.7 1 3.1 1c3.7 0 3.8-2.5 3.8-2.5V24.9h-1.3v-2.8h6v2.8h-1.3v2.7Zm-4.2 10.7s-.2 1.7-3 1.7-2-.3-2.5-.7c-.4-.4-.4-.9-.4-.9v-4.7l5.9-3.6zm-3.2 22.5-12.4-21.4 4.4-2.7v1.6s0 2.4 1.8 4.3c1.4 1.5 3.6 2.2 6.4 2.2s4.8-.7 6.1-2.2c2-2.1 1.8-4.9 1.8-5V27l16.8-10.1L150 60.8Z" style="stroke-width:0;fill:url(#Nueva_muestra_de_degradado_1-2)"/><path d="M128.7 9.4V4l1.1 3.9z" class="cls-8"/><path d="M129.8 7.9h4l-5.1 1.5z" class="cls-7"/><path d="m128.7 9.4 5.1-1.5-3.2 2.2z" class="cls-8"/><path d="m128.7 9.4 1.9.7 1.1 4z" class="cls-7"/><path d="m128.7 9.4 3 4.7-3-2.6z" class="cls-8"/><path d="m128.7 11.5-3.3 2.7 3.3-4.8z" class="cls-7"/><path d="m128.7 9.4-3.3 4.8 1.1-4.1z" class="cls-8"/><path d="m126.5 10.1-3.2-2.2 5.4 1.5z" class="cls-7"/><path d="m128.7 9.4-5.4-1.5h4z" class="cls-8"/><path d="m128.7 9.4-1.4-1.5 1.4-3.9z" class="cls-7"/><path d="M139.5 9.3V4l1.2 3.9z" class="cls-8"/><path d="M140.7 7.9h3.9l-5.1 1.4z" class="cls-7"/><path d="m139.5 9.3 5.1-1.4-3.2 2.1z" class="cls-8"/><path d="m139.5 9.3 1.9.7 1.1 4z" class="cls-7"/><path d="m139.5 9.3 3 4.7-3-2.6z" class="cls-8"/><path d="m139.5 11.4-3.2 2.7 3.2-4.8z" class="cls-7"/><path d="m139.5 9.3-3.2 4.8 1.1-4.1z" class="cls-8"/><path d="m137.4 10-3.2-2.1 5.3 1.4z" class="cls-7"/><path d="m139.5 9.3-5.3-1.4h4z" class="cls-8"/><path d="m139.5 9.3-1.3-1.4 1.3-3.9z" class="cls-7"/><path d="M161.3 9.4V4l1.2 3.9z" class="cls-8"/><path d="M162.5 7.9h4l-5.2 1.5z" class="cls-7"/><path d="m161.3 9.4 5.2-1.5-3.3 2.2z" class="cls-8"/><path d="m161.3 9.4 1.9.7 1.1 4z" class="cls-7"/><path d="m161.3 9.4 3 4.7-3-2.6z" class="cls-8"/><path d="m161.3 11.5-3.2 2.7 3.2-4.8z" class="cls-7"/><path d="m161.3 9.4-3.2 4.8 1-4.1z" class="cls-8"/><path d="m159.1 10.1-3.2-2.2 5.4 1.5z" class="cls-7"/><path d="m161.3 9.4-5.4-1.5h4z" class="cls-8"/><path d="m161.3 9.4-1.4-1.5 1.4-3.9z" class="cls-7"/><path d="M172.1 9.3V4l1.1 3.9z" class="cls-8"/><path d="M173.2 7.9h3.7l-4.8 1.4z" class="cls-7"/><path d="m172.1 9.3 4.8-1.4-3 2.1z" class="cls-8"/><path d="m172.1 9.3 1.8.7 1 4z" class="cls-7"/><path d="m172.1 9.3 2.8 4.7-2.8-2.6z" class="cls-8"/><path d="m172.1 11.4-3.1 2.7 3.1-4.8z" class="cls-7"/><path d="m172.1 9.3-3.1 4.8 1-4.1z" class="cls-8"/><path d="m170 10-3-2.1 5.1 1.4z" class="cls-7"/><path d="M172.1 9.3 167 7.9h3.8z" class="cls-8"/><path d="m172.1 9.3-1.3-1.4 1.3-3.9z" class="cls-7"/><path d="M150.3 9.4V3.8l1.2 4.1z" class="cls-8"/><path d="M151.5 7.9h4.1l-5.3 1.5z" class="cls-7"/><path d="m150.3 9.4 5.3-1.5-3.3 2.2z" class="cls-8"/><path d="m150.3 9.4 2 .7 1.1 4.2z" class="cls-7"/><path d="m150.3 9.4 3.1 4.9-3.1-2.7z" class="cls-8"/><path d="m150.3 11.6-3.3 2.8 3.3-5z" class="cls-7"/><path d="m150.3 9.4-3.3 5 1.1-4.3z" class="cls-8"/><path d="m148.1 10.1-3.3-2.2 5.5 1.5z" class="cls-7"/><path d="m150.3 9.4-5.5-1.5h4.1z" class="cls-8"/><path d="m150.3 9.4-1.4-1.5 1.4-4.1z" class="cls-7"/></g></g></svg>