<svg xmlns="http://www.w3.org/2000/svg" viewBox="14.83 228.33 1733.46 1328.04"><!-- Source: https://football-logos.cc --><path fill="#2b2c27" fill-rule="evenodd" d="M1343.71 497.77V653.5l.01 147.52q-.71 12.61-.03 25.26l.03 22.01q.13 2.37-1.4 3.07-5.7 2.58-10.12 5.74a2.141 2.131-17.789 0 0-.9 1.74v91.8a1.262 1.249 82.912 0 1-.94 1.22q-17.69 4.53-35.66 7.43-.93.27-1.67-.53l-.07-37.55-.06-470.46a2.523 2.511 14.555 0 0-1.3-2.2c-9.61-5.28-20.78-11.35-32.29-16.28q-21.29-9.1-25.78-10.8-47.89-18.13-98.06-30.54a.577.569 84.467 0 0-.65.8q8.52 18.46 13.78 38.31l1.14 4.28.11.87q3.78 13.96 5.98 27.96a2.55 2.55 4.734 0 0 1.72 2.03c19.57 6.45 38.82 13.55 58.13 22.38 10.59 4.85 19 8.73 25.58 13.37a2.077 2.073-72.294 0 1 .87 1.69l-.09 466.61q-64.6 11.72-130.04 18.27-85.25 8.53-163.25 10.69-76.95 2.13-135.92-.22-50.45-2.01-62.83-2.77-100.29-6.22-199.14-21.35-14.43-2.21-28.81-5.21.38-1.18.38-1.39-.11-433.4-.07-465.59a1.684 1.674-15.525 0 1 .82-1.44q5.58-3.27 12.93-6.87 37.61-18.41 77.71-30.23a1.387 1.378 87.927 0 0 .97-1.05l5.09-24.59q4.32-3.37 5.35-7.04 3.25-11.55 8.17-24.24 2.72-7.01 3.59-16.15a.483.481-86.071 0 0-.46-.53l-1.5-.08q-25.64 5.84-36.48 9.11c-8.53 2.57-17.77 4.93-25.35 7.41q-41.12 13.4-75.25 29.23-13.97 6.48-25.29 13.2a1.055 1.052-14.795 0 0-.52.89c-.33 23.05-.01 44.53-.16 66.95q-.45 70.46-.4 156.52 0 1.89.04 26.75.21 129.81.16 259.8-2.57-.13-5.64-.75-21.87-4.45-26.82-5.59-3.45-.79-3.75-.84-1.48-.21-1.58-3.35-.5-14.91-.42-29.77.04-6.57.35-60.11a2.544 2.527 15.305 0 0-1.27-2.21l-11.36-6.56a.815.774 5.381 0 1-.34-.39q-.36-.88-.36-1.94l-.04-434.97a1.106 1.101 71.947 0 1 .45-.89q7.78-5.67 16.01-10.67 20.51-12.44 39.15-21.08 18.24-8.45 36.22-15.61a3.289 3.117-57.846 0 1 .78-.2q1.04-.15 1.62-.41 6.81-3.05 15.23-5.9c9.12-3.08 17.44-6.35 28.33-9.45q20.5-5.83 29.17-8.34.57-.17 1.51-.71a1.713 1.693-57.014 0 1 .96-.21q1.46.12 3.26-.35 9.74-2.54 19.42-5.14 2.68-.72 4-.89c2.06-.26 3.6-.17 5.38-.92q1.98-.83 24.26-5.49 17.83-3.73 32.7-6.04 2.38-.36 3.59-1.67 13.96-15.03 28.99-27.76 19.57-16.58 44.91-30.51 23.66-13 50.12-20.7 31.06-9.03 62.62-11.16 12.26-.83 34 .12 26.37 1.16 55.57 9.13c41.7 11.39 79.61 32.82 111.05 62.18q7.76 7.25 19.98 20.53.9.98 4.1 1.52 44.6 7.62 95.76 21.68 1.25.35 5.04 1.42 37.23 10.5 73.95 25.8 32.03 13.35 62.34 32.12 6.5 4.03 12.04 8.38a1.63 1.63 19.167 0 1 .62 1.28zM1074.4 355.61a.318.312 85.171 0 0 .34-.41q-3.34-10.67-7.91-21c-3.16-7.13-6.95-11.28-13.24-17.23q-15.74-14.86-32.69-25.79c-25.93-16.74-55.43-29.28-87.07-35.16-7.81-1.45-15.02.73-23 3.09q-1.76.52-12.32 3.77a.325.322 60.055 0 0-.14.53c12.38 13.41 20.98 28.51 27.01 45.81a.975.958-2.184 0 0 .67.61q.63.17 8.82 2.31 29.61 7.76 54.27 23.2 7.26 4.54 16.14 11.52 9.23 7.26 15.08 12.79a1.802 1.8-30.112 0 0 1.66.44q3.4-.81 14.66-2.85c11.96-2.18 25.44-3.26 37.72-1.63m-323.46 19.98c32.85-10.15 68.28-12.25 102.47-7.59a3.116 3.112 23.483 0 0 2.82-1.11q5.06-6.14 10.74-12.74c6.2-7.2 13.12-12.96 22.6-21.08q14.59-12.48 32.07-22.33a.718.707 65.83 0 0 .32-.86c-5.39-15.45-13.57-30.76-24.7-42.87q-3.16-3.44-9.07-4.43c-18.14-3.02-37.06-4.15-54.57-1.54q-31.98 4.78-58.67 20.15-1.59.92-8.11 5.7-4.38 3.2-7.66 6.31-18.07 17.05-30.45 38.77a2.84 2.816-39.807 0 0-.22 2.31c2.12 6.24 4.34 12.46 7.52 18.38q6.05 11.27 14.13 22.66a.7.697-25.786 0 0 .78.27m28.096-100.992a1.69.28-37.2 0 0-1.515.799 1.69.28-37.2 0 0-1.177 1.245 1.69.28-37.2 0 0 1.515-.799 1.69.28-37.2 0 0 1.177-1.245M667.1 380.59q17.59-22.18 41.49-38.74 7.09-4.91 14.34-8.36a4.222 4.191-87.724 0 0 1.87-1.74q11.69-20.78 28.85-37.49c4.38-4.27 8.53-7.46 15.34-13.11a.29.285-78.331 0 0-.31-.48q-11.59 6.14-18.89 10.87-4.43 2.87-18.41 13.35-12.63 9.47-23.53 20.45-9.86 9.95-26.57 31.92-4.45 5.85-14.36 22.93a.287.135-48.405 0 0-.05.17q.02.04-.02.09a.153.133-11.78 0 0 .25.14m355.28-16.43q.61 4.48.49 9.34-.99 39.18-11.68 76.33a1.429 1.417-56.729 0 0 .26 1.28q10.17 12.48 19.83 26.35 19.96 28.69 31.92 61.63a.42.42-12.218 0 0 .42.27q24.51-2.25 51.33-6.54a2.637 2.618-85.993 0 0 2.09-1.83q5.76-18.99 7.4-38.13c1.95-22.73.61-46.76-5.08-69.48q-1.76-6.99-3.29-10.13-2.55-5.21-7.21-12.28-13.57-20.56-30.08-38.96c-1.61-1.79-3.05-3.06-5.68-3.3q-4.98-.45-10.87-.34-19.48.38-39.34 5.04a.682.672 79.633 0 0-.51.75m-168.7 7.49q-3.32-.65-6.4-.97-38.82-4.03-77.03 3.28-5.96 1.14-15.82 4.33c-2.69.87-5.07 2.56-6.59 4.58q-22.51 29.74-35.94 64.31-5.07 13.08-7.55 25.29-.4 1.95.8 5.35c6.91 19.63 16.33 37.49 26.87 55.09 6.74 11.27 13.41 20.41 21.22 31.49a.705.69 72.162 0 0 .57.3q41.53-.77 83.35-4.78c4.58-.44 10.3-.52 14.32-.62a1.097 1.08-78.678 0 0 .96-.65c14.57-33.31 28.82-61.29 47.51-98.19q.56-1.1 1.39-3.35a2.824 2.816 42.056 0 0-.12-2.27q-21.06-42.23-46.74-82.64a1.213 1.211 79.474 0 0-.8-.55m-197.9 31.41q-14.63 33.35-19.45 69.96c-1.86 14.06-1.66 27.77-1.16 42.35a.232.232-41.248 0 0 .46.03c2.47-14.72 6.31-28.08 13.38-40.81a4.165 4.164-34.085 0 0 .49-2.54c-2.95-22.92-.05-46.62 6.71-68.83a.236.228 19.33 0 0-.14-.28h-.01a.215.215-56.613 0 0-.28.12m469.76 32.6a.167.165 30.663 0 0-.32.08q.94 7.1 2.38 17.53 1.05 7.64.88 19.98-.33 25.23-5.59 49.63-.41 1.94-3.05 11.04a4.12 4.08-41.623 0 0-.11 1.72q1.41 9.8.44 22.06-1.14 14.54-3.52 27.03-3.66 19.2-10.42 35.01-.28.66-.17 1.26a.226.226-35.499 0 0 .42.07q6.91-12.23 11.45-23.88 1.35-3.46 6.62-19.32c6.94-20.89 10.32-42.24 11.55-64.23q.8-14.33-.78-30.76-1.6-16.53-4.7-30.44-1.97-8.83-5.08-16.78m-220.83 22.99q-7.37 15.33-9.19 18.88-17.6 34.23-34.41 70.81-4.5 9.8-5.16 11.93a1.062 1.054 37.181 0 0 .13.92q4.24 6.49 9.25 15.22 19.01 33.09 41.62 67.26a3.037 3.029-13.534 0 0 2.18 1.33c34.06 3.81 68.88 1.91 101.8-8.8a6.518 6.496-80.837 0 0 3.27-2.37c6.73-9.22 12.33-17.14 18.3-27.69q16.95-29.94 27.84-61.4a4.889 4.86-45.353 0 0-.01-3.17q-8.65-24.52-21.87-46.51c-9.47-15.75-18.12-27.18-29.48-41.95a3.199 3.19 72.048 0 0-2.42-1.24q-16.71-.54-34.56.7-22.26 1.56-58.81 4.58-4.8.39-7.77.96a.994.987-82.063 0 0-.71.54m-158.27 190.3c-.91-3.76-1.66-6.16-1.85-9.6q-.72-12.96.07-25.21 1.49-22.92 6.13-44.82a2.74 2.74-39.987 0 0 0-1.18q-.49-2.23-2.51-4.93-21.3-28.49-37.14-61.56-5.94-12.38-9.16-23.31-1.04-3.5-4.5-3.66-18.46-.84-40.16.05c-4.1.17-5.72 1.38-7.37 4.8q-7.16 14.91-10.11 32.52-1.51 8.99-2.9 17.73a8.337 8.324-42.912 0 0-.08 2.15q2.26 26.04 11.31 52.08 3.49 10.05 9.19 19.56 15.12 25.22 35.58 45.2a3.503 3.427 76.593 0 0 1.19.75q3.45 1.32 5.21 1.7 23.04 5.02 46.71-1.61a.548.546-14.555 0 0 .39-.66M596.86 517c-2.45-1.12-4.5 1.04-5.71 2.95-10.82 17-19.54 36.11-22.04 55.66-1.36 10.68-2.9 17.93-2.42 26.66.83 15.04 2.82 30.7 7.33 45.99q3.05 10.31 7.22 22.07c5.71 16.12 14.85 28.9 21.66 40.75q3.3 5.75 6.55 10.21c5.94 8.17 10.52 16.25 16.75 23.55 9.59 11.23 12.37 14.43 21.82 24.88q2.3 2.54 5.31 9.3a.22.216-1.533 0 1-.28.29q-.01 0-2.4-1.44c-3.56-2.13-6.83-5.36-9.37-7.16q-3.2-2.26-6.41-5.49-11.41-11.49-16.13-16.85-3.05-3.45-10.82-13.77c-4.03-5.36-6.44-10.98-9.87-15.69-6.37-8.75-9.68-18.42-16.2-28.4q-7.04-10.79-13.18-21.44-3.31-5.73-4.6-9.63-5.57-16.88-13.45-32.51-.93-1.84-2.64-3.19-2.45-1.94-4.29-5.36a.585.581-52.751 0 0-1.08.15l-.73 3.21-2.17 8.18a1.846 1.825 49.866 0 0-.05.63q.18 1.66-.58 3.73-1.5 4.09-2.6 14.84-3.53 34.53 8.75 68.18 5.16 14.12 15.81 31.33 4.88 7.89 13.43 17.93 9.46 11.09 15.1 16.64 14.82 14.57 32.59 27.64 15.65 11.52 44.99 28.76c6.49 3.81 14.41 7.63 21.03 11.16 31.95 17.06 66.38 30.69 100.1 41.88q2.67.89 6.18 1.71a.133.13 49.993 0 1-.02.26q-6.2.3-10.74-.4-22.74-3.5-31.91-5.95-17.59-4.71-18.95-5.08-24.55-6.75-50.24-18.51-9.65-4.42-19.26-10-18.76-10.88-36.57-23.7-24.46-17.6-51.02-43.77-10.84-10.68-18.71-20.62-.92-1.17-1.52-.84-.31.18-.32.51-.03 5.84.61 11.63-1.16-4.05-.93-8.49-.21 3.47-.21 3.61a2.247 2.217-29.988 0 1-.27.98q-2.04 3.67-1.5 7.21c1.08 6.96 2.55 16.55 6.06 24.49q5.7 12.88 11.65 23.03c5.57 9.5 11.19 15.35 19.68 24.61 7.05 7.68 15.89 11.52 22.89 19.06q1.5 1.61 7.73 8.08a.509.509 73.944 0 1-.47.85l-10.19-2.07c5.04 11.91 13.33 23.51 22.21 32.99q7.18 7.68 16.32 13.62 23.77 15.44 51.97 19.34 6.17.85 12.25 1.47c2.43 5.82-.39 8.78-6.24 9.32q-10.51.98-17.51.95-.86 0-1.45.04a.712.71 63.642 0 0-.42 1.25q.85.74 1.9.72 9.03 7.6 21.2 13.82 14.78 7.54 28.53 9.48 28.12 3.95 54.46-4.41c2.78-.88 5.17-2.06 7.79-2.73q2.63-.66 5.87-2 14.43-5.94 27.17-12.99.23-.13.76-.01a.253.25-48.974 0 1 .03.48q-1.04.41-1.89 1.1-16.24 13.13-33.55 24.26a.317.314-57.878 0 0 .13.58q16.13 1.98 31.48-2.91 10.82-3.45 19.03-10.32 3.45-2.88 7.98-7.59a.384.383-34.975 0 1 .63.11l8.09 18.99a.362.359-54.631 0 0 .69-.12q.85-11.07-1.07-21.66c-1.64-9.03-1.5-19.27-.34-27.72q.38-2.73.44-6.59c.12-8.33-1.29-11.83-8.72-15.94q-9.8-5.43-20.94-12.59-38.44-24.67-71.95-52.84c-35.13-29.53-65.44-62.78-89.76-99.41q-24.96-37.57-41.82-81.43-10.8-28.06-18.67-62.24-7.41-32.21-11.39-64.03-1.48-11.83-2.83-26.7a.64.638 59.857 0 0-1.16-.31zm555.16 363.31c-.53-3.18-2.51-7.32.9-9.69q6.46-4.49 9.76-6.53a29.437 29.059-82.704 0 0 5.17-4.05q6.38-6.25 8.01-7.57 4.28-3.46 7.63-8.08c9.33-12.9 15.84-20.63 19.84-33.83q1.13-3.74 4.68-15.01 2.18-6.94 2.46-16.85c.12-3.97-1.1-8.17-1.16-12.22a.282.28-17.237 0 0-.44-.23l-.31.22q-1.56 1.28-2.86 2.74c-19.26 21.66-40.89 40.72-62.44 57.55q-30.58 23.88-67.59 40.66c-17.79 8.07-35.92 13.91-54.39 18.88q-25.87 6.96-51.55 8.54a3.04 2.699-37.088 0 1-.76-.06q-1-.24-2.03-.17a.024.015-76.717 0 1-.01-.03q0-.01.01-.02a.08.074-78.251 0 1 .07-.05q4.76-.75 9.35-2.17 21.92-6.75 39.72-14.06c7.25-2.97 12.89-4.83 19.32-7.73q21.43-9.64 37.94-18 25.78-13.05 52.39-30.36c18.8-12.23 36.45-26.35 51.89-42.25q4-4.12 6.27-6.88c5.12-6.22 10.48-11.8 14.75-17.95q10.07-14.51 17.69-31.57 12.68-28.39 12.37-58.97-.11-10.51-1.82-23.24-1.61-12-5.15-22.74a.177.176-43.145 0 0-.33-.01q-9.93 23.64-23.01 49.6-11.93 23.67-24.43 44.57c-12.15 20.28-25.08 38.75-41.08 55.62q-15.83 16.7-32.65 30.59-30.77 25.42-63.86 45.9c-6.14 3.8-12.98 7.25-19.63 11.14a.483.481 56.999 0 1-.65-.14l-.01-.02a.46.45-35.403 0 1 .11-.61c33.59-25.6 64.55-52.37 93.17-82.86 16.06-17.12 31.87-36.01 44.6-56.22q8.86-14.05 11.88-19.55 7.53-13.68 12.33-24.91 12.01-28.12 15.6-58.73c2.56-21.81-2.13-45-10.38-65.08-4.99-12.13-11.04-24.52-19.36-34.63a.497.495 27.265 0 0-.88.28q-1.61 24.21-5.4 48.45-2.67 17.07-4.09 22.96-1.55 6.45-2.76 13.21c-1.66 9.2-4.37 18.44-6.84 28.32q-1.63 6.5-4.37 15.02-14.73 45.85-37.26 84.71-25.06 43.23-59.3 79.17-24.96 26.21-47.72 45.03-25.84 21.38-59.82 44.18-14.82 9.95-29.26 18.23-4.68 2.69-6.21 5.1c-3.25 5.12-3.08 10.47-2.21 17.32 1.7 13.47-.39 27.54-1.51 40.95q-.41 4.93.71 9.39a.321.319-41.978 0 0 .61.03l7.63-20.03a.411.408 37.695 0 1 .72-.09c8.33 11.76 24.59 18.67 38.36 20.88q9.2 1.48 19.1.08a.376.375-31.834 0 0 .16-.68q-16.34-11.29-25.46-18.12-4.64-3.47-7.97-7.44a.278.275-4.085 0 1 .36-.41c7.38 4.52 16.58 9.25 25.76 12.79q11.47 4.42 12.14 4.64 26.1 8.5 53.54 5.61c8.59-.91 17.95-3.46 24.95-6.58q7.33-3.26 18.35-10.14c3.95-2.47 7.39-5.44 11.16-8.04a.434.431-62.088 0 0-.24-.79c-31.39 0-62.25-2.72-92.5-9.86q-30.25-7.14-62.01-22.07a.226.225-66.625 0 1-.11-.28l.11-.28a.327.324 19.325 0 1 .4-.19q24.89 8.17 49.08 14.15c31.86 7.88 63.98 10.92 96.43 5.75 15.19-2.42 28.15-6.89 41.28-14.3q19.62-11.08 32.53-29.21 7.36-10.35 12.46-20.88a.247.246 3.695 0 0-.3-.34zm-48.87-253.72q-.51.49-5.88 7.33-1.73 2.22-6.88 7.85-4.95 5.41-19.42 18.94-13.98 13.06-30.88 21.67a.524.514 61.38 0 1-.69-.21q-12.31-21.94-25.85-42.57a.689.678-25.226 0 0-.77-.27c-11.95 3.83-25.16 7.07-38.13 8.73q-29.74 3.83-60.21.85-4.64-.46-7.49-.29a1.111 1.094-70.48 0 0-.74.36c-3.57 4.08-7.3 10.29-11.28 15.03-13.8 16.47-31.3 30.5-51.8 38.49a.554.552 64.865 0 0-.28.78q11.19 20.49 27.41 36.44 8.35 8.21 18 9.69 11.38 1.74 25.49.87 21.95-1.35 43.13-7.21 2.57-.71 6.38-2.05c5.32-1.87 11-3.36 15.9-5.34q35.48-14.37 65.88-39.32 7.28-5.97 15.88-14.77 12.95-13.25 15.01-15.68 15.81-18.64 27.5-39.1a.181.179 82.835 0 0-.28-.22m-209.3 126.46-10.54-.99a.777.711-29.086 0 1-.21-.05q-8.29-2.85-14.76-9.1c-11.6-11.19-21.15-24.44-29.63-38.71a2.792 2.776-7.47 0 0-1.65-1.26c-16.78-4.68-33.39-10.9-48.82-20.13q-22.04-13.18-39.16-29.62a1.782 1.77-31.159 0 0-1.73-.42q-25.27 7.5-52.04 1.04a.404.398-3.846 0 0-.47.53c4.01 10.57 7.57 18.44 15.49 26.26 14.91 14.73 31.9 27.47 48.97 37.87q17.9 10.9 37.7 18.31 36.72 13.74 75.74 16.46 6.21.43 12.34-.21a8.446 8.011 43.145 0 1 1.67-.01q6.12.6 7.07.63a.302.299 48.184 0 0 .03-.6" data-source="https://football-logos.cc"></path><path fill="#fff" fill-rule="evenodd" d="M1074.4 355.61c-12.28-1.63-25.76-.55-37.72 1.63q-11.26 2.04-14.66 2.85a1.802 1.8-30.112 0 1-1.66-.44q-5.85-5.53-15.08-12.79-8.88-6.98-16.14-11.52-24.66-15.44-54.27-23.2-8.19-2.14-8.82-2.31a.975.958-2.184 0 1-.67-.61c-6.03-17.3-14.63-32.4-27.01-45.81a.325.322 60.055 0 1 .14-.53q10.56-3.25 12.32-3.77c7.98-2.36 15.19-4.54 23-3.09 31.64 5.88 61.14 18.42 87.07 35.16q16.95 10.93 32.69 25.79c6.29 5.95 10.08 10.1 13.24 17.23q4.57 10.33 7.91 21a.318.312 85.171 0 1-.34.41"></path><path fill="#fff" fill-rule="evenodd" d="M750.94 375.59a.7.697-25.786 0 1-.78-.27q-8.08-11.39-14.13-22.66c-3.18-5.92-5.4-12.14-7.52-18.38a2.84 2.816-39.807 0 1 .22-2.31q12.38-21.72 30.45-38.77 3.28-3.11 7.66-6.31 6.52-4.78 8.11-5.7 26.69-15.37 58.67-20.15c17.51-2.61 36.43-1.48 54.57 1.54q5.91.99 9.07 4.43c11.13 12.11 19.31 27.42 24.7 42.87a.718.707 65.83 0 1-.32.86q-17.48 9.85-32.07 22.33c-9.48 8.12-16.4 13.88-22.6 21.08q-5.68 6.6-10.74 12.74a3.116 3.112 23.483 0 1-2.82 1.11c-34.19-4.66-69.62-2.56-102.47 7.59"></path><path fill="#a9a7a8" fill-rule="evenodd" d="M779.036 274.598a1.69.28-37.2 0 1-1.177 1.245 1.69.28-37.2 0 1-1.515.799 1.69.28-37.2 0 1 1.177-1.245 1.69.28-37.2 0 1 1.515-.799"></path><path fill="#fff" fill-rule="evenodd" d="M666.85 380.45q.04-.05.02-.09a.287.135-48.405 0 1 .05-.17q9.91-17.08 14.36-22.93 16.71-21.97 26.57-31.92 10.9-10.98 23.53-20.45 13.98-10.48 18.41-13.35 7.3-4.73 18.89-10.87a.29.285-78.331 0 1 .31.48c-6.81 5.65-10.96 8.84-15.34 13.11q-17.16 16.71-28.85 37.49a4.222 4.191-87.724 0 1-1.87 1.74q-7.25 3.45-14.34 8.36-23.9 16.56-41.49 38.74a.153.133-11.78 0 1-.25-.14M1022.38 364.16a.682.672 79.633 0 1 .51-.75q19.86-4.66 39.34-5.04 5.89-.11 10.87.34c2.63.24 4.07 1.51 5.68 3.3q16.51 18.4 30.08 38.96 4.66 7.07 7.21 12.28 1.53 3.14 3.29 10.13c5.69 22.72 7.03 46.75 5.08 69.48q-1.64 19.14-7.4 38.13a2.637 2.618-85.993 0 1-2.09 1.83q-26.82 4.29-51.33 6.54a.42.42-12.218 0 1-.42-.27q-11.96-32.94-31.92-61.63-9.66-13.87-19.83-26.35a1.429 1.417-56.729 0 1-.26-1.28q10.69-37.15 11.68-76.33.12-4.86-.49-9.34M854.48 372.2q25.68 40.41 46.74 82.64a2.824 2.816 42.056 0 1 .12 2.27q-.83 2.25-1.39 3.35c-18.69 36.9-32.94 64.88-47.51 98.19a1.097 1.08-78.678 0 1-.96.65c-4.02.1-9.74.18-14.32.62q-41.82 4.01-83.35 4.78a.705.69 72.162 0 1-.57-.3c-7.81-11.08-14.48-20.22-21.22-31.49-10.54-17.6-19.96-35.46-26.87-55.09q-1.2-3.4-.8-5.35 2.48-12.21 7.55-25.29 13.43-34.57 35.94-64.31c1.52-2.02 3.9-3.71 6.59-4.58q9.86-3.19 15.82-4.33 38.21-7.31 77.03-3.28 3.08.32 6.4.97a1.213 1.211 79.474 0 1 .8.55"></path><path fill="#352b16" fill-rule="evenodd" d="m619.88 437.48.35-1.28 4.61-16.97q4.84-14.5 11.02-28.5.32-.71.13-1-.23-.34-.96-.29l1.5.08a.483.481-86.071 0 1 .46.53q-.87 9.14-3.59 16.15-4.92 12.69-8.17 24.24-1.03 3.67-5.35 7.04"></path><path fill="#e5811f" fill-rule="evenodd" d="M635.03 389.44q.73-.05.96.29.19.29-.13 1-6.18 14-11.02 28.5-5.04 4.87-6.37 11.95a1.101 1.073 80.301 0 1-.51.74q-2.94 1.78-4.89 2.23-8.94 2.01-17.38 5.3l-17.8 5.6a2.155 1.799 13.283 0 0-.56.28q-1.08.78-2.56.77a.771.766 18.623 0 0-.61.3q-.06.07-.32.29-.21.17-.74.19-1.53.03-2.44.77a1.099 1.096 30.733 0 1-.91.23q-1.21-.23-1.84.64a.881.867 17.644 0 1-.71.36h-.69a1.26 1.228-65.715 0 0-.84.33q-.68.64-1.75.65a2.074 1.991 28.426 0 0-.98.27q-2.86 1.6-4.43 1.79-.49.05-3.13 1.57a4.514 4.207-67.002 0 1-.92.41q-2.71.82-7.24 2.76-9.51 4.07-24.53 10.79-9.61 4.3-19.79 9.95-3.72 2.07-3.7 5.39.76 135.97.48 186.71-.21 39.53-.02 58.1c.2 20.41-.42 43.08-.15 63.57.48 37.22.01 77.2.26 116.58q.17 25.02-.15 41.95c-.08 4.65.22 10.23.52 15.01a.799.781 6.918 0 0 .57.71l4.28 1.23-33.21-7.35q.05-129.99-.16-259.8-.04-24.86-.04-26.75-.05-86.06.4-156.52c.15-22.42-.17-43.9.16-66.95a1.055 1.052-14.795 0 1 .52-.89q11.32-6.72 25.29-13.2 34.13-15.83 75.25-29.23c7.58-2.48 16.82-4.84 25.35-7.41q10.84-3.27 36.48-9.11M1292.96 921.21l.07 37.55q.74.8 1.67.53-12.22 2.76-20.35 4.06-3.35.53-9.65 1.03-.16-2.77-.07-4.93.21-4.87.21-4.93-.23-83.57.02-159.77.01-2.09.02-5.5.31-109.87-.02-185.5-.04-9.78.13-20.67.18-11.73.1-20.66-.28-34.46-.23-37.5c.27-13.98-.28-23.71-.27-38.68q0-3.34-.53-5.94a3.022 2.99 8.606 0 0-1.52-2.04c-12.59-6.76-27.14-13.89-41.69-19.43q-5.97-2.27-16.4-6.48a2.748 2.664 56.508 0 0-.91-.2q-1.28-.05-1.56-.23-2.14-1.36-5.5-2.66a1.25 1.244-37.008 0 0-.58-.08c-.91.08-1.85-.71-2.97-1.09q-14.59-5-25.45-8.77-7.69-2.67-17.63-4.13l-.11-.87q1.49-.59 2.87-.05 3.98 1.53 3.43 1.67a.057.053 2.043 0 1-.07-.07l.2-.53a.386.386 26.985 0 0-.15-.46l-7.42-4.84q-5.26-19.85-13.78-38.31a.577.569 84.467 0 1 .65-.8q50.17 12.41 98.06 30.54 4.49 1.7 25.78 10.8c11.51 4.93 22.68 11 32.29 16.28a2.523 2.511 14.555 0 1 1.3 2.2z"></path><path fill="#fff" fill-rule="evenodd" d="M655.78 403.06a.215.215-56.63 0 1 .28-.12h.01a.236.228 19.33 0 1 .14.28c-6.76 22.21-9.66 45.91-6.71 68.83a4.165 4.164-34.085 0 1-.49 2.54c-7.07 12.73-10.91 26.09-13.38 40.81a.232.232-41.248 0 1-.46-.03c-.5-14.58-.7-28.29 1.16-42.35q4.82-36.61 19.45-69.96"></path><path fill="#dcb248" fill-rule="evenodd" d="m624.84 419.23-4.61 16.97q-5.96-1.78-11.85-.05a.194.194-54.002 0 0 .06.38l9.63-.33a.445.428-24.272 0 1 .28.1l.34.3a.178.175-26.014 0 1-.11.31c-8.85.28-19.01 3.47-26.08 5.21q-.67.16-.17-.02 2.72-1 4.31-2.4.31-.28-.08-.29-.29-.01-.38.28-.09.3-.34.14-.14-.09-.15-.38 8.44-3.29 17.38-5.3 1.95-.45 4.89-2.23a1.101 1.073 80.301 0 0 .51-.74q1.33-7.08 6.37-11.95"></path><path fill="#b68b24" fill-rule="evenodd" d="m1149.74 434.32-1.14-4.28 7.42 4.84a.386.386 26.985 0 1 .15.46l-.2.53a.057.053 2.043 0 0 .07.07q.55-.14-3.43-1.67-1.38-.54-2.87.05"></path><path fill="#a9a7a8" fill-rule="evenodd" d="m620.23 436.2-.35 1.28-5.09 24.59a1.387 1.378 87.927 0 1-.97 1.05q-40.1 11.82-77.71 30.23-7.35 3.6-12.93 6.87a1.684 1.674-15.525 0 0-.82 1.44q-.04 32.19.07 465.59 0 .21-.38 1.39l-17.06-1.99-4.28-1.23a.799.781 6.918 0 1-.57-.71c-.3-4.78-.6-10.36-.52-15.01q.32-16.93.15-41.95c-.25-39.38.22-79.36-.26-116.58-.27-20.49.35-43.16.15-63.57q-.19-18.57.02-58.1.28-50.74-.48-186.71-.02-3.32 3.7-5.39 10.18-5.65 19.79-9.95 15.02-6.72 24.53-10.79 4.53-1.94 7.24-2.76a4.514 4.207-67.002 0 0 .92-.41q2.64-1.52 3.13-1.57 1.57-.19 4.43-1.79a2.074 1.991 28.426 0 1 .98-.27q1.07-.01 1.75-.65a1.26 1.228-65.715 0 1 .84-.33h.69a.881.867 17.644 0 0 .71-.36q.63-.87 1.84-.64a1.099 1.096 30.733 0 0 .91-.23q.91-.74 2.44-.77.53-.02.74-.19.26-.22.32-.29a.771.766 18.623 0 1 .61-.3q1.48.01 2.56-.77a2.155 1.799 13.283 0 1 .56-.28l17.8-5.6q.01.29.15.38.25.16.34-.14.09-.29.38-.28.39.01.08.29-1.59 1.4-4.31 2.4-.5.18.17.02c7.07-1.74 17.23-4.93 26.08-5.21a.178.175-26.014 0 0 .11-.31l-.34-.3a.445.428-24.272 0 0-.28-.1l-9.63.33a.194.194-54.002 0 1-.06-.38q5.89-1.73 11.85.05M1264.7 964.38q-10.67 3.13-22.66 4.85l.09-466.61a2.077 2.073-72.294 0 0-.87-1.69c-6.58-4.64-14.99-8.52-25.58-13.37-19.31-8.83-38.56-15.93-58.13-22.38a2.55 2.55 4.734 0 1-1.72-2.03q-2.2-14-5.98-27.96 9.94 1.46 17.63 4.13 10.86 3.77 25.45 8.77c1.12.38 2.06 1.17 2.97 1.09a1.25 1.244-37.008 0 1 .58.08q3.36 1.3 5.5 2.66.28.18 1.56.23a2.748 2.664 56.508 0 1 .91.2q10.43 4.21 16.4 6.48c14.55 5.54 29.1 12.67 41.69 19.43a3.022 2.99 8.606 0 1 1.52 2.04q.53 2.6.53 5.94c-.01 14.97.54 24.7.27 38.68q-.05 3.04.23 37.5.08 8.93-.1 20.66-.17 10.89-.13 20.67.33 75.63.02 185.5-.01 3.41-.02 5.5-.25 76.2-.02 159.77 0 .06-.21 4.93-.09 2.16.07 4.93"></path><path fill="#fff" fill-rule="evenodd" d="M1125.54 435.66q3.11 7.95 5.08 16.78 3.1 13.91 4.7 30.44 1.58 16.43.78 30.76c-1.23 21.99-4.61 43.34-11.55 64.23q-5.27 15.86-6.62 19.32-4.54 11.65-11.45 23.88a.226.226-35.499 0 1-.42-.07q-.11-.6.17-1.26 6.76-15.81 10.42-35.01 2.38-12.49 3.52-27.03.97-12.26-.44-22.06a4.12 4.08-41.623 0 1 .11-1.72q2.64-9.1 3.05-11.04 5.26-24.4 5.59-49.63.17-12.34-.88-19.98-1.44-10.43-2.38-17.53a.167.165 30.663 0 1 .32-.08M905.42 458.11q2.97-.57 7.77-.96 36.55-3.02 58.81-4.58 17.85-1.24 34.56-.7a3.199 3.19 72.048 0 1 2.42 1.24c11.36 14.77 20.01 26.2 29.48 41.95q13.22 21.99 21.87 46.51a4.889 4.86-45.353 0 1 .01 3.17q-10.89 31.46-27.84 61.4c-5.97 10.55-11.57 18.47-18.3 27.69a6.518 6.496-80.837 0 1-3.27 2.37c-32.92 10.71-67.74 12.61-101.8 8.8a3.037 3.029-13.534 0 1-2.18-1.33q-22.61-34.17-41.62-67.26-5.01-8.73-9.25-15.22a1.062 1.054 37.181 0 1-.13-.92q.66-2.13 5.16-11.93 16.81-36.58 34.41-70.81 1.82-3.55 9.19-18.88a.994.987-82.063 0 1 .71-.54M746.05 649.61q-23.67 6.63-46.71 1.61-1.76-.38-5.21-1.7a3.503 3.427 76.593 0 1-1.19-.75q-20.46-19.98-35.58-45.2-5.7-9.51-9.19-19.56-9.05-26.04-11.31-52.08a8.337 8.324-42.912 0 1 .08-2.15q1.39-8.74 2.9-17.73 2.95-17.61 10.11-32.52c1.65-3.42 3.27-4.63 7.37-4.8q21.7-.89 40.16-.05 3.46.16 4.5 3.66 3.22 10.93 9.16 23.31 15.84 33.07 37.14 61.56 2.02 2.7 2.51 4.93a2.74 2.74-3.014 0 1 0 1.18q-4.64 21.9-6.13 44.82-.79 12.25-.07 25.21c.19 3.44.94 5.84 1.85 9.6a.548.546-14.555 0 1-.39.66"></path><path fill="#a9a7a8" fill-rule="evenodd" d="M1343.71 497.77V653.5z"></path><path fill="#dcb248" fill-rule="evenodd" d="M689.28 958.94q-.86-.43-1.37-1.11a.289.287 71.691 0 1 .23-.46q1.42 0 3.57-.06 27.61-.73 47.26-2.67 55.89-5.54 105.72-30.47a.202.197-26.581 0 0 .09-.26.181.177 71.014 0 0-.22-.11q-24.1 8.23-48.8 14.46-29.83 7.51-60.27 8.81-11.21.48-22.49-.41-6.08-.62-12.25-1.47-28.2-3.9-51.97-19.34-9.14-5.94-16.32-13.62c-8.88-9.48-17.17-21.08-22.21-32.99q21.34 9.64 27.3 11.98 8.99 3.54 31.74 10.69 34.37 10.8 77.22 14.5c24.18 2.1 46.91.51 70.23-4.5q1.45-.31 5.26-.56a.08.033-19.108 0 0 .09-.08q-.08-.01-.09-.05a.297.107.572 0 0-.27-.1q-9.17-.39-18.72-.38-43.38 0-86.31-6.74-21.86-3.43-42.26-9.22c-13.51-3.85-28.91-9.98-40.8-15.69-21.45-10.28-40.1-24.3-54.71-43.27q-15.44-20.03-20.8-45.61-1.28-6.14-2.32-12.33-.64-5.79-.61-11.63.01-.33.32-.51.6-.33 1.52.84 7.87 9.94 18.71 20.62 26.56 26.17 51.02 43.77 17.81 12.82 36.57 23.7 9.61 5.58 19.26 10 25.69 11.76 50.24 18.51 1.36.37 18.95 5.08 9.17 2.45 31.91 5.95 4.54.7 10.74.4a.133.13 49.993 0 0 .02-.26q-3.51-.82-6.18-1.71c-33.72-11.19-68.15-24.82-100.1-41.88-6.62-3.53-14.54-7.35-21.03-11.16q-29.34-17.24-44.99-28.76-17.77-13.07-32.59-27.64-5.64-5.55-15.1-16.64-8.55-10.04-13.43-17.93-10.65-17.21-15.81-31.33-12.28-33.65-8.75-68.18 1.1-10.75 2.6-14.84.76-2.07.58-3.73a1.846 1.825 49.866 0 1 .05-.63l2.17-8.18q.13-1.66.95-2.73a.573.568 56.034 0 1 1 .2l.76 2.69v.02c10.44 24.28 21.07 46.81 33.74 69.07q12.27 21.54 12.41 21.78 5.18 9.03 16.38 25.46 8.72 12.8 18.64 23.86 16.51 18.42 30.62 30.79 23.15 20.3 55.67 42.27c10.06 6.79 21.64 13.35 32.88 19.42q1.34.72 2.41.93a.315.312-10.198 0 0 .33-.47q-.45-.73-2.11-2.11c-4.14-3.43-10.66-7.56-16.11-11.92q-39.4-31.5-71.01-64.68-21.62-22.71-42.41-51.8c-6.02-8.42-12.07-18.62-17.28-27.49-9.56-16.28-17.14-33.72-21.89-51.94-2.99-11.52-4.94-22.51-5.93-34.93q-.98-12.31.44-23.81 1.72-14.03 5.7-27.46c1.93-6.52 4.32-11.98 7.45-19.61q3.43-8.36 12.34-22.28l2.61-3.78a.64.638 59.857 0 1 1.16.31q1.35 14.87 2.83 26.7 3.98 31.82 11.39 64.03 7.87 34.18 18.67 62.24 16.86 43.86 41.82 81.43c24.32 36.63 54.63 69.88 89.76 99.41q33.51 28.17 71.95 52.84 11.14 7.16 20.94 12.59c7.43 4.11 8.84 7.61 8.72 15.94q-.06 3.86-.44 6.59c-1.16 8.45-1.3 18.69.34 27.72q1.92 10.59 1.07 21.66a.362.359-54.631 0 1-.69.12l-8.09-18.99a.384.383-34.975 0 0-.63-.11q-4.53 4.71-7.98 7.59-8.21 6.87-19.03 10.32-15.35 4.89-31.48 2.91a.317.314-57.878 0 1-.13-.58q17.31-11.13 33.55-24.26.85-.69 1.89-1.1a.253.25-48.974 0 0-.03-.48q-.53-.12-.76.01-12.74 7.05-27.17 12.99-3.24 1.34-5.87 2c-2.62.67-5.01 1.85-7.79 2.73q-26.34 8.36-54.46 4.41-13.75-1.94-28.53-9.48-12.17-6.22-21.2-13.82M1208.56 766.47q.13-.12.32-.02a.109.096 14.872 0 1 .06.09q-.21 31.74-15.03 56.84-18.09 30.62-49.93 48.53-26.59 14.96-53.54 22.45-19.15 5.32-31.58 7.69c-30.33 5.76-61.08 8.7-91.86 8.61q-18.27-.06-24.15.21a.173.161-89.863 0 0-.15.16v.01a.212.211 7.129 0 0 .18.23q9.08 1.58 18.35 3.27 22.28 4.07 47.27 2.66 40.8-2.3 80.19-13.29 31.21-8.7 63.33-23.6l1.63-.54a.247.246 3.695 0 1 .3.34q-5.1 10.53-12.46 20.88-12.91 18.13-32.53 29.21c-13.13 7.41-26.09 11.88-41.28 14.3-32.45 5.17-64.57 2.13-96.43-5.75q-24.19-5.98-49.08-14.15a.327.324 19.325 0 0-.4.19l-.11.28a.226.225-66.625 0 0 .11.28q31.76 14.93 62.01 22.07c30.25 7.14 61.11 9.86 92.5 9.86a.434.431-62.088 0 1 .24.79c-3.77 2.6-7.21 5.57-11.16 8.04q-11.02 6.88-18.35 10.14c-7 3.12-16.36 5.67-24.95 6.58q-27.44 2.89-53.54-5.61-.67-.22-12.14-4.64c-9.18-3.54-18.38-8.27-25.76-12.79a.278.275-4.085 0 0-.36.41q3.33 3.97 7.97 7.44 9.12 6.83 25.46 18.12a.376.375-31.834 0 1-.16.68q-9.9 1.4-19.1-.08c-13.77-2.21-30.03-9.12-38.36-20.88a.411.408 37.695 0 0-.72.09l-7.63 20.03a.321.319-41.978 0 1-.61-.03q-1.12-4.46-.71-9.39c1.12-13.41 3.21-27.48 1.51-40.95-.87-6.85-1.04-12.2 2.21-17.32q1.53-2.41 6.21-5.1 14.44-8.28 29.26-18.23 33.98-22.8 59.82-44.18 22.76-18.82 47.72-45.03 34.24-35.94 59.3-79.17 22.53-38.86 37.26-84.71 2.74-8.52 4.37-15.02c2.47-9.88 5.18-19.12 6.84-28.32q1.21-6.76 2.76-13.21 1.42-5.89 4.09-22.96 3.79-24.24 5.4-48.45a.497.495 27.265 0 1 .88-.28c8.32 10.11 14.37 22.5 19.36 34.63 8.25 20.08 12.94 43.27 10.38 65.08q-3.59 30.61-15.6 58.73-4.8 11.23-12.33 24.91-3.02 5.5-11.88 19.55c-12.73 20.21-28.54 39.1-44.6 56.22-28.62 30.49-59.58 57.26-93.17 82.86a.46.45-35.403 0 0-.11.61l.01.02a.483.481 56.999 0 0 .65.14c6.65-3.89 13.49-7.34 19.63-11.14q33.09-20.48 63.86-45.9 16.82-13.89 32.65-30.59c16-16.87 28.93-35.34 41.08-55.62q12.5-20.9 24.43-44.57 13.08-25.96 23.01-49.6a.177.176-43.145 0 1 .33.01q3.54 10.74 5.15 22.74 1.71 12.73 1.82 23.24.31 30.58-12.37 58.97-7.62 17.06-17.69 31.57c-4.27 6.15-9.63 11.73-14.75 17.95q-2.27 2.76-6.27 6.88c-15.44 15.9-33.09 30.02-51.89 42.25q-26.61 17.31-52.39 30.36-16.51 8.36-37.94 18c-6.43 2.9-12.07 4.76-19.32 7.73q-17.8 7.31-39.72 14.06-4.59 1.42-9.35 2.17a.08.074-78.251 0 0-.07.05q-.01.01-.01.02a.024.015-76.717 0 0 .01.03q1.03-.07 2.03.17a3.04 2.699-37.088 0 0 .76.06q25.68-1.58 51.55-8.54c18.47-4.97 36.6-10.81 54.39-18.88q37.01-16.78 67.59-40.66c21.55-16.83 43.18-35.89 62.44-57.55q1.3-1.46 2.86-2.74"></path><path fill="#352b16" fill-rule="evenodd" d="M596.86 517q-8.91 13.92-12.34 22.28c-3.13 7.63-5.52 13.09-7.45 19.61q-3.98 13.43-5.7 27.46-1.42 11.5-.44 23.81c.99 12.42 2.94 23.41 5.93 34.93 4.75 18.22 12.33 35.66 21.89 51.94 5.21 8.87 11.26 19.07 17.28 27.49q20.79 29.09 42.41 51.8 31.61 33.18 71.01 64.68c5.45 4.36 11.97 8.49 16.11 11.92q1.66 1.38 2.11 2.11a.315.312-10.198 0 1-.33.47q-1.07-.21-2.41-.93c-11.24-6.07-22.82-12.63-32.88-19.42q-32.52-21.97-55.67-42.27-14.11-12.37-30.62-30.79-9.92-11.06-18.64-23.86-11.2-16.43-16.38-25.46-.14-.24-12.41-21.78c-12.67-22.26-23.3-44.79-33.74-69.07v-.02l-.76-2.69a.573.568 56.034 0 0-1-.2q-.82 1.07-.95 2.73l.73-3.21a.585.581-52.751 0 1 1.08-.15q1.84 3.42 4.29 5.36 1.71 1.35 2.64 3.19 7.88 15.63 13.45 32.51 1.29 3.9 4.6 9.63 6.14 10.65 13.18 21.44c6.52 9.98 9.83 19.65 16.2 28.4 3.43 4.71 5.84 10.33 9.87 15.69q7.77 10.32 10.82 13.77 4.72 5.36 16.13 16.85 3.21 3.23 6.41 5.49c2.54 1.8 5.81 5.03 9.37 7.16q2.39 1.44 2.4 1.44a.22.216-1.533 0 0 .28-.29q-3.01-6.76-5.31-9.3c-9.45-10.45-12.23-13.65-21.82-24.88-6.23-7.3-10.81-15.38-16.75-23.55q-3.25-4.46-6.55-10.21c-6.81-11.85-15.95-24.63-21.66-40.75q-4.17-11.76-7.22-22.07c-4.51-15.29-6.5-30.95-7.33-45.99-.48-8.73 1.06-15.98 2.42-26.66 2.5-19.55 11.22-38.66 22.04-55.66 1.21-1.91 3.26-4.07 5.71-2.95"></path><path fill="#fff" fill-rule="evenodd" d="M1103.43 626.81q-11.69 20.46-27.5 39.1-2.06 2.43-15.01 15.68-8.6 8.8-15.88 14.77-30.4 24.95-65.88 39.32c-4.9 1.98-10.58 3.47-15.9 5.34q-3.81 1.34-6.38 2.05-21.18 5.86-43.13 7.21-14.11.87-25.49-.87-9.65-1.48-18-9.69-16.22-15.95-27.41-36.44a.554.552 64.865 0 1 .28-.78c20.5-7.99 38-22.02 51.8-38.49 3.98-4.74 7.71-10.95 11.28-15.03a1.111 1.094-70.48 0 1 .74-.36q2.85-.17 7.49.29 30.47 2.98 60.21-.85c12.97-1.66 26.18-4.9 38.13-8.73a.689.678-25.226 0 1 .77.27q13.54 20.63 25.85 42.57a.524.514 61.38 0 0 .69.21q16.9-8.61 30.88-21.67 14.47-13.53 19.42-18.94 5.15-5.63 6.88-7.85 5.37-6.84 5.88-7.33a.181.179 82.835 0 1 .28.22"></path><path fill="#fff" fill-rule="evenodd" d="M893.82 753.65q-.95-.03-7.07-.63a8.446 8.011 43.145 0 0-1.67.01q-6.13.64-12.34.21-39.02-2.72-75.74-16.46-19.8-7.41-37.7-18.31c-17.07-10.4-34.06-23.14-48.97-37.87-7.92-7.82-11.48-15.69-15.49-26.26a.404.398-3.846 0 1 .47-.53q26.77 6.46 52.04-1.04a1.782 1.77-31.159 0 1 1.73.42q17.12 16.44 39.16 29.62c15.43 9.23 32.04 15.45 48.82 20.13a2.792 2.776-7.47 0 1 1.65 1.26c8.48 14.27 18.03 27.52 29.63 38.71q6.47 6.25 14.76 9.1a.777.711-29.086 0 0 .21.05l10.54.99a.302.299 48.184 0 1-.03.6" data-source="https://football-logos.cc"></path><path fill="#352b16" fill-rule="evenodd" d="M1152.02 880.31q-32.12 14.9-63.33 23.6-39.39 10.99-80.19 13.29-24.99 1.41-47.27-2.66-9.27-1.69-18.35-3.27a.212.211 7.129 0 1-.18-.23v-.01a.173.161-89.863 0 1 .15-.16q5.88-.27 24.15-.21c30.78.09 61.53-2.85 91.86-8.61q12.43-2.37 31.58-7.69 26.95-7.49 53.54-22.45 31.84-17.91 49.93-48.53 14.82-25.1 15.03-56.84a.109.096 14.872 0 0-.06-.09q-.19-.1-.32.02l.31-.22a.282.28-17.237 0 1 .44.23c.06 4.05 1.28 8.25 1.16 12.22q-.28 9.91-2.46 16.85-3.55 11.27-4.68 15.01c-4 13.2-10.51 20.93-19.84 33.83q-3.35 4.62-7.63 8.08-1.63 1.32-8.01 7.57a29.437 29.059-82.704 0 1-5.17 4.05q-3.3 2.04-9.76 6.53c-3.41 2.37-1.43 6.51-.9 9.69M555.81 777.88q1.04 6.19 2.32 12.33 5.36 25.58 20.8 45.61c14.61 18.97 33.26 32.99 54.71 43.27 11.89 5.71 27.29 11.84 40.8 15.69q20.4 5.79 42.26 9.22 42.93 6.74 86.31 6.74 9.55-.01 18.72.38a.297.107.572 0 1 .27.1q.01.04.09.05a.08.033-19.108 0 1-.09.08q-3.81.25-5.26.56c-23.32 5.01-46.05 6.6-70.23 4.5q-42.85-3.7-77.22-14.5-22.75-7.15-31.74-10.69-5.96-2.34-27.3-11.98l10.19 2.07a.509.509 73.944 0 0 .47-.85q-6.23-6.47-7.73-8.08c-7-7.54-15.84-11.38-22.89-19.06-8.49-9.26-14.11-15.11-19.68-24.61q-5.95-10.15-11.65-23.03c-3.51-7.94-4.98-17.53-6.06-24.49q-.54-3.54 1.5-7.21a2.247 2.217-29.988 0 0 .27-.98q0-.14.21-3.61-.23 4.44.93 8.49"></path><path fill="#dcb248" fill-rule="evenodd" d="M420.59 847.79q0 1.06.36 1.94a.815.774 5.381 0 0 .34.39l11.36 6.56a2.544 2.527 15.305 0 1 1.27 2.21q-.31 53.54-.35 60.11-.08 14.86.42 29.77.1 3.14 1.58 3.35.3.05 3.75.84 4.95 1.14 26.82 5.59 3.07.62 5.64.75l33.21 7.35 17.06 1.99q14.38 3 28.81 5.21Q649.71 988.98 750 995.2q12.38.76 62.83 2.77 58.97 2.35 135.92.22 78-2.16 163.25-10.69 65.44-6.55 130.04-18.27 11.99-1.72 22.66-4.85 6.3-.5 9.65-1.03 8.13-1.3 20.35-4.06 17.97-2.9 35.66-7.43a1.262 1.249 82.912 0 0 .94-1.22v-91.8a2.141 2.131-17.789 0 1 .9-1.74q4.42-3.16 10.12-5.74 1.53-.7 1.4-3.07-.19.75-.09 1.07a.888.881-26.819 0 0 1.36.44q1.83-1.32 2.89-1.69 17.31-6.06 25.88-8.67 10.9-3.31 20.29-5.81 15.78-4.21 35.12-8.14 4.64-.95 6.61-1.45 4.66-1.19 7.43-1.18a2.796 2.755 34.809 0 0 .93-.16q3.52-1.32 8.55-1.58a2.31 2.3-62.371 0 0 1.11-.35q1.65-1.06 4.4-1.1a2.953 2.838 32.894 0 0 .98-.19q1.88-.73 4.62-.85a3.483 3.446-54.771 0 0 .9-.16c4.09-1.33 7.98-1.43 12.14-2.19q5.5-1.02 10.92-1.56.37-.03 1.14-.13 14.58-1.79 32.4-4.42c2.78-.41 5.1.03 7.63-1.15a1.597 1.56-56.965 0 1 .67-.15h7.27a.513.506-67.211 0 0 .36-.15q.41-.43 1.54-.61 10.61-1.63 18.02-1.22a2.713 2.545-53.955 0 0 1.26-.24q1.93-.88 4.07-.4a4.279 4.249 47.686 0 0 1.39.07q25.83-3.14 49.64-3.2 4.04-.01 8.41-.62 3.69-.52 8.48-.57c8.18-.07 14.33-1.02 22.71-1.36q32.47-1.31 63.37-.62 7.32.16 15.75.77 7.83.56 15.76.69a.671.67 22.041 0 1 .48 1.13q-3.92 4.15-7.02 7.04c-8.78 8.19-32.05 28.71-48.41 44.03q-2.96 2.77-15.54 14.28-41.27 37.75-82.48 74.77-7.08 6.35-13.84 12.94a.885.88 48.52 0 0-.07 1.19q10.77 13.14 21.95 26.26 64.47 75.74 92.26 107.64 2.56 2.95 4.94 6.47a.847.845 61.542 0 1-.37 1.25q-.45.19-1.28.19-44.32.02-88.75 3.03-9.53.65-16.48 1.42c-7.81.86-14.25 1.05-22.01 1.87q-34 3.58-73.52 9.62-3.09.47-7.18 1.43a1.748 1.745 83.296 0 0-1.34 1.7v92.14a1.825 1.82-8.052 0 1-1.32 1.75q-1.14.34-4.97 1.51-21.91 6.68-42.94 12.38-50.04 13.56-100.98 24.24-27.98 5.87-58.54 11.45-13.79 2.52-27.47 4.88-3.22-1.32-7.58-.73-5.77.79-29.77 3.75-6.22.77-11.63 1.82-12.99 2.53-26.91 4.29-3.69.47-11.87 3.43a22.351 22.013-59.108 0 1-3.97 1.03q-17.42 2.82-37.27 4.58-6.38.57-9.37 1.66c-5.61 2.04-9.42 6.52-13.68 10.51l6.35-8.29a.415.414 29.349 0 0-.18-.64q-4.24-1.69-8.93-.73-11.01 2.23-21.73 2.55-78.86 6.26-131.46 7.41c-52.18 1.14-104.6 1.23-156.75-1.16q-49.88-2.29-100.29-6.23-7.32-.44-12.5-1.19-.76-.11-1.87-.7a2.677 2.611-28.609 0 0-1.14-.32q-4.22-.23-10.53-1.14-2.73-.4-4.33-.05-2.9.62-2.25 3.01-1.59-2.34-4.94-2.97-13.49-2.55-16.69-2.71-7.85-.42-20.17-2.21c-4.41-.65-8.75-.44-13.16-1.19q-2.03-.35-4.34-.49l-80.1-12.06q-1.42-.34-3.3-.84-1.53-.4-3.32-.69-28.71-4.69-62.32-11.61-39.38-8.1-40.28-8.44a5.982 4.433 17.042 0 1-.78-.32q-3.02-1.38-7.23-1.7a3.991 3.911 55.041 0 1-.96-.18q-2.5-.8-6.09-1.34-3.98-.6-6.18-1.12c-15.12-3.56-27.23-6.32-38.89-9.55q-4.19-1.16-9.2-2.43-30.89-7.87-62.04-17.94a.711.703 9.141 0 1-.49-.67v-92.66a1.255 1.252-83.283 0 0-.96-1.22c-14.34-3.55-28.15-5.08-42.88-7.28q-14.84-2.22-37.27-4.44-64.03-6.34-128.83-6.15a.929.925-69.73 0 1-.7-1.53l9.76-11.46a.576.555 68.698 0 0 .15-.36q.05-.65.71-.89.29-.11.87-.79 35.95-42.15 45.68-53.95c12.92-15.66 26.62-31.1 37.47-43.83q.03-.03 3.67-3.92 2.03-2.16 3.43-4.1 3.97-5.48 8.17-9.46a3.722 3.712-5.632 0 0 .65-.79c1.29-2.11 1.86-3.21 3.39-4.76q2.54-2.58 5.05-5.88a1.24 1.236 40.211 0 0-.14-1.64q-14.38-13.63-31.12-28.3-11.98-10.5-31.53-28.19-59.25-53.61-104.75-95.53-.69-.64-.58-1.46.09-.66.79-.66c13.7-.01 29.3-1.25 39.11-1.25q44.03.02 58.25.72 22.07 1.09 40.25 1.92 10.29.47 22.04 1.3c14.5 1.02 30.12 2.75 42.31 3.77q6.78.56 23.78 2.64 15.41 1.89 23.74 2.95 54.8 6.97 106.04 20.91 4.73 1.29 8.19 2.45 3.23 1.08 5.44 1.5 2.42.45 5.49 1.4 14.23 4.38 28.25 9.56a1.58.921 17.824 0 0 1.91-.42zm-145.84 56.47q2.55.67 6.19 2.07 18.71 7.17 22.1 8.51 5.87 2.31 10.75 3.81c7.94 2.43 12.37 4.46 19.81 6.12q2.36.53 8.95 2.61c13.68 4.33 32.2 9.3 49.13 14.06q16.55 4.64 34.16 8.01a.852.846 5.368 0 0 1.01-.83V863.1a.623.623-7.781 0 0-.79-.6l-151.31 41.38a.197.197-66.55 0 0 0 .38m1064.26 45.61q23.92-5.88 53.2-13.93c4.77-1.31 9.12-2.84 13.49-4.06q31.73-8.8 45.54-13.94 14.66-5.46 15.92-5.82c7.2-2.05 14.08-5.96 21.29-8.09a.568.561 46.963 0 0 .03-1.07q-2.13-.8-5.12-.77a4.748 4.543 50.077 0 1-1.17-.13q-7.78-1.89-14.96-4.22c-6.84-2.22-12.65-3.55-20.07-6-2.66-.88-6.43-1.52-8.64-2.14q-45.78-12.76-99.1-27.03a1.051 1.046 7.456 0 0-1.32 1.01v85.48a.737.732-6.842 0 0 .91.71m-950.049 88.9a.69.69 85.301 0 0-.807.54l-28.206 139.058a.69.69-37.28 0 0 .545.814l77.25 14.957a.69.69 70.029 0 0 .808-.546l3.448-17.805a.69.69-72.53 0 0-.547-.809l-41.604-8.048a.69.69 46.946 0 1-.547-.809l23.258-120.145a.69.69 5.934 0 0-.546-.808zm969.979 60.02a.575.573 77.63 0 0 .44-.69q-2.25-9.68-4.42-22.32c-1.3-7.54-3.85-14.59-9.43-19.09-8.29-6.68-18.17-8.64-28.96-8.04q-13.22.74-27.76 5.42c-11.42 3.67-22.53 11.33-24.79 23.62q-.84 4.59.98 15.58 11.86 71.63 13.88 83.1c2.36 13.44 10.72 21.44 23.91 24.03q13.76 2.69 27.85.07c16.14-3.01 37.08-9.14 40.81-28.01q1.06-5.33-1.11-16.58-3.08-15.92-3.95-20.45-.33-1.7-.64-2.31a1.098 1.08-18.929 0 0-1.17-.56l-32.54 6.53a1.003.991 80.547 0 0-.79 1.12c1.5 10.57 4.23 22.13 5.38 30.85q.59 4.53-1.76 7.86a2.222 2.215-86.727 0 1-.76.68c-4.34 2.43-11.2 3.44-15.44.32q-2.15-1.59-3.14-5.82-1.37-5.84-2.18-10.4-10.28-57.53-14.69-82.99-1.59-9.2 6.5-12.22c6.09-2.28 12.23 0 13.76 6.62 1.45 6.19 3.11 15.73 5.94 30.2a.304.294 78.507 0 0 .35.24zm-876.591 102.352a.75.75 88.175 0 0 .859-.623l22.324-140.078a.75.75-74.213 0 0-.622-.859l-32.616-5.205a.75.75-88.036 0 0-.858.616l-23.6 139.881a.75.75 22.927 0 0 .621.865zm95.091-63.752q.24-.26.69-.29 6.78-.39 12.13-3c7.68-3.76 9.97-11.53 11.07-19.61q1.11-8.16 1.95-17.97c1.48-17.34-11.59-26.09-26.45-30.11q-15.3-4.15-30.3-3.39c-14.97.76-27.8 5.59-31.55 21.24q-.73 3.04-1.77 9.97-4.79 32.04-8.24 55-3.38 22.43-4.24 31.77c-1.91 20.55 19.52 29.28 35.83 31.9 18.03 2.89 43.49 4.61 53.34-14.48q1.8-3.5 3.17-14.08 2.28-17.76 2.86-21.91 1.76-12.61-6.55-19.29c-3.56-2.85-7.19-3.92-11.78-5.18a.344.344-60.694 0 1-.16-.57m658.525-71.273a.35.35 52.664 0 0-.392-.302l-75.481 9.791a.35.35 11.903 0 0-.302.387l16.27 140.919a.35.35 11.84 0 0 .388.308l35.599-4.109a.35.35 70.982 0 0 .307-.393l-8.779-67.701a.35.35-59.496 0 1 .302-.392l40.926-5.31a.35.35 29.545 0 0 .302-.392l-2.31-17.806a.35.35 30.587 0 0-.392-.302l-41.071 5.329a.35.35-60.764 0 1-.393-.307l-4.049-35.054a.35.35 26.443 0 1 .302-.387l40.881-5.301a.35.35 77.38 0 0 .302-.392zM683.35 1204.93l-42.2-4.05a.665.663-84.121 0 1-.6-.74l5.11-47.15a.844.836 5.603 0 1 .91-.74l39.58 3.8a.482.472-83.992 0 0 .52-.43l1.72-17.99a.644.634-84.603 0 0-.57-.7q-29.97-2.78-36.55-3.28-2.35-.18-3.19-.6a.991.989-73.432 0 1-.54-1l3.65-33.66a.754.745 5.824 0 1 .82-.66l39.84 3.82a.633.633 45.102 0 0 .69-.57l1.72-17.92a.875.874-84.483 0 0-.79-.96l-74.63-7.17a.41.41-10.162 0 0-.45.37l-15.35 141.37a.464.463 6.969 0 0 .4.51q16.32 2.15 32.44 3.43 21.91 1.74 45.72 3.95a.644.634 5.397 0 0 .7-.57l1.74-18.21a.774.774-2.602 0 0-.69-.85m85.78-46.22c10.29-.95 19.87-6.64 21.95-17.71q2-10.7 2.39-23.73.31-10.55-2.05-15.67-3.45-7.47-10.67-11.59-9.73-5.55-20.01-7.15-16.48-2.57-30.7-.05c-13.1 2.32-24.65 8.22-26.29 22.91q-.94 8.42-1.42 15.79-3.44 53.13-7.28 103.51a.804.802-86.208 0 0 .76.87l34.6 1.95a.59.59 3.339 0 0 .63-.56l3.44-61.01a.806.806 35.516 0 1 .76-.76q8.31-.55 14.77 2.73a4.669 4.616 80.546 0 1 1.12.81c3.62 3.5 4.52 8.02 4.2 13q-2.05 32.69-3.3 46.58a.37.361 3.804 0 0 .35.39l34.88 1.97a.48.48 2.921 0 0 .51-.46q2.25-43.57 2.34-45.55c.38-9.25-.69-15.49-8.72-20.78q-5.15-3.39-12.28-4.36a.57.568 46.113 0 1 .02-1.13m246.32 70.79q30.15-1.53 44.04-2.37 7.57-.45 16.31-2.34c17.66-3.83 30.88-13.22 31.03-33.01q.04-5.73-.54-12.53-2.7-31.53-5.02-59.99c-1.14-14.13-6.09-25.46-20.05-31.04q-12.01-4.8-24.72-4.04c-16.27.98-32.32 2.22-48.49 2.59a.521.52 87.299 0 0-.5.55l7.66 141.93a.271.261-2.16 0 0 .28.25m-62.552-53.96q7.16-.2 10.235-.396a.536.534 87.166 0 1 .567.516l1.86 55.43a.42.42 66.134 0 0 .44.4l34.97-1.17a.561.56 87.488 0 0 .54-.59q-2.63-59.22-3.76-88.23-.39-9.81-1.449-27.768c-1.434-24.221-26.538-29.066-45.923-28.525-19.384.541-44.18 6.777-44.261 31.04q-.056 17.99.101 27.806.489 29.028 1.164 88.302a.561.56 89.316 0 0 .572.559l34.981-.781a.42.42 58.208 0 0 .417-.424l-1.233-55.447a.536.534 89.639 0 1 .538-.547q3.081.025 10.241-.175m-105.347 57.114q8.73.139 17.527.113a.537.529-89.301 0 0 .532-.527l1.39-123.67a.49.49-89.403 0 1 .49-.48l28.5.32a.67.67 79.866 0 0 .68-.66l.19-17.04a.671.662-89.516 0 0-.66-.681q-14.781-.092-46.377-.594-31.595-.501-46.372-.878a.671.662-88.666 0 0-.681.66l-.351 17.037a.67.67 86.083 0 0 .659.682l28.496.584a.49.49-88.779 0 1 .474.495l-2.534 123.652a.537.529-88.88 0 0 .515.544q8.791.305 17.522.443m569.261-75.843a1.21 1.21 22.892 0 0-1.443-.919l-30.218 6.706a1.21 1.21-78.824 0 0-.919 1.443l4.476 20.168a1.21 1.21-38.164 0 0 1.443.919l30.218-6.706a1.21 1.21 85.085 0 0 .919-1.443zm-150.276 26.647a.54.54 0 0 0-.612-.456l-31.487 4.593a.54.54 0 0 0-.457.612l3.104 21.275a.54.54 0 0 0 .612.456l31.487-4.593a.54.54 0 0 0 .457-.612z"></path><path fill="#a9a7a8" fill-rule="evenodd" d="M1343.72 801.02q.71 12.62-.03 25.26-.68-12.65.03-25.26"></path><path fill="#b68b24" fill-rule="evenodd" d="M274.75 904.26a.197.197-9.277 0 1 0-.38l151.31-41.38a.623.623-7.781 0 1 .79.6v85.52a.852.846 5.368 0 1-1.01.83q-17.61-3.37-34.16-8.01c-16.93-4.76-35.45-9.73-49.13-14.06q-6.59-2.08-8.95-2.61c-7.44-1.66-11.87-3.69-19.81-6.12q-4.88-1.5-10.75-3.81-3.39-1.34-22.1-8.51-3.64-1.4-6.19-2.07M1339.01 949.87a.737.732-6.842 0 1-.91-.71v-85.48a1.051 1.046 7.456 0 1 1.32-1.01q53.32 14.27 99.1 27.03c2.21.62 5.98 1.26 8.64 2.14 7.42 2.45 13.23 3.78 20.07 6q7.18 2.33 14.96 4.22a4.748 4.543 50.077 0 0 1.17.13q2.99-.03 5.12.77a.568.561 46.963 0 1-.03 1.07c-7.21 2.13-14.09 6.04-21.29 8.09q-1.26.36-15.92 5.82-13.81 5.14-45.54 13.94c-4.37 1.22-8.72 2.75-13.49 4.06q-29.28 8.05-53.2 13.93M1293.03 958.76l-.07-37.55z"></path><path fill="#352b16" fill-rule="evenodd" d="M689.28 958.94q-1.05.02-1.9-.72a.712.71 63.642 0 1 .42-1.25q.59-.04 1.45-.04 7 .03 17.51-.95c5.85-.54 8.67-3.5 6.24-9.32q11.28.89 22.49.41 30.44-1.3 60.27-8.81 24.7-6.23 48.8-14.46a.181.177 71.014 0 1 .22.11.202.197-26.581 0 1-.09.26q-49.83 24.93-105.72 30.47-19.65 1.94-47.26 2.67-2.15.06-3.57.06a.289.287 71.691 0 0-.23.46q.51.68 1.37 1.11"></path><path fill-rule="evenodd" d="m388.961 1038.77 33.052 6.399a.69.69 51.947 0 1 .546.808l-23.258 120.145a.69.69 13.027 0 0 .547.809l41.604 8.048a.69.69-41.376 0 1 .547.809l-3.448 17.805a.69.69-46.812 0 1-.808.546l-77.25-14.957a.69.69-34.354 0 1-.545-.814l28.206-139.058a.69.69 81.209 0 1 .807-.54M1358.94 1098.79l-33.73 6.76a.304.294 78.507 0 1-.35-.24c-2.83-14.47-4.49-24.01-5.94-30.2-1.53-6.62-7.67-8.9-13.76-6.62q-8.09 3.02-6.5 12.22 4.41 25.46 14.69 82.99.81 4.56 2.18 10.4.99 4.23 3.14 5.82c4.24 3.12 11.1 2.11 15.44-.32a2.222 2.215-86.727 0 0 .76-.68q2.35-3.33 1.76-7.86c-1.15-8.72-3.88-20.28-5.38-30.85a1.003.991 80.547 0 1 .79-1.12l32.54-6.53a1.098 1.08-18.929 0 1 1.17.56q.31.61.64 2.31.87 4.53 3.95 20.45 2.17 11.25 1.11 16.58c-3.73 18.87-24.67 25-40.81 28.01q-14.09 2.62-27.85-.07c-13.19-2.59-21.55-10.59-23.91-24.03q-2.02-11.47-13.88-83.1-1.82-10.99-.98-15.58c2.26-12.29 13.37-19.95 24.79-23.62q14.54-4.68 27.76-5.42c10.79-.6 20.67 1.36 28.96 8.04 5.58 4.5 8.13 11.55 9.43 19.09q2.17 12.64 4.42 22.32a.575.573 77.63 0 1-.44.69M482.349 1201.142l-33.892-5.403a.75.75 45.06 0 1-.621-.865l23.6-139.881a.75.75-49.084 0 1 .858-.616l32.616 5.205a.75.75-52.029 0 1 .622.859l-22.324 140.078a.75.75-76.212 0 1-.859.623M577.44 1137.39a.344.344-60.694 0 0 .16.57c4.59 1.26 8.22 2.33 11.78 5.18q8.31 6.68 6.55 19.29-.58 4.15-2.86 21.91-1.37 10.58-3.17 14.08c-9.85 19.09-35.31 17.37-53.34 14.48-16.31-2.62-37.74-11.35-35.83-31.9q.86-9.34 4.24-31.77 3.45-22.96 8.24-55 1.04-6.93 1.77-9.97c3.75-15.65 16.58-20.48 31.55-21.24q15-.76 30.3 3.39c14.86 4.02 27.93 12.77 26.45 30.11q-.84 9.81-1.95 17.97c-1.1 8.08-3.39 15.85-11.07 19.61q-5.35 2.61-12.13 3-.45.03-.69.29m-31.81-12.32q4.51.57 10.09.48c7.75-.13 10.43-5.28 11.7-12.12q1.32-7.09 2.62-17.62.55-4.41-.03-6.07-3.16-9.13-12.47-8.43-7.14.54-8.11 7.21-2.21 15.18-5 34.99a1.38 1.374 7.553 0 0 1.2 1.56m-4.16 17.8q-3.2 22.02-5.46 40.13-.6 4.83.64 7.88c1.85 4.51 7.72 5.85 12.2 5.36 5.1-.55 7.98-4.77 8.68-9.48q2.12-14.32 3.83-30.48c1.29-12.16-10.05-13.95-19.12-14.06a.768.765 4.721 0 0-.77.65M1235.965 1066.117l2.41 18.586a.35.35-63.023 0 1-.302.392l-40.881 5.301a.35.35-9.675 0 0-.302.387l4.049 35.054a.35.35 84.837 0 0 .393.307l41.071-5.329a.35.35 34.557 0 1 .392.302l2.31 17.806a.35.35-48.859 0 1-.302.392l-40.926 5.31a.35.35 80.739 0 0-.302.392l8.779 67.701a.35.35-77.19 0 1-.307.393l-35.599 4.109a.35.35 27.863 0 1-.388-.308l-16.27-140.919a.35.35-42.228 0 1 .302-.387l75.481-9.791a.35.35-68.572 0 1 .392.302M641.15 1200.88l42.2 4.05a.774.774 41.078 0 1 .69.85l-1.74 18.21a.644.634 5.397 0 1-.7.57q-23.81-2.21-45.72-3.95-16.12-1.28-32.44-3.43a.464.463 6.969 0 1-.4-.51l15.35-141.37a.41.41-32.829 0 1 .45-.37l74.63 7.17a.875.874-84.483 0 1 .79.96l-1.72 17.92a.633.633-27.328 0 1-.69.57l-39.84-3.82a.754.745 5.824 0 0-.82.66l-3.65 33.66a.991.989-73.432 0 0 .54 1q.84.42 3.19.6 6.58.5 36.55 3.28a.644.634-84.603 0 1 .57.7l-1.72 17.99a.482.472-83.992 0 1-.52.43l-39.58-3.8a.844.836 5.603 0 0-.91.74l-5.11 47.15a.665.663-84.121 0 0 .6.74"></path><path fill="#dcb248" fill-rule="evenodd" d="M545.63 1125.07a1.38 1.374 7.553 0 1-1.2-1.56q2.79-19.81 5-34.99.97-6.67 8.11-7.21 9.31-.7 12.47 8.43.58 1.66.03 6.07-1.3 10.53-2.62 17.62c-1.27 6.84-3.95 11.99-11.7 12.12q-5.58.09-10.09-.48"></path><path fill-rule="evenodd" d="M769.13 1158.71a.57.568 46.113 0 0-.02 1.13q7.13.97 12.28 4.36c8.03 5.29 9.1 11.53 8.72 20.78q-.09 1.98-2.34 45.55a.48.48 2.921 0 1-.51.46l-34.88-1.97a.37.361 3.804 0 1-.35-.39q1.25-13.89 3.3-46.58c.32-4.98-.58-9.5-4.2-13a4.669 4.616 80.546 0 0-1.12-.81q-6.46-3.28-14.77-2.73a.806.806-6.182 0 0-.76.76l-3.44 61.01a.59.59 3.339 0 1-.63.56l-34.6-1.95a.804.802-86.208 0 1-.76-.87q3.84-50.38 7.28-103.51.48-7.37 1.42-15.79c1.64-14.69 13.19-20.59 26.29-22.91q14.22-2.52 30.7.05 10.28 1.6 20.01 7.15 7.22 4.12 10.67 11.59 2.36 5.12 2.05 15.67-.39 13.03-2.39 23.73c-2.08 11.07-11.66 16.76-21.95 17.71m-32.15-10.61c8.54 1.13 19.79.93 21.57-9.86q1.29-7.81 1.35-26.21c.03-8.72-4.41-13.53-13.37-12.48-6.63.79-8.38 7.23-8.6 12.95q-.77 19.18-1.61 30.27-.2 2.65.05 4.71a.703.702.528 0 0 .61.62M1015.45 1229.5a.271.261-2.16 0 1-.28-.25l-7.66-141.93a.521.52 87.299 0 1 .5-.55c16.17-.37 32.22-1.61 48.49-2.59q12.71-.76 24.72 4.04c13.96 5.58 18.91 16.91 20.05 31.04q2.32 28.46 5.02 59.99.58 6.8.54 12.53c-.15 19.79-13.37 29.18-31.03 33.01q-8.74 1.89-16.31 2.34-13.89.84-44.04 2.37m27.933-125.207 6.861 103.292a1.6 1.6-11.121 0 0 1.702 1.491l7.614-.506a12.48 12.17 86.2 0 0 11.316-13.259l-5.419-81.58a12.48 12.17 86.2 0 0-12.97-11.646l-7.613.505a1.6 1.6 90 0 0-1.491 1.703M950.378 1085.207c19.385-.541 44.489 4.304 45.923 28.525q1.059 17.958 1.449 27.768 1.13 29.01 3.76 88.23a.561.56 87.488 0 1-.54.59l-34.97 1.17a.42.42 66.083 0 1-.44-.4l-1.86-55.43a.536.534 87.166 0 0-.567-.516q-3.075.196-10.235.396t-10.241.175a.536.534 89.639 0 0-.538.547l1.233 55.447a.42.42 58.835 0 1-.417.424l-34.981.781a.561.56 89.316 0 1-.572-.559q-.675-59.274-1.164-88.302-.157-9.816-.101-27.806c.081-24.263 24.877-30.499 44.261-31.04m-7.631 71.744 19.072-.566a1.05 1.05 80.782 0 0 1.018-1.08l-1.258-42.392a10.02 8.71 88.3 0 0-9.003-9.757l-3.758.112a10.02 8.71 88.3 0 0-8.409 10.274l1.258 42.391a1.05 1.05 7.553 0 0 1.08 1.018M849.823 1089.435q31.596.502 46.377.594a.671.662-89.516 0 1 .66.681l-.19 17.04a.67.67-60.25 0 1-.68.66l-28.5-.32a.49.49-89.403 0 0-.49.48l-1.39 123.67a.537.529-89.301 0 1-.532.527q-8.797.026-17.527-.113-8.731-.138-17.522-.443a.537.529-88.88 0 1-.515-.544l2.534-123.652a.49.49-88.779 0 0-.474-.495l-28.496-.584a.67.67-48.904 0 1-.659-.682l.351-17.037a.671.662-88.666 0 1 .681-.66q14.777.377 46.372.878"></path><path fill="#dcb248" fill-rule="evenodd" d="M736.37 1147.48q-.25-2.06-.05-4.71.84-11.09 1.61-30.27c.22-5.72 1.97-12.16 8.6-12.95 8.96-1.05 13.4 3.76 13.37 12.48q-.06 18.4-1.35 26.21c-1.78 10.79-13.03 10.99-21.57 9.86a.703.702.528 0 1-.61-.62M1043.383 1104.293a1.6 1.6-75.711 0 1 1.491-1.703l7.613-.505a12.48 12.17 86.2 0 1 12.97 11.646l5.419 81.58a12.48 12.17 86.2 0 1-11.316 13.259l-7.614.506a1.6 1.6 21.821 0 1-1.702-1.491zM942.747 1156.951a1.05 1.05 32.768 0 1-1.08-1.018l-1.258-42.391a10.02 8.71 88.3 0 1 8.409-10.274l3.758-.112a10.02 8.71 88.3 0 1 9.003 9.757l1.258 42.392a1.05 1.05-66.76 0 1-1.018 1.08zM541.47 1142.87a.768.765 4.721 0 1 .77-.65c9.07.11 20.41 1.9 19.12 14.06q-1.71 16.16-3.83 30.48c-.7 4.71-3.58 8.93-8.68 9.48-4.48.49-10.35-.85-12.2-5.36q-1.24-3.05-.64-7.88 2.26-18.11 5.46-40.13"></path><path fill-rule="evenodd" d="m1416.812 1156.811 4.476 20.168a1.21 1.21-60.343 0 1-.919 1.443l-30.218 6.706a1.21 1.21 15.312 0 1-1.443-.919l-4.476-20.168a1.21 1.21 49.4 0 1 .919-1.443l30.218-6.706a1.21 1.21 28.56 0 1 1.443.919M1269.64 1204.733a.54.54 0 0 1-.457.612l-31.487 4.593a.54.54 0 0 1-.612-.456l-3.104-21.275a.54.54 0 0 1 .457-.612l31.487-4.593a.54.54 0 0 1 .612.456z"></path><path fill="#e5811f" fill-rule="evenodd" d="m1252.75 1266.02-6.31 1.09a.022.019 48.563 0 0 0 .04q.01.01.03.02a.1.1 90 0 0 .06 0q.49-.1.7.13l-13.21 1.82-64.16 9.98a3.621 3.561 17.836 0 0-1.97.99l-17.09 16.68c-8.27 3.68-13.73 9.87-18.23 17.57q-9.05 8.8-18.38 17.34-20.47 18.75-38.43 34.4c-12.71 11.07-24.53 20.59-36.22 30.45q-12.97 10.94-27.69 22.23-28.26 21.69-56.5 41.07-23.63 16.23-41.93 26.82-4.86 2.82-14.43 8.11-3.08 1.71-15.83 7.27a2.576 2.496-52.417 0 1-1.3.19q-1.98-.21-4.19-1.15-19.26-8.21-39-20.77-62.96-40.07-121.74-89.47-18.25-15.34-42.67-36.88c-27.13-23.94-53.52-48.33-78.47-74.64q2.31.14 4.34.49c4.41.75 8.75.54 13.16 1.19q12.32 1.79 20.17 2.21 3.2.16 16.69 2.71 3.35.63 4.94 2.97l25.53 23.2a.858.727-4.731 0 0 .21.15q2.02 1.14 2.73 2.02c1.42 1.77 3.48 2.66 5.22 4.77q.91 1.1 2.62 2.34.31.23 4.91 4.67c3.17 3.07 7.11 5.91 10.43 8.97q2.52 2.32 5.36 4.53 6.03 4.68 8.82 7.2c2.44 2.21 5.33 3.91 8.07 6.34 6.58 5.84 15.13 12.18 19.47 16.04q3.2 2.85 8.18 6.45 2.46 1.78 7.92 6.38.89.75 4.58 3.29 2.21 1.52 4.48 3.34 14.99 12.01 24.62 18.45 13 8.7 20.68 14.28 3.26 2.37 9.01 5.72 3.62 2.11 8.9 5.75 6.49 4.46 13.49 8.61 13.65 8.09 27.8 15.47a2.506 2.49-31.14 0 0 1.15.28h3.25a2.628 2.584 32.681 0 0 1.05-.22q7.19-3.24 13.07-6.59c1.4-.8 3.05-1.35 4.36-2.06q5.41-2.92 9.16-4.98c5.49-3 11.65-7.63 17.45-10.46a3.218 2.959 7.601 0 0 .8-.56q1.14-1.08 2.55-2.01 7.12-4.72 14.49-9.28 1.68-1.04 2.42-1.9a1.922 1.877-77.692 0 1 .85-.56c3.16-1.02 5.85-4.43 8.59-6.17q5.06-3.22 7.21-4.82 4.78-3.55 8.54-5.75a5.932 5.394-77.467 0 0 .78-.55q8.09-6.84 9.29-7.57 3.9-2.38 7.66-5.45c3.87-3.16 7.93-5.92 11.19-8.48a4.528 4.351 1.145 0 0 .52-.48q2.27-2.38 3.75-3.3c5.62-3.48 10.13-8.86 16.1-13.13 4.19-3 6.72-4.57 10.72-8.21q3.03-2.74 8.39-6.44a2.759 2.632-.936 0 0 .69-.68q.58-.82.97-1.12 10.1-7.7 20.07-16.86 1.66-1.52 7.26-5.88c4.96-3.87 9.97-8.45 13.8-12q.18-.17.32-.65a.385.34 80.045 0 1 .11-.18l16.02-14.43c4.26-3.99 8.07-8.47 13.68-10.51q2.99-1.09 9.37-1.66 19.85-1.76 37.27-4.58a22.351 22.013-59.108 0 0 3.97-1.03q8.18-2.96 11.87-3.43 13.92-1.76 26.91-4.29 5.41-1.05 11.63-1.82 24-2.96 29.77-3.75 4.36-.59 7.58.73"></path><path fill="#2b2c27" fill-rule="evenodd" d="M520.93 1273.94q6.08-1.44 12.6-.47 6.44.95 8.2 1.04 7.92.38 11.02 1.08 14.4 3.27 33.83 5.93 7.18.99 10.95 5.09c5.25 5.7 11.09 12.89 17.37 18.24 5.36 4.56 10.41 10.18 16.55 15.48q12.77 11.01 30.6 27.12c3.22 2.91 7.17 7.09 10.98 10.03q9.74 7.49 22.97 19.22c19.54 17.3 38.89 32.96 59.14 49.58 8.29 6.8 18.27 13.09 26.37 19.38 11.31 8.78 22.49 14.75 34.66 23.01q18.74 12.71 37.28 23.93c10.16 6.15 18.65 10.68 30.79 12.12a2.287 2.243-50.988 0 0 .96-.11q14.71-5.14 28.44-13.74 26.05-16.31 30.62-19.1 8.15-4.97 11.78-7.8 4.67-3.64 7.97-5.82c6.28-4.14 13.18-9.97 21.22-14.83q2.18-1.32 6.57-4.7 19.48-14.96 29.7-22.63 5.35-4.01 14.69-12.29 5.47-4.85 17.71-13.96 7.79-5.8 14.33-11.92 10.07-9.44 34.55-30.55c6.03-5.2 12.18-11.24 18.68-17.32q4.89-4.58 6.53-5.92c4.72-3.85 8.28-8.13 13.15-12.48q5.42-4.84 6.82-6.34 12.21-13.14 18.63-18.63 2.87-2.45 4.81-3.75a3.7 3.7-29.626 0 1 .72-.36q2.74-.95 15.04-2.3c5.47-.6 14.14-2.81 19.82-3.33q3.91-.36 24.04-3.9 4.71-.83 8.38-2.26 1.14-.44.12-1.11a.566.461 58.964 0 0-.25-.09l-5.25-.36 13.21-1.82 2.07-.64a.455.455 11.679 0 1 .48.73c-8.31 9.9-16.74 18.56-26.09 28.51-40.18 42.76-82.98 83.08-127.56 121.48q-2.11 1.82-25.32 20.91-56.08 46.14-114.98 85.04-15.36 10.14-34.98 20.26-11.9 6.13-22.18 9.59-6.84 2.3-14.57 3.05-5.41.52-10.97-.87-11.56-2.89-19.76-6.47-10.8-4.71-25.46-13.06-23.25-13.25-52.27-33.97-61.96-44.24-116.8-91.92-33.57-29.18-51.15-46.12-32.13-30.95-39.71-38.8c-13.96-14.45-32.45-33.07-47.05-51.08"></path><path fill="#352b16" fill-rule="evenodd" d="M595.79 1279.31c24.95 26.31 51.34 50.7 78.47 74.64q24.42 21.54 42.67 36.88 58.78 49.4 121.74 89.47 19.74 12.56 39 20.77 2.21.94 4.19 1.15a2.576 2.496-52.417 0 0 1.3-.19q12.75-5.56 15.83-7.27 9.57-5.29 14.43-8.11 18.3-10.59 41.93-26.82 28.24-19.38 56.5-41.07 14.72-11.29 27.69-22.23c11.69-9.86 23.51-19.38 36.22-30.45q17.96-15.65 38.43-34.4 9.33-8.54 18.38-17.34l18.23-17.57 17.09-16.68a3.621 3.561 17.836 0 1 1.97-.99l64.16-9.98 5.25.36a.566.461 58.964 0 1 .25.09q1.02.67-.12 1.11-3.67 1.43-8.38 2.26-20.13 3.54-24.04 3.9c-5.68.52-14.35 2.73-19.82 3.33q-12.3 1.35-15.04 2.3a3.7 3.7-75.016 0 0-.72.36q-1.94 1.3-4.81 3.75-6.42 5.49-18.63 18.63-1.4 1.5-6.82 6.34c-4.87 4.35-8.43 8.63-13.15 12.48q-1.64 1.34-6.53 5.92c-6.5 6.08-12.65 12.12-18.68 17.32q-24.48 21.11-34.55 30.55-6.54 6.12-14.33 11.92-12.24 9.11-17.71 13.96-9.34 8.28-14.69 12.29-10.22 7.67-29.7 22.63-4.39 3.38-6.57 4.7c-8.04 4.86-14.94 10.69-21.22 14.83q-3.3 2.18-7.97 5.82-3.63 2.83-11.78 7.8-4.57 2.79-30.62 19.1-13.73 8.6-28.44 13.74a2.287 2.243-50.988 0 1-.96.11c-12.14-1.44-20.63-5.97-30.79-12.12q-18.54-11.22-37.28-23.93c-12.17-8.26-23.35-14.23-34.66-23.01-8.1-6.29-18.08-12.58-26.37-19.38-20.25-16.62-39.6-32.28-59.14-49.58q-13.23-11.73-22.97-19.22c-3.81-2.94-7.76-7.12-10.98-10.03q-17.83-16.11-30.6-27.12c-6.14-5.3-11.19-10.92-16.55-15.48-6.28-5.35-12.12-12.54-17.37-18.24q-3.77-4.1-10.95-5.09-19.43-2.66-33.83-5.93-3.1-.7-11.02-1.08-1.76-.09-8.2-1.04-6.52-.97-12.6.47l-5.24-6.69z"></path><path fill="#a9a7a8" fill-rule="evenodd" d="M687.71 1289.27q6.86 6.08 13.52 12.16c12.53 11.44 24.67 21.23 38.02 32.46q30.87 25.97 74.47 57.18c20.27 14.51 42.92 29.4 66.45 40.34a4.057 4.055-44.651 0 0 3.41.02c22.69-10.35 43.83-24.24 63.64-38.24q31.42-22.22 61.67-46.32c13.11-10.45 25.73-21.37 38.24-31.77q6.18-5.14 14.63-12.81 7.14-6.49 14.45-13.04 10.72-.32 21.73-2.55 4.69-.96 8.93.73a.415.414 29.349 0 1 .18.64l-6.35 8.29-16.02 14.43a.385.34 80.045 0 0-.11.18q-.14.48-.32.65c-3.83 3.55-8.84 8.13-13.8 12q-5.6 4.36-7.26 5.88-9.97 9.16-20.07 16.86-.39.3-.97 1.12a2.759 2.632-.936 0 1-.69.68q-5.36 3.7-8.39 6.44c-4 3.64-6.53 5.21-10.72 8.21-5.97 4.27-10.48 9.65-16.1 13.13q-1.48.92-3.75 3.3a4.528 4.351 1.145 0 1-.52.48c-3.26 2.56-7.32 5.32-11.19 8.48q-3.76 3.07-7.66 5.45-1.2.73-9.29 7.57a5.932 5.394-77.467 0 1-.78.55q-3.76 2.2-8.54 5.75-2.15 1.6-7.21 4.82c-2.74 1.74-5.43 5.15-8.59 6.17a1.922 1.877-77.692 0 0-.85.56q-.74.86-2.42 1.9-7.37 4.56-14.49 9.28-1.41.93-2.55 2.01a3.218 2.959 7.601 0 1-.8.56c-5.8 2.83-11.96 7.46-17.45 10.46q-3.75 2.06-9.16 4.98c-1.31.71-2.96 1.26-4.36 2.06q-5.88 3.35-13.07 6.59a2.628 2.584 32.681 0 1-1.05.22h-3.25a2.506 2.49-31.14 0 1-1.15-.28q-14.15-7.38-27.8-15.47-7-4.15-13.49-8.61-5.28-3.64-8.9-5.75-5.75-3.35-9.01-5.72-7.68-5.58-20.68-14.28-9.63-6.44-24.62-18.45-2.27-1.82-4.48-3.34-3.69-2.54-4.58-3.29-5.46-4.6-7.92-6.38-4.98-3.6-8.18-6.45c-4.34-3.86-12.89-10.2-19.47-16.04-2.74-2.43-5.63-4.13-8.07-6.34q-2.79-2.52-8.82-7.2-2.84-2.21-5.36-4.53c-3.32-3.06-7.26-5.9-10.43-8.97q-4.6-4.44-4.91-4.67-1.71-1.24-2.62-2.34c-1.74-2.11-3.8-3-5.22-4.77q-.71-.88-2.73-2.02a.858.727-4.731 0 1-.21-.15l-25.53-23.2q-.65-2.39 2.25-3.01 1.6-.35 4.33.05 6.31.91 10.53 1.14a2.677 2.611-28.609 0 1 1.14.32q1.11.59 1.87.7 5.18.75 12.5 1.19"></path><path fill="#2b2c27" fill-rule="evenodd" d="M1076.21 1289.25q-7.31 6.55-14.45 13.04-8.45 7.67-14.63 12.81c-12.51 10.4-25.13 21.32-38.24 31.77q-30.25 24.1-61.67 46.32c-19.81 14-40.95 27.89-63.64 38.24a4.057 4.055-44.651 0 1-3.41-.02c-23.53-10.94-46.18-25.83-66.45-40.34q-43.6-31.21-74.47-57.18c-13.35-11.23-25.49-21.02-38.02-32.46q-6.66-6.08-13.52-12.16 50.41 3.94 100.29 6.23c52.15 2.39 104.57 2.3 156.75 1.16q52.6-1.15 131.46-7.41"></path><path fill="#b68b24" fill-rule="evenodd" d="m1150.8 1296.77-18.23 17.57c4.5-7.7 9.96-13.89 18.23-17.57" data-source="https://football-logos.cc"></path><!-- source: https://football-logos.cc --></svg>