<svg xmlns="http://www.w3.org/2000/svg" viewBox="0 0 72.36 81.09"><g data-name="Capa 2"><g data-name="Capa 1"><path d="M63.378 30.81c-.112-.505.003-1.002.002-1.52a6.87 6.87 0 0 1 1.9-4.76l7.08-7.43L36.18 0 0 17.1l7.08 7.43A6.88 6.88 0 0 1 9 29.29a7 7 0 0 1-.17 1.54s.23 1.23-5.83 10.3a20.74 20.74 0 0 0 4 25.99s5.64 5.85 23 8.59a7.09 7.09 0 0 1 6.1 5.38 7.09 7.09 0 0 1 6.11-5.38c17.41-2.74 23-8.59 23-8.59a20.72 20.72 0 0 0 4-26c-6.07-9.08-5.83-10.31-5.83-10.31m.68 34.88-.05.06" class="cls-1" style="fill:#fff;fill-opacity:1"/><path d="M36.51 25.49a1 1 0 0 1-.43.1 1 1 0 0 1-.43-.1c-.71-.32-1-1.32-1.23-2a19.3 19.3 0 0 1-.73-5.49 20.1 20.1 0 0 1 .65-5.63v-.11c.21-.69.52-1.69 1.23-2a1 1 0 0 1 .43-.1 1 1 0 0 1 .43.1 2 2 0 0 1 .93 1.15v-5.3a1.68 1.68 0 0 0-1.67-1.68c-1.82 0-2.5 2.21-2.92 3.63l-.06.19a35 35 0 0 0-1.1 9.67 32.9 32.9 0 0 0 1.16 9.37c.42 1.42 1.1 3.63 2.92 3.63a1.68 1.68 0 0 0 1.67-1.68v-5a2.15 2.15 0 0 1-1 1.21M19.34 30.92h.82l.63-8.54.61 6.66.19 1.88h2.02l-1.25-20.33-2.01.92-1.01 10.92-1.01-9.94-2.02.95-1.24 17.48h2.02l.19-1.88.61-6.66.63 8.54zM28.65 7.63l-1.83.86-2.2 22.43h2l.46-6.52h1.24l.57 6.52h1.78Zm-1.43 14.75.41-5.87.51 5.87ZM56.73 13.78l-2.56-1.22-1.91 18.36h2l.46-6.52H56l.57 6.52h1.78Zm-1.87 8.6.41-5.87.51 5.87ZM42.31 7 41 6.3l-2.56 24.62h2l.46-6.52h1.24l.57 6.52h1.78ZM41 22.38l.41-5.87.59 5.87ZM49.47 23.57c1.58-1.62 1.8-5.19 1.78-6.94a9.7 9.7 0 0 0-.69-4 6.74 6.74 0 0 0-2.66-3 19 19 0 0 0-2.39-1.19v22.48h2v-6.53l2 6.54h1.77Zm-2-10h.07c1.17.33 1.48 2.11 1.49 3.13a6.5 6.5 0 0 1-.51 2.8.14.14 0 0 1 0 .06 1.62 1.62 0 0 1-1 1h-.07Z" class="cls-1" style="fill:#1d2548;fill-opacity:1"/><path d="m3 41.13 1.09-1.67c-.4.54-.76 1.09-1.09 1.67M69.38 41.13c-.34-.58-.7-1.13-1.09-1.67Z" class="cls-1"/><path d="M63.378 30.81c-.112-.505.003-1.002.002-1.52a6.87 6.87 0 0 1 1.9-4.76l7.08-7.43L36.18 0 0 17.1l7.08 7.43A6.88 6.88 0 0 1 9 29.29a7 7 0 0 1-.17 1.54s.23 1.23-5.83 10.3a20.74 20.74 0 0 0 4 25.99s5.64 5.85 23 8.59a7.09 7.09 0 0 1 6.1 5.38 7.09 7.09 0 0 1 6.11-5.38c17.41-2.74 23-8.59 23-8.59a20.72 20.72 0 0 0 4-26c-6.07-9.08-5.83-10.31-5.83-10.31M8.42 23.15l-5.2-5.45 33-15.58 33 15.58-5.21 5.45a8.8 8.8 0 0 0-2.48 6.14 9 9 0 0 0 .1 1.71 6.8 6.8 0 0 0 .61 1.91H10.12a6.2 6.2 0 0 0 .61-1.91 8.4 8.4 0 0 0 .17-1.74 8.8 8.8 0 0 0-2.48-6.14m55.64 42.57-.05.06c-.21.2-5.81 5.47-21.89 8A9.17 9.17 0 0 0 36.18 77a9.14 9.14 0 0 0-5.88-3.15C14.23 71.27 8.62 66 8.4 65.79l-.06-.06a18.84 18.84 0 0 1-3.78-23.51C6.75 39 8.17 36.63 9.1 35h54.17c.92 1.68 2.34 4 4.53 7.27a18.85 18.85 0 0 1-3.74 23.47" class="cls-1" style="fill:#1d2548;fill-opacity:1"/><path d="M69.38 41.13" class="cls-1"/><path d="M36.18 36.96h10.09v31.9l-10.09 4.76-10.08-4.76v-31.9zM54.38 37h7.74c1 1.72 2.33 3.81 4 6.25a16.7 16.7 0 0 1-3.32 20.69l-.12.1-.1.11c-.28.25-2.64 2.26-8.16 4.28ZM18.13 68.4c-5.52-2-7.88-4-8.16-4.28l-.1-.12-.12-.1a16.67 16.67 0 0 1-3.31-20.68c1.62-2.44 3-4.53 4-6.25h7.74Z" class="cls-1" style="fill:#3397c4;fill-opacity:1"/></g></g></svg>