<svg xmlns="http://www.w3.org/2000/svg" viewBox="0 0 531.11 577.04"><defs><clipPath id="a"><path d="M99 71h380v506.04H99Zm0 0"/></clipPath><clipPath id="b"><path d="M438 219h93.11v58H438Zm0 0"/></clipPath></defs><g clip-path="url(#a)"><path d="M288.746 71.215c-22.195 0-106.238 15.539-114.8 23.465-8.563 7.93-23.255 32.191-36.153 42.812-16.176 13.32-38.691 18.715-38.691 29.813v271.78c0 46.618 29.066 83.36 84.992 92.29 44.715 7.133 88.476 24.258 104.652 45.664 16.176-21.406 59.942-38.531 104.656-45.664 55.922-8.93 84.993-45.672 84.993-92.29v-271.78c0-11.098-22.52-16.493-38.692-29.813-12.902-10.62-27.594-34.883-36.152-42.812-8.567-7.926-92.606-23.465-114.805-23.465m0 19.027c19.45 0 89.117 13.25 102.887 19.426 2.535 2.742 6.578 8.113 10.199 12.922 7.762 10.312 16.559 22.004 25.773 29.594 7.625 6.277 16.079 10.93 22.868 14.668 2.882 1.585 6.527 3.593 8.89 5.14v267.094c0 39.71-25.133 66.504-68.96 73.496-34.329 5.477-75.7 18.043-101.657 38.031-25.957-19.988-67.324-32.554-101.652-38.031-43.828-6.992-68.965-33.785-68.965-73.496V171.992c2.363-1.547 6.008-3.554 8.894-5.14 6.79-3.739 15.239-8.391 22.868-14.668 9.21-7.59 18.007-19.282 25.77-29.594 3.62-4.809 7.663-10.18 10.202-12.922 13.77-6.176 83.434-19.426 102.883-19.426" style="stroke:none;fill-rule:nonzero;fill:#e72a1e;fill-opacity:1"/></g><path d="M187.094 512.582c34.328 5.48 75.695 18.043 101.652 38.031 25.957-19.988 67.328-32.55 101.656-38.031 43.828-6.992 68.961-33.781 68.961-73.496V171.992c-2.363-1.55-6.008-3.554-8.89-5.14-6.79-3.739-15.243-8.391-22.868-14.668-9.214-7.59-18.011-19.282-25.773-29.594-3.621-4.809-7.664-10.18-10.2-12.922-13.769-6.176-83.437-19.426-102.886-19.426-19.45 0-89.113 13.25-102.883 19.426-2.539 2.742-6.582 8.113-10.203 12.922-7.758 10.312-16.558 22.004-25.77 29.594-7.628 6.277-16.077 10.93-22.867 14.668-2.886 1.585-6.53 3.59-8.894 5.14v267.094c0 39.715 25.137 66.504 68.965 73.496" style="stroke:none;fill-rule:nonzero;fill:#f6f5f4;fill-opacity:1"/><path d="M323.746 150.629c0 23.117 18.738 41.86 41.86 41.86 23.12 0 41.863-18.743 41.863-41.86s-18.742-41.86-41.864-41.86c-23.12 0-41.859 18.743-41.859 41.86" style="stroke:none;fill-rule:nonzero;fill:#fbee00;fill-opacity:1"/><path d="m288.746 40.875 9.945 30.605h32.18L304.84 90.395l9.941 30.609-26.035-18.918-26.031 18.918 9.941-30.61-26.035-18.914h32.184M352.414 342.887c8.941 30.41 12.816 56.144 13.191 70.511l55.387-44.714c-1.433-17.29-3.972-33.77-7.156-49.211M408.516 296.746c-15.47-59.07-38.422-97.887-38.422-97.887l-101.801-6.37c36.512 37.081 60.637 83.331 75.738 124.847M308.648 338.168c-32.66-72.621-70.691-110.184-79.836-119.328-12.37-12.371-76.113-34.25-76.113-34.25H0c132.098 71.043 201.363 136.254 242.02 191.578M263.387 408.363c15.64 26.242 25.578 49.668 34.398 69.73l41.863-49.948c-5.16-20.56-11.086-39.465-17.457-56.801-15.14 8.5-41.562 23.879-58.804 37.02" style="stroke:none;fill-rule:nonzero;fill:#00437a;fill-opacity:1"/><path d="M52.8 228.352c0 47.816 43.66 86.578 97.52 86.578s97.52-38.762 97.52-86.578-43.66-86.579-97.52-86.579-97.52 38.762-97.52 86.579" style="stroke:none;fill-rule:nonzero;fill:#221815;fill-opacity:1"/><path d="M57.32 228.352c0 45.597 41.637 82.566 93 82.566s93-36.969 93-82.566-41.636-82.567-93-82.567-93 36.969-93 82.567" style="stroke:none;fill-rule:nonzero;fill:#f6f5f4;fill-opacity:1"/><path d="m210.223 231.035-34.008-10.683-10.336-24.438 20.7-23.215 26.023 13.43 12.277 26.457Zm-19.688 52.18-34.793-8.98-3.066-30.344 22.644-19.832 33.196 10.43 8.703 24.71Zm-70.62 6.84-34.13-22.153v-25.226l32.063-15.11 31.132 17.63 3.008 29.745Zm-53.384-72.34 9.153-31.746 27.996-9.614 19.304 18.434-6.894 29.399-30.63 14.433Zm58.102-68.41v.082h44.445l14.598 20.851-19.84 22.25h-37.75l-19.871-18.976Zm117.187 64.351-13.582-2.87-11.636-25.083 9.582-5.082c-16.852-21.07-44.54-34.836-75.864-34.836-33.449 0-62.761 15.688-79.148 39.215l.617.754-8.887 30.809-5.093 3.296a75 75 0 0 0-.489 8.493c0 17.43 6.098 33.59 16.485 46.914l10.023-4.094 35.098 22.781 3.418 13.156c8.828 2.47 18.226 3.809 27.976 3.809 14.102 0 27.457-2.8 39.43-7.785l3.473-17.219 26.793-24.11 14.191 2.227c5.84-10.8 9.113-22.898 9.113-35.68 0-5.019-.53-9.921-1.5-14.695" style="stroke:none;fill-rule:nonzero;fill:#221815;fill-opacity:1"/><path d="m232.406 402.793 1.32-1.172c3.274 10.996 11.833 18.93 24.11 22.11 17.426 4.511 37.723-1.594 50.238-14.626 1.582 3.457 3.793 5.54 6.613 6.207 8.852 2.106 19.872-11.292 29.594-23.109 1.246-1.512 2.465-2.992 3.625-4.371-.015 22.293 7.848 31.152 12.895 34.54 4.828 3.237 10.664 3.96 15.976 2.046 16.559 17.047 38.559 17.047 61.817 17.047h20.726c.016-.79.043-1.578.043-2.38v-3.327h-20.77c-23.593 0-43.968 0-58.976-16.66l-1.453-1.614-1.941.973c-4.008 2.008-8.473 1.703-12.243-.824-7.789-5.227-11.457-18.828-10.07-37.32l.559-7.418-5.38 5.14c-2.554 2.445-5.64 6.2-9.218 10.543-6.906 8.399-18.469 22.445-23.871 21.18-1.648-.39-3.078-2.871-4.012-6.985l-1.36-5.949-3.694 4.856c-12.051 15.832-33.094 20.297-47.668 16.523-6.88-1.781-18.754-7.05-20.97-22.34l-.757-5.203-3.95 3.469c-1.675 1.465-3.327 2.933-4.976 4.394-20.187 17.922-39.261 34.856-78.293 34.856H118.13v5.707h32.191c41.2 0 61.063-17.629 82.086-36.293" style="stroke:none;fill-rule:nonzero;fill:#7bb6c4;fill-opacity:1"/><path d="M321.098 280.379c0-3.031 36.148-68.043 77.375-68.043 56.77 0 56.77 31.715 56.77 56.45 0 24.737-58.036 76.112-67.075 76.112-1.426 0-3.012-.632-3.012-2.539 0-4.597 26.957-27.906 26.957-41.066 0-3.2.317-6.184-10.785-6.184-5.07 0-51.215 19.227-55.258 19.227s-7.664-3.215-7.664-5.59c0-2.379 37.04-27.594 37.04-34.726 0-2.141-.954-3.45-4.286-2.497-3.656 1.043-32.754 14.153-41.383 14.153-2.738 0-8.68.465-8.68-5.297" style="stroke:none;fill-rule:nonzero;fill:#c9cdd7;fill-opacity:1"/><g clip-path="url(#b)"><path d="M438.434 254.914c20.933-27.355 98.867-44.398 92.285-30.844-8.965 18.461-54.149 25.371-81.422 52.645 2.535-11.735 5.738-19.621-10.863-21.8" style="stroke:none;fill-rule:nonzero;fill:#2f325e;fill-opacity:1"/></g><path d="M398.473 212.34c17.609 0 29.746 3.055 38.125 8l6.515-9.113c-18.793-3.805-46.222-38.532-46.543-36.946-.316 1.586-20.293 36.153-29.039 49.262h.043c9.574-6.684 20.055-11.203 30.899-11.203M427.172 313.973h-.008c-16.2 16.91-34.273 30.925-38.996 30.925-1.426 0-3.012-.632-3.012-2.535 0-3.754 17.95-19.972 24.555-32.96-2.25-4.098-17.734 13.136-21.543 16.945-3.805 3.804-64.695 14.03-64.695 19.976 0 2.512 43.718-9.074 61.843 1.43 26.454 15.324 22.594 36.863 25.45 35.914 2.851-.953-.239-34.25 1.187-43.766 1.43-9.511 15.219-15.773 15.219-25.93M356.313 232.672h-.004c-6.989-7.016-49.801-17.797-50.75-14.942-.883 2.637 22.078 26.13 34.324 32.922 4.789-6.078 10.324-12.328 16.43-17.98" style="stroke:none;fill-rule:nonzero;fill:#2f325e;fill-opacity:1"/><path d="M368.902 239.531c0 5.781 4.688 10.465 10.465 10.465 5.781 0 10.469-4.684 10.469-10.465s-4.688-10.465-10.469-10.465c-5.777 0-10.465 4.684-10.465 10.465" style="stroke:none;fill-rule:nonzero;fill:#f6f5f4;fill-opacity:1"/><path d="M370.082 238.215a6.908 6.908 0 1 0 13.817-.005 6.908 6.908 0 0 0-13.817.005M346.18 372.895c.875.554 1.394.863 1.394.863s-.512-.32-1.394-.863m-.348-31.645h.008Zm-10.941-23.914s-.504.469-1.293 1.27c.828-.77 1.293-1.27 1.293-1.27m-36.868-19.293s7.465 32.336 4.676 35.121c-.62.621-1.578.863-2.699.863-3.883 0-9.668-2.925-9.668-2.925s7.453 4.28 7.453 9.992c0 5.707-22.515 13-22.515 13s16.57.875 19.664 3.965c3.09 3.093 3.09 12.37 3.09 12.37s3.886-9.831 9.593-9.831 7.293 6.976 7.293 6.976 2.856-7.297 6.98-7.297c3.485 0 19.446 9.637 24.29 12.618-4.805-3.028-20.328-13.293-20.328-19.59 0-7.453 19.98-12.055 19.98-12.055s-.68.031-1.797.031c-5.11 0-19.37-.64-19.37-7.8 0-5.176 6.183-12.067 8.933-14.876-2.774 2.586-9.637 8.215-16.782 8.215-9.277 0-18.793-28.777-18.793-28.777m8.739 26.3c3.008 3.716 6.402 6.286 10.054 6.286a19.3 19.3 0 0 0 4.563-.567c-.332 1.153-.52 2.301-.52 3.418 0 4.555 3.047 7.864 8.805 9.758-4.242 2.485-7.617 5.801-7.617 10.067q0 1.529.668 3.215c-.367-.047-.621-.047-.824-.047-2.856 0-5.13 1.613-6.832 3.539-1.758-1.844-4.2-3.223-7.442-3.223-2.914 0-5.36 1.395-7.32 3.25-.613-1.8-1.473-3.469-2.676-4.668-1.402-1.406-4.062-2.433-7.187-3.183 6.328-3.16 11.16-6.93 11.16-11.094 0-1.168-.196-2.274-.528-3.313 1.774-.183 3.227-.828 4.325-1.926.863-.863 2.304-2.304 1.37-11.511" style="stroke:none;fill-rule:nonzero;fill:#221815;fill-opacity:1"/><path d="M300.297 360.04c1.96-1.856 4.406-3.25 7.32-3.25 3.242 0 5.684 1.378 7.442 3.222 1.703-1.926 3.976-3.54 6.832-3.54.203 0 .457 0 .824.048-.445-1.125-.668-2.2-.668-3.215 0-4.266 3.375-7.582 7.617-10.067-5.758-1.894-8.809-5.203-8.809-9.758 0-1.117.192-2.265.524-3.418a19.3 19.3 0 0 1-4.563.567c-3.652 0-7.046-2.57-10.054-6.285.933 9.207-.508 10.648-1.371 11.508-1.098 1.101-2.551 1.746-4.325 1.925.332 1.043.528 2.149.528 3.317 0 4.164-4.832 7.933-11.16 11.09 3.125.753 5.785 1.78 7.187 3.183 1.203 1.203 2.063 2.871 2.676 4.672" style="stroke:none;fill-rule:nonzero;fill:#fff;fill-opacity:1"/><path d="M73.484 124.605 50.68 107.34l3.441-4.543 20.234 6.828c1.88.64 3.278 1.133 4.2 1.469a191 191 0 0 1-2.739-3.985l-11.73-17.472 3.074-4.059 22.805 17.266-2.203 2.91L68.676 91.3l14.066 21.078-2.058 2.723-24.407-8.106 19.41 14.7M89.2 87.266l7.038-6.672-7.617-3.696c-2.316-1.117-4.168-2.09-5.555-2.906q1.5 2.371 2.641 5.024Zm2.093 14.199L79.582 73.152l2.961-2.804 28.176 12.699-3.13 2.969-8.382-3.993-8.676 8.23 3.68 8.45M112.418 81.855l-16.664-23.25 3.156-2.261 25.293 9.5-13.082-18.254 2.95-2.113 16.663 23.25-3.156 2.257-25.305-9.511 13.098 18.265M141.91 62.39l-12.105-22.132-8.27 4.523-1.62-2.96 19.89-10.883 1.62 2.964-8.3 4.54 12.105 22.132M153.895 43.156l8.91-3.828-5.871-6.101q-2.68-2.776-4.204-4.649a37 37 0 0 1 .739 5.629Zm-2.95 14.047L149.75 26.59l3.746-1.61 22.043 21.66-3.96 1.7-6.481-6.64-10.993 4.718.536 9.2M196.523 19.742q2.08-.534 4.36.028a7.9 7.9 0 0 1 3.91 2.28q1.628 1.717 2.184 3.868.889 3.458-.922 6.523t-5.25 3.95q-3.458.889-6.524-.922-3.064-1.812-3.953-5.27c-.371-1.449-.36-2.933.047-4.453a7.86 7.86 0 0 1 2.328-3.871c1.149-1.062 2.426-1.773 3.82-2.133M233.535 32.453l-3.41-28.398 19.16-2.301.403 3.351-15.403 1.848 1.059 8.793 13.328-1.598.402 3.352-13.328 1.602L237.296 32M274.46.273l3.782-.183.809 16.508q.21 4.304-.64 6.886-.852 2.581-3.313 4.293-2.467 1.717-6.598 1.914-4.015.2-6.637-1.058c-1.746-.84-3.027-2.113-3.84-3.828-.812-1.711-1.293-4.078-1.441-7.11l-.809-16.504 3.778-.183.808 16.484c.125 2.485.446 4.297.961 5.453q.782 1.73 2.512 2.602 1.735.872 4.168.754 4.17-.204 5.852-2.184 1.68-1.976 1.418-7.355M292.785 28.734l.348-25.226-9.422-.13.043-3.374 22.672.312-.047 3.375-9.465-.132-.344 25.226M314.375 12.832l6.168.473q2.508.193 3.621-.055 1.475-.316 2.277-1.254c.54-.625.844-1.434.922-2.434q.11-1.418-.488-2.55c-.398-.758-1.012-1.297-1.832-1.63q-1.234-.495-4.309-.73l-5.699-.437Zm-1.012 13.172 7.102.543q1.83.14 2.582.062 1.32-.134 2.234-.613c.614-.32 1.133-.808 1.563-1.476q.645-.996.75-2.36c.078-1.062-.121-2.008-.606-2.832q-.727-1.242-2.14-1.828-1.412-.585-4.137-.797l-6.594-.504Zm-4.031 3.074L311.52.563l10.699.816c2.18.168 3.902.59 5.176 1.27a6.75 6.75 0 0 1 2.89 2.902q.98 1.883.828 3.847a6.5 6.5 0 0 1-1.254 3.368c-.746 1.027-1.808 1.82-3.199 2.379 1.688.636 2.945 1.601 3.781 2.89q1.252 1.938 1.063 4.426c-.106 1.336-.48 2.555-1.133 3.66q-.978 1.659-2.297 2.496c-.879.559-1.953.95-3.23 1.172q-1.912.332-4.633.125M340.395 17.926c-.54 3.402-.043 6.226 1.476 8.476 1.524 2.25 3.664 3.59 6.426 4.028 2.816.441 5.289-.18 7.418-1.875q3.193-2.538 4.055-7.992c.363-2.297.289-4.368-.215-6.204q-.76-2.758-2.785-4.527-2.022-1.77-4.817-2.215-3.967-.627-7.262 1.653-3.291 2.274-4.296 8.656m-3.844-.668c.738-4.688 2.578-8.164 5.512-10.418 2.933-2.258 6.398-3.07 10.378-2.442q3.915.615 6.762 2.98 2.847 2.367 3.965 5.97 1.12 3.602.453 7.843-.676 4.295-2.945 7.418c-1.516 2.078-3.422 3.532-5.727 4.36-2.304.832-4.683 1.05-7.137.664q-3.989-.631-6.824-3.055-2.84-2.42-3.933-6.012a16.2 16.2 0 0 1-.504-7.308M365.43 36.305l6.785-27.79 3.68.9-5.985 24.507 13.684 3.34-.805 3.281M417.914 31.668q1.991.801 3.496 2.605a7.86 7.86 0 0 1 1.8 4.149c.2 1.566.02 3.039-.53 4.414-.89 2.207-2.422 3.777-4.61 4.71q-3.271 1.395-6.566.071c-2.211-.887-3.777-2.422-4.707-4.605-.934-2.184-.953-4.38-.067-6.586.555-1.39 1.45-2.578 2.672-3.563a7.9 7.9 0 0 1 4.168-1.742c1.559-.176 3.004.008 4.344.547M462.207 66.281l2.676 2.84c-2.336 2.195-4.817 3.43-7.434 3.695-2.613.27-5.18-.398-7.691-2-2.602-1.656-4.375-3.535-5.328-5.629q-1.436-3.147-.785-6.968.64-3.826 2.843-7.282c1.602-2.507 3.48-4.394 5.63-5.652q3.229-1.888 6.816-1.648c2.386.156 4.648.914 6.777 2.27 2.41 1.538 4.05 3.448 4.91 5.726.863 2.273.906 4.734.137 7.37l-3.617-1.26q.837-3.166.011-5.388-.83-2.215-3.25-3.757c-1.851-1.184-3.687-1.727-5.5-1.633-1.808.097-3.445.73-4.902 1.906a17.1 17.1 0 0 0-3.71 4.149c-1.31 2.05-2.15 4.035-2.528 5.945-.38 1.91-.176 3.644.601 5.207a9.24 9.24 0 0 0 3.375 3.746q2.68 1.71 5.528 1.348 2.843-.36 5.441-2.985M462.883 79.168l18.09-22.156 2.93 2.394-15.954 19.54 10.91 8.91-2.136 2.613M513.172 86.793l2.605 2.746-11.98 11.379q-3.128 2.97-5.64 4.008-2.51 1.038-5.419.289c-1.937-.5-3.851-1.75-5.754-3.75q-2.766-2.917-3.523-5.723c-.504-1.87-.371-3.676.394-5.406q1.15-2.602 4.45-5.73l11.98-11.38 2.606 2.743-11.97 11.367q-2.7 2.566-3.503 4.285-.804 1.72-.332 3.602.463 1.88 2.144 3.648 2.877 3.03 5.473 3.012c1.73-.012 3.895-1.25 6.5-3.723M514.055 106.879l3.511 5.09q1.432 2.07 2.325 2.781c.78.629 1.586.957 2.406.98q1.236.038 2.473-.816 1.171-.81 1.675-1.988c.336-.781.371-1.598.114-2.446q-.393-1.271-2.145-3.808l-3.25-4.703Zm-10.871 7.504 4.046 5.86q1.043 1.51 1.575 2.042c.625.63 1.254 1.078 1.882 1.356.637.273 1.344.37 2.13.285q1.18-.129 2.304-.903c.879-.605 1.484-1.359 1.824-2.253q.503-1.347.075-2.817-.436-1.464-1.989-3.715l-3.754-5.441Zm-4.93-1.195 23.539-16.254 6.098 8.832q1.864 2.7 2.27 4.82a6.75 6.75 0 0 1-.434 4.07c-.567 1.301-1.387 2.324-2.47 3.07q-1.509 1.042-3.405 1.145-1.9.1-3.86-.988c.563 1.71.61 3.297.13 4.758-.477 1.46-1.4 2.66-2.77 3.609a8.4 8.4 0 0 1-3.559 1.426q-1.903.276-3.383-.215-1.481-.497-2.945-1.773-1.46-1.278-3.012-3.528M181.215 498.48h-2.426v-10.726q0-1.27.207-3.11h-.059q-.35 1.08-.625 1.547l-7.113 12.29h-1.191l-7.098-12.2c-.203-.355-.414-.902-.625-1.636h-.058c.078.636.117 1.683.117 3.132v10.703h-2.352v-15.988h3.223l6.387 11.149c.496.855.812 1.492.957 1.918h.09c.413-.88.75-1.532 1-1.961l6.519-11.106h3.047M197.098 492.313l-3.27-6.813q-.157-.334-.316-1.066h-.059c-.098.449-.21.808-.332 1.066l-3.238 6.813Zm5.703 6.167h-2.7l-2.203-4.484h-8.828l-2.078 4.484h-2.715l7.985-15.988h2.527M222.645 498.48h-2.989l-10.715-12.746a5 5 0 0 1-.668-1h-.085c.078.34.117 1.075.117 2.196v11.55h-2.438v-15.988h3.164l10.422 12.543c.438.52.715.875.844 1.07h.058q-.147-.69-.148-2.355v-11.258h2.438M240.414 484.188h-6.008v14.292h-2.437v-14.293h-6v-1.695h14.445M254.09 492.313l-3.266-6.813q-.156-.334-.32-1.066h-.059c-.097.449-.207.808-.332 1.066l-3.238 6.813Zm5.707 6.167h-2.703l-2.207-4.484h-8.824l-2.079 4.484h-2.714l7.988-15.988h2.523M269.098 492.84h6.086v-1.442h-6.086ZM299.574 498.48h-10.98v-15.988h10.515v1.695h-8.09v5.317h7.485v1.683h-7.484v5.598h8.554M317.66 497.813q-2.296.932-5.719.933-4.422.001-7.082-2.195-2.656-2.197-2.656-5.766 0-3.831 2.988-6.2 2.994-2.36 7.586-2.362 2.948.002 4.883.66v1.992q-2.224-.956-4.914-.957-3.564 0-5.785 1.84-2.215 1.837-2.215 4.918.001 2.918 2.07 4.652 2.074 1.735 5.442 1.735 3.123 0 5.402-1.07M337.035 492.012q0 6.733-7.875 6.734c-5.027 0-7.543-2.156-7.543-6.476v-9.778h2.43v9.656q.001 4.916 5.375 4.914 5.184.001 5.183-4.75v-9.82h2.43M352.563 492.313l-3.25-6.813c-.102-.223-.211-.578-.317-1.066h-.058c-.098.449-.208.808-.333 1.066l-3.222 6.813Zm5.68 6.167h-2.688l-2.196-4.484h-8.785l-2.066 4.484h-2.7l7.946-15.988h2.512M363.719 484.188v12.597h3.09c2.718 0 4.828-.562 6.343-1.683q2.269-1.684 2.27-4.774 0-6.14-8.469-6.14Zm-2.43 14.292v-15.988h5.723q10.95 0 10.949 7.793.001 3.699-3.04 5.95c-2.026 1.5-4.741 2.245-8.14 2.245M390.559 483.918q-3.263 0-5.301 1.816-2.04 1.818-2.04 4.774.002 2.954 1.989 4.754c1.324 1.203 3.05 1.8 5.18 1.8q3.41.001 5.375-1.714c1.308-1.149 1.965-2.746 1.965-4.805 0-2.113-.637-3.742-1.907-4.895-1.273-1.156-3.027-1.73-5.261-1.73m-.172 14.828q-4.408 0-7.059-2.238-2.648-2.245-2.648-5.832-.001-3.86 2.699-6.156c1.8-1.532 4.254-2.297 7.351-2.297 2.864 0 5.165.746 6.915 2.23q2.625 2.23 2.625 5.832-.001 3.915-2.692 6.188-2.684 2.273-7.191 2.273M406.77 484.188v5.796h3.293a6.4 6.4 0 0 0 1.683-.21 4.3 4.3 0 0 0 1.336-.61q.568-.394.883-.969.315-.573.316-1.289 0-1.284-1.078-2-1.077-.72-3.113-.719Zm12.421 14.292h-2.886l-3.47-4.484a10 10 0 0 0-.92-1.062 5 5 0 0 0-.919-.723 3.6 3.6 0 0 0-1.012-.402 5.3 5.3 0 0 0-1.222-.13h-1.992v6.801h-2.43v-15.988h6.183q1.36-.001 2.508.262 1.149.264 1.992.797c.567.355 1.004.8 1.32 1.332q.481.798.481 1.867 0 .838-.328 1.535c-.215.461-.52.88-.922 1.242a5.5 5.5 0 0 1-1.445.93 8.6 8.6 0 0 1-1.899.598v.043q.522.177.903.406c.254.156.496.332.726.543q.353.312.688.707.339.397.762.918" style="stroke:none;fill-rule:nonzero;fill:#221815;fill-opacity:1"/></svg>