<svg xmlns="http://www.w3.org/2000/svg" xml:space="preserve" style="shape-rendering:geometricPrecision;text-rendering:geometricPrecision;image-rendering:optimizeQuality;fill-rule:evenodd;clip-rule:evenodd" viewBox="0 0 186.37 210.65"><defs><style>.fil0{fill:#125628}.fil5{fill:#1c5b29}.fil2{fill:#208c17}.fil1{fill:#2a2086}.fil3{fill:#f1d900}.fil6{fill:#f5f5f6}.fil4{fill:#fefefe}</style></defs><g id="Layer_x0020_1"><g id="_737744800"><path d="M170.74 150.29 90.655 179.01 13.11 150.29s7.954-37.127 40.108-38.864c32.153-1.73 81.498-.557 91.485 5.317 9.986 5.876 26.037 33.547 26.037 33.547" class="fil0"/><path d="M87.026 209.49c-17.257-8.262-31.972-19.8-43.797-34.7-9.876-12.44-17.925-27.43-23.846-44.883C8.5 97.819 4.976 44.657 4.982 43.308l.022-3.892 3.64-1.187c1.532-.5 39.528-12.43 81.331-12.43 42.49 0 82.882 11.896 84.517 12.394l3.672 1.123-.055 3.93c-.019 1.346-4.922 54.524-16.515 86.624-6.306 17.457-14.705 32.457-24.895 44.905-12.2 14.903-27.248 26.449-44.78 34.716l-2.467 1.158z" class="fil1"/><path d="M169.922 44.054s-38.997-11.517-79.948-11.517l-.602 111.105 60.184-4.413c19.797-45.304 20.365-95.175 20.365-95.175" class="fil2"/><path d="M161.493 41.833c.088 1.953.277 3.858.42 5.753.11 1.406.272 2.81.405 4.151s.236 2.616.235 3.733c.001.832-.057 1.575-.178 2.179a42 42 0 0 1-1.097 4.234c-.363.08-.747.186-1.148.338a7 7 0 0 0-1.894 1.072 6.7 6.7 0 0 0-1.654 1.935c-.568.993-.966 1.999-1.21 3.015-.246 1.016-.34 2.035-.34 3.061.002 1.579.212 3.182.46 4.994.274 1.963.599 3.666 1.062 5.031.24.687.5 1.295.928 1.875.217.287.485.575.867.82.375.245.891.427 1.423.423.396.001.778-.095 1.093-.236.34-.154.608-.322.914-.526a23 23 0 0 0 1.792-1.37c.84-.7 1.772-1.54 2.687-2.429 3.496-20.952 3.664-35.832 3.664-35.832s-3.085-.911-8.43-2.221zM67.456 37.12l-.006.003h-.002zm46.9 17.174c.204-.161.396-.331.618-.53.382-.345.834-.77 1.34-1.221.755-.678 1.63-1.416 2.457-1.979a9 9 0 0 1 1.16-.682c.348-.167.642-.255.818-.28.847-.122 1.567-.424 2.156-.741.89-.485 1.536-.972 2.167-1.286.637-.315 1.226-.518 2.177-.525.52 0 1.15.07 1.932.263 1.572.388 2.854.51 3.88.51a14 14 0 0 0 1.87-.128l.071.223.138.082a2 2 0 0 1-.064.279l-.006.019.005-.018c-.097.333-.278.86-.516 1.48-.714 1.866-1.949 4.62-3.146 6.69-.403.7-1.077 1.808-1.849 3.06a679 679 0 0 1-3.649 5.825q-.345.547-.645 1.021a13.4 13.4 0 0 0-3.268-2.11 5.46 5.46 0 0 0-1.061-2.676 20 20 0 0 0-1.097-1.316c-1.252-1.4-2.934-3.08-4.035-4.184v-.001l-1.64-1.638c.067-.047.126-.092.186-.137zM58.871 102.11q-.016.172-.028.275l-.012.078-.002.017v-.003l-.002.012c-.044.197-.152.614-.283 1.09-.081-.892-.179-1.862-.294-2.854a228 228 0 0 0-1-7.29l.184-.284c.414 1.167.721 2.294.941 3.34.409 1.934.527 3.596.526 4.71 0 .37-.013.679-.03.908zM43.757 91.757l.002-.008zm23.052-55.41c-.068.043-.138.082-.206.128-.297.196-.547.41-.758.622l-.036-.001c-.648 0-1.484.131-2.317.596a7.6 7.6 0 0 0-1.93 1.503c-.548.592-.996 1.24-1.475 1.99-.445.702-.833 1.511-1.129 2.38-.293.872-.5 1.795-.503 2.765.001.553.07 1.13.282 1.717.27.742.648 1.59.99 2.33-1.467.831-3.256 1.85-3.257 1.85l-.555.317-.038.089c-.343.103-1.109.257-2.486.253-1.263 0-2.437.354-3.454.892-1.532.813-2.756 2.009-3.77 3.265a21.5 21.5 0 0 0-2.39 3.77c-.396.795-.661 1.645-.864 2.517-.301 1.306-.454 2.667-.54 3.91a47 47 0 0 0-.097 3.152c0 .381.004.687.004.87 0 .207-.027.707-.081 1.295-.078.891-.208 2.028-.352 3.067-.071.52-.147 1.015-.22 1.442a15 15 0 0 1-.199.997 34 34 0 0 0-.38 1.814 74 74 0 0 0-.643 4.077c-.189 1.479-.329 2.963-.33 4.23q-.001.346.016.676.01.216.01.427c0 1.054-.193 1.982-.424 2.776-.116.398-.241.76-.359 1.097-.117.342-.23.642-.322 1.02v-.002c-.08.338-.248.854-.45 1.489-.2.638-.432 1.4-.63 2.281a9.066 9.066 0 0 0-.008 3.816 6.7 6.7 0 0 0 .54 1.572l-.003.002.01.025c.025.07.079.253.135.482.202.814.458 2.207.652 3.356.09.537.169 1.02.227 1.39l-.083.132.043.618c.024.348.078.703.153 1.114.262 1.415.803 3.474 1.494 5.634.693 2.159 1.518 4.374 2.402 6.085.358.686.789 1.858 1.177 3.165q.13.436.256.89c15.236-1.656 30.79-2.448 46.59-2.349 1.056-.006 2.107-.002 3.16-.002l.854-.255.578-.176.37-.477.44-.566.004-.004c.313-.408.453-.836.517-1.172.066-.342.072-.62.074-.871-.002-.452-.03-.83-.03-1.214s.025-.762.11-1.16v-.001a5.3 5.3 0 0 0 .126-1.077 3.1 3.1 0 0 0-.125-.9 2.5 2.5 0 0 0-.345-.715c-.035-.051-.078-.096-.118-.146.099-.311.164-.614.207-.905.093-.638.106-1.236.125-1.828.018-.591.035-1.171.096-1.737v-.003c.09-.813.208-1.561.487-2.599.28-1.034.728-2.352 1.466-4.198a38.6 38.6 0 0 0 1.62-4.956c.36-1.409.61-2.623.968-3.938v.001c.353-1.296.77-2.455 1.215-3.616.446-1.16.923-2.323 1.384-3.602.172-.486.559-1.358 1.023-2.322a147 147 0 0 1 2.482-4.864c.432.316.916.668 1.44 1.044.902.648 1.904 1.355 2.881 2.02.98.666 1.931 1.287 2.76 1.778 1.666.985 3.873 2.035 5.805 2.879.966.419 1.856.783 2.576 1.054q.543.204.96.338c.142.044.273.083.41.118.141.033.27.066.503.088h.001q.125.011.233.01c.28-.001.512-.034.747-.08.407-.08.814-.21 1.245-.385a9 9 0 0 0 2.006-1.136c.668-.504 1.322-1.144 1.827-1.98l.003-.004-.003.003.021-.034-.018.03c.07-.117.155-.237.295-.419.209-.272.536-.665.978-1.25.44-.587.997-1.367 1.71-2.467 1.117-1.718 2.584-4.296 4.083-8.35 1.504-4.06 3.057-9.608 4.418-17.363a8 8 0 0 1 .304-1.063c.506-1.485 1.557-3.805 2.616-5.46a27 27 0 0 1 2.87-3.736c.447-.487.86-.899 1.207-1.225.345-.324.629-.565.792-.692h.002c.387-.303.68-.637.939-.983.45-.606.802-1.265 1.113-1.935.217-.47.409-.942.58-1.394-15.166-3.315-38.99-7.446-63.52-7.446-8.523 0-16.87.518-24.734 1.334.038.103.074.21.116.308a7.3 7.3 0 0 0 1.454 2.168z" class="fil0"/><path d="M13.42 44.054s.265 56.33 23.432 103.44l52.52-3.852.602-111.105c-40.222 0-76.553 11.517-76.553 11.517" class="fil3"/><path d="m87.336 85.17 1.312 3.179.51-.06L85.5 79.48 62.73 82.9 19.618 95.792l.105.506 45.35-5.23z" class="fil2"/><path d="M84.248 76.465 85.5 79.48l.486-.073-3.478-8.353-21.97 4.046-42.244 14.03.08.432 44.355-6.661z" class="fil2"/><path d="m81.319 68.198 1.19 2.856.466-.086-3.314-7.922-21.23 4.61-41.266 15.03.064.39L60.54 75.1z" class="fil2"/><path d="m78.527 60.336 1.134 2.71.45-.098-3.16-7.528-20.517 5.114-40.227 15.908.054.372 42.17-9.157zM75.87 52.847l1.08 2.573.441-.11-4.048-9.609-57.94 24.674.046.375 40.985-10.216z" class="fil2"/><path d="M62.199 33.52h.001v-.002zM155.021 24.634v-.001.004zM36.767 93.444l.001-.005v-.001zM127.733 6.424l.075.048v.001z" class="fil4"/><path d="m63.483 9.707-.003.009v.002zM78.005 0h-.792a5.6 5.6 0 0 0-2.263.674 9 9 0 0 0-.82.504c-.211.144-.37.256-.438.297l-.005.002c-.524.321-1.16.747-1.684 1.103l-.509.347c-.48.052-1.085.142-1.78.304a13.4 13.4 0 0 0-3.312 1.23h-.003a4.96 4.96 0 0 0-1.784 1.643c-.61.93-.847 1.866-.988 2.587-.069.36-.11.672-.142.888-.015.107-.028.19-.035.228l-.002.01a4 4 0 0 0-.075.273 9 9 0 0 0-.11.598c-.116.742-.23 1.785-.321 2.674l-.063.623c-.231.128-.51.278-.85.455l-.21.11.21-.109c-.537.28-.972.648-1.34 1.037-.55.588-.961 1.235-1.314 1.884-.35.647-.636 1.298-.883 1.894l.013-.03-.014.03q0 .006-.004.01l.005-.01-.004.01c-.255.62-.338 1.238-.34 1.84.005 1.12.292 2.222.79 3.25.252.513.56 1.005.94 1.457.38.45.831.864 1.38 1.19a5.3 5.3 0 0 0 2.305.714c.008.866.208 1.65.49 2.309.41.952.97 1.653 1.446 2.156-.068.042-.136.081-.203.126l.02-.014-.023.015.002-.001a4.8 4.8 0 0 0-.756.62l-.034-.001c-.644-.001-1.476.13-2.305.592a7.6 7.6 0 0 0-1.918 1.495c-.546.588-.99 1.232-1.467 1.979a11.2 11.2 0 0 0-1.122 2.367c-.291.866-.497 1.784-.5 2.748 0 .55.069 1.124.279 1.706v.003l.004.01-.002-.008c.268.738.643 1.579.983 2.312-1.459.828-3.237 1.84-3.239 1.842l-.552.314-.038.088c-.34.103-1.102.256-2.47.253-1.257-.001-2.424.352-3.435.887-1.523.807-2.742 1.996-3.749 3.246a21.4 21.4 0 0 0-2.377 3.748c-.394.791-.658 1.637-.86 2.504-.299 1.3-.451 2.653-.536 3.89a47 47 0 0 0-.097 3.134c0 .378.004.68.004.861 0 .207-.028.705-.08 1.29a65 65 0 0 1-.35 3.049c-.071.516-.146 1.01-.219 1.434-.072.421-.145.78-.198.99-.107.431-.235 1.043-.378 1.805a73 73 0 0 0-.64 4.054c-.186 1.472-.326 2.948-.327 4.206q0 .344.015.672.012.215.011.425c0 1.048-.192 1.972-.422 2.762-.115.396-.24.756-.356 1.09-.117.342-.228.64-.32 1.015v-.003c-.08.338-.247.852-.448 1.484-.2.634-.43 1.392-.627 2.266v.002a8.7 8.7 0 0 0-.207 1.9c0 .671.073 1.307.199 1.892.124.568.296 1.083.536 1.565l-.003.001.01.025c.025.072.079.253.134.48.202.81.457 2.195.65 3.338.09.533.167 1.015.226 1.382l-.083.13.043.615c.024.346.077.699.151 1.107.26 1.408.799 3.455 1.486 5.603.69 2.146 1.51 4.348 2.388 6.05.357.683.785 1.848 1.171 3.147.587 1.957 1.115 4.244 1.49 6.027a113 113 0 0 1 .559 2.833l.03.166.01.054.629 3.582 2.556-2.557c.082-.065 3.555-3.317 13.715-4.416 2.879-.31 6.263-.928 9.751-1.678 10.45-2.252 21.808-5.71 21.834-5.717l.574-.175.37-.474.437-.563c.315-.405.453-.833.518-1.168.066-.34.073-.618.074-.87-.002-.447-.031-.825-.03-1.207 0-.382.025-.757.11-1.153.078-.372.124-.716.124-1.07 0-.286-.03-.581-.123-.896a2.5 2.5 0 0 0-.344-.71c-.034-.051-.077-.097-.117-.145.098-.31.162-.611.205-.9.093-.634.106-1.23.125-1.818.018-.587.036-1.165.097-1.728v-.002c.087-.807.206-1.552.484-2.583.28-1.03.722-2.34 1.457-4.174a38 38 0 0 0 1.61-4.929c.357-1.402.606-2.61.962-3.916l.002-.006-.002.007c.353-1.29.766-2.443 1.209-3.599.443-1.154.918-2.31 1.376-3.583.17-.483.556-1.35 1.017-2.308a143 143 0 0 1 2.467-4.838c.43.316.912.665 1.434 1.04.897.644 1.892 1.347 2.865 2.008.974.662 1.92 1.28 2.743 1.768l.062.037-.062-.036c1.657.978 3.852 2.023 5.773 2.86.96.418 1.845.78 2.562 1.05.36.135.675.247.954.335.14.045.271.084.407.118.14.034.267.066.5.088h.002q.124.01.232.01c.277-.001.508-.034.741-.08.405-.08.81-.208 1.239-.382a9 9 0 0 0 1.995-1.13c.664-.501 1.314-1.138 1.815-1.97.072-.119.156-.239.296-.42.209-.271.534-.663.973-1.244.438-.584.992-1.36 1.7-2.452 1.11-1.71 2.57-4.273 4.06-8.304 1.496-4.036 3.04-9.554 4.393-17.263.028-.166.135-.573.303-1.058.503-1.477 1.548-3.784 2.602-5.43a27 27 0 0 1 2.854-3.714c.444-.484.854-.894 1.2-1.217.342-.324.625-.563.787-.689l-.023.018.024-.019c.384-.301.676-.633.934-.977.45-.603.798-1.258 1.108-1.924a25 25 0 0 0 1.07-2.801c.252-.784.395-1.331.401-1.357l.088-.337-.034-.305v-.018c.004-.19.031-1.2.968-2.732.36-.597.507-1.167.616-1.756.072-.405.108-.826.134-1.256a4.7 4.7 0 0 0 .66-1.99v.002-.008c.574-.013.991-.043 1.321-.072.442-.04.66-.064 1.064-.065.073-.001.314.018.572.07.375.07.812.211 1.053.333.042.198.09.4.142.632.281 1.2.701 3.047.7 5.044 0 .49-.025.987-.082 1.483a31 31 0 0 0-.193 3.555c.002 2.664.276 5.216.469 7.752l-.001-.013.001.015c.108 1.396.27 2.793.403 4.126.132 1.332.233 2.6.233 3.712 0 .827-.057 1.566-.177 2.166a41 41 0 0 1-1.092 4.21c-.361.08-.742.186-1.14.336a7 7 0 0 0-1.884 1.066 6.7 6.7 0 0 0-1.644 1.924 11.4 11.4 0 0 0-1.204 3c-.245 1.01-.337 2.023-.337 3.044 0 1.57.21 3.163.456 4.964.272 1.952.596 3.645 1.057 5.003.238.682.497 1.287.921 1.863.217.286.484.572.863.816.373.243.886.425 1.415.42.395.002.772-.094 1.086-.234.338-.153.605-.32.91-.524a23 23 0 0 0 1.782-1.362c.985-.821 2.099-1.831 3.161-2.892 1.063-1.062 2.07-2.163 2.856-3.21l-.001.001.008-.01-.006.007a15 15 0 0 0 1.79-3.097c.5-1.187.868-2.516.87-3.938.006-1.274-.321-2.643-1.137-3.853-.555-.83-1.322-1.557-2.273-2.163.255-1.083.631-2.763 1.09-5.055.332-1.658.45-3.069.45-4.356 0-1.134-.088-2.161-.18-3.19-.093-1.03-.19-2.067-.234-3.272a95 95 0 0 1-.057-3.398c0-2.765.1-5.692.2-9.42q.012-.433.012-.842c0-2.51-.326-4.434-.802-5.98-.473-1.545-1.087-2.69-1.54-3.602l-.001-.001c-.662-1.312-1.704-2.51-3.037-3.453-1.33-.94-2.977-1.619-4.816-1.713a42 42 0 0 0-2.086-.042c-.997 0-2.067.02-3.057.047a6 6 0 0 0-.223-.522c-.494-1.006-1.169-1.701-1.713-2.169-.073-.062-.137-.11-.205-.165a5.4 5.4 0 0 0-.876-2.063 5.7 5.7 0 0 0-1.448-1.403 7.2 7.2 0 0 0-2.068-.951c-.069-.02-.127-.033-.192-.05a7.4 7.4 0 0 0-1.526-1.404c-.878-.6-2.01-1.027-3.304-1.124l.075.006-.074-.006a7 7 0 0 0-.516-.02c-1.28.004-2.344.352-3.111.678q-.279.121-.504.235-.212-.051-.466-.106c-.746-.157-1.722-.323-2.77-.325q-.133 0-.274.005a5.4 5.4 0 0 0-1.817.38 6.5 6.5 0 0 0-1.681.987c-.113-.006-.231-.02-.34-.02a6.4 6.4 0 0 0-1.764.257c-.096-.06-.199-.126-.32-.204a4 4 0 0 0-1.237-.523 5 5 0 0 0-1.187-.133 8 8 0 0 0-1.868.249c-.86.213-1.616.512-2.178.76-.258.113-.469.215-.63.295l-.84.122-.047.009c-1.132.223-2.069.588-2.828 1.056-1.143.698-1.841 1.643-2.185 2.448-.022.05-.033.093-.052.143-.239.08-.469.17-.679.274a6.6 6.6 0 0 0-1.68 1.193 8.8 8.8 0 0 0-2.417-.333c-.82 0-1.538.107-2.11.23-.565.122-1.005.268-1.199.333h-.001l-1.538.513-.695.077c-1.973.036-3.666.63-4.934 1.243a15 15 0 0 0-1.94 1.134l-.28-.077c-.277-.073-.579-.15-.877-.215a7 7 0 0 0-.923-.15l.047.004-.05-.004a8 8 0 0 0-.569-.019l-.002-.014c.11-.24.238-.537.367-.88.334-.903.688-2.129.691-3.54a7 7 0 0 0-.061-.97V9.7a6.6 6.6 0 0 0-.793-2.363c-.588-1.052-1.39-1.9-2.256-2.573a9.4 9.4 0 0 0-2.736-1.483h-.003l-.042-.015.042.014c-.973-.324-1.75-.483-2.486-.485a4.4 4.4 0 0 0-1.183.158c-.334.094-.576.196-.737.257l.004-.001c-.4.155-.702.352-.956.543q-.014.01-.027.023l-.007-.004a11 11 0 0 1-.607-.553l.01.01-.008-.008a5 5 0 0 0-.368-.327c-.15-.121-.324-.247-.494-.373l-.067-.094c-.133-.168-.193-.213-.24-.26-.089-.076-.12-.097-.148-.118l-.089-.062c-.063-.041-.102-.064-.172-.107-.201-.123-.594-.358-1.306-.78C80.114.428 79.02.071 78.006 0zm-25.26 98.91a239 239 0 0 0-1.028-7.495l.189-.292c.424 1.2.74 2.357.967 3.43.42 1.99.54 3.698.54 4.843 0 .382-.013.7-.031.936-.01.117-.02.215-.03.284l-.01.08-.005.02v.007c-.046.203-.157.631-.291 1.12-.083-.917-.183-1.913-.302-2.932l.001.008zm65.54-37.509a5.63 5.63 0 0 0-1.092-2.752l-.007-.01.009.012c-.316-.42-.697-.87-1.129-1.352-1.04-1.166-2.366-2.515-3.437-3.589l.098-.03q.31-.101.607-.22c.2-.08.395-.165.612-.289l-.022.013.023-.013c.232-.133.645-.318 1.354-.518.706-.198 1.7-.41 3.064-.608l-.074.01.074-.01c1.265-.189 2.736-.631 4.267-1.213 1.525-.582 3.076-1.302 4.39-2.084.246-.145.47-.342.644-.559.264-.327.406-.678.48-.973.056-.225.073-.417.08-.595q.275.018.539.018c.923 0 1.744-.162 2.436-.424.046-.017.082-.04.126-.058l-.132.353c-.734 1.92-2.003 4.75-3.234 6.879-.415.718-1.107 1.859-1.901 3.144a743 743 0 0 1-3.75 5.989l-.666 1.05a13.8 13.8 0 0 0-3.359-2.17z" class="fil4"/><path d="M66.4 4.46h.002l.071-.04zM133.73 5.072h.004zM111.685 37.694c6.754 0 10.597-2.909 10.597-2.909s1.871 1.455 2.91 1.246l1.038-.207s-1.56.831-3.948-.103c0 0-1.351.726-1.973.934 0 0 .622.832 2.18.832 0 0-1.455.206-3.221-.416 0 0-5.922 1.247-8.624.416zM109.634 34.967s2.7-2.702 6.968-3.555c4.262-.854 5.401-.71 4.406.569-.995 1.28-3.27 2.417-5.83 2.843-2.558.427-6.54.995-5.544.143M108.213 32.265s-5.83-.57-8.957.996c-3.129 1.563-3.697 2.131-2.132 2.7 1.563.569 2.416.285 5.826-.426 3.414-.711 7.82-3.27 5.263-3.27M97.406 30.701s-1.136-2.559.711-3.412c1.85-.853 8.246-.711 9.384.853 1.136 1.564-4.975.853-4.975.853s5.4.142 4.265.711c-1.139.57-8.39 2.56-9.385.995M84.184 30.488c.764-.743-.257-1.842-1.04-.832-.207.268-.38 1.02-.006 1.237z" class="fil4"/><path d="M123.96 37.371s.996-2.596-1.414-1.95c-2.41.645-3.016 2.111-6.86 2.696-3.844.583-4.794.212-4.406.793s.912 2.439 5.773 1.602c4.862-.836 6.044-1.791 6.906-3.14M125.25 39.269s.537 2.149-1.523 3.134-5.552 1.97-8.507 1.164-.269-1.79.985-1.97 4.21-.806 5.552-1.254c1.343-.447 3.402-1.701 3.493-1.074M100.624 41.776s0 1.702 3.94 1.254 6-.717 6.089-1.612.179-1.344-1.343-1.344-4.478.09-6 .627c-1.522.538-2.686.538-2.686 1.075zM109.668 37.926s-.986.984-4.298 1.611c-3.313.628-4.567.359-4.388-.447s1.075-.717 3.134-1.254 7.344-2.06 5.552.09M94.534 42.313s-.627-1.343 1.164-1.343 2.866.985 3.76 1.343c.896.358 1.433.986.36 1.343-1.075.359-4.746-.178-5.284-1.343M96.146 37.388s-1.343 1.344 0 2.15 3.134 1.074 3.85.447 1.076-1.611.09-1.701c-.984-.09-2.687-1.433-3.94-.896M111.46 43.836s.357 1.433 1.88 1.88l1.522.448s-4.747 1.344-8.687 1.344-6-.717-6-1.523.36-1.701 1.792-1.164c1.433.537 5.462.269 9.493-.985zM93.012 44.283s1.611 1.433 3.493 1.523c1.88.09 3.134 1.164 2.059 1.791-1.075.626-6.963.46-5.552-3.314zM133.4 31.746s-3.046 1.881-5.285 1.97c-2.239.09-3.134.807-2.686 1.523.447.717 1.612 1.433 4.657.717 3.043-.717 4.477-3.135 3.313-4.21M126.861 38.732s.18 2.059 2.418 2.059c2.24 0 2.867-.895 3.134-1.612.269-.716.09-1.88-.895-1.612-.985.27-5.82.27-4.657 1.165M75.757 10.764c.755-.209-2.624.823-4.68 1.131-2.058.309-5.452 2.212-5.452 2.212s1.338.103 1.75.103c.41 0 1.438-.257 2.416-.463.977-.205 2.416-.463 3.753-.875 1.337-.41 1.544-.41 1.544-.41s-1.749-1.03.669-1.698" class="fil4"/><path d="M59.161 48.194s-3.839 2.133-4.976 2.133l2.133.143s1.706-1.991 2.843-2.276m-1.422 2.56c1.137-1.28 8.388-1.422 9.527-3.27 1.136-1.848-4.692-.284-4.692-.284 2.984-1.707 8.956-3.839 8.956-3.839s.284 2.558.427 4.408c.142 1.848 1.28 4.123 1.28 4.123s-.854-.57-2.276-.711c-1.421-.143-4.55 0-6.54.141-1.99.142-6.682-.569-6.682-.569zm2.205-6.019s-.64-2.464 1.185-4.745 3.47-3.378 3.47-3.378-2.921 1.826-3.926 3.194c0 0 1.552-4.29 4.747-4.838 0 0-1.917-.82-4.472 2.01-2.557 2.828-2.922 5.384-1.004 7.757m2.099 1.552.547-.365c-.091-4.928 4.839-8.124 4.839-8.124-6.938.64-5.386 8.49-5.386 8.49m.913-1.186s.638-.092.364.548c0 0 3.925-1.735 5.477-2.83 1.553-1.096 2.921-1.643 3.286-2.921s.639-2.008.639-2.008-2.555-1.004-5.841 1.825c0 0 2.647-1.46 3.924-1.37 1.278.093-.913.73-2.464 1.37-1.551.638-4.2 2.19-5.386 5.386zM150.152 34.403s-1.277 4.123-2.843 5.83c-1.563 1.706-4.121 2.986-4.69 3.838-.568.853-2.558 5.546-3.127 7.393-.571 1.85-1.99 7.536-2.133 9.526s-1.566 7.82-3.554 11.375c-1.993 3.554-2.987 4.123-3.413 5.686-.427 1.565-4.124 6.257-6.827 5.404-2.7-.854-4.121-3.413-3.124-4.977.994-1.563 3.837-3.554 3.979-4.407s.568-4.265-1.991-3.555c0 0 2.56-1.99 4.124-2.844 1.562-.852 5.118-5.118 5.118-5.118s-2.417 1.565-4.266 1.848c0 0 3.128-2.844 4.407-5.686 1.28-2.844 1.28-7.11 2.134-9.1s.142-2.985 1.138-3.697c.993-.71 1.848-.71 1.562-1.99-.282-1.279-1.99-1.137-1.99-1.137s-.283-2.133.143-3.412c.426-1.28.853-3.27 1.707-3.128.853.142 1.563 0 2.275-.71.71-.712 1.42-2.418 2.699-1.422 1.281.994 1.708.71 2.56 0 .854-.711.569.426 1.565.71.994.284.994-2.132 1.848-1.563.851.567 1.137 2.416 2.699 1.136zM114.326 76.63c-.853-2.7 0-3.982 0-3.982s-5.545-.995-6.113-3.412c-.466-1.975 1.826-4.616 4.31-5.669-1.272.374-3.019.962-4.31 1.689-2.276 1.28-2.844-.854-1.422-4.266 0 0-3.697 4.834-4.408 6.825-.325.912-1.126 2.327-2.171 3.718-.954 1.269-2.091 1.854-3.267 2.372-.71-.012-1.366-.118-1.812-.403-1.566-.995-5.83 2.275-9.528.285 0 0 2.701 1.847 4.55 1.99 1.039.08 2.619.16 4.206.012.68.475 1.184 1.254 1.203 2.01.03 1.303-1.27 2.119-2.31 2.528 1.007.3 1.313 1.462 1.032 2.562-.394 1.522-1.666 1.423-2.866 2.175 1.505.747 3.649 1.287 3.855 3.224.19 1.802-1.314 1.812-2.528 1.335-1.885-.739-2.731-1.822-4.978-1.76-2.313.061-3.35.275-4.598-1.673.684 1.925.682 2.554 2.57 3.54 2.608 1.363 3.238 1.96 2.15 4.65 1.707.083 4.778-.983 5.25 1.16.26 1.178-.633 3.407-1.316 4.27-.814 1.028-2.52 1.162-3.305 2.27.61.366 1.239.536 1.916.706 1.77.446 2.18.306 3.093-1.17.73-1.175 1.435-2.402 1.746-3.8.317-1.435.25-3.015.813-4.432.606-1.52 1.092-1.816.923-3.572-.158-1.674.535-2.324.68-3.976.125-1.406-.38-2.888-.141-4.23.173-.978 1.015-2.056 1.216-3.017.24-1.157.001-2.737-.364-3.807l.131-.13-.006-.077.092-.047c.657.034 1.227.06 1.426.06.57 0 1.202 1.615.632 2.61-.569.997-.71 1.423-.569 3.697s-.141 4.55-.141 4.55l6.397-10.948s6.398 4.408 8.246 5.12a21.6 21.6 0 0 1 3.413 1.704s-2.845-1.99-3.697-4.691z" class="fil1"/><path d="M120.296 65.397s-1.704-1.99-3.268-2.842c0 0-.568-3.271-5.404-7.393 0 0 5.118 4.833 3.84 6.396-1.122 1.37-2.35 1.65-2.64 1.698.129-.018.461-.055.932-.066a6 6 0 0 0-1.234.377c.614-.18 1.108-.308 1.395-.38 1.492-.01 4.163.283 6.38 2.21" class="fil1"/><path d="m112.825 63.257-.063.009q0 .001.063-.01M98.543 75.172c0-.159.046-.38 0-.533l-.01.012c.016.172.037.35.01.52M49.351 126.534c-.142-2.984-.142-3.27-1.422-6.115-1.28-2.842-4.408-9.952-4.692-12.367l-.284-2.417s1.848 3.127 2.843 4.263l.995 1.14s-1.847-5.403-2.843-7.11c-.995-1.706-5.119-4.833-4.976-11.658 0 0-1.138 2.986-.426 4.834.71 1.848.71 4.692 1.706 9.668.994 4.976 1.563 6.681 3.838 12.224 2.275 5.546 2.559 9.243 2.133 10.38s.285.71.285.71l4.407-.567s-1.422 0-1.564-2.985zM85.037 97.104c-1.848-1.565-3.696-.285-5.973-.142-2.273.142-4.974.995-7.676.853-2.701-.144-3.554-1.563-2.844-3.982.711-2.417 4.835-2.416 8.815-3.127s4.834-4.124 4.834-4.124-1.421 1.422-3.839 2.133c-2.416.71-4.833.71-6.681.852-1.849.142-3.84 2.56-5.687 2.276-1.849-.284-2.987-2.703-3.412-4.977-.427-2.274 1.99-2.275 2.415-3.98.427-1.706 2.703-1.565 3.84-2.844 1.137-1.28-.142-2.275 4.692-2.133 4.833.142 8.815-3.555 8.815-3.555s-6.255 1.423-9.668.854c-3.413-.568-6.967-2.986-8.674-5.971-1.705-2.986-6.822-2.559-6.822-2.559-.936-.14-2.8 1.817-3.25 4.167a9.8 9.8 0 0 0-1.585-2.888l.426 1.565c.853 3.27-1.422 7.82-1.99 10.52-.57 2.702-4.835 6.114-4.835 6.114 3.27 1.138 1.706 4.977 2.701 7.109.996 2.133.143 7.109.143 7.109 1.28 1.278 2.417 7.392 2.56 9.24.142 1.85-1.28 2.418-1.28 2.418l3.696 11.941-.427-3.412c-.426-3.41-2.132-18.054-2.274-21.608s-.996-7.82-.996-7.82l2.134-3.129s1.705 3.84 2.416 6.683.711 4.55.284 6.54c-.426 1.991-.995 3.697-1.137 4.976 0 0 1.564-5.12 1.848-7.108.285-1.991-1.137-6.684-1.563-8.247-.427-1.566-1.564-3.412-1.138-5.118.142-.569.646-2.084 1.083-4.065.089 1.123.138 1.94.055 2.216-.427 1.421 1.279 6.256 2.275 6.399.994.14 1.421 1.99.284 3.553-1.138 1.565.142 3.27.426 3.982.285.71 1.422 1.137 5.119 2.7 3.696 1.565 8.814 1.565 11.8 1.424 2.985-.143 5.688-.713 9.1-.855s5.545-.285 5.545-.285-1.708-2.132-3.555-3.695M39.683 90.137s.047-.136.12-.366c-.078.224-.12.366-.12.366M42.384 86.156c1.706-.57 1.564-.996 1.137-1.706-.426-.71-1.705-7.11-.568-10.664s3.839-4.692 3.839-4.692-2.844-3.27-2.987-6.255c-.141-2.986 1.92-8.46 3.414-9.953 0 0-4.55 4.692-4.55 11.09s-.427 9.1-.853 11.232c-.427 2.133-.995 6.54-.995 9.1 0 2.046-.727 4.544-1.019 5.463.31-.893 1.218-3.16 2.582-3.615M87.236 25.552c.142.105.307.18.487.23a4 4 0 0 1-.487-.23" class="fil1"/><path d="M151.192 25.272c.021-.006.043-.007.064-.014l.235.373a4 4 0 0 0-.3-.359zm-57.944-2.136s.428 2.238.44 3.574c.01 1.334-.012 6.13-.227 7.729-.143 1.075-1.055 3.158-1.64 4.604-.204.332-.52.817-.873 1.28-.787.686-1.734.184-2.5.083-.915-.123-1.85.007-2.696.305-.693-.224-2.066-.547-2.066-1.329 0-1.336 2.621-1.938 2.621-1.938 1.629-.192 4.024.288 4.024.288s-.67-.672-1.15-.96c-.322-.193.376-1.231.867-1.89l-.058-.084c-.566.502-1.679 1.02-2.495 1.082-.704.053-1.187.229-1.676.355-.215.055-1.024-.023-1.279-.106-.433-.14-.942-.276-1.18-.294-.606-.043-1.283-.159-1.339-.216-.167-.172 2.074-.477 2.163-.644 1-.07 1.395-.3 2.345-.533 1.04-.257 1.67-.252 3.594-.376.028.006.06.008.086.015l-.028-.018.072-.006c.166.07.331.124.522.13a1.2 1.2 0 0 0-.172-.556 1.5 1.5 0 0 0-.796.108c-.518-.296-1.176-.664-1.574-.713-.62-.074-1.073.436-1.732.554-.604.108-.926.012-1.464.326-.199-.066-1.51.557-1.548.37-.083-.417 1.336-1.756 1.336-1.756s.148-.012.38-.05q.247.053.472.053c1.114-.007 1.579-.888 2.336-1.529.19-.428.155-.843-.118-1.01-.18-.11-.312-.143-.42-.13l-.001-.002v.002a.37.37 0 0 0-.241.145c-.082.051-.19.152-.34.374q-.136.134-.3.24c-.477.274-.893.224-1.452-.277-.838-.753-.255-1.678-.176-2.572.12-1.37-1.126-2.37-1.833-3.55-.033-.389-.037-.813-.197-1.085-.544-.93-2.138-.92-3.02-.744-.768.153-1.538.303-2.313.305-.025-.01-.052-.015-.076-.027-.792-.367-1.308-.269-1.069-.59a67 67 0 0 0 3.462-1.39c2.43-1.06 4.566-2.227 6.372-3.271a5.7 5.7 0 0 1 1.303-.247c.326-.026.839.036 1.322.192.236.52.534 1.149.882 1.757-.644.297-1.24.643-1.989.8-.963.202-1.548.23-2.346.856-.386.303-.85.567-.98.866-.145.335.07.705.151 1.035-.013.006-.03.255.512 1.091l-.009-.002q.076.104.164.23c.16.236.346.498.593.818q.002-.02.004-.037c.18.196.373.354.57.42.28.095.522.23.768.36a1.13 1.13 0 0 1-.342-.41c-.151-.309-.286-.868-.139-1.157.32.016.644.043.968.07 1.133.31 2.064-.11 2.754-1.25l-.284-.044c-.544 1-1.447 1.025-2.396.986-.183-.136-.248-.412-.364-.555-.076-.094-.183-.018-.339-.082.059-.27.153-.476.276-.635.212-.273.511-.406.85-.496a.22.22 0 0 1 .001-.138c.017-.046.11-.134.215-.217.17-.082.402-.153.608-.058 0 0 .02-.092-.028-.166.648-.102 1.054-.037 1.315.094.01.005.012.013.018.02.266-.14.685-.3 1.033.074.42.452.928.648 1.477.626.157.229.286.512.39.923 0 0 .548-.606.62-1.183l.01-.005-.009-.008c.025-.221-.017-.44-.194-.616-.5-.5-.998-.678-1.397-1.136l-.178-.236a2 2 0 0 1-.134-.228c-.393-.787-.61-1.031-1.142-1.398a7 7 0 0 0-.533-.538c-.442-.394-.93-.724-.96-1.175.008-.164.064-.335.182-.514 1.379-1.3 3.55.735 3.862 1.04.087.34.446 1.681.724 2.052.266.353.74 1.643.72 2.505-.353.826-1.572 1.44-1.572 1.44zm-13.06 1.456c-.396-.313-1.064-.244-1.064-.244.01.101-.046.36-.046.36-.11.035-.222.06-.334.085.132.065.227.17.214.332-.02.246-.274.392-.505.4-.137.006-.465-.1-.529-.312a.4.4 0 0 1-.047-.24c-.536.315-1.273.916-1.17 1.265.054.186.746.212 1.174.226-.14.139-.296.241-.461.323.922.425 1.819.207 2.513-.132-.195.332-.66.93-1.724 1.164-.742-.283-1.494-.622-2.278-.737-.964.048-1.87.04-2.091 1.092-.596 2.833 3.64 1.449 4.777 2.213.502.338.794 1.564.768 2.13a3 3 0 0 1-.024.258c.016.808-.145 1.684.566 2.204-.142-.58-.024-1.087.581-1.737.833-.896 1.482-.889 1.67-1.797a1.7 1.7 0 0 1-.258-.39 1.7 1.7 0 0 1-.154-.593c-.003-.018-.01-.034-.012-.053q.007.014.011.029c-.11-1.429 1.132-3.238-.227-4.384-.331.236-.526.516-.745.804.134-.912.103-1.872-.516-2.262zm87.865 37.12c-.582-.87-1.48-1.636-2.737-2.244.192-.768.68-2.786 1.336-6.067.314-1.573.422-2.871.421-4.073-.001-2.118-.324-3.904-.413-6.41a98 98 0 0 1-.058-3.45c0-2.8.1-5.736.201-9.46q.01-.413.011-.801c0-2.39-.306-4.151-.738-5.554-.431-1.403-.984-2.444-1.451-3.38-.536-1.069-1.434-2.111-2.575-2.917s-2.534-1.372-4.054-1.45c-.58-.028-1.275-.04-2.017-.04-2.096 0-4.563.091-5.836.145-.16-1.416-1.553-1.654-1.553-1.654s1.293-2.682-.725-4.329c0 0 .967 1.512.554 2.382a1.03 1.03 0 0 0-.54-.47c-1.138-.427-1.562 1.28-1.562 1.28s-.003-.558-.278-2.215c.006-2.12-1.573-2.888-1.573-2.888 1.227 1.184.79 1.969.6 2.206-.586.178-1.273.616-1.595.053-.568-.995-1.28-1.705-2.7-2.56-1.422-.852.853-1.279.853-1.279-2.275-.426-4.123.996-4.123.996s4.32.397 6.113 3.98c1.422 2.844-1.562 1.422-3.269-.284s-4.41-1.422-5.972-2.986c-1.368-1.367.738-1.322 1.292-1.289-2.337-.261-3.9.595-4.84 1.44-.525-.177-1.534-.183-2.493.22-.854-1.076-2.787-2.053-7.04.34 0 0 3.412-.284 4.835 1.706 0 0 1.704-1.137 2.842-.71 0 0-.115-.646-.593-1.278.52-.044 1.742-.103 1.888.299-.4.47-.584.836-.584.836 3.555 0 6.684.995 9.527 2.844s4.692 4.692 4.692 4.692c.869-.956 1.526-.797 2.229-.658-.078.056-.156.11-.234.174l.558.683c.742-.605 1.453-.736 1.973-.738a2.7 2.7 0 0 1 .69.09l.033.01h.002l.084.03.089-.004c.002 0 .928-.046 2.226-.09 1.298-.046 2.964-.092 4.43-.092.733 0 1.415.012 1.973.04 1.325.065 2.562.564 3.59 1.288 1.025.723 1.833 1.671 2.294 2.591.475.952.993 1.928 1.398 3.245.404 1.316.698 2.979.698 5.295q0 .376-.011.778c-.1 3.72-.2 6.662-.2 9.483 0 1.167.016 2.312.057 3.482.094 2.571.415 4.36.414 6.378-.001 1.149-.102 2.381-.405 3.9a155 155 0 0 1-1.028 4.784q-.186.795-.286 1.192l-.101.393-.097.365.346.152c.801.353 1.426.756 1.914 1.195.321.611.35 1.376-.885 1.957-2.417 1.136-5.258-.569-4.404 1.706.85 2.274 1.42 2.417-.427 5.403-1.85 2.985-3.982 5.26-4.409 1.28-.22-2.048-.439-1.989-.6-1.449-.15-1.2-.253-2.27-.252-3.257.003-1.765.311-3.262 1.235-4.886.606-1.059 1.472-1.638 2.333-1.968a6.3 6.3 0 0 1 2.53-.38l.083.005.023.003.017-.08a.96.96 0 0 0 1.155-.581c.543-.11.902-.443.698-1.287-.177-.727-.638-.85-.863-1.182a1 1 0 0 1-.063-.112q-.01-.023-.017-.048c-.154-.627.466-1.257.352-1.784l.086-.242c.246-.69.515-1.44.68-2.175l.01-.04q.053-.245.09-.488l.016-.11q.037-.264.046-.52v-.006c.026-.973-.203-.512-.484-1.384-.155-.483-.228-.79-.252-1.353a5 5 0 0 1 .027-.847c.084-.205.169-.41.2-.614l.01-.021a2 2 0 0 1 .09-.124l.055-.066q.108-.12.256-.23l.004-.002q.164-.118.383-.222l-.004-.004.004-.002a1 1 0 0 1-.109-.086l-.05-.041a2 2 0 0 1-.115-.12l-.046-.057a2.5 2.5 0 0 1-.353-.605 2 2 0 0 1-.07-.177l-.004-.009a2.6 2.6 0 0 1-.146-.83q0-.07.003-.135.004-.03.007-.06a1.3 1.3 0 0 1 .051-.237q.005-.019.012-.038a.85.85 0 0 1 .617-.56h-.019c.007-.002.011-.006.02-.007-.3.035-.661-.04-.941-.046-.008-.167-.024-.345-.038-.524q-.016-.2-.02-.394 0-.038.002-.076a2 2 0 0 1 .033-.372l.01-.069q.016-.056.034-.11.02-.057.043-.112a1 1 0 0 1 .063-.12q.027-.04.059-.08a1 1 0 0 1 .099-.112c.017-.016.04-.028.058-.042.045-.036.09-.07.145-.1l-.012.001.012-.007c-.324.102-.744-.045-1.072-.015a2 2 0 0 1-.018-.332l.007-.093q.008-.107.027-.207.008-.056.02-.11l.012-.036c.156-.246.364-.459.397-.838q.066-.099.136-.196c.14-.195.288-.386.428-.58l-.004-.002.004-.005c-.343-.208-.618-.324-.825-.453a1.2 1.2 0 0 1-.19-.141c-.026-.025-.046-.056-.069-.084a.8.8 0 0 1-.096-.151.8.8 0 0 1-.071-.184c-.008-.036-.012-.081-.019-.121.032-.471.034-.692.07-1.068a2 2 0 0 1 .072-.187l.032-.076q.052-.105.115-.208.02-.031.037-.064c.29-.471.683-.903.909-1.409l.022-.046q.075-.173.119-.36l-.003-.001.003-.006c-.521-.118-.79-.475-.877-.92a2.7 2.7 0 0 1 .032-.902c.008-.038.022-.069.031-.104q.032-.117.07-.218.042-.097.088-.183.026-.05.053-.096a2 2 0 0 1 .122-.172l.04-.05c.345-.404.807-.62 1.154-1.15h-.004l.004-.006c-.492-.069-.895-.123-1.387-.188a3 3 0 0 1-.043-.421c-.033-.944.38-1.627 1.15-2.218l-.004-.003.004-.003c-.427-.386-.956-.545-1.534-.484-.02-.683.164-1.405.79-1.712l-.007-.002.007-.004a.9.9 0 0 0-.334-.083h-.007c-.354-.024-.667.159-.992.285-.15-.007-.227-.127-.282-.304a1.7 1.7 0 0 0-.31-.926l-.044-.06a2 2 0 0 0-.167-.201l.012-.071-.054-.12c-.034-.079-.08-.144-.126-.209.435-.65 1.094-.967 1.772-1.367l-.01.001.01-.007c-.794-.029-1.495.595-2.17-.139a.77.77 0 0 1-.198-.45c-.05-.502.303-1.105.828-1.338l-.019.005.019-.011c-.965.266-2.457.75-3.039.365-.441-.29-.57-.7-.53-1.13.04-.432.252-.88.488-1.244l-.005.001.005-.008c-1.3.543-3.49 1.79-3.617.699-.016-.155.006-.357.081-.614h-.002q0-.003.002-.006c-.694.486-1.728.387-1.681-.376.013-.177.082-.39.228-.638l-.006.005.006-.01c-1.206 1.22-4.12 2.59-4.99.316-.137.45-.662.752-1.218.854l.003.005-.003.001.168.267c-.489.348-1.235.46-1.81.403a1.4 1.4 0 0 1-.157-.633c-.006-.358.107-.717.258-1.02l-.004.001.004-.007c-.799.077-1.462 1.033-1.405 1.828v.005c.054.745.38.977.9 1.07-.319-.02-.588-.081-.758-.217-.709-.568-1.136-2.132-.283-2.843l-1.075-.835c-.64-.99-1.812-2.576-3.049-3.146 0 0-.426 2.132-1.99 1.421-1.564-.71-2.985-2.132-5.972-2.417-2.985-.284-4.691 0-5.403.854-.71.853-.424 1.99-.424 1.99s2.7-1.28 4.69-.853l1.992.426s-4.1.33-6.508 1.858c-.875-.015-2.174-.116-2.451-.578-.425-.71-.71-1.28-.71-1.28s-1.99.854-2.985.57c-.995-.286-4.836.14-4.694-.996.144-1.137.995-1.849.995-1.849s-4.407.285-3.695 4.692c0 0 3.555-1.279 6.54-.284 2.987.995 2.987 2.275 1.991 2.275-.995 0-3.98-.853-6.968-.426 0 0 6.968.283 5.69 1.421l-.53.471c-.915-.304-2.078-.498-3.975-.55-3.552-.099-5.824 1.876-6.32 2.271-.492.395.397 1.185.397 1.185s6.121-2.074 12.936-.197l.789.098s-.027-.173-.178-.437l.007.003s.142-1.423 1.137-2.844 2.418-1.706 2.418-1.706-.55-.55-.687-1.01c1.196-.784 3.156-1.75 5.665-1.833 4.262-.143 5.686.284 5.828 1.563.107.973-1.425 1.123-3.166 1.016.979.148 1.644.366 1.46.692-.204.357-.612.585-1.048.731a12 12 0 0 1-.375-.021c-1.99-.142-6.115-.142-10.095 2.843l-.142.569.57 1.848s1.564-1.991 4.976-2.417c3.411-.427 5.545-.71 5.97.286.426.993-.425 1.989-1.421 2.414-.995.428-2.985-.283-5.119.712-2.131.995-4.55 1.28-4.834 0 0 0-.425 1.421 1.137 2.132 1.566.711 1.563.285 3.981-.142s3.982-1.136 4.123.142c.144 1.28-1.705 3.128-3.697 3.413-1.989.283-3.553.283-3.553.283s1.704-.993.852-1.99c-.553-.646-1.165-.452-1.528-.237-.53-.88-1.57-1.882-3.59-2.037 0 0 .142 1.563-2.274 1.706-2.417.142-4.835-.427-6.825.853s-4.265 1.849-3.269 0c.709-1.28 1.847-2.559 6.967-2.986 5.117-.427 7.96.427 7.96.427-.852-1.42.143-2.559.143-2.559-.57-1.99-6.825-1.848-6.825-1.848s2.418.995 2.418 1.848-.712.711-2.56.569c-1.847-.142-4.123.57-5.971.57-1.849 0-1.564-1.565-1.564-1.565l-.854 1.564c-.646 1.182-.152 2.85.128 3.594-.275-.659-.83-1.964-1.075-2.295 0 0-.1-1.778.592-2.271 0 0-3.655-2.272-11.06-1.185 0 0 5.531-.198 5.531.593 0 .765-6.685-.79-6.19 2.267-.278-.082-.609-.27-.898-.703-.64-.96.853-1.707.853-1.707s-.535 0-1.174.213-1.92-.106-.852-1.386c.457-.55 1.482-1.077 2.505-1.502 1.398-.19 4.116-.43 6.742.053 3.753.691 4.445 1.381 4.445 1.381s-.89-1.777.196-2.665c0 0-7.533-2.044-10.947-1.209-.247-.067-.382-.11-.382-.11l-.64.533c-.64.534-1.919.746-1.919.746s.091.392-.176 1.164c.084-.487.142-1.156-.038-1.697-.28-.836-1.205-2.318-1.438-2.686-.006-.03-.013-.057-.018-.089 1.243-.167 2.757.323 2.95 1.097.196.782-.718 1.37-.718 1.37s-.325.13.328.064c.652-.064 1.669-.502 1.669-.502-.126-.246.172-1.103.297-1.44.012.073.095.15.381.182.133.016.263.016.383.008v.001h.003c.15-.009.287-.03.4-.052 1.35-.153 6.012-.493 11.247 1.337 0 0 .298-1.285 1.087-1.482 0 0-2.863-1.975-6.222-2.172 0 0 3.063 1.185 2.964 1.776-.094.557-4.999-1.17-8.769.276.001-.245.098-.698.733-1.06.913-.523 2.804-1.174 5.606-1.5 0 0-4.172 0-5.8 1.108-1.632 1.108-1.958 1.434-1.958 1.434l-1.304-.456c-1.206-.422-3.013-.052-3.278.006-.505-3.252-4.02-2.424-6.754-.952-2.772 1.493-6.292 2.453-11.09 3.945-.959.3-1.819.65-2.613 1.026 1.866-1.089 3.706-2.003 5.314-2.432a65 65 0 0 0 7.49-2.495s-5.507-1.176.514-5.435c0 0-2.276.88-3.157 2.277-.882 1.395-1.543 2.349-4.774 2.936-3.23.588-12.998 0-16.45 3.158-.99.905-1.475 2.031-1.518 3.083-.583-4.807 4.317-7.023 4.317-7.023-5.77 2.309-4.601 6.524-4.317 7.328.028.66.233 1.275.602 1.773.294.396.624.71.624.71 1.517 1.3 2.595 1.326 4.26.81-.238.65-.533 1.869-.103 3.235.64 2.026 1.706 2.88 2.56 3.306.853.427 1.386 1.6 2.132 1.493l.748-.106s.137-.027.315-.097c.33.562.654 1.132.964 1.701q.203.374.42.719c.418.821.556.973 1.054 2.838.115.427-.137 3.02.018 3.375.996 2.275.265 5.622.996 6.682 2.131 3.094 1.196-2.355 2.903-1.928.731.183 3.111 3.855 3.86 4.837 3.093 4.048 3.231.829 4.042.503 1.422-.568.414-1.67 1.28-3.98.748-1.998-1.413-3.067-.298-3.29.68-.136 1.044-.858 1-1.657.811-.149 1.306-.429 1.973-.793a9.7 9.7 0 0 0-.258 2.185c0 1.99-.142 4.123-.427 5.83l-.285 1.705s2.275-1.563 5.69-.995c3.412.57 3.695.996 6.254 0 2.56-.995 7.25.142 8.673 1.706 0 0 .426-1.472 2.275-1.472 1.846 0 1.565.478 2.558-.234l.995-.71s-3.27-.285-2.275-.57c.997-.284 2.988.57 6.541-.284 3.556-.853 6.256-1.564 6.824-3.413l.57-1.847s2.701.284 4.549-.426l1.848-.711s-.284-2.986.142-4.977c.428-1.99.853-3.554.853-4.975 0-1.423-.142-2.987-.142-4.409s-.283-2.7.712-3.41c.994-.712 1.706-.712 1.846.14.144.853.428 3.982.428 3.982l.427 2.844.64 1.35-.497-5.19-.285-3.127-.569-2.418s-.147-.91.427-1.35c1.207-.925 1.705.213 1.705.213s.224.808.494 1.858c-.198-1.317-.349-2.418-.349-2.712 0-.852-.145-1.847.71-1.847.852 0 1.42-.142 1.99 1.137.567 1.28 1.42 6.967 1.42 6.967l.854 3.127.853-5.403.428-2.985s.115-1.429.96-1.722q.202-.024.385-.052c1.062.021 1.07.495 1.07.495s.142 2.487 0 3.767c-.143 1.28-.143 3.484-.143 3.484s.144-2.844.996-2.844c.853 0 1.138 1.706 1.278 2.274.145.57 0 5.688 0 5.688s.237-.34.465-.949c.486-.77 1.54-2.611 1.813-4.454 0 0-.882 1.795-1.404 2.41.093-1.705-.16-4.116-.16-4.116s1.411.283 1.562.707l-.142-.422.22.383c.03-.02.322-.19.634-.563.313-.374.642-.96.722-1.767.023-.225.029-.424.029-.596 0-.22-.01-.397-.01-.52 0-.064.003-.104.007-.131.075-.029.346-.067.817-.063h.305c.375.172.757.251 1.126.25.581 0 1.121-.174 1.637-.39l.088.003h-.001q.093.007.2.018h-.004.002q.047.006.093.013c.17.164.355.299.547.386.368.167.736.225 1.06.289.304.057.56.122.757.224l.062.068.012.018c-.01.1-.025.2-.025.296 0 .434.102.813.224 1.148.12.327.254.618.352.903l.024.117q.108.526.203 1.124l.024.156.009.055.022.052c.047.11.066.226.066.371.005.287-.097.665-.101 1.115-.002.273.055.584.217.881l.003.075v-.002a13 13 0 0 1-.014.908l-.015.187c-.022.279-.09.545-.16.827-.067.282-.143.581-.143.92-.001.196.036.405.105.616l-.007.178v-.002a32 32 0 0 0-.039 1.595v.385a3 3 0 0 0-.183 1.017c0 .399.077.8.253 1.156l.01.116c-.143.388-.233.758-.233 1.129-.002.445.141.874.402 1.274.005.038.01.073.014.125q.007.091.007.164v.019a2 2 0 0 0-.113.64c.001.346.074.666.145.951.072.283.142.533.163.709l.011.137.007.1c-.048.364-.202.82-.207 1.344a1.77 1.77 0 0 0 .453 1.197l.003.024q.017.149.031.293v.007l.03.276v.026c0 .263-.044.505-.097.757-.05.252-.113.517-.114.82 0 .21.034.438.127.665.074.18.19.356.333.53l.009.15q.034.567.048 1.106v.002l.006.236c-.024.232-.085.467-.15.727a3.7 3.7 0 0 0-.134.89c0 .233.048.487.14.744l-.021.13-.04.222q-.063.307-.129.608l-.039.126c-.28.36-.42.77-.492 1.168-.072.414-.08.822-.094 1.195l-.031.112-.016.056v.057c-.012.803-.16 1.236-.273 1.45a.7.7 0 0 1-.13.184l-.011.01-.589.303c-.411.065-.864.17-1.333.349-1.002.379-2.066 1.091-2.785 2.355-1.007 1.756-1.355 3.455-1.352 5.323 0 1.435.197 2.973.443 4.766.264 1.9.584 3.535.993 4.73.206.6.43 1.089.71 1.463.14.186.296.345.481.464s.406.194.635.193c.171 0 .341-.04.498-.11.395-.179.92-.543 1.577-1.05 1.952-1.522 4.916-4.294 6.56-6.482 1.155-1.549 2.364-3.845 2.371-6.167.001-1.044-.256-2.098-.891-3.044zM111.746 16.12l.07.037z" class="fil1"/><path d="M111.746 16.12c-.327-.184-1.718-1.007-1.017-1.444l.79-.495s-2.173-.986-5.334.593c0 0 1.855-.777 5.56 1.345zM132.524 18.054c.547.069 1.118.128 1.67.162a24 24 0 0 0-1.99-.197c.108.013.208.021.32.035M128.828 17.911s1.68 0 3.377.108c-2.081-.232-3.377-.108-3.377-.108M152.146 26.868l-.002-.003c.042.126.064.191.002.003M140.345 28.432c0-.772-.518-2.94-.93-4.54.38 2.515.93 5.82.93 5.82zM135.666 6.954c.044.005.083.004.127.01 0 0-.048-.005-.127-.01M121.86 12.651c2.133.569 4.126 2.56 4.126 2.56s-2.54-3.247.117-4.536c-.24.14-2.199 1.239-3.53.838l-1.422-.426s.07-.688.542-1.01c-.923.113-2.193.196-1.821-.27l.569-.71s-3.697.284-4.126 3.411c0 0 3.413-.426 5.546.143z" class="fil1"/><path d="M121.693 10.077c.487-.06.88-.128.88-.128-.39-.086-.672-.014-.88.127M141.055 31.845l-.71-2.133.212 2.915zM147.564 27.667c-.512 1.72-.468 3.037.096 4.74h.195c-.476-1.79-.3-3.647-.29-4.74zM144.397 31.916l.282.497.143-4.62-.568 3.27zM90.825 26.338c-.466 1.243-1.764 1.168-2.794 1.83q.003 0 .004.004l-.004.002c.21.219.442.487.67.782-.046-.034-.06-.043-.053-.025-.002.015.09.147.106.371a1 1 0 0 1-.05.371l-.192.576h.002l-.002.007s.668-.146 1.287.865c.02.113.12.315.097.174q.076.137.148.303v-.007s0-.564-.273-1.234c-.005-.12.281-.22.672-.216.581.1 1.32.656 1.273 2.315-.02.682.345.047.71-.957.1.284.158.615.146 1.016-.032 1.165.196-1.556.496-3.36.055-.19.068-.405.059-.632-.02-.566-.184-1.201-.203-1.68a2 2 0 0 1 .008-.262v-.006c-.508.67-1.965.754-2.107-.237zM93.887 10.233c-.106 2.667-1.886 3.755-1.886 3.755s1.9 1.279 1.367 2.666c0 0 2.333-2.688 1.373-6.633-.668-2.743-4.586-4.692-4.586-4.692s3.838 2.239 3.732 4.904M81.949 7.21s2.422-.809 1.743-1.822l.928.77c.242.451.639 1.655-1.14 2.786 0 0 2.144-1.025 1.766-2.165l.43.47s.64 1.066-1.386 3.091c0 0 1.28-.853 2.24-2.346.7-1.088.77-2.454-.315-2.539.515-.972 3.308-.374 3.308-.374-3.048-.904-4.458.417-4.764.763l-.022.01-1.71-1.018.656.543c-.009.042-.232 1.13-1.734 1.83M71.077 11.901c1.408-.21 3.435-.76 4.33-1.02.108-.037.22-.075.35-.11.237-.066.064-.008-.35.11-1.88.665-.32 1.586-.32 1.586s-.206 0-1.543.411c-1.337.412-2.776.67-3.753.875-.978.206-2.006.463-2.417.463s-1.749-.102-1.749-.102 3.394-1.904 5.452-2.213zm-1.752-1.77c-4.23 1.306-3.688 3.341-3.688 3.341.52-.564 3.037-1.432 3.037-1.432s-.26-.173-.348-.868c-.086-.694.999-1.04.999-1.04zm-.246-2.097s-3.21 1.171-3.34 3.124c0 0 2.082-1.172 3.296-1.388 0 0-.824-1.042.044-1.736m.91-2.372c-.997.521-.564 1.346-.564 1.346C67.691 7.572 66 9.263 66 9.263c.216-2.776 3.99-3.601 3.99-3.601m-1.755 9.115c1.463.158 3.664.495 5.863.46.058.002.112.007.171.008.368.01.734-.023 1.098-.074.131-.012.263-.022.393-.038 3.52-.427 6.506-3.626 6.506-3.626-.971.411-1.769.78-2.409 1.044-.024-.002-.048.003-.072 0-.12.061-.257.124-.401.185l-.04.014q-.273.114-.604.226c-3.28 1.093-5.354.603-5.49.569.198-.036.386-.08.575-.124q.03-.005.058-.012a15 15 0 0 0 .63-.162 15 15 0 0 0 3.971-1.777l-.003-.005c.365-.235.568-.392.568-.392l.062-.022c.944-.585 2.088-1.037 2.088-1.037l-1.6.535a6.7 6.7 0 0 1-1.488.309c-.108-.148-1.088.342-1.043-.98a.5.5 0 0 1 .029-.153c1.05-.647 3.036-1.31 3.036-1.31s-1.172.32-2.132.64a10 10 0 0 1-.426.13c.061-.038.104-.059.104-.059s-1.755.316-1.59-.869c.012-.082.1-.276.163-.41.43-.279.917-.536 1.3-.723l.05-.024h-.002l.135-.066-.15.067c-.077.004-.435-.012-.434-.639 0-.556 1.017-1.427 1.17-1.773.744-1.706 2.132-1.813 2.132-1.813-1.28-1.065-3.52-1.386-5.119-.425-1.6.958-2.986 2.238-2.986 2.238s.854-.427 2.453-1.173c1.6-.746 2.346-.214 1.92.64-.429.852-2.133.852-3.2.852-1.065 0-2.132 0-3.731.213-1.6.214-3.946 1.6-4.478 3.52-.534 1.919-.64 6.398-.64 6.398l1.492-.32c.53-.114 1.228-.103 2.07-.042zM89.04 21.946c-.17-.446-1.002-.214-1.124.042-.033.07-.014.194.043.297.064.213.391.318.53.313.23-.008.58-.26.552-.652M99.7 87.101s-1.533 4.182-1.674 5.854c-.138 1.672-1.253 4.462-2.089 6.972s-1.813 4.74-1.813 6.412l-.697-1.813s2.37-6.272 3.067-7.667c.7-1.394 1.813-7.946 3.206-9.758zM78.302 101.128c-1.575.657-3.897 1.006-5.26 2.11-1.013.819-1.661 3.337-.168 3.975-2.747.728-6.176-.36-8.713-1.245-2.483-.864-5.248-.63-7.87-.79 1.211-.977 2.757-1.345 3.463-2.877.692-1.502.102-2.729.313-4.249 1.654-.15 3.016.464 4.597.756 2.51.469 5.075.435 7.616.564 2.08.104 4.505.444 6.022 1.92zM82.705 105.531c-.882-.297-2.114-1.428-3.05-.574-1.45 1.324 1.31 2.351 1.389 1.09-.091-.088-.22-.088-.32-.19.586-.166 1.403-.006 1.816-.652z" class="fil1"/><path d="M133.4 31.752s-3.046 1.88-5.285 1.971c-2.239.089-3.134.806-2.686 1.522s1.612 1.433 4.657.716c3.043-.716 4.477-3.134 3.313-4.209M115.178 34.83c2.56-.427 4.835-1.563 5.83-2.843s-.144-1.423-4.406-.569c-4.268.853-6.968 3.555-6.968 3.555-.997.853 2.986.283 5.544-.143zM97.124 35.967c1.563.57 2.416.285 5.826-.426 3.414-.711 7.82-3.27 5.263-3.27 0 0-5.83-.57-8.957.996-3.129 1.563-3.697 2.131-2.132 2.7M106.79 29.712c.537-.269-.384-.442-1.507-.55 1.448-.004 2.807-.202 2.218-1.014-1.137-1.564-7.535-1.706-9.383-.854-1.848.854-.712 3.414-.712 3.414.995 1.563 8.246-.427 9.385-.996M111.685 37.7h.01l-.043-.007z" class="fil4"/><path d="M124.085 35.852c-.12-.327-.408-.56-1.003-.516-.464-.285-.8-.545-.8-.545s-3.84 2.905-10.587 2.909c2.544.303 6.352-.384 7.332-.576-.818.401-1.827.768-3.34.998-3.844.584-4.795.213-4.407.794s.912 2.44 5.773 1.602c4.862-.836 6.044-1.791 6.906-3.14 0 0 .25-.652.197-1.221 1.295.084 2.074-.328 2.074-.328l-1.038.209c-.317.063-.712-.029-1.107-.187zM111.652 37.693l-1.008-.2c.3.092.642.155 1.008.2M121.757 40.35c-1.343.447-4.298 1.074-5.552 1.253-1.254.18-3.94 1.164-.985 1.97 2.955.807 6.448-.179 8.507-1.164 2.06-.985 1.523-3.134 1.523-3.134-.09-.627-2.15.627-3.493 1.074M103.31 40.707c-1.522.538-2.686.538-2.686 1.075 0 0 0 1.702 3.94 1.254s6-.716 6.088-1.612c.09-.895.18-1.343-1.342-1.343s-4.478.09-6 .626M100.982 39.096c-.179.806 1.075 1.074 4.388.447s4.298-1.612 4.298-1.612c1.792-2.148-3.493-.627-5.552-.09-2.06.538-2.954.449-3.134 1.255M99.459 42.32c-.895-.359-1.97-1.344-3.76-1.344-1.792 0-1.165 1.344-1.165 1.344.538 1.163 4.209 1.701 5.284 1.343 1.073-.358.536-.986-.36-1.343M96.146 39.543c1.343.807 3.134 1.075 3.85.448s1.076-1.612.09-1.701c-.984-.09-2.687-1.433-3.94-.896 0 0-1.343 1.344 0 2.15M111.46 43.842c-4.031 1.254-8.06 1.522-9.493.985-1.433-.538-1.792.358-1.792 1.164s2.06 1.523 6 1.523 8.687-1.344 8.687-1.344l-1.523-.448c-1.523-.447-1.88-1.88-1.88-1.88zM96.505 45.812c-1.882-.09-3.493-1.523-3.493-1.523-1.411 3.773 4.477 3.94 5.552 3.314 1.075-.627-.179-1.702-2.059-1.79zM131.518 37.573c-.985.269-5.82.269-4.657 1.165 0 0 .18 2.06 2.418 2.06 2.24 0 2.867-.897 3.134-1.613.269-.716.09-1.88-.895-1.612" class="fil4"/><path d="M67.135 91.654c1.446-.545 3.081-2.246 3.913-3.55.743-1.167 1.998-2.255 3.194-2.822-.676.795-.687 1.945-.21 2.853.572 1.087 1.381.913 2.55.966.218 1.85-5.28 1.594-6.328 1.97-1.287.462-1.806.878-3.006.36z" class="fil1"/><path d="M76.232 194.923a99.5 99.5 0 0 0 14.651 8.67c.19-24.619.394-51.111.618-79.713-6.842 25.055-11.879 48.684-15.27 71.043" class="fil3"/><path d="M63.986 185.298c3.743 3.616 7.856 6.802 12.173 9.878 3.39-22.36 8.5-46.241 15.342-71.296-11.588 20.857-20.833 41.593-27.515 61.418z" class="fil2"/><path d="M87.205 128.862c-12.808 15.122-23.912 30.936-32.699 46.358 2.909 3.561 6.148 6.86 9.48 10.078 6.681-19.826 15.927-40.563 27.515-61.418a381 381 0 0 0-4.296 4.982" class="fil3"/><path d="M91.5 123.88a375 375 0 0 0-8.164 6.602c-13.354 11.126-25.693 22.915-36.014 34.959 2.194 3.238 4.7 6.738 7.184 9.779 8.787-15.422 19.892-31.237 32.699-46.358a381 381 0 0 1 4.296-4.982" class="fil2"/><path d="M83.336 130.482a364 364 0 0 1 8.165-6.602c-18.113 10.013-34.962 21.195-49.489 33.117a147 147 0 0 0 5.31 8.444c10.321-12.043 22.66-23.833 36.014-34.959z" class="fil3"/><path d="M87.717 125.339c-17.715 6.93-34.73 15.222-49.925 24.155 1.321 2.577 2.755 4.989 4.22 7.503 14.527-11.922 31.376-23.104 49.489-33.117a410 410 0 0 0-3.785 1.459" class="fil2"/><path d="M91.5 123.88c-19.981 4.744-39.414 11.165-57.15 18.511a176 176 0 0 0 3.442 7.103c15.195-8.933 32.21-17.225 49.925-24.155a410 410 0 0 1 3.784-1.459" class="fil3"/><path d="M91.5 123.88q-4.549.51-9.048 1.115a405 405 0 0 0-15.178 2.337 387 387 0 0 0-22.442 4.568 373 373 0 0 0-12.949 3.286 189 189 0 0 0 2.972 6.856c17.738-7.346 36.667-13.42 56.646-18.162" class="fil2"/><path d="M67.274 127.332a404 404 0 0 1 24.227-3.452c-21.275-.133-42.105 1.354-62.311 4.385a204 204 0 0 0 2.693 6.921 373 373 0 0 1 12.95-3.286 387 387 0 0 1 22.441-4.568" class="fil5"/><path d="M91.5 123.88q2.272.256 4.53.535c18.961 2.338 37.252 5.935 54.753 10.728q1.445-3.451 2.747-6.91c-20.092-3.01-40.828-4.486-62.03-4.353z" class="fil2"/><path d="M91.5 123.88c19.863 4.733 38.66 10.791 56.255 18.117a192 192 0 0 0 3.028-6.854c-17.501-4.793-35.792-8.39-54.754-10.729a419 419 0 0 0-4.528-.534" class="fil5"/><path d="M150.783 135.144v-.001c-17.501-4.793-35.791-8.39-54.754-10.728 18.963 2.338 37.253 5.935 54.754 10.728" class="fil5"/><path d="M118.78 135.553c8.86 4.23 17.358 8.748 25.466 13.554q1.838-3.526 3.506-7.105c-17.59-7.327-36.385-13.387-56.251-18.122a368 368 0 0 1 27.279 11.673" class="fil2"/><path d="m147.752 142.002.003-.006c-17.595-7.325-36.392-13.384-56.254-18.116 19.866 4.735 38.66 10.796 56.251 18.122" class="fil2"/><path d="M91.5 123.88c17.946 10.009 34.154 20.977 48.49 32.89a162 162 0 0 0 4.255-7.661c-8.108-4.807-16.604-9.325-25.465-13.556A368 368 0 0 0 91.5 123.88" class="fil3"/><path d="M144.245 149.109v-.002c-8.107-4.806-16.604-9.324-25.465-13.554 8.86 4.23 17.358 8.75 25.465 13.556" class="fil3"/><path d="M94.227 126.07c15.379 12.471 28.868 25.526 40.353 39.173a148 148 0 0 0 5.41-8.474c-14.336-11.912-30.544-22.88-48.49-32.889q1.374 1.093 2.727 2.19" class="fil2"/><path d="M94.227 126.07q-1.353-1.097-2.726-2.19a346 346 0 0 1 14.598 18.109c8.134 10.83 15.253 21.733 21.34 32.72a133 133 0 0 0 7.14-9.465c-11.485-13.646-24.974-26.702-40.352-39.175" class="fil3"/><path d="M91.5 123.88c11.277 20.886 20.05 41.206 26.427 61.054a119 119 0 0 0 9.511-10.224c-6.087-10.986-13.205-21.89-21.34-32.721a347 347 0 0 0-14.597-18.109" class="fil2"/><path d="M105.678 195.006a107 107 0 0 0 12.249-10.072c-6.377-19.848-15.15-40.168-26.426-61.054 6.457 25.086 11.135 48.742 14.177 71.126z" class="fil3"/><path d="m90.883 203.593.064.032a101 101 0 0 0 14.73-8.618c-3.043-22.386-7.723-46.041-14.176-71.127-.224 28.602-.428 55.095-.618 79.713" class="fil2"/><path d="M183.45 108.25c-29.528-14.526-60.532-21.823-91.542-21.821-30.18-.002-60.355 6.904-89.168 20.682L0 108.421l.66 2.963 9.642 43.224 4.347-2.124c24.139-11.79 49.253-17.495 74.417-17.498 26.685.002 53.44 6.424 79.103 18.93l4.01 1.956 14.19-46.186z" class="fil4"/><path d="M4.386 110.554c57.434-27.46 120.087-27.062 177.38 1.121l-11.926 38.812c-50.784-24.754-106.094-26.236-156.867-1.432z" class="fil2"/><path d="m4.386 110.554.548 1.148C33.1 98.236 62.504 91.517 91.908 91.516c30.212 0 60.425 7.099 89.296 21.3l.562-1.141-1.216-.374-11.925 38.812 1.215.374.559-1.144c-26.297-12.818-53.827-19.445-81.333-19.445-25.935 0-51.843 5.894-76.651 18.014l.558 1.143 1.242-.277-8.588-38.501zl.548 1.148zl-1.242.277 8.94 40.075 1.448-.707c24.473-11.956 49.985-17.756 75.534-17.756 27.095 0 54.238 6.525 80.218 19.188l1.336.65 12.68-41.27-.973-.477c-29.2-14.365-59.808-21.562-90.42-21.561-29.79-.001-59.58 6.812-88.07 20.434l-.913.436.22.988z" class="fil0"/><path d="m32.2 113.39200000000001-.04-.125a2.3 2.3 0 0 1-.083-.385q.024.043.046.09c.037.08.068.162.09.227l.028.087.026.085-.003-.007 3.822 12.25c.02.06.025.077.04.127.03.091.066.247.085.39q-.019-.034-.036-.07a3 3 0 0 1-.099-.246l-.03-.093-.027-.088v.002L32.2 113.39zm10.372-2.88.037.116c-.396-1.268-.869-2.362-1.43-3.303-.838-1.409-1.896-2.474-3.128-3.152-1.23-.683-2.593-.962-3.972-.96-1.543.002-3.124.333-4.756.84-2.165.68-4.093 1.56-5.564 2.967a7.5 7.5 0 0 0-1.74 2.514c-.408.97-.614 2.056-.613 3.232 0 1.294.243 2.7.727 4.25l3.554 11.393c.396 1.267.868 2.363 1.43 3.303.837 1.408 1.896 2.473 3.127 3.152 1.23.683 2.594.962 3.972.96 1.544-.002 3.125-.333 4.757-.84 2.164-.68 4.093-1.56 5.563-2.967a7.5 7.5 0 0 0 1.74-2.514c.408-.97.615-2.056.613-3.232 0-1.294-.243-2.7-.726-4.25zM56.117 107.845a6.115 6.115 0 0 1 .24 1.36zm59.022-2.866a.7.7 0 0 1 .088-.209c.025-.032.04-.053.116-.1l.651-.39.582-7.232-10.855-.875-.24 2.973-.764-3.054-10.905-.877-.582 7.232.58.489c.084.075.086.088.114.155.024.064.05.202.05.426.001.252-.034.599-.068 1.008l-1.022 12.683c-.041.567-.074 1.016-.145 1.245a.7.7 0 0 1-.088.209c-.025.033-.04.053-.115.1l-.652.39-.117 1.456-.352-7.37-1.472.07-3.538.17-.265-5.541 5.01-.24-.597-12.518-21.536 1.032.346 7.249.638.41c.074.049.088.07.112.104.032.046.086.168.12.424.036.25.046.61.065 1.036l.606 12.71c.017.345.038.644.037.88.002.274-.028.453-.059.535-.035.084-.033.09-.124.17l-.597.47.104 2.177-.424-2.392-.86-.217a1 1 0 0 1-.05-.084 2.6 2.6 0 0 1-.193-.55c-.06-.237-.11-.507-.157-.777l-.283-1.595c-.138-.776-.314-1.469-.574-2.104a5.5 5.5 0 0 0-.75-1.315 4.4 4.4 0 0 0-1.206-1.062q.271-.374.475-.78c.564-1.114.76-2.333.76-3.552 0-.839-.093-1.685-.242-2.53-.25-1.399-.681-2.768-1.42-3.981-.73-1.205-1.799-2.255-3.212-2.876v-.001l-.009-.003-.01-.005c-1.045-.468-2.13-.607-3.153-.609-1.4.003-2.723.257-3.802.446L43.11 100.52l1.265 7.146.685.326c.08.04.097.059.125.09.038.041.107.155.174.405.068.245.123.599.196 1.02l2.22 12.53c.099.537.179.966.174 1.213a.7.7 0 0 1-.031.247c-.017.041-.025.064-.088.13l-.532.543 1.266 7.145 11.747-2.08v.001l10.195-1.803v.014l21.31-1.02 10.11.813.293-3.634 1.024 3.74 9.984.805 1.767-21.927c.04-.566.075-1.015.145-1.245zM128.922 108.32c0 .215-.038.506-.093.818-.017-.035-.025-.054-.027-.16a2.3 2.3 0 0 1 .12-.657m-2.48 13.141.001-.007-.001.006zm-.081-.489c.039-.215.088-.457.141-.715.022.095.038.207.038.371.001.209-.026.485-.098.833-.041.206-.13.419-.214.556-.003-.175.041-.557.133-1.045zm10.873 1.527-.001.002.028-.129v-.003c.205-.985.327-2.011.327-3.04q0-.658-.072-1.314l-.001-.01-.004-.042a6.4 6.4 0 0 0-.54-2.1 7.3 7.3 0 0 0-1.123-1.733l-.004-.006-.004-.004a10.4 10.4 0 0 0-1.269-1.209l3.702.774 1.812-8.678-.46-.548c-1.26-1.504-2.68-2.657-4.226-3.508-1.546-.854-3.21-1.41-4.963-1.776-1.107-.23-2.277-.402-3.465-.403-1.392 0-2.833.239-4.151.965l.007-.004-.01.006a10 10 0 0 0-1.741 1.197 7.25 7.25 0 0 0-1.776 2.36c-.432.897-.728 1.878-1.016 3.029l-.006.026-.134.644c-.244 1.166-.368 2.216-.368 3.186q-.003 1.627.49 2.962c.494 1.342 1.371 2.406 2.416 3.256q.02.016.04.03l-3.988-.833-1.99 9.525.386.528c1.148 1.578 2.617 2.747 4.193 3.597 1.577.85 3.264 1.39 4.917 1.735 1.23.257 2.368.385 3.426.385 1.404 0 2.671-.227 3.79-.677 1.685-.67 2.99-1.853 3.905-3.284.922-1.433 1.495-3.105 1.873-4.906zM160.91 121.537l3.933-11.898-20.476-6.768-2.277 6.888.45.613c.072.114.066.108.075.235.001.096-.022.263-.087.492-.063.229-.163.511-.272.839l-3.993 12.082c-.174.54-.312.968-.436 1.175a.7.7 0 0 1-.134.18c-.032.027-.05.043-.135.07l-.726.225-2.277 6.89 20.476 6.769 4.139-12.526-1.4-.463-3.363-1.111 1.74-5.267z" class="fil1"/><path d="M34.613 126.074c.06.19.577 2.14 2.1 1.665 1.522-.476.839-2.374.78-2.563l-3.82-12.245c-.06-.19-.567-2.109-2.09-1.633-1.523.474-.849 2.342-.79 2.532zm10.144-3.615c2.087 6.69-.99 9.485-6.223 11.118s-9.353 1.083-11.44-5.607l-3.555-11.392c-2.087-6.69.99-9.487 6.222-11.118 5.233-1.633 9.354-1.083 11.44 5.607z" class="fil6"/><path d="m34.613 126.074-.496.156c.008.024.053.183.124.371.111.29.29.688.601 1.047.303.357.788.688 1.412.685q.298 0 .613-.098c.502-.152.877-.467 1.083-.836.209-.367.265-.757.266-1.101 0-.326-.051-.619-.105-.848a5 5 0 0 0-.077-.287c-.022-.074-.042-.133-.045-.142l.003.009-3.824-12.253v-.001c-.008-.024-.051-.181-.122-.368a3.4 3.4 0 0 0-.596-1.032c-.301-.352-.784-.676-1.402-.673q-.301 0-.62.098c-.502.152-.879.467-1.086.834-.21.367-.267.755-.268 1.098 0 .319.05.606.103.83q.04.17.076.28c.022.074.041.132.044.14l3.82 12.246zl.496-.155-3.82-12.244c-.01-.036-.024-.073-.042-.132a3 3 0 0 1-.133-.81c0-.224.041-.43.128-.578.09-.148.208-.267.496-.361.122-.038.223-.052.31-.052.174.001.3.05.432.144.195.138.375.402.493.654a3 3 0 0 1 .138.34c.034.098.05.158.065.206l3.82 12.244.043.135c.054.176.138.513.137.833.001.228-.042.436-.128.584-.09.149-.206.268-.49.36-.12.038-.219.051-.304.051a.7.7 0 0 1-.436-.147c-.198-.141-.381-.412-.502-.67a3 3 0 0 1-.14-.348c-.035-.1-.052-.162-.067-.21l-.002-.008.002.01zm10.144-3.615.496-.154c.461 1.48.683 2.792.683 3.966.007 2.134-.758 3.813-2.06 5.059-1.302 1.249-3.095 2.09-5.187 2.744-1.575.49-3.07.795-4.473.796-1.673.004-3.23-.449-4.532-1.543-1.302-1.092-2.332-2.784-3.087-5.202l-3.554-11.393c-.462-1.48-.683-2.793-.684-3.967-.007-2.134.759-3.813 2.061-5.058 1.301-1.25 3.095-2.09 5.187-2.744 1.575-.49 3.069-.796 4.472-.796 1.673-.004 3.231.449 4.532 1.543 1.302 1.091 2.332 2.784 3.087 5.202l3.555 11.393zl-.497.155-3.554-11.393c-.717-2.298-1.664-3.795-2.763-4.715-1.1-.917-2.367-1.297-3.864-1.3-1.25-.001-2.65.277-4.163.75-2.012.626-3.66 1.424-4.774 2.5-1.113 1.08-1.736 2.413-1.744 4.31 0 1.041.199 2.252.637 3.657l3.555 11.392c.716 2.298 1.663 3.796 2.762 4.716 1.1.917 2.367 1.297 3.864 1.3 1.25 0 2.65-.277 4.163-.75 2.013-.627 3.66-1.424 4.775-2.5 1.112-1.08 1.736-2.414 1.743-4.31 0-1.041-.198-2.253-.637-3.657z" class="fil1"/><path d="m55.299 111.676.771-.137c1.656-.293 1.997-1.36 1.651-3.313-.316-1.79-1.004-2.675-2.66-2.383l-.77.137zm1.55 8.755c.185 1.041.284 2.098 1.313 2.587l.876 4.947-9.28 1.643-.877-4.947c.799-.813.528-1.84.344-2.881l-2.22-12.531c-.184-1.042-.283-2.098-1.312-2.588l-.876-4.948L55.41 99.84c1.885-.334 4.25-.785 6.108.061 2.235.98 3.34 3.235 3.79 5.774.543 3.06.216 5.87-2.496 7.189l.012.065c2.514.227 3.521 1.257 4.023 4.089l.282 1.595c.167.943.41 2.31 1.426 2.566l.877 4.948-8.196 1.45c-.585-1.475-1.016-2.741-1.754-7.41-.392-2.213-.788-3.285-2.884-2.981l-.314.055z" class="fil6"/><path d="m55.299 111.676.09.511.72-.127.051-.009c.712-.125 1.295-.4 1.68-.877.385-.476.524-1.084.523-1.75 0-.396-.048-.823-.13-1.289-.148-.823-.366-1.51-.783-2.039a2.1 2.1 0 0 0-.78-.62 2.45 2.45 0 0 0-1.027-.208 4 4 0 0 0-.672.064l-1.283.227 1.19 6.718.511-.09zl.512-.091-.919-5.184.26-.047q.275-.047.49-.047c.251 0 .44.044.594.114.227.106.406.28.575.59.166.31.301.75.399 1.305q.113.638.114 1.109c-.001.534-.11.87-.292 1.095s-.486.405-1.052.508l-.047.008-.725.128zl.513-.091zm1.55 8.755.513-.091c.092.535.165 1.03.312 1.404.152.376.33.617.711.806l.242.114 1.014 5.723-10.305 1.822-1.014-5.722.188-.191c.157-.16.247-.314.307-.481.059-.168.085-.353.085-.566.002-.392-.096-.865-.189-1.378l-2.22-12.532c-.092-.534-.164-1.03-.311-1.404-.153-.376-.33-.616-.712-.805l-.242-.114-1.013-5.724 11.106-1.964c1.083-.19 2.356-.43 3.636-.431.942 0 1.897.13 2.777.53l-.215.474.208-.477c1.225.536 2.146 1.432 2.8 2.509.657 1.078 1.062 2.336 1.294 3.651.143.803.228 1.597.229 2.364 0 1.117-.182 2.183-.658 3.12-.472.937-1.249 1.73-2.351 2.262l-.228-.466.513-.09.01.066-.511.089.046-.519c.66.06 1.241.174 1.757.37.514.194.964.475 1.334.852.742.76 1.137 1.837 1.397 3.295l.283 1.595c.062.353.133.746.241 1.097.107.352.255.652.423.827.114.12.226.19.378.23l.326.082 1.026 5.79-9.125 1.615-.157-.394a19 19 0 0 1-.84-2.572c-.28-1.109-.573-2.607-.944-4.95l.513-.08-.512.09c-.127-.727-.257-1.31-.425-1.717-.172-.412-.348-.619-.59-.745-.166-.084-.39-.14-.717-.14q-.246 0-.565.045l-.075-.514.091.511-.314.056-.09-.511.51-.091.566 3.189zl-.512.092-.655-3.702.511-.09.323-.058h.007q.38-.056.715-.057c.445 0 .844.078 1.19.255.346.175.62.448.82.765.398.64.565 1.445.746 2.44v.006l.002.004c.367 2.327.658 3.797.925 4.858s.509 1.711.798 2.443l-.483.191-.09-.511 7.683-1.36-.785-4.436.511-.09-.126.504a1.8 1.8 0 0 1-.88-.525 2.7 2.7 0 0 1-.504-.802c-.24-.57-.342-1.18-.427-1.653l-.283-1.595c-.181-1.027-.43-1.773-.759-2.292-.331-.52-.724-.837-1.318-1.066-.395-.15-.884-.251-1.48-.305l-.398-.035-.068-.393-.079-.45.352-.172c.917-.448 1.5-1.053 1.88-1.798.378-.744.544-1.645.544-2.65 0-.69-.078-1.425-.212-2.182-.216-1.224-.59-2.362-1.158-3.292-.57-.93-1.32-1.653-2.33-2.097l-.004-.002-.003-.001c-.695-.318-1.499-.439-2.346-.438-1.15 0-2.367.222-3.455.416l-10.082 1.783.785 4.435-.512.091.223-.47c.647.302 1.034.834 1.235 1.37.206.537.275 1.09.367 1.597l2.22 12.53c.084.489.202 1.01.204 1.561 0 .298-.037.606-.145.912a2.3 2.3 0 0 1-.545.864l-.37-.364.511-.091.785 4.435 8.258-1.46-.786-4.436.512-.09-.223.469c-.647-.302-1.034-.833-1.235-1.368-.205-.538-.275-1.091-.366-1.598z" class="fil1"/><path d="m90.014 114.78.488 10.234-18.594.891-.24-5.018c.895-.705.758-1.757.708-2.814l-.606-12.71c-.051-1.056-.014-2.117-.972-2.732l-.24-5.019 18.594-.89.457 9.574-7.125.341-.041-.859c-.09-1.914-.361-2.696-2.446-2.596l-.464.022.242 5.051 4.894-.234.263 5.513-4.895.234.273 5.712.463-.022c2.318-.11 2.241-1.1 2.16-3.412l-.044-.925z" class="fil6"/><path d="m90.014 114.78-.52.025.464 9.715-17.555.841-.215-4.5-.52.026.322.408c.39-.304.642-.69.777-1.087.136-.398.167-.798.167-1.183 0-.337-.025-.664-.039-.977l-.606-12.71c-.027-.514-.025-1.071-.16-1.631-.13-.556-.447-1.133-1.05-1.514l-.281.438.518-.026-.214-4.498 17.556-.842.407 8.536-6.087.292-.016-.34a9 9 0 0 0-.124-1.241 3 3 0 0 0-.25-.778 1.78 1.78 0 0 0-.873-.84c-.39-.174-.84-.239-1.383-.24q-.173 0-.36.01l-.463.022-.52.025.291 6.088 4.895-.234.213 4.475-4.895.235.323 6.75.982-.047c.504-.025.922-.087 1.284-.21.27-.09.51-.22.71-.395a1.87 1.87 0 0 0 .575-.983c.093-.37.114-.765.115-1.208 0-.351-.015-.734-.03-1.154v-.004l-.02-.408 6.606-.317zl-.52.025zl-.025-.52-7.644.368.069 1.443.519-.025-.52.018c.015.423.03.796.03 1.118 0 .36-.019.654-.065.874a1.2 1.2 0 0 1-.137.378c-.086.133-.186.225-.413.32-.226.093-.58.163-1.08.185l-.463.022.025.52.519-.025-.248-5.193 4.895-.234-.313-6.552-4.894.235-.216-4.532-.52.025.025.519.464-.022q.165-.009.31-.009c.407 0 .697.048.886.12a.8.8 0 0 1 .307.194c.11.115.202.295.27.597.069.299.106.702.13 1.2l.065 1.377 8.163-.391-.506-10.613-19.633.94.277 5.806.226.145c.354.234.499.495.603.888.097.388.106.89.13 1.432l.607 12.71c.016.33.038.642.038.927 0 .327-.03.611-.111.845a1.27 1.27 0 0 1-.437.609l-.21.165.276 5.805 19.633-.94-.538-11.273-.52.025z" class="fil1"/><path d="m106.824 110.572.057.005.402-4.974c.085-1.054.256-2.102-.616-2.835l.404-5.007 7.92.637-.404 5.008c-.979.584-.976 1.645-1.061 2.7l-1.65 20.458-7.485-.602-3.574-13.055-.057-.004-.396 4.908c-.085 1.055-.256 2.102.615 2.835l-.403 5.008-7.688-.619.403-5.008c.978-.584.976-1.645 1.06-2.7l1.023-12.684c.085-1.054.257-2.1-.615-2.834l.403-5.008 8.382.675z" class="fil6"/><path d="m106.824 110.572-.045.518.057.005.521.046.443-5.497c.03-.37.074-.762.075-1.166 0-.357-.036-.728-.165-1.095a2.3 2.3 0 0 0-.709-1.013l-.334.397.519.043.361-4.49 6.883.554-.361 4.49.518.042-.267-.447c-.615.362-.95.928-1.099 1.48-.154.554-.17 1.112-.214 1.624l-1.606 19.941-6.604-.532-3.575-13.055-.423-.032-.516-.04-.437 5.424c-.03.372-.074.763-.074 1.167 0 .357.034.728.165 1.095.128.367.36.722.708 1.012l.334-.397-.517-.041-.362 4.49-6.652-.536.361-4.49-.518-.042.267.446c.616-.36.95-.927 1.1-1.479.153-.554.17-1.113.213-1.625l1.022-12.683c.029-.372.073-.764.073-1.169a3.2 3.2 0 0 0-.164-1.094 2.3 2.3 0 0 0-.708-1.011l-.335.397.519.041.361-4.49 7.492.604 3.278 13.094.37.032zl.504-.126-3.37-13.458-9.272-.746-.466 5.792.204.172c.21.179.323.355.399.565.074.21.105.459.105.746 0 .325-.04.693-.071 1.085l-1.022 12.683c-.042.542-.067 1.042-.179 1.428-.115.388-.27.645-.631.868l-.23.137-.467 5.793 8.724.702.467-5.792-.205-.172a1.3 1.3 0 0 1-.398-.565 2.2 2.2 0 0 1-.105-.748c0-.325.04-.692.07-1.083l.396-4.908-.517-.042-.04.518.058.004.04-.518-.501.137 3.67 13.406 8.367.674 1.69-20.977c.042-.54.067-1.041.179-1.427.114-.388.268-.645.63-.868l.23-.137.466-5.793-8.954-.722-.467 5.793.204.172c.21.179.322.356.399.566.074.209.105.459.105.747 0 .325-.04.693-.072 1.083l-.4 4.975.517.041.046-.518-.057-.004zl.504-.126z" class="fil1"/><path d="M130.172 109.946c.257-1.23.586-2.95-.89-3.259-.966-.201-1.645.5-1.861 1.536-.114.55-.173 1.112.13 1.648.317.607 1.314 1.22 1.9 1.546 1.701.93 3.987 2.184 5.277 3.67.738.863 1.223 1.809 1.32 3.045.147 1.28.04 2.642-.23 3.937l-.027.13c-1.115 5.339-4.01 8.853-11.25 7.34-3.095-.647-6.218-2.009-8.22-4.758l1.553-7.442 7.41 1.548c-.345 1.65-.63 2.874-.497 3.51.141.604.606 1.073 1.174 1.191 1.022.214 1.713-.824 1.922-1.826.595-2.849-.92-3.401-2.898-4.423-4.328-2.255-6.649-4.058-5.399-10.044l.128-.615c.734-2.953 1.471-4.353 3.817-5.653 1.91-1.053 4.332-.884 6.604-.41 3.292.69 6.062 2.044 8.361 4.788l-1.364 6.537-7.068-1.478z" class="fil6"/><path d="m130.172 109.946.509.107c.105-.51.232-1.125.233-1.737-.001-.44-.063-.892-.301-1.3-.235-.411-.674-.73-1.225-.837a2 2 0 0 0-.43-.046 1.86 1.86 0 0 0-1.373.605c-.344.368-.562.848-.673 1.38a4 4 0 0 0-.104.86c-.001.367.074.77.29 1.149l.453-.256-.46.24c.232.433.608.76.999 1.055.391.292.804.536 1.107.704l.004.003c1.699.922 3.949 2.178 5.134 3.554v-.002l-.002-.002c.688.812 1.104 1.63 1.197 2.75l.001.008v.01q.064.558.063 1.138c0 .872-.104 1.767-.284 2.634l-.028.128c-.456 2.194-1.218 4.025-2.412 5.282-1.196 1.254-2.819 1.994-5.204 2-.897 0-1.9-.11-3.018-.342-3.027-.633-6.014-1.954-7.908-4.556l-.42.306.509.107 1.448-6.934 6.9 1.442.106-.509-.509-.106c-.141.681-.275 1.293-.374 1.83-.098.54-.165 1-.166 1.406 0 .17.012.33.045.487v.006l.002.005c.187.79.791 1.416 1.574 1.582q.188.04.372.04c.313 0 .607-.088.857-.23.377-.214.657-.537.869-.893s.356-.752.44-1.146c.094-.454.14-.864.14-1.24q0-.8-.284-1.408c-.282-.61-.754-1.044-1.28-1.39-.528-.35-1.124-.631-1.746-.953l.002.001c-1.758-.914-3.14-1.742-4.051-2.745-.908-1.005-1.4-2.164-1.405-3.952 0-.797.103-1.715.325-2.78l.129-.615-.509-.106.504.126c.362-1.458.718-2.49 1.237-3.29s1.202-1.408 2.328-2.034h-.002c.931-.514 2.021-.716 3.19-.716.992 0 2.035.146 3.057.36 3.219.678 5.847 1.968 8.07 4.613l.398-.334-.508-.106-1.258 6.028-6.051-1.266.002-.008zl-.508-.107-.108.518-.106.51 8.087 1.689 1.52-7.293-.162-.193c-2.377-2.842-5.286-4.263-8.653-4.962-1.066-.223-2.175-.382-3.27-.382-1.285 0-2.558.221-3.691.845v.001c-1.22.674-2.079 1.415-2.699 2.38-.62.962-.999 2.107-1.371 3.602l-.003.01-.13.625c-.233 1.117-.348 2.104-.348 2.991-.007 1.985.6 3.482 1.676 4.653 1.073 1.173 2.558 2.036 4.34 2.966l.001.001c.855.438 1.583.785 2.043 1.191.231.203.4.412.518.665.116.253.187.56.187.971 0 .29-.036.629-.12 1.028-.08.386-.251.785-.467 1.05a1.2 1.2 0 0 1-.334.297.7.7 0 0 1-.346.094l-.16-.017c-.352-.07-.678-.384-.773-.8l-.507.117.51-.107a1.4 1.4 0 0 1-.024-.273c0-.284.055-.705.149-1.217.095-.513.227-1.12.37-1.807l.106-.508-8.427-1.76-1.706 8.177.135.186c2.114 2.896 5.371 4.3 8.535 4.96 1.176.246 2.25.364 3.231.364 2.602.007 4.573-.854 5.958-2.323 1.387-1.468 2.194-3.484 2.675-5.784l.028-.129v-.001a14 14 0 0 0 .307-2.846q.001-.635-.07-1.257l-.516.06.518-.04c-.103-1.354-.654-2.427-1.443-3.343l-.003-.004c-1.394-1.594-3.715-2.847-5.422-3.784l.005.002a9 9 0 0 1-.992-.63c-.334-.243-.614-.527-.7-.702l-.003-.007-.004-.007a1.25 1.25 0 0 1-.156-.638c0-.195.033-.414.082-.65.079-.384.233-.69.413-.878.183-.189.366-.275.616-.279q.098 0 .216.024c.32.075.438.184.542.348.101.167.16.437.158.772.001.464-.106 1.025-.212 1.524z" class="fil1"/><path d="m157.31 127.74-3.217 9.728-17.677-5.845 1.576-4.77c1.089-.335 1.337-1.367 1.67-2.371l3.992-12.081c.332-1.004.747-1.981.074-2.9l1.575-4.77 17.679 5.844-3.008 9.1-6.774-2.239.27-.816c.6-1.82.63-2.646-1.353-3.301l-.44-.146-1.588 4.801 4.655 1.539-1.732 5.24-4.654-1.538-1.794 5.428.44.146c2.203.728 2.488-.222 3.24-2.41l.29-.878z" class="fil6"/><path d="m157.31 127.74-.495-.163-3.05 9.234-16.693-5.518 1.413-4.277-.493-.162.153.496c.684-.204 1.143-.676 1.419-1.176.28-.503.428-1.04.591-1.53l3.993-12.08c.193-.595.454-1.235.46-1.957a2.33 2.33 0 0 0-.462-1.414l-.418.308.492.163 1.413-4.275 16.692 5.517-2.68 8.113-5.789-1.913.107-.322c.22-.673.383-1.236.387-1.786a1.83 1.83 0 0 0-.532-1.34c-.367-.362-.866-.61-1.538-.833l.028.01-.468-.155-.494-.162-1.912 5.787 4.654 1.538-1.407 4.253-4.653-1.538-2.12 6.416.934.309c.523.172.967.267 1.38.268.354 0 .691-.079.975-.248.43-.255.7-.658.92-1.114.218-.462.4-1.004.62-1.64v-.003l.129-.388 6.28 2.076zl-.494-.163zl.163-.493-7.267-2.403-.454 1.373.493.163-.49-.17c-.291.851-.517 1.495-.75 1.85-.117.18-.224.283-.333.347s-.237.102-.45.104c-.243.001-.593-.062-1.053-.215l-.44-.145-.164.492.494.163 1.63-4.934 4.654 1.538 2.058-6.227-4.654-1.539 1.425-4.308-.494-.163-.163.495.44.145c.596.194.952.4 1.127.58.17.181.222.316.229.605.003.324-.119.818-.333 1.46l-.434 1.308 7.762 2.567 3.333-10.087-18.665-6.17-1.824 5.517.158.216c.197.273.258.51.262.798.004.445-.197 1.005-.408 1.631l-3.993 12.081c-.169.515-.312.996-.511 1.344-.204.35-.414.563-.82.695l-.255.078-1.823 5.518 18.665 6.17 3.54-10.714-.493-.163zM87.347 159.447l-.017-.042-.01-.035-.003.001a6.4 6.4 0 0 0-1.12-1.994 7.2 7.2 0 0 0-1.091-1.05h2.13v-9.215l-.87-.602a16.8 16.8 0 0 0-5.207-2.419c-1.801-.485-3.65-.674-5.544-.674-1.3.002-2.665.078-4.015.357-1.346.282-2.698.768-3.886 1.66l-.002.003a10.3 10.3 0 0 0-1.618 1.49 7.1 7.1 0 0 0-1.462 2.731c-.278.986-.373 1.988-.423 3.105l-.002.043v.622c.001 1.568.19 2.933.632 4.146.33.908.81 1.722 1.414 2.399.262.295.547.555.844.798h-2.495v9.983l.764.606c1.586 1.257 3.39 2.049 5.22 2.525 1.833.477 3.7.645 5.486.646 2.096 0 3.898-.249 5.456-.758 1.166-.383 2.195-.918 3.063-1.6 1.307-1.022 2.213-2.37 2.741-3.815.534-1.45.724-2.99.725-4.566v-.121c-.001-1.392-.204-2.838-.713-4.223zM117.022 157.512v-10.335l-.905-.598c-2.976-1.963-6.569-3.018-10.031-3.16l.037.001h-.036q-.405-.017-.809-.017c-1.551 0-3.065.177-4.47.564-1.401.388-2.707.984-3.803 1.886l-.002.001a7.5 7.5 0 0 0-1.577 1.787c-.613.974-.955 2.016-1.142 3.026-.189 1.012-.231 2-.233 2.944v9.693c.004 1.33.008 2.756.353 4.243.173.741.439 1.496.84 2.227a8.2 8.2 0 0 0 1.602 2.053c1.11 1.033 2.496 1.667 4.005 2.093 1.513.42 3.169.618 4.857.619q.3 0 .599-.009l.056-.002-.056.002a20.5 20.5 0 0 0 5.354-.854c1.709-.525 3.305-1.284 4.628-2.372l.732-.605v-11.66h-10.82v-1.527z" class="fil1"/><path d="m96.848 171.83.003.001-.005-.004-.003-.003zM97.002 145.855l.004-.002.02-.018z" class="fil1"/><path d="M77.652 153.823c0-1.154-.03-2.766-1.61-2.766-1.034 0-1.582.76-1.582 1.732 0 .517.062 1.034.487 1.46.455.485 1.611.85 2.28 1.032 1.944.518 4.558 1.216 6.2 2.311.942.638 1.641 1.397 2.005 2.492.426 1.124.608 2.37.608 3.587v.12c0 5.016-2.218 8.723-9.968 8.723-3.314 0-6.809-.639-9.453-2.735v-6.991h7.933c0 1.55-.03 2.706.243 3.253.273.517.85.851 1.459.851 1.093 0 1.58-1.064 1.58-2.005 0-2.676-1.672-2.888-3.92-3.436-4.924-1.215-7.69-2.4-7.69-8.023v-.578c.121-2.796.578-4.194 2.705-5.805 1.733-1.307 4.255-1.61 6.686-1.61 3.526 0 6.657.698 9.604 2.735v6.14h-7.567zM107.162 153.944c0-1.063.214-2.886-1.489-2.886-1.701 0-1.488 1.823-1.488 2.886v10.06c0 1.064-.213 2.888 1.488 2.888 1.703 0 1.489-1.824 1.489-2.888v-2.948h7.843v8.693c-2.1 1.732-5.471 2.674-8.754 2.765-3.252.091-6.413-.639-8.024-2.157-2.248-2.099-2.158-4.833-2.158-7.69v-9.056c0-2.341.304-4.62 2.219-6.201 1.763-1.459 4.65-2.096 7.72-1.976 3.1.122 6.382 1.095 8.997 2.827v7.233h-7.843zM78.013 40.16c-.438-.697-1.25-1.738-1.681-2.402-.597-.917-.442-1.516-.442-1.516s1.397 0 .174-.96c-1.22-.96-1.92-1.484-2.53-2.53-.61-1.048-.086 1.92-.436 1.221-.283-.565-1.079-2.556-1.373-3.296.501-.811.184-.624-.552-1.674-.746-1.067-1.28-2.027-.426-1.92.853.106 1.066-.214.426-.96-.32-.373-.48-1.306-.466-2.212 0 0-.708.43-1.177 1.4-.47.967.15 4.609 1.963 7.85l.662 1.015s2.93 5.204 4.777 6.2c1.85.995 3.413 1.137 3.413 1.137s-1.177-.577-2.332-1.352M84.184 30.494c.764-.744-.257-1.842-1.04-.833-.207.27-.38 1.02-.006 1.237z" class="fil4"/></g></g></svg>