<svg xmlns="http://www.w3.org/2000/svg" xml:space="preserve" id="Capa_1" x="0" y="0" version="1.1" viewBox="11.66 22.95 2664.49 2891.29"><style>.st0{stroke:#bf0000;stroke-width:56.69;stroke-miterlimit:10}.st0,.st1{fill:#fff}.st2{fill:#bf0000}.st3{fill:#fff;stroke:#bf0000;stroke-width:14.6;stroke-miterlimit:10}</style><g id="Capa_1-2"><path d="m1343.9 2885.9-1.2-.9s-233.2-178.6-437-258.1c-152.1-59.3-309.3-120.7-429.2-202.6-554.2-416-428.6-712.9-307.1-1000C271.5 1182.7 368 954.6 54.2 655.9L40 642.3 53.5 628c122.2-129.7 441.1-518.2 444.9-522l11-11.4 13.5 8.3c20.2 12.4 520.9 334.8 806.3-29.5l13.5-20.4 1.2-1.7 1.1 1.7 13.6 20.4c285.4 364.3 786.1 41.8 806.3 29.5l13.5-8.3 11 11.4c3.8 3.9 322.6 392.4 444.9 522l13.5 14.3-14.2 13.5c-313.8 298.8-217.3 526.9-115.2 768.4 121.4 287.1 247 584-307.1 1000-119.9 82-277.1 143.3-429.2 202.6-203.8 79.6-437 258.1-437 258.1z" class="st0"/><path d="M1343.9 2773.5c-83.6-59.4-250.4-170.6-405.2-231.1-146.5-57.2-298-116.3-409.3-191.9-122.8-92.4-216.2-183.2-277.6-270-51.9-73.4-82.1-144.4-92.3-217.1-19.2-137.3 35.6-266.7 93.6-403.9 53.2-125.8 108.2-255.9 105.5-399.7-1.5-80.6-20.6-156.6-58.4-232.3-31.7-63.7-76-125.6-134.4-188 109.8-123 285.1-334.1 363.1-428.3C619.8 260.5 790.2 337 971.3 337c80.8 0 156.3-15.2 224.3-45.2 54.3-24 104-57.4 148.3-99.7 44.3 42.4 94 75.8 148.3 99.7 68 30 143.5 45.2 224.3 45.2 181 0 351.4-76.5 442.4-125.9 78.1 94.3 253.4 305.4 363.1 428.4-58.4 62.4-102.6 124.3-134.4 188-37.8 75.7-56.8 151.7-58.4 232.3-2.7 143.8 52.3 273.9 105.5 399.9 58 137 112.7 266.5 93.5 403.7-10.2 72.7-40.4 143.8-92.3 217.1-61.4 86.8-154.8 177.6-277.6 270-111.3 75.6-262.8 134.7-409.3 191.9-154.8 60.4-321.5 171.7-405.1 231.1zM1342.7 53l-13.5 20.4C1226.9 204 1096.9 246.3 971.3 246.3c-224.7 0-435.4-135.5-448.4-143.5l-13.5-8.3-11 11.4c-3.8 3.9-322.7 392.4-444.9 522L40 642.3l14.2 13.5c313.8 298.8 217.3 526.9 115.2 768.4-121.4 287.1-247 584 307.1 1000 119.9 82 277.1 143.3 429.2 202.6 203.8 79.6 437 258.1 437 258.1l1.2.9 1.2-.9s233.2-178.6 437-258.1c152.1-59.3 309.3-120.7 429.2-202.6 554.1-416 428.6-712.9 307.1-1000-102.1-241.5-198.6-469.6 115.2-768.4l14.2-13.5-13.5-14.3c-122.2-129.7-441.1-518.1-444.9-522l-11-11.4-13.5 8.3c-13 7.9-223.7 143.5-448.4 143.5-125.6 0-255.6-42.3-357.9-172.9L1345 53l-1.2-1.7z" class="st0"/><path d="M1159.2 2551.4v-208c-11.4-2-24.3-4.4-41.2-7.9-42.7-8.8-117.4-29.6-156.4-45.4-66.2-26.8-161.3-77.8-214.8-123.4-52.9-45-77.6-70.4-82.3-75.4l-.4-.4-.3-.4c-63.6-69.3-114.6-146.7-156-236.7-33.3-72.6-54.9-153.4-64.1-240.3l-1.4-12.9c-2.3-20.5-4.9-43.7-4.9-68V876.8h328.5V1512c0 29.6 0 57.5 4.8 82.1 14.7 77.4 28 137 64.7 198.6 39.7 66.5 51.1 77.6 73.8 99.6 4.9 4.8 9.8 9.5 15.1 14.8 40.2 40.2 108.3 97.4 235.1 132V793H437.3V441.7h1813.1V793h-721.8v1242.2c127-34.6 194.9-91.8 235.1-132 4.4-4.4 8.4-8.3 12.2-12l2.9-2.8c22.7-22 34.1-33 73.8-99.6 36.6-61.6 49.9-121.2 64.7-198.6 4.7-24.6 4.7-52.5 4.7-82.1V872.8h328.4v655.7c0 23.6-2.4 45.4-4.7 66.6l-.1.9c-.3 2.4-.5 4.9-.8 7.3-.2 2-.4 4.1-.7 6.2-9.3 87-30.8 167.8-64 240.2-41.2 89.7-92.1 167-155.5 236.2l-.2.3-.9.9c-4.4 4.6-28.8 29.9-82.4 75.6-53.8 45.7-148.8 96.7-214.9 123.4-39.2 15.8-113.9 36.6-156.3 45.4-17.9 3.7-30.7 6.1-41.2 7.9v212z" class="st1"/><path d="M2228.6 463.6V771h-721.8v1291c11.5-2.1 21.5-4 24.8-4.9 133.9-35.9 205.5-96.2 247.7-138.4 5.4-5.4 10.3-10.2 14.8-14.6 23.4-22.7 36.3-35.2 77.4-104.2 38.5-64.7 52.2-126 67.4-205.7 5.1-26.6 5.1-55.5 5.1-86.2V894.7h284.6v633.8c0 22.7-2.4 44.1-4.6 65-.5 4.5-1 9-1.5 13.6-9 84.7-29.9 163.2-62.2 233.5-40.4 87.9-90.2 163.4-152.3 231.1l-.2.1-.2.2c-1 1-24.7 26.2-80.8 74-52 44.2-144.4 93.7-208.9 119.8-38.1 15.4-111 35.6-152.6 44.2-27.7 5.7-43.5 8.4-58.7 10.6v208.9h-325.7v-205c-15.2-2.1-31-4.9-58.7-10.6-41.6-8.6-114.5-28.8-152.6-44.2-64.5-26.1-157-75.6-208.8-119.8-56.2-47.8-79.8-73-80.8-74l-.3-.3c-62.1-67.7-111.8-143.2-152.2-231.1-32.3-70.3-53.3-148.9-62.2-233.5-.5-4.3-.9-8.7-1.4-13-2.4-21-4.8-42.7-4.8-65.6V898.7h284.7V1512c0 30.7 0 59.6 5.2 86.3 15.1 79.6 28.8 140.9 67.3 205.6 41.1 69 54 81.5 77.4 104.2 4.6 4.4 9.5 9.2 14.8 14.6 42.2 42.2 113.8 102.5 247.6 138.4 3.3.8 13.4 2.8 24.9 4.9V771H459.2V463.6zm43.8-43.8h-1857v395h721.9v1195c-42.9-13.8-81.9-31.5-116-52.8-29.6-18.5-57-40.4-81.6-65.3-5.4-5.5-10.4-10.3-15.4-15.2-21.3-20.7-32-31-70.2-95.1-16.1-27.1-28.2-54.9-38.1-87.5-10-32.9-17.2-69.3-23.8-103.9v-.1c-4.4-22.6-4.4-49.5-4.4-78v-657H415.4v677.6c0 25.5 2.7 49.3 5.1 70.4l.2 2.3 1.1 10.6c9.5 89.2 31.6 172.4 66 247.1 42.3 92.1 94.6 171.4 159.7 242.4l.7.7.6.6c5.5 5.8 30.9 31.8 83.8 76.8 33 28.1 76.2 54.4 106.6 71.5 38.3 21.5 78.8 41.2 114.2 55.5 40.8 16.4 115.7 37.3 160.2 46.5 8.9 1.8 16.7 3.4 23.7 4.8v211.7h413.3v-215.7c7.1-1.4 14.9-2.9 23.8-4.7 44.3-9.2 119.2-30 160.1-46.5 35.4-14.3 75.9-34 114.2-55.5 30.4-17.1 73.5-43.3 106.7-71.5 54.5-46.4 79.7-72.4 84.1-77.2l1.7-1.8.3-.4c64.7-70.7 116.5-149.6 158.6-241.1 34.2-74.5 56.4-157.6 65.9-247 .2-2.1.5-4.1.7-6.2.3-2.4.5-4.8.8-7.2v-.2l.1-.8c2.4-21.7 4.8-44.2 4.8-68.9V850.9h-372.2V1508c0 28.5 0 55.4-4.3 77.9-14.8 77.7-27.1 133-62 191.6-38.2 64.1-48.8 74.4-70.2 95.1l-.1.1-.1.1-2.7 2.7c-3.7 3.6-7.9 7.7-12.4 12.2-24.6 24.9-52 46.8-81.6 65.3-34.2 21.3-73.1 39-116.1 52.8v-1191h721.8v-395z" class="st2"/><path d="M1462.9 2114.3V727.2h721.8V507.4H503v219.8h721.9v1391.1c-11.5-2.1-68.8-11.9-80-14.9-135.9-36.5-214.3-96.7-267.3-149.7-35.2-35.3-47.1-40.4-98.8-127.3-42.3-71.2-57.4-139.2-72.7-219.8-5.9-30.7-5.9-62.3-5.9-94.5V942.5H503v590.1c0 24.9 3.4 49.6 5.9 73.9 8.2 77.2 26.8 151 58.5 219.8 37.3 81.2 83.1 152.7 144.7 219.7 0 0 22.3 23.9 77.2 70.6 48.8 41.6 137.6 88.6 196.9 112.5 33.4 13.5 103.4 33.4 145 42 46.8 9.7 57.3 10.4 93.7 15v199.6h238v-203.6c36.3-4.6 46.9-5.3 93.7-15 41.6-8.6 111.6-28.5 145-42 59.2-24 148-70.9 196.9-112.5 54.9-46.7 77.2-70.6 77.2-70.6 61.5-67 107.4-138.6 144.7-219.7 31.6-68.8 50.2-142.6 58.5-219.8 2.5-24.3 5.9-49 5.9-73.9v-590h-197V1508c0 32.2 0 63.8-5.9 94.5-15.3 80.6-30.4 148.7-72.7 219.8-51.7 86.8-63.6 92-98.8 127.3-53 53-131.4 113.3-267.3 149.7-11.4 3.1-68.6 12.9-80.2 15" class="st2"/><path d="M394.8 1179.3H2293v292H394.8z" class="st1"/><path d="M529.2 1222h74.5l111.5 205.2h-71.4L623 1385H507l-21.4 42.2h-68.9zm-4.3 127.6h80.7l-39.8-80.7zM964.6 1222h94.8v205.2H998v-138.8c0-4 .1-9.6.2-16.8s.2-12.7.2-16.6l-59.8 172.2h-64L815.3 1255c0 3.9.1 9.4.2 16.6s.2 12.8.2 16.8v138.8h-61.4V1222h95.9l57.4 161.3zM1355.5 1243.8c9.6 8.7 14.5 19.2 14.5 31.3 0 12.5-4.9 22.6-14.6 30.2q-8.1 6.45-24 11.7c16.1 3.8 28.2 9.8 36.4 18.1 8 7.9 12.5 18.8 12.3 30.1 0 12.2-4.7 23.1-14 32.7-6.4 6.7-13.9 12.2-22.3 16.2-10.1 5-21.9 8.4-35.6 10.3-14.8 1.9-29.7 2.9-44.6 2.8h-142.2V1222h152.4c38.4.4 65.6 7.6 81.7 21.8m-171.2 13.8v45.2h76.6q20.55 0 33.3-5.1c12.75-5.1 12.8-9.4 12.8-18 0-9.6-5.6-15.9-16.9-18.9-9.7-2.1-22.2-3.2-37.3-3.2zm0 79.2v54.7h76.5c13.7 0 24.3-1.2 31.9-3.6 13.8-4.5 20.7-13 20.7-25.6 0-10.7-6.7-18-20.1-22-7.5-2.2-18-3.4-31.5-3.5zM1526.8 1222h74.5l111.6 205.2h-71.4l-20.8-42.2h-116.1l-21.4 42.2h-68.9zm-4.3 127.6h80.7l-39.8-80.7zM1949.8 1222v36.3h-94.3v168.8h-66.3v-168.8h-94.8V1222zM2223.4 1409c-23.8 16-58.3 23.9-103.3 23.9s-79.5-8-103.3-23.9c-31.9-19.6-47.9-47.8-47.9-84.6 0-37.6 16-65.8 47.9-84.6 23.8-16 58.2-24 103.3-24s79.5 8 103.3 24q47.7 28.2 47.7 84.6 0 55.2-47.7 84.6m-41.2-31.2c15.3-12.5 23-30.4 23-53.5 0-23-7.7-40.8-23-53.4s-36-18.9-62.1-18.9-46.9 6.3-62.5 18.8c-15.5 12.5-23.3 30.3-23.3 53.4s7.8 40.9 23.3 53.5c15.5 12.5 36.4 18.8 62.5 18.8 26.1.1 46.8-6.2 62.1-18.7" class="st2"/><circle cx="1343.9" cy="2188.5" r="240.9" class="st1"/><circle cx="1343.9" cy="2188.5" r="223.4" class="st2"/><path d="M1540.6 2269.7c-10.5-42.8-49.9-58-83.8-51.6-3.2.6-6.2 1.7-8.5-2.9-17.4-34.3-58.5-48.3-97.1-32.1-5.3 2.2-8.8 1.7-13.1-1.8-30.5-24-39.2-63.1-20.2-93.2 1.6-2.6 4.8-5.5 7.5-5.8 46.6-5.6 92.8-5.7 136.7 14.4 36.2 16.6 61.3 44.6 80.2 78.6 1.4 2.6 2.6 5.2 4.1 7.8 8.4 14.3 13.3 29 7.9 45.8-4.3 13.6-7.7 27.4-11.5 41.2z" class="st3"/><path d="M1316 1977.1c-31.2 31.8-27 72.4 1.1 103.9-9.6 13.7-14.5 29-13.5 45.9 1.5 24.2 13.1 43.2 32 57.6 5.1 3.9 6.1 7.6 5.4 13.5-4 35.2-32.5 62.5-66.7 63.5-7.1.2-12.1-1.6-16.5-7.9-19.3-27.2-36.2-55.6-45.7-87.9-12.8-43.4-7.8-85 12.7-124.7 7.8-15.1 18-29 27.3-43.3 1.5-2.3 4-4.8 6.5-5.5 17.5-5.3 35.1-10.2 52.6-15.1 1.1-.2 2.4 0 4.8 0z" class="st3"/><path d="M1172.2 2317.1c15.4 5.1 29 6.2 42.7 1.7 23.6-7.8 38.5-24.3 47-47 1.6-4.4 3.5-5.9 8.2-5.9 37.6 0 68.3-25 73.8-62.2 2-13.3 8.2-17.6 19.7-20.4 32.7-8 64.4 4.3 79.7 31.6 2.6 4.6 3.1 8.4.8 13.5-14.7 32.8-32 63.7-57.8 89.3-28.7 28.5-63.5 44.6-103.8 47.1-19.7 1.2-39.5-.7-59.3-1.2-1.5.1-2.9-.3-4.2-1-17.5-12.1-32.6-26.8-46.8-45.5z" class="st3"/><path d="M1243.4 1999.6c-9.1 16.5-19.2 32.4-27 49.4-22.4 49-20.6 98.4 2.5 146.4 10.6 22.1 25.1 42.3 37.6 63.5 1.5 2.6 2.9 6.4 2.1 9-8.9 31.4-36.6 51.1-68.8 48.7-12.7-1-23.2-5.1-30.4-17.8-17.5-31.2-28.8-64-29.7-99.9-2.2-88.5 36.4-154.1 112.3-198.7.4-.2.9-.4 1.4-.6zM1230.7 2370.3c12.1 0 24.7.1 37.3 0 61.8-.8 110.3-27.4 145-77.8 13.6-19.8 23.5-42.1 35.4-63 1.6-2.8 4.6-6.1 7.4-6.6 19.4-3.9 38-1.4 54.8 9.7 14 9.2 22 22.5 25.6 38.7 1.7 7.5-.9 13.9-4.6 20.1-31.9 55.3-78.4 91.7-141 105.9-55.2 12.5-107.7 4.1-156.7-24.7-1.3-.9-2.6-1.9-3.2-2.3zM1557.2 2194.5c-6.1-11.1-11.4-21.4-17.5-31.4-26.6-44.1-64.6-72.6-115.4-83.2-23.8-4.9-48.1-6.4-72.3-4.6-8.8.7-17.5 1.7-26.3 2.1-2.4.1-5.7-.5-7.2-2.1-21.3-22.8-26.8-57-10-82.2 8.3-12.4 18.7-19.7 34.5-18.9 31.6 1.5 62.2 6.6 90.8 20.5 62.3 30.3 102.2 79 118.4 146.3 3.7 15.5 4.1 31.9 5.9 47.8.3 1.6-.4 3.3-.9 5.7z" class="st3"/></g></svg>