<svg xmlns="http://www.w3.org/2000/svg" xml:space="preserve" viewBox="115.72 123.57 507.8 507.8"><defs><clipPath id="a" clipPathUnits="userSpaceOnUse"><path d="M0 551h551V0H0Z"/></clipPath></defs><g clip-path="url(#a)" transform="matrix(1.33333 0 0 -1.33333 0 734.667)"><path d="M0 0v252.324c0 29.995-24.54 54.54-54.54 54.54h-258.855c-29.998 0-54.539-24.545-54.539-54.54V19.268Z" style="fill:#fcd02b;fill-opacity:1;fill-rule:evenodd;stroke:none" transform="translate(461.337 145.648)"/><path d="M0 0c-36.67 9.553-76.391 9.389-112.238 8.528-21.818-.526-43.858 6.248-62.467 6.115V-.465c18.578.723 41.832-6.802 63.232-6.183C-75.73-5.612-36.121-4.207.439-15.709c51.089-16.068 78.231 3.487 127.416-.976 11.82-2.145 48.756-8.547 65.374-11.061v18.704c-16.038.809-63.259 6.76-75.821 8.648C68.081 3.311 51.237-13.348 0 0" style="fill:#4dc8f2;fill-opacity:1;fill-rule:evenodd;stroke:none" transform="translate(268.107 192.662)"/><path d="M0 0c-27.382 6.653-55.976 3.869-85.424 1.255-43.67-3.874-90.497 15.7-145.853 10.773l-30.93 1.027c-32.296.401-13.044 43.823 2.416 29.814 3.896 19.419-19.617 31.238-44.02 27.819V-2.536c18.609.133 40.649-6.641 62.467-6.115 35.847.861 75.568 1.025 112.238-8.528 51.237-13.348 68.081 3.311 117.408-.394 12.562-1.888 59.783-7.839 75.822-8.648V1.662C41.184 1.163 16.3-3.961 0 0" style="fill:#fff;fill-opacity:1;fill-rule:evenodd;stroke:none" transform="translate(397.213 209.841)"/><path d="M0 0c-16.619 2.515-53.555 8.916-65.374 11.061-49.186 4.463-76.328-15.092-127.416.977-27.452 8.636-56.623 9.995-84.586 9.698 7.812 21.176 25.385 54.961 60.887 68.938-1.741-8.811-5.091-19.208-5.289-19.764-.374-.838-1.634-3.319-.611-6.172.561-1.647 1.941-2.367 2.642-2.584 12.844-1.996 27.583 10.749 28.718 11.94 13.018 10.021 19.169 26.797 20.771 34.176 4.933-1.357 8.848-11.602 16.708-22.958 0 0 4.663-5.679 10.868 1.389 1.633 1.866 8.424 23.658 4.63 32.145 1.763.265 9.626.643 9.633.656 5.079.078 13.576-.472 22.762-2.832 4.523-1.173 11.854-3.204 17.839-5.678 0 0 4.307-1.878 10.136-3.032 11.411-3.304 14.55 3.485 14.55 3.485 1.973 3.865 1.687 6.79 1.687 6.79-.037 5.51-2.008 9.039-2.008 9.039-2.042 4.26-10.185 12.747-10.185 12.747.418 8.653-1.326 15.925-1.326 15.925s-2.979 13.774-12.52 22.833c-34.79 36.354-92.307 27.324-132.139 4.667l-1.42.288c-38.066 10.723-60.275-8.674-60.275-8.674-8.258-5.846-9.488-12.392-9.488-12.392-.44-3.001 3.578-3.399 3.578-3.399 5.97.279 10.835-.344 10.835-.344 7.189-2.017 10.722-5.846 6.899-12.278-3.154-4.034-18.42-33.829-24.334-58.457-7.07-29.991-7.672-49.438-6.874-66.976l-4.001-.116c-21.399-.619-44.654 6.907-63.231 6.183v205.775c0 29.995 24.541 54.54 54.539 54.54H-54.54c30 0 54.54-24.545 54.54-54.54zm-54.831 293.407h-258.576c-33.627 0-61.138-27.512-61.138-61.135V-26.307c0-33.624 27.511-61.135 61.138-61.135h258.576c33.624 0 61.134 27.511 61.134 61.135v258.579c0 33.623-27.51 61.135-61.134 61.135" style="fill:#3159a6;fill-opacity:1;fill-rule:nonzero;stroke:none" transform="translate(461.337 164.916)"/><path d="M0 0c0-.161.151-.24.437-.24.207 0 1.112.135 2.737.4C4.786.433 6.25.572 7.568.594a40 40 0 0 1-3.8-1.225A71 71 0 0 1 .484-2.005c-1.136-.504-1.937-.837-2.428-1.006-.493-.171-.915-.252-1.282-.252-1.132 0-1.704.733-1.704 2.209q0 5.7 2.884 8.024 1.169.924 3.775 2.231c1.73.859 3.688 1.672 5.861 2.438 2.186.78 4.579 1.441 7.2 2.004 2.608.56 5.196.834 7.736.834q3.933.002 7.211-1.145c2.197-.754 4.029-1.819 5.507-3.192 1.476-1.385 2.608-3.056 3.397-5.047.791-1.991 1.191-4.226 1.191-6.709 0-3.777-1.088-7.451-3.272-10.997-2.175-3.56-5.084-6.697-8.709-9.408-3.642-2.714-7.737-4.867-12.297-6.457-4.563-1.592-9.051-2.379-13.479-2.379-.825 0-1.477.09-1.957.261q-.725.278-1.031 1.065c-.194.526-.3 1.293-.3 2.323 0 1.281.106 2.312.3 3.125q.306 1.204 1.006 2.782C3.308-14.17 8.92-5.199 16.897 5.628c-1.604-.181-3.376-.525-5.3-1.027a68 68 0 0 1-5.461-1.662C4.42 2.345 2.967 1.76 1.777 1.199.598.64 0 .24 0 0m17.87 5.826c0-.037.046-.287.135-.758.093-.458.138-.846.138-1.191q0-.753-.79-2.161c-.528-.929-1.567-2.575-3.1-4.945a278 278 0 0 1-3.96-6.239c-1.099-1.785-2.391-4.083-3.894-6.899a54 54 0 0 0-.972-1.822 51 51 0 0 1-.859-1.546c-.388-.707-.674-1.326-.858-1.84-.17-.517-.263-.905-.263-1.169 0-.582.321-.994.96-1.226.631-.24 1.545-.353 2.725-.353 3.047 0 6.262.551 9.66 1.658a39.8 39.8 0 0 1 9.581 4.614c2.989 1.97 5.368 4.188 7.165 6.672q2.677 3.73 2.677 7.784c0 3.09-1.133 5.46-3.389 7.131-2.253 1.659-5.54 2.496-9.854 2.496-1.818 0-3.511-.071-5.102-.206m28.841-25.961v-.834c0-1.317.319-2.349.971-3.08.644-.742 1.499-1.109 2.544-1.109 1.098 0 2.23.25 3.408.767 1.171.515 2.337 1.201 3.491 2.046 1.169.85 2.589 1.995 4.259 3.423v-2.047c-2.517-3.035-4.887-5.366-7.097-6.995-2.218-1.613-4.463-2.426-6.739-2.426-1.992 0-3.561.767-4.727 2.312-1.157 1.544-1.743 3.653-1.743 6.343 0 2.345.551 4.475 1.637 6.386 1.099 1.912 2.884 3.925 5.372 6.042 1.692 1.456 3.384 2.554 5.056 3.287 1.671.741 3.17 1.108 4.487 1.108 1.051 0 1.889-.24 2.496-.721q.926-.72.926-2.163c0-1.407-.527-2.804-1.578-4.202-1.045-1.393-2.644-2.778-4.808-4.163-2.152-1.376-4.808-2.69-7.955-3.974m.332 2.186c2.015.778 3.73 1.754 5.16 2.92 1.431 1.155 2.485 2.265 3.174 3.33q1.014 1.598 1.015 2.337c0 .513-.226.766-.695.766-.412 0-1.065-.253-1.97-.766q-1.356-.779-2.749-2.017c-.926-.825-1.75-1.796-2.493-2.917a9.6 9.6 0 0 1-1.442-3.653m30.376-.607v-2.483q-7.004-9.283-11.399-9.282c-1.58 0-2.826.87-3.731 2.6-.905 1.726-1.362 4.004-1.362 6.821 0 2.276.538 4.99 1.615 8.124 1.062 3.149 2.505 6.331 4.302 9.56q2.695 4.838 5.596 8.445c1.935 2.404 3.733 4.086 5.38 5.047.677.4 1.19.606 1.578.606.47 0 .778-.206.938-.616.151-.412.231-1.123.231-2.128 0-3.116-1.258-6.925-3.788-11.459-2.518-4.521-6.045-9.145-10.554-13.859-.217-1.157-.331-2.05-.331-2.68 0-1.429.31-2.599.917-3.491q.927-1.339 2.563-1.339c.561 0 1.167.219 1.807.653.652.434 1.338.984 2.05 1.625q1.064.978 4.188 3.856m-10.014 6.033a34.6 34.6 0 0 1 3.364 3.892 49 49 0 0 1 3.068 4.657c.959 1.659 1.704 3.149 2.256 4.466q.82 1.973.821 2.985c0 .517-.181.767-.535.767-.138 0-.391-.124-.769-.367-1.361-1.12-2.894-3.305-4.59-6.558-1.692-3.251-2.905-6.534-3.615-9.842m28.397-6.399v-2.311c-1.351-1.34-2.357-2.311-3.056-2.918-.699-.606-1.649-1.225-2.85-1.844 0-2.037-.105-3.763-.299-5.195-.206-1.431-.652-2.943-1.351-4.508-.685-1.582-1.763-3.309-3.215-5.186q-2.147-2.785-4.223-4.281c-1.385-.997-2.472-1.487-3.251-1.487-.883 0-1.683.72-2.415 2.152-.745 1.431-1.112 3.203-1.112 5.321 0 2.037.345 4.189 1.045 6.444.685 2.253 1.76 5.174 3.215 8.757q-1.65 2.145-1.65 4.255c0 1.133.298 2.017.884 2.611.569.607 1.406 1.157 2.47 1.649.789 1.222 1.534 2.278 2.246 3.137.694.855 1.658 2 2.858 3.432 2.324 5.724 5.059 11.306 8.183 16.767.872 1.523 1.499 2.541 1.878 3.068.378.526.791.79 1.211.79.379 0 .712-.277 1.01-.837.287-.56.435-1.292.435-2.184 0-1.087-.126-2.097-.354-3.011a16 16 0 0 0-1.007-2.77C96.017 2 95.411.892 94.645-.413c-.779-1.293-1.247-2.096-1.432-2.403a419 419 0 0 0-3.787-6.546c-1.408-2.396-2.519-4.281-3.331-5.667a66 66 0 0 1-1.764-3.115c1.205-1.052 2.164-1.956 2.863-2.723q1.061-1.132 1.831-2.712c.754.287 1.453.64 2.084 1.041.619.4 1.36.951 2.209 1.658.847.7 1.669 1.351 2.484 1.958m-10.026-8.983-.069.697c-.631-.067-1.136-.079-1.511-.045a6.3 6.3 0 0 0-1.33.287c-.5.147-.891.298-1.166.432-.286.14-.594.265-.926.401-1.709-4.151-2.554-7.611-2.554-10.357 0-1.363.206-2.529.617-3.489.413-.964.906-1.444 1.466-1.444q.878 0 2.198 1.545c.88 1.031 1.648 2.543 2.302 4.555.652 2.016.973 4.487.973 7.418m25.99 8.983v-2.447q-3.258-4.191-6.076-6.318c-1.876-1.42-3.468-2.13-4.797-2.13q-2.747-.001-4.085 2.884-1.338 2.883-1.339 6.297c0 .88.09 1.705.263 2.505q.278 1.186.638 1.958.38.768 1.376 2.416c3.17 4.93 6.077 7.404 8.72 7.404q2.043 0 2.041-1.579c0-.711-.438-1.835-1.318-3.354q-1.323-2.27-2.369-3.25c-1.946-1.877-3.217-3.182-3.801-3.915-.594-.745-.892-1.579-.892-2.518 0-.803.298-1.477.903-2.015.606-.538 1.387-.8 2.346-.8 1.055 0 2.21.388 3.469 1.154 1.271.769 2.908 2.003 4.921 3.708M108.048.993a1.58 1.58 0 0 0-1.043.391c-.307.249-.468.536-.468.847 0 .834 1.167 2.943 3.49 6.339 1.007 1.41 1.844 2.349 2.53 2.805.675.458 1.646.686 2.896.686 1.659 0 2.484-.569 2.484-1.705q0-.979-2.165-3.225a46 46 0 0 0-4.622-4.192c-1.649-1.293-2.68-1.946-3.102-1.946m26.004-13.85c-3.927-4.369-5.894-7.426-5.894-9.143q0-1.442 1.166-1.443c.652 0 1.498.332 2.53 1.018 1.039.678 2.668 1.891 4.875 3.641v-2.311c-3.17-3.135-5.608-5.392-7.3-6.777-1.697-1.385-3.082-2.084-4.155-2.084-1.832 0-2.749 1.216-2.749 3.629 0 .711.114 1.419.333 2.109.228.696.538 1.419.926 2.16.391.757.985 1.822 1.785 3.216.802 1.41 1.73 2.988 2.782 4.752-1.271-.652-2.872-1.936-4.786-3.859a38 38 0 0 1-3.191-3.432 123 123 0 0 1-2.791-3.629c-.998-1.325-1.718-2.218-2.188-2.677-.459-.459-.915-.687-1.385-.687-.721 0-1.373.742-1.979 2.241-.606 1.502-.905 3.241-.905 5.233 0 1.236.137 2.197.425 2.883.273.699.822 1.683 1.658 2.954 1.532 2.367 2.871 4.109 3.983 5.208 1.122 1.11 2.197 1.658 3.216 1.658.72 0 1.291-.114 1.73-.366q.65-.36.652-1.132c0-.231-.058-.459-.196-.711a4 4 0 0 0-.456-.662c-.16-.206-.517-.597-1.056-1.178-3.536-3.915-5.298-6.445-5.298-7.614 0-.653.216-.973.642-.973.261 0 .778.437 1.557 1.295.766.856 1.76 1.992 2.975 3.385 1.226 1.398 2.666 2.85 4.325 4.375 1.671 1.523 3.561 2.988 5.69 4.394q1.77 1.238 2.939 1.238c.368 0 .711-.493 1.065-1.478a8.9 8.9 0 0 0 .517-2.976q-.002-.74-1.442-2.257m56.472-6.944q-.84 1.543-2.518 2.781c-1.111.833-2.37 1.499-3.768 2.003a25 25 0 0 1-4.382 1.121c-4.509.665-8.731 2.13-12.637 4.395-.342.173-.696.551-1.074 1.132q-.57.876-.572 1.684c0 1.969.332 3.936.984 5.918.662 1.98 1.511 3.524 2.54 4.644 1.648 1.857 4.625 3.469 8.941 4.855 4.302 1.384 9.142 2.083 14.535 2.083 3.216 0 5.699-.24 7.46-.733q2.633-.74 2.634-2.29c0-1.671-.227-2.964-.698-3.878-.458-.929-.951-1.536-1.464-1.831-.528-.311-1.453-.711-2.771-1.224q-2.11-.741-3.674-1.545a29 29 0 0 1-2.665-1.548c-.733-.49-1.192-.73-1.376-.73-.215 0-.329.089-.329.262 0 .387.387.959 1.188 1.729.79.778 1.774 1.453 2.929 2.037 1.237.64 1.843 1.053 1.843 1.234 0 .287-.673.438-2.037.438-4.143 0-7.964-.367-11.479-1.112-3.503-.732-6.273-1.705-8.298-2.921-2.025-1.199-3.035-2.424-3.035-3.684 0-.778.426-1.338 1.259-1.658.838-.32 2.689-.871 5.552-1.625 2.863-.758 5.426-1.637 7.682-2.61 3.238-1.397 5.642-2.828 7.208-4.328 1.57-1.498 2.348-3.169 2.348-5.026 0-1.279-.311-2.551-.927-3.843-.608-1.283-1.511-2.463-2.689-3.536a15.9 15.9 0 0 0-4.099-2.644q-1.974-.842-4.977-1.579a53 53 0 0 0-6.513-1.157 55 55 0 0 0-6.685-.424c-3.914 0-7.061.365-9.44 1.11-2.383.733-3.573 1.854-3.573 3.355 0 .662.399 1.705 1.211 3.124.803 1.419 1.755 2.379 2.853 2.871q1.442.569 2.78.653 1.338.089 1.338-.32a.26.26 0 0 0-.102-.195.9.9 0 0 0-.226-.171q-.139-.069-.279-.136c-.446-.172-.812-.323-1.085-.412a4 4 0 0 1-.677-.311.47.47 0 0 1-.24-.412c0-.468 2.314-.708 6.935-.708q6.046.002 9.89.434c2.577.286 4.842.812 6.811 1.578a19 19 0 0 1 5.368 3.15m51.435 1.005v-2.173c-3.753-4.179-7.198-7.623-10.347-10.334-3.134-2.727-6.204-4.808-9.2-6.272q-4.487-2.199-8.677-2.198c-2.415 0-4.487.48-6.227 1.44-1.73.961-3.034 2.358-3.914 4.214-.88 1.84-1.326 4.028-1.326 6.546 0 1.991.32 4.096.947 6.327.643 2.223 1.571 4.466 2.77 6.732 1.213 2.276 2.691 4.613 4.44 7.029 1.752 2.412 3.824 4.955 6.194 7.611 2.449 2.745 4.874 5.126 7.269 7.131 2.391 1.991 4.565 3.57 6.5 4.702 1.944 1.145 3.754 1.992 5.414 2.552 1.671.563 3.056.837 4.143.837 1.122 0 2.07-.265 2.848-.804.793-.535 1.386-1.326 1.81-2.345.423-1.03.641-2.219.641-3.56 0-2.528-.859-5.331-2.585-8.433-1.717-3.09-3.859-6.091-6.433-8.975-2.566-2.872-5.026-5.231-7.361-7.05-2.333-1.82-4.016-2.737-5.047-2.737q-1.03.002-1.925.825c-.593.551-.891 1.167-.891 1.857q-.002 1.92 2.037 4.634a39 39 0 0 0 4.418 4.976c1.604 1.511 2.552 2.268 2.872 2.268.151 0 .232-.067.232-.206q0-.292-.357-1.03-.343-.742-.343-.914c0-.173.069-.265.195-.265.379 0 1.477 1.018 3.283 3.044a48.4 48.4 0 0 1 4.981 6.73c1.511 2.438 2.264 4.454 2.264 6.008 0 .652-.136 1.145-.42 1.502-.275.341-.7.514-1.248.514-1.569 0-3.952-1.271-7.13-3.801q-4.773-3.806-9.788-9.695-5.014-5.886-8.368-12.153c-2.232-4.177-3.352-7.852-3.352-11.034 0-1.831.274-3.364.826-4.589.547-1.236 1.348-2.188 2.412-2.85 1.054-.676 2.336-1.009 3.834-1.009 3.242 0 6.913 1.262 11.035 3.788 4.109 2.53 8.629 6.251 13.574 11.16" style="fill:#3159a6;fill-opacity:1;fill-rule:nonzero;stroke:none" transform="translate(155.626 414.414)"/><path d="M0 0v-2.946C-2.709-5.478-5.011-7.52-6.888-9.065a67 67 0 0 0-5.67-4.179c-1.876-1.239-3.422-2.127-4.662-2.652q-1.856-.786-3.189-.785c-2.098 0-3.816.785-5.158 2.345-1.339 1.572-2.01 3.582-2.01 6.059 0 2.842.582 5.667 1.733 8.449 1.151 2.797 2.799 5.669 4.925 8.638 2.141 2.973 4.807 6.31 8.026 10.009 2.392 2.739 3.586 4.269 3.586 4.62a.7.7 0 0 1-.22.507c-.147.148-.291.222-.468.222-.538 0-2.196-1.21-4.993-3.601-2.784-2.388-6.369-5.9-10.738-10.531-4.356-4.648-9.078-10.169-14.146-16.565-.276-.335-1.182-1.501-2.712-3.481-1.528-1.966-2.591-3.264-3.219-3.861-.624-.597-1.162-.889-1.63-.889-.789 0-1.487.802-2.069 2.418-.585 1.603-.873 3.308-.873 5.131 0 1.12.363 2.315 1.092 3.597.729 1.265 2.302 3.567 4.733 6.891a531 531 0 0 1 6.047 8.374c1.589 2.274 3.337 5.042 5.245 8.276 1.338 2.259 2.33 4.05 2.971 5.392q.962 1.988.962 3.54c0 .873-.261 1.327-.771 1.327-1.079 0-3.119-1.444-6.105-4.344-2.987-2.884-6.672-7.168-11.073-12.864-4.398-5.697-8.99-12.28-13.767-19.768-1.571-2.552-2.679-4.268-3.335-5.159-.657-.874-1.37-1.325-2.17-1.325-.991 0-1.923 1.064-2.798 3.176-.861 2.127-1.299 3.846-1.299 5.142 0 .437.163.905.512 1.413q5.638 7.52 9.267 12.763a177 177 0 0 1 6.438 9.966c1.881 3.145 3.25 5.739 4.093 7.764.859 2.038 1.284 3.641 1.284 4.807q0 1.835-1.662 1.835c-.918 0-2.462-.581-4.662-1.748-2.186-1.167-4.952-2.767-8.289-4.777-3.352-2.024-6.032-3.57-8.057-4.635-2.01-1.061-3.524-1.6-4.515-1.6-.948 0-1.413.523-1.413 1.573 0 .597.203 1.982.597 4.121.394 2.157.816 3.672 1.237 4.546.598 1.135 2.126 2.653 4.588 4.53 2.463 1.88 3.818 2.813 4.083 2.813.23 0 .331-.102.331-.293 0-.116-.101-.288-.331-.507-1.167-.949-2.041-1.721-2.611-2.318q-.847-.896-1.062-1.966c5.202 3.132 9.861 5.52 13.985 7.151 4.109 1.648 6.966 2.463 8.55 2.463.803 0 1.544-.538 2.258-1.604.716-1.061 1.328-2.298 1.823-3.714q.742-2.118.742-2.709c0-1.455-.363-3.161-1.105-5.142-.744-1.983-1.751-4.284-3.016-6.891-1.268-2.622-2.841-5.9-4.722-9.818 1.487 1.908 2.9 3.668 4.225 5.287a361 361 0 0 0 3.994 4.734c1.322 1.545 2.68 3.09 4.034 4.663a58 58 0 0 0 6.234 6.118c2.303 1.951 4.458 3.54 6.471 4.78 2.009 1.238 3.364 1.865 4.077 1.865.991 0 1.88-.554 2.665-1.647.789-1.092 1.182-2.275 1.182-3.526 0-.816-.538-2.405-1.631-4.735-1.081-2.333-2.652-5.318-4.736-8.959-2.069-3.643-4.823-8.349-8.23-14.089 3.235 3.438 6.615 6.98 10.111 10.621 3.495 3.641 6.102 6.31 7.806 7.984 1.706 1.674 3.135 2.957 4.271 3.846a85 85 0 0 1 4.719 3.86 903 903 0 0 0 3.728 3.263c.92.802 1.721 1.415 2.434 1.837.714.436 1.37.639 1.968.639.741 0 1.674-.842 2.796-2.548 1.12-1.719 1.691-2.813 1.691-3.293q0-.895-1.007-2.142c-.67-.815-2.053-2.361-4.167-4.604-3.859-4.151-7.223-8.347-10.067-12.572-2.852-4.223-5.01-8.085-6.466-11.566-1.472-3.48-2.201-6.235-2.201-8.261q0-1.875.699-2.723c.48-.57 1.21-.862 2.2-.862.917 0 1.764.176 2.549.512.772.35 1.646.83 2.595 1.454.959.629 1.864 1.226 2.707 1.795a53 53 0 0 1 3.527 2.287c1.152.8 2.053 1.441 2.696 1.908C-.8-.527-.321-.191 0 0m4.692 7.472c4.328 3.933 8.523 6.848 12.588 8.756s7.211 2.856 9.425 2.856c.597 0 1.15-.249 1.678-.745a5.6 5.6 0 0 0 1.206-1.733c.307-.655.451-1.136.451-1.443 0-.523-.204-.902-.596-1.135q-.59-.371-2.101-.874c.207-.453.47-1.035.774-1.749.32-.714.554-1.296.729-1.733s.246-.831.246-1.167c0-.682-.683-1.966-2.067-3.831-1.37-1.864-2.346-3.235-2.9-4.109-.551-.888-.828-1.966-.828-3.246 0-2.1.96-3.164 2.896-3.164q2.995 0 9.354 5.595v-2.607c-7.196-7.983-12.355-11.99-15.457-11.99-1.107 0-1.892.364-2.373 1.092-.467.729-.702 1.791-.702 3.22 0 2.243.816 5.506 2.436 9.774-4.152-4.601-7.242-7.894-9.252-9.833-2.025-1.952-3.687-2.927-4.998-2.927-.625 0-1.413.539-2.346 1.616C1.923-10.813 1.08-9.412.366-7.694A13.6 13.6 0 0 0-.726-2.349c0 1.342.128 2.462.377 3.352.262.905.759 1.822 1.499 2.754q1.116 1.419 3.542 3.715m20.439 4.705C17.729 8.798 12.457 5.912 9.325 3.555 6.18 1.193 4.603-1.241 4.603-3.746c0-.917.162-1.662.468-2.244.321-.581.742-.874 1.28-.874.323 0 .875.203 1.662.597 2.986 1.763 5.724 4.066 8.203 6.891q3.714 4.259 8.915 11.553m38.795-4.619c-4.995-5.565-7.5-9.455-7.5-11.639q0-1.835 1.485-1.835c.829 0 1.909.422 3.22 1.296q1.988 1.29 6.205 4.632V-2.93c-4.034-3.993-7.138-6.861-9.295-8.624s-3.918-2.653-5.288-2.653c-2.331 0-3.496 1.545-3.496 4.62 0 .901.144 1.807.421 2.681q.438 1.332 1.18 2.754c.494.96 1.256 2.314 2.274 4.093 1.019 1.791 2.202 3.8 3.54 6.044-1.615-.83-3.656-2.462-6.088-4.908a48 48 0 0 1-4.065-4.371 165 165 0 0 1-3.556-4.619c-1.267-1.691-2.185-2.826-2.781-3.407-.586-.585-1.167-.874-1.765-.874-.916 0-1.747.944-2.52 2.852-.772 1.909-1.15 4.125-1.15 6.661 0 1.572.175 2.794.538 3.668.351.89 1.048 2.142 2.114 3.761 1.951 3.016 3.657 5.229 5.069 6.63 1.428 1.412 2.798 2.111 4.093 2.111.919 0 1.646-.145 2.201-.468q.832-.457.831-1.441c0-.292-.074-.584-.25-.904a5 5 0 0 0-.581-.844c-.206-.262-.656-.757-1.342-1.502-4.498-4.982-6.743-8.201-6.743-9.688 0-.828.276-1.237.815-1.237.336 0 .991.554 1.982 1.646Q44.94.693 47.259 3.364c1.562 1.778 3.396 3.628 5.507 5.564 2.129 1.939 4.533 3.803 7.241 5.595 1.503 1.049 2.755 1.573 3.747 1.573.463 0 .901-.626 1.353-1.878q.656-1.884.656-3.789c0-.627-.613-1.588-1.837-2.871M82.065 21.98H83.9c1.514 2.711 2.871 4.619 4.093 5.743 1.225 1.121 2.622 1.689 4.183 1.689 1.573 0 2.359-.365 2.359-1.065 0-.35-.612-1.267-1.837-2.782-1.221-1.501-2.154-2.766-2.781-3.801.975-.104 1.833-.206 2.578-.291.757-.09 1.355-.161 1.776-.219-1.615-3.016-3.656-6.104-6.103-9.252-.801.058-1.47.102-2.009.145-.54.046-1.078.089-1.646.132-.554.043-1.225.087-2.026.145-1.529-2.475-2.825-4.691-3.859-6.642-1.034-1.938-1.838-3.73-2.391-5.345-.555-1.634-.832-3.165-.832-4.621 0-1.966.788-2.942 2.348-2.942 1.078 0 2.505.582 4.255 1.733 1.748 1.151 4.076 2.915 7.019 5.303v-2.856c-7.691-8.332-13.357-12.498-17.028-12.498-1.285 0-2.319.495-3.091 1.502-.785.987-1.178 2.272-1.178 3.828q0 1.573.654 3.762c.454 1.439 1.238 3.64 2.374 6.57-.391-.351-.77-.671-1.136-1.007a80 80 0 0 0-.975-.888c-.305-.277-.624-.567-.961-.859-.335-.306-.685-.612-1.021-.918v2.942q4.482 3.76 10.839 13.198a36 36 0 0 1-1.194.058c-.379.015-.816.015-1.327.015-1.674 0-2.926-.102-3.757-.335a15 15 0 0 1-.961-.277c-.292-.102-.494-.145-.612-.145s-.175.087-.175.246c0 .948.58 2.349 1.748 4.225.933 1.589 1.822 2.772 2.665 3.54.846.773 1.865 1.299 3.074 1.561 1.21.276 2.915.406 5.1.406M93.938 7.472c4.325 3.933 8.524 6.848 12.585 8.756 4.066 1.908 7.211 2.856 9.427 2.856.598 0 1.152-.249 1.675-.745a5.5 5.5 0 0 0 1.209-1.733c.308-.655.453-1.136.453-1.443 0-.523-.203-.902-.597-1.135q-.591-.371-2.1-.874c.204-.453.468-1.035.773-1.749.321-.714.554-1.296.73-1.733s.247-.831.247-1.167c0-.682-.684-1.966-2.069-3.831-1.371-1.864-2.345-3.235-2.9-4.109-.554-.888-.831-1.966-.831-3.246 0-2.1.963-3.164 2.9-3.164q2.995 0 9.353 5.595v-2.607c-7.197-7.983-12.354-11.99-15.457-11.99-1.107 0-1.892.364-2.376 1.092-.464.729-.698 1.791-.698 3.22 0 2.243.816 5.506 2.434 9.774-4.151-4.601-7.241-7.894-9.251-9.833-2.026-1.952-3.687-2.927-4.999-2.927-.624 0-1.411.539-2.344 1.616-.933 1.092-1.776 2.493-2.491 4.211a13.6 13.6 0 0 0-1.092 5.345c0 1.342.13 2.462.378 3.352.262.905.758 1.822 1.5 2.754.745.945 1.922 2.185 3.541 3.715m20.439 4.705c-7.401-3.379-12.673-6.265-15.806-8.622Q93.849.012 93.85-3.746c0-.917.16-1.662.468-2.244.319-.581.74-.874 1.28-.874.319 0 .873.203 1.662.597 2.986 1.763 5.724 4.066 8.201 6.891q3.714 4.259 8.916 11.553" style="fill:#fff;fill-opacity:1;fill-rule:nonzero;stroke:none" transform="translate(302.9 120.005)"/><path d="M0 0c3.365 0 6.568-.677 9.513-1.874a24.8 24.8 0 0 0 8.056-5.405 24.95 24.95 0 0 0 5.403-8.089 24.2 24.2 0 0 0 1.909-9.444c0-3.367-.681-6.568-1.909-9.48a25 25 0 0 0-5.403-8.088 24.8 24.8 0 0 0-8.056-5.404C6.568-49.012 3.365-49.658 0-49.658c-3.329 0-6.502.646-9.444 1.874a24.9 24.9 0 0 0-8.088 5.404c-2.266 2.296-4.143 5.048-5.402 8.088a24.8 24.8 0 0 0-1.877 9.48c0 3.363.676 6.534 1.877 9.444 1.259 3.042 3.136 5.793 5.402 8.089a24.9 24.9 0 0 0 8.088 5.405C-6.502-.677-3.329 0 0 0" style="fill:#3159a6;fill-opacity:1;fill-rule:evenodd;stroke:none" transform="translate(416.492 373.76)"/><path d="M0 0c-.615-.031-1.327-.095-2.135-.16A78 78 0 0 1-4.5-.517a13 13 0 0 1-1.778-.388 9 9 0 0 1-1.292-.357c-.487-.711-1.103-1.744-1.715-2.942a51 51 0 0 1-1.782-3.527c-.323-.68-.612-1.36-.871-2.007a15 15 0 0 1-.615-1.615c.164-.358.356-.809.581-1.296.258-.518.518-1.068.84-1.616.391-.615.778-1.262 1.262-1.846.423-.548.909-1.035 1.426-1.392.357.099.774.228 1.197.357.485.13.969.259 1.421.358.779.224 1.652.452 2.524.711a70 70 0 0 1 2.459.646l4.272 8.186a26 26 0 0 0-1.102 1.714c-.323.582-.677 1.198-.97 1.844a17 17 0 0 0-.808 1.942A12 12 0 0 0 0 0" style="fill:#fff;fill-opacity:1;fill-rule:evenodd;stroke:none" transform="translate(408.924 364.022)"/><path d="M0 0c.645.129 1.295.258 1.907.418.617.164 1.262.294 1.878.456.582.195 1.197.354 1.779.549.582.162 1.163.356 1.713.55l1.103 8.962-6.538 6.698c-.68-.195-1.455-.389-2.295-.616q-1.214-.292-2.524-.681a33 33 0 0 1-1.489-.387c-.419-.13-.871-.259-1.26-.358a11 11 0 0 1-.678-1.421c-.228-.582-.453-1.164-.616-1.748a19 19 0 0 1-.552-2.133 18 18 0 0 1-.388-2.17c.358-.68.94-1.486 1.586-2.36A30 30 0 0 1-4.14 3.268a25 25 0 0 1 2.197-1.974C-1.294.775-.615.324 0 0" style="fill:#fff;fill-opacity:1;fill-rule:evenodd;stroke:none" transform="translate(406.368 329.796)"/><path d="m0 0 .938 7.472c-.063.065.031-.03-.063.034-.745.518-1.714 1.228-2.912 1.939a34 34 0 0 1-3.979 2.235l-9.059-4.367-1.132-8.997c.419-.354.871-.646 1.327-.969.452-.322.969-.616 1.551-.905.582-.291 1.262-.585 2.006-.907.776-.29 1.616-.549 2.589-.84.289.129.551.258.808.387.067.033 0 0 .097.033 1.197.616 2.554 1.262 3.915 2.039C-2.587-2.038-1.229-1.132 0 0" style="fill:#fff;fill-opacity:1;fill-rule:evenodd;stroke:none" transform="translate(430.954 333.224)"/><path d="M0 0a11 11 0 0 1-.358 1.555c-.159.55-.387 1.099-.612 1.683q-.486 1.113-1.068 2.231c-.452.84-.904 1.684-1.358 2.395-.679.129-1.361.225-2.07.357l-2.071.289c-.712.099-1.392.163-2.072.228-.68.064-1.327.129-2.004.16-.486-.324-1.068-.711-1.683-1.163a17 17 0 0 1-1.715-1.327 19 19 0 0 1-1.455-1.327c-.357-.387-.68-.744-.874-1.102.159-.58.292-1.196.517-1.778.228-.646.517-1.327.84-1.939.292-.616.615-1.198.939-1.748.323-.582.68-1.132 1.036-1.649L-3.915-4.72Z" style="fill:#fff;fill-opacity:1;fill-rule:evenodd;stroke:none" transform="translate(427.299 360.56)"/><path d="M0 0a8 8 0 0 1-1.486 1.099 8.2 8.2 0 0 1-1.715.775 9.6 9.6 0 0 1-1.975.486c-.677.066-1.422.099-2.166.099l-4.044-4.886 1.391-9.058c1.521-.712 2.881-1.521 4.043-2.232 1.165-.745 2.136-1.425 2.847-1.908.453.354.939.776 1.393 1.197.517.453 1.032.936 1.553 1.456.387.419.807.84 1.164 1.293.356.421.68.84.969 1.295.098 2.684-.161 4.755-.548 6.436C1.005-2.298.453-1.036 0 0" style="fill:#fff;fill-opacity:1;fill-rule:evenodd;stroke:none" transform="translate(435.515 357.36)"/><path d="M0 0c.129.646.228 1.262.293 1.939.064.779.094 1.553.094 2.364 0 2.36-.354 4.625-.999 6.792-.65 2.105-1.555 4.108-2.718 5.921l-.099-3.398c.031-.094-.03 0 .065-.16 0-.033 0-.063.034-.098.453-1.067 1.035-2.33 1.487-4.043.421-1.651.744-3.753.679-6.439.065-.16.161-.354.226-.614.098-.226.226-.519.356-.808.096-.292.228-.616.357-.939C-.16.354-.065.194 0 0" style="fill:#fff;fill-opacity:1;fill-rule:evenodd;stroke:none" transform="translate(439.818 344.646)"/><path d="M0 0a25.3 25.3 0 0 1 6.018 2.295c2.006 1.102 3.849 2.459 5.434 4.078.067.065.1.095.163.161H9.902a24.5 24.5 0 0 0-4.077-2.943c-1.393-.81-2.75-1.489-4.011-2.105-.034 0-.065-.03-.099-.03C1.328 1.261.974 1.099.681.938Z" style="fill:#fff;fill-opacity:1;fill-rule:evenodd;stroke:none" transform="translate(421.798 325.817)"/><path d="M0 0a20.4 20.4 0 0 1 1.81-2.877A24 24 0 0 1 4.204-5.66a21.6 21.6 0 0 1 3.075-2.622 25.4 25.4 0 0 1 3.268-1.907c-.034.097-.067.226-.098.322-.065.195-.099.389-.163.552 0 .063-.032.129-.032.159-.033.034-.033.065-.033.098-.677.355-1.391.841-2.102 1.391a28 28 0 0 0-2.33 2.072 33 33 0 0 0-2.265 2.588c-.677.871-1.262 1.715-1.68 2.456q-.39.101-.68.197a3 3 0 0 1-.647.194c-.13.065-.293.096-.422.13C.065-.03.032 0 0 0" style="fill:#fff;fill-opacity:1;fill-rule:evenodd;stroke:none" transform="translate(395.595 337.85)"/><path d="M0 0c-.034-.03-.098-.097-.13-.129-.129-.129-.258-.228-.356-.357-2.136-2.136-3.881-4.656-5.079-7.472a23.3 23.3 0 0 1-1.877-8.378c.258.259.517.548.775.841.328.357.651.711.94 1.067.098.095.194.224.292.353.095.1.194.195.258.294.164.582.388 1.228.647 1.941.293.777.647 1.617 1.038 2.459a94 94 0 0 0 1.809 3.558C-1.036-4.659-.422-3.592.065-2.847A4 4 0 0 0 0-2.166c0 .258-.034.517-.034.809 0 .258 0 .548.034.806z" style="fill:#fff;fill-opacity:1;fill-rule:evenodd;stroke:none" transform="translate(400.286 366.158)"/><path d="M0 0c-.744 0-1.455-.031-2.2-.095a40 40 0 0 1-1.874-.259q.242-.193.482-.388c.263-.163.552-.326.845-.486.288-.164.612-.293.968-.453.324-.129.647-.258 1.004-.357.681-.03 1.357-.095 2.071-.16.678-.064 1.392-.129 2.102-.228.745-.095 1.52-.194 2.265-.323s1.486-.258 2.267-.387l2.91.516A24.5 24.5 0 0 1 5.759-.711 24 24 0 0 1 0 0" style="fill:#fff;fill-opacity:1;fill-rule:evenodd;stroke:none" transform="translate(416.492 372.628)"/><path d="M0 0c.529-7.879-9.091-6.927-9.091-6.927-11.526 2.158-12.559 3.419-20.975 9.178 0 0-29.541 22.199-68.024 6.733 0 0-.646-.661-1.475-1.738 11.877 16.068 33.231 13.665 33.231 13.665-6.026 13.785-52.875.16-52.875.16 20.072 2.22 24.336-.089 24.336-.089l-.146.014c-11.791-2.021-17.68-24.916-17.68-24.916-5.65-19.006-7.136-23.784-14.216-32.357-2.795-3.349-9.245-9.953-20.666-11.144l.861-.085-1.008.1c-.432.043-.83.373-.83.373s-2.357 1.105-.61 5.564c0 0 6.399 13.427 7.475 28.681.506 9.515-.863 14.726-1.637 18.568a24 24 0 0 0-.623 2.527s3.896 7.151 7.739 9.379c-60.242-18.479-77.081-59.319-84.407-135.974-.029-.302 1.033-.916 2.105-.642 9.431 2.406 35.038-7.184 25.847-28.455-.386.474-2.59 3.387-3.004 3.578-.677.503-1.335 1.145-4.348 1.443-3.447.341-4.447-1.008-9.515-.941-3.041.008-9.442-.225-12.58 9.07 0 0 1.316-10.129-8.983-11.719 0 0-13.658-3.286-19.885-6.144 0 0-12.075-4.894-14.401-18.141 0 0 .102-1.892-1.476-1.736 0 0-1.31-.02-1.869 3.082 0 0-6.959 26.338 18.252 43.842 3.125 2.297 6.623 3.981 9.966 5.536 10.298 3.034 13.523-5.395 13.523-5.395-4.519 11.461-5.67 29.109-6.106 34.946.058.578.114 1.151.029 1.736-.373 43.082 15.37 83.548 21.297 95.134 3.265 6.632 6.905 12.65 10.789 18.208l-.17-.272c4.642 5.915 5.427 9.461 5.427 9.461 1.474 4.638-2.46 8.792-2.46 8.792-3.709 5.004-14.914 4.523-14.914 4.523s-2.913-.147-2.114 2.089l.014.146c1.648 2.01 4.446 3.907 7.501 5.491 27.178 12.523 24.314-9.291 24.314-9.291 30.002 19.456 48.281 34.441 91.327 37.657 39.84 2.977 74.357-15.386 78.524-52.078.486-11.329-23.556-5.337-28.725-3.243-2.078.932-3.043 1.461-3.975 2.279a10 10 0 0 0-.963.529c-2.452-1.351-4.416-.723-4.416-.723 2.132.346 3.11 2.157 3.11 2.157-1.852.327-2.943 2.465-2.943 2.465-2.403 3.571-4.614 4.661-4.614 4.661-5.109 2.534-7.892-.667-8.237-1.214-.885-1.651-.308-4.606 4.865-9.468-1.138 3.16-1.676 6.545 1.727 7.219.141-.014.301.115.301.115 1.881-.04 3.619-1.517 4.393-2.462-.443-.1-.918-.489-1.114-1.048-.706-1.235-.013-3.044 1.49-3.918.549-.344 1.264-.415 1.993-.342.866-.085 1.897.103 3.105.562 4.763-3.079 11.814-5.083 17.526-5.934 0 0 12.555-1.97 16.274-1.032C-3.424 15.128-.531 7.739-.459 7.009.747 1.673-6.713 2.411-6.713 2.411c-10.449 1.324-14.094 5.452-20.944 9.465-7.669 4.526-4.911 3.094-12.406 6.443 0 0-7.639 3.364-10.077.707q.002-.001.475.39s3.055.13 8.113-2.978c5.585-3.598 10.781-6.719 16.251-10.016 0 0 7.758-8.011 17.171-8.077l3.416-.628z" style="fill:#b6b6b6;fill-opacity:1;fill-rule:nonzero;stroke:none" transform="translate(396.978 281.51)"/><path d="M0 0c-.729-.072-1.446-.001-1.994.341-1.502.874-2.197 2.684-1.491 3.918.198.558.672.947 1.116 1.047-.776.947-2.511 2.424-4.395 2.464 0 0-1.185-3.217-.076-5.208 0 0 1.779-3.945 7.059-3.308 0 0 1.466.144 3.16 1.137a.46.46 0 0 1-.273.17C1.898.104.866-.086 0 0" style="fill:#fff;fill-opacity:1;fill-rule:nonzero;stroke:none" transform="translate(346.184 310.191)"/><path d="M0 0s11.068-5.295 13.215 1.737C14.954-10.7-.4-6.447-.545-6.153c-2.194.549-3.762.852-5.545 1.582-19.173 7.854-38.209 13.542-49.771 18.154-1.958.781-29.674-5.462-29.047-4.775C-71.752 23.177-58.568 20.881-53.607 21c1.259.176 9.104.229 16.192-1.092 4.618-.861 8.848-3.358 10.779-4.757C-26.632 15.154-4.794 1.346 0 0" style="fill:#fff;fill-opacity:1;fill-rule:nonzero;stroke:none" transform="translate(383.796 281.687)"/><path d="M0 0c-11.587 5.93-20.441 7.24-20.441 7.24-35.697 6.867-59.662-5.399-59.662-5.399 1.516 5.068 5.729 9.578 5.729 9.578C-34.743 28.22-4.871 3.525-4.871 3.525S1.118-.403 2.095-.787C2.097-.786.833-.375 0 0" style="fill:#fff;fill-opacity:1;fill-rule:nonzero;stroke:none" transform="translate(373.11 279.123)"/><path d="M0 0s-8.837-4.341-13.482-24.895c-2.21-10.649-5.801-23.481-18.075-34.728-4.143-3.792-10.807-9.656-21.298-8.763 11.421 1.188 17.871 7.794 20.666 11.141 7.081 8.576 8.566 13.354 14.216 32.358 0 0 5.918 23.182 17.973 24.887" style="fill:#fff;fill-opacity:1;fill-rule:nonzero;stroke:none" transform="translate(302.1 302.526)"/><path d="M0 0s2.784 9.145.239 17.076c0 0-48.143-14.944-57.919-68.321C-57.68-51.245-48.456-21 0 0" style="fill:#fff;fill-opacity:1;fill-rule:nonzero;stroke:none" transform="translate(246.78 261.918)"/><path d="M0 0c23.578 11.287 46.805 2.903 46.805 2.903S44.093 1.869 41.798.644C41.8.644 23.28 8.273 0 0" style="fill:#fff;fill-opacity:1;fill-rule:nonzero;stroke:none" transform="translate(192.282 343.83)"/><path d="M0 0s10.656-9.457-.782-9.342c0 0 5.968 3.177.782 9.342" style="fill:#fff;fill-opacity:1;fill-rule:nonzero;stroke:none" transform="translate(389.954 295.57)"/><path d="m0 0-4.4-.579s4.304-3.324.796-24.137c0 0 7.146 13.64 3.604 24.716" style="fill:#858586;fill-opacity:1;fill-rule:nonzero;stroke:none" transform="translate(319.827 279.615)"/><path d="M0 0c-.756-1.237-1.788-1.95-3.106-2.144 1.407-.335 2.871-.16 4.417.722C.662-.786.202-.312 0 0" style="fill:#fff;fill-opacity:1;fill-rule:evenodd;stroke:none" transform="translate(348.322 314.176)"/></g></svg>