<svg xmlns="http://www.w3.org/2000/svg" xml:space="preserve" viewBox="271.38 400.93 268.63 303.84"><g clip-path="url(#clipPath18)" transform="matrix(1.33333 0 0 -1.33333 0 1122.52)"><path d="M0 0c-.754 16.934-8.771 32.84-15.211 45.622-2.342 4.646-4.553 9.034-6.065 12.799-9 22.424 14.855 52.318 15.098 52.617l1.903 2.353-2.138 2.141-19.551 19.55s-35.63-31.126-71.998 4.416l-1.313 1.371c-29.432-38.418-73.428-5.787-73.428-5.787l-21.689-21.689 1.904-2.355s24.098-30.193 15.096-52.617c-1.511-3.765-3.722-8.153-6.063-12.799C-189.896 32.84-197.912 16.934-198.667 0c-.417-9.356 1.467-18.23 5.601-26.372 4.696-9.251 12.467-17.9 23.097-25.705l.061-.046.064-.042c.66-.441 16.458-10.871 39.721-17.4 21.542-6.046 28.354-12.425 28.421-12.488l2.358-2.267 2.384 2.288-.025-.024c.067.065 6.896 6.443 28.442 12.491 23.263 6.529 39.061 16.959 39.721 17.4l.063.042.062.046c10.629 7.805 18.4 16.454 23.097 25.705C-1.467-18.23.417-9.356 0 0Z" style="display:inline;fill:#989c9d;stroke:#054c94;stroke-width:3.585;stroke-linecap:butt;stroke-linejoin:miter;stroke-miterlimit:4;stroke-dasharray:none;stroke-opacity:1;fill-opacity:1" transform="translate(403.602 398.978)"/><path d="M0 0h-70.925c3.314 27.348-16.392 51.368-16.392 51.368l15.213 16.421S-33.905 38.42-.168 71.941h.113z" style="fill:#054c94;fill-opacity:1;fill-rule:nonzero;stroke:none" transform="translate(304.099 458.762)"/><path d="M0 0h70.924c-3.313 27.348 16.392 51.368 16.392 51.368L72.103 67.789S33.905 38.42.168 71.941H.055Z" style="fill:#054c94;fill-opacity:1;fill-rule:nonzero;stroke:none" transform="translate(303.908 458.762)"/><path d="M0 0c-.177 3.913-2.527 13.191-2.527 13.191l-182.761.07c-2.131-8.393-2.324-8.33-2.547-13.261-.395-8.694 1.387-16.938 5.294-24.505 4.44-8.595 11.788-16.631 21.838-23.883l.058-.044.061-.039c.624-.409 15.561-10.1 37.555-16.167 20.369-5.618 26.808-11.544 26.872-11.602l2.23-2.107 2.253 2.125-.023-.021c.062.059 6.519 5.986 26.891 11.605 21.993 6.067 36.931 15.758 37.556 16.167l.06.039.058.044C-17.082-41.136-9.735-33.1-5.293-24.505-1.387-16.938.396-8.694 0 0" style="fill:#054c94;fill-opacity:1;fill-rule:nonzero;stroke:none" transform="translate(398.299 399.342)"/><path d="M0 0s2.633 8.633 6.863 18.705 6.248 15.076 6.248 15.076h155.97s9.133-20.418 13.68-33.85z" style="fill:#989c9d;fill-opacity:.01;fill-rule:nonzero;stroke:none" transform="translate(213.01 412.603)"/><path d="M0 0v9.816h-16.098S-53.51-58.26 0-80.107v10.449s-19.631 11.716-18.998 31.03H-.95v9.182h-18.048S-18.999-16.465-11.083 0z" style="fill:#fff;fill-opacity:1;fill-rule:nonzero;stroke:none" transform="translate(243.47 432.11)"/><path d="M0 0h11.232v-98.193l6.717 3.15v-9.195s-.029.723-.031-1.194c-4.05-.83-17.924-6.81-17.924-6.81z" style="fill:#fff;fill-opacity:1;fill-rule:nonzero;stroke:none" transform="translate(312.506 442.2)"/><path d="M0 0h11.004l.05-28.714H.037Z" style="fill:#fff;fill-opacity:1;fill-rule:nonzero;stroke:none" transform="translate(312.664 441.449)"/><path d="M0 0h-19.773l.054-103.477s17.7 5.46 20.171 7.133c.214.145-.055 10.081-.055 10.081l-9.351-4.991v44.6H0v8.919h-9.199v26.555H0Z" style="fill:#fff;fill-opacity:1;fill-rule:nonzero;stroke:none" transform="translate(354.705 441.894)"/><path d="M0 0h-19.773v-29.403h10.582l-.008 19.369H0Z" style="fill:#fff;fill-opacity:1;fill-rule:nonzero;stroke:none" transform="translate(354.705 441.894)"/><path d="M0 0v-34.802h11.469V-9.59h11.246V0Z" style="fill:#fff;fill-opacity:1;fill-rule:nonzero;stroke:none" transform="translate(360.377 441.7)"/><path d="M0 0c-.754 16.934-8.771 32.84-15.211 45.622-2.342 4.646-4.553 9.034-6.065 12.799-9 22.424 14.855 52.318 15.098 52.617l1.903 2.353-2.138 2.141-19.551 19.55s-35.63-31.126-71.998 4.416l-1.313 1.371c-29.432-38.418-73.428-5.787-73.428-5.787l-21.689-21.689 1.904-2.355s24.098-30.193 15.096-52.617c-1.511-3.765-3.722-8.153-6.063-12.799C-189.896 32.84-197.912 16.934-198.667 0c-.417-9.356 1.467-18.23 5.601-26.372 4.696-9.251 12.467-17.9 23.097-25.705l.061-.046.064-.042c.66-.441 16.458-10.871 39.721-17.4 21.542-6.046 28.354-12.425 28.421-12.488l2.358-2.267 2.384 2.288-.025-.024c.067.065 6.896 6.443 28.442 12.491 23.263 6.529 39.061 16.959 39.721 17.4l.063.042.062.046c10.629 7.805 18.4 16.454 23.097 25.705C-1.467-18.23.417-9.356 0 0Z" style="display:inline;fill:none;stroke:#054c94;stroke-width:3.585;stroke-linecap:butt;stroke-linejoin:miter;stroke-miterlimit:4;stroke-dasharray:none;stroke-opacity:1" transform="translate(403.602 398.978)"/><g style="display:inline"><path d="M0 0h8.891l9.262-21.082L27.554 0h8.775s-.009-108.223 0-107.963-10.862 3.67-10.862 3.67v73.445l-7.314-20.476-6.857 20.476v-68.826S-.059-94.847-.024-94.147C.011-93.448 0 0 0 0" style="fill:#fff;fill-opacity:1;fill-rule:nonzero;stroke:none" transform="translate(246.572 443.322)"/></g><path d="M0 0h8.891l9.262-25.746L27.554 0h8.775l-.039-29.303L0-29.259Z" style="fill:#fff;fill-opacity:1;fill-rule:nonzero;stroke:none" transform="translate(246.572 441.889)"/><path d="m0 0-18.939.119-.208-108.438s3.319-.168 19.918-10.188l-.056 12.1s-5.439 3.119-8.476 4.915v54.812H.052v8.977h-7.961v28.931H0Z" style="fill:#fff;fill-opacity:1;fill-rule:nonzero;stroke:none" transform="translate(306.642 441.907)"/><path d="M0 0h11.073" style="fill:#fff;fill-opacity:1;fill-rule:nonzero;stroke:none" transform="translate(287.648 412.705)"/><path d="M0 0h9.14S5.743-28.395-24.368-38.783V24.72h11.483l.055-46.439S-1.465-15.584 0 0" style="fill:#fff;fill-opacity:1;fill-rule:nonzero;stroke:none" transform="translate(384.735 387.884)"/><path d="M0 0h160.595" style="fill:none;stroke:#054c94;stroke-width:5.73600006;stroke-linecap:butt;stroke-linejoin:miter;stroke-miterlimit:4;stroke-dasharray:none;stroke-opacity:1" transform="translate(223.8 451.955)"/><path d="m0 0 1.886-5.262 5.334-.263-4.168-3.517 1.411-5.424L0-11.378l-4.461-3.091 1.41 5.427-4.17 3.517 5.335.263z" style="fill:#fff;fill-opacity:1;fill-rule:nonzero;stroke:none" transform="translate(230.987 513.852)"/><path d="m0 0 1.886-5.262 5.333-.263-4.168-3.517 1.411-5.424L0-11.378l-4.464-3.091 1.412 5.427-4.168 3.517 5.335.263z" style="fill:#fff;fill-opacity:1;fill-rule:nonzero;stroke:none" transform="translate(249.303 513.852)"/><path d="m0 0 1.887-5.262 5.334-.263-4.169-3.517 1.411-5.424L0-11.378l-4.463-3.091 1.413 5.427-4.169 3.517 5.334.263z" style="fill:#fff;fill-opacity:1;fill-rule:nonzero;stroke:none" transform="translate(267.616 513.852)"/><path d="m0 0 1.884-5.262 5.335-.263-4.168-3.517 1.409-5.424L0-11.378l-4.464-3.091 1.412 5.427-4.17 3.517 5.335.263z" style="fill:#fff;fill-opacity:1;fill-rule:nonzero;stroke:none" transform="translate(285.934 513.852)"/><path d="m0 0 1.886-5.262 5.333-.263L3.05-9.042l1.412-5.424L0-11.378l-4.462-3.091 1.41 5.427-4.17 3.517 5.335.263z" style="fill:#fff;fill-opacity:1;fill-rule:nonzero;stroke:none" transform="translate(304.249 513.852)"/><path d="m0 0 1.888-5.262 5.335-.263-4.169-3.517 1.41-5.424L0-11.378l-4.462-3.091 1.412 5.427-4.168 3.517 5.333.263z" style="fill:#fff;fill-opacity:1;fill-rule:nonzero;stroke:none" transform="translate(322.56 513.852)"/><path d="m0 0 1.885-5.262 5.334-.263-4.167-3.517 1.41-5.424L0-11.378l-4.463-3.091 1.411 5.427-4.169 3.517 5.335.263z" style="fill:#fff;fill-opacity:1;fill-rule:nonzero;stroke:none" transform="translate(340.879 513.852)"/><path d="m0 0 1.886-5.262 5.334-.263-4.169-3.517 1.412-5.424L0-11.378l-4.461-3.091 1.409 5.427-4.169 3.517 5.334.263z" style="fill:#fff;fill-opacity:1;fill-rule:nonzero;stroke:none" transform="translate(359.193 513.852)"/><path d="m0 0 1.886-5.262 5.334-.263-4.169-3.517 1.412-5.424L0-11.378l-4.461-3.091 1.41 5.427-4.171 3.517 5.336.263z" style="fill:#fff;fill-opacity:1;fill-rule:nonzero;stroke:none" transform="translate(377.509 513.852)"/><path d="m0 0 1.887-5.262 5.334-.263-4.169-3.517 1.411-5.424L0-11.378l-4.463-3.091 1.413 5.427-4.169 3.517 5.334.263z" style="fill:#fff;fill-opacity:1;fill-rule:nonzero;stroke:none" transform="translate(249.771 477.373)"/><path d="m0 0 1.884-5.262 5.335-.263-4.168-3.517 1.409-5.424L0-11.378l-4.463-3.091 1.411 5.427-4.17 3.517 5.336.263z" style="fill:#fff;fill-opacity:1;fill-rule:nonzero;stroke:none" transform="translate(267.875 477.373)"/><path d="m0 0 1.886-5.262 5.333-.263-4.168-3.517 1.411-5.424L0-11.378l-4.462-3.091 1.41 5.427-4.169 3.517 5.335.263z" style="fill:#fff;fill-opacity:1;fill-rule:nonzero;stroke:none" transform="translate(285.977 477.373)"/><path d="m0 0 1.887-5.262 5.334-.263-4.168-3.517 1.409-5.424L0-11.378l-4.463-3.091 1.413 5.427-4.169 3.517 5.333.263z" style="fill:#fff;fill-opacity:1;fill-rule:nonzero;stroke:none" transform="translate(304.076 477.373)"/><path d="m0 0 1.884-5.262 5.335-.263-4.167-3.517 1.409-5.424L0-11.378l-4.464-3.091 1.412 5.427-4.17 3.517 5.336.263z" style="fill:#fff;fill-opacity:1;fill-rule:nonzero;stroke:none" transform="translate(322.18 477.373)"/><path d="m0 0 1.885-5.262 5.334-.263-4.168-3.517 1.411-5.424L0-11.378l-4.462-3.091 1.41 5.427-4.169 3.517 5.334.263z" style="fill:#fff;fill-opacity:1;fill-rule:nonzero;stroke:none" transform="translate(340.282 477.373)"/><path d="m0 0 1.886-5.262 5.334-.263-4.168-3.517 1.411-5.424L0-11.378l-4.462-3.091 1.41 5.427-4.169 3.517 5.335.263z" style="fill:#fff;fill-opacity:1;fill-rule:nonzero;stroke:none" transform="translate(358.384 477.373)"/><path d="m0 0 1.887-5.262 5.334-.263-4.169-3.517 1.411-5.424L0-11.379l-4.463-3.09 1.413 5.427-4.169 3.517 5.334.263z" style="fill:#fff;fill-opacity:1;fill-rule:nonzero;stroke:none" transform="translate(240.627 495.613)"/><path d="m0 0 1.884-5.262 5.335-.263-4.168-3.517 1.409-5.424L0-11.379l-4.464-3.09 1.412 5.427-4.17 3.517 5.336.263z" style="fill:#fff;fill-opacity:1;fill-rule:nonzero;stroke:none" transform="translate(258.731 495.613)"/><path d="m0 0 1.885-5.262 5.334-.263L3.05-9.042l1.411-5.424L0-11.379l-4.462-3.09 1.41 5.427-4.17 3.517 5.336.263z" style="fill:#fff;fill-opacity:1;fill-rule:nonzero;stroke:none" transform="translate(276.833 495.613)"/><path d="m0 0 1.887-5.262 5.335-.263-4.169-3.517 1.41-5.424L0-11.379l-4.462-3.09 1.412 5.427-4.169 3.517 5.334.263z" style="fill:#fff;fill-opacity:1;fill-rule:nonzero;stroke:none" transform="translate(294.932 495.613)"/><path d="m0 0 1.885-5.262 5.334-.263-4.166-3.517 1.408-5.424L0-11.379l-4.463-3.09 1.412 5.427-4.17 3.517 5.335.263z" style="fill:#fff;fill-opacity:1;fill-rule:nonzero;stroke:none" transform="translate(313.036 495.613)"/><path d="m0 0 1.886-5.262 5.334-.263-4.169-3.517 1.412-5.424L0-11.379l-4.462-3.09 1.41 5.427-4.169 3.517 5.334.263z" style="fill:#fff;fill-opacity:1;fill-rule:nonzero;stroke:none" transform="translate(331.138 495.613)"/><path d="m0 0 1.885-5.262 5.334-.263-4.168-3.517 1.411-5.424L0-11.379l-4.463-3.09 1.41 5.427-4.169 3.517 5.335.263z" style="fill:#fff;fill-opacity:1;fill-rule:nonzero;stroke:none" transform="translate(349.24 495.613)"/><path d="m0 0 1.886-5.262 5.334-.263-4.169-3.517 1.411-5.424L0-11.379l-4.462-3.09 1.41 5.427-4.17 3.517 5.335.263z" style="fill:#fff;fill-opacity:1;fill-rule:nonzero;stroke:none" transform="translate(367.342 495.613)"/></g></svg>