<svg xmlns="http://www.w3.org/2000/svg" viewBox="18.16 66.24 991.25 893.98"><!-- Source: https://football-logos.cc --><path fill="#47ba40" fill-rule="evenodd" d="M787.15 86.99c7.62 1.39 16.72 2.66 24.54 4.83 15.29 4.25 26.05 11.64 33.87 25.63q8.63 15.43 15.04 28.44c20.54 41.68 37.91 81.3 55.19 122.52q1.75 4.17 2.87 6.79 5.25 12.35 16.98 42.17c12.47 31.73 24.49 64.48 35.08 97.68q21.34 66.89 32.73 130.26 4.73 26.33 5.87 52.69.39 8.88-.89 16.71c-1.46 9.01-5.85 15.55-12.68 24.3q-6.39 8.19-15.08 17.42c-22.13 23.53-47.06 45.52-70.89 64.6-11.21 8.99-18.94 15.4-30.01 23.95q-44.37 34.3-89.41 65.36-38.23 26.38-63.42 42.57c-33.86 21.76-67.2 42.36-102.39 61.89-29.82 16.56-56.55 30.01-86.83 41.27-7.65 2.85-16.29 5.11-24.48 3.72q-5.2-.89-12.37-3.17c-20.76-6.6-38.95-14.81-60.35-25.44q-28.16-13.98-62.79-33.85-66.9-38.38-148.18-93.75-57.26-39.01-107.98-79.09c-25.49-20.14-50.98-41.6-72.99-63.94q-11.87-12.04-21.04-24.59c-6.6-9.03-9.29-16.48-9.37-27.45-.1-11.64.99-24.62 2.22-34.73q4.22-34.56 12.98-75.21 7.43-34.46 15.05-62.94 30.29-113.25 75.38-219.98c10.71-25.33 22.35-50.08 35.19-75.43q10.21-20.16 19.5-35.23 1.87-3.04 6.82-9.45c8.06-10.44 17.57-16.6 31.19-18.51q16.04-2.25 34.51-3.49 7.11-.47 29.74-2.3 10.27-.83 33.51-2.12c4.34-.24 8.88-.03 13.32-.49q1.68-.18 5.31-.3c89.56-3.05 179.14-2.85 268.15 1.13 16.42.74 27.95 1.57 47.83 2.75q35.94 2.13 88.93 7.95 29.89 3.28 49.35 6.83M442.78 587.62l5.06 4.93a.53.523-45.377 0 1 0 .75l-2.13 2.14a.884.877 35.253 0 0 .25 1.42l7.6 3.54a2.646 2.644-77.215 0 1 1.53 2.43l-.07 6.47a3.016 2.724-56.131 0 0 .12.83q.43 1.62 2.19 3.05 8.11 6.55 18.47 15.76-27.63 11.67-47.74 21.89-9.04 4.59-28.97 15.81c-7.79 4.39-13.08 8.28-21.47 13.57q-7.4 4.68-15.77 10.64-16.68 11.9-33.62 25.63c-4.09 3.32-9.18 8.67-13.6 12.39q-9.36 7.87-19.93 18.47a.457.457-49.985 0 0 .06.69c3.15 2.28 6.5 4.5 10.23 7.42q8.3 6.48 16.91 11.95 2.86 1.81 6.14 3.99 17 11.29 33.27 22.32 8.72 5.91 17.77 11.46 16.77 10.28 18.01 11.07 25.85 16.43 52.71 31.36c9.28 5.16 19.4 10.17 30.89 16.21q8.32 4.38 34.8 15.52 5.21 2.2 14.17 5.08 10.79 3.48 21.89 1.41 8.49-1.6 21.04-6.71 25.41-10.37 44.61-21.16c4.12-2.31 8.75-4.25 12.96-6.75 10.23-6.08 23.82-13.21 35.73-20.83q3.17-2.03 13.32-8.19c9.74-5.91 24.83-15.59 37.11-23.89q3.8-2.57 12.08-7.92 13.98-9.03 33.39-23.1c7.06-5.12 14.37-9.87 22.09-15.84 5.59-4.32 12.29-8.56 17.97-13.28q6.55-5.46 13.16-10.37 15.23-11.33 23.59-18.18 29.55-24.21 43.9-36.86c1.19-1.05 3.59-3.65 4.94-4.72q9.48-7.48 15-12.99c6.14-6.15 11.61-10.53 18.16-17.17 3.94-3.99 8.79-8.1 12.27-11.74q12.32-12.85 24.65-26.85c7.48-8.5 14.79-19.09 15.16-30.99q.35-11.69-1.39-26.3c-2.67-22.41-7.3-44.71-12.97-70.26q-1.7-7.66-3.05-12.25c-3.07-10.42-5.1-20.28-8.28-30.49-1.56-4.99-5.16-18.82-8.61-29.02-2.53-7.47-4.47-15.24-6.78-22.34q-4.26-13.09-6.69-20.1-3.63-10.47-5.26-15.54-2.59-8.04-5.26-15.51-16.82-46.95-17.35-48.48c-3.03-8.85-7.3-18.33-10.22-26.99-5.1-15.08-13.53-34.04-19.13-48.73q-4.7-12.31-9.55-23.3c-1.78-4.02-3.1-7.95-5-12.35q-10.75-24.93-22.64-48.14-2.54-4.96-6.27-9.71-2.89-3.67-7.48-4.55c-15.17-2.91-25.96-4.46-46.48-7.47q-11.95-1.75-25.09-3.1-43.62-4.48-85.83-6.47c-2.77-.13-6.1-.57-9.33-.76q-25.64-1.5-61.61-2.75c-16.8-.58-31.12-.5-46.65-1.06q-13.29-.48-35.02-.37-25.89.13-37.99.21-51.56.35-101.25 2.74-14.09.68-19.23 1.07-14.48 1.11-19.2 1.35-27.34 1.38-53.58 4.87-8.75 1.17-16.18 5.1c-8.28 4.39-16.45 10.01-21.83 18.14q-7.18 10.84-14.57 25.16-11.7 22.7-20.38 42.92-3.07 7.15-3.82 9.05-2.6 6.66-3.79 9.07c-2.97 5.99-3.97 9.11-6.86 15.74-2 4.58-3.26 9.11-5.12 13.29-2.98 6.7-4.76 12.3-7.64 19.35q-1.06 2.62-3.39 9.55-1.46 4.33-7.71 21.58-8.2 22.63-23.26 71.41c-4.58 14.85-8.1 28.49-12.35 43.55-5.38 19.05-9.94 39.8-15.01 61.63q-6.32 27.23-12.86 72.23-1.8 12.45-3.05 28.75c-.96 12.45.47 22.2 8.14 32.1q4.62 5.97 6.46 7.78 21.8 21.41 34.98 33.13 24.91 22.14 61.31 51.47 8.18 6.6 15.04 11.64c10.47 7.7 17.33 13.93 27.16 21.12q5 3.66 12.64 9.53c2.13 1.63 4.86 3.24 7.58 5.07a.718.714-51.03 0 0 .92-.1q6.37-6.66 12.08-13.91c6.54-8.31 14.08-16.55 20.44-23.16q12.11-12.61 33.56-32.18 19.06-17.4 49.48-39.15c7.67-5.48 14.81-9.69 22.98-15.32q5.86-4.05 16.04-9.9 8.15-4.69 16.3-9.5" data-source="https://football-logos.cc"></path><path fill="#077e29" fill-rule="evenodd" d="M475.8 628.94q9.7 7.72 19.39 15.61 3.47 2.83 5.3 3.01 3.7.38 7.38-.41a.43.423 5.273 0 1 .49.58q-2 4.58-4.51 11.78-3.8 10.89-2.57 22.49.86 8.17 2.27 12.96 3.82 13.03 10.33 33.42 1.21 3.79 1.36 5.37c.93 10.02 1.12 24.04.12 37.59q-.31 4.12-.95 16.41a1.02 1.02 72.191 0 1-.39.76l-1.87 1.46a2.226 2.178-4.57 0 0-.54.62q-5.5 9.75-5.95 21.67c-.23 6.07 2.33 12.57 9.54 12.56 2.72 0 5.65.46 9.05.19q13.57-1.07 17-1.1 8.21-.08 19.51 1.86 20.44 3.52 30.45 5.28 6.37 1.12 25.03 1.84a3.879 3.7-49.929 0 0 1.09-.12q4.05-1.05 4.84-2 3.23-3.89 3.2-8.91a2.945 2.732-57.598 0 0-.19-1.03q-1.18-3.15-2.39-4.13c-3.07-2.49-7.68-4.92-11.81-6.7q-20.42-8.86-36.17-18c-4.73-2.74-8.66-7.39-12.15-10.6q-1.72-1.57-5.2-1.16a.648.643-4.908 0 1-.73-.61c-1.01-18.26-.43-31.81 1.09-50.38q3.03-37 7.43-72.44c1.24-10.04 3.69-19.86 2.99-29.81q-.53-7.7-2.01-22.85l17.01-4.3 30.48 3.61a.952.939-8.726 0 1 .76.55c6.11 13.53 15.97 25.08 28.6 33.22 10.09 6.5 20.23 11.91 28.23 15.75q10.33 4.95 36.3 18.21 6.59 3.36 16.2 10.67a1.854 1.853-75.304 0 1 .73 1.25q.55 3.98 2.28 7.85c2.33 5.2 5.07 10.39 8.62 14.85 3.37 4.24 9.61 4.47 14.36 2.73q13.8-5.05 14.27-5.2c11.72-3.8 21.28-5.16 37.18-6.94 6.17-.69 10.31-1.39 16.8-2.38q11.62-1.79 23.4-8.05c4.73-2.52 8.68-5.73 7.86-11.49a2.356 2.273-71.121 0 0-.59-1.26c-3.7-4.02-12.56-5.71-18.21-6.76-16.77-3.12-38.37-4.89-50.83-7.15q-5.53-1.01-8.85-2.63c-2.66-1.3-4.24-4.37-6.47-5.95-2.92-2.08-4.37-2.75-7.63-1.75q-3.25 1-6.77 3.31a1.928 1.919 45.908 0 1-2.18-.04c-3.98-2.85-8.37-5.57-12.25-8.52q-11.09-8.44-34.16-28.36-10.15-8.77-17.99-18.38 12.77 1.12 24.5 2.34 15.24 1.59 31.37 4.15 2.08.33 3.15 1.62 7.81 9.5 10.12 11.64 22.59 20.95 53.27 19.32 6.33-.34 14.27-2.47 9.04-2.43 13.73-4.58 10.46-4.79 21.85-15.82 2.85-2.76 6.15-7.87 4.69-7.23 5.27-8.53 7.27-16.33 6.51-32.06-.68-14.11-4.87-25.24c-4.08-10.86-11.51-20.61-21.12-27.8q-5.76-4.32-12.83-8.35-7.19-4.11-14.08-5.74c-16.34-3.89-34.57-2.09-49.55 4.56q-7.34 3.27-12.62 7.63a4.29 4.28-61.39 0 1-3.25.96q-4.82-.57-10.75-.7-30.72-.66-60.44 1.73-17.02 1.36-39.01 5.06-19.41 3.26-31.63 5.91l-37.29-31.05.16-1q.31.26.63.37a.409.316-33.875 0 0 .15.01q13.85-1.65 27.84-.97a.434.431-14.596 0 0 .39-.66c-1.41-2.27-2.74-4.16-3.76-7.03q-4.59-12.93-5.38-26.67-.9-15.62-.07-31.75.95-18.38 6.43-53.8 1.15-.3 1.43-.79 2.81-4.95 6.88-8.49a.822.816 37.972 0 1 .92-.11q1.83.94 3.36 2.23c4.15 3.48 11.06 9.35 16.13 14.41q7.37 7.37 13.88 13.43c2.8 2.61 5.37 6.2 7.29 9.24q1.38 2.2 5.17 7.33 5.83 7.92 12.07 18.14 6.23 10.19 8.55 13.69c6.41 9.66 16.15 13.39 26.26 17.69 3.27 1.38 6.65 3.87 9.84 5.08a1.946 1.922 48.726 0 0 1.12.08c5.47-1.29 3.3-7.97.75-10.83q-2.68-2.99-5.82-5.86a.129.128-48.59 0 1-.01-.17l.01-.01a.1.1 70.992 0 1 .14-.02c3.07 2.1 18.04 12.39 19.61 3.64a2.999 2.969-44.714 0 0 .01-1q-.45-2.93-4.55-6.2-8.12-6.47-14.95-11.54-1.23-.92-2.65-2.54a.272.271 83.163 0 1 .33-.42l12.01 6.06c3.02 1.52 11.01 4.41 10.96-1.48q-.03-2.66-1.66-3.69-12.13-7.65-20.92-13.47a.385.384 69.959 0 1 .32-.69c3.41 1.01 13.57 3.53 15.98.97 2.86-3.05.44-5.86-2.56-7.02q-15.65-6.08-33.08-14.98-2.57-1.32-3.37-2.35-13.46-17.42-24.92-33.76-6.81-9.72-12.17-16.85-4.43-5.9-12.49-16.83-8.63-11.69-22.86-18.63-8.66-4.22-16.34-7.38-1.32-.55-3.84-2.38-1.2-1.64-3.23-3.33-5.24-4.36-11.46-7.58-3.08-3.57-6.98-5.02-1.46-1.22-3.75-2.05a2.944 2.892-18.937 0 1-.46-.22q-4.4-2.52-8.41-5.02-.73-.46-1.4-.02-.06.04-.02.5-.09-1.35-2.12-2.29-2.92-1.36-4.44-.03-.77-2.67-3.46-3.73-6.48-2.55-13.1-3.5l-7.87-2.51a.883.872-80.595 0 1-.6-.85l.64-22.69a.709.701 87.656 0 1 .62-.68c6.29-.69 13.89-2.29 18.09-6.5 5.23-5.26 7.6-15.37 8.04-22.43q1.48-24.19 1.8-28 .6-7.04-.15-14.4a.368.36-84.677 0 1 .46-.39q11.08 3.21 17.23-6.06a.305.304 14.258 0 0-.28-.47c-5.53.48-9.87-2.46-11.76-7.62-1.84-5.01-2.85-7.75-7.23-12.07q-7.26-7.15-16.44-11.73a.535.53-59.656 0 1-.2-.78c3.97-5.61 4.91-13.55-.92-18.42a.354.352-70.633 0 0-.58.28q.1 4.44-3.01 7.08c-4.91 4.16-14.09 1.93-19.88.53-10-2.42-18.24-1.93-28 2.15q-11.57 4.83-19.73 11.85a5.145 5.108 22.63 0 1-3.02 1.23l-8.58.58a.444.443-24.869 0 0-.28.76c1.77 1.73 3.54 3.19 2.82 6.47q-.49 2.28-2.05 6.94a1.126 1.105-88.262 0 1-.74.71c-6.44 1.88-8.31 7.27-9.63 13.26q-1.04 4.73-1.35 7.72-1.53 14.48 6.94 26.26a2.088 2.086 29.027 0 1 .39 1.36c-.72 9.18-.69 16.04 4.68 22.82q7.54 9.52 17.91 12.82a.993.986 10.058 0 1 .69.98l-.5 18.03a1.106 1.101-4.485 0 1-.91 1.06l-7.85 1.4q-11.38.34-24.52 2.96-1.26.25-1.14 1.33-3.7-.14-6.39 1.7-1.01-.47-2.46-.1-4.64 1.18-12.36 3.95-3.51.19-5.29 2.17-14.61 5.26-28.73 14.53a3.399 3.387-17.037 0 0-1.53 2.87q.04 7.73 1.77 15.33-26.1 14.01-52.05 27.58-4.76 2.48-12.36 6.28-4.26 2.12-21.83 11.9c-6.41 3.57-14.09 8.66-19.28 12.09a3.814 3.794 27.03 0 1-1.96.63q-13.32.6-24.54 2.69c-6.52 1.22-10.11 4.54-14.93 9.29q-3.18 3.12-3.48 5.46c-.3 2.31.38 6.21 2.29 8.01q.78.74.93 1.04a.898.897-36.034 0 1-.16 1.01q-4.55 4.8-6.53 9.89a3.369 3.31 57.021 0 0-.22 1.08q-.12 3.26.3 3.91 1.04 1.59 1.37 3.04c.74 3.26 3.68 4.4 6.55 2.7q4.06-2.43 7.26-4.27 1.61-.94 2.7-.03 1.48 1.24 1.53 1.26c6.64 2.48 14.33.92 20.56-2.13 4.89-2.39 10.14-7.49 14.23-12.76q2.41-3.11 3.71-3.76 7.88-3.88 55.35-23.72 6.17-2.57 13.31-6.17a.618.609-32.693 0 1 .76.16q5.52 6.84 17.39 17.68 4.68 4.27 10.58 3.1-4.45 9.14-9.99 17.22-5.41 7.91-5.91 8.67c-11.61 17.67-23.06 36.73-33.52 53.09-5.51 8.61-10.6 18.36-14.97 25.29a.643.642 5.372 0 0 .78.94q6.81-2.68 11.83-3.91 17.28-4.22 27.77-5.32c10.68-1.13 22.76-.2 29.25 8.98q.87 1.22 2.42 3.2a2.649 2.643 40.616 0 1 .23 2.95c-11.27 20.06-20.5 41.42-26.06 63.9-2.07 8.38-3.26 17.08-3.46 24.2q-.2 7.14 1.8 16.29a.827.826-25.887 0 0 1.33.46q6.13-5.05 16.2-13.05 4.54-3.6 13.43-9.78 6.64-4.63 13.54-9.67 2.48-1.81 11.84-7.25c1.53 8.95 4.06 17.68 9.43 24.95q5.76 7.82 12.74 14.66-8.15 4.81-16.3 9.5-10.18 5.85-16.04 9.9c-8.17 5.63-15.31 9.84-22.98 15.32q-30.42 21.75-49.48 39.15-21.45 19.57-33.56 32.18c-6.36 6.61-13.9 14.85-20.44 23.16q-5.71 7.25-12.08 13.91a.718.714-51.03 0 1-.92.1c-2.72-1.83-5.45-3.44-7.58-5.07q-7.64-5.87-12.64-9.53c-9.83-7.19-16.69-13.42-27.16-21.12q-6.86-5.04-15.04-11.64-36.4-29.33-61.31-51.47-13.18-11.72-34.98-33.13-1.84-1.81-6.46-7.78c-7.67-9.9-9.1-19.65-8.14-32.1q1.25-16.3 3.05-28.75 6.54-45 12.86-72.23c5.07-21.83 9.63-42.58 15.01-61.63 4.25-15.06 7.77-28.7 12.35-43.55q15.06-48.78 23.26-71.41 6.25-17.25 7.71-21.58 2.33-6.93 3.39-9.55c2.88-7.05 4.66-12.65 7.64-19.35 1.86-4.18 3.12-8.71 5.12-13.29 2.89-6.63 3.89-9.75 6.86-15.74q1.19-2.41 3.79-9.07.75-1.9 3.82-9.05 8.68-20.22 20.38-42.92 7.39-14.32 14.57-25.16c5.38-8.13 13.55-13.75 21.83-18.14q7.43-3.93 16.18-5.1 26.24-3.49 53.58-4.87 4.72-.24 19.2-1.35 5.14-.39 19.23-1.07 49.69-2.39 101.25-2.74 12.1-.08 37.99-.21 21.73-.11 35.02.37c15.53.56 29.85.48 46.65 1.06q35.97 1.25 61.61 2.75c3.23.19 6.56.63 9.33.76q42.21 1.99 85.83 6.47 13.14 1.35 25.09 3.1c20.52 3.01 31.31 4.56 46.48 7.47q4.59.88 7.48 4.55 3.73 4.75 6.27 9.71 11.89 23.21 22.64 48.14c1.9 4.4 3.22 8.33 5 12.35q4.85 10.99 9.55 23.3c5.6 14.69 14.03 33.65 19.13 48.73 2.92 8.66 7.19 18.14 10.22 26.99q.53 1.53 17.35 48.48 2.67 7.47 5.26 15.51 1.63 5.07 5.26 15.54 2.43 7.01 6.69 20.1c2.31 7.1 4.25 14.87 6.78 22.34 3.45 10.2 7.05 24.03 8.61 29.02 3.18 10.21 5.21 20.07 8.28 30.49q1.35 4.59 3.05 12.25c5.67 25.55 10.3 47.85 12.97 70.26q1.74 14.61 1.39 26.3c-.37 11.9-7.68 22.49-15.16 30.99q-12.33 14-24.65 26.85c-3.48 3.64-8.33 7.75-12.27 11.74-6.55 6.64-12.02 11.02-18.16 17.17q-5.52 5.51-15 12.99c-1.35 1.07-3.75 3.67-4.94 4.72q-14.35 12.65-43.9 36.86-8.36 6.85-23.59 18.18-6.61 4.91-13.16 10.37c-5.68 4.72-12.38 8.96-17.97 13.28-7.72 5.97-15.03 10.72-22.09 15.84q-19.41 14.07-33.39 23.1-8.28 5.35-12.08 7.92c-12.28 8.3-27.37 17.98-37.11 23.89q-10.15 6.16-13.32 8.19c-11.91 7.62-25.5 14.75-35.73 20.83-4.21 2.5-8.84 4.44-12.96 6.75q-19.2 10.79-44.61 21.16-12.55 5.11-21.04 6.71-11.1 2.07-21.89-1.41-8.96-2.88-14.17-5.08-26.48-11.14-34.8-15.52c-11.49-6.04-21.61-11.05-30.89-16.21q-26.86-14.93-52.71-31.36-1.24-.79-18.01-11.07-9.05-5.55-17.77-11.46-16.27-11.03-33.27-22.32-3.28-2.18-6.14-3.99-8.61-5.47-16.91-11.95c-3.73-2.92-7.08-5.14-10.23-7.42a.457.457-49.985 0 1-.06-.69q10.57-10.6 19.93-18.47c4.42-3.72 9.51-9.07 13.6-12.39q16.94-13.73 33.62-25.63 8.37-5.96 15.77-10.64c8.39-5.29 13.68-9.18 21.47-13.57q19.93-11.22 28.97-15.81 20.11-10.22 47.74-21.89"></path><path fill="#fefefe" fill-rule="evenodd" d="M534.52 262.41q.7 1.26.09 2.17-10 15-15.33 27.47-.58 1.35-1.28 2.46a.4.395-55.572 0 1-.57.11q-14.61-10.78-24-17.83-6.61-4.95-20.87-17.92c-2.6-2.36-6.25-5.02-9.29-7.77l7.85-1.4a1.106 1.101-4.485 0 0 .91-1.06l.5-18.03a.993.986 10.058 0 0-.69-.98q-10.37-3.3-17.91-12.82c-5.37-6.78-5.4-13.64-4.68-22.82a2.088 2.086 29.027 0 0-.39-1.36q-8.47-11.78-6.94-26.26.31-2.99 1.35-7.72c1.32-5.99 3.19-11.38 9.63-13.26a1.126 1.105-88.262 0 0 .74-.71q1.56-4.66 2.05-6.94c.72-3.28-1.05-4.74-2.82-6.47a.444.443-24.869 0 1 .28-.76l8.58-.58a5.145 5.108 22.63 0 0 3.02-1.23q8.16-7.02 19.73-11.85c9.76-4.08 18-4.57 28-2.15 5.79 1.4 14.97 3.63 19.88-.53q3.11-2.64 3.01-7.08a.354.352-70.633 0 1 .58-.28c5.83 4.87 4.89 12.81.92 18.42a.535.53-59.656 0 0 .2.78q9.18 4.58 16.44 11.73c4.38 4.32 5.39 7.06 7.23 12.07 1.89 5.16 6.23 8.1 11.76 7.62a.305.304 14.258 0 1 .28.47q-6.15 9.27-17.23 6.06a.368.36-84.677 0 0-.46.39q.75 7.36.15 14.4-.32 3.81-1.8 28c-.44 7.06-2.81 17.17-8.04 22.43-4.2 4.21-11.8 5.81-18.09 6.5a.709.701 87.656 0 0-.62.68l-.64 22.69a.883.872-80.595 0 0 .6.85z"></path><path fill="#e91f18" fill-rule="evenodd" d="M463.27 251.1c3.04 2.75 6.69 5.41 9.29 7.77q14.26 12.97 20.87 17.92 9.39 7.05 24 17.83a.4.395-55.572 0 0 .57-.11q.7-1.11 1.28-2.46 5.33-12.47 15.33-27.47.61-.91-.09-2.17 6.62.95 13.1 3.5 2.69 1.06 3.46 3.73 7.01 15.26 9.2 24.36 2.09 8.7 3.6 23.88.64 6.42.57 12.75-.1 9.85-.33 12.8-.45 5.92-2.09 18.29c-1.63 12.28-5.08 25.25-7.47 36.8q-2.65 12.84-5.7 35.12c-.88 6.42-.83 12.48-1.26 18.63-.54 7.7.36 14.56 1.13 23.49.48 5.62 2.31 12.39 3.65 18.48q-30.69 5.7-58.1 16.28-12.3 4.74-29.54 12.47-1.48-8.45-1.13-17.74.85-22.26 6.93-42.72c3.05-10.25 5.82-19.46 9.49-30.56 7.34-22.21 12.33-46.68 12.19-69.83-.05-7.89-1.07-17.39-2.03-23.88q-2.03-13.75-8.21-28.99-12.85-31.72-40.48-51.53-.9-.65-3.89-2.35-.12-1.08 1.14-1.33 13.14-2.62 24.52-2.96"></path><path fill="#0242b5" fill-rule="evenodd" d="M437.61 255.39q2.99 1.7 3.89 2.35 27.63 19.81 40.48 51.53 6.18 15.24 8.21 28.99c.96 6.49 1.98 15.99 2.03 23.88.14 23.15-4.85 47.62-12.19 69.83-3.67 11.1-6.44 20.31-9.49 30.56q-6.08 20.46-6.93 42.72-.35 9.29 1.13 17.74l-4.82 2.11q-2.84-15.38-1.16-30.11 2.07-18.17 7.57-37.01.03-.09 9.8-32.25 1.09-3.6 2.63-8.65c2.33-7.7 3.55-16.12 5.11-23.3 1.45-6.68 2.05-14.07 2.76-21.05 1.14-10.97.05-25.45-2.71-37.82q-2.44-10.93-2.73-11.85-2.12-6.88-6.83-17.7c-3.33-7.68-8.97-16.9-13.84-22.63q-11.6-13.67-26.61-23.39-1.21-.78-2.69-2.25 2.69-1.84 6.39-1.7"></path><path fill="#e91f18" fill-rule="evenodd" d="M431.22 257.09q1.48 1.47 2.69 2.25 15.01 9.72 26.61 23.39c4.87 5.73 10.51 14.95 13.84 22.63q4.71 10.82 6.83 17.7.29.92 2.73 11.85c2.76 12.37 3.85 26.85 2.71 37.82-.71 6.98-1.31 14.37-2.76 21.05-1.56 7.18-2.78 15.6-5.11 23.3q-1.54 5.05-2.63 8.65-9.77 32.16-9.8 32.25-5.5 18.84-7.57 37.01-1.68 14.73 1.16 30.11l-23.81 12.68q-1.04-3.72-1.69-10.91c-1.19-13.3-.7-24.02 2-36.25q2.15-9.76 2.89-12.3c2.26-7.71 5.85-19.27 9.81-29.51q7.52-19.48 11.45-31.46c5.15-15.72 9.28-33.32 9.7-50.44q.34-14.19-.97-22.43-3.02-18.91-7.33-30.01-12.56-32.3-41.86-51.56-.84-.55-3.71-1.97 7.72-2.77 12.36-3.95 1.45-.37 2.46.1"></path><path fill="#0242b5" fill-rule="evenodd" d="M416.4 260.94q2.87 1.42 3.71 1.97 29.3 19.26 41.86 51.56 4.31 11.1 7.33 30.01 1.31 8.24.97 22.43c-.42 17.12-4.55 34.72-9.7 50.44q-3.93 11.98-11.45 31.46c-3.96 10.24-7.55 21.8-9.81 29.51q-.74 2.54-2.89 12.3c-2.7 12.23-3.19 22.95-2 36.25q.65 7.19 1.69 10.91l-4.14 2.5q-5.48-18.52-2.92-37.5 2.02-14.92 5.88-28.19 5.39-18.5 15.19-43.69 4.51-11.58 6.55-18.61 3.32-11.42 4.97-19.11c3.91-18.32 4.86-38.78 1.04-56.47q-2.96-13.7-7.94-25.96-.57-1.39-3.38-6.62c-4.96-9.25-11.48-17.76-19.19-25.05q-6.24-5.89-21.06-15.97 1.78-1.98 5.29-2.17"></path><path fill="#e91f18" fill-rule="evenodd" d="M411.11 263.11q14.82 10.08 21.06 15.97c7.71 7.29 14.23 15.8 19.19 25.05q2.81 5.23 3.38 6.62 4.98 12.26 7.94 25.96c3.82 17.69 2.87 38.15-1.04 56.47q-1.65 7.69-4.97 19.11-2.04 7.03-6.55 18.61-9.8 25.19-15.19 43.69-3.86 13.27-5.88 28.19-2.56 18.98 2.92 37.5-6.25 3.35-11.36 7.73-9.36 5.44-11.84 7.25-6.9 5.04-13.54 9.67-8.89 6.18-13.43 9.78-10.07 8-16.2 13.05a.827.826-25.887 0 1-1.33-.46q-2-9.15-1.8-16.29c.2-7.12 1.39-15.82 3.46-24.2 5.56-22.48 14.79-43.84 26.06-63.9a2.649 2.643 40.616 0 0-.23-2.95q-1.55-1.98-2.42-3.2c-6.49-9.18-18.57-10.11-29.25-8.98q-10.49 1.1-27.77 5.32-5.02 1.23-11.83 3.91a.643.642 5.372 0 1-.78-.94c4.37-6.93 9.46-16.68 14.97-25.29 10.46-16.36 21.91-35.42 33.52-53.09q.5-.76 5.91-8.67 5.54-8.08 9.99-17.22l30.48-17.78a.309.307 70.381 0 1 .46.22q3.8 22.63 2.38 42.75-1.33 18.93-5.45 32.02-5.08 16.15-14.39 42.18a.13.127-18.746 0 0 .23.11q12.34-18.07 22.53-36.4 12.07-21.7 16.11-49.89c1.43-9.96.24-20.98-1.42-30.95q-1.82-10.9-7.16-22.09c-6.44-13.51-14.78-25.88-25.43-36.06q-3.21-3.07-7.51-7.14a.417.414-38.083 0 0-.51-.06l-11.8 7.13q-1.73-7.6-1.77-15.33a3.399 3.387-17.037 0 1 1.53-2.87q14.12-9.27 28.73-14.53"></path><path fill="#0242b5" fill-rule="evenodd" d="M557.64 271.96q2.34 4.59 3.98 9.33 6.47 18.61 7.68 37.96.28 4.43.68 17.74.24 7.58-2.34 24.98-1.11 7.54-4.98 24.65-3.27 14.42-7.61 41.89-2.9 18.36-1.62 39.74.79 13.21 4.62 25.22l-5.67.77c-1.34-6.09-3.17-12.86-3.65-18.48-.77-8.93-1.67-15.79-1.13-23.49.43-6.15.38-12.21 1.26-18.63q3.05-22.28 5.7-35.12c2.39-11.55 5.84-24.52 7.47-36.8q1.64-12.37 2.09-18.29.23-2.95.33-12.8.07-6.33-.57-12.75-1.51-15.18-3.6-23.88-2.19-9.1-9.2-24.36 1.52-1.33 4.44.03 2.03.94 2.12 2.29" data-source="https://football-logos.cc"></path><path fill="#e91f18" fill-rule="evenodd" d="M571.68 278.77q2.63 6.09 4.21 11.52 9.89 34.05 4.17 68.57c-1.74 10.49-2.6 19.22-4.53 29.07q-4.06 20.65-4.99 26.32-3.5 21.25-4.11 42-.55 18.19 5.3 35.51l-13.68 1.71q-3.83-12.01-4.62-25.22-1.28-21.38 1.62-39.74 4.34-27.47 7.61-41.89 3.87-17.11 4.98-24.65 2.58-17.4 2.34-24.98-.4-13.31-.68-17.74-1.21-19.35-7.68-37.96-1.64-4.74-3.98-9.33-.04-.46.02-.5.67-.44 1.4.02 4.01 2.5 8.41 5.02a2.944 2.892-18.937 0 0 .46.22q2.29.83 3.75 2.05"></path><path fill="#0242b5" fill-rule="evenodd" d="M578.66 283.79q2.71 5.08 4.66 13.8 3.56 15.88 3.9 25.65.86 24.9-3.07 47.25-6.05 34.33-7.77 43.38c-2.81 14.76-4.58 30.28-4.72 43.88q-.17 15.94 4.63 32.95l-.16 1-4.4.06q-5.85-17.32-5.3-35.51.61-20.75 4.11-42 .93-5.67 4.99-26.32c1.93-9.85 2.79-18.58 4.53-29.07q5.72-34.52-4.17-68.57-1.58-5.43-4.21-11.52 3.9 1.45 6.98 5.02"></path><path fill="#e91f18" fill-rule="evenodd" d="M593.35 294.7q3.49 5.68 5.32 11.61c5.27 17.17 6.43 35.14 4.58 52.78q-.58 5.55-.73 11.11-5.48 35.42-6.43 53.8-.83 16.13.07 31.75.79 13.74 5.38 26.67c1.02 2.87 2.35 4.76 3.76 7.03a.434.431-14.596 0 1-.39.66q-13.99-.68-27.84.97a.409.316-33.875 0 1-.15-.01q-.32-.11-.63-.37-4.8-17.01-4.63-32.95c.14-13.6 1.91-29.12 4.72-43.88q1.72-9.05 7.77-43.38 3.93-22.35 3.07-47.25-.34-9.77-3.9-25.65-1.95-8.72-4.66-13.8 6.22 3.22 11.46 7.58 2.03 1.69 3.23 3.33"></path><path fill="#fefefe" fill-rule="evenodd" d="M384.1 371.8q-5.9 1.17-10.58-3.1-11.87-10.84-17.39-17.68a.618.609-32.693 0 0-.76-.16q-7.14 3.6-13.31 6.17-47.47 19.84-55.35 23.72-1.3.65-3.71 3.76c-4.09 5.27-9.34 10.37-14.23 12.76-6.23 3.05-13.92 4.61-20.56 2.13q-.05-.02-1.53-1.26-1.09-.91-2.7.03-3.2 1.84-7.26 4.27c-2.87 1.7-5.81.56-6.55-2.7q-.33-1.45-1.37-3.04-.42-.65-.3-3.91a3.369 3.31 57.021 0 1 .22-1.08q1.98-5.09 6.53-9.89a.898.897-36.034 0 0 .16-1.01q-.15-.3-.93-1.04c-1.91-1.8-2.59-5.7-2.29-8.01q.3-2.34 3.48-5.46c4.82-4.75 8.41-8.07 14.93-9.29q11.22-2.09 24.54-2.69a3.814 3.794 27.03 0 0 1.96-.63c5.19-3.43 12.87-8.52 19.28-12.09q17.57-9.78 21.83-11.9 7.6-3.8 12.36-6.28 25.95-13.57 52.05-27.58l11.8-7.13a.417.414-38.083 0 1 .51.06q4.3 4.07 7.51 7.14c10.65 10.18 18.99 22.55 25.43 36.06q5.34 11.19 7.16 22.09c1.66 9.97 2.85 20.99 1.42 30.95q-4.04 28.19-16.11 49.89-10.19 18.33-22.53 36.4a.13.127-18.746 0 1-.23-.11q9.31-26.03 14.39-42.18 4.12-13.09 5.45-32.02 1.42-20.12-2.38-42.75a.309.307 70.381 0 0-.46-.22zM602.52 370.2q.15-5.56.73-11.11c1.85-17.64.69-35.61-4.58-52.78q-1.83-5.93-5.32-11.61 2.52 1.83 3.84 2.38 7.68 3.16 16.34 7.38 14.23 6.94 22.86 18.63 8.06 10.93 12.49 16.83 5.36 7.13 12.17 16.85 11.46 16.34 24.92 33.76.8 1.03 3.37 2.35 17.43 8.9 33.08 14.98c3 1.16 5.42 3.97 2.56 7.02-2.41 2.56-12.57.04-15.98-.97a.385.384 69.959 0 0-.32.69q8.79 5.82 20.92 13.47 1.63 1.03 1.66 3.69c.05 5.89-7.94 3-10.96 1.48l-12.01-6.06a.272.271 83.163 0 0-.33.42q1.42 1.62 2.65 2.54 6.83 5.07 14.95 11.54 4.1 3.27 4.55 6.2a2.999 2.969-44.714 0 1-.01 1c-1.57 8.75-16.54-1.54-19.61-3.64a.1.1 40.377 0 0-.14.02l-.01.01a.129.128-48.59 0 0 .01.17q3.14 2.87 5.82 5.86c2.55 2.86 4.72 9.54-.75 10.83a1.946 1.922 48.726 0 1-1.12-.08c-3.19-1.21-6.57-3.7-9.84-5.08-10.11-4.3-19.85-8.03-26.26-17.69q-2.32-3.5-8.55-13.69-6.24-10.22-12.07-18.14-3.79-5.13-5.17-7.33c-1.92-3.04-4.49-6.63-7.29-9.24q-6.51-6.06-13.88-13.43c-5.07-5.06-11.98-10.93-16.13-14.41q-1.53-1.29-3.36-2.23a.822.816 37.972 0 0-.92.11q-4.07 3.54-6.88 8.49-.28.49-1.43.79M576.13 491.7l37.29 31.05c4.11 2.63 8.18 4.86 11.65 7.92q4.43 3.91 7.07 6.46 23.27 22.53 35.46 36.11.97 1.07 2.14 3.07 5.14 8.78 7.68 12.78 3.14 4.95 5.96 7.9 7.84 9.61 17.99 18.38 23.07 19.92 34.16 28.36c3.88 2.95 8.27 5.67 12.25 8.52a1.928 1.919 45.908 0 0 2.18.04q3.52-2.31 6.77-3.31c3.26-1 4.71-.33 7.63 1.75 2.23 1.58 3.81 4.65 6.47 5.95q3.32 1.62 8.85 2.63c12.46 2.26 34.06 4.03 50.83 7.15 5.65 1.05 14.51 2.74 18.21 6.76a2.356 2.273-71.121 0 1 .59 1.26c.82 5.76-3.13 8.97-7.86 11.49q-11.78 6.26-23.4 8.05c-6.49.99-10.63 1.69-16.8 2.38-15.9 1.78-25.46 3.14-37.18 6.94q-.47.15-14.27 5.2c-4.75 1.74-10.99 1.51-14.36-2.73-3.55-4.46-6.29-9.65-8.62-14.85q-1.73-3.87-2.28-7.85a1.854 1.853-75.304 0 0-.73-1.25q-9.61-7.31-16.2-10.67-25.97-13.26-36.3-18.21c-8-3.84-18.14-9.25-28.23-15.75-12.63-8.14-22.49-19.69-28.6-33.22a.952.939-8.726 0 0-.76-.55l-30.48-3.61-16.76-1.77a.457.455 1.66 0 0-.5.47l.25 5.6q1.48 15.15 2.01 22.85c.7 9.95-1.75 19.77-2.99 29.81q-4.4 35.44-7.43 72.44c-1.52 18.57-2.1 32.12-1.09 50.38a.648.643-4.908 0 0 .73.61q3.48-.41 5.2 1.16c3.49 3.21 7.42 7.86 12.15 10.6q15.75 9.14 36.17 18c4.13 1.78 8.74 4.21 11.81 6.7q1.21.98 2.39 4.13a2.945 2.732-57.598 0 1 .19 1.03q.03 5.02-3.2 8.91-.79.95-4.84 2a3.879 3.7-49.929 0 1-1.09.12q-18.66-.72-25.03-1.84-10.01-1.76-30.45-5.28-11.3-1.94-19.51-1.86-3.43.03-17 1.1c-3.4.27-6.33-.19-9.05-.19-7.21.01-9.77-6.49-9.54-12.56q.45-11.92 5.95-21.67a2.226 2.178-4.57 0 1 .54-.62l1.87-1.46a1.02 1.02 72.191 0 0 .39-.76q.64-12.29.95-16.41c1-13.55.81-27.57-.12-37.59q-.15-1.58-1.36-5.37-6.51-20.39-10.33-33.42-1.41-4.79-2.27-12.96-1.23-11.6 2.57-22.49 2.51-7.2 4.51-11.78a.43.423 5.273 0 0-.49-.58q-3.68.79-7.38.41-1.83-.18-5.3-3.01-9.69-7.89-19.39-15.61-10.36-9.21-18.47-15.76-1.76-1.43-2.19-3.05a3.016 2.724-56.131 0 1-.12-.83l.07-6.47a2.646 2.644-77.215 0 0-1.53-2.43l-7.6-3.54a.884.877 35.253 0 1-.25-1.42l2.13-2.14a.53.523-45.377 0 0 0-.75l-5.06-4.93q-6.98-6.84-12.74-14.66c-5.37-7.27-7.9-16-9.43-24.95q5.11-4.38 11.36-7.73l4.14-2.5 23.81-12.68 4.82-2.11q17.24-7.73 29.54-12.47 27.41-10.58 58.1-16.28l5.67-.77 13.68-1.71z"></path><path fill="#47ba40" fill-rule="evenodd" d="M683.38 596.99q-2.82-2.95-5.96-7.9-2.54-4-7.68-12.78-1.17-2-2.14-3.07-12.19-13.58-35.46-36.11-2.64-2.55-7.07-6.46c-3.47-3.06-7.54-5.29-11.65-7.92q12.22-2.65 31.63-5.91 21.99-3.7 39.01-5.06 29.72-2.39 60.44-1.73 5.93.13 10.75.7a4.29 4.28-61.39 0 0 3.25-.96q5.28-4.36 12.62-7.63c14.98-6.65 33.21-8.45 49.55-4.56q6.89 1.63 14.08 5.74 7.07 4.03 12.83 8.35c9.61 7.19 17.04 16.94 21.12 27.8q4.19 11.13 4.87 25.24.76 15.73-6.51 32.06-.58 1.3-5.27 8.53-3.3 5.11-6.15 7.87-11.39 11.03-21.85 15.82-4.69 2.15-13.73 4.58-7.94 2.13-14.27 2.47-30.68 1.63-53.27-19.32-2.31-2.14-10.12-11.64-1.07-1.29-3.15-1.62-16.13-2.56-31.37-4.15-11.73-1.22-24.5-2.34m172.87-56.52a.559.558-4.038 0 0 .4-.46c.62-4.84 1.15-9.3-2.1-13.54q-13.02-17.03-33.57-21.92-4.41-1.06-6.87-.08-3.42 1.36-5.81 3.89a2.029 2.024-27.971 0 0-.52 1.69l3.82 23.33a1.153 1.15 9.66 0 0 .59.83q9.36 5.02 20.3 11.8 2.19 1.35 3.79.8 11.66-3.96 19.97-6.34m-48.46-6.88-4.38-23.58a1.211 1.207-84.136 0 0-.73-.9q-5.46-2.23-10.13-2.55a6.113 5.989 40.62 0 0-1.66.11q-6.85 1.47-9.93 2.77-16.2 6.83-25.29 21.24a3.556 3.55 52.657 0 0-.39 2.92l3.61 11.81a.871.869-4.578 0 0 .73.62l28.5 3.51a1.167 1.152-59.781 0 0 .85-.23l18.28-14.29a1.485 1.477 65.84 0 0 .54-1.43m-63.04-2.61a.343.34 12.718 0 0 .35.55c2.76-.74 5.36-2.68 7.31-5.05q8.36-10.2 19.42-18.06a.488.486-66.826 0 0-.35-.88q-2.47.36-4.91 2.03-6.06 4.14-12.31 9.91c-3.43 3.15-5.91 7.3-9.51 11.5m90.98 21.34q-.78 3.83-5.4 22.04-.75 2.94.09 4.03 4.83 6.22 11.92 15.53c.83 1.09 1.26 2.16 1.95 3.07a1.578 1.56-15.446 0 0 1.09.61q7.33.77 13.38-3.82 2.54-1.93 3.96-4.81c6.1-12.4 5.63-26.6.17-39.13q-1.22-2.8-3.55-4.98a2.274 2.272-30.873 0 0-2.11-.53q-10.64 2.77-20.79 7.12a1.221 1.217 84.323 0 0-.71.87m-76.94-1.72c-2.17 2.14-10.89 11.85-10.59 15.19q1.53 17.14 11.72 31.17c1.53 2.1 3.97 4.48 6.29 5.16q6.3 1.83 14.68 2.44a.549.546-70.967 0 0 .51-.25l15.98-23.7a1.454 1.424 51.523 0 0 .14-1.35l-10.15-25.2a.816.813 82.459 0 0-.65-.5l-26.87-3.32a1.33 1.307-63.252 0 0-1.06.36m-23.21 11.63c-1.08 10.79 1.11 19.9 5.8 30.03 2.7 5.84 8.38 15.22 14.02 17.51a1.318 1.305 21.6 0 0 1.71-.73c1.49-3.77.64-6.55-1.51-10.33-5.63-9.86-9.77-18.29-11.37-28.69a2.452 2.371-74.844 0 0-.8-1.45l-7.49-6.49a.221.219-67.354 0 0-.36.15m106.54 37.31a.629.618 38.154 0 0-.08-.62l-14.28-18.26a2.501 2.482 69.029 0 0-2.11-.95l-24.22 1.64a.694.687-75.671 0 0-.55.33l-15.36 23.94a1.91 1.891 44.725 0 0 .02 2.08q3.94 5.96 9.69 10.67a1.875 1.861-20.588 0 0 .89.4c11.38 1.66 28.31 1.69 38.18-5.71 3.53-2.65 5.96-9.14 7.82-13.52m-4.37 18.1c-4.03 1.76-8.03 3.8-13.19 4.93q-13.75 3.01-28.6 1a4.047 3.994-55.678 0 0-2.56.5l-5.56 3.22a.378.377-51.651 0 0 .08.69q21.99 6.57 42.48-2.99a2.017 1.891 9.976 0 0 .52-.34l7.12-6.56a.273.27-78.068 0 0-.29-.45"></path><path fill="#fefefe" fill-rule="evenodd" d="M856.25 540.47q-8.31 2.38-19.97 6.34-1.6.55-3.79-.8-10.94-6.78-20.3-11.8a1.153 1.15 9.66 0 1-.59-.83l-3.82-23.33a2.029 2.024-27.971 0 1 .52-1.69q2.39-2.53 5.81-3.89 2.46-.98 6.87.08 20.55 4.89 33.57 21.92c3.25 4.24 2.72 8.7 2.1 13.54a.559.558-4.038 0 1-.4.46M807.79 533.59a1.485 1.477 65.84 0 1-.54 1.43l-18.28 14.29a1.167 1.152-59.781 0 1-.85.23l-28.5-3.51a.871.869-4.578 0 1-.73-.62l-3.61-11.81a3.556 3.55 52.657 0 1 .39-2.92q9.09-14.41 25.29-21.24 3.08-1.3 9.93-2.77a6.113 5.989 40.62 0 1 1.66-.11q4.67.32 10.13 2.55a1.211 1.207-84.136 0 1 .73.9zM744.75 530.98c3.6-4.2 6.08-8.35 9.51-11.5q6.25-5.77 12.31-9.91 2.44-1.67 4.91-2.03a.488.486-66.826 0 1 .35.88q-11.06 7.86-19.42 18.06c-1.95 2.37-4.55 4.31-7.31 5.05a.343.34 12.718 0 1-.35-.55M835.73 552.32a1.221 1.217 84.323 0 1 .71-.87q10.15-4.35 20.79-7.12a2.274 2.272-30.873 0 1 2.11.53q2.33 2.18 3.55 4.98c5.46 12.53 5.93 26.73-.17 39.13q-1.42 2.88-3.96 4.81-6.05 4.59-13.38 3.82a1.578 1.56-15.446 0 1-1.09-.61c-.69-.91-1.12-1.98-1.95-3.07q-7.09-9.31-11.92-15.53-.84-1.09-.09-4.03 4.62-18.21 5.4-22.04M759.85 550.24l26.87 3.32a.816.813 82.459 0 1 .65.5l10.15 25.2a1.454 1.424 51.523 0 1-.14 1.35l-15.98 23.7a.549.546-70.967 0 1-.51.25q-8.38-.61-14.68-2.44c-2.32-.68-4.76-3.06-6.29-5.16q-10.19-14.03-11.72-31.17c-.3-3.34 8.42-13.05 10.59-15.19a1.33 1.307-63.252 0 1 1.06-.36M735.58 562.23a.221.219-67.354 0 1 .36-.15l7.49 6.49a2.452 2.371-74.844 0 1 .8 1.45c1.6 10.4 5.74 18.83 11.37 28.69 2.15 3.78 3 6.56 1.51 10.33a1.318 1.305 21.6 0 1-1.71.73c-5.64-2.29-11.32-11.67-14.02-17.51-4.69-10.13-6.88-19.24-5.8-30.03M842.12 599.54c-1.86 4.38-4.29 10.87-7.82 13.52-9.87 7.4-26.8 7.37-38.18 5.71a1.875 1.861-20.588 0 1-.89-.4q-5.75-4.71-9.69-10.67a1.91 1.891 44.725 0 1-.02-2.08l15.36-23.94a.694.687-75.671 0 1 .55-.33l24.22-1.64a2.501 2.482 69.029 0 1 2.11.95l14.28 18.26a.629.618 38.154 0 1 .08.62"></path><path fill="#47ba40" fill-rule="evenodd" d="m583.24 599.85-17.01 4.3-.25-5.6a.457.455 1.66 0 1 .5-.47z"></path><path fill="#fefefe" fill-rule="evenodd" d="M837.75 617.64a.273.27-78.068 0 1 .29.45l-7.12 6.56a2.017 1.891 9.976 0 1-.52.34q-20.49 9.56-42.48 2.99a.378.377-51.651 0 1-.08-.69l5.56-3.22a4.047 3.994-55.678 0 1 2.56-.5q14.85 2.01 28.6-1c5.16-1.13 9.16-3.17 13.19-4.93" data-source="https://football-logos.cc"></path><!-- source: https://football-logos.cc --></svg>