<svg xmlns="http://www.w3.org/2000/svg" viewBox="15.68 3.51 161.92 187.09"><path d="M96.637 190.598c5.093-3.375 10.113-6.82 14.953-10.559 17.242-13.328 30.183-27.988 40.152-45.336 8.067-14.047 14.348-30.168 19.192-49.484 2.84-11.317 4.894-22.762 6.664-34.285-9.86-5.801-19.895-10.817-30.735-14.598-16.12-5.633-32.925-8.473-50.226-8.473-18.387 0-36.211 3.207-53.258 9.567-9.727 3.629-18.781 8.254-27.7 13.504 1.895 12.34 4.122 24.586 7.274 36.675 4.758 18.266 10.848 33.633 18.582 47.094 9.965 17.348 22.91 32.008 40.153 45.336 4.84 3.738 9.855 7.184 14.949 10.559" style="stroke:none;fill-rule:evenodd;fill:#221c1d;fill-opacity:1"/><path d="M96.637 30.137c-16.824 0-33.168 2.722-48.867 8.12-10.454 3.595-20.301 8.348-29.81 13.938C19.5 62.227 21.313 72.2 23.677 82.07c4.89 20.387 11.312 37.22 19.672 51.77 11.55 20.11 27.175 36.566 48.992 51.547 1.422.976 2.86 1.93 4.297 2.883 1.437-.954 2.875-1.907 4.297-2.883 21.816-14.98 37.441-31.438 48.996-51.547 7.742-13.48 13.824-28.914 18.562-47.32 2.914-11.313 5.051-22.782 6.82-34.325-9.156-5.386-18.632-10-28.671-13.543-16.047-5.66-32.774-8.515-50.004-8.515" style="stroke:none;fill-rule:evenodd;fill:#fff;fill-opacity:1"/><path d="M96.637 180.54c21.406-14.567 36.652-30.517 47.847-50.005 6.703-11.668 12.125-24.902 16.493-40.414 3.218-11.437 5.585-23.101 7.476-34.832-9.547-5.508-19.976-9.894-30.523-13.055-13.34-3.992-27.14-6.004-41.293-6.004-16.117 0-31.782 2.61-46.828 7.786-8.598 2.957-17.098 6.722-24.985 11.273 1.465 9.098 3.219 18.145 5.43 27.086 4.683 18.914 10.746 34.598 18.535 48.16 11.195 19.488 26.441 35.438 47.848 50.004" style="stroke:none;fill-rule:evenodd;fill:#221c1d;fill-opacity:1"/><path d="M96.637 34.32c-16.239 0-32.024 2.61-47.192 7.79-9.355 3.19-18.351 7.335-26.914 12.261 1.395 8.883 3.067 17.73 5.157 26.477 4.8 20.101 11.097 36.648 19.289 50.91 11.562 20.129 27.367 36.52 49.66 51.488 22.297-14.969 38.097-31.36 49.664-51.488 7.68-13.371 13.691-28.75 18.37-47.184 2.528-9.957 4.481-20.054 6.075-30.203-9.059-5.207-18.594-9.539-28.523-12.8-14.676-4.821-29.918-7.25-45.586-7.25" style="stroke:none;fill-rule:evenodd;fill:#231f20;fill-opacity:1"/><path d="m25.898 54.68 70.739 36.058 70.742-36.058c-9.254-5.227-19.297-9.407-29.45-12.446-13.34-3.992-27.14-6.004-41.292-6.004-16.117 0-31.782 2.61-46.828 7.786-8.211 2.824-16.329 6.382-23.91 10.664" style="stroke:none;fill-rule:evenodd;fill:#ffe600;fill-opacity:1"/><path d="M25.035 56.586c1.422 8.66 3.113 17.273 5.219 25.789 4.683 18.914 10.746 34.598 18.535 48.16 11.012 19.172 25.945 34.914 46.8 49.29v-87.27z" style="stroke:none;fill-rule:evenodd;fill:#2e3092;fill-opacity:1"/><path d="M168.242 56.586 97.684 92.555v87.27c20.855-14.376 35.789-30.118 46.8-49.29 6.703-11.668 12.125-24.902 16.493-40.414 3.097-11.02 5.41-22.242 7.265-33.535" style="stroke:none;fill-rule:evenodd;fill:#ee3124;fill-opacity:1"/><path d="M96.637 3.512c16.234 0 29.472 13.238 29.472 29.472 0 16.23-13.238 29.47-29.472 29.47-16.23 0-29.473-13.24-29.473-29.47 0-16.234 13.242-29.472 29.473-29.472" style="stroke:none;fill-rule:evenodd;fill:#231f20;fill-opacity:1"/><path d="M96.637 5.602c4.437 0 8.633 1.062 12.343 2.949-8.511 1.504-19.308 5.312-25.382 11.922-2.477-2.192-4.782-4.399-6.668-6.465 4.984-5.18 11.98-8.406 19.707-8.406m15.207 4.628a27.65 27.65 0 0 1 10.043 12.165c-10.375 1.195-18.703 3.945-25.403 8.382-3.496-2.543-7.535-5.683-11.308-8.93 5.945-6.433 17.601-10.452 26.668-11.617m10.8 14.184c.891 2.7 1.376 5.578 1.376 8.57 0 9.02-4.403 17.047-11.165 22.04 1.73-10.13 1.465-21.672-.68-28.75 3.223-.829 6.704-1.446 10.47-1.86M110.43 56.621a27.2 27.2 0 0 1-13.793 3.746c-.059 0-.117-.004-.176-.004 2.258-9.367 2.824-21.27 1.312-27.933 3.602-2.364 7.707-4.223 12.383-5.602 1.93 6.344 2.614 18.207.274 29.793M94.332 60.27c-14.008-1.18-25.078-12.98-25.078-27.286 0-.656.027-1.304.07-1.949 7.817 8.266 16.77 15.004 26.656 20.055-.359 3.055-.898 6.176-1.648 9.18M69.656 28.32a27.27 27.27 0 0 1 5.871-12.746C80.86 21.371 89.29 28.16 95.711 32.801c.84 3.625 1.078 9.582.5 16.054-9.89-5.164-18.816-12.066-26.555-20.535" style="stroke:none;fill-rule:evenodd;fill:#ffe600;fill-opacity:1"/><path d="M116.438 94.004 80.383 60.445 53.34 63.062c-.2 4.543-.317 9.083-.29 13.63.106 16.851 2.044 31.417 5.786 43.593 2.11 6.848 4.934 13.352 8.762 19.418q3.976.801 8.011 1.25c4.993.567 9.985.848 14.98.313-6.284-15.973-10.956-31.575-12.183-48.664l34.035 28.757c-.566 2.954-1.488 6.489-2.507 10a233 233 0 0 1-3.348 10.668c3.36.43 6.824.504 10.21.48 4.364-.03 8.708-.304 13.04-.835 6.922-19.762 10.71-35.988 10.734-56.942.008-7.035-.218-14.074-.468-21.109L115.41 59.09c.121 3.55.34 7.086.578 10.629.52 7.73 1.102 16.406.45 24.285" style="stroke:none;fill-rule:evenodd;fill:#231f20;fill-opacity:1"/><path d="M68.89 137.828C58.618 121.29 54.067 96.785 55.356 64.973l24.29-2.352 38.433 35.77c.524-4.59.79-9.13.73-13.766-.066-5.113-.41-10.262-.73-15.047-.187-2.805-.367-5.48-.48-7.957l20.472 3.758c1.168 34.004.344 45.328-9.78 74.371-6.087.695-13.407.86-18.895.438a256 256 0 0 0 2.832-9.223c.976-3.442 1.863-6.899 2.492-10.422L76.035 87.859c.38 7.246 1.067 14.391 2.48 21.528 1.844 9.304 4.778 18.89 9.106 30.047-4.766.242-12.656-.422-18.73-1.606" style="stroke:none;fill-rule:evenodd;fill:#fff;fill-opacity:1"/></svg>