<svg xmlns="http://www.w3.org/2000/svg" fill-rule="evenodd" viewBox="44.37 139.89 509.25 566"><path d="M331.565 139.89v106.382h48.054v17.114l-161.239 78.85v-95.964h48.055V139.89H44.374v106.382h48.054l.002 224.472c-.032 98.992 21.018 155.751 60.276 188.939 35.975 30.303 91.668 46.156 146.294 46.207 54.625-.051 110.316-15.904 146.293-46.207 39.256-33.188 60.308-89.947 60.276-188.939V246.272h48.056V139.89zm48.052 317.428c.032 53.509-9.164 86.589-23.438 105.741-14.246 19.077-33.493 25.551-57.18 25.654-22.969-.087-41.776-6.219-55.878-23.958-13.81-17.397-23.165-47.125-24.535-94.735l161.031-78.747z" style="stroke:none;fill:#1f211d"/><path d="M495.24 323.232 104.349 514.387c-1.044-13.46-1.585-27.968-1.59-43.643v-60.469l352.926-172.586 39.555 80.884z" style="stroke:none;fill:#fff"/><path d="M218.382 350.511h-.002z" style="stroke:none;fill:#1f211d"/><path d="M54.702 235.943v-85.727h201.404v85.725l-48.054.002v111.343l-105.293 51.491V235.943zM438.626 651.791C405.433 679.925 351.63 695.61 299 695.559c-52.63.051-106.434-15.634-139.626-43.768-28.537-24.091-47.451-62.497-54.026-126.396l103.072-50.404c1.888 46.143 11.216 76.634 26.599 96.168 16.288 20.714 39.267 27.968 63.98 27.885l.499.001c25.29 0 48.729-7.795 64.978-29.831 16.327-22.103 25.442-57.302 25.472-111.896v-71.097l105.292-51.49v136.013c-.032 97.851-20.723 150.748-56.614 181.047M543.297 235.941l-48.057.002v59.118l-34.814-71.191-70.476 34.465-.002-22.392h-48.057v-85.727h201.406z" style="stroke:none;fill:#2fa6d9"/><path d="M174.33 462.905c-6.734 3.294-11.743 1.108-14.835-5.216-3.311-6.77-3.377-18.99-.403-29.496 9.536-33.583 20.023-39.152 21.488-40.421 1.322-1.088 2.656-.967 3.397.546 1.438 2.94-.534 13.838-5.947 25.757l-.273-.087c-.23-1.654-1.003-2.049-1.938-1.591-1.029.503-2.721 4.862-3.07 5.807l-4.089 9.173c-1.043 2.607-2.398 6.472-1.091 9.144 1.394 2.85 4.79 3.397 7.327 1.714 10.956-7.455 23.933-42.058 17.398-53.763-3.025-5.474-8.067-6.541-13.678-3.797-11.128 5.443-23.798 29.299-28.218 40.401-5.408 13.351-10.028 33.051-3.625 46.145 5.01 10.243 15.497 12.731 25.877 7.654 8.791-4.299 21.702-17.236 31.749-42.9 1.985-4.945 2.872-6.924.371-11.329-5.226 11.827-18.656 36.497-30.44 42.259M285.947 360.088c.936-.457 1.977-1.408 2.738-2.222 1.996-2.08 5.525-4.578 7.969-6.216 3.243-2.137 4.322-2.775 7.775-4.243 3.965-1.608 3.554-1.738 1.488-5.253-1.102-1.779-1.687-3.921-4.025-2.778-1.029.503-1.832 1.228-2.637 1.952l-4.734 4.302c-2.594 2.041-7.802 6.795-9.443 9.364-.773 1.261-1.485 3.597-.832 4.932.348.714 1.046.482 1.701.162M359.971 328.525c4.021-1.967 5.346-8.025 3.605-11.587-.785-1.604-2.754-2.076-4.437-1.251-3.648 1.783-6.568 7.185-4.783 10.838 1.047 2.136 3.371 3.096 5.615 2" style="stroke:none;fill:#1f211d"/><path d="M452.434 305.051c-2.759 4.55-5.868 11.7-9.795 13.621-1.497.732-3.204.795-3.945-.721-2.047-4.185 3.04-14.4 1.646-17.25-.959-1.96-2.373-2.482-4.498-2.326.711-.679 2.707-2.759 2.183-3.828-.522-1.069-3.91-3.496-8.169-1.302-9.301 4.836-24.635 23.016-24.723 34.895-3.366 6.372-7.943 14.192-13.986 17.147-4.863 2.378-8.458.715-9.461-1.333-1.219-2.495-.189-4.654 1.172-7.086l5.111-9.453c.922 1.646 2.946 3.416 5.096 2.364 2.525-1.235 6.56-11.708 4.163-16.606-1.306-2.672-3.313-3.457-6.211-2.04-5.238 2.562-11.864 11.762-14.591 16.85-3.582 6.662-5.097 10.691-2.608 16.977l-.87-1.037c-2.478 4.412-5.032 11.512-9.988 13.935-4.302 2.105-6.664.831-7.702-3.187 2.665-4.504 8.046-16.96 5.868-21.413-.958-1.96-3.744-1.26-5.334-.482-4.517 2.209-9.609 13.211-8.653 23.088-2.245 5.128-6.525 13.804-11.493 16.234-2.525 1.235-4.706.094-6.55-1.544-1.513-1.909-2.451-4.54-2.351-6.466 11.147-28.63 9.745-37.659 6.261-46.441-.472-1.204-1.892-3.158-3.482-2.38-2.993 1.464-7.415 14.221-11.308 27.826-1.617 7.885-1.846 16.877.251 24.878-1.871 3.459-2.853 8.068-7.285 9.357.078-4.343.423-8.374-1.493-12.294-1.307-2.672-2.783-4.268-5.937-3.609.768-1.038 1.628-2.121.975-3.458-1.177-2.404-4.698-1.786-6.712-.691-5.574 3.058-11.175 8.667-14.308 15.056-2.845 5.551-4.115 10.825-2.251 16.365-5.995 10.502-8.027 14.599-10.917 16.013-2.152 1.052-3.372.214-4.331-1.745-2.614-5.345-.855-15.255.408-20.731 10.592-4.406 9.729-8.069 9.986-18.681l-6.016 2.391c.325-1.705 1.6-5.97.816-7.574-.697-1.425-2.605-.823-3.82-.228-5.425 2.652-5.435 7.845-6.455 12.869-9.832 5.25-9.746 7.085-11.1 17.35l-.244 2.106c4.608-3.137 3.005-1.911 8.71-4.701-.717 7.304-3.638 14.362-7.245 21.203l.426.458c-1.929 3.374-4.064 6.617-6.519 7.817-1.496.733-3.204.795-3.945-.72-2.047-4.186 3.041-14.4 1.646-17.25-.958-1.96-2.373-2.483-4.498-2.327.711-.678 2.707-2.758 2.184-3.827s-3.911-3.496-8.169-1.303c-10.718 5.572-29.458 28.866-23.639 39.816 2.454 4.541 10.752 7.768 13.371 6.487 2.15-1.052 5.871-8.611 6.994-10.816l5.381-10.799.273.086c-.039 3 .025 8.819 1.419 11.669 1.263 2.584 3.712 4.035 6.798 2.526 4.514-2.207 12.215-17.429 14.247-23.936.113 3.007.591 6.529 1.897 9.2 1.742 3.563 5.163 4.871 8.81 3.087 7.309-3.575 12.494-16.091 15.743-23.922 4.252 6.587 10.354 8.511 14.846 6.313 5.893-2.88 9.081-7.972 11.136-13.723 5.939-2.905 9.033-6.426 10.874-11.992.129.285.25.575.387.856 2.57 5.255 7.159 10.848 13.987 7.509 6.695-3.275 10.855-13.03 13.597-20.59q.228.567.495 1.116c2.222 4.543 7.709 9.365 13.226 6.667 6.79-3.321 11.02-14.448 12.966-21.503 3.371 6.09 9.671 10.211 16.526 6.859 6.858-3.355 12.086-12.422 15.439-20.332 3.163 3.811 10.089 6.304 12.442 5.153 2.151-1.052 5.872-8.611 6.994-10.816l5.381-10.799.274.087c-.04 2.999.025 8.818 1.419 11.669 1.263 2.583 3.712 4.034 6.797 2.525 4.583-2.241 12.454-17.901 14.34-24.232zM219.393 429.389c-1.273.953-2.431-.468-2.742-.867-2.135-4.365-2.08-11.124 16.998-28.512l.274.086c-9.805 26.872-12.835 28.021-14.53 29.293m37.461-25.401.061-.121.275.087c.002.152.01.313.014.468zm39.79-11.602c-2.339 1.143-4.508 1.211-5.771-1.372-1.351-2.762-1.273-7.105-.174-10.071 1.543-3.955 4.892-8.242 7.201-11.579-.058 3.672-.71 8.737 1.032 12.3.784 1.603 1.818 2.532 3.169 3.638-1.235 2.922-2.373 5.575-5.457 7.084m27.971-37.632c-.025-8.817.656-18.091 4.856-26.326.8 5.9-.818 17.286-4.582 26.413zm92.261-21.937c-1.273.954-2.431-.468-2.741-.867-2.135-4.365-2.08-11.125 16.997-28.512l.275.087c-9.805 26.871-12.835 28.021-14.531 29.292" style="stroke:none;fill:#1f211d"/></svg>