<svg xmlns="http://www.w3.org/2000/svg" viewBox="19.74 49.74 1033.48 1036.9"><defs><clipPath id="a" clipPathUnits="userSpaceOnUse"><path d="M-734.818 426.914H75.849V-417.53h-810.667Z"/></clipPath><clipPath id="b" clipPathUnits="userSpaceOnUse"><path d="M-733.244 426.262H77.423v-844.444h-810.667Z"/></clipPath><clipPath id="c" clipPathUnits="userSpaceOnUse"><path d="M-725.198 426.262H85.469v-844.444h-810.667Z"/></clipPath><clipPath id="d" clipPathUnits="userSpaceOnUse"><path d="M-119.352 631.965h810.667v-844.444h-810.667Z"/></clipPath><clipPath id="e" clipPathUnits="userSpaceOnUse"><path d="M-354.003 773.11h810.667V-71.332h-810.667Z"/></clipPath><clipPath id="f" clipPathUnits="userSpaceOnUse"><path d="M-664.768 658.038H145.9v-844.444h-810.667Z"/></clipPath><clipPath id="g" clipPathUnits="userSpaceOnUse"><path d="M-524.518 754.562H286.15V-89.882h-810.667Z"/></clipPath><clipPath id="h" clipPathUnits="userSpaceOnUse"><path d="M-621.356 426.262h810.667v-844.444h-810.667Z"/></clipPath><clipPath id="i" clipPathUnits="userSpaceOnUse"><path d="M-613.115 426.262h810.667v-844.444h-810.667Z"/></clipPath><clipPath id="j" clipPathUnits="userSpaceOnUse"><path d="M-544.719 280.672h810.667v-844.444h-810.667Z"/></clipPath><clipPath id="k" clipPathUnits="userSpaceOnUse"><path d="M-558.299 295.274h810.667V-549.17h-810.667Z"/></clipPath><clipPath id="l" clipPathUnits="userSpaceOnUse"><path d="M-586.664 339.387h810.667v-844.444h-810.667Z"/></clipPath><clipPath id="m" clipPathUnits="userSpaceOnUse"><path d="M-505.957 251.011H304.71v-844.444h-810.667Z"/></clipPath><clipPath id="n" clipPathUnits="userSpaceOnUse"><path d="M-569.85 310.345h810.668v-844.444H-569.85Z"/></clipPath><clipPath id="o" clipPathUnits="userSpaceOnUse"><path d="M-579.103 324.92h810.667v-844.444h-810.667Z"/></clipPath><clipPath id="p" clipPathUnits="userSpaceOnUse"><path d="M-284.527 591.746H526.14v-844.444h-810.667Z"/></clipPath><clipPath id="q" clipPathUnits="userSpaceOnUse"><path d="M-344.59 621.173h810.667V-223.27H-344.59Z"/></clipPath><clipPath id="r" clipPathUnits="userSpaceOnUse"><path d="M-307.834 606.149h810.667v-844.444h-810.667Z"/></clipPath><clipPath id="s" clipPathUnits="userSpaceOnUse"><path d="M-402.749 629.627h810.667v-844.444h-810.667Z"/></clipPath><clipPath id="t" clipPathUnits="userSpaceOnUse"><path d="M-474.817 236.051H335.85v-844.444h-810.667Z"/></clipPath><clipPath id="u" clipPathUnits="userSpaceOnUse"><path d="M-402.749 222.896h810.667v-844.444h-810.667Z"/></clipPath><clipPath id="v" clipPathUnits="userSpaceOnUse"><path d="M-592.933 354.124h810.667V-490.32h-810.667Z"/></clipPath><clipPath id="w" clipPathUnits="userSpaceOnUse"><path d="M-527.596 265.728h810.667v-844.444h-810.667Z"/></clipPath><clipPath id="x" clipPathUnits="userSpaceOnUse"><path d="M-591.234 502.726h810.667v-844.444h-810.667Z"/></clipPath><clipPath id="y" clipPathUnits="userSpaceOnUse"><path d="M-584.875 516.815h810.667v-844.444h-810.667Z"/></clipPath><clipPath id="z" clipPathUnits="userSpaceOnUse"><path d="M-596.71 487.543h810.667v-844.444H-596.71Z"/></clipPath><clipPath id="A" clipPathUnits="userSpaceOnUse"><path d="M-600.757 472.803H209.91v-844.444h-810.667Z"/></clipPath><clipPath id="B" clipPathUnits="userSpaceOnUse"><path d="M-554.755 561.343h810.667v-844.444h-810.667Z"/></clipPath><clipPath id="C" clipPathUnits="userSpaceOnUse"><path d="M-576.413 532.13h810.667v-844.444h-810.667Z"/></clipPath><clipPath id="D" clipPathUnits="userSpaceOnUse"><path d="M-566.57 546.763h810.667V-297.68H-566.57Z"/></clipPath><clipPath id="E" clipPathUnits="userSpaceOnUse"><path d="M-605.418 443.082H205.25v-844.444h-810.667Z"/></clipPath><clipPath id="F" clipPathUnits="userSpaceOnUse"><path d="M-604.26 398.783h810.667V-445.66H-604.26Z"/></clipPath><clipPath id="G" clipPathUnits="userSpaceOnUse"><path d="M-603.693 457.705h810.667V-386.74h-810.667Z"/></clipPath><clipPath id="H" clipPathUnits="userSpaceOnUse"><path d="M-606.115 426.262h810.667v-844.444h-810.667Z"/></clipPath><clipPath id="I" clipPathUnits="userSpaceOnUse"><path d="M-601.64 383.7h810.667v-844.444H-601.64Z"/></clipPath><clipPath id="J" clipPathUnits="userSpaceOnUse"><path d="M-597.953 369.085h810.667V-475.36h-810.667Z"/></clipPath><clipPath id="K" clipPathUnits="userSpaceOnUse"><path d="M-606.091 428.114h810.667V-416.33h-810.667Z"/></clipPath><clipPath id="L" clipPathUnits="userSpaceOnUse"><path d="M-595.967 362.693H214.7v-844.444h-810.667Z"/></clipPath><clipPath id="M" clipPathUnits="userSpaceOnUse"><path d="M-575.704 319.257h810.667v-844.444h-810.667Z"/></clipPath><clipPath id="N" clipPathUnits="userSpaceOnUse"><path d="M-541.077 277.206H269.59v-844.444h-810.667Z"/></clipPath><clipPath id="O" clipPathUnits="userSpaceOnUse"><path d="M-476.89 236.839h810.668v-844.444H-476.89Z"/></clipPath><clipPath id="P" clipPathUnits="userSpaceOnUse"><path d="M-605.169 406.636h810.667v-844.444h-810.667Z"/></clipPath><clipPath id="Q" clipPathUnits="userSpaceOnUse"><path d="M-604.742 449.88h810.667v-844.444h-810.667Z"/></clipPath><clipPath id="R" clipPathUnits="userSpaceOnUse"><path d="M-596.05 489.575h810.667v-844.444H-596.05Z"/></clipPath><clipPath id="S" clipPathUnits="userSpaceOnUse"><path d="M-574.007 535.98H236.66v-844.445h-810.667Z"/></clipPath><clipPath id="T" clipPathUnits="userSpaceOnUse"><path d="M-533.414 582.084h810.667V-262.36h-810.667Z"/></clipPath><clipPath id="U" clipPathUnits="userSpaceOnUse"><path d="M-432.496 154.914H378.17V-689.53h-810.667Z"/></clipPath><clipPath id="V" clipPathUnits="userSpaceOnUse"><path d="M-363.095 128.614h810.667V-715.83h-810.667Z"/></clipPath><clipPath id="W" clipPathUnits="userSpaceOnUse"><path d="M-343.189 196.007h810.667v-844.444h-810.667Z"/></clipPath><clipPath id="X" clipPathUnits="userSpaceOnUse"><path d="M-500.89 140.448h810.666v-844.444H-500.89Z"/></clipPath><clipPath id="Y" clipPathUnits="userSpaceOnUse"><path d="M-297.116 194.815H513.55V-649.63h-810.667Z"/></clipPath><clipPath id="Z" clipPathUnits="userSpaceOnUse"><path d="M-562.902 205.041h810.667v-844.444h-810.667Z"/></clipPath><clipPath id="aa" clipPathUnits="userSpaceOnUse"><path d="M-213.334 241.13h810.667v-844.445h-810.667Z"/></clipPath><clipPath id="ab" clipPathUnits="userSpaceOnUse"><path d="M-604.197 252.683H206.47v-844.444h-810.667Z"/></clipPath><clipPath id="ac" clipPathUnits="userSpaceOnUse"><path d="M-160.353 252.82h810.667v-844.445h-810.667Z"/></clipPath><clipPath id="ad" clipPathUnits="userSpaceOnUse"><path d="M-174.2 326.578h810.667v-844.444H-174.2Z"/></clipPath><clipPath id="ae" clipPathUnits="userSpaceOnUse"><path d="M-638.365 283.454h810.667V-560.99h-810.667Z"/></clipPath><clipPath id="af" clipPathUnits="userSpaceOnUse"><path d="M-583.988 641.305h810.667V-203.14h-810.667Z"/></clipPath><clipPath id="ag" clipPathUnits="userSpaceOnUse"><path d="M-212.543 614.826h810.667v-844.444h-810.667Z"/></clipPath><clipPath id="ah" clipPathUnits="userSpaceOnUse"><path d="M-266.638 657.648H544.03v-844.444h-810.667Z"/></clipPath><clipPath id="ai" clipPathUnits="userSpaceOnUse"><path d="M-550.39 672.325h810.667V-172.12H-550.39Z"/></clipPath><clipPath id="aj" clipPathUnits="userSpaceOnUse"><path d="M-331.529 654.611h810.667v-844.444h-810.667Z"/></clipPath><clipPath id="ak" clipPathUnits="userSpaceOnUse"><path d="M-400.393 678.47h810.667v-844.444h-810.667Z"/></clipPath><clipPath id="al" clipPathUnits="userSpaceOnUse"><path d="M-472.87 706.406h810.666v-844.444H-472.87Z"/></clipPath></defs><path d="M0 0c0-183.921-148.78-333.018-332.31-333.018S-664.62-183.921-664.62 0s148.78 333.019 332.31 333.019S0 183.921 0 0" clip-path="url(#a)" style="fill:#fff;fill-opacity:1;fill-rule:nonzero;stroke:none" transform="matrix(1.33333 0 0 -1.33333 979.758 569.22)"/><path d="M0 0c0-182.528-147.968-330.495-330.495-330.495S-660.991-182.528-660.991 0s147.968 330.495 330.496 330.495C-147.968 330.495 0 182.528 0 0" clip-path="url(#b)" style="fill:#6c1713;fill-opacity:1;fill-rule:nonzero;stroke:none" transform="matrix(1.33333 0 0 -1.33333 977.66 568.349)"/><path d="M0 0c0-178.084-144.365-322.449-322.449-322.449S-644.898-178.084-644.898 0s144.365 322.449 322.449 322.449S0 178.084 0 0" clip-path="url(#c)" style="fill:#fff;fill-opacity:1;fill-rule:nonzero;stroke:none" transform="matrix(1.33333 0 0 -1.33333 966.93 568.349)"/><path d="M0 0c-41.913 57.718-66.635 128.744-66.635 205.551 0 193.32 156.607 350.037 349.791 350.037 193.185 0 349.792-156.717 349.792-350.037 0-75.756-24.052-145.889-64.926-203.176l29.413-23.906c46.008 63.94 73.124 142.469 73.124 227.355 0 214.749-173.514 388.838-387.554 388.838s-387.554-174.089-387.554-388.838c0-84.951 27.157-163.534 73.228-227.5C-26.769-18.623-9.117-6.348 0 0" clip-path="url(#d)" style="fill:#6c1713;fill-opacity:1;fill-rule:nonzero;stroke:none" transform="matrix(1.33333 0 0 -1.33333 159.136 842.62)"/><path d="M0 0c-84.827 11.776-159.924 53.993-213.928 115.271l-28.415-25.458C-182.523 21.794-99.36-25.069-5.428-38.152Z" clip-path="url(#e)" style="fill:#fecf3e;fill-opacity:1;fill-rule:nonzero;stroke:none" transform="matrix(1.33333 0 0 -1.33333 472.004 1030.814)"/><path d="M0 0c-30.956-35.073-68.829-63.888-111.482-84.31l15.948-33.516C-48.212-95.055-7.792-63.907 28.14-24.512z" clip-path="url(#f)" style="fill:#f13244;fill-opacity:1;fill-rule:nonzero;stroke:none" transform="matrix(1.33333 0 0 -1.33333 886.357 877.384)"/><path d="M0 0c-37.989-14.15-79.095-21.89-122.01-21.89-4.831 0-9.638.103-14.421.297l-.766-38.537a393 393 0 0 1 15.036-.288c47.657 0 92.902 9.717 135.072 25.505z" clip-path="url(#g)" style="fill:#25599c;fill-opacity:1;fill-rule:nonzero;stroke:none" transform="matrix(1.33333 0 0 -1.33333 699.357 1006.082)"/><path d="M0 0c0-120.733-97.873-218.606-218.607-218.606S-437.213-120.733-437.213 0s97.873 218.606 218.606 218.606C-97.873 218.606 0 120.733 0 0" clip-path="url(#h)" style="fill:#6c1713;fill-opacity:1;fill-rule:nonzero;stroke:none" transform="matrix(1.33333 0 0 -1.33333 828.474 568.349)"/><path d="M0 0c0-116.182-94.184-210.366-210.366-210.366S-420.731-116.182-420.731 0s94.183 210.366 210.365 210.366S0 116.182 0 0" clip-path="url(#i)" style="fill:#fff;fill-opacity:1;fill-rule:nonzero;stroke:none" transform="matrix(1.33333 0 0 -1.33333 817.486 568.349)"/><path d="m0 0-284.33-.382a205 205 0 0 1-13.543-14.638l311.453.418A205 205 0 0 1 0 0" clip-path="url(#j)" style="fill:#dde04b;fill-opacity:1;fill-rule:nonzero;stroke:none" transform="matrix(1.33333 0 0 -1.33333 726.291 374.23)"/><path d="m0 0-311.454-.418a205 205 0 0 1-11.508-15.103l334.512.45A204 204 0 0 1 0 0" clip-path="url(#k)" style="fill:#0085bc;fill-opacity:1;fill-rule:nonzero;stroke:none" transform="matrix(1.33333 0 0 -1.33333 744.399 393.699)"/><path d="m0 0-368.061-.494a202 202 0 0 1-6.233-14.754l380.563.511A202 202 0 0 1 0 0" clip-path="url(#l)" style="fill:#0085bc;fill-opacity:1;fill-rule:nonzero;stroke:none" transform="matrix(1.33333 0 0 -1.33333 782.219 452.516)"/><path d="m0 0-206.886-.278a204 204 0 0 1-21.607-14.775l250.132.336A204 204 0 0 1 0 0" clip-path="url(#m)" style="fill:#0085bc;fill-opacity:1;fill-rule:nonzero;stroke:none" transform="matrix(1.33333 0 0 -1.33333 674.61 334.681)"/><path d="m0 0-334.512-.449a204 204 0 0 1-9.211-14.6l352.977.474A203 203 0 0 1 0 0" clip-path="url(#n)" style="fill:#f4743d;fill-opacity:1;fill-rule:nonzero;stroke:none" transform="matrix(1.33333 0 0 -1.33333 759.799 413.794)"/><path d="m0 0-352.977-.474a203 203 0 0 1-7.523-14.487l368.061.494A203 203 0 0 1 0 0" clip-path="url(#o)" style="fill:#dde04b;fill-opacity:1;fill-rule:nonzero;stroke:none" transform="matrix(1.33333 0 0 -1.33333 772.137 433.227)"/><path d="m0 0 236.88.318a205 205 0 0 1 18.758 15.261l-274.436-.368A204 204 0 0 1 0 0" clip-path="url(#p)" style="fill:#f4743d;fill-opacity:1;fill-rule:nonzero;stroke:none" transform="matrix(1.33333 0 0 -1.33333 379.37 788.994)"/><path d="m0 0 116.846.157a202 202 0 0 1 36.713 15.123l-190.315-.255A202 202 0 0 1 0 0" clip-path="url(#q)" style="fill:#0085bc;fill-opacity:1;fill-rule:nonzero;stroke:none" transform="matrix(1.33333 0 0 -1.33333 459.453 828.23)"/><path d="m0 0 190.314.256a203 203 0 0 1 23.259 14.465l-236.88-.318A203 203 0 0 1 0 0" clip-path="url(#r)" style="fill:#dde04b;fill-opacity:1;fill-rule:nonzero;stroke:none" transform="matrix(1.33333 0 0 -1.33333 410.445 808.198)"/><path d="M0 0c20.406 0 40.104 3.019 58.687 8.611l-116.846-.157C-39.731 2.963-20.213 0 0 0" clip-path="url(#s)" style="fill:#f4743d;fill-opacity:1;fill-rule:nonzero;stroke:none" transform="matrix(1.33333 0 0 -1.33333 536.999 839.503)"/><path d="m0 0-144.647-.194a202.5 202.5 0 0 1-31.099-15.043l206.886.277A202.4 202.4 0 0 1 0 0" clip-path="url(#t)" style="fill:#dde04b;fill-opacity:1;fill-rule:nonzero;stroke:none" transform="matrix(1.33333 0 0 -1.33333 633.09 314.735)"/><path d="M0 0c-25.572 0-50.035-4.733-72.579-13.35l144.647.195C49.666-4.663 25.379 0 0 0" clip-path="url(#u)" style="fill:#f4743d;fill-opacity:1;fill-rule:nonzero;stroke:none" transform="matrix(1.33333 0 0 -1.33333 536.999 297.195)"/><path d="m0 0-380.562-.511a202 202 0 0 1-4.982-14.974L5.02-14.96A202 202 0 0 1 0 0" clip-path="url(#v)" style="fill:#f4743d;fill-opacity:1;fill-rule:nonzero;stroke:none" transform="matrix(1.33333 0 0 -1.33333 790.577 472.166)"/><path d="m0 0-250.131-.336a204 204 0 0 1-17.076-14.99l284.33.382A205 205 0 0 1 0 0" clip-path="url(#w)" style="fill:#f4743d;fill-opacity:1;fill-rule:nonzero;stroke:none" transform="matrix(1.33333 0 0 -1.33333 703.46 354.304)"/><path d="m0 0-376.764-.506a202 202 0 0 1 6.396-14.072l364.009.489C-4.068-9.489-1.945-4.79 0 0" clip-path="url(#x)" style="fill:#dde04b;fill-opacity:1;fill-rule:nonzero;stroke:none" transform="matrix(1.33333 0 0 -1.33333 788.312 670.301)"/><path d="m0 0-364.009-.489a203 203 0 0 1 8.51-15.292l347.037.466A203 203 0 0 1 0 0" clip-path="url(#y)" style="fill:#0085bc;fill-opacity:1;fill-rule:nonzero;stroke:none" transform="matrix(1.33333 0 0 -1.33333 779.833 689.087)"/><path d="m0 0-387.753-.521a202 202 0 0 1 5.513-15.168l376.764.506A201 201 0 0 1 0 0" clip-path="url(#z)" style="fill:#f4743d;fill-opacity:1;fill-rule:nonzero;stroke:none" transform="matrix(1.33333 0 0 -1.33333 795.613 650.057)"/><path d="m0 0-395.887-.532a202 202 0 0 1 4.087-14.729l387.752.521A202 202 0 0 1 0 0" clip-path="url(#A)" style="fill:#0085bc;fill-opacity:1;fill-rule:nonzero;stroke:none" transform="matrix(1.33333 0 0 -1.33333 801.01 630.403)"/><path d="m0 0-303.65-.408a205 205 0 0 1 14.625-14.784l274.435.368A205 205 0 0 1 0 0" clip-path="url(#B)" style="fill:#0085bc;fill-opacity:1;fill-rule:nonzero;stroke:none" transform="matrix(1.33333 0 0 -1.33333 739.673 748.457)"/><path d="m0 0-347.038-.466a204 204 0 0 1 9.873-14.607l327.322.44A204 204 0 0 1 0 0" clip-path="url(#C)" style="fill:#f4743d;fill-opacity:1;fill-rule:nonzero;stroke:none" transform="matrix(1.33333 0 0 -1.33333 768.55 709.507)"/><path d="m0 0-327.322-.44a204 204 0 0 1 11.857-14.547l303.649.408A204 204 0 0 1 0 0" clip-path="url(#D)" style="fill:#dde04b;fill-opacity:1;fill-rule:nonzero;stroke:none" transform="matrix(1.33333 0 0 -1.33333 755.427 729.018)"/><path d="m0 0-405.289-.544a203 203 0 0 1 1.766-14.618l401.799.539C-.976-9.803-.403-4.925 0 0" clip-path="url(#E)" style="fill:#f4743d;fill-opacity:1;fill-rule:nonzero;stroke:none" transform="matrix(1.33333 0 0 -1.33333 807.223 590.776)"/><path d="m0 0-403.098-.541a204 204 0 0 1-1.395-14.589l405.929.545A204 204 0 0 1 0 0" clip-path="url(#F)" style="fill:#f4743d;fill-opacity:1;fill-rule:nonzero;stroke:none" transform="matrix(1.33333 0 0 -1.33333 805.68 531.711)"/><path d="m0 0-401.799-.54c.805-5.095 1.8-10.127 2.976-15.09l395.887.532C-1.773-10.133-.791-5.098 0 0" clip-path="url(#G)" style="fill:#dde04b;fill-opacity:1;fill-rule:nonzero;stroke:none" transform="matrix(1.33333 0 0 -1.33333 804.924 610.273)"/><path d="M0 0c0 4.332-.152 8.628-.418 12.893l-405.929-.545A206 206 0 0 1-406.731 0c0-.802.021-1.599.03-2.398l406.678.546C-.018-1.234 0-.619 0 0" clip-path="url(#H)" style="fill:#dde04b;fill-opacity:1;fill-rule:nonzero;stroke:none" transform="matrix(1.33333 0 0 -1.33333 808.153 568.349)"/><path d="m0 0-397.898-.534a203 203 0 0 1-2.58-15.091l403.098.542A202 202 0 0 1 0 0" clip-path="url(#I)" style="fill:#0085bc;fill-opacity:1;fill-rule:nonzero;stroke:none" transform="matrix(1.33333 0 0 -1.33333 802.186 511.6)"/><path d="m0 0-390.564-.524a203 203 0 0 1-3.647-14.626l397.898.535A202 202 0 0 1 0 0" clip-path="url(#J)" style="fill:#dde04b;fill-opacity:1;fill-rule:nonzero;stroke:none" transform="matrix(1.33333 0 0 -1.33333 797.27 492.113)"/><path d="m0 0-406.678-.546q.089-7.554.716-14.966l405.288.544Q-.067-7.554 0 0" clip-path="url(#K)" style="fill:#0085bc;fill-opacity:1;fill-rule:nonzero;stroke:none" transform="matrix(1.33333 0 0 -1.33333 808.122 570.819)"/><path d="m0 0-392.946-25.162a202 202 0 0 1-1.446-8.52L2.665-8.753A203 203 0 0 1 0 0" clip-path="url(#L)" style="fill:#6c1713;fill-opacity:1;fill-rule:nonzero;stroke:none" transform="matrix(1.33333 0 0 -1.33333 794.623 483.59)"/><path d="m0 0-358.18-22.936a202 202 0 0 1-3.7-8.679L5.033-8.579A203 203 0 0 1 0 0" clip-path="url(#M)" style="fill:#6c1713;fill-opacity:1;fill-rule:nonzero;stroke:none" transform="matrix(1.33333 0 0 -1.33333 767.605 425.676)"/><path d="m0 0-294.549-18.861a204 204 0 0 1-7.035-8.918L8.46-8.313A205 205 0 0 1 0 0" clip-path="url(#N)" style="fill:#6c1713;fill-opacity:1;fill-rule:nonzero;stroke:none" transform="matrix(1.33333 0 0 -1.33333 721.436 369.609)"/><path d="m0 0-171.789-11a204 204 0 0 1-15.647-9.52L17.172-7.674A202 202 0 0 1 0 0" clip-path="url(#O)" style="fill:#6c1713;fill-opacity:1;fill-rule:nonzero;stroke:none" transform="matrix(1.33333 0 0 -1.33333 635.852 315.785)"/><path d="m0 0-405.686-25.735c.08-2.73.219-5.446.406-8.148L.664-8.882A205 205 0 0 1 0 0" clip-path="url(#P)" style="fill:#6c1713;fill-opacity:1;fill-rule:nonzero;stroke:none" transform="matrix(1.33333 0 0 -1.33333 806.891 542.182)"/><path d="m0 0-399.355-25.572q1.038-4.18 2.248-8.289L-1.245-9.007Q-.525-4.535 0 0" clip-path="url(#Q)" style="fill:#6c1713;fill-opacity:1;fill-rule:nonzero;stroke:none" transform="matrix(1.33333 0 0 -1.33333 806.322 599.84)"/><path d="m0 0-376.948-24.137a202 202 0 0 1 4.133-8.171L-3.223-9.103A202 202 0 0 1 0 0" clip-path="url(#R)" style="fill:#6c1713;fill-opacity:1;fill-rule:nonzero;stroke:none" transform="matrix(1.33333 0 0 -1.33333 794.734 652.767)"/><path d="m0 0-327.083-20.944a205 205 0 0 1 7.066-7.985L-6.305-9.232A203 203 0 0 1 0 0" clip-path="url(#S)" style="fill:#6c1713;fill-opacity:1;fill-rule:nonzero;stroke:none" transform="matrix(1.33333 0 0 -1.33333 765.342 714.64)"/><path d="m0 0-240.442-15.396a203 203 0 0 1 12.893-7.63L-12.232-9.507A204 204 0 0 1 0 0" clip-path="url(#T)" style="fill:#6c1713;fill-opacity:1;fill-rule:nonzero;stroke:none" transform="matrix(1.33333 0 0 -1.33333 711.22 776.112)"/><path d="M0 0c3.101-8.68 5.688-15.227 7.337-19.673.589-1.59 1.447-3.094 3.465-2.342.805.302.848 1.868.92 2.898q.172 2.477 3.23 46.037a.324.324 0 0 0 .34.302l12.905-.839a.436.436 0 0 0 .403-.464q-2.866-40.035-3.096-43.699c-.374-5.94-.647-11.319-5.683-15.137-3.24-2.462-7.869-2.946-11.952-2.452q-8.257 1-11.981 8.191c-1.04 2.011-2.104 5.839-3.076 8.377q-3.729 9.734-5.329 14.231c-3.106 8.68-5.693 15.223-7.342 19.668-.589 1.59-1.442 3.099-3.465 2.347-.8-.306-.848-1.873-.92-2.903l-3.225-46.036a.323.323 0 0 0-.345-.297l-12.901.833a.436.436 0 0 0-.408.463l.001.007q2.865 40.03 3.096 43.694c.374 5.944.647 11.324 5.688 15.141 3.235 2.457 7.864 2.946 11.947 2.448q8.257-.996 11.981-8.191c1.04-2.007 2.103-5.834 3.081-8.378Q-1.605 4.498 0 0" clip-path="url(#U)" style="fill:#6c1713;fill-opacity:1;fill-rule:nonzero;stroke:none" transform="matrix(1.33333 0 0 -1.33333 576.662 206.552)"/><path d="m0 0 12.9 1.583a.3.3 0 0 0 .336-.263l7.48-60.893a.3.3 0 0 0-.263-.336L7.554-61.492a.3.3 0 0 0-.337.263L-.263-.336A.3.3 0 0 0 0 0" clip-path="url(#V)" style="fill:#6c1713;fill-opacity:1;fill-rule:nonzero;stroke:none" transform="matrix(1.33333 0 0 -1.33333 484.127 171.486)"/><path d="M0 0q-2.64-.719-6.105-1.667a.537.537 0 0 0-.657.374l-12.455 45.687a.474.474 0 0 1-.583.33h-.001l-15.671-4.272a.355.355 0 0 0-.436.248v.001l-3.359 12.329a.54.54 0 0 0 .375.667l.013.004q4.653 1.216 22.557 6.097 17.899 4.88 22.528 6.199a.54.54 0 0 0 .672-.367l.004-.012 3.369-12.329a.355.355 0 0 0-.25-.431L-5.664 48.58a.474.474 0 0 1-.337-.58l.001-.004L6.484 2.318a.537.537 0 0 0-.379-.656Q2.64.723 0 0" clip-path="url(#W)" style="fill:#6c1713;fill-opacity:1;fill-rule:nonzero;stroke:none" transform="matrix(1.33333 0 0 -1.33333 457.585 261.343)"/><path d="M0 0q17.616-5.752 22.198-7.195a.54.54 0 0 0 .359-.676l-.005-.013-3.963-12.133a.354.354 0 0 0-.446-.225L2.722-15.208a.474.474 0 0 1-.599-.302l-14.688-44.959a.536.536 0 0 0-.676-.34 5134 5134 0 0 1-12.014 3.923.536.536 0 0 0-.345.675l14.717 44.95a.475.475 0 0 1-.304.598h-.003l-15.416 5.044a.355.355 0 0 0-.226.441l3.968 12.133a.543.543 0 0 0 .682.35l.013-.005Q-17.616 5.757 0 0" clip-path="url(#X)" style="fill:#6c1713;fill-opacity:1;fill-rule:nonzero;stroke:none" transform="matrix(1.33333 0 0 -1.33333 667.855 187.264)"/><path d="M0 0c-1.816-4.761-6.556-6.998-10.874-9.374-4.317-2.376-8.75-5.178-13.744-4.162-4.921 1.001-8.491 6.389-10.753 10.494-2.258 4.105-4.898 10.007-3.111 14.696 1.817 4.761 6.561 6.998 10.879 9.374 4.313 2.371 8.746 5.178 13.744 4.163 4.917-1.001 8.487-6.39 10.749-10.495C-.848 10.586 1.788 4.689 0 0m14.08 6.155c-.691 5.264-2.545 10.222-5.071 14.902-2.52 4.68-5.64 8.952-9.661 12.425-7.854 6.783-17.731 7.257-26.922 2.941q-3.432-1.61-9.901-5.216c-7.888-4.402-14.061-10.562-15.144-19.802-.848-7.242 1.774-14.49 5.152-20.76s7.989-12.444 14.511-15.721c8.314-4.181 16.854-2.414 24.872 1.749q6.575 3.415 9.804 5.393c8.665 5.298 13.701 13.8 12.36 24.089" clip-path="url(#Y)" style="fill:#6c1713;fill-opacity:1;fill-rule:nonzero;stroke:none" transform="matrix(1.33333 0 0 -1.33333 396.155 259.753)"/><path d="M0 0c-2.425-4.009-6.22-9.245-11.176-10.045-5.031-.809-9.344 2.175-13.561 4.723S-33.603-.34-35.223 4.493c-1.591 4.756 1.285 10.548 3.714 14.557 2.425 4.014 6.22 9.249 11.176 10.049 5.031.81 9.344-2.174 13.562-4.727 4.217-2.549 8.865-4.977 10.485-9.815C5.31 9.8 2.43 4.014 0 0m6.426 32.208q-3.124 2.14-9.517 5.877c-7.802 4.565-16.241 6.759-24.757 3.004-6.675-2.946-11.597-8.876-15.287-14.969s-6.675-13.197-6.191-20.477c.613-9.283 6.469-15.745 14.127-20.54q6.278-3.933 9.623-5.71c8.966-4.775 18.853-4.799 27.042 1.576 4.189 3.267 7.524 7.382 10.275 11.927 2.756 4.546 4.859 9.403 5.813 14.629 1.864 10.208-2.736 18.954-11.128 24.683" clip-path="url(#Z)" style="fill:#6c1713;fill-opacity:1;fill-rule:nonzero;stroke:none" transform="matrix(1.33333 0 0 -1.33333 750.536 273.389)"/><path d="M0 0c-8.573 3.396-15.201 5.772-19.629 7.468-1.586.608-3.283.958-4.049-1.054-.302-.805.843-1.873 1.571-2.606L10.37-28.994a.323.323 0 0 0 0-.455l-9.143-9.139a.436.436 0 0 0-.617.003l-.001.002Q-27.594-10.016-30.196-7.424c-4.222 4.2-8.084 7.956-7.629 14.259.288 4.053 2.976 7.851 6.043 10.591q6.2 5.542 14.065 3.592c2.195-.546 5.775-2.27 8.329-3.214Q.383 14.178 4.826 12.42c8.568-3.4 15.196-5.776 19.629-7.472 1.581-.608 3.278-.958 4.044 1.054.302.805-.843 1.873-1.572 2.606L-5.549 41.409a.324.324 0 0 0 0 .456l9.143 9.139a.437.437 0 0 0 .617-.003l.001-.002Q32.415 22.432 35.017 19.84c4.222-4.201 8.084-7.956 7.629-14.26-.288-4.052-2.976-7.85-6.043-10.59q-6.2-5.543-14.065-3.593c-2.195.546-5.775 2.271-8.324 3.214Q4.437-1.762 0 0" clip-path="url(#aa)" style="fill:#6c1713;fill-opacity:1;fill-rule:nonzero;stroke:none" transform="matrix(1.33333 0 0 -1.33333 284.445 321.506)"/><path d="M0 0q-.105.125-.23.024L-17.837-14.48q-.182-.149-.326.029l-8.175 9.92a.52.52 0 0 0 .072.737q9.882 8.124 30.943 25.493 2.55 2.108 5.751 3.587c10.198 4.714 19.059-.019 25.6-7.956A9508 9508 0 0 1 52.374-2.476a.193.193 0 0 0-.02-.271l-.004-.002-9.996-8.23q-.417-.345-.758.072Q30 3.233 24.867 9.35q-1.524 1.816-4.145 3.085c-4.127 1.997-7.146-1.14-10.193-3.444q-.576-.431-.12-.987l21.905-26.57a.19.19 0 0 0-.029-.268l-9.752-8.038a.3.3 0 0 0-.417.043z" clip-path="url(#ab)" style="fill:#6c1713;fill-opacity:1;fill-rule:nonzero;stroke:none" transform="matrix(1.33333 0 0 -1.33333 805.596 336.91)"/><path d="m0 0 50.646-34.403a.393.393 0 0 0 .104-.546l-7.213-10.609a.393.393 0 0 0-.546-.104L-7.655-11.259a.39.39 0 0 0-.104.545L-.546-.104A.393.393 0 0 0 0 0" clip-path="url(#ac)" style="fill:#6c1713;fill-opacity:1;fill-rule:nonzero;stroke:none" transform="matrix(1.33333 0 0 -1.33333 213.804 337.093)"/><path d="M0 0q.225.106.311.34.437 1.145-.364 1.959a32378 32378 0 0 0-35.893 36.5.7.7 0 0 0-.139.776l5.693 12.698q.215.484.584.106Q5.406 16.511 9.91 11.932q1.707-1.739 1.989-2.098c4.543-5.739 3.125-12.124-.522-18.025q-2.804-4.531-7.745-5.671-1.858-.426-9.033-.024-7.433.417-52.623 2.998a.33.33 0 0 0-.283.465l5.803 12.947a.41.41 0 0 0 .403.245q23.668-1.39 50.385-2.927Q-.474-.23 0 0" clip-path="url(#ad)" style="fill:#6c1713;fill-opacity:1;fill-rule:nonzero;stroke:none" transform="matrix(1.33333 0 0 -1.33333 232.267 435.437)"/><path d="M0 0c9.498 4.747 20.415 7.228 29.985 1.111 4.073-2.61 7.605-7.094 9.79-11.381q3.398-6.677 11.138-22.268a.53.53 0 0 0-.24-.709l-11.262-5.61a.513.513 0 0 0-.685.226A6723 6723 0 0 0 28.149-17.44c-2.357 4.751-5.841 8.669-11.338 8.483-3.752-.13-7.361-1.5-10.739-3.19-3.379-1.687-6.642-3.746-9-6.668-3.446-4.282-2.406-9.422-.019-14.159A6485 6485 0 0 0 7.658-54.146a.51.51 0 0 0-.23-.685l-11.252-5.633a.53.53 0 0 0-.71.23q-7.83 15.548-11.132 22.273c-2.113 4.321-3.584 9.834-3.225 14.658C-18.043-11.98-9.503-4.742 0 0" clip-path="url(#ae)" style="fill:#6c1713;fill-opacity:1;fill-rule:nonzero;stroke:none" transform="matrix(1.33333 0 0 -1.33333 851.154 377.938)"/><path d="M0 0q-.316-.282-.029-.594l14.564-16.037a.557.557 0 0 0-.032-.788l-.002-.002-9.34-8.479a.44.44 0 0 0-.618.029A2540 2540 0 0 0-11.612-8.09c-2.674 2.979-5.003 6.758-3.354 10.71q1.16 2.793 3.906 5.231 6.306 5.6 16.926 15.285c2.506 2.289 2.894 5.36.934 8.071-1.692 2.333-4.241 3.659-6.949 2.682q-1.102-.398-2.956-2.064-7.303-6.562-24.153-21.843-.436-.392-.829.039l-8.492 9.35a.457.457 0 0 0 .028.646h.001q5.161 4.656 24.632 22.216c4.648 4.196 10.931 7.099 17.127 5.758 7.62-1.657 13.322-7.769 15.647-14.993q1.442-4.473.282-9.407-.407-1.739-1.169-2.989a.402.402 0 0 1 .216-.589l25.907-8.455a.205.205 0 0 0 .071-.349l-10.37-9.413a1.66 1.66 0 0 0-1.629-.349l-23.377 7.63c-.358.118-.797-.005-1.145-.321Z" clip-path="url(#af)" style="fill:#6c1713;fill-opacity:1;fill-rule:nonzero;stroke:none" transform="matrix(1.33333 0 0 -1.33333 778.65 855.073)"/><path d="M0 0a.18.18 0 0 1 .201.225c-1.543 6.38 1.778 12.502 6.738 16.396 8.401 6.587 17.846 2.893 25.083-3.587Q46.887-.274 54.766-7.271a.336.336 0 0 0 .024-.474h-.001l-8.558-9.542q-.355-.393-.748-.038A4263 4263 0 0 1 21.968 3.664c-1.342 1.193-4.007 2.414-5.914 1.528-1.95-.91-3.748-2.878-3.834-5.024q-.043-1.068.992-2.731c1.054-1.695 2.784-3.022 4.256-4.339a38673 38673 0 0 1 20.515-18.337.443.443 0 0 0 .034-.622l-7.649-8.526a.83.83 0 0 0-1.179-.063A3677 3677 0 0 1 7.145-14.724c-1.485 1.317-2.77 2.189-4.514 2.754-2.056.666-4.054-.901-5.291-2.52-1.274-1.671-1.217-3.889-.11-5.642q.767-1.222 2.181-2.501 5.07-4.589 23.136-20.74a.383.383 0 0 0 .034-.541l-.005-.005-8.616-9.609a.345.345 0 0 0-.487-.031l-.002.002Q-3.014-38.881-10.016-32.524c-5.798 5.259-10.059 12.349-7.557 20.252 1.332 4.21 4.648 8.076 8.564 10.442Q-4.955.623 0 0" clip-path="url(#ag)" style="fill:#6c1713;fill-opacity:1;fill-rule:nonzero;stroke:none" transform="matrix(1.33333 0 0 -1.33333 283.39 819.767)"/><path d="M0 0c-1.816-3.31-3.326-6.855-3.599-10.6-.398-5.475 3.383-9.106 8.041-11.645q7.16-3.899 20.765-11.371a.51.51 0 0 0 .201-.695l-6.043-11.026a.53.53 0 0 0-.714-.211Q3.369-37.223-3.172-33.573c-4.198 2.347-8.545 6.045-10.994 10.217-5.746 9.786-2.846 20.587 2.262 29.89C-6.795 15.836.767 24.079 12.11 24.491c4.835.173 10.289-1.509 14.525-3.784q6.594-3.559 21.824-11.975a.53.53 0 0 0 .206-.714L42.603-2.999a.514.514 0 0 0-.695-.206A8615 8615 0 0 0 21.162 8.2c-4.643 2.568-9.737 3.804-14.146.527C4.001 6.49 1.821 3.31 0 0" clip-path="url(#ah)" style="fill:#6c1713;fill-opacity:1;fill-rule:nonzero;stroke:none" transform="matrix(1.33333 0 0 -1.33333 355.517 876.864)"/><path d="M0 0c-1.874-4.747-6.647-6.931-10.993-9.254-4.352-2.323-8.818-5.082-13.807-4.005-4.907 1.059-8.42 6.496-10.634 10.629-2.209 4.139-4.782 10.074-2.937 14.744 1.873 4.747 6.646 6.926 10.993 9.254 4.351 2.323 8.818 5.078 13.806 4 4.908-1.059 8.42-6.491 10.634-10.629C-.724 10.605 1.845 4.665 0 0m14.137 6.356c-.68 5.269-2.53 10.227-5.046 14.912C6.57 25.947 3.455 30.23-.561 33.707c-7.849 6.788-17.726 7.276-26.927 2.965q-3.432-1.6-9.906-5.207c-7.897-4.392-14.079-10.547-15.172-19.787-.853-7.242 1.759-14.494 5.133-20.769s7.979-12.454 14.491-15.74c8.315-4.187 16.859-2.429 24.886 1.724q6.58 3.406 9.81 5.384c8.674 5.288 13.72 13.79 12.383 24.079" clip-path="url(#ai)" style="fill:#6c1713;fill-opacity:1;fill-rule:nonzero;stroke:none" transform="matrix(1.33333 0 0 -1.33333 733.853 896.433)"/><path d="m0 0-10.251-37.712q-.766-2.71-.699-4.426c.12-3.075 2.434-4.847 5.233-5.685a255 255 0 0 1 11.875-3.258 9.1 9.1 0 0 1 3.287-.201c3.873.475 4.889 3.789 5.794 7.128q5.358 19.72 10.198 37.486a.4.4 0 0 0 .489.278L38.065-9.7a.5.5 0 0 0 .345-.608q-3.68-13.47-11.042-40.341C24.311-61.801 15.752-67.295 4.351-64.627q-6.623 1.552-15.344 4.125a24.9 24.9 0 0 0-6.633 3.094c-8.07 5.302-8.616 13.661-6.215 22.355q1.907 6.888 10.61 38.861a.45.45 0 0 0 .554.322l.002-.001L-.455.795Q.172.623 0 0" clip-path="url(#aj)" style="fill:#6c1713;fill-opacity:1;fill-rule:nonzero;stroke:none" transform="matrix(1.33333 0 0 -1.33333 442.039 872.815)"/><path d="M0 0q-1.227-.033-1.672-1.078a35355 35355 0 0 0-20.07-47.066.7.7 0 0 0-.666-.427l-13.907.422q-.532.014-.322.503Q-16.892-1.451-14.377 4.45q.959 2.241 1.184 2.639c3.575 6.38 10.016 7.506 16.864 6.385q5.257-.862 8.195-4.991Q12.967 6.926 15.33.148q2.445-7.026 17.276-49.753a.33.33 0 0 0-.321-.441l-14.18.431a.41.41 0 0 0-.379.278A40923 40923 0 0 1 1.232-1.681Q.824-.508.431-.158A.58.58 0 0 1 0 0" clip-path="url(#ak)" style="fill:#6c1713;fill-opacity:1;fill-rule:nonzero;stroke:none" transform="matrix(1.33333 0 0 -1.33333 533.858 904.627)"/><path d="m0 0-14.688-3.334a.43.43 0 0 0-.518.321l-7.504 33.027a.43.43 0 0 0 .326.513l14.688 3.338c6.646 1.509 13.335-2.998 14.941-10.067l.001-.001 1.879-8.268C10.73 8.461 6.645 1.509 0 0m21.57 22.671C18.325 36.979 10.184 48.58-5.923 47.598q-4.069-.25-7.581-1.058-16.888-3.86-19.821-4.594c-4.011-1.006-5.032-4.091-4.251-7.75q.106-.484 5.368-23.706 5.266-23.221 5.381-23.706c.872-3.635 3.125-5.982 7.179-5.158q2.961.603 19.864 4.392 3.522.786 7.298 2.314c14.957 6.054 17.3 20.031 14.056 34.339" clip-path="url(#al)" style="fill:#6c1713;fill-opacity:1;fill-rule:nonzero;stroke:none" transform="matrix(1.33333 0 0 -1.33333 630.494 941.874)"/></svg>