<svg xmlns="http://www.w3.org/2000/svg" viewBox="28.84 123.27 736.18 876.53"><!-- Source: https://football-logos.cc --><defs data-source="https://football-logos.cc"><clipPath id="a" clipPathUnits="userSpaceOnUse"><path d="M-573.66 615.402H21.62v-841.89h-595.28Z"></path></clipPath><clipPath id="b" clipPathUnits="userSpaceOnUse"><path d="M-489.03 683.448h595.28v-841.89h-595.28Z"></path></clipPath><clipPath id="c" clipPathUnits="userSpaceOnUse"><path d="M-297.727 123.16h595.28v-841.89h-595.28Z"></path></clipPath><clipPath id="d" clipPathUnits="userSpaceOnUse"><path d="M-542.662 630.238h595.28v-841.89h-595.28Z"></path></clipPath><clipPath id="e" clipPathUnits="userSpaceOnUse"><path d="M-151.03 370.482h595.28v-841.89h-595.28Z"></path></clipPath><clipPath id="f" clipPathUnits="userSpaceOnUse"><path d="M-156.205 376.738h595.28v-841.89h-595.28Z"></path></clipPath><clipPath id="g" clipPathUnits="userSpaceOnUse"><path d="M-220.81 383.79h595.28V-458.1h-595.28Z"></path></clipPath><clipPath id="h" clipPathUnits="userSpaceOnUse"><path d="M-229 473.304h595.28v-841.89H-229Z"></path></clipPath><clipPath id="i" clipPathUnits="userSpaceOnUse"><path d="M-230.364 469.266h595.28v-841.89h-595.28Z"></path></clipPath><clipPath id="j" clipPathUnits="userSpaceOnUse"><path d="M-232.525 472.167h595.28v-841.89h-595.28Z"></path></clipPath><clipPath id="k" clipPathUnits="userSpaceOnUse"><path d="M-256.638 460.451h595.28v-841.89h-595.28Z"></path></clipPath><clipPath id="l" clipPathUnits="userSpaceOnUse"><path d="M-247.166 479.91h595.28v-841.89h-595.28Z"></path></clipPath><clipPath id="m" clipPathUnits="userSpaceOnUse"><path d="M-276.77 455.959h595.28v-841.89h-595.28Z"></path></clipPath><clipPath id="n" clipPathUnits="userSpaceOnUse"><path d="M-298.609 475.232h595.28v-841.89h-595.28Z"></path></clipPath><clipPath id="o" clipPathUnits="userSpaceOnUse"><path d="M-286.58 496.905H308.7v-841.89h-595.28Z"></path></clipPath><clipPath id="p" clipPathUnits="userSpaceOnUse"><path d="M-266.817 488.855h595.28v-841.89h-595.28Z"></path></clipPath><clipPath id="q" clipPathUnits="userSpaceOnUse"><path d="M-443.97 360.36h595.28v-841.89h-595.28Z"></path></clipPath><clipPath id="r" clipPathUnits="userSpaceOnUse"><path d="M-389.63 467.048h595.28v-841.89h-595.28Z"></path></clipPath><clipPath id="s" clipPathUnits="userSpaceOnUse"><path d="M-234.203 455.873h595.28v-841.89h-595.28Z"></path></clipPath><clipPath id="t" clipPathUnits="userSpaceOnUse"><path d="M-384.085 379.482h595.28v-841.89h-595.28Z"></path></clipPath><clipPath id="u" clipPathUnits="userSpaceOnUse"><path d="M-385.109 466.707h595.28v-841.89h-595.28Z"></path></clipPath><clipPath id="v" clipPathUnits="userSpaceOnUse"><path d="M-376.521 467.192h595.28v-841.89h-595.28Z"></path></clipPath><clipPath id="w" clipPathUnits="userSpaceOnUse"><path d="M-356.144 474.116h595.28v-841.89h-595.28Z"></path></clipPath><clipPath id="x" clipPathUnits="userSpaceOnUse"><path d="M-307.624 469.608h595.28v-841.89h-595.28Z"></path></clipPath><clipPath id="y" clipPathUnits="userSpaceOnUse"><path d="M-336.355 491.726h595.28v-841.89h-595.28Z"></path></clipPath><clipPath id="z" clipPathUnits="userSpaceOnUse"><path d="M-322.42 491.466h595.28v-841.89h-595.28Z"></path></clipPath><clipPath id="A" clipPathUnits="userSpaceOnUse"><path d="M-313.363 491.698h595.28v-841.89h-595.28Z"></path></clipPath><clipPath id="B" clipPathUnits="userSpaceOnUse"><path d="M-284.475 481.57h595.28v-841.89h-595.28Z"></path></clipPath><clipPath id="C" clipPathUnits="userSpaceOnUse"><path d="M-393.728 441.969h595.28v-841.89h-595.28Z"></path></clipPath><clipPath id="D" clipPathUnits="userSpaceOnUse"><path d="M-264.892 185.39h595.28V-656.5h-595.28Z"></path></clipPath><clipPath id="E" clipPathUnits="userSpaceOnUse"><path d="M-329.951 185.39h595.28V-656.5h-595.28Z"></path></clipPath><clipPath id="F" clipPathUnits="userSpaceOnUse"><path d="M-403.2 185.39h595.28V-656.5H-403.2Z"></path></clipPath><clipPath id="G" clipPathUnits="userSpaceOnUse"><path d="M-240.509 165.459h595.28v-841.89h-595.28Z"></path></clipPath><clipPath id="H" clipPathUnits="userSpaceOnUse"><path d="M-313.826 178.54h595.28v-841.89h-595.28Z"></path></clipPath><clipPath id="I" clipPathUnits="userSpaceOnUse"><path d="M-373.315 178.097h595.28v-841.89h-595.28Z"></path></clipPath><clipPath id="J" clipPathUnits="userSpaceOnUse"><path d="M-92.4 226.694h595.28v-841.89H-92.4Z"></path></clipPath><clipPath id="K" clipPathUnits="userSpaceOnUse"><path d="M-112.848 290.587h595.28v-841.89h-595.28Z"></path></clipPath><clipPath id="L" clipPathUnits="userSpaceOnUse"><path d="M-98.204 352.097h595.28v-841.89h-595.28Z"></path></clipPath><clipPath id="M" clipPathUnits="userSpaceOnUse"><path d="M-92.4 394.161h595.28v-841.89H-92.4Z"></path></clipPath><clipPath id="N" clipPathUnits="userSpaceOnUse"><path d="M-118.08 433.536H477.2v-841.89h-595.28Z"></path></clipPath><clipPath id="O" clipPathUnits="userSpaceOnUse"><path d="M-113.679 513.519h595.28v-841.89h-595.28Z"></path></clipPath><clipPath id="P" clipPathUnits="userSpaceOnUse"><path d="M-92.4 562.079h595.28v-841.89H-92.4Z"></path></clipPath><clipPath id="Q" clipPathUnits="userSpaceOnUse"><path d="M-539.15 235.272H56.13v-841.89h-595.28Z"></path></clipPath><clipPath id="R" clipPathUnits="userSpaceOnUse"><path d="M-540.432 265.49h595.28V-576.4h-595.28Z"></path></clipPath><clipPath id="S" clipPathUnits="userSpaceOnUse"><path d="M-515.839 341.626h595.28v-841.89h-595.28Z"></path></clipPath><clipPath id="T" clipPathUnits="userSpaceOnUse"><path d="M-540.775 381.944h595.28v-841.89h-595.28Z"></path></clipPath><clipPath id="U" clipPathUnits="userSpaceOnUse"><path d="M-540.432 440.9h595.28v-841.89h-595.28Z"></path></clipPath><clipPath id="V" clipPathUnits="userSpaceOnUse"><path d="M-535.478 524.581h595.28v-841.89h-595.28Z"></path></clipPath><clipPath id="W" clipPathUnits="userSpaceOnUse"><path d="M-520.416 581.852h595.28v-841.89h-595.28Z"></path></clipPath><clipPath id="X" clipPathUnits="userSpaceOnUse"><path d="M-268.39 687.624h595.28v-841.89h-595.28Z"></path></clipPath><clipPath id="Y" clipPathUnits="userSpaceOnUse"><path d="M-288.794 676.002h595.28v-841.89h-595.28Z"></path></clipPath><clipPath id="Z" clipPathUnits="userSpaceOnUse"><path d="M-332.628 683.448h595.28v-841.89h-595.28Z"></path></clipPath><clipPath id="aa" clipPathUnits="userSpaceOnUse"><path d="M-353.896 676.002h595.28v-841.89h-595.28Z"></path></clipPath></defs><path d="M0 0s5.544-48.021-63.384-87.093c-42.041-23.832-119.776-47.74-212.614-47.349-93.075.392-156.483 16.866-197.138 37.372-13.701 6.91-24.412 13.231-33.849 20.499-47.84 34.638-45.011 82.058-45.011 82.058v517.465H0Z" clip-path="url(#a)" style="fill:#080d0f;fill-opacity:1;fill-rule:nonzero;stroke:none" transform="matrix(1.33333 0 0 -1.33333 764.881 820.535)"></path><path d="M0 0c-12.55-6.306-27.216-12.973-45.082-18.31-35.037-10.462-85.968-21.156-146.214-21.156-78.727 0-134.483 13.26-172.058 28.854-85.715 35.569-82.583 91.871-82.583 91.871v480.864H63.345V77.847S65.392 32.839 0 0m82.48 68.934-.006.041v519.6h-547.683V75.758c-.021-.15-.485-16.44 7.131-35.794 7.466-18.951 26.977-45.458 70.9-66.832 49.204-23.94 116.916-36.77 195.814-37.104.75-.007 1.487-.007 2.231-.007 92.895 0 168.837 24.288 208.931 47.013C54.978 2.982 70.149 25.278 76.68 40.476c7.063 16.447 5.814 28.335 5.8 28.458" clip-path="url(#b)" style="fill:#ffef04;fill-opacity:1;fill-rule:nonzero;stroke:none" transform="matrix(1.33333 0 0 -1.33333 652.04 911.263)"></path><path d="M0 0v-596.772c-67.43 0-124.787 9.638-170.493 28.642-43.741 18.183-63.575 41.905-72.504 58.601-9.646 18.027-8.996 31.88-8.989 32.016V0z" clip-path="url(#c)" style="fill:#ed1b25;fill-opacity:1;fill-rule:nonzero;stroke:none" transform="matrix(1.33333 0 0 -1.33333 396.97 164.213)"></path><path d="M0 0c-6.896-13.805-22.104-33.774-55.386-50.525-10.974-5.518-25.958-12.576-44.621-18.162-32.035-9.584-83.181-21.007-144.921-21.007h-.006v596.772H7.065V26.213C7.072 26.07 7.465 14.939 0 0" clip-path="url(#d)" style="fill:#2f3092;fill-opacity:1;fill-rule:nonzero;stroke:none" transform="matrix(1.33333 0 0 -1.33333 723.549 840.318)"></path><path d="m0 0 66.538-1.706s2.901-1.024 2.73-6.825c0 0 9.896.512 10.237-1.194l6.952-.043S87.444.691 99.668.88a2.76 2.76 0 0 1 2.308 1.276c2.359 3.766 9.382 14.538 13.869 16.782 5.46 2.73 26.274-1.194 26.274-1.194l17.075 4.346a5.72 5.72 0 0 0 3.362-.163c4.821-1.743 19.849-7.377 41.983-17.522a6.6 6.6 0 0 0 1.871-1.287c1.496-1.468 4.734-4.664 7.204-7.235a8.86 8.86 0 0 1 7.121-2.69l4.712.389a7.2 7.2 0 0 1 5.172 2.854c1.38 1.836 3.291 4.141 4.825 5.099 2.729 1.707 61.249 15.697 61.249 15.697l24.056-131.2-61.249-12.114-11.09 29.004s-5.118-6.654-20.132-3.241c0 0-6.313-8.872-20.644-6.996 0 0-8.36-9.383-11.26-9.383s-4.436 1.194-4.436 1.194-1.365-11.09-10.237-15.355c0 0-9.554-2.388-19.45 3.583 0 0-15.866-16.549-30.198-2.559 0 0-6.142-3.412-10.066-1.536l-10.066 9.555s-16.89-6.825-19.791 9.213c0 0-18.426-4.436-21.668 10.919l-12.113-1.195s-2.73-24.909-8.189-38.046c0 0-17.232-.512-19.109-1.365 0 0-22.883.965-32.839 3.267a3.53 3.53 0 0 0-2.727 3.564z" clip-path="url(#e)" style="fill:#1a1e26;fill-opacity:1;fill-rule:nonzero;stroke:none" transform="matrix(1.33333 0 0 -1.33333 201.373 493.977)"></path><path d="m0 0 58.804-1.479s1.251-28.094-6.711-55.619-3.184-36.966-3.184-36.966-3.754-27.07-7.849-38.103H25.705s-17.743 3.412-29.913 4.322z" clip-path="url(#f)" style="fill:#080d0f;fill-opacity:1;fill-rule:nonzero;stroke:none" transform="matrix(1.33333 0 0 -1.33333 208.273 502.318)"></path><path d="M0 0s6.142-1.706 13.82-1.706c0 0 1.535-59.714-10.749-82.064 0 0-6.115.374-10.767-.905a8 8 0 0 0-4.929.222 10.87 10.87 0 0 1 .997 5.154c-.065 1.182-.068 2.902.112 5.339.534 7.254 2.834 18.019 6.568 31.222C2.218-17.402 0 0 0 0" clip-path="url(#g)" style="fill:#fff;fill-opacity:1;fill-rule:nonzero;stroke:none" transform="matrix(1.33333 0 0 -1.33333 294.413 511.72)"></path><path d="m0 0-.569-2.844S-2.73-1.479-2.161 1.137z" clip-path="url(#h)" style="fill:#fad1b4;fill-opacity:1;fill-rule:nonzero;stroke:none" transform="matrix(1.33333 0 0 -1.33333 305.332 631.072)"></path><path d="m0 0 2.161 8.132 4.465-.93a21.5 21.5 0 0 1 6.618-.336c1.288.134 2.587.162 2.907-.212.683-.796 1.82-4.664-.569-9.554 0 0-4.549 1.251-5.573 1.023 0 0-4.094 2.901-10.009 1.877" clip-path="url(#i)" style="fill:#fad1b4;fill-opacity:1;fill-rule:nonzero;stroke:none" transform="matrix(1.33333 0 0 -1.33333 307.152 625.689)"></path><path d="M0 0s-.91-3.981 1.592-6.028c0 0 5.847-.957 6.711 3.014l-.275-.006a4.86 4.86 0 0 0-3.715 1.613l-.242.27z" clip-path="url(#j)" style="fill:#fad1b4;fill-opacity:1;fill-rule:nonzero;stroke:none" transform="matrix(1.33333 0 0 -1.33333 310.034 629.556)"></path><path d="M0 0h5.801s2.502-2.161 1.365-7.166c0 0-.342-5.232-3.981-5.232-3.64 0-5.005 1.593-5.119 5.46S0 0 0 0" clip-path="url(#k)" style="fill:#fad1b4;fill-opacity:1;fill-rule:nonzero;stroke:none" transform="matrix(1.33333 0 0 -1.33333 342.184 613.935)"></path><path d="M0 0c.788 3.689 2.902 13.25 4.269 16.188 0 0-1.109-13.137 7.251-13.336 0 0 6.853-1.451 8.445 8.217 0 0 1.566 11.005-5.033 12.711 0 0 6.782-2.682 6.564-8.292q-.034-.946.022-1.889c.11-1.894-.363-7.709-7.155-20.757 0 0-4.03-1.671-8.436-1.266a4.2 4.2 0 0 0-2.309.951c-.872.729-2.069 2.062-3.235 4.444A4.7 4.7 0 0 0 0 0" clip-path="url(#l)" style="fill:#fad1b4;fill-opacity:1;fill-rule:nonzero;stroke:none" transform="matrix(1.33333 0 0 -1.33333 329.555 639.88)"></path><path d="M0 0s3.924-.597 6.057.597c0 0 7.879-5.173.805-13.675a2.17 2.17 0 0 0-1.899-.759c-.738.08-1.728.142-2.585.039-.728-.087-1.459.129-1.993.631C-1.245-11.634-3.719-7.768 0 0" clip-path="url(#m)" style="fill:#fad1b4;fill-opacity:1;fill-rule:nonzero;stroke:none" transform="matrix(1.33333 0 0 -1.33333 369.027 607.945)"></path><path d="M0 0c0-2.403-.619-3.76-2.644-3.76S-6.313-1.812-6.313.591s1.643 4.35 3.669 4.35S0 2.403 0 0" clip-path="url(#n)" style="fill:#fad6ba;fill-opacity:1;fill-rule:nonzero;stroke:none" transform="matrix(1.33333 0 0 -1.33333 398.145 633.642)"></path><path d="M0 0s-.682 4.265 1.791 9.469c0 0 1.621 3.753 1.28 7.507 0 0 2.97-2.503 5.816-3.276 1.432-.389 2.975-.095 4.072.905 1.593 1.451 3.326 4.803 1.458 12.492 0 0 4.265-7.05.853-11.401-1.266-1.613.426-2.047 1.365-1.621 0 0 .767-2.218-.939-4.563l11.09-4.308S19.023-.853 14.587-3.583s-9.81 0-9.81 0S1.024-1.706 0 0" clip-path="url(#o)" style="fill:#fad1b4;fill-opacity:1;fill-rule:nonzero;stroke:none" transform="matrix(1.33333 0 0 -1.33333 382.107 662.54)"></path><path d="M0 0c1.475 3.323 6.54 15.065 6.2 18.906 0 0 1.133-2.635 3.902-3.424 2.532-.721 3.216-.519 6.187-.101a2.42 2.42 0 0 1 1.459.775c1.625 1.802 5.783 7.028 5.001 12.589-.967 6.881-5.289 9.838-13.251 7.393 0 0 3.413 6.928 10.749.848s5.801-10.004 5.801-10.004-8.531-12.284-11.147-33.667c0 0-3.412-1.991-6.938-1.82 0 0-5.255 4.231-7.691 6.85A1.52 1.52 0 0 0 0 0" clip-path="url(#p)" style="fill:#fad1b4;fill-opacity:1;fill-rule:nonzero;stroke:none" transform="matrix(1.33333 0 0 -1.33333 355.756 651.807)"></path><path d="m0 0-55.619-13.763s10.578-17.402 10.578-63.808c0 0 2.729-11.602-1.706-16.151l-2.844-5.233 7.791-2.53 10.635-28.862 28.549 4.095 24.341 4.208z" clip-path="url(#q)" style="fill:#080d0f;fill-opacity:1;fill-rule:nonzero;stroke:none" transform="matrix(1.33333 0 0 -1.33333 591.96 480.48)"></path><path d="M0 0s-1.706 8.872 6.654 12.369l2.559-5.246 2.078-1.514-2.245-.139S5.118-1.194 0 0" clip-path="url(#r)" style="fill:#e9d5ca;fill-opacity:1;fill-rule:nonzero;stroke:none" transform="matrix(1.33333 0 0 -1.33333 519.506 622.731)"></path><path d="M0 0s7.736 55.562 6.227 67.903c0 0 4.522-5.971 12.54-6.654 0 0 4.692-1.535 13.734 6.654 0 0 3.215.42 5.375 2.815 0 0 2.985.626 6.739 3.071 0 0 2.843.683 4.606 3.157 2.73 3.611 8.36 1.365 8.36 1.365l8.616-3.669s5.545-8.018 16.379-11.431c0 0 3.753-.938 7.336-.938s12.881-4.436 18.511-10.151c0 0 19.109-8.616 22.521-11.261s11.09-13.99 13.308-17.487c2.218-3.498 11.943-9.981 15.27-18.682 0 0-10.749-4.265-8.616-15.526 0 0-2.986-1.45-4.266 2.389l1.109 1.962s-8.274 9.383-14.16 17.829c0 0-5.886 5.203-9.981 7.336S110.556 29.26 107.57 33.269c-2.985 4.01-9.042 9.725-11.089 6.313s3.699-8.273 6.173-9.552c-.301-.526.565-1.438 1.034-1.821l16.422-13.451s4.607-2.218 7.934-4.777S142.46-7.251 142.46-7.251s.598-1.621-1.364-3.242l.17-2.388s-5.033-5.801-12.71-5.204c0 0-1.024 11.261-9.555 17.232-7.544 5.281-22.095 14.966-25.358 17.135-.5.332-1.059.554-1.651.648-1.592.252-4.397.288-2.934-3.011a5 5 0 0 1 1.969-2.229c4.919-3.011 24.578-15.183 27.633-19.282 0 0 2.585-2.115 3.827-5.018.897-2.096.445-4.529-1.077-6.225l-5.29-5.895a4.625 4.625 0 0 0-5.146-1.211l-1.527.605s-.021.853-2.218 2.645c0 0-4.606 1.706-10.322 5.971 0 0-4.265 2.047-10.578 7.166 0 0-3.497 4.265-5.033 2.132-1.535-2.132-2.9-2.559-2.9-2.559l17.658-13.137s6.142-1.877 8.19-4.009-4.01-13.478-6.313-14.076c-2.303-.597-12.711-.256-15.014 3.583 0 0 3.498.683 3.583 2.73.047 1.126-1.351 2.149-2.619 2.841a14.7 14.7 0 0 1-2.919 1.185l-9.561 2.798s5.033 8.019 1.791 14.844c-3.241 6.824-10.407 6.511-10.407 6.511l.229-1.084a2.035 2.035 0 0 0-1.765-2.442s4.18 6.995-.767 12.881c-5.407 6.432-8.701 9.811-15.697 8.531S34.494 1.791 34.494 1.791s-12.229 9.213-20.93-4.35l-2.915.805c-2.375.656-4.8 1.12-7.249 1.385z" clip-path="url(#s)" style="fill:#d8a986;fill-opacity:1;fill-rule:nonzero;stroke:none" transform="matrix(1.33333 0 0 -1.33333 312.27 607.831)"></path><path d="M0 0s8.303-12.497 8.986-51.055c0 0 .744-7.849.659-11.431 0 0-3.237 5.124-7.435 7.841a17.8 17.8 0 0 0-4.88 4.734c-2.499 3.572-6.299 9.113-8.649 13.063a12.3 12.3 0 0 1-3.4 3.724c-2.95 2.119-8.769 5.924-17.356 9.878l-5.63 2.389s-9.994 10.162-25.854 11.966a3.6 3.6 0 0 0-.642.131c-2.293.688-15.304 5.419-16.072 14.39l.256-4.393s-12.369 6.568-15.184 6.057c-2.815-.512-4.18-1.195-4.18-1.195s-.427 6.441-5.578 7.794c0 0 3.573-8.732-.692-10.225-2.477-.867-15.04-8.624-18.459-10.784a5.1 5.1 0 0 0-1.859-.715c-3.269-.562-13.178-1.813-13.89 3.523l-1.529 2.684a2.91 2.91 0 0 0 .248 3.268c.94 1.163 2.408 2.548 4.224 2.835 3.242.511 5.46-.342 7.678 1.109 2.218 1.45 8.36 12.369 8.36 12.369s3.455 5.673 8.488 5.758 11.217-.213 11.217-.213l3.744-.852a24.67 24.67 0 0 1 13.313.662l5.957 1.995a14.12 14.12 0 0 0 9.964-.374l37.235-15.67a4.1 4.1 0 0 0 1.341-.91L-21.932.53a9.5 9.5 0 0 1 7.26-2.825l11.387.995c.48.042.948.171 1.382.38z" clip-path="url(#t)" style="fill:#f5cdaf;fill-opacity:1;fill-rule:nonzero;stroke:none" transform="matrix(1.33333 0 0 -1.33333 512.113 505.976)"></path><path d="M0 0s-2.982-1.447-4.265 2.389c.66 1.173.52 2.63-.356 3.652-2.637 3.077-8.324 9.864-12.693 16.138 0 0-.211.185-.587.505 2.021-.218 4.607.389 6.893 3.672 4.593 6.599-5.712 11.52-5.712 11.52s-3.924 1.447-5.03 4.859c-1.112 3.412-3.753 4.524-3.753 4.524s-11.52 4.184-13.99 9.213c-2.477 5.03-5.46 6.231-5.46 6.231-5.759 2.054-5.33 4.429-4.497 5.712 2.505-1.563 4.968-3.426 6.968-5.459 0 0 19.108-8.62 22.52-11.261 3.413-2.641 11.09-13.99 13.308-17.491 2.218-3.494 11.943-9.977 15.273-18.678C8.619 15.526-2.136 11.26 0 0" clip-path="url(#u)" style="fill:#a58779;fill-opacity:1;fill-rule:nonzero;stroke:none" transform="matrix(1.33333 0 0 -1.33333 513.478 622.276)"></path><path d="m0 0-1.056-1.563s-5.029-5.801-12.707-5.2c0 0-.43 4.695-3.023 9.622 5.862 3.918 3.788 9.65 3.788 9.65 0 2.866-5.46 9.466-9.043 13.485.853-.423 4.818-2.422 7.767-4.695C-10.951 18.74.146 4.067.146 4.067S1.959 1.624 0 0" clip-path="url(#v)" style="fill:#a58779;fill-opacity:1;fill-rule:nonzero;stroke:none" transform="matrix(1.33333 0 0 -1.33333 502.028 622.922)"></path><path d="m0 0-6.312-7.034a3.575 3.575 0 0 0-3.979-.934l-2.203.875S-14.98-4.35-15.34-4.196c-1.447.616-5.233 2.388-9.697 5.723 0 0-4.259 2.047-10.578 7.165 0 0-.553.676-1.317 1.351 3.91-1.037 12.011-7.322 18.296-11.164 7.677-4.696 9.349-3.754 9.349-3.754C-4.196-2.766-3.704.585-5.84 5.874s-24.398 15.355-24.398 15.355-5.8.935-7.247 4.606c-1.181 2.983 2.709 6.804 4.21 8.128-.044-.355.016-.798.213-1.35.42-1.177 1.275-2.143 2.34-2.796 5.214-3.195 24.426-15.121 27.441-19.166 0 0 3.81-3.117 4.402-6.978C1.324 2.346.897.999 0 0" clip-path="url(#w)" style="fill:#a58779;fill-opacity:1;fill-rule:nonzero;stroke:none" transform="matrix(1.33333 0 0 -1.33333 474.859 632.155)"></path><path d="M0 0a8 8 0 0 1-.225.512c-3.249 6.824-10.24 6.511-10.24 6.511l.169-1.066a2.133 2.133 0 0 0-1.872-2.456s1.208 2.027 1.556 4.818c2.272 1.829 5.487 3.228 8.844.839C2.47 6.142 1.256 2.245 0 0" clip-path="url(#x)" style="fill:#a58779;fill-opacity:1;fill-rule:nonzero;stroke:none" transform="matrix(1.33333 0 0 -1.33333 410.165 626.144)"></path><path d="M0 0c-1.46-2.73-3.208-5.084-4.224-5.35-1.631-.423-7.337-.376-11.336 1.057.539.553 1.017 1.461 1.358 2.867.157.634.239 1.194.266 1.685 4.238-.9 9.289-2.88 9.289-2.88C-3.399-2.354-1.508-1.112 0 0" clip-path="url(#y)" style="fill:#a58779;fill-opacity:1;fill-rule:nonzero;stroke:none" transform="matrix(1.33333 0 0 -1.33333 448.473 655.634)"></path><path d="M0 0a9 9 0 0 0-.266-1.686c-.341-1.405-.819-2.313-1.358-2.866h-.007c-1.645.587-3.003 1.406-3.672 2.525 0 0 3.044.594 3.529 2.334.034.123.054.259.061.396.041 1.126-1.344 2.143-2.614 2.832C-2.375 3.774.212 3.446 0 0" clip-path="url(#z)" style="fill:#5e554d;fill-opacity:1;fill-rule:nonzero;stroke:none" transform="matrix(1.33333 0 0 -1.33333 429.892 655.289)"></path><path d="M0 0s-7.759-6.06-12.195-8.79-9.807 0-9.807 0-3.753 1.877-4.777 3.583c0 0-.444 2.764.675 6.551.294-1.815 1.208-3.48 3.583-3.48 5.207 0 9.234 2.457 10.435 8.019.28 1.296.6 2.218.935 2.88a1.76 1.76 0 0 1 1.003.109s.771-2.225-.935-4.566z" clip-path="url(#A)" style="fill:#ab8a75;fill-opacity:1;fill-rule:nonzero;stroke:none" transform="matrix(1.33333 0 0 -1.33333 417.817 655.598)" data-source="https://football-logos.cc"></path><path d="M0 0a95 95 0 0 1-2.757-13.97s-3.412-1.992-6.941-1.822c0 0-5.254 4.231-7.691 6.852a1.52 1.52 0 0 0-.266 1.658c.587 1.324 1.74 3.972 2.894 6.934.416-2.6 1.46-6.149 4.067-7.138C-7.732-8.606-2.771-3.337 0 0" clip-path="url(#B)" style="fill:#ab8a75;fill-opacity:1;fill-rule:nonzero;stroke:none" transform="matrix(1.33333 0 0 -1.33333 379.3 642.095)"></path><path d="M0 0s-3.235 5.125-7.432 7.841a17.6 17.6 0 0 0-4.879 4.736c-2.498 3.57-6.299 9.111-8.654 13.062a12.2 12.2 0 0 1-3.398 3.72 78 78 0 0 1-3.453 2.341c1.815.764 3.965 2.955 3.248 9.158-1.031 8.783-3.876 16.877-3.829 20.023a9.5 9.5 0 0 1 4.081-.689l1.823.157c1.863-1.502 3.678-3.774 4.572-6.688 2.047-6.661 3.33-22.364 3.33-22.364s.765-3.999 2.812-5.876 1.201-5.507 1.201-5.507 4.6-4.989 4.6-8.06c0-1.979 3.364-4.368 5.753-5.821C-.075 3.876.041 1.542 0 0" clip-path="url(#C)" style="fill:#a18578;fill-opacity:1;fill-rule:nonzero;stroke:none" transform="matrix(1.33333 0 0 -1.33333 524.97 589.291)"></path><path d="M0 0c0-4.075-2.922-7.379-6.526-7.379S-13.052-4.075-13.052 0s2.922 7.379 6.526 7.379S0 4.075 0 0" clip-path="url(#D)" style="fill:#f7ffff;fill-opacity:1;fill-rule:nonzero;stroke:none" transform="matrix(1.33333 0 0 -1.33333 353.189 247.187)"></path><path d="M0 0c0-4.075-2.922-7.379-6.526-7.379S-13.052-4.075-13.052 0s2.922 7.379 6.526 7.379S0 4.075 0 0" clip-path="url(#E)" style="fill:#f7ffff;fill-opacity:1;fill-rule:nonzero;stroke:none" transform="matrix(1.33333 0 0 -1.33333 439.935 247.187)"></path><path d="M0 0c0-4.075-2.922-7.379-6.526-7.379S-13.052-4.075-13.052 0s2.922 7.379 6.526 7.379S0 4.075 0 0" clip-path="url(#F)" style="fill:#f7ffff;fill-opacity:1;fill-rule:nonzero;stroke:none" transform="matrix(1.33333 0 0 -1.33333 537.6 247.187)"></path><path d="M0 0c-.414 1.294-1.023 2.53-1.905 3.563-2.868 3.355-6.807 4.182-9.366 2.962C-15.113 4.71-15.373-2.456-12.779-9c2.586-6.538 9.335-8.074 13.075-6.593 1.235.485 2.464 1.031 3.31 1.897.137.137.259.287.369.437q.001.01.013.021c.662.696 1.399 1.071 1.925 1.071 1.262 0 2.832-1.494 2.429-4.224a2 2 0 0 0-.054-.294c-.669-3.978-3.228-7.513-4.464-7.513q-.203 0-.382.016c-.92.086-1.853-.04-2.652-.505-2.873-1.671-6.277-2.623-10.103-2.623-10.393 0-18.821 9.724-18.821 21.722 0 11.997 9.52 21.729 18.821 21.729 3.409 0 6.61-.904 9.418-2.492 1.022-.578 2.27-.777 3.339-.29.278.127.575.195.892.195 2.443 0 4.968-5.084 4.9-10.543 0-.342-.013-.69-.034-1.031C9.004-.722 6.93-3.684 4.336-3.684a4.53 4.53 0 0 0-3.057 1.187C.725-1.996.283-.887 0 0" clip-path="url(#G)" style="fill:#f7ffff;fill-opacity:1;fill-rule:nonzero;stroke:none" transform="matrix(1.33333 0 0 -1.33333 320.678 220.612)"></path><path d="M0 0c0-7.855-7.336-13.977-16.099-14.229-5.155-.147-12.16.367-14.921 5.528-1.835 3.429-1.862 10.941-.144 11.663 1.928.811 3.183-2.393 3.878-3.639 1.069-1.915 2.589-3.599 4.473-4.721 1.674-.999 4-1.763 5.974-1.399 1.641.303 3.251 1.657 3.251 3.426 0 1.127-1.181 1.837-2.061 2.284-2.793 1.417-5.835 1.932-8.49 3.689-4.149 2.747-7.533 7.249-7.533 12.398 0 7.862 6.701 13.99 15.464 13.99 2.632 0 4.912-.625 6.872-1.697a1.44 1.44 0 0 1 1.537.114c.495.36 1.016.56 1.486.56 1.904 0 4.498-3.358 5.378-7.023.389-1.61.348-3.125-.055-4.299-.352-1.028-1.049-1.897-2.118-2.207-1.273-.368-2.426.647-3.198 1.558-2.071 2.445-4.733 5.433-8.251 5.433-1.835 0-3.528-1.433-3.528-3.126 0-1.789 1.818-2.924 3.231-3.62 2.408-1.186 5.153-1.379 7.55-2.554 2.116-1.037 3.993-2.548 5.277-4.54C-.642 5.439 0 2.873 0 0" clip-path="url(#H)" style="fill:#f7ffff;fill-opacity:1;fill-rule:nonzero;stroke:none" transform="matrix(1.33333 0 0 -1.33333 418.435 238.054)"></path><path d="M0 0a8.187 8.187 0 0 0-8.189-8.189 2.47 2.47 0 0 0-2.471 2.47V19.45a2.47 2.47 0 0 0 2.471 2.47c2.648 0 4.695-1.597 6.08-3.76C-.723 15.997 0 13.267 0 11.001Zm-3.576 28.049-7.684.006-11.684.007a4.75 4.75 0 0 1-2.675-.867c-.764-.552-1.297-1.33-1.297-2.245 0-1.444 1.317-2.803 2.776-3.318a1.77 1.77 0 0 0 1.176-1.694l-.35-26.242c-.007-.519-.34-.989-.839-1.13-.584-.164-1.136-.496-1.759-.946-.908-.662-1.584-1.556-1.584-2.478 0-1.849 2.71-3.132 4.552-3.132H-5.93c13.355 0 19.633 8.906 19.633 19.907v3.794c0 10.128-7.152 18.338-17.279 18.338" clip-path="url(#I)" style="fill:#f7ffff;fill-opacity:1;fill-rule:nonzero;stroke:none" transform="matrix(1.33333 0 0 -1.33333 497.753 237.463)"></path><path d="m0 0-6.695-.089a.887.887 0 0 0-.805 1.29l2.737 5.453c.47.935 1.467 1.003 2.061.143L.983 1.911C1.535 1.106.976.014 0 0m23.176-8.728a.91.91 0 0 0-.916.41L9.228 12.531C7.26 15.68 2.435 20.659-3.979 20.016c-4.25-.722-5.316-2.863-5.316-5.968 0-.007 0 .007 0 0 .005-1.474-.107-3.015-.869-4.277L-20.853-7.932a1.85 1.85 0 0 0-1.235-.863c-2.72-.513-4.521-1.416-4.521-2.438 0-.751.976-1.44 2.58-1.959 1.331-.423 3.085-.73 5.071-.866l4.04-.028c4.606.246 8.094 1.427 8.094 2.853 0 .184-.062.362-.171.539-.435.683-1.694 1.286-3.465 1.713a.94.94 0 0 0-.712.912v.446c0 1.181.956 2.136 2.13 2.136H2.307a2.476 2.476 0 0 0 2.477-2.477 1.24 1.24 0 0 0-.902-1.058C2.237-9.479 1.181-10.05.833-10.694a.87.87 0 0 1-.123-.437c0-1.501 4.176-2.764 9.8-3.105l5.521-.034c3.876.184 6.742.63 8.537 1.469.948.45 1.624.76 1.71 1.655.08.844.281 2.977-3.102 2.418" clip-path="url(#J)" style="fill:#f7ffff;fill-opacity:1;fill-rule:nonzero;stroke:none" transform="matrix(1.33333 0 0 -1.33333 123.2 302.258)"></path><path d="M0 0c-.389-1.338-2.844-5.289-5.801-5.573h-27.866c-1.352 0-5.344.286-5.344 2.443.161 1.415 2.376 2.273 4.189 2.737a1.53 1.53 0 0 1 1.155 1.483v19.083c0 .769-.493 1.705-1.251 1.836-2.128.366-4.775.935-4.775 2.616 0 .867 1.017 1.645 2.252 2.211s2.682.914 3.549.914h14.452c1.48 0 2.942-.44 4.134-1.319 2.539-1.875.81-3.298-1.423-4.12a13 13 0 0 0-1.18-.369 1.786 1.786 0 0 1-1.338-1.725V3.368a3.48 3.48 0 0 1 3.481-3.482h3.303c3.311 0 5.929 1.235 6.776 4.436.512 1.934 2.314 2.234 2.957 2.047C-1.222 5.926.99 3.392 0 0" clip-path="url(#K)" style="fill:#f7ffff;fill-opacity:1;fill-rule:nonzero;stroke:none" transform="matrix(1.33333 0 0 -1.33333 150.465 387.449)"></path><path d="M0 0c-10.45 0-11.474.105-11.474.105-1.351 0-5.833.51-5.833 2.667.161 1.415 1.632 2.286 3.445 2.75.68.174.725 1.259.725 1.961v18.084c0 .769 0 1.537-.995 1.878-2.042.7-3.868 1.092-3.868 2.773 0 .866.896 2.047 2.614 2.412 1.329.283 4.197.557 5.064.557H1.346c1.481 0 2.942-.441 4.134-1.32 2.54-1.874.81-3.297-1.423-4.119a13 13 0 0 0-1.18-.37c-.787-.208-1.086-1.123-1.086-1.937V8.593c0-1.923 1.839-2.844 3.23-3.27C8.403 4.285 6.91 0 0 0" clip-path="url(#L)" style="fill:#f7ffff;fill-opacity:1;fill-rule:nonzero;stroke:none" transform="matrix(1.33333 0 0 -1.33333 130.94 469.463)"></path><path d="m0 0-6.695-.089a.887.887 0 0 0-.805 1.29l2.737 5.453c.47.935 1.467 1.003 2.061.143L.983 1.911C1.535 1.106.976.014 0 0m23.176-8.728a.91.91 0 0 0-.916.41L9.228 12.531C7.26 15.68 2.435 20.659-3.979 20.016c-4.25-.722-5.316-2.863-5.316-5.968 0-.007 0 .007 0 0 .005-1.474-.107-3.015-.869-4.277L-20.853-7.932a1.85 1.85 0 0 0-1.235-.863c-2.72-.513-4.521-1.415-4.521-2.438 0-.751.976-1.44 2.58-1.959 1.331-.423 3.085-.73 5.071-.866l4.04-.028c4.606.246 8.094 1.427 8.094 2.853 0 .184-.062.362-.171.539-.435.683-1.694 1.286-3.465 1.713a.94.94 0 0 0-.712.912v.446c0 1.181.956 2.136 2.13 2.136H2.307a2.476 2.476 0 0 0 2.477-2.477 1.24 1.24 0 0 0-.902-1.058C2.237-9.479 1.181-10.05.833-10.694a.87.87 0 0 1-.123-.437c0-1.501 4.176-2.764 9.8-3.105l5.521-.034c3.876.184 6.742.63 8.537 1.469.948.45 1.624.76 1.71 1.656.08.843.281 2.976-3.102 2.417" clip-path="url(#M)" style="fill:#f7ffff;fill-opacity:1;fill-rule:nonzero;stroke:none" transform="matrix(1.33333 0 0 -1.33333 123.2 525.549)"></path><path d="M0 0c0-.839-.921-1.597-2.054-2.15a10 10 0 0 0-.674-.29 3.74 3.74 0 0 1-2.39-3.485v-20.759a4.28 4.28 0 0 0-4.279-4.279c-.696 0-1.372.219-1.932.628l-21.087 15.321c-1.433 1.038-3.44.014-3.433-1.761l.008-4.817a4.71 4.71 0 0 1 2.52-4.161l.161-.084c1.03-.546 1.849-1.297 1.849-2.123 0-1.399-2.688-2.573-4.517-2.907a5.3 5.3 0 0 0-.908-.096h-7.596q-.266-.002-.593.048c-.785.109-1.788.41-2.662.84-1.105.546-2.006 1.303-2.006 2.129 0 .828.845 1.574 1.897 2.113a5.09 5.09 0 0 1 2.771 4.531v13.928c0 2.144-1.339 4.073-3.361 4.789-1.554.551-2.727 1.506-2.727 2.483 0 .866.887 1.651 2.088 2.224 1.208.567 2.723.922 4 .922h5.492c2.35 0 4.646-.701 6.595-2.013l17.149-11.541a1.251 1.251 0 0 1 1.951 1.038l-.007 3.448a4 4 0 0 1-2.393 3.654c-1.262.555-2.37 1.408-2.37 2.37 0 .839.846 1.597 1.904 2.15.928.484 2.02.805 2.839.88q.174.012.328.014h8.059c.082 0 .171 0 .26-.014C-3.344 2.914 0 1.597 0 0" clip-path="url(#N)" style="fill:#f7ffff;fill-opacity:1;fill-rule:nonzero;stroke:none" transform="matrix(1.33333 0 0 -1.33333 157.44 578.048)"></path><path d="M0 0a14 14 0 0 0-.218-.778C-1.31-4.211-3.105-6.313-7.2-6.313h-31.979c-1.945 0-3.064 2.218-1.904 3.781l17.122 23.176h-6.694a3.37 3.37 0 0 1-2.834-1.553c-2.713-4.243-4.286-5.112-6.864-3.934-1.706.771-2.354 2.914-1.576 5.487.143.471.341.962.58 1.454 1.59 3.234 3.494 5.118 5.712 5.118h30.833c1.624 0 2.566-1.849 1.603-3.16L-19.712 1.523A.957.957 0 0 1-18.94 0h6.388A5.13 5.13 0 0 1-8.16 2.47c1.484 2.456 3.334 4.36 6.201 3.235C-.055 4.961.744 2.989 0 0" clip-path="url(#O)" style="fill:#f7ffff;fill-opacity:1;fill-rule:nonzero;stroke:none" transform="matrix(1.33333 0 0 -1.33333 151.572 684.692)"></path><path d="m0 0-6.695-.089a.887.887 0 0 0-.805 1.29l2.737 5.453c.47.935 1.467 1.003 2.061.143L.983 1.911C1.535 1.106.976.014 0 0m23.176-8.728a.91.91 0 0 0-.916.41L9.228 12.531C7.26 15.68 2.435 20.659-3.979 20.016c-4.25-.722-5.316-2.863-5.316-5.968 0-.007 0 .007 0 0 .005-1.474-.107-3.015-.869-4.277L-20.853-7.932a1.85 1.85 0 0 0-1.235-.863c-2.72-.513-4.521-1.415-4.521-2.438 0-.751.976-1.44 2.58-1.959 1.331-.423 3.085-.73 5.071-.866l4.04-.028c4.606.246 8.094 1.427 8.094 2.853 0 .184-.062.362-.171.539-.435.683-1.694 1.286-3.465 1.713a.94.94 0 0 0-.712.912v.446c0 1.181.956 2.136 2.13 2.136H2.307a2.476 2.476 0 0 0 2.477-2.477 1.24 1.24 0 0 0-.902-1.058C2.237-9.479 1.181-10.05.833-10.694a.87.87 0 0 1-.123-.437c0-1.501 4.176-2.764 9.8-3.105l5.521-.034c3.876.184 6.742.63 8.537 1.469.948.45 1.624.76 1.71 1.656.08.843.281 2.976-3.102 2.417" clip-path="url(#P)" style="fill:#f7ffff;fill-opacity:1;fill-rule:nonzero;stroke:none" transform="matrix(1.33333 0 0 -1.33333 123.2 749.438)"></path><path d="M0 0c0-1.249-1.153-2.15-2.559-2.737-1.406-.593-3.058-.866-4.054-.866h-10.025c-1.986 0-4.941 1.146-4.941 3.603 0 .996.778 1.686 1.815 2.122q.096.042.195.08a3.26 3.26 0 0 1 2.085 3.031v4.61a1.95 1.95 0 0 1-1.95 1.95h-7.14a2.35 2.35 0 0 1-2.348-2.348V5.658c0-1.483.901-2.765 2.226-3.43.933-.469 1.616-1.201 1.616-2.228 0-1.201-.962-2.102-2.177-2.703-1.215-.6-2.675-.9-3.665-.9H-41.37c-1.993 0-6.142 1.105-6.142 3.603 0 .86 1.003 1.583 2.259 2.088q.373.15.768.274a3.11 3.11 0 0 1 2.173 2.969v17.353c0 1.049-.632 2.01-1.615 2.379-1.487.557-2.82 1.534-2.82 2.938 0 .962 1.61 1.842 3.466 2.477 1.857.628 3.945 1.024 4.914 1.024h8.64c1.931 0 5.33-1.57 5.33-3.501 0-.962-.99-1.843-2.218-2.478a11 11 0 0 0-.451-.215c-1.147-.512-1.856-1.685-1.856-2.941V20.14a2.717 2.717 0 0 1 2.717-2.717h6.828c1.045 0 1.893.847 1.893 1.892v3.141c0 1.298-.758 2.45-1.908 3.053-1.213.635-2.187 1.518-2.187 2.492 0 .962 1.078 1.842 2.614 2.477 1.542.628 3.542 1.024 5.398 1.024h6.355c1.771 0 3.536-.328 5.166-1.024 4.225-1.804 2.675-3.792.299-4.955a11 11 0 0 0-.381-.176 2.88 2.88 0 0 1-1.707-2.644V5.304c0-1.4.828-2.646 2.094-3.242C-.744 1.592 0 .912 0 0" clip-path="url(#Q)" style="fill:#f7ffff;fill-opacity:1;fill-rule:nonzero;stroke:none" transform="matrix(1.33333 0 0 -1.33333 718.866 313.696)"></path><path d="M0 0c0-1.075-1.882-1.857-3.291-2.292A2.13 2.13 0 0 1-4.79-4.351l.177-15.245c0-8.754-9.145-12.438-17.899-12.438h-2.173c-9.407 0-20.445 2.848-20.445 12.255v14.917c0 .918-.59 1.715-1.453 2.027-1.352.489-2.615 1.575-2.615 2.835.428 2.259 3.771 3.112 5.49 3.112h10.748c1.719 0 6.796-.682 6.768-3.112-.199-2.006-1.552-2.108-2.889-2.594C-30.168-2.99-30.6-4.062-30.6-5.22l-.287-11.871a7.723 7.723 0 0 1 7.723-7.723h4.534c4.096.401 5.404 4.09 5.404 7.452l.049 12.654a2.57 2.57 0 0 1-1.81 2.475C-16.459-1.788-18.29-1.028-18.29 0a3.11 3.11 0 0 0 3.112 3.112h10.426C-3.033 3.112 0 1.719 0 0" clip-path="url(#R)" style="fill:#f7ffff;fill-opacity:1;fill-rule:nonzero;stroke:none" transform="matrix(1.33333 0 0 -1.33333 720.576 353.988)"></path><path d="m0 0-6.695-.089a.887.887 0 0 0-.805 1.29l2.737 5.453c.47.935 1.467 1.003 2.061.143L.983 1.911A1.217 1.217 0 0 0 0 0m22.948-9.044c-.603.189-1.45.469-1.685.995L9.228 12.531C7.26 15.68 2.369 21.655-4.044 21.012c-4.25-.722-5.251-3.859-5.251-6.964 0-.007 0 .007 0 0 .005-1.474.269-2.295-.493-3.557L-20.082-7.594a1.85 1.85 0 0 0-1.235-.863c-2.721-.512-4.415-2.127-4.415-3.15 0-.75.975-1.44 2.579-1.958 1.331-.423 2.209-.357 4.195-.493l4.04-.028c4.606.246 7.407 1.369 7.407 2.796 0 .184-.062.361-.171.539-.435.683-1.007 1.343-2.778 1.77a.94.94 0 0 0-.712.912v.446c0 1.181.956 2.136 2.13 2.136H2.307a2.476 2.476 0 0 0 2.477-2.477 1.24 1.24 0 0 0-.902-1.058C2.237-9.479 1.181-10.05.833-10.694a.8.8 0 0 1-.123-.437c.136-3.139 4.176-2.764 9.8-3.105l5.521-.034c3.876.184 5.762.228 7.557 1.067.948.451 1.626 1.276 1.709 1.656.182.828.655 1.561-2.349 2.503" clip-path="url(#S)" style="fill:#f7ffff;fill-opacity:1;fill-rule:nonzero;stroke:none" transform="matrix(1.33333 0 0 -1.33333 687.785 455.502)"></path><path d="M0 0c0-.861-.905-1.638-2.017-2.206a9 9 0 0 0-.662-.297c-1.414-.573-2.346-1.991-2.346-3.576v-21.298c0-2.423-1.883-4.39-4.202-4.39-.683 0-1.347.224-1.896.644l-20.705 15.719c-1.407 1.064-3.377.014-3.37-1.806l.008-4.943c.002-1.793.955-3.436 2.474-4.269l.158-.087c1.012-.56 1.816-1.33 1.816-2.177 0-1.436-2.64-2.64-4.436-2.983a5 5 0 0 0-.891-.098h-7.458q-.262-.002-.583.049c-.771.112-1.756.42-2.613.861-1.086.56-1.97 1.337-1.97 2.185 0 .85.829 1.615 1.862 2.167 1.67.893 2.721 2.689 2.721 4.65v14.289c0 2.2-1.315 4.179-3.299 4.914-1.526.565-2.678 1.545-2.678 2.547 0 .889.871 1.694 2.05 2.283 1.186.581 2.674.945 3.927.945h5.393c2.307 0 4.561-.719 6.475-2.065l16.837-11.841c.818-.574 1.917.035 1.917 1.064l-.008 3.538c-.003 1.626-.925 3.094-2.349 3.749-1.24.57-2.327 1.445-2.327 2.432 0 .861.831 1.638 1.869 2.206.912.497 1.984.826 2.788.903q.171.012.321.014h7.914c.08 0 .167 0 .255-.014C-3.283 2.99 0 1.638 0 0" clip-path="url(#T)" style="fill:#f7ffff;fill-opacity:1;fill-rule:nonzero;stroke:none" transform="matrix(1.33333 0 0 -1.33333 721.033 509.259)"></path><path d="M0 0c0-1.075-1.882-1.857-3.291-2.292A2.13 2.13 0 0 1-4.79-4.351l.177-15.244c0-8.755-9.145-12.439-17.899-12.439h-2.173c-9.407 0-20.445 2.848-20.445 12.255v14.917c0 .918-.59 1.715-1.453 2.027-1.352.489-2.615 1.575-2.615 2.835.428 2.259 3.771 3.112 5.49 3.112h10.748c1.719 0 6.796-.682 6.768-3.112-.199-2.006-1.552-2.108-2.889-2.594C-30.168-2.99-30.6-4.062-30.6-5.22l-.287-11.871a7.723 7.723 0 0 1 7.723-7.723h4.534c4.096.401 5.404 4.09 5.404 7.452l.049 12.654a2.57 2.57 0 0 1-1.81 2.475C-16.459-1.788-18.29-1.028-18.29 0a3.11 3.11 0 0 0 3.112 3.112h10.426C-3.033 3.112 0 1.719 0 0" clip-path="url(#U)" style="fill:#f7ffff;fill-opacity:1;fill-rule:nonzero;stroke:none" transform="matrix(1.33333 0 0 -1.33333 720.576 587.867)"></path><path d="M0 0s0-.007-.007-.007c-1.16-2.233-3.288-3.474-5.178-3.63a3.5 3.5 0 0 1-1.198-.345c-3.37-1.609-7.119-2.699-11.361-2.699-12.536 0-22.698 7.944-22.698 17.743 0 9.8 10.162 17.744 22.698 17.744 3.869 0 7.133-.838 10.228-2.199.771-.339 1.634-.349 2.433-.082.533.178 1.105.288 1.541.288 2.518 0 4.607-2.852 5.139-6.463a9 9 0 0 0 .082-.641c.4-4.666-3.074-6.485-5.742-6.485-1.565 0-3.004.566-4.834 3.668-.673 1.14-1.697 2.235-2.673 2.985-3.501 2.71-8.125 3.046-10.746.91-3.713-3.016-3.822-8.776-.116-13.594 3.706-4.811 9.67-6.654 17.061-3.521q.482.204.819.47c-.007.007 0 .007.014.014.211.171.389.355.525.553C-2.9 5.753-1.686 6.197-.805 5.739.587 5.009 1.365 2.621 0 0" clip-path="url(#V)" style="fill:#f7ffff;fill-opacity:1;fill-rule:nonzero;stroke:none" transform="matrix(1.33333 0 0 -1.33333 713.97 699.442)"></path><path d="M0 0c-4.067-1.72-7.91 1.897-10.441 7.425s-2.3 11.008 1.276 12.584c3.76 1.659 7.793-1.685 10.325-7.213C3.692 7.275 3.637 1.535 0 0m-4.586 27.748c-12.53 0-22.698-7.943-22.698-17.743S-17.116-7.739-4.586-7.739c12.537 0 22.705 7.944 22.705 17.744S7.951 27.748-4.586 27.748" clip-path="url(#W)" style="fill:#f7ffff;fill-opacity:1;fill-rule:nonzero;stroke:none" transform="matrix(1.33333 0 0 -1.33333 693.888 775.803)"></path><path d="M0 0v-.007c-.341-3.535-7.336-4.859-10.025-4.859h-6.142c-2.375 0-11.643 1.577-11.643 4.306V0c0 1.031.84 1.87 1.877 1.87l3.022-.202a2.926 2.926 0 0 1 3.12 2.92v12.377c0 1.47-1.363 2.546-2.8 2.237-2.215-.477-3.377-.164-3.99.309-.608.478-.669 1.379-.219 2 5.535 7.623 22.978 6.271 23.64 3.903.397-1.41-1.334-2.677-2.855-3.493a2.15 2.15 0 0 1-1.151-1.891V4.635a2.926 2.926 0 0 1 3.133-2.918l2.156.153A1.874 1.874 0 0 0 0 0" clip-path="url(#X)" style="fill:#f7ffff;fill-opacity:1;fill-rule:nonzero;stroke:none" transform="matrix(1.33333 0 0 -1.33333 357.852 916.832)"></path><path d="M0 0c-.266-1.051-.764-1.843-1.467-2.068-1.979-.641-4.197 1.31-5.214 4.047-.478 1.304-.512 2.58-.266 3.61.279 1.147.901 2 1.644 2.28 1.413.518 3.979-.464 4.989-3.201C.259 3.126.328 1.351 0 0m11.67 3.344c-.228 7.238-7.063 12.584-15.785 12.584-8.715 0-15.38-5.614-15.38-12.568 0-8.929 6.952-12.976 12.978-12.45q.438.034.884.1a.652.652 0 0 0 .752-.683c-.121-1.658-.904-4.44-5.954-7.796-.695-.462-.73-1.474-.08-1.996 5.777-4.637 7.871-2.694 7.871-2.694C12.238-9.379 11.67 3.344 11.67 3.344" clip-path="url(#Y)" style="fill:#f7ffff;fill-opacity:1;fill-rule:nonzero;stroke:none" transform="matrix(1.33333 0 0 -1.33333 385.059 901.336)"></path><path d="M0 0c0-7.678-9.015-13.308-19.286-13.308-4.02 0-7.746.826-10.783 2.239h-.006s-.007 0-.014.007c-.007 0-.014.006-.02.006l-.041.021a.3.3 0 0 1-.048.02.2.2 0 0 1-.055.028q-.063.032-.157.075c-.348.204-.88.58-1.112 1.16-.662 1.624.177 4.026 4.019 3.139.007 0 .014-.007.021-.007.218-.061.437-.123.655-.177 1.652-.416 3.405-.628 4.818-.628 3.815 0 6.906 2.409 6.906 5.378 0 2.729-1.869 4.654-5.132 4.715-.279.014-.573 0-.88-.02-1.033-.078-2.135-.487-3.383-.867a.875.875 0 0 0-.948.313c-1.084 1.42-1.339 3.176-1.307 4.359.011.429.29.803.699.932q.411.13.831.252.584.174 1.167.327h.007c.218.048.436.102.641.164.014.007.027.007.041.014a5.8 5.8 0 0 1 1.461.682c1.325.846 2.2 2.188 2.109 3.87-.104 1.902-1.51 3.562-3.378 3.937a4.27 4.27 0 0 1-4.116-1.399c-.437-.464-1.003-.75-1.501-.785-1.249-.082-2.266 1.167-2.266 2.614 0 .567.177 1.099.457 1.529q.197.266.444.532c2.279 2.443 7.165 3.999 12.413 3.999 7.227 0 13.049-2.955 13.049-7.124 0-2.09-1.467-3.977-3.84-5.342-.776-.447-.57-1.631.306-1.822C-.86 7.221 0 2.851 0 0" clip-path="url(#Z)" style="fill:#f7ffff;fill-opacity:1;fill-rule:nonzero;stroke:none" transform="matrix(1.33333 0 0 -1.33333 443.504 911.263)"></path><path d="M0 0c-.266-1.051-.764-1.843-1.467-2.068-1.979-.641-4.197 1.31-5.214 4.047-.478 1.304-.512 2.58-.266 3.61.279 1.147.901 2 1.644 2.28 1.413.518 3.58-.464 4.59-3.201C-.14 3.126.328 1.351 0 0m11.67 3.344c-.228 7.238-7.063 12.584-15.785 12.584-8.715 0-15.38-5.614-15.38-12.568 0-8.929 6.952-12.976 12.978-12.45q.438.034.884.1a.652.652 0 0 0 .752-.683c-.121-1.658-.904-4.44-5.954-7.796-.695-.462-.73-1.474-.08-1.996 5.777-4.637 7.871-2.694 7.871-2.694C12.238-9.379 11.67 3.344 11.67 3.344" clip-path="url(#aa)" style="fill:#f7ffff;fill-opacity:1;fill-rule:nonzero;stroke:none" transform="matrix(1.33333 0 0 -1.33333 471.861 901.336)" data-source="https://football-logos.cc"></path><!-- source: https://football-logos.cc --></svg>