<svg xmlns="http://www.w3.org/2000/svg" viewBox="21.97 105.01 761.36 920.67"><!-- Source: https://football-logos.cc --><defs data-source="https://football-logos.cc"><clipPath id="a" clipPathUnits="userSpaceOnUse"><path d="M-538.047 769.263h595.28v-841.89h-595.28Z"></path></clipPath><clipPath id="b" clipPathUnits="userSpaceOnUse"><path d="M-462.458 675.485h595.28v-841.89h-595.28Z"></path></clipPath><clipPath id="c" clipPathUnits="userSpaceOnUse"><path d="M-141.356 133.226h595.28v-841.89h-595.28Z"></path></clipPath><clipPath id="d" clipPathUnits="userSpaceOnUse"><path d="M-271.96 133.226h595.28v-841.89h-595.28Z"></path></clipPath><clipPath id="e" clipPathUnits="userSpaceOnUse"><path d="M-451.354 133.226h595.28v-841.89h-595.28Z"></path></clipPath><clipPath id="f" clipPathUnits="userSpaceOnUse"><path d="M-219.89 145.044h595.28v-841.89h-595.28Z"></path></clipPath><clipPath id="g" clipPathUnits="userSpaceOnUse"><path d="M0 841.89h595.28V0H0Z"></path></clipPath><clipPath id="h" clipPathUnits="userSpaceOnUse"><path d="M-365.885 156.869h595.28v-841.89h-595.28Z"></path></clipPath><clipPath id="i" clipPathUnits="userSpaceOnUse"><path d="M-424.994 156.869h595.28v-841.89h-595.28Z"></path></clipPath><clipPath id="j" clipPathUnits="userSpaceOnUse"><path d="M-530.555 245.417h595.28v-841.89h-595.28Z"></path></clipPath><clipPath id="k" clipPathUnits="userSpaceOnUse"><path d="M-519.007 367.596h595.28v-841.89h-595.28Z"></path></clipPath><clipPath id="l" clipPathUnits="userSpaceOnUse"><path d="M-567.394 276.776h595.28v-841.89h-595.28Z"></path></clipPath><clipPath id="m" clipPathUnits="userSpaceOnUse"><path d="M-567.393 425.393h595.28v-841.89h-595.28Z"></path></clipPath><clipPath id="n" clipPathUnits="userSpaceOnUse"><path d="M-567.394 376.606h595.28v-841.89h-595.28Z"></path></clipPath><clipPath id="o" clipPathUnits="userSpaceOnUse"><path d="M-586 397.485H9.28v-841.89H-586Z"></path></clipPath><clipPath id="p" clipPathUnits="userSpaceOnUse"><path d="M0 841.89h595.28V0H0Z"></path></clipPath><clipPath id="q" clipPathUnits="userSpaceOnUse"><path d="M-568.195 535.59h595.28V-306.3h-595.28Z"></path></clipPath><clipPath id="r" clipPathUnits="userSpaceOnUse"><path d="M-537.154 610.79h595.28V-231.1h-595.28Z"></path></clipPath><clipPath id="s" clipPathUnits="userSpaceOnUse"><path d="M-85.709 431.545h595.28v-841.89h-595.28Z"></path></clipPath><clipPath id="t" clipPathUnits="userSpaceOnUse"><path d="M-36.282 495.92h595.28v-841.89h-595.28Z"></path></clipPath><clipPath id="u" clipPathUnits="userSpaceOnUse"><path d="M-98.364 401.57h595.28v-841.89h-595.28Z"></path></clipPath><clipPath id="v" clipPathUnits="userSpaceOnUse"><path d="M-85.35 352.636h595.28v-841.89H-85.35Z"></path></clipPath><clipPath id="w" clipPathUnits="userSpaceOnUse"><path d="M-336.042 728.19h595.28V-113.7h-595.28Z"></path></clipPath><clipPath id="x" clipPathUnits="userSpaceOnUse"><path d="M-459.448 728.19h595.28V-113.7h-595.28Z"></path></clipPath><clipPath id="y" clipPathUnits="userSpaceOnUse"><path d="M-265.766 740.08h595.28v-841.89h-595.28Z"></path></clipPath><clipPath id="z" clipPathUnits="userSpaceOnUse"><path d="M-310.527 739.752h595.28v-841.89h-595.28Z"></path></clipPath><clipPath id="A" clipPathUnits="userSpaceOnUse"><path d="M-429.987 751.906h595.28v-841.89h-595.28Z"></path></clipPath><clipPath id="B" clipPathUnits="userSpaceOnUse"><path d="M-191.784 752.719h595.28v-841.89h-595.28Z"></path></clipPath><clipPath id="C" clipPathUnits="userSpaceOnUse"><path d="M-146.568 707.573h595.28v-841.89h-595.28Z"></path></clipPath><clipPath id="D" clipPathUnits="userSpaceOnUse"><path d="M0 841.89h595.28V0H0Z"></path></clipPath><clipPath id="E" clipPathUnits="userSpaceOnUse"><path d="M0 841.89h595.28V0H0Z"></path></clipPath><clipPath id="F" clipPathUnits="userSpaceOnUse"><path d="M0 841.89h595.28V0H0Z"></path></clipPath><clipPath id="G" clipPathUnits="userSpaceOnUse"><path d="M0 841.89h595.28V0H0Z"></path></clipPath><clipPath id="H" clipPathUnits="userSpaceOnUse"><path d="M-474.182 551.196h595.28v-841.89h-595.28Z"></path></clipPath><clipPath id="I" clipPathUnits="userSpaceOnUse"><path d="M-469.175 277.407h595.28v-841.89h-595.28Z"></path></clipPath><clipPath id="J" clipPathUnits="userSpaceOnUse"><path d="M-274.923 223.437h595.28v-841.89h-595.28Z"></path></clipPath><clipPath id="K" clipPathUnits="userSpaceOnUse"><path d="M-291.635 208.872h595.28v-841.89h-595.28Z"></path></clipPath><clipPath id="L" clipPathUnits="userSpaceOnUse"><path d="M-302.998 205.703h595.28v-841.89h-595.28Z"></path></clipPath><clipPath id="M" clipPathUnits="userSpaceOnUse"><path d="M-337.197 224.21h595.28v-841.89h-595.28Z"></path></clipPath></defs><path d="M0 0h-472.114c-27.312 0-49.453 22.141-49.453 49.452v641.053H49.452V49.452C49.452 22.141 27.312 0 0 0" clip-path="url(#a)" style="fill:#34348e;fill-opacity:1;fill-rule:nonzero;stroke:none" transform="matrix(1.33333 0 0 -1.33333 717.396 1025.684)"></path><path d="M0 0h-320.843c-18.173 0-32.905 14.732-32.905 32.905v437.233c0 18.173 14.732 32.905 32.905 32.905H0c18.173 0 32.905-14.732 32.905-32.905V32.905C32.905 14.732 18.173 0 0 0" clip-path="url(#b)" style="fill:#fdfdfa;fill-opacity:1;fill-rule:nonzero;stroke:none" transform="matrix(1.33333 0 0 -1.33333 616.61 900.647)"></path><path d="m0 0 6.388 19.892L12.798 0Zm12.486 37.436H.29l-21.957-61.079h14.076l3.944 12.293h20.1l3.959-12.293h14.024z" clip-path="url(#c)" style="fill:#fdfdfa;fill-opacity:1;fill-rule:nonzero;stroke:none" transform="matrix(1.33333 0 0 -1.33333 188.475 177.635)"></path><path d="m0 0 6.388 19.892L12.798 0Zm12.486 37.436H.29l-21.957-61.079h14.076l3.944 12.293h20.1l3.959-12.293h14.023z" clip-path="url(#d)" style="fill:#fdfdfa;fill-opacity:1;fill-rule:nonzero;stroke:none" transform="matrix(1.33333 0 0 -1.33333 362.614 177.635)"></path><path d="m0 0 6.389 19.892L12.799 0Zm12.486 37.436H.29l-21.957-61.079h14.076l3.945 12.293h20.099l3.959-12.293h14.024z" clip-path="url(#e)" style="fill:#fdfdfa;fill-opacity:1;fill-rule:nonzero;stroke:none" transform="matrix(1.33333 0 0 -1.33333 601.805 177.635)"></path><path d="M0 0v-11.825h-36.025v61.079h12.761V0Z" clip-path="url(#f)" style="fill:#fdfdfa;fill-opacity:1;fill-rule:nonzero;stroke:none" transform="matrix(1.33333 0 0 -1.33333 293.187 193.392)"></path><path d="M242.598 685.021h-13.323V746.1h13.323z" clip-path="url(#g)" style="fill:#fdfdfa;fill-opacity:1;fill-rule:nonzero;stroke:none" transform="matrix(1.33333 0 0 -1.33333 0 1122.52)"></path><path d="M0 0h-12.01l-27.21 38.47.376-38.47h-12.76v61.079h11.259l27.772-37.436.187 37.436H0Z" clip-path="url(#h)" style="fill:#fdfdfa;fill-opacity:1;fill-rule:nonzero;stroke:none" transform="matrix(1.33333 0 0 -1.33333 487.846 209.158)"></path><path d="M0 0h-47.39c-1.37 0-2.225 1.485-1.537 2.67l26.221 45.135-25.896.61v12.664h46.847c1.765 0 2.855-1.924 1.948-3.437l-27.214-45.443H0Z" clip-path="url(#i)" style="fill:#fdfdfa;fill-opacity:1;fill-rule:nonzero;stroke:none" transform="matrix(1.33333 0 0 -1.33333 566.659 209.158)"></path><path d="m0 0 19.651-6.388L0-12.798Zm36.984-12.486V-.29l-60.341 21.957V7.591l12.144-3.944v-20.1l-12.144-3.959v-14.024z" clip-path="url(#j)" style="fill:#fdfdfa;fill-opacity:1;fill-rule:nonzero;stroke:none" transform="matrix(1.33333 0 0 -1.33333 707.406 327.223)"></path><path d="M0 0h-11.617v36.025h60.005V23.264H0Z" clip-path="url(#k)" style="fill:#fdfdfa;fill-opacity:1;fill-rule:nonzero;stroke:none" transform="matrix(1.33333 0 0 -1.33333 692.01 490.128)"></path><path d="M0 0v-46.914h-12.546v16.891h-47.456v13.132h47.456V0Z" clip-path="url(#l)" style="fill:#fdfdfa;fill-opacity:1;fill-rule:nonzero;stroke:none" transform="matrix(1.33333 0 0 -1.33333 756.525 369.035)"></path><path d="M0 0v-46.914h-12.545v16.891h-47.456v13.131h47.456V0Z" clip-path="url(#m)" style="fill:#fdfdfa;fill-opacity:1;fill-rule:nonzero;stroke:none" transform="matrix(1.33333 0 0 -1.33333 756.523 567.19)"></path><path d="M0 0v-46.164h-12.167v32.653h-12.011v-28.144h-12.204v28.144h-12.174v-32.653h-11.446V0Z" clip-path="url(#n)" style="fill:#fdfdfa;fill-opacity:1;fill-rule:nonzero;stroke:none" transform="matrix(1.33333 0 0 -1.33333 756.525 502.141)"></path><path d="M0 0v-13.645L-12.947-3.513v9.002Z" clip-path="url(#o)" style="fill:#fdfdfa;fill-opacity:1;fill-rule:nonzero;stroke:none" transform="matrix(1.33333 0 0 -1.33333 781.333 529.98)"></path><path d="M567.393 349.129h-60.001v13.323h60.001z" clip-path="url(#p)" style="fill:#fdfdfa;fill-opacity:1;fill-rule:nonzero;stroke:none" transform="matrix(1.33333 0 0 -1.33333 0 1122.52)"></path><path d="M0 0a31.35 31.35 0 0 0-7.442-20.33l-11.298 7.495c3.357 3.187 5.444 7.643 5.444 12.575 0 9.7-8.074 17.567-18.042 17.567-9.961 0-18.035-7.867-18.035-17.567 0-4.939 2.088-9.396 5.452-12.583l-10.643-7.568C-59.252-14.938-62.082-7.799-62.082 0c0 17.277 13.897 31.286 31.041 31.286S0 17.277 0 0" clip-path="url(#q)" style="fill:#fdfdfa;fill-opacity:1;fill-rule:nonzero;stroke:none" transform="matrix(1.33333 0 0 -1.33333 757.594 714.121)"></path><path d="M0 0c-9.819 0-17.774 8.148-17.774 18.198 0 10.058 7.955 18.206 17.774 18.206s17.775-8.148 17.775-18.206C17.775 8.148 9.819 0 0 0m0 49.981c-17.144 0-31.041-14.231-31.041-31.783S-17.144-13.585 0-13.585 31.041.646 31.041 18.198 17.144 49.981 0 49.981" clip-path="url(#r)" style="fill:#fdfdfa;fill-opacity:1;fill-rule:nonzero;stroke:none" transform="matrix(1.33333 0 0 -1.33333 716.206 814.387)"></path><path d="M0 0h11.617v-36.024h-60.005v12.76H0Z" clip-path="url(#s)" style="fill:#fdfdfa;fill-opacity:1;fill-rule:nonzero;stroke:none" transform="matrix(1.33333 0 0 -1.33333 114.278 575.393)"></path><path d="M0 0a31.35 31.35 0 0 0 7.442 20.33l11.298-7.495C15.383 9.648 13.296 5.192 13.296.26c0-9.7 8.074-17.567 18.042-17.567 9.96 0 18.035 7.867 18.035 17.567 0 4.939-2.087 9.396-5.453 12.583l10.644 7.569C59.251 14.938 62.082 7.799 62.082 0c0-17.277-13.898-31.286-31.041-31.286S0-17.277 0 0" clip-path="url(#t)" style="fill:#fdfdfa;fill-opacity:1;fill-rule:nonzero;stroke:none" transform="matrix(1.33333 0 0 -1.33333 48.376 661.227)" data-source="https://football-logos.cc"></path><path d="M0 0v-2.748c0-12.887-10.443-23.331-23.323-23.331h-37.719v13.511h37.117A11.322 11.322 0 0 1-12.598-1.233c0 6.254-5.066 11.328-11.327 11.328h-37.117v13.228h37.719C-10.443 23.323 0 12.88 0 0" clip-path="url(#u)" style="fill:#fdfdfa;fill-opacity:1;fill-rule:nonzero;stroke:none" transform="matrix(1.33333 0 0 -1.33333 131.152 535.428)"></path><path d="M0 0h-12.954v10.198c0 3.573 2.904 7.963 6.477 7.963 1.79 0 3.41-1.099 4.576-2.644C-.728 13.979 0 11.988 0 10.198Zm-24.207 0h-12.672v6.9a6.33 6.33 0 0 0 6.336 6.329c1.746 0 3.335-1.062 4.479-2.555 1.144-1.501 1.857-3.439 1.857-5.185zM6.856 27.119a17.4 17.4 0 0 1-12.345 5.11c-8.245 0-14.923-6.677-14.923-14.915-.557 3.558-1.998 6.083-4.189 7.732-2.191 1.642-5.132 2.4-8.683 2.4-8.148 0-14.744-6.596-14.744-14.744v-25.649h60.002v27.714a17.4 17.4 0 0 1-5.118 12.352" clip-path="url(#v)" style="fill:#fdfdfa;fill-opacity:1;fill-rule:nonzero;stroke:none" transform="matrix(1.33333 0 0 -1.33333 113.8 470.182)"></path><path d="m0 0 6.444 19.679L12.911 0Zm12.597 37.036H.292l-22.15-60.427h14.2l3.978 12.162h20.279l3.994-12.162H34.74Z" clip-path="url(#w)" style="fill:#fdfdfa;fill-opacity:1;fill-rule:nonzero;stroke:none" transform="matrix(1.33333 0 0 -1.33333 448.056 970.92)"></path><path d="m0 0 6.444 19.679L12.911 0Zm12.597 37.036H.292l-22.151-60.427h14.2l3.979 12.162h20.278l3.994-12.162H34.74Z" clip-path="url(#x)" style="fill:#fdfdfa;fill-opacity:1;fill-rule:nonzero;stroke:none" transform="matrix(1.33333 0 0 -1.33333 612.598 970.92)"></path><path d="M0 0v-11.617h-36.025v60.005h12.761V0Z" clip-path="url(#y)" style="fill:#fdfdfa;fill-opacity:1;fill-rule:nonzero;stroke:none" transform="matrix(1.33333 0 0 -1.33333 354.355 986.772)"></path><path d="M0 0v-11.617h-36.025v60.005h12.761V0Z" clip-path="url(#z)" style="fill:#fdfdfa;fill-opacity:1;fill-rule:nonzero;stroke:none" transform="matrix(1.33333 0 0 -1.33333 414.036 986.336)"></path><path d="M0 0h-12.01l-27.209 38.47.375-38.47h-12.76v61.079h11.259l27.773-37.436.187 37.436H0Z" clip-path="url(#A)" style="fill:#fdfdfa;fill-opacity:1;fill-rule:nonzero;stroke:none" transform="matrix(1.33333 0 0 -1.33333 573.316 1002.542)"></path><path d="M0 0h-2.748c-12.887 0-23.331 10.443-23.331 23.323v37.719h13.511V23.925A11.322 11.322 0 0 1-1.233 12.598c6.254 0 11.327 5.065 11.327 11.327v37.117h13.229V23.323C23.323 10.443 12.88 0 0 0" clip-path="url(#B)" style="fill:#fdfdfa;fill-opacity:1;fill-rule:nonzero;stroke:none" transform="matrix(1.33333 0 0 -1.33333 255.712 1003.625)"></path><path d="m0 0 7.037 10.273s-4.644 5.936-20.829 5.936S-33.777 6.192-33.777 6.192s-5.067-12.666 6.333-20.969c0 0 6.896-3.66 16.607-6.193 4.856-1.266 6.263-3.659 6.457-5.735.213-2.287-1.187-4.419-3.289-5.344-3.345-1.472-10.015-2.596-19.494 4.323l-8.443-9.569s9.569-8.163 22.377-8.163S5.629-38.14 5.629-38.14s9.481 11.613.744 22.164c-1.786 2.157-4.083 3.828-6.62 5.012-3.049 1.423-8.216 3.668-12.658 4.772-6.798 1.688-9.613 4.504-7.502 8.163S-9.007 5.911 0 0" clip-path="url(#C)" style="fill:#fdfdfa;fill-opacity:1;fill-rule:nonzero;stroke:none" transform="matrix(1.33333 0 0 -1.33333 195.425 943.43)"></path><path d="M390.091 428.695h-4.501v27.401h4.501z" clip-path="url(#D)" style="fill:#282627;fill-opacity:1;fill-rule:nonzero;stroke:none" transform="matrix(1.33333 0 0 -1.33333 0 1122.52)"></path><path d="M399.658 428.695h-4.138v27.862h4.138z" clip-path="url(#E)" style="fill:#282627;fill-opacity:1;fill-rule:nonzero;stroke:none" transform="matrix(1.33333 0 0 -1.33333 0 1122.52)"></path><path d="M409.321 428.695h-4.404v27.862h4.404z" clip-path="url(#F)" style="fill:#282627;fill-opacity:1;fill-rule:nonzero;stroke:none" transform="matrix(1.33333 0 0 -1.33333 0 1122.52)"></path><path d="M418.8 428.695h-4.315v27.862h4.315z" clip-path="url(#G)" style="fill:#282627;fill-opacity:1;fill-rule:nonzero;stroke:none" transform="matrix(1.33333 0 0 -1.33333 0 1122.52)"></path><path d="m0 0 9.827 20.887L4.1-10.021A604 604 0 0 1 0 0m1.664-23.189L-6.381-24l-2.89 4.286L-3.053-6.5a403 403 0 0 0 5.237-13.867zM-19.743-4.183l8.935 15.726A375 375 0 0 0-5.846.289a920 920 0 0 1-6.937-14.796zm2.303-20.938-10.065-1.018-2.422 4.026 7.413 13.05 7.346-10.748a212 212 0 0 1-2.272-5.31m-19.826 15.16 3.514 5.957 3.357 6.462 4.39-6.425-7.279-12.597zm-2.251-17.389-1.374-.14-3.557 5.377 3.899 6.603 3.885-6.907zm-12.374 16.491c1.494 2.888 2.897 5.555 4.197 8.036l4.197-7.457-3.982-7.257zm-1.753-17.924-2.444-.245-2.859 4.382c1.493 2.964 2.919 5.756 4.27 8.386l4.323-6.521zm-15.65 22.031 3.795 6.796 7.428-11.193c-1.418-2.705-2.785-5.304-4.04-7.704zm1.21-23.487-2.027-.208-6.559 10.481 4.219 7.554 7.242-12.338c-1.181-2.25-2.161-4.13-2.875-5.489m-15.175-1.537 3.722 6.663 3.788-5.906zm-7.004-.706.141.253-5.935 9.433 6.767 12.872 6.247-9.73-7.079-12.575.142-.223zm-11.499-1.166 2.83 5.385 2.95-4.799zm-6.588-.662-.646-.066c-.653 1.218-1.53 2.845-2.57 4.783l5.63 12.732 3.64-5.928zm-10.332 17.968 5.259 11.669 3.967-6.454-5.378-12.375c-1.196 2.221-2.488 4.635-3.848 7.16m-.111-16.274-4.22 6.692 1.709 3.781 3.967-7.123zm-8.884-3.647 2.035 4.516a913 913 0 0 0 2.555-4.056zm-6.336-.646-3.736-.371-4.62 8.638 6.521 13.221c2.452-3.922 4.769-7.628 6.783-10.844-2.259-4.858-4.049-8.698-4.948-10.644m-13.088-1.322 1.582 3.201 1.516-2.882zm-5.392-.542-.565-.06-4.842 9.084c1.433 2.83 3.03 5.973 4.716 9.277l4.747-9.016c-2.147-4.777-3.484-7.911-4.056-9.285m-.327-.795q0 .002.067.171l.111-.216zm-10.176-.268a461 461 0 0 0 1.932 3.833l1.827-3.454zm-6.314-.639-3.892-.393-4.776 10.05 6.871 13.831 6.967-13.185zm-14.172-1.433 2.109 4.249 1.79-3.856zm6.306 36.396 2.614-4.947a1342 1342 0 0 1-6.521-13.83l-2.792 5.868zm-10.978-34.234-3.187 6.93 4.071 7.858 2.956-6.358c-1.523-3.313-2.83-6.195-3.84-8.43m-8.601-3.499 2.347 4.523 1.901-4.099zm3.802 30.536 3.001-6.47-4.055-7.851-2.808 6.098zm-9.076-29.83-2.459 5.296 4.739 10.072 2.674-5.786zm-8.706 18.755 4.524 10.577 3.224-6.975-4.769-10.02zm-3.141-19.298-2.853 5.289 3.075 7.183 2.8-6.114zm-10.749 19.936 3.246 9.404 4.821-10.532-3.276-7.755zm-1.196-23.041-1.938-.193-3.113 5.11 3.751 10.882 4.457-8.326zm-15.323 21.764 4.464 11.862 5.987-11.164-3.892-11.461zm2.377-23.071-1.033-.104c-1.084 1.59-3.431 5.022-6.499 9.455l2.718 7.25 6.723-10.993zm-37.102-18.576s-2.63 4.13-3.566 9.009l26.272 2.623s.795-2.861 3.848-5.906c3.045-3.052 6.099-5.89 6.099-8.527 0 0-28.902-.95-32.653 2.801m-7.317 15.107 2.927 12.799 3.766-7.265-1.924-6.076-4.323-.438q-.178.423-.446.98m-3.654 8.008a2425 2425 0 0 1-8.238 17.782l2.459 10.808 8.542-16.461zm-2.199-9.619-8.98-.914-2.31 5.147 3.231 14.262c3.224-6.775 6.321-13.207 8.356-17.203zm-2.971-21.682c-11.253-4.984-25.351-5.17-30.639-5.036-1.649.037-2.86 1.642-2.348 3.216 1.062 3.283 5.267 6.537 5.267 6.537l15.412 10.057 14.002 1.062c-.75-2.585-1.694-15.836-1.694-15.836m-27.52 29.771-5.496 13.244 4.724 14.402 6.239-13.987zm-4.672-11.647-4.36-.438-2.919 5.689 3.78 11.498 5.289-12.293zm-15.205 20.716 5.021 11.558 3.417-7.941-3.922-12.419zm.268-22.224-10.384-1.055 7.115 16.379 5.036-9.753zm-12.293 32.809 5.868-11.365-5.586-12.263zm13.815 8.482.528-1.233-5.393-11.848-5.088 9.924zm7.532 2.384 5.289 1.679-3.499-11.074-2.867 6.915-.787 1.893zm29.11 1.24 2.547 6.463 1.701-.201.528-1.01-2.473-10.072a501 501 0 0 1-2.303 4.82m-7.191-18.197 4.368 11.06c.944-2.028 1.954-4.175 2.994-6.373l-3.35-13.608zm-3.141 6.982-6.269 13.942 7.985 2.533 2.629-5.638zm.393-13.935 4.672-10.473-1.5-6.121-7.339-.742-1.374 3.305zm-3.751 43.208 20.969-.661c.706-.023.862-1.003.2-1.234-6.915-2.436-23.739-8.192-36.93-11.409zm25.047-6.462.527.163 8.498-14.618-1.642-7.183-8.705 15.807zm8.616 2.733 3.276-4.627-1.189-5.2-5.311 8.802zm9.181-32.274-2.214-6.989-4.315 7.85 1.701 7.451zm-1.753 21.778 5.979-8.452-2.005-6.321-5.333 8.839zm3.157 13.846 4.13 1.308 4.063-6.649-3.298-10.406a671 671 0 0 1-6.462 8.869zm4.806-46.298-2.556-6.96-2.51 4.554 2.325 7.123zm-.439 11.796 2.229 6.863 3.32-4.694-2.592-7.079zm7.517 23.115 3.566-5.831-3.231-8.824c-1.159 1.642-2.325 3.298-3.491 4.94zm5.504 16.899 3.425 1.084 1.998-3.729-4.955-13.518-3.736 6.128zm.914-49.7-3.09-8.304-4.227 7.012 2.801 7.68zm6.344-8.973-4.487-.453 1.671 4.442zm-4.049 15.153a1996 1996 0 0 1-4.531 6.485l3.038 8.334 4.353-7.123zm9.872 26.591-4.598-12.382-4.375 7.183 4.761 13.058zm.676 21.296 4.196 1.33 1.947-4.264-4.242-11.417-4.249 7.896zm9.24-9.693 5.251-11.453-3.446-10.155-5.846 10.845zm5.392 14.328 2.882.914 3.484-7.525-3.996-11.788-5.133 11.053zm15.473-26.28-4.501-10.644-5.163 11.112 4.033 11.692zm.111 28.798 6.314-13.6-3.625-8.572-5.913 12.835zm13.764 6.789.653-1.225-5.221-12.346-5.007 10.533zm-.862-34.584-3.877-8.148-3.365 7.316 3.654 8.549zm9.062 19.068-5.92-12.457-3.788 7.977 5.4 12.635zm-.052 18.101 5.72 1.812 1.998-3.803-4.71-9.893-4.486 8.422zm7.086-31.405-6.536-12.649-3.194 6.715 6.054 12.879zm7.985 15.45-4.873-9.426-3.832 7.205 4.657 9.909zm2.451 21.503 2.778.884V25.515l-2.191-4.242-4.227 7.903zm-1.901-41.097-2.518 4.723 4.865 9.367 2.406-4.561a662 662 0 0 1-4.753-9.529m8.838 26.598h3.448c.274-.453.571-.958.898-1.5-1.649-2.763-3.461-6.047-5.355-9.634l-2.422 4.524zm6.381-36.953-4.702-9.374-7.012 13.147 4.725 9.508zm1.003 30.469c2.236-3.654 4.962-8.067 7.881-12.769l-5.786-11.52-7.116 13.326zm7.688 112.598s6.663-1.968 6.663-11.728h-14.262s1.219 11.074 7.599 11.728m2.875-120.011-8.089 12.813.497 1.084h6.21l4.397-7.888zm.764-10.897c1.553-2.496 3.127-5.021 4.68-7.516a766 766 0 0 1-6.143-12.992l-4.605 8.609a3158 3158 0 0 0 6.068 11.899m9.916 3.15a544 544 0 0 1-2.547-5.148l-4.635 7.347c.988 1.916 1.946 3.78 2.86 5.556zm-1.588 44.135h5.429l-.164-15.36h27.245l.164 15.36h4.435V27.564h-37.109zm12.515 12.754c1.456 0 1.137-6.945 1.137-6.945h-2.393s-.348 6.945 1.256 6.945m1.322-23.033h-3.098V44.9h3.098zm12.166 23.033c1.456 0 1.137-6.945 1.137-6.945h-2.399s-.341 6.945 1.262 6.945m1.323-23.033h-3.097V44.9h3.097zm2.459 68.425c1.448 0 1.129-6.938 1.129-6.938h-2.392s-.35 6.938 1.263 6.938m1.314-23.034h-3.098v11.075h3.098zm-31.099 44.849h1.827V94.273h7.62l.543-5.719s-5.252-4.598-5.252-10.792c0-7.971 14.262-10.318 14.262-10.318s-5.535 3.38-5.535 6.47c0 3.098 7.503 3.283 7.503 3.283l-4.13 5.445c-.772 2.956-.075 8.853.327 11.631h5.585V74.575h12.947V95.87s.84 12.272-4.449 15.131a2.54 2.54 0 0 1-2.058.148c-2.644-.928-4.204-3.907-5.125-6.997v20.709h13.044V50.182h-4.375v.29s.029 12.27-5.267 15.131a2.52 2.52 0 0 1-2.057.148c-6.099-2.132-6.433-15.279-6.433-15.279s.297 12.27-4.991 15.131a2.53 2.53 0 0 1-2.058.148c-6.105-2.132-6.44-15.279-6.44-15.279v-.29h-5.488zm6.61 0h11.922V99.814h-11.922zm0 27.825h11.922V129.57l-11.922-.059zm8.356 11.491c2.956-.238 3.566-6.284 3.566-6.284h-7.978s1.456 6.522 4.412 6.284m16.98-4.613 4.315 2.927v-26.414h4.695v29.585l38.84 26.287h-47.85v2.437c.706 14.343 11.944 16.185 15.636 16.4a12.5 12.5 0 0 1-.721-4.204c0-6.937 5.623-12.568 12.568-12.568s12.575 5.631 12.575 12.568c0 4.278-2.139 8.059-5.4 10.325.127.089.245.185.342.282.914.914.936 2.941.824 4.315h16.386v-89.653h-52.21zm24.066 104.866c8.023 6.187 8.023 16.044 8.023 16.044s15.368-4.717 15.092-28.01h-29.867c.216 2.882 1.434 7.858 6.752 11.966m10.83-57.848c0-4.093-3.32-7.405-7.413-7.405s-7.413 3.312-7.413 7.405a7.41 7.41 0 0 0 7.413 7.413 7.41 7.41 0 0 0 7.413-7.413m-3.937 20.694c.461 11.736-.705 17.077-1.827 19.416h21.251v-19.416zm25.604-124.23c1.605 0 1.263-6.938 1.263-6.938h-2.392s-.327 6.938 1.129 6.938m1.775-23.034h-3.097v11.075h3.097zm3.202 44.849v-18.629c-.951 2.266-2.348 4.205-4.383 4.917a2.54 2.54 0 0 1-2.058-.148c-5.288-2.859-4.456-15.131-4.456-15.131V74.575h12.947v19.698h7.071c.401-2.778 1.1-8.675.327-11.631l-4.13-5.445s7.509-.185 7.509-3.283c0-3.09-5.533-6.47-5.533-6.47s14.262 2.347 14.262 10.318c0 6.194-5.26 10.792-5.26 10.792l.543 5.719h5.392v30.588h2.362V50.182h-4.821v.111s.031 12.271-5.258 15.131a2.56 2.56 0 0 1-2.066.148c-6.098-2.138-6.432-15.279-6.432-15.279s.297 12.271-4.992 15.131a2.54 2.54 0 0 1-2.057.148c-6.106-2.138-6.44-15.279-6.44-15.279v-.111h-5.37v74.679zm5.533 0h11.914V99.814h-11.914zm0 27.825h11.914v-22.633l-11.914-.059zm7.279 11.491c2.956.238 4.412-6.284 4.412-6.284h-7.977s.609 6.046 3.565 6.284m-6.588-144.33a34 34 0 0 0 1.909 2.562h8.453l-5.422-9.893zm-2.786-5.214 4.933-7.213-6.649-12.122-4.412 7.308c2.445 4.673 4.472 8.602 6.128 12.027m-15.724 5.228 1.426 2.548h8.98l1.82-2.666c-1.783-3.053-3.759-7.056-5.92-11.462zm25.329 37.616c1.456 0 1.137-6.946 1.137-6.946h-2.4s-.342 6.946 1.263 6.946m1.322-23.042h-3.098v10.466h3.098zm-14.811 23.042c1.456 0 1.136-6.946 1.136-6.946h-2.391s-.35 6.946 1.255 6.946m1.322-23.042h-3.098v10.466h3.098zm18.674-5.081.163 15.546h4.88V27.564h-37.436V44.9h5.311l-.163-15.546Zm-34.829-14.863 6.588-11.706a265 265 0 0 0-3.097-6.083c-.439-.832-.869-1.664-1.308-2.488l-7.323 11.067zm-15.562 6.544.729 1.374h10.376l1.255-2.243-5.415-9.626zM-79.01 9.611l3.172 6.017 6.841-10.317-3.632-6.448zm-3.009-5.726 6.241-10.63-4.338-7.702-6.27 10.027zm-5.837 46.297c3.461 10.072 7.71 13.823 10.049 15.182V50.182Zm8.519-29.287-2.985-5.691-4.28 7.205h6.262zm-11.134 8.645v5.444c0 3.335.357 6.663 1.084 9.916h11.58V29.54Zm18.012 20.642v14.603c2.548-1.708 5.928-5.63 8.319-14.603zm9.485-5.282a94 94 0 0 0 1.003-7.108l.773-8.252h-11.261V44.9Zm-13.183 36.003c6.565 0 12.374 3.335 15.895 8.453V54.684c0 3.862-7.049 14.365-12.605 17.261a4.96 4.96 0 0 1-4.145.194c-10.428-4.167-14.425-14.73-15.895-20.784v-1.173h-.268q.123.547.268 1.173v39.331c3.394-5.861 9.626-9.783 16.75-9.783m14.476 19.944c0-8.148-6.595-14.744-14.737-14.744-8.147 0-14.744 6.596-14.744 14.744 0 8.141 6.597 14.737 14.744 14.737 8.142 0 14.737-6.596 14.737-14.737m-14.476 19.981c-7.131 0-13.364-3.93-16.75-9.782v13.815h32.645v-12.478c-3.521 5.11-9.33 8.445-15.895 8.445M-94.615 8.734l4.188 9.479 5.111-8.706-4.472-8.497zm-2.712-6.128 4.605-7.182-6.737-12.813-3.943 6.262zm-4.694 17.969.825 1.834h6.305l-3.394-7.806zm-2.831-6.262 3.848-5.979-5.979-13.764-3.944 6.269zm-15.553 1.583 3.217 6.513h7.145l1.775-2.77-5.808-13.793zM-127.877.742l4.954 10.05 6.38-10.384a2690 2690 0 0 1-5.206-11.045c-1.998 3.721-4.078 7.576-6.128 11.379m-7.51 13.92a96 96 0 0 0 4.093 7.747h1.24l3.818-6.224c-1.701-3.298-3.32-6.455-4.85-9.486a3620 3620 0 0 0-4.301 7.963m4.613-19.795 6.298-11.312c-.661-1.405-1.299-2.785-1.923-4.116l-6.722 10.666zm117.159 22.611L-23.183.921l-4.523 6.707 7.681 14.781h3.951a239 239 0 0 0 2.459-4.931m8.98 4.931h9.544c-1.329-2.688-4.3-8.72-7.724-15.821-1.568 3.596-3.216 7.242-4.821 10.54zm7.896 106.114s6.663-1.968 6.663-11.728H-4.338s1.218 11.074 7.599 11.728M-275.401 28.79l-9.003 4.969V90.76h9.003zm-38.001 18.763-8.408 2.636c-2.347.825-4.398 2.05-4.398 4.539V90.76h12.806zM15.739 25.781l-.468 88.948S16.586 140.72.542 144.471c0 0-10.793-2.905-13.229-14.351l-7.242-.037v29.919q.002 1.226-.23 2.429c-.691 3.573-2.69 11.476-9.292 13.986a4.66 4.66 0 0 1-3.224.06c-6.165-2.169-8.55-10.399-9.248-13.979a13.4 13.4 0 0 1-.237-2.496v-30.038l-3.907-.022v97.334h-1.62v25.188h-3.097c-.61 26.926-19.387 34.16-24.275 35.594-.705.2-1.455.237-2.175.059-25.47-6.202-26.897-28.315-26.644-35.653h-3.201v-25.188h-4.175V129.6h-.327v30.402q0 1.26-.245 2.496c-.698 3.58-3.082 11.81-9.24 13.979a4.68 4.68 0 0 1-3.231-.06c-6.597-2.51-8.601-10.413-9.293-13.986a12.8 12.8 0 0 1-.229-2.429v-30.521l-3.098-.015s-4.219 13.415-12.947 15.005c0 0-15.948-2.815-15.948-29.177h-1.596V43.423l-51.134-16.23s-5.422-2.793-12.522 1.924c-7.109 4.716-15.718 7.643-21.066 6.893 0 0-2.162.096-4.226-5.63-1.582-4.398-9.835-3.64-13.556-3.054v69.273h-1.76q.123.234.215.49c2.109 5.912 3.023 8.445 4.642 8.445s6.336-1.827 13.088-6.47c4.955-3.409 9.575-5.897 13.534-7.108 1.671-.513 2.763.609 2.228 2.273-1.047 3.261-1.575 8.601.141 13.415 1.969 5.511 5.415 10.22 7.309 12.552a2.196 2.196 0 0 0 2.986.402l1.055-.75a3.11 3.11 0 0 1 2.845-.41l.029.008c.691.245 1.441.03 1.939-.505.535-.587 1.463-1.367 3.001-2.124 1.552-.773 2.793-2.073 3.431-3.692.736-1.864 1.887-4.278 3.395-5.801a3.25 3.25 0 0 1 3.58-.713c.431.186.847.497 1.293.899 1.329 1.196 2.985 1.983 4.768 2.169l4.041.408a6.43 6.43 0 0 1 3.885 1.843l2.889 2.896c1.33 1.33.245 3.588-1.619 3.388-4.182-.454-9.27-.996-9.923-.996-.952 0-3.492-.616-7.384 1.129-.936.416-.936 1.746.008 2.147 3.669 1.589 11.215 4.858 16.103 10.659 3.796 4.501 6.076 7.851 7.354 9.923a9.34 9.34 0 0 1 1.374 4.873v1.782c0 .988 1.24 1.427 1.857.654l4.085-5.11c1.53-1.909 4.627-1.033 4.895 1.396.274 2.526.193 6.18-.795 11.387 0 0-1.047 3.395-4.91 9.686a13.4 13.4 0 0 0-1.976 6.365c-.088 2.08.179 4.502 1.486 6.329 2.815 3.937 7.74 12.806 7.74 17.032 0 4.219-11.773 8.862-11.773 8.862s-16.512 7.739-26.228 7.739c-5.897 0-11.788-3.58-15.517-6.388a5.91 5.91 0 0 0-7.754.535l-2.919 2.912a5.263 5.263 0 0 0 0 7.435l.609.609a14.4 14.4 0 0 1 4.137 11.565c-.074.713-.148 1.434-.238 2.125-.178 1.455-2.116 1.834-2.822.549l-.245-.609a3.99 3.99 0 0 0-4.034-2.525c-6.157.512-20.025 1.775-23.286 3.075-4.226 1.693-5.021 5.489-5.021 5.489s-.802 3.261-7.398 1.708c-2.734-.638-5.281-1.894-7.532-3.572l-11.996-8.973s-6.492-5.452-18.978-4.761a13.8 13.8 0 0 1-4.092-.394c-2.273-.564-5.438-1.5-8.082-3.714-5.408-4.516-7.918-11.832-9.872-19.506a1.793 1.793 0 0 1 1.887-2.228l9.344.958a11.91 11.91 0 0 0 10.897-5.184c2.266-3.35 5.014-7.584 7.532-10.793 1.493-1.894 4.315-2.013 5.972-.26 1.961 2.058 4.531 5.623 7.078 11.684l3.202 6.284c.319.616.505 1.278.557 1.969.141 1.79.304 5.57-.342 9.329a4.36 4.36 0 0 0 1.664 4.196c1.879 1.434 5.006 3.031 9.418 2.712 0 0 6.047.839 4.501-4.509-1.277-4.405-3.654-11.536-2.673-15.68.341-1.456 1.79-2.355 3.253-2.08 1.857.357 4.947 1.434 9.389 4.494a17.8 17.8 0 0 1 3.402 3.068c1.158 1.367 2.882 3.446 4.464 5.585 1.151 1.568 3.662.817 3.706-1.129.045-1.827-.319-3.937-.995-6.64 0 0 6.336-6.47 20.27-16.044 0 0 1.894-2.184 8.163 4.085l9.976 4.226a3.37 3.37 0 0 0 3.558-.586c2.771-2.474 8.364-7.302 9.827-7.302h5.066c2.563 0 4.219-.988 3.446-4.798-.95-8.468-4.078-24.141-15.553-33.975-12.019-10.31-27.238-17.544-33.782-20.397a27.4 27.4 0 0 1-5.645-3.335c-2.087-1.582-5.281-3.699-8.564-4.768-5.631-1.827-14.069-.706-14.069-.706s-22.239-1.968-31.806-6.328c0 0-4.649-2.957.981-6.76 5.63-3.796 12.107-7.881 12.107-7.881V55.856c-2.986-1.106-9.248-3.661-13.935-7.182l-4.367-.779v48.072h-5.229c-1.315 1.448-2.756 4.338-1.619 9.619 0 0 6.781 12.828 35.49 19.298 0 0 18.651 2.54 23.999 3.096 5.348.566 16.883 1.412 21.11 19.633 0 0 1.968 14.009 7.034 15.063s11.61 1.263 14.009 6.403c2.391 5.14 2.74 8.23 2.74 8.23l-20.121 2.258-10.875 1.79s-24.081 5.801-25.299-9.537c-1.129-14.143 19.706-13.511 19.706-13.511s.067-6.121-3.662-6.752c-3.729-.632-38.142-3.944-44.894-7.176-6.759-3.238-13.511-4.085-13.511-4.085s-8.118-.23-8.816-6.945c0 0-1.293-7.925-9.27-6.937-7.978.981-10.927 3.193-15.287 1.27-2.444-1.078-4.709-4.769-6.225-7.799-1.678-3.35-2.436-7.109-2.005-10.83.394-3.327 1.642-6.775 5.103-7.228 0 0 2.912-.431 8.512 4.68 1.404 1.285 3.655.854 4.442-.884.981-2.169 2.147-5.378 2.942-9.656h-1.635V55.59c-.096.653 0 .876 0 .876s-5.489 3.283-8.489 6.284c0 0 .564 7.978-2.912 8.349-3.469.379-17.916-1.872-17.916-8.349 0-6.47 20.545-16.044 20.545-16.044s-7.502.565-7.502-3.469 1.218-12.01 4.405-16.609l15.39-1.782s6.284-.654 6.284 3.097c0 3.692-12.902 16.661-13.311 17.07.617-.268 37.073-16.431 39.962-18.481 0 0 13.6-6.47 23.925-6.47 6.878 0 15.97-.416 21.266-.698 1.203-.059 1.471-1.73.349-2.154a28.3 28.3 0 0 0-6.796-1.649c-6.47-.757-23.643 2.057-29.273 3.937-5.631 1.879-23.079 2.436-23.079 2.436s-6.751-5.066-15.479-13.786c0 0-9.292-6.38-15.673-9.106 0 0-4.122-2.34-8.817-8.253l-8.066-7.041v-48.504l39.59 4.13s-16.98-5.066-27.587-13.979c-10.599-8.914 3.097-17.923 3.097-17.923s20.174-13.98 30.12-13.98c0 0 3.848 1.501 5.727 7.978 1.872 6.469 5.066 5.719 5.066 5.719s19.142.379 23.078-6.663l3.944-7.034 47.568 1.032s28.241 7.881 28.241 14.351c0 0 .75 3.759-15.198 3.759-15.955 0-52.544 1.969-52.544 1.969s-7.317 0-12.858 8.348l40.445-1.597s8.252.096 12.85 3.194c0 0 6.38.371 8.542-1.782 2.154-2.162 4.969-6.285 11.536-3.848 0 0 7.323.847 8.445.847 1.129 0 4.226 1.217 1.129 3.468s-4.695 2.912-4.695 2.912h-9.099s-4.315.557-4.315 2.436 11.914 1.129 11.914 1.129 4.553-2.303 6.849 0c0 0 1.411 11.164-9.568 11.818-10.978.661-23.739-.282-23.739-.282s-7.13 2.815-10.599 6.291l43.437 3.751 96.637 9.567s35.75 4.13 41.944 4.13c0 0-6.38-3.937-7.791-7.413-1.404-3.468-7.599-5.631-7.599-5.631s-36.307 1.034-41.655-4.315c-5.349-5.348-4.033-11.914-4.033-11.914s2.621-14.075 10.881-13.608c0 0 7.458 1.27 14.632 8.446 0 0 13.891 1.5 13.891-2.622 0-4.13-4.315-5.541-4.315-5.541h-8.26s-31.146-11.819-38.001-12.948c-6.849-1.121-8.439-1.403-11.818.283s-11.446 5.066-14.922 5.066c-3.469 0-21.764-2.154-22.796-13.229 0 0 1.404-9.002 12.857-10.979l22.699.943s5.446-.378 7.696-1.411 7.598-4.218 15.011-.935 9.1 7.969 17.924 9.195c8.817 1.219 23.925 1.872 23.925 1.872s16.044 7.599 22.893 12.672c0 0 7.598 2.058 14.075 1.308 0 0 13.794-8.253 20.828-8.253s15.576 7.695 15.576 7.695 5.63 5.155 5.63 7.784c0 2.63-8.26 10.696-12.672 12.762-4.404 2.064-9.849 1.5-21.578-6.478 0 0-8.445 6.76-13.043 6.291-4.598-.467-10.221-4.597-10.221-4.597s-3.193-.379-4.412 1.783c-1.218 2.154 0 4.13 0 4.13s7.881 7.881 10.318 11.067c2.443 3.194 14.171 2.532 14.171 2.532l24.862 4.317s6.76 4.412 6.002 9.76c-.751 5.347-12.383 6.848-12.383 6.848L5.979-28.82z" clip-path="url(#H)" style="fill:#282627;fill-opacity:1;fill-rule:nonzero;stroke:none" transform="matrix(1.33333 0 0 -1.33333 632.242 734.928)"></path><path d="M0 0s-38.817 14.425-62.46 21.273c-23.65 6.849-41.566 10.132-41.566 10.132-7.978 0-7.041 4.597-7.041 4.597 8.727-.869 21.488-6.662 21.488-6.662v44.477c56.674-8.259 93.85-30.847 93.85-30.847l-31.152-7.153zm-122.054 42.851h-89.795s-18.153-.839-26.88-5.066v40.534s7.323 8.022 72.198 8.022c64.882 0 70.795-8.022 70.795-8.022v-41.41s-9.576 5.942-26.318 5.942m-108.275-11.446s-17.923-3.283-41.566-10.132C-295.538 14.425-334.355 0-334.355 0l26.881 35.817-31.152 7.153s37.176 22.588 93.85 30.847V29.34s12.761 5.793 21.482 6.662c0 0 .942-4.597-7.035-4.597m246.76 8.631C-13.221 67.623-90.158 80.569-90.158 80.569s3.379 12.39-74.68 12.39c-78.066 0-80.131-12.761-80.131-12.761-91.949-18.391-106.3-40.957-106.3-40.957l33.307-7.368S-341.791.067-350.615-11.944c0 0 65.395 23.925 91.385 30.305 25.989 6.381 29.577 7.532 31.835 7.532 2.251 0 6.967-.847 11.751 10.979l97.438-.208c.468-2.935 1.441-5.133 2.533-6.767 1.753-2.629 4.65-4.271 7.799-4.516l7.02-.543C-32.519 7.524 15.673-12.189 16.423-12.494l-32.459 44.485z" clip-path="url(#I)" style="fill:#282627;fill-opacity:1;fill-rule:nonzero;stroke:none" transform="matrix(1.33333 0 0 -1.33333 625.566 369.876)"></path><path d="M0 0v-5.63h-16.326V0h5.132v20.62h-5.764v4.716l5.764 2.251h6.269V0Z" clip-path="url(#J)" style="fill:#282627;fill-opacity:1;fill-rule:nonzero;stroke:none" transform="matrix(1.33333 0 0 -1.33333 366.564 297.916)"></path><path d="M0 0s-.884-2.771-5.452-2.771c-4.575 0-4.575 5.475-4.575 5.475s.282 4.986 4.991 4.986C-.319 7.69.424 2.111 0 0m6.627 3.21c-.11 2.245-.537 4.109-1.853 5.917-1.645 2.267-4.577 4.527-9.695 4.527-10.244 0-11.42-9.757-11.42-12.143 0-2.052 1.593-8.327 7.516-10.023 1.711-.497 3.524-.452 5.264-.052 1.082.244 2.405.622 3.48 1.163 0 0-1.023-7.72-5.732-7.72-4.708 0-6.302 2.179-6.302 2.179l-3.539-5.06s3.604-3.364 10.258-3.364c6.646 0 12.257 7.7 12.257 14.509 0 4.407-.139 8.045-.234 10.067" clip-path="url(#K)" style="fill:#282627;fill-opacity:1;fill-rule:nonzero;stroke:none" transform="matrix(1.33333 0 0 -1.33333 388.847 278.496)"></path><path d="m0 0-3.87 4.855s5.277 5.63 12.525 5.63 9.571-5.964 9.571-5.964 3.448-9.799-5.49-14.162c-8.936-4.362-8.513-6.333-8.513-7.881H18.88v-6.263H-3.519S-5.207-12.596 1.688-8.796c6.897 3.8 12.112 6.157 9.923 10.907C9.746 6.157 3.026 2.393 0 0" clip-path="url(#L)" style="fill:#282627;fill-opacity:1;fill-rule:nonzero;stroke:none" transform="matrix(1.33333 0 0 -1.33333 403.997 274.27)"></path><path d="M0 0c-3.149 0-5.696 5.073-5.696 11.328 0 6.261 2.547 11.327 5.696 11.327s5.697-5.066 5.697-11.327C5.697 5.073 3.149 0 0 0m.037 28.946c-9.255 0-12.211-7.829-12.211-17.485 0-9.663 3.024-17.492 12.211-17.492 8.832 0 12.204 7.829 12.204 17.492 0 9.656-3.372 17.485-12.204 17.485" clip-path="url(#M)" style="fill:#282627;fill-opacity:1;fill-rule:nonzero;stroke:none" transform="matrix(1.33333 0 0 -1.33333 449.596 298.946)" data-source="https://football-logos.cc"></path><!-- source: https://football-logos.cc --></svg>