<svg xmlns="http://www.w3.org/2000/svg" viewBox="67.89 95.36 887.97 1312.32"><!-- Source: https://football-logos.cc --><path fill="#f9cf1b" fill-rule="evenodd" d="m457.12 144.94 13.03-.05a.679.674 86.65 0 1 .67.6c.76 6.94-3.37 14.57-7.86 19.27-5.54 5.8-15.66 9.61-23.52 10.63-12.91 1.67-27.36 1.12-39.62-3.74q-4.88-1.93-10.5-6.24c-11.26-8.63-14.74-23.06-12.58-36.67 2.64-16.56 18.07-28.2 33.58-31.73q6.91-1.57 15.96-1.65 15.24-.13 28.38 6.9a1.675 1.673 33.402 0 0 2.1-.43l3.26-4.1a.801.789-70.419 0 1 .62-.3h8.55a.8.8-53.477 0 1 .8.8v25.53a1.035 1.029 87.253 0 1-.93 1.03l-11.1 1.06a.671.661-11.265 0 1-.7-.46q-3.98-12.6-16.4-17.22c-6.02-2.25-14.78-2.2-20.98.76q-11.62 5.54-13.59 19.86c-1.36 9.88-.15 19.86 6.26 27.95 7.12 9.02 21.22 10.38 31.19 6.05q9.26-4.02 11.69-13.06 1.01-3.78 1.04-4.19a.664.655 1.906 0 1 .65-.6M515.43 98.18a.402.397-25.274 0 1 .26-.71q26.16.23 63.81.13 4.17-.02 9.42.74c24.96 3.6 36.18 25.99 28.53 48.89-6.62 19.84-25.54 27.13-45.82 26.96-18.72-.15-37.45.04-56.12-.02a.212.208 24.845 0 1-.14-.37l15.74-13a.908.899 70.553 0 0 .33-.7v-48.72a.917.897-71.571 0 0-.35-.72zm42.381 11.452-.182 51.94a1.14 1.14-20.517 0 0 1.136 1.144l12.01.042a21.19 19.99-89.8 0 0 20.064-21.12l.042-11.84a21.19 19.99-89.8 0 0-19.916-21.26l-12.01-.042a1.14 1.14 11.436 0 0-1.144 1.136M507.944 162.286a12.96 12.78-3.6 0 1-12.132 13.569 12.96 12.78-3.6 0 1-13.736-11.941 12.96 12.78-3.6 0 1 12.132-13.569 12.96 12.78-3.6 0 1 13.736 11.941M655.583 161.912a12.84 12.7-5.4 0 1-11.588 13.852 12.84 12.7-5.4 0 1-13.978-11.436 12.84 12.7-5.4 0 1 11.588-13.852 12.84 12.7-5.4 0 1 13.978 11.436M281.927 206.052c22.611-.684 46.438 9.397 47.227 35.492.79 26.094-22.384 37.597-44.995 38.281s-46.437-9.397-47.227-35.492 22.385-37.597 44.995-38.281m-16.53 36.82c0 10.751 3.565 27.133 17.51 27.134 13.946 0 17.511-16.382 17.512-27.133 0-10.751-3.565-27.133-17.511-27.134-13.945 0-17.511 16.382-17.511 27.133M425.91 283.45l-1.25 14.48a.822.812 89.163 0 1-.71.74c-8.32 1.07-19.34 1.57-25.29-3.99-4.42-4.11-5.18-8.57-5.57-14.53a.54.54-4.678 0 0-.59-.5c-13.76 1.25-27.76-.92-38.04-7.52q-13.55-8.7-14.73-26.17-1.5-22.07 18.12-33.13 5.21-2.94 8.72-3.97 17.87-5.3 37.14-.52 13.77 3.42 22.79 14.94c6.63 8.47 7.17 21.4 4.26 31.02-2.95 9.78-11.31 17.8-20.96 21.12a1.301 1.289 75.301 0 0-.85 1.47q1.34 7.04 7.61 7.02 4.56-.01 8.8-.94a.455.454-3.796 0 1 .55.48m-25.5-25c5.15-10.88 4.74-38.43-10.44-42.17-9.1-2.25-15.66 2.53-19.1 10.85-3.94 9.51-3.99 21.83-.07 31.65a.655.649 65.213 0 0 .91.34q13.99-7.23 28.12-.47a.438.425 25.101 0 0 .58-.2m-24.45 7.07a.745.744-41.328 0 0-.08 1.24q7.91 5.99 16.13 1.92a.892.886-28.699 0 0 .37-1.25c-3.66-6.12-11.15-4.92-16.42-1.91M682.01 240.89a.152.148 76.366 0 1 .13-.22h37.09a.67.67-60.908 0 1 .67.67v35.87a.51.5 0 0 1-.51.5h-9.77a1.427 1.417-16.527 0 1-1.19-.64l-1.95-2.97a1.358 1.353-30.007 0 0-1.73-.46q-9.13 4.54-19.26 5.64c-11.98 1.3-24.71.59-35.81-4.46-7.64-3.46-14.96-9.81-17.54-17.94-3.92-12.32-2.29-25.68 6.31-35.38q3.67-4.14 10.4-8.24c9.21-5.62 20.51-7.05 31.64-6.73q12.53.37 23.78 5.51a.718.714-60.932 0 0 .9-.26l2.42-3.61a.944.933-72.973 0 1 .78-.42h9.81a.45.45.038 0 1 .45.45v21.81a.77.76 0 0 1-.77.76h-9.57a1.287 1.284-13.743 0 1-1.14-.69c-5.75-10.95-19.06-14.73-30.89-13.02-11.33 1.64-17.32 11.17-17.81 21.94-.39 8.45.55 16.62 6.21 22.86 6.98 7.72 19.91 8.51 29.33 5.12a1.629 1.627 79.997 0 0 1.07-1.53v-11.79a2.641 2.612 20.379 0 0-.93-2q-6.48-5.4-11.28-9.76-.57-.52-.84-1.01M232.24 277.06a.473.47-25.538 0 1-.3.84q-32.39-.21-50.19-.16-1.4.01-.98-.87a.398.261-19.198 0 1 .1-.13l11.48-9.49a1.969 1.965 70.561 0 0 .73-1.53V239.4a.218.218-28.221 0 0-.4-.12q-11.31 17.2-22.68 37.4a1.517 1.502 14.445 0 1-1.32.77h-6.46a1.173 1.15-16.042 0 1-.98-.53l-23.51-37.12a.407.407-61.279 0 0-.75.22v24.91a2.166 2.15 19.34 0 0 .82 1.69l12.83 10.22a.557.552 64.213 0 1-.34.99h-39.76a.645.643-64.838 0 1-.41-1.14l11.86-9.8a2.533 2.53-19.648 0 0 .93-1.96v-43.41a2.186 2.178-69.225 0 0-.73-1.63l-12.69-11.38a.528.526 65.941 0 1 .35-.92h34.85a1.173 1.15-16.042 0 1 .98.53l24.7 37.52a.566.561 44.122 0 0 .95-.01l22.95-37.21a1.5 1.485 15.458 0 1 1.25-.7q18.44-.16 36.48-.07.19 0 .34.15.32.35-.08.66-7.4 5.63-13.67 10.77a1.156 1.13 70.914 0 0-.42.89v45.06a1.4 1.384 19.408 0 0 .53 1.09zM486.9 207.64a.661.66-64.801 0 1 .42 1.17l-12.29 10.15a1.03 1.03-19.623 0 0-.38.8q-.14 17.61.03 28.49c.13 8.89 2.94 17.85 12.7 19.83q6.85 1.39 12.44-1.68c6.45-3.54 7.28-10.24 8.02-17.05q.32-2.89.2-7.23-.26-9.99.13-20.96a3.319 3.314 23.525 0 0-.97-2.46l-10.35-10.35a.448.445-22.362 0 1 .32-.76h35.93a.504.503 13.411 0 1 .45.73c-1.49 2.89-5.87 6.28-10.3 10.21a2.746 2.711 69.408 0 0-.91 2.04q.13 19.88.13 20.18-.14 9.58-1.61 17.4c-2.25 12.01-12.84 19.5-24.43 20.99-22.29 2.86-46.51-2.11-47.52-29.51q-.53-14.37-.09-29.67a1.049 1.04 20.306 0 0-.4-.86l-12.87-10.25a.68.677 64.261 0 1 .42-1.21zM621.21 255.15v21.34a1.2 1.19 90 0 1-1.19 1.2h-85.53a.479.478-64.547 0 1-.3-.85l12.56-10.38a1.203 1.199 70.417 0 0 .44-.93v-45.38a.502.49 20.346 0 0-.18-.38l-12.55-11.26a.499.497 65.871 0 1 .33-.87h85.39a.63.62-90 0 1 .62.63v21.85a.601.597-80.626 0 1-.79.57q-2.37-.8-4.25-2.16-6.9-5.01-12.22-8.6a5.601 5.577 61.93 0 0-3.13-.96H573.8a.51.5-90 0 0-.5.51v14.91a.75.75-45 0 0 .75.75h27.19a.81.81 89.947 0 1 .81.81v9.45a.63.63 36.836 0 1-.63.63h-27.49a.54.54 81.83 0 0-.54.54v18.92a.64.64-15.149 0 0 .64.64h28.24a1.775 1.76 28.735 0 0 .94-.27l17.41-11.03a.383.382-16.439 0 1 .59.32M827.83 207.73a.355.351-64.847 0 1 .22.62l-12.41 10.86a1.998 1.969 69.794 0 0-.68 1.5q.01 2.55-.11 26.03-.04 6.78-1.9 13.96-1.34 5.16-5.48 9.99c-5.05 5.9-13.45 8.16-21.95 9.03-11.88 1.22-24.92.17-34.8-6.66-7.67-5.29-10.82-15.32-11.02-24.32q-.34-15.1-.05-28.39a1.68 1.675 20.077 0 0-.63-1.35l-13.3-10.6a.449.449 64.312 0 1 .28-.8h51.76a.619.616 25.001 0 1 .4 1.09l-12.23 10.1a1.809 1.794 69.09 0 0-.65 1.47q.33 6.42.11 28.24-.02 1.77.63 5.97 1.62 10.47 11.43 13.07c8.08 2.13 18.45-.24 21.36-8.77q1.72-5.03 1.81-12.03.33-25.37.35-26.4a1.199 1.19 23.747 0 0-.35-.89l-11.07-11.07a.511.508-27.758 0 1 .27-.86q.17-.03.43-.03 36.59.22 37.58.24M901.067 220.44l21.152 45.122a.5.5-10.401 0 0 .114.153l12.583 11.278a.48.48 9.261 0 1-.321.837H884.01a.48.48-39.538 0 1-.34-.82l10.649-10.639a.48.48 35.568 0 0 .102-.53l-2.256-5.221a.48.48-25.504 0 0-.441-.29h-31.779a.48.48 20.814 0 0-.435.276l-2.528 5.371a.48.48 59.111 0 0 .135.579l13.139 10.469a.48.48-77.889 0 1-.299.855H825.95a.48.48 1.051 0 1-.292-.862l13.886-10.602a.5.5-65.585 0 0 .136-.163l23.721-46.292a.48.48-86.96 0 0-.088-.558L852.42 208.52a.48.48 15.691 0 1 .34-.82h57.124a.48.48-40.675 0 1 .375.779l-9.133 11.458a.48.48-14.186 0 0-.059.503m-23.561 4.574a.61.61-62.816 0 0-1.112-.018l-11.205 23.845a.61.61 30.546 0 0 .552.869h21.482a.61.61 76.012 0 0 .56-.851zM955.29 343.98a.57.56 0 0 1 .57.56v819.2a1.551 1.528-14.456 0 1-.81 1.35q-48.43 26.36-109.37 59.83-45.14 24.79-91.41 50.15-88.02 48.24-90.76 49.78-7.43 4.15-16.92 9.11-10.59 5.54-16.16 8.72c-11.68 6.67-21.21 11.26-30.49 16.76q-3.63 2.15-34.01 18.6c-16.96 9.17-30.05 16.73-45.75 24.94q-7.98 4.17-8.87 4.6a1.101 1.09-42.955 0 1-.98-.03L68.69 1164.57a1.557 1.543-75.715 0 1-.8-1.36V345.14a1.16 1.16-.288 0 1 1.16-1.16zm-844.1 40.44v754.05a.113.108-77.327 0 0 .06.1l398.93 220.13a.865.847-44.377 0 0 .83 0l401.19-219.43a1.151 1.132 76.187 0 0 .6-1.01V384.91a1.02 1.02 44.929 0 0-1.02-1.02H111.72a.53.53-24.667 0 0-.53.53" data-source="https://football-logos.cc"></path><path fill-rule="evenodd" d="M111.19 384.42a.53.53 39.137 0 1 .53-.53h800.06a1.02 1.02 44.983 0 1 1.02 1.02v753.35a1.151 1.132 76.187 0 1-.6 1.01L511.01 1358.7a.865.847-44.377 0 1-.83 0l-398.93-220.13a.113.108-77.327 0 1-.06-.1zm27.02 702.36-.04 23.31a1.93 1.928 14.423 0 0 1 1.69l31.3 17.28a1.13 1.13-47.484 0 0 1.53-.45l8.84-16a.445.443 29.916 0 0-.16-.59l-5.06-3.12a.858.852 32.966 0 1-.26-1.2l.57-.86a1.48 1.466 31.388 0 1 1.94-.46l8.06 4.45a1.048 1.042 30.196 0 1 .39 1.46l-10.87 17.61a1.34 1.339 30.33 0 0 .49 1.87l50.34 27.77a.977.975 30.387 0 0 1.31-.34l9.13-14.81a.736.727 31.963 0 0-.24-1.01l-4.17-2.57a1.955 1.941-71.765 0 1-.92-1.84l.05-.66a1.22 1.216-72.975 0 1 1.8-.96l8.43 4.65a.994.987-59.738 0 1 .36 1.39l-10.78 17.47a1.143 1.142 30.308 0 0 .42 1.6l51.83 28.6a.939.936-59.695 0 0 1.25-.33l9.26-15.01a.67.67-54.221 0 0-.22-.92l-4.76-2.94a1.557 1.555 70.688 0 1 1.34-2.79q2.35.84 9.2 4.64a.663.656 30.671 0 1 .24.92l-11.21 18.16a1.098 1.094-60.007 0 0 .41 1.54l53.56 29.56a.615.602 30.037 0 0 .82-.21l9.67-15.68a.692.689-61.442 0 0-.29-.99l-5.46-2.56a.872.864 28.666 0 1-.37-1.24l.79-1.28a.85.848 28.577 0 1 1.09-.32l9.29 4.37a.942.942 28.502 0 1 .4 1.35l-11.46 18.59a.491.476-59.884 0 0 .17.68l53.87 29.73a.801.798-59.685 0 0 1.06-.28l9.37-15.18a.733.722 32.353 0 0-.23-.99q-3.36-2.19-4.78-3.15-.98-.67-.47-2.02a1.472 1.469-65.264 0 1 2.08-.77l8.3 4.58a1.12 1.114 30.413 0 1 .41 1.56l-11.18 18.12a.671.664 30.251 0 0 .25.93l52.62 29.03a.64.64 70.567 0 0 .87-.25l8.74-15.83a.561.56 30.143 0 0-.2-.75l-4.85-2.99a1.002.993-58.393 0 1-.32-1.37l.67-1.09a1.421 1.411-59.692 0 1 1.88-.5l8.54 4.72a.65.648 30.314 0 1 .24.91l-11.39 18.46a1.12 1.114 30.413 0 0 .41 1.56l47.47 26.19a.7.7 28.175 0 0 .68 0l47.68-26.08a.609.606 59.485 0 0 .22-.86l-11.76-18.56a1.071 1.068-30.616 0 1 .39-1.51l8.63-4.72a1.71 1.71 9.29 0 1 2.32.68l.25.45a1.405 1.397 61.324 0 1-.55 1.9l-5.46 2.98a.586.583 59.344 0 0-.21.83l10.15 16.02a.553.551 59.313 0 0 .74.19l53.08-29.03a.644.633 59.821 0 0 .23-.9l-12.03-18.98a.488.481-30.569 0 1 .18-.68l9.32-5.1a1.735 1.723 58.904 0 1 2.27.57l.34.51a1.202 1.199 59.185 0 1-.43 1.71l-5.74 3.14a.637.632-30.884 0 0-.23.9l10.18 16.08a.481.479-30.625 0 0 .63.16l53.43-29.23a1.265 1.263-30.636 0 0 .46-1.79l-11.74-18.53a.331.328-30.671 0 1 .12-.46l9.08-4.97a1.88 1.88 59.064 0 1 2.47.62l.37.55a1.131 1.127 63.24 0 1-.55 1.68q-3.41 1.25-5.42 3.07a.756.747-37.625 0 0-.13.96l9.87 15.59a.655.653-30.722 0 0 .87.22l53.97-29.52a.511.509-30.328 0 0 .19-.72l-11.94-18.84a.717.712-30.764 0 1 .26-1.01l8.97-4.9a1.638 1.629 61.166 0 1 2.22.65l.3.55a1.3 1.3-88.433 0 1-.52 1.76l-4.95 2.71a1.022 1.018 59.531 0 0-.37 1.44l9.94 15.69a.543.536-30.569 0 0 .72.18l52.97-28.96a1.167 1.166 59.312 0 0 .42-1.65l-11.68-18.45a.305.298-31.239 0 1 .11-.43l9.21-5.04a1.836 1.828 58.914 0 1 2.4.6l.16.23a1.344 1.339 58.863 0 1-.47 1.92l-5.49 3a.675.673 59.855 0 0-.25.95l10.11 15.96a.574.573-30.869 0 0 .76.19l52.68-28.81a.739.734-30.644 0 0 .27-1.04l-11.78-18.6a.861.849 59.775 0 1 .31-1.21l8.6-4.71a1.696 1.687 53.064 0 1 2.01.29l.65.64a.888.881 53.345 0 1-.2 1.4l-5.53 3.02a.623.618 60.988 0 0-.24.85l9.6 16.62a1.004 1.003 60.69 0 0 1.35.38l30.38-16.62a.464.461-13.832 0 0 .25-.41v-84.54a.4.4 81.832 0 0-.4-.4h-19.3a.53.52 0 0 0-.53.52v6.12a.81.81-44.996 0 1-.81.81h-2.7a.66.66 36.842 0 1-.66-.66v-10.34a.44.44 45 0 1 .44-.44h23.37a.59.59-45 0 0 .59-.59V962.8a.41.41-45 0 0-.41-.41h-19.1a.66.65 0 0 0-.66.65v6.66a.45.45-45 0 1-.45.45h-3.33a.46.46 29.829 0 1-.46-.46v-10.78a.53.53-45 0 1 .53-.53h23.35a.55.55 5.855 0 0 .55-.55v-60.52a.47.47-45 0 0-.47-.47h-18.89a.86.86-2.415 0 0-.86.86v6.16a.45.45 25.184 0 1-.45.45h-3.53a.28.28-45 0 1-.28-.28v-10.47a.32.31 90 0 1 .31-.32h23.58a.59.58 0 0 0 .59-.58v-59.93a.48.48-45 0 0-.48-.48h-18.94a.74.73 90 0 0-.73.74v6.19a.5.5-45 0 1-.5.5h-3.51a.36.36-45 0 1-.36-.36v-10.61a.34.33 0 0 1 .34-.33h23.69a.48.48 45 0 0 .48-.48v-60.44a.37.37 87.522 0 0-.37-.37h-19.01a.73.73-84.151 0 0-.73.73v6.12a.5.5-45 0 1-.5.5h-3.56a.31.31 45.002 0 1-.31-.31v-10.56a.39.39-60.177 0 1 .39-.39h23.71a.41.4 0 0 0 .41-.4v-60.17a.7.7 0 0 0-.7-.7h-18.76a.55.54-90 0 0-.54.55v6.35a.55.55 35.522 0 1-.55.55h-3.49a.4.4 35.532 0 1-.4-.4v-10.6a.3.3 45 0 1 .3-.3H885a.76.76 0 0 0 .76-.76v-60.62a.26.26 0 0 0-.26-.26h-19.17a.6.6 87.53 0 0-.6.6v6.16a.68.68-45 0 1-.68.68h-3.12a.7.69 0 0 1-.7-.69v-11.22a.35.35-54.469 0 1 .35-.35h23.57a.63.63-2.442 0 0 .63-.63v-60.61a.51.5 0 0 0-.51-.5H866.1a.57.56 0 0 0-.57.56v6.6a.7.7-60.196 0 1-.7.7h-3.16a.57.57-60.184 0 1-.57-.57v-10.51a.5.5-45 0 1 .5-.5h23.35a.81.8-90 0 0 .8-.81v-60.28a.45.45-44.951 0 0-.45-.45h-19.25a.49.49 45 0 0-.49.49v6.69a.61.61 44.995 0 1-.61.61h-3.5a.26.26 0 0 1-.26-.26v-10.81a.62.61-90 0 1 .61-.62h23.46a.56.55 0 0 0 .56-.55v-88.33a.7.7-44.907 0 0-.7-.7h-59.79a.65.64 0 0 0-.65.64v19.23a.66.66-.024 0 0 .66.66h6.92a.93.93-45 0 1 .93.93v2.12a.73.73 0 0 1-.73.73H820.8a.57.57-60.186 0 1-.57-.57v-23.07a.56.56 45.025 0 0-.56-.56h-58.89a.76.76 0 0 0-.76.76v19.05a.59.59-5.354 0 0 .59.59h7.29a.83.83-45 0 1 .83.83v2.45a.53.53-45 0 1-.53.53h-11.87a.6.59 0 0 1-.6-.59v-23.12a.48.48-45 0 0-.48-.48h-59.3a.45.45 44.965 0 0-.45.45v19.21a.68.68 74.782 0 0 .68.68h7.07a.81.81-60.168 0 1 .81.81v2.41a.6.59 0 0 1-.6.59h-11.68a.67.67-56.235 0 1-.67-.67v-23.02a.51.51 0 0 0-.51-.51h-66.06a1.064 1.056-86.64 0 0-1.05.94q-.13 1.1-.5 1.5-.32.36-1.31.23-.7-.08-1.25.02a.737.734-5.768 0 0-.59.72v32.61a.45.45-10.352 0 0 .45.45h31.89a.19.18-90 0 0 .18-.19v-19.01a.6.6-15.214 0 0-.6-.6h-7.03a.928.924-87.444 0 1-.92-1.01l.16-1.9a1.229 1.224-87.439 0 1 1.22-1.12h11.01a.65.65-72.389 0 1 .65.65v22.61a.59.58 0 0 0 .59.58h57.76a.49.49 0 0 0 .49-.49v-18.48a.8.79 90 0 0-.79-.8h-6.07a.84.84 33.746 0 1-.84-.84v-2.32a.96.95 90 0 1 .95-.96h10.95a.73.73 29.838 0 1 .73.73v22.61a.48.48-45 0 0 .48.48h58.8a.63.63 11.261 0 0 .63-.63v-18.17a.81.81 45 0 0-.81-.81h-6.25a.79.79 32.06 0 1-.79-.79v-2.8a.74.73-90 0 1 .73-.74h11.49a.65.64-90 0 1 .64.65v23.04a.4.39 90 0 0 .39.4h58.37a.55.55-45 0 0 .55-.55v-18.49a.84.84 74.84 0 0-.84-.84h-6.23a.88.87 90 0 1-.87-.88v-2.13a.94.94 25.197 0 1 .94-.94h10.08a.88.88 33.737 0 1 .88.88v33.85a.49.49-45 0 0 .49.49h18.51a1.3 1.3-44.925 0 0 1.3-1.3v-5.9a1.21 1.2 90 0 1 1.2-1.21h1.85a1.03 1.03 25.189 0 1 1.03 1.03v11.02a.37.37-53.164 0 1-.37.37h-23.11a.85.84 0 0 0-.85.84v59.47a.63.63 45 0 0 .63.63h18.25a1.48 1.48 45 0 0 1.48-1.48v-5.73a.9.9 45 0 1 .9-.9h2.09a.96.95 0 0 1 .96.95v10.68a.37.36 0 0 1-.37.36h-23.31a.59.59 87.537 0 0-.59.59v60.44a.64.64-45 0 0 .64.64h17.86a1.541 1.535-87.559 0 0 1.53-1.41l.55-6.27a.765.763-87.541 0 1 .76-.7h2.14a.68.68-64.836 0 1 .68.68v10.99a.44.43 0 0 1-.44.43H849.6a.71.71 0 0 0-.71.71v61.47a.41.41-45.013 0 0 .41.41h18.65a1.22 1.22 45 0 0 1.22-1.22v-6.68a.48.48 25.187 0 1 .48-.48h3.23a.28.27 90 0 1 .27.28v11.79a.46.46-60.171 0 1-.46.46h-23.36a.49.48 0 0 0-.49.48v60.13a.36.36 45 0 0 .36.36h18.86a.85.85 45 0 0 .85-.85v-6.39a1.01 1.01 45 0 1 1.01-1.01h2.4a.84.84-45 0 1 .84.84v11.18a.5.5-45 0 1-.5.5h-23.04a.8.79-90 0 0-.79.8v59.68a.31.3-90 0 0 .3.31h18.66a1.25 1.25 45 0 0 1.25-1.25v-6.25a.87.87-45 0 1 .87-.87h2.41a.81.81 45.004 0 1 .81.81v11.29a.47.46-90 0 1-.46.47h-22.94a.92.92-8.167 0 0-.92.92v59.5a.52.52 45 0 0 .52.52h18.54a.896.893-87.551 0 0 .89-.82l.58-6.75a.673.664 2.313 0 1 .67-.61h2.29a.82.82-45 0 1 .82.82v11.21a.48.48-45 0 1-.48.48h-23.26a.52.52 0 0 0-.52.52v59.25a.69.68 0 0 0 .69.68h18.58a1.11 1.11 5.832 0 0 1.11-1.11v-6.57a.58.57 90 0 1 .57-.58h2.59a.73.73 0 0 1 .73.73v11.3a.46.46-45 0 1-.46.46h-22.59a1.2 1.19 0 0 0-1.2 1.19v59.81a.26.26 0 0 0 .26.26h18.98a1.14 1.14-45 0 0 1.14-1.14v-6.36a.68.68-45 0 1 .68-.68h2.59a.62.61 0 0 1 .62.61v11.2a.54.54 45 0 1-.54.54h-23.25a.47.46 0 0 0-.47.46v59.89a.8.79 0 0 0 .8.79h18.09a1.47 1.46 90 0 0 1.46-1.47v-6.08a.91.91-45.006 0 1 .91-.91h2.23a.8.8-53.16 0 1 .8.8v11.09a.57.57-56.257 0 1-.57.57h-22.9a.82.82-84.146 0 0-.82.82v39.34a.924.916 75.895 0 1-.48.81l-48.39 26.46a.9.9-30.45 0 0-.33 1.27l11.73 18.52a.681.676-30.618 0 1-.25.96l-9.26 5.06a1.458 1.454 58.96 0 1-1.92-.48l-.26-.4a1.293 1.29 57.277 0 1 .39-1.8l5.2-3.3a.835.832-32.47 0 0 .26-1.16l-9.89-15.62a.826.82-30.383 0 0-1.09-.28l-52.71 28.82a.995.995-30.59 0 0-.36 1.4l11.75 18.55a.601.596-30.726 0 1-.22.85l-9.39 5.14a1.598 1.598 10.513 0 1-1.8-2.62q1.88-1.6 5.17-3.05a.875.871 61.785 0 0 .38-1.27l-10.18-16.07a.598.586-30.047 0 0-.78-.2l-53.74 29.4a.333.332 59.448 0 0-.12.47l11.97 18.89a.8.8-30.618 0 1-.29 1.13q-5.88 3.22-8.39 4.64-1.57.89-2.74.47a1.335 1.333-51.797 0 1-.28-2.37l5.81-3.82a.613.613 36.668 0 0 .17-.85l-10.37-15.76a.436.434-31.082 0 0-.57-.14l-53.12 29.05a1.328 1.327 59.42 0 0-.48 1.87l11.42 18.03a.832.826 58.803 0 1-.28 1.16l-8.93 5.15a1.614 1.612 52.526 0 1-1.96-.26l-.57-.56a1.051 1.048 51.367 0 1 .18-1.63l5.62-3.56a.688.683-32.635 0 0 .21-.94l-10.12-15.97a.53.522-30.162 0 0-.7-.18l-53.26 29.13a.522.516 59.922 0 0-.19.73l12.06 19.03a.645.642 59.318 0 1-.23.91l-9.4 5.14a1.534 1.528-81.254 0 1-1.79-2.45q1.55-1.5 5.28-3.2a1.02 1.02 61.329 0 0 .43-1.47l-9.99-15.77a.96.955 59.529 0 0-1.26-.33l-49.25 26.94a.745.745 58.791 0 0-.26 1.06l9.77 14.85a.867.866 58.29 0 1-.29 1.23l-9.11 5.26a.839.829 45.341 0 1-.84-.01l-9.28-5.73a.56.56 60.107 0 1-.19-.77l8.74-14.17a1.125 1.121-59.654 0 0-.41-1.58l-49.28-27.19a1.097 1.097 37.7 0 0-1.49.43l-8.75 15.86a.532.527-58.328 0 0 .16.69l4.71 3.15a1.658 1.656 76.324 0 1-1.72 2.83l-9.35-5.16a.253.252-59.209 0 1-.09-.36l11.79-19.13a.78.778 30.66 0 0-.28-1.09l-52.5-28.96a.386.381-58.638 0 0-.52.13l-9.61 15.58a.84.827-58.683 0 0 .27 1.15l5.23 3.23a1.355 1.338 32.828 0 1 .42 1.89l-.29.43a1.783 1.774-58.606 0 1-2.33.57l-9.17-5.06a.378.377-59.896 0 1-.14-.53l11.67-18.92a.9.895 30.492 0 0-.33-1.26l-54.17-29.89a.381.372 28.975 0 0-.51.14l-8.72 15.8a1.428 1.425 24.686 0 0 .75 2.02q3.14 1.18 4.48 2.5a1.673 1.672 79.772 0 1-1.88 2.71l-9.97-4.68a.521.519 28.565 0 1-.22-.74l11.66-18.89a1.237 1.236 30.432 0 0-.45-1.73l-53.18-29.34a.994.994 82.476 0 0-1.35.39l-8.7 15.76a.664.661-59.746 0 0 .23.88l5.53 3.41a.727.727 41.154 0 1 .24 1q-.75 1.23-2.36 1.43a1.26 1.234-33.829 0 1-.75-.14l-8.42-4.64a.966.964-59.619 0 1-.35-1.35l11.21-18.18a.93.928-59.742 0 0-.34-1.3l-52.12-28.76a.707.707 11.216 0 0-.96.28l-8.83 15.99a.596.595-61.982 0 0 .25.82q3.17 1.62 4.84 3.14a1.704 1.702 80.652 0 1-1.97 2.75l-9.09-5.01a.305.3-60.135 0 1-.11-.42l11.6-18.8a1.039 1.036-56.796 0 0-.29-1.4q-1.43-1.01-1.69-1.14-7.29-3.57-14.16-7.48c-4.93-2.8-8.98-4.53-12.5-6.77-6.6-4.18-11.25-6.37-18.98-10.34q-2.1-1.08-2.07-3.42.2-11.49-.13-34.54v-25.59a.6.59 0 0 0-.6-.59h-18.87a.55.55 75.942 0 0-.55.55v5.89a.89.89-20.2 0 1-.89.89h-2.12a.82.82 34.94 0 1-.82-.82v-9.7a.57.56-90 0 1 .56-.57h23.07a.29.28 0 0 0 .29-.28v-61.04a.49.48 0 0 0-.49-.48h-18.4a1.14 1.13 0 0 0-1.14 1.13v5.39a.92.91 90 0 1-.91.92h-2.5a.59.58 90 0 1-.58-.59V958.9a.59.58-90 0 1 .58-.59h22.56a.88.88 74.746 0 0 .88-.88v-59.95a.65.64 90 0 0-.64-.65h-18.05a1.38 1.38-15.245 0 0-1.38 1.38v5.16a.72.71 90 0 1-.71.72h-2.7a.58.58-54.798 0 1-.58-.58v-9.54a.85.85-56.256 0 1 .85-.85h22.61a.58.58 72.692 0 0 .58-.58v-60.07a.58.58-75.353 0 0-.58-.58h-18.61a.79.78 0 0 0-.79.78v5.35a1.06 1.06-60.896 0 1-1.06 1.06h-2.07a1.01 1.01-45 0 1-1.01-1.01v-9.59a.54.54-44.979 0 1 .54-.54h22.94a.63.63-89.972 0 0 .63-.63v-59.67a.79.79-8.172 0 0-.79-.79h-18.12a1.01 1 90 0 0-1 1.01v5.17a.97.97 44.97 0 1-.97.97h-2.36a.78.78 25.2 0 1-.78-.78v-9.68a.63.63 33.759 0 1 .63-.63h22.8a.62.62 72.693 0 0 .62-.62v-60.11a.52.51 0 0 0-.52-.51h-18.59a.75.75 45 0 0-.75.75v5.47a.95.95-60.183 0 1-.95.95h-2.31a.94.94 44.962 0 1-.94-.94v-9.81a.34.34-61.326 0 1 .34-.34h23.25a.49.49 0 0 0 .49-.49v-60.39a.52.52-8.134 0 0-.52-.52h-18.49a.91.91 77.132 0 0-.91.91v5.4a1.03 1.02 0 0 1-1.03 1.02h-2.29a.85.85 15.467 0 1-.85-.85V632.6a.65.65-53.49 0 1 .65-.65h22.73a.7.7-84.127 0 0 .7-.7v-60.01a.65.64 0 0 0-.65-.64h-19.05a.47.47-84.155 0 0-.47.47v6.36a.5.5-45 0 1-.5.5h-2.87a.6.6 15.625 0 1-.6-.6v-9.85a.65.64 0 0 1 .65-.64h22.83a.68.67 90 0 0 .67-.68v-60.32a.4.39 90 0 0-.39-.4h-19.22a.6.6 0 0 0-.6.6V512a.85.85-61.296 0 1-.85.85h-1.87a1.16 1.16-56.676 0 1-1.16-1.16v-9.13a.83.82 90 0 1 .82-.83h22.87a.39.38 0 0 0 .39-.38l-.02-58.6q.15-10.17-.73-15.78-.17-1.08-.8-1.68a.691.687 66.693 0 1 .47-1.19h11.1a.71.71-45.018 0 1 .71.71v2.42a.74.74 45 0 1-.74.74h-5.12a1.68 1.67 0 0 0-1.68 1.67v17.32a.74.73 0 0 0 .74.73h58.2a.57.57 74.807 0 0 .57-.57v-22.86a.51.51 0 0 1 .51-.51h12.84a.55.54 90 0 1 .54.55v2.7a.87.87 45 0 1-.87.87h-6.07a1.4 1.4 5.702 0 0-1.4 1.4v17.98a.43.43 3.412 0 0 .43.43h53.94a2.169 2.158 13.408 0 0 1.93-1.18q.85-1.69 3.18-3a1.711 1.708 75.33 0 0 .87-1.49v-17.72a.44.44-54.474 0 1 .44-.44h12.7a.752.746 2.448 0 1 .75.81l-.19 2.24a.958.943-87.332 0 1-.94.87h-6.15a1.21 1.2 0 0 0-1.21 1.2v18.33a.44.43 90 0 0 .43.44h50.39a2.665 2.654-67.42 0 0 1.88-.78l4.02-4.02a1.512 1.494-23.079 0 0 .43-1.05V424.7a.62.62-45 0 1 .62-.62h10.41a1.19 1.18 90 0 1 1.18 1.19v1.2a1.36 1.35 90 0 1-1.35 1.36h-5.59a.93.93-45 0 0-.93.93v18.21a.73.73 5.851 0 0 .73.73h33.9a.54.54-45 0 0 .54-.54v-34.65a.79.79 45 0 0-.79-.79H392.8a.14.13 0 0 0-.14.13v23.42a.16.15-90 0 1-.15.16h-10.14a.79.79-45 0 1-.79-.79v-2.07a.89.89-45 0 1 .89-.89h5.35a.87.87-45 0 0 .87-.87v-18.94a.62.62 0 0 0-.62-.62h-3.08a.69.68 0 0 0-.69.68v15.4a.82.82 35.528 0 1-.82.82h-.98a1.12 1.12 0 0 1-1.12-1.12v-6.66a.77.77 0 0 0-.77-.77h-18.43a.88.87-.322 0 0-.88.88l.29 19.9a1.152 1.124-30.271 0 1-.16.58q-1.92 3.1-4.24 3.07-24.36-.38-43.68-.33a.66.66 45 0 1-.66-.66v-11.2a.39.38 90 0 1 .38-.39h3.14a.52.52-60.16 0 1 .52.52v7.09a.55.55 45 0 0 .55.55h19.08a1.554 1.552-88.44 0 0 1.55-1.47q.55-10.62-1.12-20.98a.726.724 77.281 0 1 .51-.81q3.9-1.14 8-1.22 2.29-.04 31.2.27a1.11 1.1-89.744 0 0 1.11-1.11v-2.08a1.58 1.57 89.642 0 0-1.59-1.58l-34.03.41a5.757 5.751 27.93 0 0-3.1.95l-5.28 3.48a.524.509 74.433 0 0-.24.44V435a.42.41 0 0 1-.42.41h-11.09a1.15 1.15 45.012 0 1-1.15-1.15v-1.62a1.02 1.02 0 0 1 1.02-1.02h6.61a.78.78-45 0 0 .78-.78v-16.92a.782.767 9.55 0 0-.53-.73q-6.13-2.1-9.75-2.15-26.2-.37-49.87-.16a.99.98-.295 0 0-.98.98V435a.47.46 90 0 1-.46.47h-11.51a.91.91-58.494 0 1-.91-.91v-1.93a.99.99-89.885 0 1 .99-.99h6.79a.55.55-45 0 0 .55-.55v-19.91a.25.24 90 0 0-.24-.25h-34.8a.99.99-45 0 0-.99.99v1.94a1.33 1.33-44.906 0 0 1.33 1.33h29.78a.73.72 90 0 1 .72.73v11.73a.52.52-64.826 0 1-.52.52h-2.59a.94.93 0 0 1-.94-.93v-7.06a.57.57 11.328 0 0-.57-.57h-20.82a.8.8-15.229 0 0-.8.8v22.44a.87.86-90 0 1-.86.87h-49.48a.77.77 45.008 0 1-.77-.77v-10.29a.86.86 45 0 1 .86-.86h2.2a.93.92 0 0 1 .93.92v6.05a.84.83-89.655 0 0 .82.84q6.93.08 13.64-.19c2.76-.11 4.3-1.63 5.75-3.29a1.948 1.944 67.565 0 0 .46-1.11q.56-7.65.19-14.78c-.12-2.23.6-2.99 2.56-3.84q3.5-1.52 8.08-2.23a2.885 2.868 14.443 0 0 1.79-1.05l1.69-2.12a.327.326 18.122 0 0-.27-.53l-11.16.49a2.971 2.845-60.98 0 0-1.42.44q-3.71 2.28-5.51 4.68a1.474 1.444-27.162 0 0-.29.87v17.61a.8.8 33.794 0 1-.8.8h-10.85a.9.9-56.691 0 1-.9-.9v-1.74a1.1 1.09 0 0 1 1.1-1.09h6.1a.86.85 89.341 0 0 .85-.88q-.25-7.5.07-11.99.12-1.68 1.18-2.09a.533.527 67.253 0 0 .29-.72c-1.88-4.08-3.56-5.43-8.27-5.37q-25.47.35-52.07-.12a.86.86.329 0 0-.87.86v47.77a.35.35 0 0 0 .35.35h18.29a1.017 1.012 3.154 0 0 1.01-.9l.64-6.12a1.137 1.132-10.422 0 1 .63-.91q.67-.38 2.09-.26a1.064 1.057-87.659 0 1 .97 1.06v10.64a.55.55 33.76 0 1-.55.55h-23.2a.33.33-19.194 0 0-.33.33v59.97a.61.61 11.272 0 0 .61.61h18.07a1.38 1.38-15.245 0 0 1.38-1.38v-5.19a1.535 1.527-2.911 0 1 1.38-1.52l1.55-.14a.924.919 87.187 0 1 1.01.92v10.5a.63.63-56.254 0 1-.63.63h-23.06a.33.33 0 0 0-.33.33v60.55a.64.64 11.279 0 0 .64.64h18.09a1.054 1.047 2.365 0 0 1.05-.96l.59-6.78a.99.989-.352 0 1 .89-.9l1.78-.17a.904.9 87.13 0 1 .99.9v11.21a.45.44 90 0 1-.44.45h-23.14a.43.43-10.675 0 0-.43.43v61.28a.29.29-8.177 0 0 .29.29h18.38a1.4 1.4 74.828 0 0 1.4-1.4v-5.66a1.13 1.12 0 0 1 1.13-1.12h2.03a.96.96 33.168 0 1 .96.96v10.58a.59.59-57.323 0 1-.59.59h-23.07a.52.52 0 0 0-.52.52v60.18a.43.43 85.852 0 0 .43.43h18.35a1.43 1.42 90 0 0 1.42-1.43v-5.72a.99.99 25.203 0 1 .99-.99h2.02a.84.84-25.226 0 1 .84.84v10.39a.81.81 39.144 0 1-.81.81h-22.7a.55.55.042 0 0-.55.55v59.99a.47.47 81.804 0 0 .47.47h18.69a1.03 1.02 0 0 0 1.03-1.02v-6.1a1.03 1.03 29.767 0 1 1.03-1.03h1.82a1.07 1.07-25.137 0 1 1.07 1.07v10.94a.33.33-29.786 0 1-.33.33h-22.94a.85.84 0 0 0-.85.84v59.28a.76.76 0 0 0 .76.76h18.42a1.09 1.09 2.845 0 0 1.09-1.09v-5.94a1.19 1.18 90 0 1 1.18-1.19h1.61a1.03 1.03-45 0 1 1.03 1.03v11.21a.18.18 29.073 0 1-.18.18h-22.86a1.03 1.03 0 0 0-1.03 1.03v58.77a1.1 1.1-75.398 0 0 1.1 1.1h18a1.17 1.17-17.328 0 0 1.17-1.17v-5.47a1.58 1.57-90 0 1 1.57-1.58h.76a1.36 1.36 15.374 0 1 1.36 1.36v10.53a.32.32.053 0 1-.32.32h-22.92a.63.62-90 0 0-.62.63v60.42a.4.4 5.048 0 0 .4.4h18.49a1.28 1.27 0 0 0 1.28-1.27v-5.41a1.1 1.1 20.377 0 1 1.1-1.1h1.48a1.26 1.25-90 0 1 1.25 1.26v10.12a.51.51 29.825 0 1-.51.51h-22.88a.61.6 90 0 0-.6.61v60.11a.96.96-.585 0 0 .98.96q4.44-.06 12.77-.31c3.85-.11 6.43.32 6.44-4.1q0-.8.14-3.08a.873.872-88.252 0 1 .87-.82h2.14a.78.78 35.713 0 1 .78.78v11a.33.32 0 0 1-.33.32h-23.29a.53.52 90 0 0-.52.53zM485.1 490.35h-57.52a.65.65-45 0 0-.65.65v12.07a.83.83-2.486 0 0 .83.83h69.66a1.301 1.276-67.103 0 0 .91-.38l12.64-12.64a.48.48 0 0 1 .68 0l11.47 11.47a3.929 3.908 67.388 0 0 2.77 1.15h68.85a.52.51 90 0 0 .51-.52v-12.03a.92.91 90 0 0-.91-.92h-55.37a.399.399-59.24 0 1-.19-.75l48.4-26.47a.635.627-29.184 0 0 .25-.86l-6.22-11.38a.936.927-28.999 0 0-1.28-.36l-47.45 27.4a.455.451-89.3 0 1-.61-.63c8.25-13.7 15.68-26.95 23.37-39.64q1.98-3.27 3.98-7.62a.457.448 25.986 0 0-.21-.59l-11.19-5.74a.744.74 28.38 0 0-.98.29l-27.29 47.05a.427.426-48.096 0 1-.72.04q-.03-.04-.12-.28v-.03l.15-53.63a.8.79 90 0 0-.79-.8h-12.38a.95.95 45 0 0-.95.95v54.17a.334.332-60.179 0 1-.62.17l-27.29-47.27a.827.816 62.402 0 0-1.06-.34l-10.98 5.15a1.02 1.019 62.506 0 0-.45 1.43l27.24 47.18a.286.286 32.358 0 1-.39.39l-47.38-27.36a.336.336 32.517 0 0-.46.12l-6.64 11.5a.659.658-60.986 0 0 .26.91l48.3 26.66a.352.352-30.577 0 1-.17.66m307.94 516.51a.306.304-28.386 0 0 .17-.56q-5-3.25-12.67-7.75-7.74-4.55-11.65-13.68a2.758 2.66-57.351 0 1-.21-1.05q.18-141.94-.02-281.27 0-4.38.38-6.43c.7-3.7 2.07-9.47 4.47-12.38q3.1-3.75 9.85-6.19a.881.879-7.329 0 0 .58-.75l.15-1.79a.645.633-87.506 0 0-.63-.7H664.45a.42.42-45.002 0 1-.42-.42q.04-9.47.06-28.88c0-2.88 1.84-12.12 5.04-14.92 3.1-2.71 8.02-4.6 11.38-5.58a1.501 1.501 35.93 0 0-.47-2.94q-42.66 1.36-81.59-13.25-18.25-6.86-36.03-18.72c-13.49-9-24.79-20.2-33.74-32.79q-10.77-15.16-16.13-34.37a.458.451-26.844 0 0-.72-.23q-.33.26-.41.49c-2.87 8.19-6.95 18.76-11.52 26.46q-6.85 11.52-14.66 19.86-9.44 10.09-15.11 14.42-29.43 22.51-66.08 31.55c-13.32 3.29-28.28 5.96-41.56 6.44q-12.2.44-20.54.08a1.259 1.259 56.898 0 0-.51 2.43c6.46 2.53 13.18 4.76 16.62 11.08q1.77 3.25 1.35 9.67-.06.94 0 29.22a.62.61 90 0 1-.61.62H238.58a1.646 1.646-32.615 0 0-.69 3.14q10.36 4.77 14.02 14.98 1.38 3.84 1.37 12.39-.11 95.97 0 274.68 0 2.72-.38 4.04c-2.81 9.57-13.8 16.46-22.29 22.08a.573.57-61.597 0 0 .31 1.05h105.94a.287.282-24.704 0 0 .19-.5q-3.63-3.07-6.24-5.17c-5.91-4.75-11.43-12.8-11.43-20.97q.09-142.41-.04-228.02a.571.561 88.958 0 1 .54-.57c4.8-.21 9.97-.48 14.83-.05 6.01.54 11.64.63 16.37 1.27q58.28 7.89 103.91 42.24c23.54 17.72 42.46 40.64 56.47 66.31a.362.357 46.464 0 0 .62.02c4.79-7.79 8.87-15.56 14.17-22.78 12.89-17.57 26.27-32 43.13-44.53 22.12-16.43 47.42-28.78 74.26-35.47 19.83-4.94 39.54-7.74 59.96-6.9a.7.7 1.283 0 1 .67.7q-.11 117.05-.06 230.53c.01 5.73-9 14.52-12.7 17.28q-2.53 1.88-8.5 5.69a.484.483-61.353 0 0 .26.89zm-108.77 55.94c-13.54-9.32-21.08-25.08-23.07-41.15q-1.4-11.34-1.41-14.15-.23-123.96.05-217.59a.368.364-4.106 0 0-.42-.36c-23.44 3.61-46.86 11.89-66.32 25.27q-7.82 5.38-11.48 12.64a11.795 11.726 58.433 0 0-1.24 5.26v192.19a.991.977-11.128 0 1-.62.91q-10.42 4.21-19.86 9.06c-18.55 9.52-36.6 24.56-47.86 42.39a.404.404-16.941 0 1-.68 0q-6.19-9.63-13.92-17.2c-15.77-15.47-34.2-26.74-54.64-34.63a.878.875 7.215 0 1-.56-.72q-.29-2.7-.29-5.72-.11-124.46.08-176.3c.04-11.41.27-17.44-7.91-24.29q-7.3-6.1-12.68-9.1-26.6-14.79-56.87-19.59a.39.385 4.474 0 0-.45.38q-.11 20.86-.04 49.65.07 31.63-.18 162.97c-.01 8.2-.43 15.55-1.9 23.03-2.91 14.84-10.71 28.68-23.78 36.74a.385.382-61.659 0 0 .21.71q7.9-.17 14.33-.01c37.44.94 74.72 11.93 105.84 32.96q21.1 14.25 35.02 34.94 6.1 9.05 9.87 18.87 5.21 13.59 7.6 27.03a.913.913 44.676 0 0 1.8-.01q1.94-11.67 6.21-24.35c2.67-7.94 6.74-15.84 11.14-22.38q15.27-22.69 38.56-37.2c29.64-18.47 65.06-27.6 99.95-29.24l15.44-.72a.16.158 60.816 0 0 .08-.29M468.184 905.227a.963.953.764 0 0 .97-.935l.145-5.925a2.177 2.177 1.564 0 1 2.24-2.121h.03a2.188 2.187 89.037 0 1 2.181 2.11q.108 3.077.042 8.561c-.035 2.376-.883 3.741-2.564 5.139-6.362 5.259-9.986 7.233-10.057 15.213q-.055 5.904.051 8.3a.603.602 88.348 0 0 .603.57l19.568-.049a.88.88 11.012 0 0 .88-.885l-.015-6.095a.802.792 89.856 0 0-.794-.8l-11.258.029a1.018 1.008-4.828 0 1-1.004-.84q-.509-3.126 1.732-4.997 6.712-5.6 6.952-5.831c4.261-4.001 4.141-7.63 4.368-13.304.188-4.813.353-11.018-4.595-13.221-6.955-3.091-16.323-1.152-16.551 8.041q-.145 5.825-.165 5.885a.77.768 11.21 0 0 .704 1.051zm40.487-7.373a8.76 8.76 0 0 0-8.805-8.714l-4 .021a8.76 8.76 0 0 0-8.714 8.806l.157 29.939a8.76 8.76 0 0 0 8.805 8.714l4-.021a8.76 8.76 0 0 0 8.714-8.806zm12.479 7.496a.96.95.908 0 0 .97-.93l.16-5.91a2.17 2.17 1.708 0 1 2.24-2.11h.03a2.183 2.183 89.181 0 1 2.17 2.11q.1 3.07.02 8.54c-.04 2.37-.89 3.73-2.57 5.12-6.36 5.23-9.98 7.19-10.07 15.15q-.07 5.89.03 8.28a.602.601 88.492 0 0 .6.57h19.52a.88.88-45 0 0 .88-.88v-6.08a.8.79 90 0 0-.79-.8h-11.23a1.015 1.005-4.684 0 1-1-.84q-.5-3.12 1.74-4.98 6.71-5.57 6.95-5.8c4.26-3.98 4.15-7.6 4.39-13.26.2-4.8.38-10.99-4.55-13.2-6.93-3.1-16.28-1.19-16.53 7.98q-.16 5.81-.18 5.87a.768.767 11.353 0 0 .7 1.05zm26.491-.008a.961.951.716 0 0 .968-.934l.14-5.914a2.173 2.173 1.516 0 1 2.234-2.119h.03a2.184 2.183 88.989 0 1 2.179 2.104q.11 3.071.048 8.545c-.032 2.372-.878 3.735-2.554 5.132-6.347 5.255-9.962 7.228-10.026 15.193q-.05 5.894.058 8.285a.602.601 88.3 0 0 .602.569l19.533-.066a.88.88-45.114 0 0 .877-.883l-.02-6.084a.801.79 89.808 0 0-.793-.798l-11.237.038a1.016 1.006-4.876 0 1-1.004-.837q-.511-3.121 1.725-4.989 6.695-5.596 6.935-5.827c4.249-3.997 4.127-7.619 4.348-13.283.184-4.804.343-10.999-4.597-13.193-6.945-3.079-16.294-1.137-16.514 8.04q-.141 5.814-.16 5.874a.768.767 11.161 0 0 .704 1.049zm38.029 276.098c15.16-7.06 30.01-15.57 45.08-23.47q5.63-2.95 23.79-13.23c5.16-2.92 8.24-6.37 11.6-10.57a.513.509-71.491 0 0-.41-.83q-2.63.06-10.51.47-6.94.35-10.26-1.13-5.24-2.34-8.03-7.07-9.69-16.46-19.52-30.94a1.48 1.48 67.916 0 0-1.49-.63q-7.1 1.28-14.24 3.92-15.99 5.91-30.59 15.9-4.38 3-6.17 4.09a.604.596-28.328 0 0-.23.75c5.06 11.32 11.93 21.97 18.89 32.94 5.11 8.05 8.33 11.97 5.65 20.11q-1.49 4.54-4.21 8.97a.509.504 3.16 0 0 .65.72m-70.27 108.71-3.36-5.1a1.016 1.012-42.084 0 0-1.64-.08l-3.65 4.6a1.606 1.606-52.295 0 0 .42 2.38q5.21 3.14 8.19-.68a.969.959-43.261 0 0 .04-1.12"></path><path fill="#f9cf1b" fill-rule="evenodd" d="M174.63 1053.97q-.09 8.64-.74 17.26c-.38 5.01-.09 8.86-.07 13.28a4.096 4.077-31.372 0 1-.48 1.96l-5.15 9.76 1.93-4.29a1.635 1.565 58.685 0 0 .15-.68l.25-58.17a.67.66-90 0 0-.66-.67h-10.34a1.09 1.08 90 0 0-1.08 1.09v.51a1.315 1.309-87.63 0 0 1.2 1.31l6.08.53a1.084 1.077-87.706 0 1 .99 1.08v17.25a.47.47 34.66 0 1-.47.47h-23.17a.581.58-88.977 0 0-.58.56l-.11 4.49v23.07a4.237 4.081-39.163 0 1-.12.99c-2.24 9.06-1.72 17.99-2.78 26.52a.252.25-42.541 0 1-.5-.02l-.77-23.49-.01-35.57a.53.52-90 0 1 .52-.53h23.29a.33.32 0 0 0 .33-.32v-11a.78.78 7.631 0 0-.78-.78h-2.14a.873.872-88.252 0 0-.87.82q-.14 2.28-.14 3.08c-.01 4.42-2.59 3.99-6.44 4.1q-8.33.25-12.77.31a.96.96-.585 0 1-.98-.96v-60.11a.61.6-90 0 1 .6-.61h22.88a.51.51 5.823 0 0 .51-.51v-10.12a1.26 1.25 90 0 0-1.25-1.26h-1.48a1.1 1.1 2.977 0 0-1.1 1.1v5.41a1.28 1.27 0 0 1-1.28 1.27h-18.49a.4.4 34.768 0 1-.4-.4v-60.42a.63.62 90 0 1 .62-.63h22.92a.32.32-.027 0 0 .32-.32V908.8a1.36 1.36-4.24 0 0-1.36-1.36h-.76a1.58 1.57-90 0 0-1.57 1.58v5.47a1.17 1.17 28.735 0 1-1.17 1.17h-18a1.1 1.1-54.806 0 1-1.1-1.1v-58.77a1.03 1.03 0 0 1 1.03-1.03H162a.18.18-10.659 0 0 .18-.18v-11.21a1.03 1.03 45 0 0-1.03-1.03h-1.61a1.19 1.18-90 0 0-1.18 1.19v5.94a1.09 1.09 20.271 0 1-1.09 1.09h-18.42a.76.76 45 0 1-.76-.76v-59.28a.85.84 0 0 1 .85-.84h22.94a.33.33-5.829 0 0 .33-.33v-10.94a1.07 1.07 8.08 0 0-1.07-1.07h-1.82a1.03 1.03 5.962 0 0-1.03 1.03v6.1a1.03 1.02 0 0 1-1.03 1.02h-18.69a.47.47-64.803 0 1-.47-.47v-59.99a.55.55.126 0 1 .55-.55h22.7a.81.81-24.789 0 0 .81-.81v-10.39a.84.84 8.128 0 0-.84-.84h-2.02a.99.99-8.171 0 0-.99.99v5.72a1.43 1.42 90 0 1-1.42 1.43h-18.35a.43.43-74.419 0 1-.43-.43v-60.18a.52.52 0 0 1 .52-.52h23.07a.59.59 81.094 0 0 .59-.59v-10.58a.96.96 7.749 0 0-.96-.96h-2.03a1.13 1.12 0 0 0-1.13 1.12v5.66a1.4 1.4-56.286 0 1-1.4 1.4h-18.38a.29.29 25.144 0 1-.29-.29v-61.28a.43.43 29.058 0 1 .43-.43h23.14a.45.44 90 0 0 .44-.45v-11.21a.904.9 87.13 0 0-.99-.9l-1.78.17a.99.989-.352 0 0-.89.9l-.59 6.78a1.054 1.047 2.365 0 1-1.05.96h-18.09a.64.64 36.83 0 1-.64-.64v-60.55a.33.33-.097 0 1 .33-.33h23.06a.63.63 74.842 0 0 .63-.63v-10.5a.924.919 87.187 0 0-1.01-.92l-1.55.14a1.535 1.527-2.911 0 0-1.38 1.52v5.19a1.38 1.38 33.74 0 1-1.38 1.38h-18.07a.61.61 36.836 0 1-.61-.61v-59.97a.33.33 17.506 0 1 .33-.33h23.2a.55.55-15.134 0 0 .55-.55v-10.64a1.064 1.057-87.659 0 0-.97-1.06q-1.42-.12-2.09.26a1.137 1.132-10.422 0 0-.63.91l-.64 6.12a1.017 1.012 3.154 0 1-1.01.9h-18.29a.35.35-45 0 1-.35-.35v-47.77a.86.86.329 0 1 .87-.86q26.6.47 52.07.12c4.71-.06 6.39 1.29 8.27 5.37a.533.527 67.253 0 1-.29.72q-1.06.41-1.18 2.09-.32 4.49-.07 11.99a.86.85 89.341 0 1-.85.88h-6.1a1.1 1.09 0 0 0-1.1 1.09v1.74a.9.9-88.277 0 0 .9.9h10.85a.8.8-15.229 0 0 .8-.8v-17.61a1.474 1.444-27.162 0 1 .29-.87q1.8-2.4 5.51-4.68a2.971 2.845-60.98 0 1 1.42-.44l11.16-.49a.327.326 18.122 0 1 .27.53l-1.69 2.12a2.885 2.868 14.443 0 1-1.79 1.05q-4.58.71-8.08 2.23c-1.96.85-2.68 1.61-2.56 3.84q.37 7.13-.19 14.78a1.948 1.944 67.565 0 1-.46 1.11c-1.45 1.66-2.99 3.18-5.75 3.29q-6.71.27-13.64.19a.84.83-89.655 0 1-.82-.84v-6.05a.93.92 0 0 0-.93-.92h-2.2a.86.86 45 0 0-.86.86v10.29a.77.77 45.062 0 0 .77.77h49.48a.87.86-90 0 0 .86-.87v-22.44a.8.8 33.794 0 1 .8-.8h20.82a.57.57 36.846 0 1 .57.57v7.06a.94.93 0 0 0 .94.93h2.59a.52.52 81.825 0 0 .52-.52v-11.73a.73.72-90 0 0-.72-.73H228.9a1.33 1.33-45 0 1-1.33-1.33v-1.94a.99.99-45 0 1 .99-.99h34.8a.25.24 90 0 1 .24.25v19.91a.55.55-45 0 1-.55.55h-6.79a.99.99-89.885 0 0-.99.99v1.93a.91.91-58.283 0 0 .91.91h11.51a.47.46 90 0 0 .46-.47v-23.14a.99.98-.295 0 1 .98-.98q23.67-.21 49.87.16 3.62.05 9.75 2.15a.782.767 9.55 0 1 .53.73v16.92a.78.78 45 0 1-.78.78h-6.61a1.02 1.02 0 0 0-1.02 1.02v1.62a1.15 1.15 45.104 0 0 1.15 1.15h11.09a.42.41 0 0 0 .42-.41v-19.09a.524.509 74.433 0 1 .24-.44l5.28-3.48a5.757 5.751 27.93 0 1 3.1-.95l34.03-.41a1.58 1.57 89.642 0 1 1.59 1.58v2.08a1.11 1.1-89.744 0 1-1.11 1.11q-28.91-.31-31.2-.27-4.1.08-8 1.22a.726.724 77.281 0 0-.51.81q1.67 10.36 1.12 20.98a1.554 1.552-88.44 0 1-1.55 1.47h-19.08a.55.55 45 0 1-.55-.55v-7.09a.52.52-84.162 0 0-.52-.52h-3.14a.39.38 90 0 0-.38.39v11.2a.66.66 0 0 0 .66.66q19.32-.05 43.68.33 2.32.03 4.24-3.07a1.152 1.124-30.271 0 0 .16-.58l-.29-19.9a.88.87-.322 0 1 .88-.88h18.43a.77.77 45 0 1 .77.77v6.66a1.12 1.12 0 0 0 1.12 1.12h.98a.82.82-2.454 0 0 .82-.82v-15.4a.69.68 0 0 1 .69-.68h3.08a.62.62 45 0 1 .62.62v18.94a.87.87 45 0 1-.87.87h-5.35a.89.89-45 0 0-.89.89v2.07a.79.79-45 0 0 .79.79h10.14a.16.15-90 0 0 .15-.16v-23.42a.14.13 0 0 1 .14-.13h11.78a.79.79-45 0 1 .79.79v34.65a.54.54-45 0 1-.54.54h-33.9a.73.73 29.838 0 1-.73-.73v-18.21a.93.93-45 0 1 .93-.93h5.59a1.36 1.35 90 0 0 1.35-1.36v-1.2a1.19 1.18 90 0 0-1.18-1.19h-10.41a.62.62 0 0 0-.62.62v17.19a1.512 1.494-23.079 0 1-.43 1.05l-4.02 4.02a2.665 2.654-67.42 0 1-1.88.78h-50.39a.44.43-90 0 1-.43-.44v-18.33a1.21 1.2 0 0 1 1.21-1.2h6.15a.958.943-87.332 0 0 .94-.87l.19-2.24a.752.746 2.448 0 0-.75-.81h-12.7a.44.44 87.522 0 0-.44.44v17.72a1.711 1.708 75.33 0 1-.87 1.49q-2.33 1.31-3.18 3a2.169 2.158 13.408 0 1-1.93 1.18h-53.94a.43.43 38.895 0 1-.43-.43v-17.98a1.4 1.4 29.842 0 1 1.4-1.4h6.07a.87.87-45 0 0 .87-.87v-2.7a.55.54 90 0 0-.54-.55h-12.84a.51.51 0 0 0-.51.51v22.86a.57.57-56.207 0 1-.57.57h-58.2a.74.73 0 0 1-.74-.73v-17.32a1.68 1.67 0 0 1 1.68-1.67h5.12a.74.74 45 0 0 .74-.74v-2.42a.71.71-45.114 0 0-.71-.71h-11.1a.691.687 66.693 0 0-.47 1.19q.63.6.8 1.68.88 5.61.73 15.78l.02 58.6a.39.38 0 0 1-.39.38h-22.87a.83.82-90 0 0-.82.83v9.13a1.16 1.16-88.246 0 0 1.16 1.16h1.87a.85.85 72.699 0 0 .85-.85v-5.96a.6.6 0 0 1 .6-.6h19.22a.4.39 90 0 1 .39.4v60.32a.68.67 90 0 1-.67.68h-22.83a.65.64 0 0 0-.65.64v9.85a.6.6-4.178 0 0 .6.6h2.87a.5.5 45 0 0 .5-.5v-6.36a.47.47-60.173 0 1 .47-.47h19.05a.65.64 0 0 1 .65.64v60.01a.7.7-60.183 0 1-.7.7h-22.73a.65.65 77.155 0 0-.65.65v10.23a.85.85-4.207 0 0 .85.85h2.29a1.03 1.02 0 0 0 1.03-1.02v-5.4a.91.91-53.516 0 1 .91-.91h18.49a.52.52 25.201 0 1 .52.52v60.39a.49.49-45 0 1-.49.49h-23.25a.34.34 72.708 0 0-.34.34v9.81a.94.94-44.838 0 0 .94.94h2.31a.95.95-84.08 0 0 .95-.95v-5.47a.75.75-45 0 1 .75-.75h18.59a.52.51 0 0 1 .52.51v60.11a.62.62-61.285 0 1-.62.62h-22.8a.63.63-15.137 0 0-.63.63v9.68a.78.78-8.191 0 0 .78.78h2.36a.97.97 44.751 0 0 .97-.97v-5.17a1.01 1-90 0 1 1-1.01h18.12a.79.79 25.177 0 1 .79.79v59.67a.63.63 89.972 0 1-.63.63H151.1a.54.54-44.915 0 0-.54.54v9.59a1.01 1.01-45 0 0 1.01 1.01h2.07a1.06 1.06 79.315 0 0 1.06-1.06v-5.35a.79.78 0 0 1 .79-.78h18.61a.58.58-54.798 0 1 .58.58v60.07a.58.58-61.307 0 1-.58.58h-22.61a.85.85 74.863 0 0-.85.85v9.54a.58.58-75.353 0 0 .58.58h2.7a.72.71 90 0 0 .71-.72v-5.16a1.38 1.38 33.74 0 1 1.38-1.38h18.05a.65.64 90 0 1 .64.65v59.95a.88.88-56.263 0 1-.88.88h-22.56a.59.58 90 0 0-.58.59v10.18a.59.58 90 0 0 .58.59h2.5a.92.91-90 0 0 .91-.92v-5.39a1.14 1.13 0 0 1 1.14-1.13h18.4a.49.48 0 0 1 .49.48v61.04a.29.28 0 0 1-.29.28h-23.07a.57.56 90 0 0-.56.57v9.7a.82.82 9.164 0 0 .82.82h2.12a.89.89-2.963 0 0 .89-.89v-5.89a.55.55-54.694 0 1 .55-.55h18.87a.6.59 0 0 1 .6.59zm-31.71-598.69h10.93a1.17 1.17-.07 0 0 1.17-1.17v-1.58a1.18 1.17 90 0 0-1.17-1.18h-6.16a1.41 1.4-90 0 1-1.4-1.41v-11.92a.58.58-51.829 0 1 .58-.58h2.79a1.04 1.04-56.711 0 1 1.04 1.04v8.1a.96.96-45.17 0 0 .96.96h2.14a1.07 1.07 74.831 0 0 1.07-1.07v-6.29a1.41 1.4 0 0 1 1.41-1.4h14.2a.88.87 89.674 0 0 .87-.89c-.05-3.51-.59-10.42.73-12.67a.58.577 17.796 0 0-.45-.87l-4.65-.4a1.005.994 4.836 0 0-1.09.91l-.41 4.71a1.106 1.103-3.135 0 1-.89.99q-2.18.44-4.46-.34a.941.92 2.02 0 1-.6-.63q-.64-2.15.01-4.23a.876.87 7.381 0 1 .81-.62q4.81-.19 6.12-4.23a1.492 1.484-80.736 0 1 1.41-1.02h20.72a.81.81 36.828 0 1 .81.81v7.11a.91.91-8.03 0 0 .91.91h2.63a.65.65-89.552 0 0 .65-.64q.04-5.18-.13-10.67-.08-2.57-2.26-2.57-26.56-.07-48.11.23a.74.73 89.608 0 0-.72.74v39.33a.54.54 44.88 0 0 .54.54m177.99-35.29v7.57a.74.73 90 0 0 .73.74h2.32a.79.79 87.538 0 0 .79-.79v-10.34a1.222 1.22-84.578 0 0-.99-1.2q-2.78-.56-5.25-.55-5.75.03-45.47-.44a.59.58-89.523 0 0-.59.59v23.59a.51.51 0 0 1-.51.51h-20.18a.53.53-57.159 0 1-.53-.53v-6.88a.78.78-8.191 0 0-.78-.78h-2.81a.54.54 5.829 0 0-.54.54v11.04a.67.67-.421 0 0 .68.67q26.31-.18 47.45.13 2.32.03 3.74-1.85a.655.626 64.736 0 0 .13-.39V420.1a.65.65 45.013 0 1 .65-.65h20.63a.54.53-90 0 1 .53.54m79.93-3.5a.75.75-45 0 0-.75-.75h-2.55a.75.75 45 0 0-.75.75v22.27a.75.75-45 0 1-.75.75h-17.42a.75.75-45 0 1-.75-.75v-6.14a.75.75-45 0 0-.75-.75h-1.93a.75.75 45 0 0-.75.75v10.39a.75.75-78.806 0 0 .75.75h24.9a.75.75 45 0 0 .75-.75zm-230.89 80.85a.41.4 0 0 0 .41-.4v-53.51a.27.27 45 0 0-.27-.27h-10.23a1.48 1.47 0 0 0-1.48 1.47v1.44a1.471 1.465 2.569 0 0 1.34 1.46l6.46.56a.504.502 2.494 0 1 .46.5v18.44a.41.41 45.022 0 1-.41.41h-23.16a.68.67 0 0 0-.68.67v51.59a.561.55 1.081 0 0 .54.55q5.3.23 11.38-.19 1.15-.07.88-2.51a1.136 1.133 89.378 0 0-1.03-1.01l-7.02-.61a1.108 1.104 2.556 0 1-1.01-1.1v-16.82a.67.67 33.724 0 1 .67-.67zm-3.649 35.155-23.264-.009a.577.567.147 0 0-.579.566l-.072 51.495a.647.647 56.352 0 0 .645.648l11.518-.04a.637.627-.294 0 0 .639-.635l-.024-2.29a.75.748 2.195 0 0-.695-.748l-7.286-.437a1.088 1.079-88.451 0 1-1.013-1.078l-.135-16.893a.627.627 89.699 0 1 .628-.636l22.926-.031a.627.627-83.262 0 0 .629-.625l.261-51.475a.438.429 88.901 0 0-.447-.439l-10.214.273a1.355 1.355 88.265 0 0-1.318 1.4v.05a1.533 1.527-87.985 0 0 1.39 1.496l6.18.544a.541.539 2.441 0 1 .497.539l.163 17.898a.43.43 28.036 0 1-.429.427m.018 65.252-23.493.115a.583.573-.159 0 0-.581.575l.204 52.002a.653.653-4.282 0 0 .655.652l11.631-.103a.643.633-.6 0 0 .642-.645l-.037-2.312a.758.756 1.889 0 0-.706-.752l-7.359-.402a1.099 1.09-88.756 0 1-1.029-1.083l-.228-17.059a.633.633 89.394 0 1 .632-.645l23.15-.154a.633.633 16.768 0 0 .632-.635l-.013-51.983a.442.433 88.595 0 0-.454-.441l-10.313.33a1.37 1.37 87.96 0 0-1.323 1.421v.051a1.548 1.542-88.29 0 0 1.412 1.504l6.244.515a.546.544 2.135 0 1 .504.542l.261 18.074a.43.43-52.897 0 1-.431.433m-.038 65.818-23.315.05a.579.569 0 0 0-.578.569l.06 51.608a.65.65-45 0 0 .648.649l11.543-.07a.638.629-.441 0 0 .639-.639l-.03-2.294a.752.75 2.048 0 0-.699-.749l-7.303-.419a1.091 1.082-88.598 0 1-1.017-1.077l-.18-16.93a.63.63 89.552 0 1 .629-.639l22.975-.09a.63.63 1.171 0 0 .629-.628l.129-51.588a.439.43 88.754 0 0-.449-.439l-10.236.299a1.358 1.357 88.118 0 0-1.316 1.407v.05a1.536 1.53-88.132 0 0 1.396 1.496l6.196.529a.542.54 2.294 0 1 .499.538l.209 17.938a.43.43-54.994 0 1-.429.429m.036 65.099-23.298.023a.578.568.067 0 0-.578.567l-.001 51.57a.65.65 4.735 0 0 .647.648l11.534-.056a.638.628-.374 0 0 .639-.637l-.027-2.293a.751.749 2.115 0 0-.697-.749l-7.297-.427a1.09 1.081-88.53 0 1-1.015-1.078l-.16-16.917a.63.63 89.619 0 1 .629-.637l22.958-.063a.63.63 56.606 0 0 .629-.628l.19-51.549a.439.43 88.821 0 0-.448-.439l-10.229.287a1.357 1.357 88.186 0 0-1.317 1.404v.05a1.535 1.529-88.064 0 0 1.394 1.497l6.19.536a.542.54 2.361 0 1 .498.539l.188 17.924a.43.43 29.094 0 1-.429.428m-.02 65.096-23.213-.02a.576.566.172 0 0-.578.565l-.094 51.381a.646.646 4.822 0 0 .644.648l11.492-.035a.636.626-.269 0 0 .638-.634l-.023-2.285a.749.747 2.22 0 0-.693-.747l-7.27-.439a1.086 1.077-88.425 0 1-1.01-1.075l-.128-16.857a.626.626 89.724 0 1 .628-.633l22.875-.021a.626.626-2.276 0 0 .627-.624l.283-51.362a.437.428 88.926 0 0-.445-.438l-10.192.268a1.352 1.351 88.29 0 0-1.315 1.396v.05a1.529 1.524-87.96 0 0 1.386 1.494l6.166.545a.54.538 2.466 0 1 .495.538l.155 17.859a.427.427.098 0 1-.428.426m-.01 65.057-23.234-.002a.577.567.128 0 0-.577.565l-.056 51.427a.646.646 6.583 0 0 .645.648l11.503-.044a.636.626-.313 0 0 .637-.635l-.024-2.286a.749.747 2.176 0 0-.695-.748l-7.276-.433a1.087 1.078-88.469 0 1-1.011-1.076l-.142-16.871a.626.626 89.68 0 1 .628-.635l22.895-.038a.626.626 80.841 0 0 .628-.625l.244-51.407a.437.428 88.882 0 0-.447-.438l-10.2.275a1.353 1.353 88.247 0 0-1.316 1.399v.05a1.531 1.525-88.003 0 0 1.389 1.494l6.172.541a.54.538 2.422 0 1 .496.538l.169 17.875a.427.427 22.011 0 1-.428.426m-.231 46.092a.65.65 57.041 0 1 .594.647v17.704a.65.65 32.66 0 1-.65.65h-22.95a.65.65-8.934 0 0-.65.65v51.64a.65.65 85.988 0 0 .65.65h11.58a.65.65-8.934 0 0 .65-.65v-2.324a.65.65-89.12 0 0-.594-.647l-7.952-.688a.65.65-49.123 0 1-.594-.647V954.62a.65.65-53.49 0 1 .65-.65h22.96a.65.65 74.835 0 0 .65-.65v-51.36a.65.65-65.853 0 0-.65-.65H159.2a.65.65-87.032 0 0-.65.65v1.704a.65.65-79.343 0 0 .594.647zm.334 84.51-23.397.013a.581.571.091 0 0-.582.57l-.022 51.789a.65.65 9.228 0 0 .65.652l11.583-.052a.641.631-.35 0 0 .642-.64l-.026-2.302a.755.753 2.139 0 0-.7-.752l-7.328-.432a1.094 1.085-88.506 0 1-1.019-1.083l-.153-16.99a.63.63 89.643 0 1 .631-.639l23.057-.054a.63.63 71.965 0 0 .632-.63l.212-51.769a.441.431 88.845 0 0-.45-.441l-10.272.284a1.363 1.363 88.209 0 0-1.324 1.41v.05a1.542 1.536-88.041 0 0 1.399 1.504l6.216.54a.544.542 2.385 0 1 .5.542l.182 18.001a.43.43 31.862 0 1-.431.429"></path><path fill="#f9cf1b" fill-rule="evenodd" d="m138.21 1086.78.77 23.49a.252.25-42.541 0 0 .5.02c1.06-8.53.54-17.46 2.78-26.52a4.237 4.081-39.163 0 0 .12-.99v-23.07l-.05 48.77a.526.509 14.991 0 0 .27.45l25.99 14.34a1.335 1.325-60.308 0 0 1.8-.5l4.83-8.37a1.04 1.039-60.657 0 0-.4-1.43l-.82-.45a1.623 1.62 31.492 0 0-2.13.51l-2.78 4.15a.706.701 31.484 0 1-.93.22l-17.2-9.93a.808.801 32.488 0 1-.26-1.15l2.07-3.09a.695.694-54.599 0 1 1-.17c4.65 3.58 9.07 7.08 13.32 8.47a1.333 1.331 69.074 0 0 1.08-2.42l-5.07-2.93a.609.6 30.559 0 1-.22-.83l5.31-9.12 5.15-9.76a4.096 4.077-31.372 0 0 .48-1.96c-.02-4.42-.31-8.27.07-13.28q.65-8.62.74-17.26.33 23.05.13 34.54-.03 2.34 2.07 3.42c7.73 3.97 12.38 6.16 18.98 10.34 3.52 2.24 7.57 3.97 12.5 6.77q6.87 3.91 14.16 7.48.26.13 1.69 1.14a1.039 1.036-56.796 0 1 .29 1.4l-11.6 18.8a.305.3-60.135 0 0 .11.42l9.09 5.01a1.704 1.702 80.652 0 0 1.97-2.75q-1.67-1.52-4.84-3.14a.596.595-61.982 0 1-.25-.82l8.83-15.99a.707.707 54.823 0 1 .96-.28l52.12 28.76a.93.928-59.742 0 1 .34 1.3l-11.21 18.18a.966.964-59.619 0 0 .35 1.35l8.42 4.64a1.26 1.234-33.829 0 0 .75.14q1.61-.2 2.36-1.43a.727.727 25.102 0 0-.24-1l-5.53-3.41a.664.661-59.746 0 1-.23-.88l8.7-15.76a.994.994 83.741 0 1 1.35-.39l53.18 29.34a1.237 1.236 30.432 0 1 .45 1.73l-11.66 18.89a.521.519 28.565 0 0 .22.74l9.97 4.68a1.673 1.672 79.772 0 0 1.88-2.71q-1.34-1.32-4.48-2.5a1.428 1.425 24.686 0 1-.75-2.02l8.72-15.8a.381.372 28.975 0 1 .51-.14l54.17 29.89a.9.895 30.492 0 1 .33 1.26l-11.67 18.92a.378.377-59.896 0 0 .14.53l9.17 5.06a1.783 1.774-58.606 0 0 2.33-.57l.29-.43a1.355 1.338 32.828 0 0-.42-1.89l-5.23-3.23a.84.827-58.683 0 1-.27-1.15l9.61-15.58a.386.381-58.638 0 1 .52-.13l52.5 28.96a.78.778 30.66 0 1 .28 1.09l-11.79 19.13a.253.252-59.209 0 0 .09.36l9.35 5.16a1.658 1.656 76.324 0 0 1.72-2.83l-4.71-3.15a.532.527-58.328 0 1-.16-.69l8.75-15.86a1.097 1.097 28.726 0 1 1.49-.43l49.28 27.19a1.125 1.121-59.654 0 1 .41 1.58l-8.74 14.17a.56.56 29.28 0 0 .19.77l9.28 5.73a.839.829 45.341 0 0 .84.01l9.11-5.26a.867.866 58.29 0 0 .29-1.23l-9.77-14.85a.745.745 58.791 0 1 .26-1.06l49.25-26.94a.96.955 59.529 0 1 1.26.33l9.99 15.77a1.02 1.02 61.329 0 1-.43 1.47q-3.73 1.7-5.28 3.2a1.534 1.528-81.254 0 0 1.79 2.45l9.4-5.14a.645.642 59.318 0 0 .23-.91l-12.06-19.03a.522.516 59.922 0 1 .19-.73l53.26-29.13a.53.522-30.162 0 1 .7.18l10.12 15.97a.688.683-32.635 0 1-.21.94l-5.62 3.56a1.051 1.048 51.367 0 0-.18 1.63l.57.56a1.614 1.612 52.526 0 0 1.96.26l8.93-5.15a.832.826 58.803 0 0 .28-1.16l-11.42-18.03a1.328 1.327 59.42 0 1 .48-1.87l53.12-29.05a.436.434-31.082 0 1 .57.14l10.37 15.76a.613.613-83.473 0 1-.17.85l-5.81 3.82a1.335 1.333-51.797 0 0 .28 2.37q1.17.42 2.74-.47 2.51-1.42 8.39-4.64a.8.8-30.618 0 0 .29-1.13l-11.97-18.89a.333.332 59.448 0 1 .12-.47l53.74-29.4a.598.586-30.047 0 1 .78.2l10.18 16.07a.875.871 61.785 0 1-.38 1.27q-3.29 1.45-5.17 3.05a1.598 1.598 10.513 0 0 1.8 2.62l9.39-5.14a.601.596-30.726 0 0 .22-.85l-11.75-18.55a.995.995-30.59 0 1 .36-1.4l52.71-28.82a.826.82-30.383 0 1 1.09.28l9.89 15.62a.835.832-32.47 0 1-.26 1.16l-5.2 3.3a1.293 1.29 57.277 0 0-.39 1.8l.26.4a1.458 1.454 58.96 0 0 1.92.48l9.26-5.06a.681.676-30.618 0 0 .25-.96l-11.73-18.52a.9.9-30.45 0 1 .33-1.27l48.39-26.46a.924.916 75.895 0 0 .48-.81v-39.34a.82.82-60.154 0 1 .82-.82h22.9a.57.57 74.831 0 0 .57-.57v-11.09a.8.8-78.718 0 0-.8-.8h-2.23a.91.91-45.051 0 0-.91.91v6.08a1.47 1.46-90 0 1-1.46 1.47h-18.09a.8.79 0 0 1-.8-.79v-59.89a.47.46 0 0 1 .47-.46h23.25a.54.54-45 0 0 .54-.54v-11.2a.62.61 0 0 0-.62-.61h-2.59a.68.68 45 0 0-.68.68v6.36a1.14 1.14-45 0 1-1.14 1.14h-18.98a.26.26 0 0 1-.26-.26v-59.81a1.2 1.19 0 0 1 1.2-1.19h22.59a.46.46 45 0 0 .46-.46v-11.3a.73.73 0 0 0-.73-.73h-2.59a.58.57-90 0 0-.57.58v6.57a1.11 1.11 29.826 0 1-1.11 1.11h-18.58a.69.68 0 0 1-.69-.68v-59.25a.52.52 0 0 1 .52-.52h23.26a.48.48 45 0 0 .48-.48v-11.21a.82.82 45 0 0-.82-.82h-2.29a.673.664 2.313 0 0-.67.61l-.58 6.75a.896.893-87.551 0 1-.89.82h-18.54a.52.52-45 0 1-.52-.52v-59.5a.92.92 25.215 0 1 .92-.92h22.94a.47.46-90 0 0 .46-.47v-11.29a.81.81 45.036 0 0-.81-.81h-2.41a.87.87-45 0 0-.87.87v6.25a1.25 1.25 45 0 1-1.25 1.25h-18.66a.31.3-90 0 1-.3-.31v-59.68a.8.79 90 0 1 .79-.8h23.04a.5.5 45 0 0 .5-.5v-11.18a.84.84-45 0 0-.84-.84h-2.4a1.01 1.01 45 0 0-1.01 1.01v6.39a.85.85 45 0 1-.85.85H849.2a.36.36 45 0 1-.36-.36v-60.13a.49.48 0 0 1 .49-.48h23.36a.46.46-84.145 0 0 .46-.46v-11.79a.28.27-90 0 0-.27-.28h-3.23a.48.48-8.159 0 0-.48.48v6.68a1.22 1.22 45 0 1-1.22 1.22H849.3a.41.41 45.003 0 1-.41-.41v-61.47a.71.71 45 0 1 .71-.71h23.02a.44.43 0 0 0 .44-.43v-10.99a.68.68 81.84 0 0-.68-.68h-2.14a.765.763-87.541 0 0-.76.7l-.55 6.27a1.541 1.535-87.559 0 1-1.53 1.41h-17.86a.64.64-45 0 1-.64-.64v-60.44a.59.59-54.466 0 1 .59-.59h23.31a.37.36 0 0 0 .37-.36v-10.68a.96.95 0 0 0-.96-.95h-2.09a.9.9 45 0 0-.9.9v5.73a1.48 1.48 45 0 1-1.48 1.48h-18.25a.63.63 45 0 1-.63-.63V464a.85.84 0 0 1 .85-.84h23.11a.37.37-78.772 0 0 .37-.37v-11.02a1.03 1.03-8.168 0 0-1.03-1.03h-1.85a1.21 1.2 90 0 0-1.2 1.21v5.9a1.3 1.3-44.991 0 1-1.3 1.3H849.3a.49.49-45 0 1-.49-.49v-33.85a.88.88-15.254 0 0-.88-.88h-10.08a.94.94-8.196 0 0-.94.94V427a.88.87-90 0 0 .87.88h6.23a.84.84-56.25 0 1 .84.84v18.49a.55.55-45.008 0 1-.55.55h-58.37a.4.39-90 0 1-.39-.4v-23.04a.65.64 90 0 0-.64-.65h-11.49a.74.73 90 0 0-.73.74v2.8a.79.79-5.382 0 0 .79.79h6.25a.81.81 45 0 1 .81.81v18.17a.63.63 36.836 0 1-.63.63h-58.8a.48.48 45 0 1-.48-.48v-22.61a.73.73 5.851 0 0-.73-.73h-10.95a.96.95-90 0 0-.95.96v2.32a.84.84-15.202 0 0 .84.84h6.07a.8.79-90 0 1 .79.8v18.48a.49.49-45 0 1-.49.49h-57.76a.59.58 0 0 1-.59-.58v-22.61a.65.65 70.79 0 0-.65-.65h-11.01a1.229 1.224-87.439 0 0-1.22 1.12l-.16 1.9a.928.924-87.444 0 0 .92 1.01h7.03a.6.6 33.748 0 1 .6.6v19.01a.19.18 90 0 1-.18.19h-31.89a.45.45 38.178 0 1-.45-.45v-32.61a.737.734-5.768 0 1 .59-.72q.55-.1 1.25-.02.99.13 1.31-.23.37-.4.5-1.5a1.064 1.056-86.64 0 1 1.05-.94h66.06a.51.51 0 0 1 .51.51v23.02a.67.67 74.828 0 0 .67.67h11.68a.6.59 0 0 0 .6-.59v-2.41a.81.81-84.155 0 0-.81-.81h-7.07a.68.68-56.255 0 1-.68-.68V411.7a.45.45-44.992 0 1 .45-.45h59.3a.48.48 45 0 1 .48.48v23.12a.6.59 0 0 0 .6.59h11.87a.53.53 45 0 0 .53-.53v-2.45a.83.83 44.98 0 0-.83-.83h-7.29a.59.59 32.053 0 1-.59-.59v-19.05a.76.76-45 0 1 .76-.76h58.89a.56.56-45.014 0 1 .56.56v23.07a.57.57-84.138 0 0 .57.57h11.66a.73.73 0 0 0 .73-.73v-2.12a.93.93-45 0 0-.93-.93h-6.92a.66.66.073 0 1-.66-.66v-19.23a.65.64 0 0 1 .65-.64h59.79a.7.7-44.989 0 1 .7.7v88.33a.56.55 0 0 1-.56.55H861.8a.62.61-90 0 0-.61.62v10.81a.26.26 0 0 0 .26.26h3.5a.61.61-44.978 0 0 .61-.61v-6.69a.49.49-45 0 1 .49-.49h19.25a.45.45-44.994 0 1 .45.45v60.28a.81.8-90 0 1-.8.81H861.6a.5.5 45 0 0-.5.5v10.51a.57.57-84.163 0 0 .57.57h3.16a.7.7-84.138 0 0 .7-.7v-6.6a.57.56 0 0 1 .57-.56h19.17a.51.5 0 0 1 .51.5v60.61a.63.63 35.528 0 1-.63.63h-23.57a.35.35 87.543 0 0-.35.35v11.22a.7.69 0 0 0 .7.69h3.12a.68.68 45 0 0 .68-.68v-6.16a.6.6-54.473 0 1 .6-.6h19.17a.26.26 0 0 1 .26.26v60.62a.76.76-45 0 1-.76.76h-23.42a.3.3 45 0 0-.3.3v10.6a.4.4-2.433 0 0 .4.4h3.49a.55.55-2.464 0 0 .55-.55v-6.35a.55.54 90 0 1 .54-.55h18.76a.7.7-45 0 1 .7.7v60.17a.41.4 0 0 1-.41.4H861.6a.39.39-84.136 0 0-.39.39v10.56a.31.31 45.016 0 0 .31.31h3.56a.5.5 45 0 0 .5-.5v-6.12a.73.73-60.21 0 1 .73-.73h19.01a.37.37-54.465 0 1 .37.37v60.44a.48.48-45 0 1-.48.48h-23.69a.34.33 0 0 0-.34.33v10.61a.36.36 45 0 0 .36.36h3.51a.5.5 45 0 0 .5-.5v-6.19a.74.73-90 0 1 .73-.74h18.94a.48.48 45 0 1 .48.48v59.93a.59.58 0 0 1-.59.58h-23.58a.32.31 90 0 0-.31.32v10.47a.28.28 0 0 0 .28.28h3.53a.45.45-8.158 0 0 .45-.45v-6.16a.86.86 35.543 0 1 .86-.86h18.89a.47.47-45 0 1 .47.47v60.52a.55.55 29.845 0 1-.55.55H861.8a.53.53 45 0 0-.53.53v10.78a.46.46 5.855 0 0 .46.46h3.33a.45.45 45 0 0 .45-.45v-6.66a.66.65 0 0 1 .66-.65h19.1a.41.41-45 0 1 .41.41v60.42a.59.59-45 0 1-.59.59h-23.37a.44.44-45 0 0-.44.44v10.34a.66.66 11.233 0 0 .66.66h2.7a.81.81-44.964 0 0 .81-.81v-6.12a.53.52 0 0 1 .53-.52h19.3a.4.4-64.808 0 1 .4.4v84.54a.464.461-13.832 0 1-.25.41l-30.38 16.62a1.004 1.003 60.69 0 1-1.35-.38l-9.6-16.62a.623.618 60.988 0 1 .24-.85l5.53-3.02a.888.881 53.345 0 0 .2-1.4l-.65-.64a1.696 1.687 53.064 0 0-2.01-.29l-8.6 4.71a.861.849 59.775 0 0-.31 1.21l11.78 18.6a.739.734-30.644 0 1-.27 1.04l-52.68 28.81a.574.573-30.869 0 1-.76-.19l-10.11-15.96a.675.673 59.855 0 1 .25-.95l5.49-3a1.344 1.339 58.863 0 0 .47-1.92l-.16-.23a1.836 1.828 58.914 0 0-2.4-.6l-9.21 5.04a.305.298-31.239 0 0-.11.43l11.68 18.45a1.167 1.166 59.312 0 1-.42 1.65l-52.97 28.96a.543.536-30.569 0 1-.72-.18l-9.94-15.69a1.022 1.018 59.531 0 1 .37-1.44l4.95-2.71a1.3 1.3 54.35 0 0 .52-1.76l-.3-.55a1.638 1.629 61.166 0 0-2.22-.65l-8.97 4.9a.717.712-30.764 0 0-.26 1.01l11.94 18.84a.511.509-30.328 0 1-.19.72l-53.97 29.52a.655.653-30.722 0 1-.87-.22l-9.87-15.59a.756.747-37.625 0 1 .13-.96q2.01-1.82 5.42-3.07a1.131 1.127 63.24 0 0 .55-1.68l-.37-.55a1.88 1.88 59.064 0 0-2.47-.62l-9.08 4.97a.331.328-30.671 0 0-.12.46l11.74 18.53a1.265 1.263-30.636 0 1-.46 1.79l-53.43 29.23a.481.479-30.625 0 1-.63-.16l-10.18-16.08a.637.632-30.884 0 1 .23-.9l5.74-3.14a1.202 1.199 59.185 0 0 .43-1.71l-.34-.51a1.735 1.723 58.904 0 0-2.27-.57l-9.32 5.1a.488.481-30.569 0 0-.18.68l12.03 18.98a.644.633 59.821 0 1-.23.9l-53.08 29.03a.553.551 59.313 0 1-.74-.19l-10.15-16.02a.586.583 59.344 0 1 .21-.83l5.46-2.98a1.405 1.397 61.324 0 0 .55-1.9l-.25-.45a1.71 1.71-15.234 0 0-2.32-.68l-8.63 4.72a1.071 1.068-30.616 0 0-.39 1.51l11.76 18.56a.609.606 59.485 0 1-.22.86l-47.68 26.08a.7.7 64.752 0 1-.68 0l-47.47-26.19a1.12 1.114 30.413 0 1-.41-1.56l11.39-18.46a.65.648 30.314 0 0-.24-.91l-8.54-4.72a1.421 1.411-59.692 0 0-1.88.5l-.67 1.09a1.002.993-58.393 0 0 .32 1.37l4.85 2.99a.561.56 30.143 0 1 .2.75l-8.74 15.83a.64.64 68.398 0 1-.87.25l-52.62-29.03a.671.664 30.251 0 1-.25-.93l11.18-18.12a1.12 1.114 30.413 0 0-.41-1.56l-8.3-4.58a1.472 1.469-65.264 0 0-2.08.77q-.51 1.35.47 2.02 1.42.96 4.78 3.15a.733.722 32.353 0 1 .23.99l-9.37 15.18a.801.798-59.685 0 1-1.06.28l-53.87-29.73a.491.476-59.884 0 1-.17-.68l11.46-18.59a.942.942 28.502 0 0-.4-1.35l-9.29-4.37a.85.848 28.577 0 0-1.09.32l-.79 1.28a.872.864 28.666 0 0 .37 1.24l5.46 2.56a.692.689-61.442 0 1 .29.99l-9.67 15.68a.615.602 30.037 0 1-.82.21l-53.56-29.56a1.098 1.094-60.007 0 1-.41-1.54l11.21-18.16a.663.656 30.671 0 0-.24-.92q-6.85-3.8-9.2-4.64a1.557 1.555 70.688 0 0-1.34 2.79l4.76 2.94a.67.67-19.013 0 1 .22.92l-9.26 15.01a.939.936-59.695 0 1-1.25.33l-51.83-28.6a1.143 1.142 30.308 0 1-.42-1.6l10.78-17.47a.994.987-59.738 0 0-.36-1.39l-8.43-4.65a1.22 1.216-72.975 0 0-1.8.96l-.05.66a1.955 1.941-71.765 0 0 .92 1.84l4.17 2.57a.736.727 31.963 0 1 .24 1.01l-9.13 14.81a.977.975 30.387 0 1-1.31.34l-50.34-27.77a1.34 1.339 30.33 0 1-.49-1.87l10.87-17.61a1.048 1.042 30.196 0 0-.39-1.46l-8.06-4.45a1.48 1.466 31.388 0 0-1.94.46l-.57.86a.858.852 32.966 0 0 .26 1.2l5.06 3.12a.445.443 29.916 0 1 .16.59l-8.84 16a1.13 1.13-26.347 0 1-1.53.45l-31.3-17.28a1.93 1.928 14.423 0 1-1-1.69zm523.06-666.46v22.55a.88.88-15.254 0 0 .88.88h48.91a.57.57-45 0 0 .57-.57V432.4a.86.85-90 0 0-.85-.86h-1.9a1.2 1.19 90 0 0-1.19 1.2v6.07a.82.81 0 0 1-.82.81h-19.16a.72.72 0 0 1-.72-.72v-22.6a.94.93-90 0 0-.93-.94h-52.34a.64.64 11.211 0 0-.64.64v19.14a.36.36 74.825 0 0 .36.36h8.6a.894.886 7.674 0 0 .86-.65q.3-1.1-.35-2.35a1.051 1.034 81.791 0 0-.71-.54l-3.97-.88a.714.711-56.162 0 1-.25-1.28q1.79-1.25 2.06-1.95a1.6 1.6 73.119 0 0 .1-.6l-.23-6.91a.76.76 88.912 0 1 .76-.79h20.19a.77.77 45 0 1 .77.77m43.244-.628 20.331-.107a.514.514-56.477 0 1 .515.512l-.074 23.265a.494.484 89.812 0 0 .485.492l49.935-.083a.786.786 89.449 0 0 .784-.799l-.127-10.816a.819.813 86.876 0 0-.889-.803l-1.965.198a1.084 1.077 87.177 0 0-.974 1.082l-.02 6.169a.746.746 35.424 0 1-.744.748l-19.443.175a.685.675-.188 0 1-.688-.673l-.066-23.053a.675.675-15.316 0 0-.677-.673l-51.044.158a.3.3 45.298 0 0-.301.303l.008 11.824a.726.726-.581 0 0 .739.723l2.792-.08a.717.706 89.397 0 0 .683-.707l-.004-7.117a.746.736-.188 0 1 .744-.738m63.586 8.458a.55.55-45 0 0 .55-.55v-7.43a.55.55-45.008 0 1 .55-.55h20.25a.55.55 31.371 0 1 .55.55v23a.55.55-5.35 0 0 .55.55h49.58a.55.55-45.063 0 0 .55-.55v-11.165a.55.55 73.014 0 0-.602-.547l-2.76.264a.55.55 13.837 0 0-.498.548v6.79a.55.55 45.008 0 1-.55.55h-19.63a.55.55 45.005 0 1-.55-.55V416a.55.55 45 0 0-.55-.55h-50.52a.55.55 81.86 0 0-.55.55v11.6a.55.55-5.35 0 0 .55.55zm94.32 19.18h2.47a.55.55 17.647 0 0 .55-.55v-6.63a1.29 1.28 90 0 1 1.28-1.29h13.98a.63.62 0 0 0 .63-.62v-21.76a1.18 1.18 5.841 0 0-1.18-1.18H829.5a.59.58 90 0 0-.58.59v11.17a.81.8 90 0 0 .8.81h2.61a.72.72-84.142 0 0 .72-.72v-7.01a.56.56-51.112 0 1 .56-.56h21.98a2.818 2.778-26.357 0 1 1.67.55q2.83 2.11 6.74 2.43a.975.972 3.424 0 1 .89 1q-.37 11.27-1.71 21.13c-.09.66-.74 1.42-1.08 2.11a.365.361-76.384 0 0 .32.53m-215.09-15.58-2.58.25a.927.924-13.855 0 0-.77 1.27q.98 2.4.91 5.28a1.02 1.02-89.427 0 1-1.02 1h-14.21a.55.55-60.163 0 1-.55-.55v-22.24a1.295 1.283 87.191 0 0-1.41-1.29l-1.49.14a2.1 2.089-2.885 0 0-1.89 2.08v25.35a.83.83 45 0 0 .83.83h22.4a.76.76 0 0 0 .76-.76v-10.47a.898.894-2.635 0 0-.98-.89m207.17-11.11a.791.791-67.512 0 0-1.35.56v33.01a.7.7 0 0 0 .7.7h11.65a.79.79 81.828 0 0 .79-.79v-1.83a1.135 1.128-87.518 0 0-1.03-1.13l-7.39-.64a.639.638-3.682 0 1-.57-.5q-.67-3.44 1.05-5.13c1.96-1.92 1.8-3.68 1.78-6.14q-.04-5.91-.38-11.04a5.203 5.192-69.453 0 0-1.51-3.33zm2.794 94.753a.54.54 22.541 0 1-.494-.538V497.23a.54.54-51.102 0 1 .54-.54h23.5a.54.54 17.67 0 0 .54-.54v-52.47a.54.54 45 0 0-.54-.54H870.2a.54.54-45 0 0-.54.54v2.585a.54.54-12.614 0 0 .493.538l6.744.584a.54.54 35.818 0 1 .493.538v18.665a.54.54 45 0 1-.54.54H853.8a.54.54-45 0 0-.54.54v51.52a.54.54 45 0 0 .54.54h11.86a.54.54-45 0 0 .54-.54v-2.535a.54.54-22.959 0 0-.494-.538zm19.955 16.533-23.493.09a.583.573-.096 0 0-.582.574l.148 52.002a.653.653 79.552 0 0 .655.652l11.63-.09a.643.633-.537 0 0 .643-.644l-.034-2.312a.758.756 1.952 0 0-.705-.753l-7.36-.41a1.099 1.09-88.693 0 1-1.027-1.084l-.209-17.059a.633.633 89.456 0 1 .632-.644l23.151-.13a.633.633 74.739 0 0 .632-.634l.043-51.983a.442.433 88.658 0 0-.453-.441l-10.313.319a1.37 1.37 88.022 0 0-1.325 1.419v.051a1.548 1.542-88.228 0 0 1.41 1.505l6.244.522a.546.544 2.198 0 1 .503.542l.242 18.075a.43.43-.067 0 1-.432.433m-.469 65.654h-23.1a.46.46-2.446 0 0-.46.46v53.26a.36.36-2.449 0 0 .36.36h12.15a.57.57 45 0 0 .57-.57v-2.68a.634.632 2.473 0 0-.58-.63l-8.06-.7a.795.792 2.357 0 1-.73-.79v-17.43a1.16 1.15 0 0 1 1.16-1.15h22.55a.74.73 90 0 0 .73-.74V574.9a.4.39-90 0 0-.39-.4h-10.63a1.603 1.603-42.511 0 0-.14 3.2l6.76.59a.563.563 2.206 0 1 .52.56v18.02a.71.71 45 0 1-.71.71m.112 66.439-23.056.068a.603.593-.144 0 0-.602.595l-.041 51.864a.573.563 89.363 0 0 .575.571l11.543-.2a.875.875-.477 0 0 .862-.877l-.005-2.011a.959.957 1.789 0 0-.897-.953l-7.462-.504a.719.717 1.623 0 1-.666-.702l-.394-17.052a.524.523 88.795 0 1 .521-.544l23.77-.14a.42.42-70.207 0 0 .421-.424l-.121-52.476a.563.563-.646 0 0-.575-.562l-10.718.097a1.046 1.046 88.775 0 0-1.033 1.079l.033 1.216a1.074 1.066-88.641 0 0 .978 1.034l6.839.566a.578.569-87.901 0 1 .514.562l.176 18.118a.674.664 89.856 0 1-.662.675m-.017 65.279-22.907.043a.599.589-.084 0 0-.599.591l-.094 51.528a.569.56 89.422 0 0 .57.569l11.469-.187a.87.87-.417 0 0 .858-.87l-.003-1.998a.953.951 1.849 0 0-.891-.948l-7.413-.508a.714.712 1.682 0 1-.661-.699l-.374-16.942a.52.52 88.855 0 1 .519-.541l23.616-.114a.42.42-22.528 0 0 .419-.42l-.067-52.138a.56.56-.587 0 0-.57-.559l-10.649.086a1.04 1.039 88.835 0 0-1.028 1.07l.032 1.209a1.067 1.059-88.581 0 0 .971 1.028l6.794.569a.574.566-87.842 0 1 .51.559l.156 18.002a.669.659 89.916 0 1-.658.67m-.008 45.88a.66.66-57.06 0 1 .603.657v17.935a.66.66-54.477 0 1-.66.66h-22.89a.66.66 87.537 0 0-.66.66v51.34a.66.66 87.526 0 0 .66.66h11.49a.66.66 45 0 0 .66-.66v-2.495a.66.66-82.181 0 0-.603-.657l-7.924-.686a.66.66-41.4 0 1-.603-.657V825.09a.66.66-51.106 0 1 .66-.66h23.09a.66.66 45.027 0 0 .66-.66v-51.85a.66.66-2.462 0 0-.66-.66h-10.87a.66.66-15.201 0 0-.66.66v1.985a.66.66 82.791 0 0 .603.657zm-.018 84.313-22.79-.047a.596.586.144 0 0-.598.584l-.297 51.265a.566.557 89.65 0 0 .565.568l11.411-.14a.865.865-.19 0 0 .856-.863l.005-1.987a.948.946 2.076 0 0-.882-.947l-7.373-.535a.711.709 1.91 0 1-.655-.698l-.305-16.857a.518.517 89.082 0 1 .518-.535l23.496-.021a.417.417-45.059 0 0 .419-.416l.139-51.872a.557.557-.359 0 0-.565-.558l-10.595.043a1.034 1.034 89.063 0 0-1.026 1.061l.027 1.203a1.062 1.054-88.354 0 0 .961 1.026l6.757.593a.571.563-87.614 0 1 .506.558l.084 17.91a.666.656-89.856 0 1-.658.665m.013 64.827-22.99.007a.602.592.007 0 0-.602.592l-.177 51.715a.571.562 89.513 0 0 .572.571l11.51-.169a.87.87-.326 0 0 .862-.872v-2.005a.957.955 1.94 0 0-.892-.953l-7.439-.522a.717.715 1.773 0 1-.662-.702l-.349-17.004a.52.52 88.946 0 1 .522-.542l23.702-.077a.42.42 45.097 0 0 .421-.421l.016-52.327a.56.56-.496 0 0-.571-.561l-10.688.069a1.043 1.043 88.926 0 0-1.033 1.072l.03 1.213a1.071 1.063-88.49 0 0 .972 1.033l6.818.583a.576.568-87.751 0 1 .511.561l.128 18.067a.672.662-89.993 0 1-.661.672m-.012 65.49-22.954-.008a.601.591.045 0 0-.601.59l-.21 51.633a.571.561 89.551 0 0 .57.571l11.492-.161a.87.87-.288 0 0 .862-.87l.001-2.002a.955.953 1.978 0 0-.89-.952l-7.427-.526a.716.714 1.811 0 1-.66-.701l-.338-16.978a.52.52 88.983 0 1 .521-.54l23.665-.062a.42.42-70.181 0 0 .421-.42l.05-52.244a.56.56-.458 0 0-.57-.561l-10.671.062a1.042 1.041 88.964 0 0-1.032 1.07l.029 1.212a1.069 1.061-88.452 0 0 .971 1.032l6.806.585a.575.567-87.713 0 1 .51.561l.116 18.039a.671.661-89.955 0 1-.661.67m-5.66 113.212 3.47 3.47a.87.867-37.617 0 1-.18 1.37l-17.32 10a.901.9-31.019 0 1-1.21-.3l-2.84-4.48a1.126 1.124-31.279 0 0-1.52-.37l-1.45.83a.874.864-31.497 0 0-.3 1.22l5.78 9.12a.708.706-30.007 0 0 .94.25l24.65-13.48a.326.313 75.875 0 0 .16-.28v-77.36a.9.89-90 0 0-.89-.9h-10.59a1.095 1.093-14.378 0 0-.96 1.62l.36.67a1.62 1.602-11.627 0 0 1.26.82l5.96.51a.854.847-87.426 0 1 .77.85v17.86a.52.52 0 0 1-.52.52h-23.24a.23.23 0 0 0-.23.23v34.49a1.775 1.76-61.265 0 0 .27.94l9.46 14.93a.663.658 64.335 0 1-.34.98q-3.49 1.19-5.78 3.58a1.21 1.207-59.436 0 0 .51 1.99q.01.01.19.05a.681.679 40.708 0 0 .41-.03q6.24-2.53 12.11-7.09a1.184 1.174 73.674 0 0 .46-.85l.09-.97a.305.304 24.77 0 1 .52-.19m-663.94 36.61q1.81-4.33 2.49-5.38 8.02-12.38 8.89-13.88a.64.631 29.965 0 0-.24-.87l-43.91-24.22a.904.904-17.302 0 0-1.23.35l-4.15 7.52a1.511 1.506-59.861 0 0 .53 2.01l.55.34a1.257 1.257-29.723 0 0 1.73-.41l2.38-3.87a1.385 1.381 30.285 0 1 1.84-.48l16.13 8.9a.318.314 30.062 0 1 .12.44l-11.51 18.65a.788.786 30.305 0 0 .29 1.1l43.75 24.14a.896.894 30.447 0 0 1.2-.31l5.05-8.19a.972.964-59.657 0 0-.35-1.36l-.59-.32a1.8 1.8-56.152 0 0-2.28.45l-3.58 4.5a.631.627-56.296 0 1-.79.16l-16.21-8.95a.25.25-63.998 0 1-.11-.32m610.16.88-16.97 9.27a1.231 1.223-30.957 0 1-1.62-.4l-2.75-4.18a1.662 1.656 59.065 0 0-2.18-.55l-.95.52a1.188 1.184-30.648 0 0-.43 1.67l5.27 8.33a.589.578-30.579 0 0 .77.19l45.92-25.12a.383.377 59.978 0 0 .14-.54l-12.09-19.1a.631.628 59.617 0 1 .23-.89l16.45-9a1.196 1.196 60.921 0 1 1.61.46q.89 1.57 2.27 3.75.8 1.26 2.03 1.43a1.773 1.644-7.93 0 0 1.91-2.34q-2.25-4.57-5.2-8.34a.803.802-33.338 0 0-1.02-.21l-44.7 24.44a.95.942 59.572 0 0-.34 1.33l11.81 18.64a.457.451-31.362 0 1-.16.64m-536.73 39.94-16.56-9.14a.792.789-59.741 0 1-.29-1.11l11.49-18.64a.58.574-59.838 0 0-.21-.81l-44.14-24.36a1.123 1.115-59.816 0 0-1.49.4l-4.76 7.82a1.58 1.579-60.568 0 0 .62 2.23l.23.14a1.668 1.665 31.808 0 0 2.31-.54l2.26-3.66a1.279 1.269-60.579 0 1 1.66-.47l16.12 8.27a.473.472-60.941 0 1 .19.67l-11.31 18.34a.734.731-59.794 0 0 .27 1.03l44.94 24.8a1.085 1.082-57.8 0 0 1.4-.32q2.18-3.04 4.36-6.88c.97-1.72.31-2.63-1.16-3.39a.916.909-57.129 0 0-1.14.25l-4.18 5.24a.497.479-56.019 0 1-.61.13m494.087-38.176a.658.648-30.709 0 1 .241-.919l17.144-9.339a.601.6 61.093 0 1 .8.232q1.844 3.182 3.39 5.205.938 1.211 2.94-.515a1.291 1.285-36.522 0 0 .253-1.669l-5.204-8.238a.826.82-30.283 0 0-1.09-.282l-45.527 24.797a.726.72-30.283 0 0-.271 1.019l11.955 18.938a.609.606 59.586 0 1-.222.86l-17.054 9.298a.643.627-32.186 0 1-.799-.171l-3.681-4.836a1 .992 56.957 0 0-1.259-.272l-1.772.967a.65.642 59.476 0 0-.231.919l5.294 8.398a.767.761-30.235 0 0 1.009.262l45.387-24.717a1.026 1.018-30.72 0 0 .373-1.439zM322.12 1202.76l11.33-18.36a1.187 1.186 30.173 0 0-.44-1.66l-45.17-24.93a1.13 1.13-14.275 0 0-1.53.45l-4.68 8.47a1.097 1.097-58.464 0 0 .43 1.49l1.07.59a1.325 1.32-61.093 0 0 1.79-.52l2.42-4.39a1.383 1.374 28.71 0 1 1.87-.54l16.18 8.93a.282.273 29.737 0 1 .11.38l-11.19 19.38a.453.448-60.639 0 0 .17.62l46.49 25.65a.895.892-59.497 0 0 1.19-.31l5.16-8.37a1.053 1.045 38.201 0 0-.16-1.3c-1.33-1.3-2.59-1.23-3.91.55q-2.11 2.85-2.95 3.96a.684.661-56.516 0 1-.86.19l-17.1-9.44a.602.596-59.966 0 1-.22-.84m406.246-9.242a.72.72 2.963 0 0 .263-1.017l-11.778-18.582a.72.72-88.536 0 1 .263-1.018l16.624-9.093a.72.72-83.886 0 1 .947.236l3.69 5.602a.72.72 75.984 0 0 .947.236l2.074-1.134a.72.72 53.863 0 0 .264-1.017l-5.759-9.1a.72.72-5.516 0 0-.954-.247l-45.983 25.148a.72.72-30.119 0 0-.263 1.017l11.858 18.722a.72.72.638 0 1-.263 1.017l-17.314 9.464a.72.72 13.074 0 1-.947-.236l-3.44-5.222a.72.72-65.969 0 0-.947-.236l-2.074 1.134a.72.72-34.423 0 0-.263 1.017l5.438 8.581a.72.72-77.368 0 0 .953.246zM400.39 1250.87l5.61-9.09a.77.77-56.419 0 0-.21-1.04q-.89-.62-1.73-.76a1.4 1.381-60.633 0 0-1.15.33q-2.39 2.13-3.89 5.12a.537.533-62.269 0 1-.73.23l-16.93-9.34a.695.689 27.541 0 1-.29-.91c3.27-6.72 8.12-13.11 11.82-18.98a.408.406 30.625 0 0-.15-.58l-46.31-25.56a.928.922 30.227 0 0-1.23.32l-5.11 8.28a.988.983 31.82 0 0 .32 1.35l1.69 1.04a.88.88-80.261 0 0 1.21-.29l3.05-4.94a1.045 1.039 30.315 0 1 1.39-.36l16.52 9.11a.479.473 31.149 0 1 .17.67l-11.62 18.85a.591.589 30.254 0 0 .22.83l46.85 25.85a.378.377-59.448 0 0 .5-.13m257.841-45.918 16.785-8.988a.845.84 59.551 0 1 1.102.29l3.229 4.944a1.4 1.393-29.528 0 0 1.783.489l1.211-.602a1.037 1.034 61.089 0 0 .419-1.462l-5.566-9.198a.387.386 60.201 0 0-.51-.14l-46.462 25.226a.682.674 59.851 0 0-.25.962l11.864 19.056a.678.677-29.94 0 1-.26.961l-17.065 9.178a.965.963 58.158 0 1-1.232-.289l-3.188-4.433a1.39 1.385 60.066 0 0-1.693-.46l-1.392.623a.893.892-28.238 0 0-.389 1.292l5.435 8.577a.642.64-30.441 0 0 .852.219l46.771-25.577a.691.686-30.272 0 0 .26-.971l-11.903-18.976a.515.505-30.098 0 1 .199-.721M423.07 1237.17a.346.343 29.265 0 1 .14.49l-11.82 19.16a.51.503 30.401 0 0 .19.71l44.94 24.8a.812.806 30.113 0 0 1.07-.28l4.68-7.6a1.698 1.696 85.258 0 0-2.56-2.17q-1.41 1.25-3.78 4.86a.574.573 30.869 0 1-.76.19l-16.61-9.16a.85.847-59.695 0 1-.31-1.19l11.37-18.43a.93.928-59.742 0 0-.34-1.3l-44.58-24.6a.355.348-55.743 0 0-.45.09q-3.1 3.95-5.35 8.68-.53 1.14-.13 1.63a1.957 1.743 43.832 0 0 2.94.11q.21-.28 2.9-3.95a1.592 1.585-58.368 0 1 2-.48zm176.04 1.03a.658.648-30.809 0 1 .24-.92l17.13-9.37a.601.6 60.993 0 1 .8.23q1.85 3.18 3.4 5.2.94 1.21 2.94-.52a1.291 1.285-36.623 0 0 .25-1.67l-5.22-8.23a.826.82-30.383 0 0-1.09-.28l-45.49 24.88a.726.721-30.383 0 0-.27 1.02l11.99 18.92a.609.606 59.485 0 1-.22.86l-17.04 9.33a.643.627-32.286 0 1-.8-.17l-3.69-4.83a1.001.992 56.857 0 0-1.26-.27l-1.77.97a.65.643 59.376 0 0-.23.92l5.31 8.39a.768.761-30.335 0 0 1.01.26l45.35-24.8a1.026 1.018-30.821 0 0 .37-1.44zm-119.01 30.95-11.93 19.34a.556.553 30.043 0 0 .21.78l41.45 22.81a2.377 2.358-44.769 0 0 2.27 0l41.24-22.56a.631.628 59.617 0 0 .23-.89l-12.23-19.31a.414.412 59.599 0 1 .15-.58l16.74-9.15a.911.896 59.136 0 1 1.19.31l3.1 4.9a1.66 1.66 62.176 0 0 2.07.64l1.09-.47a1.067 1.064 62.298 0 0 .48-1.55l-5.71-9.01a.664.661-30.254 0 0-.88-.23l-42 22.97a.528.525 59.375 0 0-.19.75l9.61 14.59a.884.878 60.173 0 1-.34 1.27c-4 2.02-13.91 6.87-15.08 10.29a.566.564 23.094 0 1-.8.32c-.66-.34-2.21-2.46-3.4-3.31q-.68-.48-11.28-7.8a1.049 1.046 34.466 0 1-.27-1.44l9-13.43a.498.493 31.042 0 0-.18-.71l-42.73-23.51a.712.707 28.707 0 0-.97.28l-4.9 8.9a1.075 1.075-62.289 0 0 .46 1.48l.85.44a1.558 1.548-61.992 0 0 2.07-.64l2.09-3.79a1.437 1.436-62.145 0 1 1.91-.59l16.57 8.5a.284.283-60.485 0 1 .11.4"></path><path fill-rule="evenodd" d="M142.38 454.74v-39.33a.74.73 89.608 0 1 .72-.74q21.55-.3 48.11-.23 2.18 0 2.26 2.57.17 5.49.13 10.67a.65.65-89.552 0 1-.65.64h-2.63a.91.91 25.106 0 1-.91-.91v-7.11a.81.81 11.326 0 0-.81-.81h-20.72a1.492 1.484-80.736 0 0-1.41 1.02q-1.31 4.04-6.12 4.23a.876.87 7.381 0 0-.81.62q-.65 2.08-.01 4.23a.941.92 2.02 0 0 .6.63q2.28.78 4.46.34a1.106 1.103-3.135 0 0 .89-.99l.41-4.71a1.005.994 4.836 0 1 1.09-.91l4.65.4a.58.577 17.796 0 1 .45.87c-1.32 2.25-.78 9.16-.73 12.67a.88.87 89.674 0 1-.87.89h-14.2a1.41 1.4 0 0 0-1.41 1.4v6.29a1.07 1.07-56.225 0 1-1.07 1.07h-2.14a.96.96 45 0 1-.96-.96v-8.1a1.04 1.04-88.309 0 0-1.04-1.04h-2.79a.58.58 79.625 0 0-.58.58v11.92a1.41 1.4-90 0 0 1.4 1.41h6.16a1.18 1.17 90 0 1 1.17 1.18v1.58a1.17 1.17-.14 0 1-1.17 1.17h-10.93a.54.54-44.985 0 1-.54-.54M320.38 419.45h-20.63a.65.65-45.052 0 0-.65.65v21.52a.655.626 64.736 0 1-.13.39q-1.42 1.88-3.74 1.85-21.14-.31-47.45-.13a.67.67-.421 0 1-.68-.67v-11.04a.54.54 29.825 0 1 .54-.54h2.81a.78.78 25.2 0 1 .78.78v6.88a.53.53-72.401 0 0 .53.53h20.18a.51.51 0 0 0 .51-.51v-23.59a.59.58-89.523 0 1 .59-.59q39.72.47 45.47.44 2.47-.01 5.25.55a1.222 1.22-84.578 0 1 .99 1.2v10.34a.79.79-54.479 0 1-.79.79h-2.32a.74.73-90 0 1-.73-.74v-7.57a.54.53-90 0 0-.53-.54M660.5 419.55h-20.19a.76.76 88.912 0 0-.76.79l.23 6.91a1.6 1.6-82.573 0 1-.1.6q-.27.7-2.06 1.95a.714.711-56.162 0 0 .25 1.28l3.97.88a1.051 1.034 81.791 0 1 .71.54q.65 1.25.35 2.35a.894.886 7.674 0 1-.86.65h-8.6a.36.36-56.252 0 1-.36-.36V416a.64.64 36.836 0 1 .64-.64h52.34a.94.93-90 0 1 .93.94v22.6a.72.72 0 0 0 .72.72h19.16a.82.81 0 0 0 .82-.81v-6.07a1.2 1.19 90 0 1 1.19-1.2h1.9a.86.85 90 0 1 .85.86v10.78a.57.57-44.995 0 1-.57.57h-48.91a.88.88 33.737 0 1-.88-.88v-22.55a.77.77 0 0 0-.77-.77"></path><path fill-rule="evenodd" d="M704.514 419.692a.746.736-.188 0 0-.744.738l.004 7.117a.717.706 89.397 0 1-.683.707l-2.792.08a.726.726-.581 0 1-.739-.723l-.008-11.824a.3.3 44.868 0 1 .301-.303l51.044-.158a.675.675 33.574 0 1 .677.673l.066 23.053a.685.675-.188 0 0 .688.673l19.443-.175a.746.746 21.587 0 0 .744-.748l.02-6.169a1.084 1.077 87.177 0 1 .974-1.082l1.965-.198a.819.813 86.876 0 1 .889.803l.127 10.816a.786.786 89.449 0 1-.784.799l-49.935.083a.494.484 89.812 0 1-.485-.492l.074-23.265a.514.514 74.634 0 0-.515-.512z"></path><path fill-rule="evenodd" d="M768.1 428.15h-3.08a.55.55 32.076 0 1-.55-.55V416a.55.55-64.832 0 1 .55-.55h50.52a.55.55-45 0 1 .55.55v23.06a.55.55 45.045 0 0 .55.55h19.63a.55.55-45.063 0 0 .55-.55v-6.79a.55.55 36.753 0 1 .498-.548l2.76-.264a.55.55-73.029 0 1 .602.547v11.165a.55.55 45.008 0 1-.55.55h-49.58a.55.55 32.076 0 1-.55-.55v-23a.55.55-1.638 0 0-.55-.55H769.2a.55.55-45 0 0-.55.55v7.43a.55.55-45.008 0 1-.55.55"></path><path fill-rule="evenodd" d="M862.1 446.8c.34-.69.99-1.45 1.08-2.11q1.34-9.86 1.71-21.13a.975.972 3.424 0 0-.89-1q-3.91-.32-6.74-2.43a2.818 2.778-26.357 0 0-1.67-.55h-21.98a.56.56-86.551 0 0-.56.56v7.01a.72.72-60.202 0 1-.72.72h-2.61a.81.8-90 0 1-.8-.81v-11.17a.59.58 90 0 1 .58-.59h50.65a1.18 1.18 29.831 0 1 1.18 1.18v21.76a.63.62 0 0 1-.63.62h-13.98a1.29 1.28-90 0 0-1.28 1.29v6.63a.55.55 32.803 0 1-.55.55h-2.47a.365.361-76.384 0 1-.32-.53M648.31 432.64v10.47a.76.76-45 0 1-.76.76h-22.4a.83.83 44.991 0 1-.83-.83v-25.35a2.1 2.089-2.885 0 1 1.89-2.08l1.49-.14a1.295 1.283 87.191 0 1 1.41 1.29V439a.55.55-84.132 0 0 .55.55h14.21a1.02 1.02-89.427 0 0 1.02-1q.07-2.88-.91-5.28a.927.924-13.855 0 1 .77-1.27l2.58-.25a.898.894-2.635 0 1 .98.89M400.84 416.49v26.52a.75.75-45 0 1-.75.75h-24.9a.75.75-53.153 0 1-.75-.75v-10.39a.75.75-45 0 1 .75-.75h1.93a.75.75 45 0 1 .75.75v6.14a.75.75 45 0 0 .75.75h17.42a.75.75 45 0 0 .75-.75v-22.27a.75.75-45 0 1 .75-.75h2.55a.75.75 45 0 1 .75.75"></path><path fill="#f9cf1b" fill-rule="evenodd" d="M485.1 490.35a.352.352-30.577 0 0 .17-.66l-48.3-26.66a.659.658-60.986 0 1-.26-.91l6.64-11.5a.336.336 65.046 0 1 .46-.12l47.38 27.36a.286.286-30.663 0 0 .39-.39l-27.24-47.18a1.02 1.019 62.506 0 1 .45-1.43l10.98-5.15a.827.816 62.402 0 1 1.06.34l27.29 47.27a.334.332-60.179 0 0 .62-.17v-54.17a.95.95 45 0 1 .95-.95h12.38a.8.79 90 0 1 .79.8l-.15 53.63v.03q.09.24.12.28a.427.426-48.096 0 0 .72-.04l27.29-47.05a.744.74 28.38 0 1 .98-.29l11.19 5.74a.457.448 25.986 0 1 .21.59q-2 4.35-3.98 7.62c-7.69 12.69-15.12 25.94-23.37 39.64a.455.451-89.3 0 0 .61.63l47.45-27.4a.936.927-28.999 0 1 1.28.36l6.22 11.38a.635.627-29.184 0 1-.25.86l-48.4 26.47a.399.399-59.24 0 0 .19.75h55.37a.92.91-90 0 1 .91.92v12.03a.52.51 90 0 1-.51.52h-68.85a3.929 3.908 67.388 0 1-2.77-1.15l-11.47-11.47a.48.48 0 0 0-.68 0l-12.64 12.64a1.301 1.276-67.103 0 1-.91.38h-69.66a.83.83 35.513 0 1-.83-.83V491a.65.65 45 0 1 .65-.65z"></path><path fill-rule="evenodd" d="m854.5 420.64 3.74 3.74a5.203 5.192-69.453 0 1 1.51 3.33q.34 5.13.38 11.04c.02 2.46.18 4.22-1.78 6.14q-1.72 1.69-1.05 5.13a.639.638-3.682 0 0 .57.5l7.39.64a1.135 1.128-87.518 0 1 1.03 1.13v1.83a.79.79-64.807 0 1-.79.79h-11.65a.7.7-45 0 1-.7-.7V421.2a.791.791-67.512 0 1 1.35-.56M169.95 497.34H146.8a.67.67-15.189 0 0-.67.67v16.82a1.108 1.104 2.556 0 0 1.01 1.1l7.02.61a1.136 1.133 89.378 0 1 1.03 1.01q.27 2.44-.88 2.51-6.08.42-11.38.19a.561.55 1.081 0 1-.54-.55v-51.59a.68.67 0 0 1 .68-.67h23.16a.41.41-45 0 0 .41-.41v-18.44a.504.502 2.494 0 0-.46-.5l-6.46-.56a1.471 1.465 2.569 0 1-1.34-1.46v-1.44a1.48 1.47 0 0 1 1.48-1.47h10.23a.27.27-45 0 1 .27.27v53.51a.41.4 0 0 1-.41.4"></path><path fill-rule="evenodd" d="m857.294 515.393 8.412.724a.54.54-15.765 0 1 .494.538v2.535a.54.54-45 0 1-.54.54H853.8a.54.54 45 0 1-.54-.54v-51.52a.54.54 45 0 1 .54-.54h23.05a.54.54-45 0 0 .54-.54v-18.665a.54.54-3.202 0 0-.493-.538l-6.744-.584a.54.54 35.782 0 1-.493-.538v-2.585a.54.54 45 0 1 .54-.54h10.64a.54.54 45 0 1 .54.54v52.47a.54.54 32.821 0 1-.54.54h-23.5a.54.54-86.575 0 0-.54.54v17.625a.54.54-18.932 0 0 .494.538"></path><path fill-rule="evenodd" d="M877.249 531.926a.43.43-.043 0 0 .432-.433l-.242-18.075a.546.544 2.198 0 0-.503-.542l-6.244-.522a1.548 1.542-88.228 0 1-1.41-1.505v-.051a1.37 1.37 88.022 0 1 1.325-1.419l10.313-.319a.442.433 88.658 0 1 .453.441l-.043 51.983a.633.633-56.348 0 1-.632.634l-23.151.13a.633.633 89.456 0 0-.632.644l.209 17.059a1.099 1.09-88.693 0 0 1.027 1.084l7.36.41a.758.756 1.952 0 1 .705.753l.034 2.312a.643.633-.537 0 1-.643.644l-11.63.09a.653.653-51.913 0 1-.655-.652l-.148-52.002a.583.573-.096 0 1 .582-.574zM166.301 532.495a.43.43 12.67 0 0 .429-.427l-.163-17.898a.541.539 2.441 0 0-.497-.539l-6.18-.544a1.533 1.527-87.985 0 1-1.39-1.496v-.05a1.355 1.355 88.265 0 1 1.318-1.4l10.214-.273a.438.429 88.901 0 1 .447.439l-.261 51.475a.627.627-47.953 0 1-.629.625l-22.926.031a.627.627 89.699 0 0-.628.636l.135 16.893a1.088 1.079-88.451 0 0 1.013 1.078l7.286.437a.75.748 2.195 0 1 .695.748l.024 2.29a.637.627-.294 0 1-.639.635l-11.518.04a.647.647 50.338 0 1-.645-.648l.072-51.495a.577.567.147 0 1 .579-.566z"></path><path fill="#f9cf1b" fill-rule="evenodd" d="M793.04 1006.86H683.27a.484.483-61.353 0 1-.26-.89q5.97-3.81 8.5-5.69c3.7-2.76 12.71-11.55 12.7-17.28q-.05-113.48.06-230.53a.7.7 1.283 0 0-.67-.7c-20.42-.84-40.13 1.96-59.96 6.9-26.84 6.69-52.14 19.04-74.26 35.47-16.86 12.53-30.24 26.96-43.13 44.53-5.3 7.22-9.38 14.99-14.17 22.78a.362.357 46.464 0 1-.62-.02c-14.01-25.67-32.93-48.59-56.47-66.31q-45.63-34.35-103.91-42.24c-4.73-.64-10.36-.73-16.37-1.27-4.86-.43-10.03-.16-14.83.05a.571.561 88.958 0 0-.54.57q.13 85.61.04 228.02c0 8.17 5.52 16.22 11.43 20.97q2.61 2.1 6.24 5.17a.287.282-24.704 0 1-.19.5H230.92a.573.57-61.597 0 1-.31-1.05c8.49-5.62 19.48-12.51 22.29-22.08q.38-1.32.38-4.04-.11-178.71 0-274.68.01-8.55-1.37-12.39-3.66-10.21-14.02-14.98a1.646 1.646-32.615 0 1 .69-3.14H358.8a.62.61-90 0 0 .61-.62q-.06-28.28 0-29.22.42-6.42-1.35-9.67c-3.44-6.32-10.16-8.55-16.62-11.08a1.259 1.259 56.898 0 1 .51-2.43q8.34.36 20.54-.08c13.28-.48 28.24-3.15 41.56-6.44q36.65-9.04 66.08-31.55 5.67-4.33 15.11-14.42 7.81-8.34 14.66-19.86c4.57-7.7 8.65-18.27 11.52-26.46q.08-.23.41-.49a.458.451-26.844 0 1 .72.23q5.36 19.21 16.13 34.37c8.95 12.59 20.25 23.79 33.74 32.79q17.78 11.86 36.03 18.72 38.93 14.61 81.59 13.25a1.501 1.501 35.93 0 1 .47 2.94c-3.36.98-8.28 2.87-11.38 5.58-3.2 2.8-5.04 12.04-5.04 14.92q-.02 19.41-.06 28.88a.42.42-45.02 0 0 .42.42h119.01a.645.633-87.506 0 1 .63.7l-.15 1.79a.881.879-7.329 0 1-.58.75q-6.75 2.44-9.85 6.19c-2.4 2.91-3.77 8.68-4.47 12.38q-.38 2.05-.38 6.43.2 139.33.02 281.27a2.758 2.66-57.351 0 0 .21 1.05q3.91 9.13 11.65 13.68 7.67 4.5 12.67 7.75a.306.304-28.386 0 1-.17.56M511.754 780.229q.289 0 .486-.267c18.41-24.952 43.2-45.152 69.39-61.292a1.678 1.674 74.291 0 0 .8-1.43v-52.55a.807.803-79.338 0 0-.51-.75q-26.25-10.16-46.7-28.67c-9.25-8.38-16.8-17.94-23.351-28.268q-.096-.15-.3-.15-.205 0-.3.151c-6.529 10.342-14.059 19.918-23.291 28.317q-20.41 18.554-46.639 28.77a.807.803 79.216 0 0-.508.751l.112 52.55a1.678 1.674-74.413 0 0 .803 1.428c26.225 16.084 51.058 36.231 69.521 61.144q.198.266.487.266"></path><path fill-rule="evenodd" d="M877.49 596.87v-18.02a.563.563 2.206 0 0-.52-.56l-6.76-.59a1.603 1.603-42.511 0 1 .14-3.2h10.63a.4.39-90 0 1 .39.4v52.07a.74.73-90 0 1-.73.74h-22.55a1.16 1.15 0 0 0-1.16 1.15v17.43a.795.792 2.357 0 0 .73.79l8.06.7a.634.632 2.473 0 1 .58.63v2.68a.57.57 45 0 1-.57.57h-12.15a.36.36 35.526 0 1-.36-.36v-53.26a.46.46 35.525 0 1 .46-.46h23.1a.71.71 0 0 0 .71-.71M166.319 597.747a.43.43 69.246 0 0 .431-.433l-.261-18.074a.546.544 2.135 0 0-.504-.542l-6.244-.515a1.548 1.542-88.29 0 1-1.412-1.504v-.051a1.37 1.37 87.96 0 1 1.323-1.421l10.313-.33a.442.433 88.595 0 1 .454.441l.013 51.983a.633.633 16.825 0 1-.632.635l-23.15.154a.633.633 89.394 0 0-.632.645l.228 17.059a1.099 1.09-88.756 0 0 1.029 1.083l7.359.402a.758.756 1.889 0 1 .706.752l.037 2.312a.643.633-.6 0 1-.642.645l-11.631.103a.653.653 15.509 0 1-.655-.652l-.204-52.002a.583.573-.159 0 1 .581-.575zM511.569 606.852q.204 0 .3.15c6.551 10.328 14.101 19.888 23.351 28.268q20.45 18.51 46.7 28.67a.807.803-79.338 0 1 .51.75v52.55a1.678 1.674 74.291 0 1-.8 1.43c-26.19 16.14-50.98 36.34-69.39 61.292q-.197.267-.486.267t-.487-.266c-18.463-24.913-43.296-45.06-69.521-61.144a1.678 1.674-74.413 0 1-.803-1.428l-.112-52.55a.807.803 79.216 0 1 .508-.751q26.229-10.216 46.639-28.77c9.232-8.399 16.762-17.975 23.291-28.317q.095-.151.3-.151"></path><path fill-rule="evenodd" d="M876.892 664.019a.674.664 89.856 0 0 .662-.675l-.176-18.118a.578.569-87.901 0 0-.514-.562l-6.839-.566a1.074 1.066-88.641 0 1-.978-1.034l-.033-1.216a1.046 1.046 88.775 0 1 1.033-1.079l10.718-.097a.563.563-.646 0 1 .575.562l.121 52.476a.42.42-49.299 0 1-.421.424l-23.77.14a.524.523 88.795 0 0-.521.544l.394 17.052a.719.717 1.623 0 0 .666.702l7.462.504a.959.957 1.789 0 1 .897.953l.005 2.011a.875.875-.477 0 1-.862.877l-11.543.2a.573.563 89.363 0 1-.575-.571l.041-51.864a.603.593-.144 0 1 .602-.595zM166.281 663.565a.43.43 82.938 0 0 .429-.429l-.209-17.938a.542.54 2.294 0 0-.499-.538l-6.196-.529a1.536 1.53-88.132 0 1-1.396-1.496v-.05a1.358 1.357 88.118 0 1 1.316-1.407l10.236-.299a.439.43 88.754 0 1 .449.439l-.129 51.588a.63.63 9.426 0 1-.629.628l-22.975.09a.63.63 89.552 0 0-.629.639l.18 16.93a1.091 1.082-88.598 0 0 1.017 1.077l7.303.419a.752.75 2.048 0 1 .699.749l.03 2.294a.638.629-.441 0 1-.639.639l-11.543.07a.65.65 0 0 1-.648-.649l-.06-51.608a.579.569 0 0 1 .578-.569z"></path><path fill-rule="evenodd" d="M166.317 728.664a.43.43-10.643 0 0 .429-.428l-.188-17.924a.542.54 2.361 0 0-.498-.539l-6.19-.536a1.535 1.529-88.064 0 1-1.394-1.497v-.05a1.357 1.357 88.186 0 1 1.317-1.404l10.229-.287a.439.43 88.821 0 1 .448.439l-.19 51.549a.63.63-47.872 0 1-.629.628l-22.958.063a.63.63 89.619 0 0-.629.637l.16 16.917a1.09 1.081-88.53 0 0 1.015 1.078l7.297.427a.751.749 2.115 0 1 .697.749l.027 2.293a.638.628-.374 0 1-.639.637l-11.534.056a.65.65 32.663 0 1-.647-.648l.001-51.57a.578.568.067 0 1 .578-.567zM876.875 729.298a.669.659 89.916 0 0 .658-.67l-.156-18.002a.574.566-87.842 0 0-.51-.559l-6.794-.569a1.067 1.059-88.581 0 1-.971-1.028l-.032-1.209a1.04 1.039 88.835 0 1 1.028-1.07l10.649-.086a.56.56-.587 0 1 .57.559l.067 52.138a.42.42-22.412 0 1-.419.42l-23.616.114a.52.52 88.855 0 0-.519.541l.374 16.942a.714.712 1.682 0 0 .661.699l7.413.508a.953.951 1.849 0 1 .891.948l.003 1.998a.87.87-.417 0 1-.858.87l-11.469.187a.569.56 89.422 0 1-.57-.569l.094-51.528a.599.589-.084 0 1 .599-.591z" data-source="https://football-logos.cc"></path><path fill-rule="evenodd" d="M166.297 793.76a.427.427.09 0 0 .428-.426l-.155-17.859a.54.538 2.466 0 0-.495-.538l-6.166-.545a1.529 1.524-87.96 0 1-1.386-1.494v-.05a1.352 1.351 88.29 0 1 1.315-1.396l10.192-.268a.437.428 88.926 0 1 .445.438l-.283 51.362a.626.626 35.737 0 1-.627.624l-22.875.021a.626.626 89.724 0 0-.628.633l.128 16.857a1.086 1.077-88.425 0 0 1.01 1.075l7.27.439a.749.747 2.22 0 1 .693.747l.023 2.285a.636.626-.269 0 1-.638.634l-11.492.035a.646.646 36.418 0 1-.644-.648l.094-51.381a.576.566.172 0 1 .578-.565zM876.867 775.178l-7.104-.616a.66.66-60.169 0 1-.603-.657v-1.985a.66.66 33.742 0 1 .66-.66h10.87a.66.66 35.525 0 1 .66.66v51.85a.66.66-45.007 0 1-.66.66H857.6a.66.66-86.55 0 0-.66.66v16.845a.66.66-40.997 0 0 .603.657l7.924.686a.66.66-57.513 0 1 .603.657v2.495a.66.66 45.016 0 1-.66.66h-11.49a.66.66-54.467 0 1-.66-.66v-51.34a.66.66-54.477 0 1 .66-.66h22.89a.66.66 87.537 0 0 .66-.66v-17.935a.66.66-87.759 0 0-.603-.657"></path><path fill="#f9cf1b" fill-rule="evenodd" d="M684.27 1062.8a.16.158 60.816 0 1-.08.29l-15.44.72c-34.89 1.64-70.31 10.77-99.95 29.24q-23.29 14.51-38.56 37.2c-4.4 6.54-8.47 14.44-11.14 22.38q-4.27 12.68-6.21 24.35a.913.913 44.676 0 1-1.8.01q-2.39-13.44-7.6-27.03-3.77-9.82-9.87-18.87-13.92-20.69-35.02-34.94c-31.12-21.03-68.4-32.02-105.84-32.96q-6.43-.16-14.33.01a.385.382-61.659 0 1-.21-.71c13.07-8.06 20.87-21.9 23.78-36.74 1.47-7.48 1.89-14.83 1.9-23.03q.25-131.34.18-162.97-.07-28.79.04-49.65a.39.385 4.474 0 1 .45-.38q30.27 4.8 56.87 19.59 5.38 3 12.68 9.1c8.18 6.85 7.95 12.88 7.91 24.29q-.19 51.84-.08 176.3 0 3.02.29 5.72a.878.875 7.215 0 0 .56.72c20.44 7.89 38.87 19.16 54.64 34.63q7.73 7.57 13.92 17.2a.404.404-71.745 0 0 .68 0c11.26-17.83 29.31-32.87 47.86-42.39q9.44-4.85 19.86-9.06a.991.977-11.128 0 0 .62-.91V832.72a11.795 11.726 58.433 0 1 1.24-5.26q3.66-7.26 11.48-12.64c19.46-13.38 42.88-21.66 66.32-25.27a.368.364-4.106 0 1 .42.36q-.28 93.63-.05 217.59.01 2.81 1.41 14.15c1.99 16.07 9.53 31.83 23.07 41.15"></path><path fill-rule="evenodd" d="M166.287 858.817a.427.427-6.499 0 0 .428-.426l-.169-17.875a.54.538 2.422 0 0-.496-.538l-6.172-.541a1.531 1.525-88.003 0 1-1.389-1.494v-.05a1.353 1.353 88.247 0 1 1.316-1.399l10.2-.275a.437.428 88.882 0 1 .447.438l-.244 51.407a.626.626-55.153 0 1-.628.625l-22.895.038a.626.626 89.68 0 0-.628.635l.142 16.871a1.087 1.078-88.469 0 0 1.011 1.076l7.276.433a.749.747 2.176 0 1 .695.748l.024 2.286a.636.626-.313 0 1-.637.635l-11.503.044a.646.646 34.723 0 1-.645-.648l.056-51.427a.577.567.128 0 1 .577-.565zM876.849 859.491a.666.656-89.856 0 0 .658-.665l-.084-17.91a.571.563-87.614 0 0-.506-.558l-6.757-.593a1.062 1.054-88.354 0 1-.961-1.026l-.027-1.203a1.034 1.034 89.063 0 1 1.026-1.061l10.595-.043a.557.557-.359 0 1 .565.558l-.139 51.872a.417.417-44.879 0 1-.419.416l-23.496.021a.518.517 89.082 0 0-.518.535l.305 16.857a.711.709 1.91 0 0 .655.698l7.373.535a.948.946 2.076 0 1 .882.947l-.005 1.987a.865.865-.19 0 1-.856.863l-11.411.14a.566.557 89.65 0 1-.565-.568l.297-51.265a.596.586.144 0 1 .598-.584z"></path><path fill="#f9cf1b" fill-rule="evenodd" d="m468.184 905.227-6.537-.104a.77.768 11.21 0 1-.704-1.051q.02-.06.165-5.885c.228-9.193 9.596-11.132 16.551-8.041 4.948 2.203 4.783 8.408 4.595 13.221-.227 5.674-.107 9.303-4.368 13.304q-.24.231-6.952 5.831-2.241 1.871-1.732 4.997a1.018 1.008-4.828 0 0 1.004.84l11.258-.029a.802.792 89.856 0 1 .794.8l.015 6.095a.88.88 36.744 0 1-.88.885l-19.568.049a.603.602 88.348 0 1-.603-.57q-.106-2.396-.051-8.3c.071-7.98 3.695-9.954 10.057-15.213 1.681-1.398 2.529-2.763 2.564-5.139q.066-5.484-.042-8.561a2.188 2.187 89.037 0 0-2.181-2.11h-.03a2.177 2.177 1.564 0 0-2.24 2.121l-.145 5.925a.963.953.764 0 1-.97.935M508.828 927.793a8.76 8.76 0 0 1-8.714 8.806l-4 .021a8.76 8.76 0 0 1-8.805-8.714l-.157-29.939a8.76 8.76 0 0 1 8.714-8.806l4-.021a8.76 8.76 0 0 1 8.805 8.714zm-8.318-29.281a2.17 2.17 0 0 0-2.177-2.163l-.48.002a2.17 2.17 0 0 0-2.163 2.178l.1 28.419a2.17 2.17 0 0 0 2.177 2.163l.48-.002a2.17 2.17 0 0 0 2.163-2.177zM513.93 904.18q.02-.06.18-5.87c.25-9.17 9.6-11.08 16.53-7.98 4.93 2.21 4.75 8.4 4.55 13.2-.24 5.66-.13 9.28-4.39 13.26q-.24.23-6.95 5.8-2.24 1.86-1.74 4.98a1.015 1.005-4.684 0 0 1 .84h11.23a.8.79 90 0 1 .79.8v6.08a.88.88-45 0 1-.88.88h-19.52a.602.601 88.492 0 1-.6-.57q-.1-2.39-.03-8.28c.09-7.96 3.71-9.92 10.07-15.15 1.68-1.39 2.53-2.75 2.57-5.12q.08-5.47-.02-8.54a2.183 2.183 89.181 0 0-2.17-2.11h-.03a2.17 2.17 1.708 0 0-2.24 2.11l-.16 5.91a.96.95.908 0 1-.97.93l-6.52-.12a.768.767 11.353 0 1-.7-1.05M547.641 905.342l-6.524-.098a.768.767 11.161 0 1-.704-1.049q.019-.06.16-5.874c.22-9.177 9.569-11.119 16.514-8.04 4.94 2.194 4.781 8.389 4.597 13.193-.221 5.664-.099 9.286-4.348 13.283q-.24.231-6.935 5.827-2.236 1.868-1.725 4.989a1.016 1.006-4.876 0 0 1.004.837l11.237-.038a.801.79 89.808 0 1 .793.798l.02 6.084a.88.88-45.096 0 1-.877.883l-19.533.066a.602.601 88.3 0 1-.602-.569q-.108-2.391-.058-8.285c.064-7.965 3.679-9.938 10.026-15.193 1.676-1.397 2.522-2.76 2.554-5.132q.062-5.474-.048-8.545a2.184 2.183 88.989 0 0-2.179-2.104h-.03a2.173 2.173 1.516 0 0-2.234 2.119l-.14 5.914a.961.951.716 0 1-.968.934"></path><path fill-rule="evenodd" d="M500.61 926.932a2.17 2.17 0 0 1-2.163 2.177l-.48.002a2.17 2.17 0 0 1-2.177-2.163l-.1-28.419a2.17 2.17 0 0 1 2.163-2.178l.48-.002a2.17 2.17 0 0 1 2.177 2.163zM166.056 904.909l-6.912-.598a.65.65-51.316 0 1-.594-.647v-1.704a.65.65-69.751 0 1 .65-.65h10.55a.65.65-50.052 0 1 .65.65v51.36a.65.65-56.254 0 1-.65.65h-22.96a.65.65 77.155 0 0-.65.65v17.274a.65.65-71.056 0 0 .594.647l7.952.688a.65.65 85.806 0 1 .594.647v2.324a.65.65 32.66 0 1-.65.65h-11.58a.65.65 65.696 0 1-.65-.65v-51.64a.65.65 32.66 0 1 .65-.65H166a.65.65-8.934 0 0 .65-.65v-17.704a.65.65-74.462 0 0-.594-.647M876.862 924.318a.672.662-89.993 0 0 .661-.672l-.128-18.067a.576.568-87.751 0 0-.511-.561l-6.818-.583a1.071 1.063-88.49 0 1-.972-1.033l-.03-1.213a1.043 1.043 88.926 0 1 1.033-1.072l10.688-.069a.56.56-.496 0 1 .571.561l-.016 52.327a.42.42-44.996 0 1-.421.421l-23.702.077a.52.52 88.946 0 0-.522.542l.349 17.004a.717.715 1.773 0 0 .662.702l7.439.522a.957.955 1.94 0 1 .892.953v2.005a.87.87-.326 0 1-.862.872l-11.51.169a.571.562 89.513 0 1-.572-.571l.177-51.715a.602.592.007 0 1 .602-.592z"></path><path fill-rule="evenodd" d="M166.39 989.419a.43.43-12.952 0 0 .431-.429l-.182-18.001a.544.542 2.385 0 0-.5-.542l-6.216-.54a1.542 1.536-88.041 0 1-1.399-1.504v-.05a1.363 1.363 88.209 0 1 1.324-1.41l10.272-.284a.441.431 88.845 0 1 .45.441l-.212 51.769a.63.63-54.081 0 1-.632.63l-23.057.054a.63.63 89.643 0 0-.631.639l.153 16.99a1.094 1.085-88.506 0 0 1.019 1.083l7.328.432a.755.753 2.139 0 1 .7.752l.026 2.302a.641.631-.35 0 1-.642.64l-11.583.052a.65.65 35.034 0 1-.65-.652l.022-51.789a.581.571.091 0 1 .582-.57zM876.85 989.808a.671.661-89.955 0 0 .661-.67l-.116-18.039a.575.567-87.713 0 0-.51-.561l-6.806-.585a1.069 1.061-88.452 0 1-.971-1.032l-.029-1.212a1.042 1.041 88.964 0 1 1.032-1.07l10.671-.062a.56.56-.458 0 1 .57.561l-.05 52.244a.42.42-49.126 0 1-.421.42l-23.665.062a.52.52 88.983 0 0-.521.54l.338 16.978a.716.714 1.811 0 0 .66.701l7.427.526a.955.953 1.978 0 1 .89.952l-.001 2.002a.87.87-.288 0 1-.862.87l-11.492.161a.571.561 89.551 0 1-.57-.571l.21-51.633a.601.591.045 0 1 .601-.59z"></path><path fill-rule="evenodd" d="m870.67 1103.21-.09.97a1.184 1.174 73.674 0 1-.46.85q-5.87 4.56-12.11 7.09a.681.679 40.708 0 1-.41.03q-.18-.04-.19-.05a1.21 1.207-59.436 0 1-.51-1.99q2.29-2.39 5.78-3.58a.663.658 64.335 0 0 .34-.98l-9.46-14.93a1.775 1.76-61.265 0 1-.27-.94v-34.49a.23.23 45 0 1 .23-.23h23.24a.52.52 0 0 0 .52-.52v-17.86a.854.847-87.426 0 0-.77-.85l-5.96-.51a1.62 1.602-11.627 0 1-1.26-.82l-.36-.67a1.095 1.093-14.378 0 1 .96-1.62h10.59a.9.89 90 0 1 .89.9v77.36a.326.313 75.875 0 1-.16.28l-24.65 13.48a.708.706-30.007 0 1-.94-.25l-5.78-9.12a.874.864-31.497 0 1 .3-1.22l1.45-.83a1.126 1.124-31.279 0 1 1.52.37l2.84 4.48a.901.9-31.019 0 0 1.21.3l17.32-10a.87.867-37.617 0 0 .18-1.37l-3.47-3.47a.305.304 24.77 0 0-.52.19M168.19 1096.23l-5.31 9.12a.609.6 30.559 0 0 .22.83l5.07 2.93a1.333 1.331 69.074 0 1-1.08 2.42c-4.25-1.39-8.67-4.89-13.32-8.47a.695.694-54.599 0 0-1 .17l-2.07 3.09a.808.801 32.488 0 0 .26 1.15l17.2 9.93a.706.701 31.484 0 0 .93-.22l2.78-4.15a1.623 1.62 31.492 0 1 2.13-.51l.82.45a1.04 1.039-60.657 0 1 .4 1.43l-4.83 8.37a1.335 1.325-60.308 0 1-1.8.5l-25.99-14.34a.526.509 14.991 0 1-.27-.45l.05-48.77.11-4.49a.581.58-88.977 0 1 .58-.56h23.17a.47.47-20.169 0 0 .47-.47v-17.25a1.084 1.077-87.706 0 0-.99-1.08l-6.08-.53a1.315 1.309-87.63 0 1-1.2-1.31v-.51a1.09 1.08-90 0 1 1.08-1.09h10.34a.67.66-90 0 1 .66.67l-.25 58.17a1.635 1.565 58.685 0 1-.15.68z"></path><path fill="#f9cf1b" fill-rule="evenodd" d="M585.67 1181.44a.509.504 3.16 0 1-.65-.72q2.72-4.43 4.21-8.97c2.68-8.14-.54-12.06-5.65-20.11-6.96-10.97-13.83-21.62-18.89-32.94a.604.596-28.328 0 1 .23-.75q1.79-1.09 6.17-4.09 14.6-9.99 30.59-15.9 7.14-2.64 14.24-3.92a1.48 1.48 67.916 0 1 1.49.63q9.83 14.48 19.52 30.94 2.79 4.73 8.03 7.07 3.32 1.48 10.26 1.13 7.88-.41 10.51-.47a.513.509-71.491 0 1 .41.83c-3.36 4.2-6.44 7.65-11.6 10.57q-18.16 10.28-23.79 13.23c-15.07 7.9-29.92 16.41-45.08 23.47"></path><path fill-rule="evenodd" d="m207.36 1139.95 16.21 8.95a.631.627-56.296 0 0 .79-.16l3.58-4.5a1.8 1.8-56.152 0 1 2.28-.45l.59.32a.972.964-59.657 0 1 .35 1.36l-5.05 8.19a.896.894 30.447 0 1-1.2.31l-43.75-24.14a.788.786 30.305 0 1-.29-1.1l11.51-18.65a.318.314 30.062 0 0-.12-.44l-16.13-8.9a1.385 1.381 30.285 0 0-1.84.48l-2.38 3.87a1.257 1.257-27.918 0 1-1.73.41l-.55-.34a1.511 1.506-59.861 0 1-.53-2.01l4.15-7.52a.904.904 75.215 0 1 1.23-.35l43.91 24.22a.64.631 29.965 0 1 .24.87q-.87 1.5-8.89 13.88-.68 1.05-2.49 5.38a.25.25-63.998 0 0 .11.32M817.41 1140.51a.457.451-31.362 0 0 .16-.64l-11.81-18.64a.95.942 59.572 0 1 .34-1.33l44.7-24.44a.803.802-33.338 0 1 1.02.21q2.95 3.77 5.2 8.34a1.773 1.644-7.93 0 1-1.91 2.34q-1.23-.17-2.03-1.43-1.38-2.18-2.27-3.75a1.196 1.196 60.921 0 0-1.61-.46l-16.45 9a.631.628 59.617 0 0-.23.89l12.09 19.1a.383.377 59.978 0 1-.14.54l-45.92 25.12a.589.578-30.579 0 1-.77-.19l-5.27-8.33a1.188 1.184-30.648 0 1 .43-1.67l.95-.52a1.662 1.656 59.065 0 1 2.18.55l2.75 4.18a1.231 1.223-30.957 0 0 1.62.4z"></path><path fill-rule="evenodd" d="M280.68 1180.45a.497.479-56.019 0 0 .61-.13l4.18-5.24a.916.909-57.129 0 1 1.14-.25c1.47.76 2.13 1.67 1.16 3.39q-2.18 3.84-4.36 6.88a1.085 1.082-57.8 0 1-1.4.32l-44.94-24.8a.734.731-59.794 0 1-.27-1.03l11.31-18.34a.473.472-60.941 0 0-.19-.67l-16.12-8.27a1.279 1.269-60.579 0 0-1.66.47l-2.26 3.66a1.668 1.665 31.808 0 1-2.31.54l-.23-.14a1.58 1.579-60.568 0 1-.62-2.23l4.76-7.82a1.123 1.115-59.816 0 1 1.49-.4l44.14 24.36a.58.574-59.838 0 1 .21.81l-11.49 18.64a.792.789-59.741 0 0 .29 1.11zM774.767 1142.274l11.676 18.498a1.026 1.018-30.72 0 1-.373 1.439l-45.387 24.717a.767.761-30.235 0 1-1.009-.262l-5.294-8.398a.65.642 59.476 0 1 .231-.919l1.772-.967a1 .992 56.957 0 1 1.259.272l3.681 4.836a.643.627-32.186 0 0 .799.171l17.054-9.298a.609.606 59.586 0 0 .222-.86l-11.955-18.938a.726.72-30.283 0 1 .271-1.019l45.527-24.797a.826.82-30.283 0 1 1.09.282l5.204 8.238a1.291 1.285-36.522 0 1-.253 1.669q-2.002 1.726-2.94.515-1.546-2.023-3.39-5.205a.601.6 61.093 0 0-.8-.232l-17.144 9.339a.658.648-30.709 0 0-.241.919"></path><path fill-rule="evenodd" d="m322.34 1203.6 17.1 9.44a.684.661-56.516 0 0 .86-.19q.84-1.11 2.95-3.96c1.32-1.78 2.58-1.85 3.91-.55a1.053 1.045 38.201 0 1 .16 1.3l-5.16 8.37a.895.892-59.497 0 1-1.19.31l-46.49-25.65a.453.448-60.639 0 1-.17-.62l11.19-19.38a.282.273 29.737 0 0-.11-.38l-16.18-8.93a1.383 1.374 28.71 0 0-1.87.54l-2.42 4.39a1.325 1.32-61.093 0 1-1.79.52l-1.07-.59a1.097 1.097-26.429 0 1-.43-1.49l4.68-8.47a1.13 1.13 69.132 0 1 1.53-.45l45.17 24.93a1.187 1.186 30.173 0 1 .44 1.66l-11.33 18.36a.602.596-59.966 0 0 .22.84M728.366 1193.518l-46.664 25.518a.72.72-76.187 0 1-.953-.246l-5.438-8.581a.72.72-3.41 0 1 .263-1.017l2.074-1.134a.72.72-33.477 0 1 .947.236l3.44 5.222a.72.72-16.998 0 0 .947.236l17.314-9.464a.72.72-21.114 0 0 .263-1.017l-11.858-18.722a.72.72 4.328 0 1 .263-1.017l45.983-25.148a.72.72 6.702 0 1 .954.247l5.759 9.1a.72.72-86.036 0 1-.264 1.017l-2.074 1.134a.72.72-85.94 0 1-.947-.236l-3.69-5.602a.72.72 61.533 0 0-.947-.236l-16.624 9.093a.72.72 56.694 0 0-.263 1.018l11.778 18.582a.72.72 10.803 0 1-.263 1.017"></path><path fill-rule="evenodd" d="M400.39 1250.87a.378.377-59.448 0 1-.5.13l-46.85-25.85a.591.589 30.254 0 1-.22-.83l11.62-18.85a.479.473 31.149 0 0-.17-.67l-16.52-9.11a1.045 1.039 30.315 0 0-1.39.36l-3.05 4.94a.88.88-20.684 0 1-1.21.29l-1.69-1.04a.988.983 31.82 0 1-.32-1.35l5.11-8.28a.928.922 30.227 0 1 1.23-.32l46.31 25.56a.408.406 30.625 0 1 .15.58c-3.7 5.87-8.55 12.26-11.82 18.98a.695.689 27.541 0 0 .29.91l16.93 9.34a.537.533-62.269 0 0 .73-.23q1.5-2.99 3.89-5.12a1.4 1.381-60.633 0 1 1.15-.33q.84.14 1.73.76a.77.77-56.419 0 1 .21 1.04zM658.231 1204.952a.515.505-30.098 0 0-.199.721l11.903 18.976a.691.686-30.272 0 1-.26.971l-46.771 25.577a.642.64-30.441 0 1-.852-.219l-5.435-8.577a.893.892-28.238 0 1 .389-1.292l1.392-.623a1.39 1.385 60.066 0 1 1.693.46l3.188 4.433a.965.963 58.158 0 0 1.232.289l17.065-9.178a.678.677-29.94 0 0 .26-.961l-11.864-19.056a.682.674 59.851 0 1 .25-.962l46.462-25.226a.387.386 60.201 0 1 .51.14l5.566 9.198a1.037 1.034 61.089 0 1-.419 1.462l-1.211.602a1.4 1.393-29.528 0 1-1.783-.489l-3.229-4.944a.845.84 59.551 0 0-1.102-.29z"></path><path fill-rule="evenodd" d="m423.07 1237.17-16.46-8.44a1.592 1.585-58.368 0 0-2 .48q-2.69 3.67-2.9 3.95a1.957 1.743 43.832 0 1-2.94-.11q-.4-.49.13-1.63 2.25-4.73 5.35-8.68a.355.348-55.743 0 1 .45-.09l44.58 24.6a.93.928-59.742 0 1 .34 1.3l-11.37 18.43a.85.847-59.695 0 0 .31 1.19l16.61 9.16a.574.573 30.869 0 0 .76-.19q2.37-3.61 3.78-4.86a1.698 1.696 85.258 0 1 2.56 2.17l-4.68 7.6a.812.806 30.113 0 1-1.07.28l-44.94-24.8a.51.503 30.401 0 1-.19-.71l11.82-19.16a.346.343 29.265 0 0-.14-.49M599.11 1238.2l11.71 18.48a1.026 1.018-30.821 0 1-.37 1.44l-45.35 24.8a.768.761-30.335 0 1-1.01-.26l-5.31-8.39a.65.643 59.376 0 1 .23-.92l1.77-.97a1.001.992 56.857 0 1 1.26.27l3.69 4.83a.643.627-32.286 0 0 .8.17l17.04-9.33a.609.606 59.485 0 0 .22-.86l-11.99-18.92a.726.721-30.383 0 1 .27-1.02l45.49-24.88a.826.82-30.383 0 1 1.09.28l5.22 8.23a1.291 1.285-36.623 0 1-.25 1.67q-2 1.73-2.94.52-1.55-2.02-3.4-5.2a.601.6 60.993 0 0-.8-.23l-17.13 9.37a.658.648-30.809 0 0-.24.92"></path><path fill-rule="evenodd" d="M480.1 1269.15a.284.283-60.485 0 0-.11-.4l-16.57-8.5a1.437 1.436-62.145 0 0-1.91.59l-2.09 3.79a1.558 1.548-61.992 0 1-2.07.64l-.85-.44a1.075 1.075-62.289 0 1-.46-1.48l4.9-8.9a.712.707 28.707 0 1 .97-.28l42.73 23.51a.498.493 31.042 0 1 .18.71l-9 13.43a1.049 1.046 34.466 0 0 .27 1.44q10.6 7.32 11.28 7.8c1.19.85 2.74 2.97 3.4 3.31a.566.564 23.094 0 0 .8-.32c1.17-3.42 11.08-8.27 15.08-10.29a.884.878 60.173 0 0 .34-1.27l-9.61-14.59a.528.525 59.375 0 1 .19-.75l42-22.97a.664.661-30.254 0 1 .88.23l5.71 9.01a1.067 1.064 62.298 0 1-.48 1.55l-1.09.47a1.66 1.66 62.176 0 1-2.07-.64l-3.1-4.9a.911.896 59.136 0 0-1.19-.31l-16.74 9.15a.414.412 59.599 0 0-.15.58l12.23 19.31a.631.628 59.617 0 1-.23.89l-41.24 22.56a2.377 2.358-44.769 0 1-2.27 0l-41.45-22.81a.556.553 30.043 0 1-.21-.78z"></path><path fill="#f9cf1b" fill-rule="evenodd" d="M515.36 1291.27q-2.98 3.82-8.19.68a1.606 1.606-20.018 0 1-.42-2.38l3.65-4.6a1.016 1.012-42.084 0 1 1.64.08l3.36 5.1a.969.959-43.261 0 1-.04 1.12" data-source="https://football-logos.cc"></path><!-- source: https://football-logos.cc --></svg>