<svg xmlns="http://www.w3.org/2000/svg" viewBox="61.84 18.3 126.05 212.6"><!-- Source: https://football-logos.cc --><g style="display:inline" data-source="https://football-logos.cc"><path d="m202.558 55.713-4.683-3.191-4.466 3.486 1.588-5.439-4.697-3.17 5.664-.171 1.564-5.446 1.913 5.334 5.663-.196-4.482 3.467z" style="display:inline;opacity:1;fill:#fcde00;fill-opacity:1;stroke:none;stroke-width:.384961;stroke-linecap:round;stroke-linejoin:round;stop-color:#000" transform="matrix(2.34499 .07623 -.07624 2.3447 -380.138 -76.598)"></path><path d="m202.558 55.713-4.683-3.191-4.466 3.486 1.588-5.439-4.697-3.17 5.664-.171 1.564-5.446 1.913 5.334 5.663-.196-4.482 3.467z" style="display:inline;opacity:1;fill:#fcde00;fill-opacity:1;stroke:none;stroke-width:.288869;stroke-linecap:round;stroke-linejoin:round;stop-color:#000" transform="matrix(3.37408 .10968 -.1097 3.37367 -536.89 -143.527)"></path><path d="m202.558 55.713-4.683-3.191-4.466 3.486 1.588-5.439-4.697-3.17 5.664-.171 1.564-5.446 1.913 5.334 5.663-.196-4.482 3.467z" style="display:inline;opacity:1;fill:#fcde00;fill-opacity:1;stroke:none;stroke-width:.384961;stroke-linecap:round;stroke-linejoin:round;stop-color:#000" transform="matrix(2.34499 .07623 -.07624 2.3447 -289.888 -76.598)"></path><path d="M62.5 72.52h125v123.086L125 230.763l-62.5-35.157Z" style="display:inline;fill:#fcde00;fill-opacity:1;stroke:none;stroke-width:0;stroke-linecap:butt;stroke-linejoin:miter;stroke-miterlimit:4;stroke-dasharray:none;stroke-opacity:1" transform="translate(0 .14)"></path><path d="M65.615 102.25h118.76v91.505L125 227.195l-59.385-33.44Z" style="display:inline;fill:#fff;fill-opacity:1;stroke:none;stroke-width:0;stroke-linecap:butt;stroke-linejoin:miter;stroke-miterlimit:4;stroke-dasharray:none;stroke-opacity:1" transform="translate(0 .14)"></path><path d="M65.615 75.644h39.587v23.481H65.615z" style="display:inline;opacity:1;fill:#df0214;fill-opacity:1;stroke:none;stroke-width:0;stroke-linecap:square;stroke-miterlimit:4;stroke-dasharray:none;stop-color:#000" transform="translate(0 .14)"></path><path d="M105.202 75.644h39.587v23.481h-39.587z" style="display:inline;opacity:1;fill:#fff;fill-opacity:1;stroke:none;stroke-width:0;stroke-linecap:square;stroke-miterlimit:4;stroke-dasharray:none;stop-color:#000" transform="translate(0 .14)"></path><path d="M144.788 75.644h39.587v23.481h-39.587z" style="display:inline;opacity:1;fill:#df0214;fill-opacity:1;stroke:none;stroke-width:0;stroke-linecap:square;stroke-miterlimit:4;stroke-dasharray:none;stop-color:#000" transform="translate(0 .14)"></path><path d="M85.864 102.25h98.511v55.517z" style="display:inline;fill:#60c1ec;fill-opacity:1;stroke:none;stroke-width:0;stroke-linecap:butt;stroke-linejoin:miter;stroke-miterlimit:4;stroke-dasharray:none;stroke-opacity:1" transform="translate(0 .14)"></path><path d="M262.46 597.25v177.771L500 908.78l157.678-88.802Z" style="display:inline;fill:#60c1ec;fill-opacity:1;stroke:none;stroke-width:0;stroke-linecap:butt;stroke-linejoin:miter;stroke-miterlimit:4;stroke-dasharray:none;stroke-opacity:1" transform="matrix(.25 0 0 .25 0 .14)"></path><path d="M142.719 144.423c-3.006.049-6.027.77-8.649 2.26-3.04 1.744-5.364 4.586-6.74 7.786-.809 1.853-1.299 3.838-1.5 5.848-.39 3.565-.247 7.23.781 10.681.702 2.362 1.861 4.597 3.47 6.468 2.064 2.472 4.975 4.154 8.073 4.963 1.75.464 3.567.644 5.374.59 2.943-.036 5.933-.65 8.505-2.125 2.415-1.28 4.31-3.443 5.397-5.938.358-.795.604-1.633.828-2.474l-5.832-1.057c-.11.405-.21.814-.355 1.208-.031.083-.095.254-.144.367-.684 1.654-1.962 3.084-3.608 3.82-2.995 1.401-6.547 1.437-9.631.298-2.08-.766-3.786-2.357-4.912-4.244-1.22-2.022-1.857-4.36-2.011-6.707a34 34 0 0 1-.094-1.637 28 28 0 0 1-.006-1.741c.072-2.617.54-5.278 1.78-7.608.822-1.525 1.95-2.92 3.415-3.868.802-.53 1.723-.946 2.614-1.223 2.54-.783 5.32-.718 7.843.098 2.176.737 4.06 2.423 4.859 4.598.046.16.1.304.289.208l5.595-1.015c-.334-.917-.707-1.827-1.225-2.658-1.715-2.81-4.502-4.915-7.622-5.932a20.3 20.3 0 0 0-6.494-.966M105.599 123.507c-2.784.077-5.612.69-8.005 2.16-1.788 1.107-3.32 2.705-4.142 4.657-1.127 2.672-1.062 5.859.31 8.43a8 8 0 0 0 2.725 2.954c2.264 1.534 4.912 2.358 7.548 2.991 2.935.714 5.947 1.236 8.727 2.462 1.59.527 2.907 1.95 3.122 3.637.05.424.023.851.016 1.276-.09 1.412-.949 2.673-2.054 3.511-.822.646-1.804 1.05-2.813 1.298-1.05.274-2.13.43-3.214.47-.101.002-.292.01-.429.01-2.38.02-4.777-.545-6.859-1.71-1.53-.907-2.623-2.446-3.137-4.135-.037-.163-.083-.313-.274-.214l-5.396.978c.291 1.19.663 2.368 1.236 3.455.654 1.272 1.56 2.407 2.611 3.372 1.82 1.642 4.145 2.624 6.522 3.131 2.173.464 4.408.582 6.624.493 2.727-.139 5.48-.84 7.776-2.356a15 15 0 0 0 1.838-1.441c2.453-2.304 3.696-5.822 3.23-9.155-.129-1.958-1.06-3.8-2.39-5.217a11.4 11.4 0 0 0-3.735-2.637c-2.956-1.369-6.176-1.986-9.323-2.738a51 51 0 0 1-2.952-.782c-.358-.11-.676-.21-1.035-.334-.714-.228-1.43-.485-2.053-.915-.825-.54-1.52-1.385-1.62-2.395-.06-.522-.106-1.054.015-1.571.319-1.538 1.514-2.794 2.93-3.41 1.29-.514 2.673-.779 4.057-.87a15.2 15.2 0 0 1 3.246.15c.871.146 1.746.324 2.57.647 1.732.714 3.01 2.31 3.514 4.095.07.098.032.374.182.34q2.816-.51 5.632-1.022a20 20 0 0 0-1.057-3.02c-1.024-2.057-2.791-3.683-4.818-4.734-2.208-1.16-4.697-1.72-7.18-1.823a22 22 0 0 0-1.945-.037z" style="display:inline;opacity:1;fill:#60c1ec;fill-opacity:1;stroke:none;stroke-width:0;stroke-linecap:round;stroke-linejoin:miter;stroke-miterlimit:4;stroke-dasharray:none;stroke-opacity:1;stop-color:#000" transform="translate(0 .14)"></path></g><!-- source: https://football-logos.cc --></svg>