<svg xmlns="http://www.w3.org/2000/svg" xml:space="preserve" id="svg19" style="clip-rule:evenodd;fill-rule:evenodd;image-rendering:optimizeQuality;shape-rendering:geometricPrecision;text-rendering:geometricPrecision" version="1.1" viewBox="-0.03 -0.03 7937.57 7937.56"><!-- Source: https://football-logos.cc --><defs id="defs4" data-source="https://football-logos.cc"><style id="style2" type="text/css">.fil0{fill:#f0f0db}</style></defs><g id="g858" transform="translate(-11798.158 -10132.39)scale(.9976)" data-source="https://football-logos.cc"><g id="g847" transform="translate(6562.835 133.481)"><circle id="path822-2" cx="9242.002" cy="14001.583" r="3965.068" style="clip-rule:evenodd;opacity:1;fill:#79181f;fill-opacity:1;fill-rule:evenodd;stroke:#79181f;stroke-width:26.45833397;stroke-linecap:butt;stroke-linejoin:round;stroke-miterlimit:4;stroke-dasharray:none;stroke-opacity:1;paint-order:markers fill stroke;image-rendering:optimizeQuality;shape-rendering:geometricPrecision;text-rendering:geometricPrecision"></circle><circle id="path822" cx="9230.081" cy="14012.602" r="3489.26" style="opacity:1;fill:#ffffe1;fill-opacity:1;stroke:none;stroke-width:6.48005629;stroke-linecap:butt;stroke-linejoin:round;stroke-miterlimit:4;stroke-dasharray:none;stroke-opacity:1;paint-order:markers fill stroke"></circle><g id="Слой_x0020_1" style="fill:#000" transform="matrix(.76154 0 0 .7499 2131.616 3590.017)"><g id="_703194160" style="fill:#000"><path id="path11" d="M5641.955 12025.466H6718.99c1171.207-1294.888 2155.603-1234.887 2155.603-1234.887v7197.363l833.834-2.985v-7194.378s1244.374-29.638 2187.279 1234.888h1077.035c-1296.964-2358.302-3681.23-2187.515-3681.23-2187.515s-2338.152-115.827-3649.556 2187.514" class="fil0" style="fill:#79181f;fill-opacity:1"></path><path id="path13" d="M7450.128 12343.007v4197.273c-1437.308-1120.477-1602.845-2588.717-1042.292-3950.296H5365.544c-759.148 2787.664 819.14 4762.215 2918.417 5240.047v-5804.566z" class="fil0" style="fill:#79181f;fill-opacity:1"></path><path id="path15" d="M10299.059 17870.041c1092-196 2002.794-947.346 2350.368-1610.68l-648.246-670.367c-263.187 435.998-798.802 882.062-798.802 882.062V13255.27s555.886 350.9 833.833 916.745l660.118-699.969c-348.542-546.833-1242.026-1356.077-2397.271-1612.409z" class="fil0" style="fill:#79181f;fill-opacity:1"></path></g></g></g></g><!-- source: https://football-logos.cc --></svg>