<svg xmlns="http://www.w3.org/2000/svg" xml:space="preserve" viewBox="0 0 46.7 73.42"><!-- Source: https://football-logos.cc --><path d="M0 15h46.7v27.87c0 13.19-7.08 23.9-23.35 30.55C8.55 66.95 0 57 0 42.87z" style="fill-rule:evenodd;clip-rule:evenodd;fill:#ffca00" data-source="https://football-logos.cc"></path><path d="M44.52 29.09V43c0 11.96-6.42 21.67-21.17 27.7C9.93 64.83 2.18 55.81 2.18 43V29.09z" style="fill-rule:evenodd;clip-rule:evenodd;fill:#00b5ff"></path><path d="M43.24 51.66c-1.42 4.5-4.06 8.55-8.06 12.02L2.18 35v-5.91h15.1z" style="fill-rule:evenodd;clip-rule:evenodd;fill:#fff"></path><path d="M2.18 17.73h14.15v9.18H2.18zm28.19 0h14.15v9.18H30.37z" style="fill-rule:evenodd;clip-rule:evenodd;fill:red" data-source="https://football-logos.cc"></path><path d="M16.32 17.73h14.05v9.18H16.32z" style="fill-rule:evenodd;clip-rule:evenodd;fill:#fff"></path><path d="m14.38 40.19-2.48-2.16-1.93 1.47-2.57-2.28 10.16-6.16 2.89 2.51-4.72 10.9-2.41-2.23zm1.29-2.28 1.78-3.66-3.32 2.32zM24.3 37.16l3.92 3.41c.77.67 1.31 1.32 1.6 1.94s.42 1.27.4 1.93c-.03.66-.2 1.31-.52 1.96-.31.64-.72 1.25-1.23 1.84-.79.91-1.51 1.53-2.16 1.85-.64.32-1.3.49-1.96.51-.67.02-1.26-.1-1.78-.35-.71-.35-1.31-.73-1.77-1.14l-3.92-3.41zm.96 4.23-4.06 4.66.65.56c.55.48 1 .76 1.34.84s.71.03 1.11-.16.89-.63 1.49-1.31c.79-.9 1.18-1.65 1.17-2.24s-.35-1.19-1.04-1.78zM32.71 44.44l6.7 5.83-1.83 2.11-2.09-1.83-5.59 6.42-2.49-2.15L33 48.4l-2.12-1.85z" style="fill:#00b5ff"></path><path d="m19.39 13.36-4.34-3.17-4.34 3.17 1.67-5.11L8.03 5.1l5.37.01L15.05 0l1.65 5.11 5.37-.01-4.35 3.15zM35.99 13.36l-4.34-3.17-4.34 3.17 1.67-5.11-4.35-3.15 5.37.01L31.65 0l1.65 5.11 5.37-.01-4.35 3.15z" style="fill-rule:evenodd;clip-rule:evenodd;fill:#ffca00" data-source="https://football-logos.cc"></path><!-- source: https://football-logos.cc --></svg>