<svg xmlns="http://www.w3.org/2000/svg" viewBox="17.22 156.75 758.22 920.84"><!-- Source: https://football-logos.cc --><defs data-source="https://football-logos.cc"><clipPath id="a" clipPathUnits="userSpaceOnUse"><path d="M-287.257 808.189h595.28v-841.89h-595.28Z"></path></clipPath><clipPath id="b" clipPathUnits="userSpaceOnUse"><path d="M-517.16 635.289H78.12v-841.89h-595.28Z"></path></clipPath><clipPath id="c" clipPathUnits="userSpaceOnUse"><path d="M-437.374 388.498h595.28v-841.89h-595.28Z"></path></clipPath><clipPath id="d" clipPathUnits="userSpaceOnUse"><path d="M-355.161 388.498h595.28v-841.89h-595.28Z"></path></clipPath><clipPath id="e" clipPathUnits="userSpaceOnUse"><path d="M-271.696 388.498h595.28v-841.89h-595.28Z"></path></clipPath><clipPath id="f" clipPathUnits="userSpaceOnUse"><path d="M-189.22 388.498h595.28v-841.89h-595.28Z"></path></clipPath><clipPath id="g" clipPathUnits="userSpaceOnUse"><path d="M-106.708 388.498h595.28v-841.89h-595.28Z"></path></clipPath><clipPath id="h" clipPathUnits="userSpaceOnUse"><path d="M-462.264 291.451h595.28v-841.89h-595.28Z"></path></clipPath><clipPath id="i" clipPathUnits="userSpaceOnUse"><path d="M-307.75 288.117h595.28v-841.89h-595.28Z"></path></clipPath></defs><path d="M0 0c-16.276 19.38-27.026 26.041-101.516 51.326-46.843 14.47-72.127 21.628-106.547 49.739-4.277 3.492-8.325 7.247-12.074 11.301-26.52 28.672-53.525 76.184-53.525 135.633-1.013 30.133 7.495 69.948 19.331 100.246 3.624 9.275 19.586 37.934 22.457 43.512 11.523 22.383 19.384 45.984 18.693 72.592-1.427 54.369-38.906 100.462-61.162 140.887 0 0 90.985 85.448 91.069 85.391 58.896-39.44 102.954-63.362 183.283-67.069 83.793.225 132.545 26.417 194.92 65.934.09.056.182.109.273.172l99.117-84.792c-29.033-36.164-66.078-86.154-67.595-140.523-.736-26.608 5.995-51.535 18.25-73.919a168 168 0 0 1 10.164-16.254c5.808-8.219 11.067-16.822 15.345-25.931 13.07-27.828 20.381-58.077 19.303-88.209 0-64.044-25.435-115.37-63.435-152.615-39.216-35.429-64.934-39.444-117.568-54.733C39.589 35.883 28.615 19.228 0 0" clip-path="url(#a)" style="fill:#ea3237;fill-opacity:1;fill-rule:nonzero;stroke:none" transform="matrix(1.33333 0 0 -1.33333 383.01 1077.585)"></path><path d="M0 0c.127-23.01-3.479-31.186-20.439-46.784-4.97-4.56-9.612-8.602-14.081-12.245v305.82h19.304c4.36-15.389 11.882-39.934 14.162-69.04C.963 120.211-.273 49.509 0 0" clip-path="url(#b)" style="fill:#fae51b;fill-opacity:1;fill-rule:nonzero;stroke:none" transform="matrix(1.33333 0 0 -1.33333 689.547 847.052)"></path><path d="M0 0v-333.209c-8.784-3.879-18.632-7.731-30.323-12.164a215 215 0 0 0-6.014-2.18V0Z" clip-path="url(#c)" style="fill:#fae51b;fill-opacity:1;fill-rule:nonzero;stroke:none" transform="matrix(1.33333 0 0 -1.33333 583.165 517.997)"></path><path d="M0 0v-357.591c-16.124-5.459-27.671-9.974-36.945-14.38V0Z" clip-path="url(#d)" style="fill:#fae51b;fill-opacity:1;fill-rule:nonzero;stroke:none" transform="matrix(1.33333 0 0 -1.33333 473.549 517.997)"></path><path d="M0 0v-378.63c-9.248 4.942-20.403 10.383-37.054 18.496V0Z" clip-path="url(#e)" style="fill:#fae51b;fill-opacity:1;fill-rule:nonzero;stroke:none" transform="matrix(1.33333 0 0 -1.33333 362.26 517.997)" data-source="https://football-logos.cc"></path><path d="M0 0v-349.706c-7.331 2.044-26.362 7.413-36.782 10.783-.054.018-.1.036-.154.055V0Z" clip-path="url(#f)" style="fill:#fae51b;fill-opacity:1;fill-rule:nonzero;stroke:none" transform="matrix(1.33333 0 0 -1.33333 252.293 517.997)"></path><path d="M0 0v-311.97a286 286 0 0 0-12.854 11.292l-5.015 4.687c-3.651 3.416-7.022 7.113-10.01 11.119-5.742 7.713-6.505 12.191-5.96 34.602 1.826 74.936.8 148.663-1.135 170.938-.218 2.489.263 8.439.981 15.034 1.526 14.217 5.005 28.188 10.619 41.333 4.224 9.884 9.448 18.123 11.719 22.811l-.027.154z" clip-path="url(#g)" style="fill:#fae51b;fill-opacity:1;fill-rule:nonzero;stroke:none" transform="matrix(1.33333 0 0 -1.33333 142.278 517.997)"></path><path d="m0 0-.227-21.075c-.027-2.68-1.29-5.206-3.461-6.777-12.972-9.384-27.062-13.726-43.759-13.726-30.105 0-54.505 19.022-54.505 56.158 0 31.168 18.922 56.05 53.742 56.05 21.412 0 41.715-9.502 46.375-31.759l-20.939-4.733c-6.277 11.056-16.179 19.123-27.325 17.796-20.967-2.498-28.897-16.506-28.897-37.699s10.801-37.173 30.186-37.173c7.431 0 15.525 1.917 21.739 6.305 3.189 2.253 5.06 5.932 5.06 9.829V0H-46.92v16.47c0 .899.727 1.626 1.626 1.626H-.327a.514.514 0 0 0 .518-.527zm-133.629-39.816a6.34 6.34 0 0 0-5.923 4.079l-6.086 15.897a7.53 7.53 0 0 1-7.04 4.851h-32.495a7.54 7.54 0 0 1-7.085-4.969l-5.687-15.679a6.34 6.34 0 0 0-5.959-4.179h-19.25l40.434 102.115a10.56 10.56 0 0 0 9.82 6.668h7.785c4.315 0 8.194-2.625 9.802-6.631l40.943-102.152ZM-280.72-41.86c-33.049 0-49.473 25.218-49.473 56.322 0 34.293 21.811 56.322 49.473 56.322 19.921 0 39.062-8.748 44.621-31.967l-20.939-5.269c-5.559 14.907-14.035 17.932-24.255 17.932-18.55 0-26.344-16.07-26.344-37.018s8.176-37.627 26.499-37.627c14.307 0 19.903 9.166 25.127 22.565l19.967-6.686c-4.252-21.175-20.576-34.574-44.676-34.574M29.678 133.065a22.525 22.525 0 0 1-25.763 2.163c-22.747-13.218-43.231-22.384-65.224-31.85-33.757-14.544-135.273-35.546-216.423.718-24.364 10.883-50.708 22.756-82.212 36.936l-59.692-56.431c29.06-40.007 53.797-87.835 53.479-136.381-.037-6.386-.264-12.618-.763-18.768H33.466c-.245 8.203.236 18.922.236 18.922.782 28.116 5.206 54.787 22.148 85.619 9.756 17.778 20.912 35.71 31.531 50.963z" clip-path="url(#h)" style="fill:#fae51b;fill-opacity:1;fill-rule:nonzero;stroke:none" transform="matrix(1.33333 0 0 -1.33333 616.352 388.602)"></path><path d="M0 0h-29.297l14.254 39.298z" clip-path="url(#i)" style="fill:#fae51b;fill-opacity:1;fill-rule:nonzero;stroke:none" transform="matrix(1.33333 0 0 -1.33333 410.335 384.157)" data-source="https://football-logos.cc"></path><!-- source: https://football-logos.cc --></svg>