<svg xmlns="http://www.w3.org/2000/svg" data-name="Calque 2" viewBox="0 0 142.63 142.62"><!-- Source: https://football-logos.cc --><g data-name="Capa 1" data-source="https://football-logos.cc"><path d="M142.63 71.31c0 39.39-31.94 71.31-71.32 71.31S0 110.7 0 71.31 31.93 0 71.31 0s71.32 31.93 71.32 71.31" style="fill:#ca9a56"></path><path d="M114.96 114.96a61.5 61.5 0 0 1-19.62 13.23c-7.61 3.22-15.69 4.85-24.03 4.85s-16.42-1.63-24.03-4.85a61.5 61.5 0 0 1-19.62-13.23 61.5 61.5 0 0 1-13.23-19.62c-3.22-7.61-4.85-15.69-4.85-24.03s1.63-16.42 4.85-24.03a61.5 61.5 0 0 1 13.23-19.62 61.5 61.5 0 0 1 19.62-13.23c7.61-3.22 15.69-4.85 24.03-4.85s16.42 1.63 24.03 4.85a61.5 61.5 0 0 1 19.62 13.23 61.5 61.5 0 0 1 13.23 19.62c3.22 7.61 4.85 15.69 4.85 24.03s-1.63 16.42-4.85 24.03a61.5 61.5 0 0 1-13.23 19.62M71.32 4.79c-36.74 0-66.53 29.78-66.53 66.52s29.78 66.52 66.52 66.52 66.52-29.78 66.52-66.52S108.06 4.79 71.32 4.79"></path><path d="M67.12 107.52h3.94v-3.2h-3.34zM59.28 103.52l3.37.1.23-1.59-3-.28zM82.35 105.27l2.15.1-.35-1.65-2.24.13.38 1.43zM33.2 48.31l4.38-6.06c2.73-3.78 1.66-5.71-.38-7.22l-1.14-.84-2.72 3.76c1.51 1.11 1.31 1.75.08 3.44l-2.9 4.01c-1.28 1.78-2.22 1.66-3.98.36l-1.31-.97c-1.51-1.11-2.16-2.17-.73-4.15l2.96-4.1c.81-1.12 1.52-1.58 2.39-.93l.33.25 2.72-3.76c-3.41-2.57-5.05-2.72-8.91 2.63l-3.19 4.42c-2.45 3.39-3.07 6.02.48 8.65l3.62 2.67c3.55 2.63 5.84 1.23 8.29-2.16ZM48.02 33.54l5.87-3.03c3.77-1.94 4.68-4.44 2.98-7.8L52.48 14l-4.1 2.12 3.94 7.81c.87 1.72.6 2.71-1.08 3.57l-4.06 2.1c-1.68.87-2.63.51-3.5-1.21l-3.94-7.81-4.1 2.12 4.39 8.71c1.7 3.36 4.22 4.08 7.99 2.14ZM69.11 21.04c5.93-.1 6.47-.02 6.49 1.3.02 1.17-.97 1.3-1.95 1.31l-5.64.09c-1.33.02-1.97-.09-2.02-1.71l-4.6.08.02 1.05c.05 3.29 1.74 4.06 5.93 3.99l5.58-.09c6.12-.1 7.47-.79 7.41-4.88-.07-4.43-1.74-4.84-8.89-4.7-4.93.1-5.49.07-5.52-1.25-.01-.82.69-1.19 1.72-1.2l5.1-.08c2.12-.03 2.25.42 2.26 1.54l4.6-.08v-.48c-.05-2.66-.58-4.48-5.88-4.39l-6.43.11c-5.81.09-6.02 2.22-5.98 4.97.06 3.73.86 4.56 7.79 4.45ZM88.26 30.32l6.66 3.32c4.15 2.07 5.85.67 6.96-1.63l.62-1.28-4.13-2.06c-.82 1.69-1.47 1.6-3.33.68l-4.41-2.2c-1.95-.97-2-1.93-1.04-3.91l.71-1.47c.82-1.69 1.74-2.53 3.91-1.44l4.5 2.24c1.23.61 1.8 1.25 1.32 2.22l-.18.38 4.13 2.06c1.91-3.84 1.77-5.5-4.1-8.43l-4.86-2.42c-3.72-1.85-6.39-2.01-8.33 1.98l-1.98 4.07c-1.94 3.99-.19 6.03 3.54 7.89ZM117.6 45.06l-1.3.97c-1.75 1.31-2.69 1.43-3.98-.34l-3.49-4.8c-1.29-1.77-.89-2.64.86-3.95l1.3-.97c1.5-1.12 2.69-1.43 4.13.55l3.2 4.39c1.44 1.98.79 3.03-.71 4.15Zm.03-11.67c-2.46-3.38-4.76-4.77-8.3-2.13l-3.61 2.69c-3.54 2.64-2.91 5.27-.45 8.65l4.38 6.02c2.46 3.38 4.76 4.77 8.3 2.13l3.61-2.69c3.54-2.64 2.91-5.27.45-8.65zM29.76 99.61l2.26 3.26 1.53-1.04-3.46-4.98-6.29 4.28 1.19 1.72 2.25-1.52 2.05 2.94 1.45-.99-2.05-2.94zM38.88 107.36l-3 3.05c-.75.76-1.49.73-2.1.15-.61-.59-.65-1.34.12-2.12l2.96-3.01-1.54-1.48-2.99 3.04c-1.67 1.7-1.45 3.42.11 4.91s3.32 1.7 5.04-.05l2.95-3-1.54-1.48ZM42.61 110.52l-1.01 1.55 1.93 1.22-3.12 4.82 1.79 1.12 3.12-4.81 1.93 1.22 1-1.54zM54 119.12v.02c-.17.41-.59.48-1.19.25l-1.24-.48.49-1.24 1.28.5c.59.23.81.57.65.95Zm-.75 2.74v.02c-.17.41-.61.51-1.21.28l-1.52-.59.51-1.3 1.5.58c.66.26.87.63.71 1.01Zm1.17-5.08-3.65-1.41-2.79 7.03 3.67 1.42c1.7.66 2.98.31 3.46-.89v-.02c.39-.95.03-1.65-.72-2.26.74-.03 1.4-.33 1.72-1.14v-.02c.2-.48.17-.92 0-1.31-.25-.57-.79-1.04-1.69-1.39ZM65.28 123.26v.02c-.17 1.08-1.08 1.88-2.23 1.7-1.14-.17-1.78-1.23-1.62-2.31v-.02c.17-1.08 1.08-1.88 2.22-1.7 1.15.18 1.79 1.23 1.63 2.31m-1.31-4.17c-2.33-.36-4.35 1.12-4.68 3.26v.02c-.34 2.14 1.12 4.12 3.45 4.48s4.35-1.12 4.68-3.26v-.02c.34-2.14-1.12-4.12-3.45-4.48M73.47 125.48l-.29-5.71-2.11.1.38 7.54 5.81-.29-.09-1.83zM79.2 122.51l.34 1.77 3.51-.66-.34-1.77zM90.24 122.22c-1 .36-2.02-.21-2.41-1.28v-.02c-.39-1.03 0-2.13 1.01-2.49.69-.25 1.28-.09 1.88.26l1.07-1.69c-.96-.64-2.13-.91-3.59-.38-2.17.79-3.18 2.99-2.42 5.06v.02c.79 2.12 3.01 3.07 5.07 2.33 1.59-.57 2.25-1.58 2.59-2.75l-1.89-.51c-.24.67-.55 1.18-1.3 1.45ZM98.58 118.2l-2.98-4.9-1.82 1.08 3.95 6.47 4.98-2.97-.96-1.57zM106.03 105.33l-1.6 1.42 2.87 3.16c.71.79.63 1.52 0 2.09-.63.56-1.4.54-2.13-.27l-2.83-3.12-1.6 1.42 2.86 3.16c1.6 1.76 3.35 1.67 4.96.24 1.62-1.43 1.94-3.16.3-4.97l-2.83-3.12ZM115.17 103.44l-.97 1.31-1.14-.82.95-1.29c.42-.57.83-.67 1.17-.43h.02c.36.27.34.72-.04 1.23Zm-2.51-1.45-.79 1.06-1.08-.78.81-1.1c.37-.5.76-.63 1.1-.38h.02c.36.27.32.69-.06 1.2m4.04-1.29h-.02c-.84-.62-1.61-.45-2.4.11.16-.71.04-1.42-.68-1.93h-.02c-.42-.32-.86-.41-1.29-.34-.63.1-1.22.49-1.79 1.26l-2.32 3.12 6.16 4.46 2.33-3.14c1.08-1.45 1.07-2.77 0-3.54Z"></path><path d="M69.86 112.24c-.27 0-.54-.02-.81-.04-.12 0-.23-.01-.35-.02l-.82-.06c-.1 0-.2-.02-.3-.03l-.93-.09c-.06 0-.11-.01-.17-.02q-2.34-.27-4.62-.81l.9-2.77-2.93-.2-1.01 2.12c-.29-.09-.58-.19-.87-.29h-.02l-.84-.3c-.02 0-.04-.02-.06-.02-.27-.1-.53-.2-.8-.31-.03-.01-.07-.03-.1-.04-.25-.1-.5-.2-.76-.31-.05-.02-.09-.04-.14-.06-.24-.1-.48-.21-.72-.31-.06-.02-.11-.05-.17-.08-.23-.1-.46-.21-.69-.32l-.18-.09c-.22-.11-.45-.22-.67-.33-.06-.03-.11-.06-.17-.09-.23-.12-.46-.24-.68-.36s5.68-7.18 5.68-7.18h5.24s1.5-4.21 2.6-4.81l1.15 1.2h3.8l.7 1.6h3.2s1.08 1.22.89 3.2h9.5l2.5 2.7s.7-.05 1.85 0c.89.8 1.57 2.25 1.92 3.13l-.45.24c-.13.07-.25.14-.38.2-.3.16-.61.31-.91.46-.29.14-.58.28-.88.41h-.01c-.29.13-.59.26-.88.39l-3.39.19.19 1.02c-.28.09-.56.19-.84.27-.02 0-.05.02-.07.02-.3.09-.6.18-.9.26h-.02c-.61.17-1.22.32-1.83.47h-.03l-1.1-4.19-3.53.25.55 4.66c-.41.05-.82.1-1.23.13-.07 0-.13.01-.2.02-.33.03-.65.05-.98.08-.11 0-.23.01-.34.02-.29.02-.59.03-.88.04-.11 0-.22 0-.34.01-.4.01-.79.02-1.19.02s-.75 0-1.13-.02c-.11 0-.22 0-.33-.01Zm-20.02-6.04c-.78-.48-1.55-.99-2.3-1.53.02-.5.1-.99.1-.99l9.99-8.24s-.05 2.55-.5 3.1c-.38.47-5.69 6-7.29 7.67Zm-4.95-3.6c-.08-.07-.17-.14-.25-.21-.3-.26-.6-.52-.89-.79l3.35-2.26h.85v2.1l-2.45 1.67c-.2-.16-.4-.33-.6-.5Zm-2.91-2.72c-1.19-1.22-2.3-2.51-3.31-3.84-.01-.02-.03-.03-.04-.05-.33-.44-.66-.89-.97-1.34 1.02-2.24 7.8-17.12 8.4-18.23.65-1.2 7.19-4.64 7.19-4.64l1.55-.7s4.49 6.29 4.84 6.69 1.3-1.9 1.3-1.9h6.19s8.79-15.28 9.64-16.73 3.7-3.45 4.99-4.45c1.3-1 3.8-.65 3.8-.65s3.75 7.44 6.14 11.64c1.75-.25 4.24 3.35 4.24 3.35l8.04.2 8.1 6.05-.09.84v.07c-.04.3-.07.59-.12.89l-8.44-6.35s-6.69.05-8.19 0c-.95-2.6-5.34-4.1-5.34-4.1l-5.24-10.44-4.2 8.09s1.15 2.05 1.3 3.7-1.8 5.74-3.75 9.99-5.69 6.39-6.69 6.64c0-.35-3.4-7.19-3.4-7.19h-4.19s-.15.75-.45 1.9-2 4.3-2 4.3l-7.19-10.39-3.55 7.44 1.5 1.25s-1.2 3.05-2.1 4.59c-.6 1.15.8 10.3.8 10.3l-3.78-.07-4.98 3.16Zm-6.69-9.05.5-.12v-.01l2.51-.6s-.91 2.06-1.5 3.3c-.54-.84-1.04-1.69-1.52-2.56Zm-2.76-6.32.23-.03 8.32-1.24-.67 1.91-7.1 1.44c-.27-.68-.53-1.38-.77-2.07Zm-1.81-7.81h.43v-.02s9.76.21 11.66.41c.05 0 .1.01.14.02 1.5.2.19 1.82.19 1.82s-5.75.19-9.04.16c-1.25 0-2.33-.01-3.01-.05-.15-.77-.27-1.55-.37-2.34m81.55-5.52v.13c0 .32 0 .64-.01.96 0 .32-.02.63-.03.95v.06l-.88.45-1.31-1.91 2.23-.63ZM101.49 67c.92-.55 2.78-1.38 4.68-2.12 2.15-.84 4.38-1.56 5.28-1.78.14.71.27 1.43.38 2.16-1.44.71-5.25 2.17-5.46 2.32-.26.19-5.43 0-5.43 0-.02-.01-.03-.03-.04-.04-.06-.1.17-.3.59-.54m-6.62-2.98s12.15-7.58 14.11-8.83c.32.76.63 1.52.91 2.3-.13.08-.32.2-.56.35 0 0-8.81 5.43-10.91 6.73h-.01a5 5 0 0 1-.17.11c-.05.03-.1.06-.14.09-1.2.75-2.92 1.05-3.56.75-.97-.82.07-1.24.34-1.5Zm-3.75-3.63s11.16-10.23 12.7-11.65c.3-.28.71-.64 1.08-.88l.26.38c.02.03.04.06.06.08.3.44.59.88.87 1.33.05.07.09.15.13.22-.21.22-.56.56-1.02.98-3 2.79-13.15 10.94-14.08 11.52-.6-.82 0-1.99 0-1.99Zm-2.62-4.87 10.58-14.31c.2.18.4.37.59.56.16.15.31.3.47.45l.14.14c.15.15.3.3.44.46.12.13.25.25.37.38l.01.01c-2.01 2.48-8.82 10.86-11.12 13.54-.05.06-.09.1-.13.16-.03.04-.06.07-.09.11-.07.08-.14.15-.19.22-.06.07-.11.12-.15.17-1.57 1.12-.9-1.87-.9-1.87Zm-4.23-3.21-.01-.01.84-1.69.13-.27 7.07-14.2c.39.23.77.47 1.15.72l.24.15c.38.25.75.5 1.12.76-1.33 2.33-5.88 10.33-7.59 13.49q-.075.15-.15.27c0 .01-.02.03-.02.04-.16.31-.29.55-.37.72-.03.07-.06.13-.1.18v.01c-.1.16-.19.3-.29.4-.17.26-.34.48-.45.54-.27-.27-1.92-.37-1.92-.37zm.02-19.86h.02c.4.13.8.27 1.19.42.05.02.1.04.16.06.4.15.79.3 1.19.46-1.13 3.46-4.36 13.29-5.72 17.33-1.69 4.98-3.33 5.06-3.33 5.06l6.5-23.33Zm-8.58-1.86c.41.04.82.09 1.24.15.04 0 .08.01.12.02.42.06.83.12 1.25.19h.03c-.64 4.84-2.79 21.03-2.89 22.43-.11 1.65-1.12 5.81-1.39 7.3-.26 1.5-1.16 1.42-1.16 1.42l2.8-31.52ZM31.2 63.02c.16-.77.34-1.54.54-2.29 3.37 1.52 18.29 8.25 20 9.01.03.01.05.02.07.03.02 0 .04.02.05.02.94.41 0 1.52 0 1.52l-20.66-8.3Zm-.84 8.29c0-.83.03-1.66.08-2.48.19.04.47.11.81.19v-.01s14.56 3.32 15.67 3.76q.045.015.06.03c.37.29.9 1.64-.6 1.6-1.17-.03-9.81-1.79-13.48-2.55-1.09-.22-1.99-.41-2.55-.53Zm29.47-.6c-.4 2.05-2.05 2.4-2.6 1.85s.18-.93.45-1.06c.3-.14.32-.48.31-.79L33.6 55.31c.32-.76.66-1.5 1.03-2.24l.48.33.01-.02 23.1 16.14c.19-.55.43-1.23.46-1.7 0-.14.08-.24.2-.31L37.78 47.8c.49-.7 1.01-1.38 1.54-2.05l20.81 21.47c.52-.06 1.04-.12 1.25-.35.21-.24.22-.63.22-.99L43.3 41.45c.73-.68 1.47-1.34 2.24-1.96l16.64 25.48c.84.02 1.14-.55 1.62-1.22L50.31 36.14c.75-.45 1.52-.87 2.3-1.27l.17.4h.02l12.17 28.64c.33.22.69.45 1.05.43.61-.04.6-.65.72-1.21l-8.41-30.66h.02c.69-.23 1.38-.43 2.08-.62.14-.04.28-.08.41-.12h.03l6.91 30.6c.53 0 1.22.09 1.8.22l-2.66-31.92h.02c.15-.02.29-.03.44-.04.65-.06 1.3-.11 1.96-.15s.02 0 .02 0l1.39 32.5c.27.24 1.61.91 1.61.91s-.1.35-.51.9-1.49.05-2.09-.5-1.75.6-2.7 1.29-2.75.11-3.15 0c-.4-.1-.2 1.25-.85 2.2s-3.25 1.25-3.25 1.25.05.35 0 1.75Zm39.75 24.22s-1.95-.6-2.8-1.3 2.5-.5 2.8-.5 3.1 1.8 3.1 1.8-2.95-.05-3.1 0m-8.94-5.94h2.85l2.3 1.05h-3.55zm1.6 4.5h-2.85l-2.2-1.55h2.98zm-10.14-6.3h2.65l1.6 1.2H84.1zm17.06 14.15c-.25.23-.5.46-.76.69-.04.04-.08.07-.13.11-.24.21-.49.42-.74.63-.05.04-.09.08-.14.12-.28.23-.56.46-.84.68 0 0-.02.01-.02.02-1.62 0-3.95.02-5.29-.01-1.5-.4-5.54-4.99-6.44-7.79-1-4.35-2.25-4.69-2.65-4.89s-2.1-1.5-1.85-2.5c3.05 1.2 5.54 3.1 6.04 5.99.5 2.9 6.09 5.86 6.09 5.86s7.19-.16 7.49 0c.07.04.1.13.12.24-.27.27-.54.53-.82.79-.02.02-.05.04-.07.07Zm-13.14 10.13a46 46 0 0 0 1.94-.77c.64-.27 1.27-.56 1.89-.86s1.24-.62 1.84-.94c13.33-7.24 22.37-21.36 22.37-37.59 0-23.61-19.14-42.75-42.75-42.75S28.56 47.7 28.56 71.31c0 16.23 9.05 30.35 22.37 37.59a46 46 0 0 0 3.73 1.8 46 46 0 0 0 1.94.77c4.58 1.68 9.53 2.59 14.7 2.59s10.12-.92 14.7-2.59Z"></path></g><!-- source: https://football-logos.cc --></svg>