<svg xmlns="http://www.w3.org/2000/svg" viewBox="0 0.91 1024 1022.05"><!-- Source: https://football-logos.cc --><path fill="#e8c24c" fill-rule="evenodd" d="M1024 469.38v83.54q-1.19 17.31-4.6 38.05-5.8 35.23-14.26 62.99-18.67 61.29-50.62 115.11-9.06 15.26-21.07 32.47c-17.22 24.69-35.84 47.16-55.06 66.6q-36.04 36.47-81.18 67-21.33 14.42-43.8 26.27-24.36 12.86-46.17 21.84-67.2 27.67-142.17 36.22-5.85.67-15.15 1.25-9.44.59-15.19.98-1.73.11-18.23 1.17c-6.85.44-16.34-.8-22.33-.83-6.24-.04-11.96-.79-18.9-1.22q-8.42-.52-10.77-.77-118.77-12.34-217.99-72.34-50.36-30.46-95.75-74.42c-7.82-7.56-16.27-16.78-22.87-24.19q-19.97-22.45-37.44-47.82c-4.48-6.51-8.35-11.91-12.35-18.21-30.74-48.44-54.04-102.4-66.91-158.37q-6.38-27.79-9.76-56.49-.88-7.52-1.43-15.09v-82.86c.45-4.22.57-8.65 1.09-12.66q1.59-12.32 3.03-21.76 11.93-78.16 46.63-147.87c3.74-7.51 8.55-15.33 12.62-23.58q6.8-13.75 15.5-26.43 13.66-19.88 17.44-25.23 33.94-48 80.17-87.5 31.94-27.31 66.15-48.6 18.98-11.81 42.1-23.13 14.34-7.02 40.36-17.81 7.71-3.19 14.24-5.19c5.59-1.71 12-4.16 19.27-6.14 8.55-2.32 20.54-6.13 30.71-8.33q20.03-4.33 28.74-5.92 38.26-6.97 78.38-8.52c5.38-.21 11.15-.9 16.32-.61 9.35.52 20.04.54 30.09 1.45q5.32.49 10.67 1.18c3.86.51 10.76.61 15.31 1.13 20.32 2.31 38.06 5.67 58.44 9.84q13.97 2.86 24.11 5.68 58.03 16.16 111.8 45.66c17.09 9.38 33.95 20.6 49.92 31.83q4.06 2.85 20.98 16.19c46.62 36.76 86.4 83.26 117.43 133.97 6.55 10.71 12.88 23.08 19.18 34.92q3.37 6.32 7.1 14.28 25.58 54.51 37.78 113.03 2.46 11.85 6.58 40.01c.96 6.53 1.38 12.79 1.86 19.23M154.8 185.14c-26.57 27.83-49.96 58.72-68.48 92.13q-24.7 44.54-39.18 92.69-2.1 7-4.32 16.25c-3.23 13.51-5.23 21.67-7.54 33.7q-2.15 11.14-3.21 17.41c-2.43 14.33-4.15 28.88-5.05 43.6q-.31 5.09-.62 9.84-.62 9.54-.67 21.31-.05 12.4.44 21.34 2.96 53.89 16.64 102.6c2.7 9.63 6.26 21.8 9.05 30.01q20.04 59 55.15 110.74 14.93 22 30.01 40.48 19.04 23.35 44.25 47.28 4.78 4.53 9.16 8.18 1.58 1.33 9.08 7.76 21.19 18.18 49.85 37.18 17.45 11.56 45.31 25.87 9.7 4.97 24.34 11.17 15.57 6.58 24.79 9.94 45.28 16.49 91.83 24.12c21.42 3.51 43.04 4.96 64.62 5.81q12.52.5 26-.12c22.57-1.05 43.87-2.68 65.65-6.98q21.09-4.18 23.38-4.71 34.43-7.99 68.07-20.44 7.02-2.6 14.75-5.86 12.73-5.37 14.64-6.23c12.64-5.67 28.22-13.38 41.22-21.05q28.38-16.74 49.85-32.61 23.5-17.38 46.91-39.6c5.54-5.26 9.96-10.56 15.12-15.78q4.82-4.88 11.07-12.08 23.57-27.12 42.71-55.45 13.2-19.53 26.31-44.4c3.14-5.95 5.19-10.99 7.89-16.16q2.63-5.02 5.69-12.21 14.78-34.72 23.57-68.25 12.02-45.87 14.46-92.61c.6-11.42 1.12-24.45 1.04-33.34-.54-60.32-13.11-120.39-35.39-176.38q-27.09-68.05-76.8-127.9-23.56-28.37-49.14-51.39c-27.19-24.46-57.32-46.9-89.16-64.26Q709.2 65.52 665.7 51.75c-9.28-2.94-16.47-5.25-22.83-6.34q-15.71-2.67-29.89-5.79-44.36-9.77-90.24-10.84-44.62-1.04-86.46 6.37-24.02 4.25-63.34 14.21c-3.62.92-8.34 2.78-11.08 3.71q-4.93 1.67-47.29 16.7-18.73 6.64-29.56 12.19c-23.96 12.29-46.77 27.35-67.38 44.16q-18.9 15.42-35.39 30.61-11.59 10.67-20.86 21.19-3.87 4.38-6.58 7.22" data-source="https://football-logos.cc"></path><path fill="#073b9a" fill-rule="evenodd" d="M154.8 185.14q2.71-2.84 6.58-7.22 9.27-10.52 20.86-21.19 16.49-15.19 35.39-30.61c20.61-16.81 43.42-31.87 67.38-44.16q10.83-5.55 29.56-12.19 42.36-15.03 47.29-16.7c2.74-.93 7.46-2.79 11.08-3.71q39.32-9.96 63.34-14.21 41.84-7.41 86.46-6.37 45.88 1.07 90.24 10.84 14.18 3.12 29.89 5.79c6.36 1.09 13.55 3.4 22.83 6.34q43.5 13.77 82.39 34.99c31.84 17.36 61.97 39.8 89.16 64.26q25.58 23.02 49.14 51.39 49.71 59.85 76.8 127.9c22.28 55.99 34.85 116.06 35.39 176.38.08 8.89-.44 21.92-1.04 33.34q-2.44 46.74-14.46 92.61-8.79 33.53-23.57 68.25-3.06 7.19-5.69 12.21c-2.7 5.17-4.75 10.21-7.89 16.16q-13.11 24.87-26.31 44.4-19.14 28.33-42.71 55.45-6.25 7.2-11.07 12.08c-5.16 5.22-9.58 10.52-15.12 15.78q-23.41 22.22-46.91 39.6-21.47 15.87-49.85 32.61c-13 7.67-28.58 15.38-41.22 21.05q-1.91.86-14.64 6.23-7.73 3.26-14.75 5.86-33.64 12.45-68.07 20.44-2.29.53-23.38 4.71c-21.78 4.3-43.08 5.93-65.65 6.98q-13.48.62-26 .12c-21.58-.85-43.2-2.3-64.62-5.81q-46.55-7.63-91.83-24.12-9.22-3.36-24.79-9.94-14.64-6.2-24.34-11.17-27.86-14.31-45.31-25.87-28.66-19-49.85-37.18-7.5-6.43-9.08-7.76-4.38-3.65-9.16-8.18-25.21-23.93-44.25-47.28-15.08-18.48-30.01-40.48-35.11-51.74-55.15-110.74c-2.79-8.21-6.35-20.38-9.05-30.01q-13.68-48.71-16.64-102.6-.49-8.94-.44-21.34.05-11.77.67-21.31.31-4.75.62-9.84c.9-14.72 2.62-29.27 5.05-43.6q1.06-6.27 3.21-17.41c2.31-12.03 4.31-20.19 7.54-33.7q2.22-9.25 4.32-16.25 14.48-48.15 39.18-92.69c18.52-33.41 41.91-64.3 68.48-92.13m793.51 490.75c14.59-38.31 24.65-78.36 28.17-118.5q.73-8.33 1.75-25.78c1.36-23.11.26-43.81-1.77-67.84q-1.22-14.35-4.12-30.14-3.36-18.31-5.54-28.19-1.3-5.85-7.26-26.26c-2.87-9.81-8.15-24.3-10.82-31.66q-3.69-10.18-13.24-31.25-2.93-6.46-14.86-28.8c-7.11-13.31-15.15-25.68-22.59-36.99q-6.5-9.88-16.63-22.82c-37.49-47.92-83.74-89.02-136.28-119.66-7.19-4.19-12.34-6.53-19.53-10.46q-6.91-3.78-15.01-7.47-46.75-21.3-90.09-30.53-15.4-3.28-48.67-8.08-15.05-2.17-32.22-3.05-22.01-1.12-32.34-.93-47.92.9-97.81 10.98c-21.54 4.35-40.99 10.54-61.56 17.68-7.57 2.64-18.37 7.33-30.7 12.51q-7.73 3.25-15.39 7.16c-22.73 11.62-44.85 24.78-64.95 39.92q-47.55 35.81-86.15 81.84c-17.24 20.56-33.3 44.78-46.22 67.87-12.18 21.76-23.87 46.31-32.47 71.21q-4.71 13.67-6.32 18.78c-17.24 54.82-23.4 114.11-19.24 171.65q2.92 40.35 13.18 79.04 17.43 65.72 52.55 122.99 16.68 27.18 39.05 54.96 7.85 9.74 18.73 21.34a502 502 0 0 0 40.76 38.86c45.1 38.41 96.42 67.53 152.47 86.77q53.4 18.34 109.74 23.21c10.32.89 25.84 1.62 36.59 1.71q15.6.14 42.48-1.8 16.34-1.18 46.11-6.46 14.7-2.61 31.45-7.33 19.35-5.46 30.9-9.43c42.47-14.6 82.95-35 119.59-61.02q15.77-11.2 28.48-21.67 19.54-16.09 37.01-33.95c23.37-23.88 43.9-49.92 61.87-77.88q8.68-13.51 20.13-35.13 8.13-15.34 15.44-32.78c2.23-5.33 3.72-8.4 5.33-12.62"></path><path fill="#e8c24c" fill-rule="evenodd" d="M976.48 557.39c-3.52 40.14-13.58 80.19-28.17 118.5-1.61 4.22-3.1 7.29-5.33 12.62q-7.31 17.44-15.44 32.78-11.45 21.62-20.13 35.13c-17.97 27.96-38.5 54-61.87 77.88q-17.47 17.86-37.01 33.95-12.71 10.47-28.48 21.67c-36.64 26.02-77.12 46.42-119.59 61.02q-11.55 3.97-30.9 9.43-16.75 4.72-31.45 7.33-29.77 5.28-46.11 6.46-26.88 1.94-42.48 1.8c-10.75-.09-26.27-.82-36.59-1.71q-56.34-4.87-109.74-23.21c-56.05-19.24-107.37-48.36-152.47-86.77a502 502 0 0 1-40.76-38.86q-10.88-11.6-18.73-21.34-22.37-27.78-39.05-54.96-35.12-57.27-52.55-122.99-10.26-38.69-13.18-79.04c-4.16-57.54 2-116.83 19.24-171.65q1.61-5.11 6.32-18.78c8.6-24.9 20.29-49.45 32.47-71.21 12.92-23.09 28.98-47.31 46.22-67.87q38.6-46.03 86.15-81.84c20.1-15.14 42.22-28.3 64.95-39.92q7.66-3.91 15.39-7.16c12.33-5.18 23.13-9.87 30.7-12.51 20.57-7.14 40.02-13.33 61.56-17.68q49.89-10.08 97.81-10.98 10.33-.19 32.34.93 17.17.88 32.22 3.05 33.27 4.8 48.67 8.08 43.34 9.23 90.09 30.53 8.1 3.69 15.01 7.47c7.19 3.93 12.34 6.27 19.53 10.46 52.54 30.64 98.79 71.74 136.28 119.66q10.13 12.94 16.63 22.82c7.44 11.31 15.48 23.68 22.59 36.99q11.93 22.34 14.86 28.8 9.55 21.07 13.24 31.25c2.67 7.36 7.95 21.85 10.82 31.66q5.96 20.41 7.26 26.26 2.18 9.88 5.54 28.19 2.9 15.79 4.12 30.14c2.03 24.03 3.13 44.73 1.77 67.84q-1.02 17.45-1.75 25.78M587.85 99.55l27.85 5.92a.473.471-76.864 0 0 .56-.35l7.04-29.21a.704.699 14.447 0 0-.5-.84q-5.71-1.52-10.67-2.45-11.26-2.1-29.79-5.1c-19.79-3.2-40.9-4.61-60.85-4.98a.56.56.503 0 0-.57.56v30.23a.551.55 1.081 0 0 .53.55l28.79 1a.152.151-83.877 0 0 .16-.13l1.24-11.62a.623.615 3.967 0 1 .64-.55l4.82.17a.454.452-86.491 0 1 .44.5l-2.38 22.18a.472.462-83.863 0 1-.51.42q-43.98-4.2-86.38.23a.644.635-5.934 0 1-.7-.56l-2.47-21.66a.574.564 83.939 0 1 .5-.63l5.45-.62a.33.33 46.939 0 1 .37.29l1.34 11.76a.34.34 85.667 0 0 .36.31l28.56-1.14a.84.84-79.377 0 0 .81-.87l-1.19-29.85a.601.591-1.925 0 0-.62-.57q-21 .65-43.18 2.96-7.47.78-14.71 2.09-6.81 1.23-14.64 2.46-15.05 2.38-27.7 5.58a.907.903-13.724 0 0-.66 1.08l6.65 28.62a.46.454-11.947 0 0 .53.34l27.68-5.28a.769.766 80.476 0 0 .61-.86l-1.59-11.74a.19.19 36.973 0 1 .16-.22l5.95-1.02a.221.213 81.185 0 1 .25.19l3.07 22.56a.566.566-48.984 0 1-.48.64q-16.84 2.38-33.52 6.7c-11.55 2.99-17.38 4.29-25.97 7.23q-15.08 5.16-23.72 8.6a.516.513 68.513 0 1-.66-.29l-8.32-20.8a.539.538 69.973 0 1 .33-.71l5.21-1.75a.721.718 70.671 0 1 .91.44l3.74 10.27a.573.569 70.757 0 0 .72.35l26.55-8.95a.833.832 72.924 0 0 .54-1.02l-8.39-28.4a.5.5 71.906 0 0-.65-.33q-5.49 1.95-11.96 3.94-13.44 4.12-25.08 8.84-29.95 12.18-57.28 27.58a.627.614 60.765 0 0-.23.85l14.96 25.9a.354.354 68.994 0 0 .48.14l25.2-13.15a.814.809-27.843 0 0 .34-1.09l-4.96-9.5a.881.877-27.744 0 1 .37-1.18l4.64-2.42a.793.788 63.749 0 1 1.08.37l9.24 20.04a1.016 1.011 64.846 0 1-.48 1.34q-21.27 10.06-39.55 21.31c-13.16 8.11-21.87 13.66-33.5 22.59a.809.802-40.548 0 1-1.08-.08q-3.8-3.9-6.59-8.36a.394.184 25.097 0 0-.05-.06l-7.07-8.37a.689.683 52.114 0 1 .12-1l4.78-3.52a.636.628-36.227 0 1 .88.13l6.24 8.49a.495.491 54.953 0 0 .67.12l22.79-15.22a1.026 1.023 56.703 0 0 .29-1.41l-15.83-24.8a.469.46 53.492 0 0-.69-.11c-2.7 2.25-5.69 3.61-8.82 5.87q-18.38 13.31-21.94 16.08-23.36 18.2-46.86 41.86a.566.559-45.367 0 0 0 .79l20.45 20.45a1.294 1.287 44.844 0 0 1.83 0l19.44-19.44a.743.743 0 0 0 0-1.06l-6.94-6.94a.99.983 45.208 0 1 0-1.39l3.19-3.18a.844.843 46.355 0 1 1.23.03l14.87 16.63a.334.327-43.046 0 1-.02.45q-9.18 8.81-16.76 15.67c-3.84 3.48-7 7.59-10.9 11.34q-3.42 3.29-8.1 8.57-12.64 14.3-22.58 27.41a.352.338-53.294 0 1-.48.08l-18.15-13.32a.66.653-51.264 0 1-.1-.96l3.25-3.71a.783.783 38.472 0 1 1.05-.12l8.7 6.39a.445.441 37.138 0 0 .6-.08l18.21-22.11a.285.278 41.108 0 0-.03-.38l-21.85-19.82a.715.715 42.686 0 0-1 .04q-3.4 3.67-7.06 8.04-27.85 33.21-46.77 66.19-4.28 7.46-4.85 8.47a.465.451 29.67 0 0 .18.62l25.6 14.78a.847.842 29.871 0 0 1.16-.31l14.12-24.45a.832.831 31.73 0 0-.26-1.1l-8.58-5.78a.809.808-54.896 0 1-.2-1.15l2.6-3.55a.881.88-54.896 0 1 1.2-.21l17.95 12.09a.6.6-31.943 0 1 .17.83q-23.96 36.33-39.6 75.65a.633.624-67.695 0 1-.82.35l-20.39-8.46a.91.91 55.076 0 1-.49-1.19l1.52-3.66a1.129 1.125 22.504 0 1 1.48-.61l10.08 4.18a.359.353 23.19 0 0 .46-.18l11.58-24.87a1.284 1.279-64.054 0 0-.58-1.69l-25.9-13.21a.788.787-63.593 0 0-1.07.36q-9.04 18.78-15.98 35.95-7.44 18.4-15.86 48.18-1.39 4.94-2.53 10.96a.802.793 12.209 0 0 .6.92l28.62 6.9a.558.555-75.709 0 0 .67-.4l7.16-27.04a.599.59 17.002 0 0-.39-.72l-9.94-3.26a.705.705 26.047 0 1-.45-.89l1.67-5.07a.661.651-71.429 0 1 .83-.42l20.81 6.84a.544.534 18.266 0 1 .35.68c-9.09 27.23-15.72 56.17-17.96 85.13a.594.583 4.733 0 1-.65.54l-22.11-2.37a.504.503 6.405 0 1-.44-.55l.47-5.41a.581.571-85.031 0 1 .62-.53l11.48 1.01a.686.672-83.354 0 0 .73-.59l3.79-28.09a.356.35-80.116 0 0-.27-.39l-29.56-6.29a.439.438 10.935 0 0-.52.35q-9.45 51.39-7.32 103.88a.661.651-1.749 0 0 .68.63l30.33-1.21a.36.36-1.686 0 0 .34-.36l-.37-29.2a.26.25 0 0 0-.26-.25h-11.7a.611.601-89.076 0 1-.6-.63l.2-5.91a.53.53-88.348 0 1 .54-.51l22.19.78a.63.63 37.651 0 1 .61.65q-1.01 34.65 2.92 68.65 1.15 9.91 3.05 17.55a1.016 1.012-11.98 0 1-.81 1.24l-21.3 3.63a.518.516 80.351 0 1-.59-.42l-.84-4.91a.66.66 14.406 0 1 .54-.76l10.88-1.85a.497.495-8.882 0 0 .41-.56l-3.82-28.05a.634.627-6.594 0 0-.69-.54l-29.55 3.37a.323.322-6.443 0 0-.28.35q4.72 50.68 21.36 98.91a.737.735-22.328 0 0 1.01.42c2.1-1.01 5.07-2.33 6.8-2.85q8.61-2.59 20.42-6.86a.66.653 71.873 0 0 .4-.8l-7.74-26.2a.824.823 75.163 0 0-.98-.57l-10.54 2.45a.771.769 76.694 0 1-.92-.57l-1.22-5.28a.803.801 76.82 0 1 .6-.97l21.45-4.99a.645.636 76.505 0 1 .77.48q5.08 21.87 13.02 42.41c4.68 12.09 10.26 25.46 16.92 38.47a.52.52 15.555 0 1-.22.7l-19.88 10.38a.95.95 27.278 0 1-1.28-.4l-2.31-4.43a.863.854-27.603 0 1 .37-1.16l9.67-5.05a.211.206 64.117 0 0 .09-.27l-10.85-25.83a.767.762-22.295 0 0-.99-.41l-27.11 10.84a.657.655-23.626 0 0-.35.89c2.5 5.35 5.68 13.7 8.55 19.37 2.92 5.79 5.03 11.35 7.63 16.41q14.28 27.81 31.12 52.73a.78.78 28.235 0 0 1.08.22l23.82-15.91a.686.683-32.971 0 0 .2-.93l-15-23.49a.464.462 58.475 0 0-.62-.15l-9.42 5.44a.743.74 61.127 0 1-1.03-.3l-2.54-4.86a.8.8-78.53 0 1 .34-1.08l19.58-10.23a1.245 1.237-28.607 0 1 1.65.48q12.58 21.89 27.93 42.16 10.75 14.19 21.87 26.78a.546.538 49.169 0 1-.05.76l-16.58 14.82a1.048 1.041 47.93 0 1-1.47-.08l-3.46-3.88a.82.82 81.215 0 1 .06-1.16l7.32-6.54a1.128 1.126 49.06 0 0 .11-1.57c-5.96-7.05-11.6-13.55-17.32-21.51a.41.41 34.11 0 0-.57-.09l-23.64 17.38a.455.451 52.278 0 0-.08.65q14.36 17.85 27.25 32.41 8.31 9.39 15.66 16.52 9.25 8.98 16.48 15.67 8.76 8.12 11.67 10.27a.676.674-51.193 0 0 .91-.1l18.82-21.48a.76.76-48.271 0 0-.06-1.06l-21.08-19.13a.687.687 43.152 0 0-.95.03l-7.26 7.26a.748.743-40.724 0 1-1.12-.08q-1.56-2.11-3.84-3.59a.773.768 38.97 0 1-.13-1.19l16.03-16.03a.65.644-44.073 0 1 .92.01q7.35 7.57 20.72 19.35 4.48 3.95 6.11 5.1c5.55 3.91 9.46 7.83 15.72 12.46q16.34 12.08 25.65 18.23a.557.556-57.997 0 1 .17.74l-10.86 18.82a1.191 1.189-62.264 0 1-1.54.48l-5.17-2.4a.907.904 27.605 0 1-.4-1.27l5.61-9.72a.212.208-57.545 0 0-.06-.28l-22.51-16.52a1.05 1.044 36.327 0 0-1.47.22l-16.92 23.05a.508.502 36.412 0 0 .11.7q17.46 13.15 33.91 23.61 3.91 2.49 10.27 6.13 8.17 4.67 10.4 5.94 15.27 8.68 30.44 16.07a.672.671-64.359 0 0 .91-.32l12.09-25.95a.618.614 25.912 0 0-.28-.8l-23.8-12.13a.711.707 26.923 0 0-.96.31l-4.27 8.36a.796.788-67.328 0 1-.96.4l-4.57-1.5a.649.647 24.136 0 1-.36-.94l11.25-19.48a.596.595-61.868 0 1 .79-.24c13.26 6.71 24.21 13.21 36.5 18.04 8.26 3.24 18.62 7.84 28.53 11.34q10.21 3.6 11.24 3.85a.587.583 15.293 0 1 .42.73l-6.42 21.84a.242.236-74.023 0 1-.28.16l-6.14-1.48a.285.28-74.562 0 1-.2-.36l3.3-10.03a1.162 1.156-70.591 0 0-.69-1.45q-10.19-3.82-20.72-7.46-2.02-.7-4.89-2.23a.706.705-64.603 0 0-.98.35L342.78 926a.87.87 21.282 0 0 .51 1.16q5.06 1.8 12.8 4.96c6.32 2.59 17.33 5.37 25.89 8.53 7.58 2.79 12.94 3.71 23.05 6.56 11.29 3.18 24.45 5.46 34.69 7.25a.467.467-85.203 0 0 .54-.38l4.8-27.75a.612.608 10.742 0 0-.48-.7l-27.29-5.81a.372.367-76.749 0 0-.43.27l-2.54 10.56a.641.639 11.589 0 1-.73.48l-5.33-.92a.78.78-78.555 0 1-.63-.95l5.33-22.09a.606.606 40.334 0 1 .73-.45q42.15 10.26 85.45 12.57a.16.15-90 0 1 .15.16v22.41a.68.68-.428 0 1-.67.68l-5.81.07a.42.42-89.363 0 1-.43-.44l.39-11.06a.483.481 3.183 0 0-.44-.49l-27.88-2.44a.825.823-84.289 0 0-.89.73l-2.99 27.91a.724.723-84.134 0 0 .65.8q51.07 5.4 101.1.16a.673.664-6.337 0 0 .6-.74l-3.26-28.58a1.067 1.067-46.525 0 0-1.18-.94l-27.77 3.16a.225.222-4.542 0 0-.19.22l.14 11.14a.731.73-1.614 0 1-.7.74l-5.34.21a.821.811-1.376 0 1-.85-.8l-.28-22.63a.4.39-1.45 0 1 .39-.4q21.08-.43 42.59-3.81 14.46-2.28 19.2-3.02c7.97-1.23 16.61-3.69 23.32-5.14a.569.561 76.473 0 1 .66.41l5.89 21.73a.52.52 20.297 0 1-.36.64l-5.8 1.57a.559.551 77.129 0 1-.69-.44l-2.09-10.91a.447.447 84.851 0 0-.52-.36l-27.33 5.22a.834.826 79.791 0 0-.66.96l4.82 28.27a.485.483 74.136 0 0 .66.37q1.61-.66 3-.83 11.01-1.31 24.21-4.54 11.72-2.87 29.39-7.81 5.1-1.43 7.41-2.32c5.96-2.28 12.08-3.71 18.38-6.13q3.21-1.23 14.37-5.56a1.016 1.014-21.493 0 0 .58-1.33l-10.39-26a.643.639 69.124 0 0-.82-.37l-26.31 9.57a.743.739 71.703 0 0-.45.9l3.1 10.48a.32.31-16.437 0 1-.22.39l-6.24 1.85a.272.269 73.295 0 1-.33-.18l-7.15-21.19a1.02 1.02 8.864 0 1 .65-1.29q19.22-6.24 38.67-14.39 7.5-3.14 37.66-18.06.86-.42 1.04-.25c.55.52.75 1.68 1.08 2.2q5.02 8.04 10.07 16.73a.954.95-30.149 0 1-.35 1.31l-3.15 1.82a1.04 1.039-28.696 0 1-1.44-.42l-4.52-8.66a1.065 1.056-27.657 0 0-1.43-.44l-22.48 11.74a1.281 1.276 63.963 0 0-.57 1.67l11.64 25.23a.672.669 66.445 0 0 .86.34q1.52-.6 17.63-8.88 15.1-7.76 23.99-13.28 22.48-13.98 43.71-29.41a.08.065-39.345 0 0 .02-.1l-17.52-23.83a.752.749 52.838 0 0-1.07-.15q-12.17 9.65-22.85 16.33a.616.616-32.864 0 0-.19.85l5.83 9.4a.58.575-32.435 0 1-.18.79l-5.48 3.5a.574.566 57.416 0 1-.79-.18l-11.88-19.14a.863.854 58.173 0 1 .27-1.18q34.93-22.11 64.19-51.57.76-.77 3.97-3.37a.585.58 47.75 0 1 .77.04l16.22 16.22a.679.672-45.305 0 1 0 .95l-4.33 4.32a.51.51 0 0 1-.72 0l-7.63-7.63a.602.595 46.048 0 0-.83-.02l-20.84 18.62a.836.828-42.383 0 0-.06 1.19q10.2 10.98 17.33 19.45.87 1.04 1.49 2.26a.463.459 55.926 0 0 .71.14q39.78-33.77 71.11-74.96a.862.858-53.064 0 0-.17-1.22l-23.09-16.94a.378.372-52.188 0 0-.52.07l-17.5 22.09a.477.475-50.275 0 0 .06.66l8.16 7.16a.394.393 44.087 0 1 .01.59l-5.02 4.48a.235.227 43.977 0 1-.31 0l-16.99-14.9a.98.98-15.107 0 1-.1-1.38q3.63-4.19 13.28-15.68c13.99-16.64 26.31-34.85 37.03-53.52a1.376 1.367 29.849 0 1 1.87-.5l19.28 11.13a.712.698 30.405 0 1 .26.96l-2.5 4.33a.76.76-22.468 0 1-1.04.28l-9.13-5.28a.901.9-63.937 0 0-1.28.44q-.81 1.94-1.78 3.49-7.24 11.44-12.6 19.45a.458.456 35.78 0 0 .1.61q11.27 8.72 23.82 16.34a.569.562-55.99 0 0 .75-.15q5.48-7.5 13.2-20.24 9.89-16.33 17.46-31.03 7.63-14.8 16.71-37.1a.592.583 22.879 0 0-.32-.77l-27-11.2a.444.444-40.073 0 0-.58.24l-10.69 25.77a.545.543-64.986 0 0 .25.69l9.93 5.06a.224.216-62.312 0 1 .09.31l-3.29 5.69a.354.349-61.184 0 1-.47.14l-20.08-10.23a.85.845 26.566 0 1-.38-1.13c6.69-13.92 13.98-30.2 18.92-44.45q5.53-15.95 10.9-36.74a.34.34-40.585 0 1 .41-.25l22.26 5.37a.267.267-42.428 0 1 .2.32l-1.26 5.96a.33.33-37.545 0 1-.39.25l-11.03-2.66a.517.513 15.3 0 0-.62.35l-7.85 26.69a.589.583 17.48 0 0 .38.72l27.97 9.2a.357.357-87.935 0 0 .45-.23q9.91-28.89 15.7-58.98 3.89-20.2 5.27-39.35a.855.853 5.228 0 0-.76-.91l-29.44-3.16a.494.484 5.885 0 0-.54.43l-3.08 28.7a.393.383-84.069 0 0 .34.43l10.96 1.18a.392.385-81.376 0 1 .34.47l-1.2 5.61a.296.294-78.884 0 1-.34.23l-22.04-3.81a.63.63 50.202 0 1-.51-.73q7.46-42.24 5.99-86.63a.611.61-2.386 0 1 .58-.63l22.98-.91a.409.407-87.597 0 1 .42.46q-.43 2.99.12 5.99a.445.443-5.536 0 1-.43.52l-11.84.15a.57.57-45 0 0-.57.57v28.96a.4.4 1.508 0 0 .38.4l30.31 1.05a.34.33-87.522 0 0 .35-.33q1.99-51.99-6.97-104.21a.293.285 79.454 0 0-.34-.24l-29.6 5.65a.75.736 80.959 0 0-.59.83l3.87 28.41a.696.695 82.875 0 0 .77.6l11.4-1.3a.434.423-5.913 0 1 .48.38l.65 5.63a.433.432-6.116 0 1-.38.47l-22.66 2.58a.584.583-5.712 0 1-.65-.53q-2.3-25.51-8.12-51.01c-2.6-11.43-6.49-23.63-9.56-34.13a.773.772 72.3 0 1 .49-.95l21.21-7.15a.573.568 77.367 0 1 .75.48q.31 2.84 1.87 5.13a.392.389 63.91 0 1-.2.59l-10.78 3.63a.625.622-17.034 0 0-.4.75l7.37 27.18a.34.332-13.38 0 0 .4.24l28.77-6.69a.893.885-13.803 0 0 .66-1.08q-2.45-9.63-6.74-24.24-3.47-11.81-7.93-23.69-9.14-24.37-20.36-47.36a.622.617 63.235 0 0-.84-.28l-26.31 13.74a.475.475 63.719 0 0-.21.62l11.6 25.16a.565.562 66.088 0 0 .72.28l9.77-4.11a1.085 1.081-22.338 0 1 1.42.59l1.79 4.49a.98.98 56.658 0 1-.55 1.27l-20.13 8.05a1.005.995-21.801 0 1-1.3-.55q-6.94-16.96-14.52-32.7-1.3-2.69-12.52-22.66c-3.85-6.86-8.53-13.34-12.48-20.11a.781.774 58.648 0 1 .25-1.05l18.83-12.02a.28.274 54.824 0 1 .38.07l3.24 4.4a.261.252-34.893 0 1-.07.36l-9.08 5.79a1.371 1.36-32.277 0 0-.43 1.87l15.01 24.17a.48.48-37.46 0 0 .66.16l25.17-15.63a.27.264-31.544 0 0 .09-.36q-24.84-44.28-58.99-82.61a.42.42 38.243 0 0-.59-.03l-22.22 19.85a.667.666 49.352 0 0-.07.93l18.58 21.76a.451.448-38.226 0 0 .61.07l8.42-6.19a1.08 1.08-1.525 0 1 1.51.23l2.54 3.46a.936.928 53.564 0 1-.19 1.3l-17.39 12.78a.678.67-36.783 0 1-.94-.13q-18.32-24.05-40.74-45.75-7.59-7.36-17.72-16.8a.893.892-47.816 0 1-.06-1.24l14.37-16.39a.824.822-46.85 0 1 1.2-.04l3.38 3.39a.872.863-46.712 0 1 .03 1.2l-7.15 7.89a.524.516-46.978 0 0 .02.73l20.62 19.67a.574.574 44.255 0 0 .79-.01l21.16-21.17a.333.325-44.377 0 0 .01-.46q-9.43-9.66-22.79-21.78-5.66-5.13-8.59-7.46c-8.24-6.57-13.52-11.21-22.51-17.76q-16.04-11.67-25.42-17.72a.738.733 32.088 0 0-1.02.23l-15.66 25.04a.75.75-57.314 0 0 .22 1.01l23.07 15.54a.642.636 34.987 0 0 .87-.15l6.29-8.58a.6.599 43.123 0 1 .94-.03q1.8 2.18 4.47 3.22a.419.412-60.173 0 1 .17.65l-13.89 17.54a.692.69 37.8 0 1-.96.12q-18.97-14.27-39.75-26.59c-11.34-6.72-20.87-11.29-33.23-17.47a.646.638 24.654 0 1-.31-.82l8.6-20.72a.548.538-66.152 0 1 .73-.29l5.69 2.65a.255.255 50.661 0 1 .12.34l-4.85 10.43a.842.837 26.092 0 0 .38 1.1l24.48 12.48a.946.945-61.439 0 0 1.25-.37l14.45-25.04a.825.825-4.334 0 0-.29-1.13c-10.75-6.36-22.62-12.93-34.53-18.17q-11.61-5.11-11.69-5.14-24.05-10.23-47.48-17.08a.522.519-73.514 0 0-.64.35l-8.32 28.29a1.421 1.418 17.318 0 0 .92 1.75l25.79 8.48a.508.507-69.654 0 0 .63-.29l4.38-10.54a.53.529-69.374 0 1 .66-.3l4.58 1.5a1.002.998 20.459 0 1 .61 1.33l-8.38 20.18a.862.856 21.863 0 1-1.11.47q-40.25-15.88-82.37-22.06a.697.697-62.581 0 1-.59-.79l3.28-21.88a.425.422-82.871 0 1 .46-.36l5.77.62a.341.333 7.42 0 1 .3.38l-1.73 11.52a.417.41-79.708 0 0 .32.47"></path><path fill="#073b9a" fill-rule="evenodd" d="m587.53 99.08 1.73-11.52a.341.333 7.42 0 0-.3-.38l-5.77-.62a.425.422-82.871 0 0-.46.36l-3.28 21.88a.697.697-77.711 0 0 .59.79q42.12 6.18 82.37 22.06a.862.856 21.863 0 0 1.11-.47L671.9 111a1.002.998 20.459 0 0-.61-1.33l-4.58-1.5a.53.529-69.374 0 0-.66.3l-4.38 10.54a.508.507-69.654 0 1-.63.29l-25.79-8.48a1.421 1.418 17.318 0 1-.92-1.75l8.32-28.29a.522.519-73.514 0 1 .64-.35q23.43 6.85 47.48 17.08.08.03 11.69 5.14c11.91 5.24 23.78 11.81 34.53 18.17a.825.825 59.545 0 1 .29 1.13l-14.45 25.04a.946.945-61.439 0 1-1.25.37l-24.48-12.48a.842.837 26.092 0 1-.38-1.1l4.85-10.43a.255.255-16.509 0 0-.12-.34l-5.69-2.65a.548.538-66.152 0 0-.73.29l-8.6 20.72a.646.638 24.654 0 0 .31.82c12.36 6.18 21.89 10.75 33.23 17.47q20.78 12.32 39.75 26.59a.692.69 37.8 0 0 .96-.12l13.89-17.54a.419.412-60.173 0 0-.17-.65q-2.67-1.04-4.47-3.22a.6.599 43.123 0 0-.94.03l-6.29 8.58a.642.636 34.987 0 1-.87.15l-23.07-15.54a.75.75-57.314 0 1-.22-1.01l15.66-25.04a.738.733 32.088 0 1 1.02-.23q9.38 6.05 25.42 17.72c8.99 6.55 14.27 11.19 22.51 17.76q2.93 2.33 8.59 7.46 13.36 12.12 22.79 21.78a.333.325-44.377 0 1-.01.46l-21.16 21.17a.574.574 44.255 0 1-.79.01l-20.62-19.67a.524.516-46.978 0 1-.02-.73l7.15-7.89a.872.863-46.712 0 0-.03-1.2l-3.38-3.39a.824.822-46.85 0 0-1.2.04l-14.37 16.39a.893.892-47.816 0 0 .06 1.24q10.13 9.44 17.72 16.8 22.42 21.7 40.74 45.75a.678.67-36.783 0 0 .94.13l17.39-12.78a.936.928 53.564 0 0 .19-1.3l-2.54-3.46a1.08 1.08-34.743 0 0-1.51-.23l-8.42 6.19a.451.448-38.226 0 1-.61-.07l-18.58-21.76a.667.666 49.352 0 1 .07-.93l22.22-19.85a.42.42 86.643 0 1 .59.03q34.15 38.33 58.99 82.61a.27.264-31.544 0 1-.09.36l-25.17 15.63a.48.48.339 0 1-.66-.16l-15.01-24.17a1.371 1.36-32.277 0 1 .43-1.87l9.08-5.79a.261.252-34.893 0 0 .07-.36l-3.24-4.4a.28.274 54.824 0 0-.38-.07l-18.83 12.02a.781.774 58.648 0 0-.25 1.05c3.95 6.77 8.63 13.25 12.48 20.11q11.22 19.97 12.52 22.66 7.58 15.74 14.52 32.7a1.005.995-21.801 0 0 1.3.55l20.13-8.05a.98.98 56.737 0 0 .55-1.27l-1.79-4.49a1.085 1.081-22.338 0 0-1.42-.59l-9.77 4.11a.565.562 66.088 0 1-.72-.28l-11.6-25.16a.475.475 63.719 0 1 .21-.62l26.31-13.74a.622.617 63.235 0 1 .84.28q11.22 22.99 20.36 47.36 4.46 11.88 7.93 23.69 4.29 14.61 6.74 24.24a.893.885-13.803 0 1-.66 1.08l-28.77 6.69a.34.332-13.38 0 1-.4-.24l-7.37-27.18a.625.622-17.034 0 1 .4-.75l10.78-3.63a.392.389 63.91 0 0 .2-.59q-1.56-2.29-1.87-5.13a.573.568 77.367 0 0-.75-.48l-21.21 7.15a.773.772 72.3 0 0-.49.95c3.07 10.5 6.96 22.7 9.56 34.13q5.82 25.5 8.12 51.01a.584.583-5.712 0 0 .65.53l22.66-2.58a.433.432-6.116 0 0 .38-.47l-.65-5.63a.434.423-5.913 0 0-.48-.38l-11.4 1.3a.696.695 82.875 0 1-.77-.6l-3.87-28.41a.75.736 80.959 0 1 .59-.83l29.6-5.65a.293.285 79.454 0 1 .34.24q8.96 52.22 6.97 104.21a.34.33-87.522 0 1-.35.33l-30.31-1.05a.4.4 1.508 0 1-.38-.4v-28.96a.57.57-44.995 0 1 .57-.57l11.84-.15a.445.443-5.536 0 0 .43-.52q-.55-3-.12-5.99a.409.407-87.597 0 0-.42-.46l-22.98.91a.611.61-2.386 0 0-.58.63q1.47 44.39-5.99 86.63a.63.63 5.215 0 0 .51.73l22.04 3.81a.296.294-78.884 0 0 .34-.23l1.2-5.61a.392.385-81.376 0 0-.34-.47l-10.96-1.18a.393.383-84.069 0 1-.34-.43l3.08-28.7a.494.484 5.885 0 1 .54-.43l29.44 3.16a.855.853 5.228 0 1 .76.91q-1.38 19.15-5.27 39.35-5.79 30.09-15.7 58.98a.357.357-34.299 0 1-.45.23l-27.97-9.2a.589.583 17.48 0 1-.38-.72l7.85-26.69a.517.513 15.3 0 1 .62-.35l11.03 2.66a.33.33-82.517 0 0 .39-.25l1.26-5.96a.267.267-68.18 0 0-.2-.32l-22.26-5.37a.34.34 85.599 0 0-.41.25q-5.37 20.79-10.9 36.74c-4.94 14.25-12.23 30.53-18.92 44.45a.85.845 26.566 0 0 .38 1.13l20.08 10.23a.354.349-61.184 0 0 .47-.14l3.29-5.69a.224.216-62.312 0 0-.09-.31l-9.93-5.06a.545.543-64.986 0 1-.25-.69l10.69-25.77a.444.444-24.934 0 1 .58-.24l27 11.2a.592.583 22.879 0 1 .32.77q-9.08 22.3-16.71 37.1-7.57 14.7-17.46 31.03-7.72 12.74-13.2 20.24a.569.562-55.99 0 1-.75.15q-12.55-7.62-23.82-16.34a.458.456 35.78 0 1-.1-.61q5.36-8.01 12.6-19.45.97-1.55 1.78-3.49a.901.9-63.937 0 1 1.28-.44l9.13 5.28a.76.76-41.007 0 0 1.04-.28l2.5-4.33a.712.698 30.405 0 0-.26-.96l-19.28-11.13a1.376 1.367 29.849 0 0-1.87.5c-10.72 18.67-23.04 36.88-37.03 53.52q-9.65 11.49-13.28 15.68a.98.98-62.839 0 0 .1 1.38l16.99 14.9a.235.227 43.977 0 0 .31 0l5.02-4.48a.394.393 44.087 0 0-.01-.59l-8.16-7.16a.477.475-50.275 0 1-.06-.66l17.5-22.09a.378.372-52.188 0 1 .52-.07l23.09 16.94a.862.858-53.064 0 1 .17 1.22q-31.33 41.19-71.11 74.96a.463.459 55.926 0 1-.71-.14q-.62-1.22-1.49-2.26-7.13-8.47-17.33-19.45a.836.828-42.383 0 1 .06-1.19l20.84-18.62a.602.595 46.048 0 1 .83.02l7.63 7.63a.51.51 0 0 0 .72 0l4.33-4.32a.679.672-45.305 0 0 0-.95l-16.22-16.22a.585.58 47.75 0 0-.77-.04q-3.21 2.6-3.97 3.37-29.26 29.46-64.19 51.57a.863.854 58.173 0 0-.27 1.18l11.88 19.14a.574.566 57.416 0 0 .79.18l5.48-3.5a.58.575-32.435 0 0 .18-.79l-5.83-9.4a.616.616 1.981 0 1 .19-.85q10.68-6.68 22.85-16.33a.752.749 52.838 0 1 1.07.15l17.52 23.83a.08.065-39.345 0 1-.02.1q-21.23 15.43-43.71 29.41-8.89 5.52-23.99 13.28-16.11 8.28-17.63 8.88a.672.669 66.445 0 1-.86-.34l-11.64-25.23a1.281 1.276 63.963 0 1 .57-1.67l22.48-11.74a1.065 1.056-27.657 0 1 1.43.44l4.52 8.66a1.04 1.039-28.696 0 0 1.44.42l3.15-1.82a.954.95-30.149 0 0 .35-1.31q-5.05-8.69-10.07-16.73c-.33-.52-.53-1.68-1.08-2.2q-.18-.17-1.04.25-30.16 14.92-37.66 18.06-19.45 8.15-38.67 14.39a1.02 1.02-47.274 0 0-.65 1.29l7.15 21.19a.272.269 73.295 0 0 .33.18l6.24-1.85a.32.31-16.437 0 0 .22-.39l-3.1-10.48a.743.739 71.703 0 1 .45-.9l26.31-9.57a.643.639 69.124 0 1 .82.37l10.39 26a1.016 1.014-21.493 0 1-.58 1.33q-11.16 4.33-14.37 5.56c-6.3 2.42-12.42 3.85-18.38 6.13q-2.31.89-7.41 2.32-17.67 4.94-29.39 7.81-13.2 3.23-24.21 4.54-1.39.17-3 .83a.485.483 74.136 0 1-.66-.37l-4.82-28.27a.834.826 79.791 0 1 .66-.96l27.33-5.22a.447.447 84.85 0 1 .52.36l2.09 10.91a.559.551 77.129 0 0 .69.44l5.8-1.57a.52.52-14.091 0 0 .36-.64l-5.89-21.73a.569.561 76.473 0 0-.66-.41c-6.71 1.45-15.35 3.91-23.32 5.14q-4.74.74-19.2 3.02-21.51 3.38-42.59 3.81a.4.39-1.45 0 0-.39.4l.28 22.63a.821.811-1.376 0 0 .85.8l5.34-.21a.731.73-1.614 0 0 .7-.74l-.14-11.14a.225.222-4.542 0 1 .19-.22l27.77-3.16a1.067 1.067 37.341 0 1 1.18.94l3.26 28.58a.673.664-6.337 0 1-.6.74q-50.03 5.24-101.1-.16a.724.723-84.134 0 1-.65-.8l2.99-27.91a.825.823-84.289 0 1 .89-.73l27.88 2.44a.483.481 3.183 0 1 .44.49l-.39 11.06a.42.42-89.363 0 0 .43.44l5.81-.07a.68.68-.428 0 0 .67-.68v-22.41a.16.15 90 0 0-.15-.16q-43.3-2.31-85.45-12.57a.606.606.464 0 0-.73.45l-5.33 22.09a.78.78-78.555 0 0 .63.95l5.33.92a.641.639 11.589 0 0 .73-.48l2.54-10.56a.372.367-76.749 0 1 .43-.27l27.29 5.81a.612.608 10.742 0 1 .48.7l-4.8 27.75a.467.467-40.007 0 1-.54.38c-10.24-1.79-23.4-4.07-34.69-7.25-10.11-2.85-15.47-3.77-23.05-6.56-8.56-3.16-19.57-5.94-25.89-8.53q-7.74-3.16-12.8-4.96a.87.87 21.282 0 1-.51-1.16l10.82-26.09a.706.705-64.603 0 1 .98-.35q2.87 1.53 4.89 2.23 10.53 3.64 20.72 7.46a1.162 1.156-70.591 0 1 .69 1.45l-3.3 10.03a.285.28-74.562 0 0 .2.36l6.14 1.48a.242.236-74.023 0 0 .28-.16l6.42-21.84a.587.583 15.293 0 0-.42-.73q-1.03-.25-11.24-3.85c-9.91-3.5-20.27-8.1-28.53-11.34-12.29-4.83-23.24-11.33-36.5-18.04a.596.595-61.868 0 0-.79.24l-11.25 19.48a.649.647 24.136 0 0 .36.94l4.57 1.5a.796.788-67.328 0 0 .96-.4l4.27-8.36a.711.707 26.923 0 1 .96-.31l23.8 12.13a.618.614 25.912 0 1 .28.8L325 918.58a.672.671-64.359 0 1-.91.32q-15.17-7.39-30.44-16.07-2.23-1.27-10.4-5.94-6.36-3.64-10.27-6.13-16.45-10.46-33.91-23.61a.508.502 36.412 0 1-.11-.7l16.92-23.05a1.05 1.044 36.327 0 1 1.47-.22l22.51 16.52a.212.208-57.545 0 1 .06.28l-5.61 9.72a.907.904 27.605 0 0 .4 1.27l5.17 2.4a1.191 1.189-62.264 0 0 1.54-.48l10.86-18.82a.557.556-57.997 0 0-.17-.74q-9.31-6.15-25.65-18.23c-6.26-4.63-10.17-8.55-15.72-12.46q-1.63-1.15-6.11-5.1-13.37-11.78-20.72-19.35a.65.644-44.073 0 0-.92-.01l-16.03 16.03a.773.768 38.97 0 0 .13 1.19q2.28 1.48 3.84 3.59a.748.743-40.724 0 0 1.12.08l7.26-7.26a.687.687 43.152 0 1 .95-.03l21.08 19.13a.76.76-48.271 0 1 .06 1.06l-18.82 21.48a.676.674-51.193 0 1-.91.1q-2.91-2.15-11.67-10.27-7.23-6.69-16.48-15.67-7.35-7.13-15.66-16.52-12.89-14.56-27.25-32.41a.455.451 52.278 0 1 .08-.65l23.64-17.38a.41.41 51.046 0 1 .57.09c5.72 7.96 11.36 14.46 17.32 21.51a1.128 1.126 49.06 0 1-.11 1.57l-7.32 6.54a.82.82 45.096 0 0-.06 1.16l3.46 3.88a1.048 1.041 47.93 0 0 1.47.08l16.58-14.82a.546.538 49.169 0 0 .05-.76q-11.12-12.59-21.87-26.78-15.35-20.27-27.93-42.16a1.245 1.237-28.607 0 0-1.65-.48l-19.58 10.23a.8.8 50.946 0 0-.34 1.08l2.54 4.86a.743.74 61.127 0 0 1.03.3l9.42-5.44a.464.462 58.475 0 1 .62.15l15 23.49a.686.683-32.971 0 1-.2.93l-23.82 15.91a.78.78 28.17 0 1-1.08-.22q-16.84-24.92-31.12-52.73c-2.6-5.06-4.71-10.62-7.63-16.41-2.87-5.67-6.05-14.02-8.55-19.37a.657.655-23.626 0 1 .35-.89l27.11-10.84a.767.762-22.295 0 1 .99.41l10.85 25.83a.211.206 64.117 0 1-.09.27l-9.67 5.05a.863.854-27.603 0 0-.37 1.16l2.31 4.43a.95.95 39.777 0 0 1.28.4l19.88-10.38a.52.52 3.658 0 0 .22-.7c-6.66-13.01-12.24-26.38-16.92-38.47q-7.94-20.54-13.02-42.41a.645.636 76.505 0 0-.77-.48l-21.45 4.99a.803.801 76.82 0 0-.6.97l1.22 5.28a.771.769 76.694 0 0 .92.57l10.54-2.45a.824.823 75.163 0 1 .98.57l7.74 26.2a.66.653 71.873 0 1-.4.8q-11.81 4.27-20.42 6.86c-1.73.52-4.7 1.84-6.8 2.85a.737.735-22.328 0 1-1.01-.42q-16.64-48.23-21.36-98.91a.323.322-6.443 0 1 .28-.35l29.55-3.37a.634.627-6.594 0 1 .69.54l3.82 28.05a.497.495-8.882 0 1-.41.56l-10.88 1.85a.66.66-14.037 0 0-.54.76l.84 4.91a.518.516 80.351 0 0 .59.42l21.3-3.63a1.016 1.012-11.98 0 0 .81-1.24q-1.9-7.64-3.05-17.55-3.93-34-2.92-68.65a.63.63 1.852 0 0-.61-.65l-22.19-.78a.53.53-88.348 0 0-.54.51l-.2 5.91a.611.601-89.076 0 0 .6.63h11.7a.26.25 0 0 1 .26.25l.37 29.2a.36.36-1.686 0 1-.34.36l-30.33 1.21a.661.651-1.749 0 1-.68-.63q-2.13-52.49 7.32-103.88a.439.438 10.935 0 1 .52-.35l29.56 6.29a.356.35-80.116 0 1 .27.39l-3.79 28.09a.686.672-83.354 0 1-.73.59l-11.48-1.01a.581.571-85.031 0 0-.62.53l-.47 5.41a.504.503 6.405 0 0 .44.55l22.11 2.37a.594.583 4.733 0 0 .65-.54c2.24-28.96 8.87-57.9 17.96-85.13a.544.534 18.266 0 0-.35-.68l-20.81-6.84a.661.651-71.429 0 0-.83.42l-1.67 5.07a.705.705 26.018 0 0 .45.89l9.94 3.26a.599.59 17.002 0 1 .39.72l-7.16 27.04a.558.555-75.709 0 1-.67.4l-28.62-6.9a.802.793 12.209 0 1-.6-.92q1.14-6.02 2.53-10.96 8.42-29.78 15.86-48.18 6.94-17.17 15.98-35.95a.788.787-63.593 0 1 1.07-.36l25.9 13.21a1.284 1.279-64.054 0 1 .58 1.69l-11.58 24.87a.359.353 23.19 0 1-.46.18l-10.08-4.18a1.129 1.125 22.504 0 0-1.48.61l-1.52 3.66a.91.91 20.525 0 0 .49 1.19l20.39 8.46a.633.624-67.695 0 0 .82-.35q15.64-39.32 39.6-75.65a.6.6-52.565 0 0-.17-.83l-17.95-12.09a.881.88-54.896 0 0-1.2.21l-2.6 3.55a.809.808-54.896 0 0 .2 1.15l8.58 5.78a.832.831 31.73 0 1 .26 1.1l-14.12 24.45a.847.842 29.871 0 1-1.16.31l-25.6-14.78a.465.451 29.67 0 1-.18-.62q.57-1.01 4.85-8.47 18.92-32.98 46.77-66.19 3.66-4.37 7.06-8.04a.715.715 42.686 0 1 1-.04l21.85 19.82a.285.278 41.108 0 1 .03.38l-18.21 22.11a.445.441 37.138 0 1-.6.08l-8.7-6.39a.783.783 38.472 0 0-1.05.12l-3.25 3.71a.66.653-51.264 0 0 .1.96l18.15 13.32a.352.338-53.294 0 0 .48-.08q9.94-13.11 22.58-27.41 4.68-5.28 8.1-8.57c3.9-3.75 7.06-7.86 10.9-11.34q7.58-6.86 16.76-15.67a.334.327-43.046 0 0 .02-.45l-14.87-16.63a.844.843 46.355 0 0-1.23-.03l-3.19 3.18a.99.983 45.208 0 0 0 1.39l6.94 6.94a.743.743 0 0 1 0 1.06l-19.44 19.44a1.294 1.287 44.844 0 1-1.83 0l-20.45-20.45a.566.559-45.367 0 1 0-.79q23.5-23.66 46.86-41.86 3.56-2.77 21.94-16.08c3.13-2.26 6.12-3.62 8.82-5.87a.469.46 53.492 0 1 .69.11l15.83 24.8a1.026 1.023 56.703 0 1-.29 1.41l-22.79 15.22a.495.491 54.953 0 1-.67-.12l-6.24-8.49a.636.628-36.227 0 0-.88-.13l-4.78 3.52a.689.683 52.114 0 0-.12 1l7.07 8.37a.394.184 25.097 0 1 .05.06q2.79 4.46 6.59 8.36a.809.802-40.548 0 0 1.08.08c11.63-8.93 20.34-14.48 33.5-22.59q18.28-11.25 39.55-21.31a1.016 1.011 64.846 0 0 .48-1.34l-9.24-20.04a.793.788 63.749 0 0-1.08-.37l-4.64 2.42a.881.877-27.744 0 0-.37 1.18l4.96 9.5a.814.809-27.843 0 1-.34 1.09l-25.2 13.15a.354.354 79.381 0 1-.48-.14l-14.96-25.9a.627.614 60.765 0 1 .23-.85q27.33-15.4 57.28-27.58 11.64-4.72 25.08-8.84 6.47-1.99 11.96-3.94a.5.5 71.906 0 1 .65.33l8.39 28.4a.833.832 72.924 0 1-.54 1.02l-26.55 8.95a.573.569 70.757 0 1-.72-.35l-3.74-10.27a.721.718 70.671 0 0-.91-.44l-5.21 1.75a.539.538 69.973 0 0-.33.71l8.32 20.8a.516.513 68.513 0 0 .66.29q8.64-3.44 23.72-8.6c8.59-2.94 14.42-4.24 25.97-7.23q16.68-4.32 33.52-6.7a.566.566-49.054 0 0 .48-.64l-3.07-22.56a.221.213 81.185 0 0-.25-.19l-5.95 1.02a.19.19 39.414 0 0-.16.22l1.59 11.74a.769.766 80.476 0 1-.61.86l-27.68 5.28a.46.454-11.947 0 1-.53-.34l-6.65-28.62a.907.903-13.724 0 1 .66-1.08q12.65-3.2 27.7-5.58 7.83-1.23 14.64-2.46 7.24-1.31 14.71-2.09 22.18-2.31 43.18-2.96a.601.591-1.925 0 1 .62.57l1.19 29.85a.84.84-57.489 0 1-.81.87l-28.56 1.14a.34.34 85.667 0 1-.36-.31l-1.34-11.76a.33.33 60.599 0 0-.37-.29l-5.45.62a.574.564 83.939 0 0-.5.63l2.47 21.66a.644.635-5.934 0 0 .7.56q42.4-4.43 86.38-.23a.472.462-83.863 0 0 .51-.42l2.38-22.18a.454.452-86.491 0 0-.44-.5l-4.82-.17a.623.615 3.967 0 0-.64.55l-1.24 11.62a.152.151-83.877 0 1-.16.13l-28.79-1a.551.55 1.081 0 1-.53-.55V63.1a.56.56.503 0 1 .57-.56c19.95.37 41.06 1.78 60.85 4.98q18.53 3 29.79 5.1 4.96.93 10.67 2.45a.704.699 14.447 0 1 .5.84l-7.04 29.21a.473.471-76.864 0 1-.56.35l-27.85-5.92a.417.41-79.708 0 1-.32-.47m173.26 95.72q-7.15-5.78-10.83-8.38c-9.42-6.66-21.12-14.9-31.76-20.82-9.2-5.12-17.87-10.27-27.91-14.86q-7.88-3.61-11.65-5.21a.625.617-69.773 0 1-.34-.75q.84-2.64 1.96-5.05 4.98-10.8 9.79-21.9.3-.68 1.93-3.72.56-1.04 1.03-1.37.67-.48 1.61.33.58.51 1.66 1.03 5.57 2.68 12.52 6.27a.863.859-62.983 0 1 .37 1.15l-4.59 9a1.194 1.19-63.008 0 0 .52 1.61l14.48 7.38a.264.259-60.386 0 0 .35-.1l9.4-16.28a.501.492 29.884 0 0-.19-.68c-9.17-5.08-17.45-8.71-26.36-13.25q-6.71-3.42-14.62-6.67-20.94-8.62-40.64-14.64a.551.541-73.052 0 0-.68.37l-5.19 17.63a.516.51 17.707 0 0 .33.63l15.7 5.16a.877.875-69.772 0 0 1.08-.5l4.16-10.03a.396.395 22.083 0 1 .5-.21l15.37 5.5a1.131 1.128-68.822 0 1 .66 1.5l-12.9 31.08a.481.475 20.767 0 1-.61.27q-25.33-8.97-26.75-9.46-3.71-1.27-19.48-5.7-8.22-2.31-19.77-4.55-23.95-4.65-26.53-4.93a.739.735-82.872 0 1-.65-.84l5.03-33.63a.67.67 48.314 0 1 .76-.56l16.82 2.51a.446.446-51.315 0 1 .37.51l-1.71 11.46a.46.456 10.545 0 0 .36.52l17.05 3.63a.59.59-68.019 0 0 .7-.46l3.67-17.25a.916.91 11.729 0 0-.72-1.09q-8.29-1.63-16.7-3.34-10.21-2.07-16.82-2.87c-20.85-2.52-37.16-4.27-53.87-4.86a.38.38-3.599 0 0-.39.37l-.63 18.06a.681.68-87.925 0 0 .66.71l16.96.59a.662.661-86.423 0 0 .69-.61l.98-11.14a.533.532 5.816 0 1 .59-.48l17.03 1.82a.303.293-84.195 0 1 .26.33l-3.68 34.34a.563.563 39.978 0 1-.62.5q-48.77-5.06-96.35.12a.443.434-6.036 0 1-.48-.38l-3.86-33.87a.453.453-45 0 1 .4-.5l16.87-1.93a.664.663-5.542 0 1 .73.6l.99 11.31a.292.291 85.758 0 0 .3.26l17.48-.7a.691.69 87.954 0 0 .67-.72l-.73-18.35a.362.351-3.075 0 0-.39-.34c-8.18.66-16.64.93-26.06 2q-7.14.81-22.54 2.64-3.91.47-6.77.96c-6.52 1.11-10.29 1.31-16.83 2.83q-8.33 1.94-15.51 3.05a.607.6 79.205 0 0-.49.73l4.06 17.45a.82.81 76.559 0 0 .98.61l16.48-3.83a.42.416-11.599 0 0 .32-.48l-1.91-11.22a.377.375-10.237 0 1 .3-.43l16.83-2.86a.848.842 81.133 0 1 .98.72l4.65 34.18a.501.495-5.97 0 1-.46.56q-2.76.2-6.46.96-2.7.56-25.78 4.93-7.9 1.5-30.98 8.49c-7.62 2.3-15.38 5.47-24.26 8.29-1.84.59-3 1.34-4.91 2.27a.622.61-23.386 0 1-.83-.32l-13.19-31.38a.838.833 68.559 0 1 .48-1.11l16.11-5.87a.563.56-18.912 0 1 .72.35l3.42 10.16a.781.778 71.447 0 0 .98.49l15.73-5.31a.715.709-17.654 0 0 .46-.88l-5.07-17.18a.514.514 75.224 0 0-.6-.35q-2.1.46-9.33 2.92-20.23 6.87-40.52 15.99c-10.54 4.74-20.09 9.94-30.9 15.47a1.252 1.248 62.824 0 0-.54 1.69l7.93 15.19a.738.734-27.598 0 0 1 .31l15.34-8.01a.6.6-26.787 0 0 .26-.79l-4.7-9.51a.787.774 63.923 0 1 .35-1.05l14.94-7.38a.6.591 64.269 0 1 .81.29l14.32 31.04a.935.935 64.699 0 1-.44 1.23c-14.3 6.84-22 10.3-32.98 16.6q-23.44 13.42-43.48 28.28-2.8 2.07-5.28 4.24a.538.533-40.272 0 1-.77-.06l-21.38-26.36a.581.577-37.622 0 1 .11-.83l14.08-10.35a.628.622-36.329 0 1 .88.13l5.99 8.14a.917.909-34.689 0 0 1.24.22l13.3-8.88a.716.704 57.122 0 0 .2-.97l-9.24-14.89a.83.819 54.38 0 0-1.22-.21c-3.42 2.78-7.23 4.58-10.96 7.36-9.86 7.37-16.49 11.98-23.46 17.79q-16.85 14.02-32.93 29.99a.44.44 90 0 0 0 .62l12.29 12.29a1.09 1.09 48.76 0 0 1.54 0l11.61-11.61a.497.496 46.737 0 0 .02-.68l-6.77-7.57a1.044 1.035-40.98 0 1 .11-1.48l12.1-10.33a.597.589 49.401 0 1 .84.07l21.82 25.57a.575.561-42.758 0 1-.04.78q-4.92 4.71-13.03 12.32-18.94 17.77-35.79 37.71-9.28 10.99-15.8 20a.2.2 15.9 0 1-.28.04l-27.24-19.98a.92.92-20.446 0 1-.19-1.29l9.79-13.35a.436.428 35.925 0 1 .6-.09l9.08 6.67a.481.477 36.862 0 0 .65-.09l10.64-13.43a.328.327-51.486 0 0-.05-.45l-13.19-11.57a.758.751 40.932 0 0-1.06.07q-10.05 11.3-20.03 24.62-7.6 10.14-22.74 33.56c-2.78 4.3-4.9 8.46-7.64 13.03a.726.722 30.563 0 0 .26 1l15.52 8.96a.492.484-59.537 0 0 .67-.18l8.68-15.03a.312.31 31.484 0 0-.1-.41l-9.04-6.09a1.086 1.072-55.022 0 1-.26-1.53l9.4-12.81a.559.555-54.521 0 1 .76-.13l27.88 18.78a.506.498-54.95 0 1 .12.72c-6.42 8.31-10.5 15.94-17.19 27.67q-15.82 27.7-27.06 56.89a.529.526 21.307 0 1-.69.3l-31.89-13.24a.247.247 55.146 0 1-.14-.32l6.23-15.02a.79.79 31.249 0 1 1.03-.43l10.02 4.16a.708.704 22.621 0 0 .93-.38l6.44-15.52a.437.431-65.395 0 0-.2-.55l-15.58-7.94a.747.738-62.016 0 0-.99.31q-1.6 2.9-4.21 8.63-16.41 36.07-25.76 74.08a.92.917 13.084 0 0 .7 1.12l16.95 3.61a.639.636-75.601 0 0 .74-.44l4.74-16.1a.637.633-72.9 0 0-.41-.78l-10.43-3.43a.645.642-71.703 0 1-.41-.82l5.37-16.33a.408.402-71.137 0 1 .52-.26q11.72 4.37 27.34 9.18 1.68.51 4.8 2.2a.811.806 23.976 0 1 .38.98q-12.09 35.2-17.17 71.84-2.41 17.38-2.71 22.5a.701.695-85.34 0 1-.77.66l-33.78-3.62a.532.522 6.519 0 1-.47-.58l1.82-17.02a.543.542-84.075 0 1 .59-.48l11.17.98a.744.732-84.402 0 0 .79-.66l1.85-17.25a.616.611-81.949 0 0-.5-.67l-17.29-2.99a.589.587 9.148 0 0-.68.49q-4.27 26.66-6.11 53.86-.54 8.07-.32 36.36a.731.73-1.528 0 0 .76.72l18.47-.74a.451.45 88.132 0 0 .44-.47l-.71-17.77a.41.41 46.149 0 0-.4-.4l-10.92-.39a.43.42-89.318 0 1-.41-.43v-17.61a.4.4.699 0 1 .41-.4l34.43 1.2a.76.76-87.397 0 1 .73.8q-2.25 49.12 6.4 96.76a.347.345-11.145 0 1-.27.4l-33.32 6.36a.597.591 79.7 0 1-.7-.49l-2.83-16.57a.487.485 81.297 0 1 .41-.56l10.92-1.48a.445.436 82.148 0 0 .37-.5l-2.38-17.46a.474.465-6.886 0 0-.52-.4l-17.6 2.01a.584.582-5.104 0 0-.52.62q1.17 14.29 4.06 29.98 5.38 29.19 14.46 56.07a.478.474-18.623 0 0 .61.3l16.86-5.68a.501.497 72.902 0 0 .32-.61l-4.72-15.97a1.249 1.243 75.315 0 0-1.48-.87l-10.33 2.4a.565.565-40.563 0 1-.68-.42l-3.79-16.29a.45.45-70.156 0 1 .34-.54l32.44-7.55a1.136 1.128 77.119 0 1 1.36.86c1.23 5.45 2.9 12.94 4.87 18.84q2.72 8.15 4.56 14.44c1.73 5.94 4.31 11.85 6.6 18.41q2.03 5.84 5.49 13.54 6.33 14.08 11.5 23.9a.926.926 63.03 0 1-.41 1.26l-30.51 15.07a.326.326 78.504 0 1-.44-.14l-7.46-15.11a.705.703-24.506 0 1 .36-.96l9.48-3.98a.76.76 60.455 0 0 .4-1l-6.88-16.38a.327.318-22.131 0 0-.42-.17l-16.36 6.54a1.001.992 68.735 0 0-.56 1.29q9.89 25.08 23.9 49.26 9.84 16.97 17.13 27.76a.885.877-34.052 0 0 1.22.23l14.43-9.63a.342.339 57.535 0 0 .1-.46l-9.06-14.59a.885.885 61.835 0 0-1.22-.28l-8.81 5.46a.413.413-82.501 0 1-.57-.13l-8.35-13.46a1.147 1.143 59.117 0 1 .4-1.6l28.94-16.71a.995.99-29.639 0 1 1.36.37q14.83 26.38 34.18 51.75 9.35 12.26 21.47 25.36a1.056 1.048-42.541 0 1-.07 1.5l-25.27 22.58a.135.135-21.119 0 1-.19-.01l-11.93-13.36a.355.354-41.697 0 1 .03-.51l7.9-6.75a1.06 1.06 50.441 0 0 .14-1.48l-10.64-13.12a.543.533-37.524 0 0-.74-.09l-13.53 10.31a1.22 1.218-37.752 0 0-.22 1.72c12.28 15.68 25.68 30.73 39.94 44.9q7.51 7.46 10.61 10.14 6.6 5.71 11.03 9.77a.453.446 41.897 0 0 .64-.03l11.92-13.14a.56.559 42.172 0 0-.04-.8l-13.04-11.84a.638.637 43.667 0 0-.88.02l-7.55 7.55a.453.453 77.418 0 1-.64 0l-12.31-12.31a.559.552 45.358 0 1 0-.79l24.08-24.08a.263.256 45.754 0 1 .38.01q2.91 3.03 14.88 14.31 19.9 18.75 43.95 35.57 13.11 9.17 17.72 11.9a.578.575 31.128 0 1 .2.8l-17.68 28.28a.607.602 32.007 0 1-.84.19l-15.13-9.45a.472.469 33.195 0 1-.14-.66l5.85-8.69a.895.894 35.266 0 0-.21-1.22l-13.59-9.97a.922.916 36.005 0 0-1.29.2l-10.06 13.7a1.044 1.044-49.853 0 0 .22 1.46q19.36 14.43 39.81 26.45 16.47 9.67 34.05 18.29a.891.886-64.715 0 0 1.19-.43l7.22-15.49a.85.846 25.783 0 0-.39-1.11l-13.46-6.87a1.695 1.695 83.462 0 0-2.28.74l-3.95 7.75a1.368 1.362 28.439 0 1-1.9.56l-12.92-7.46a.883.878-59.975 0 1-.32-1.21l16.33-28.28a.98.98 31.154 0 1 1.38-.34c11.43 7.24 24.63 13.24 37.06 19.1 14.04 6.61 31.75 12.73 47.38 18.21a.72.72-71.828 0 1 .45.89l-9.27 31.52a.959.956-73.764 0 1-1.18.65l-15.1-4.45a1.042 1.041 17.083 0 1-.7-1.32l3.3-10.02a.526.522-71.388 0 0-.32-.65l-16.73-6.12a.238.228 20.401 0 0-.3.13l-6.62 15.96a.977.976-68.145 0 0 .55 1.29q41.58 15.88 84.17 23.83a.56.56 72.66 0 0 .65-.45l2.99-17.35a.52.52 29.773 0 0-.42-.6l-16.95-2.93a.44.436-78.953 0 0-.5.34l-2.1 9.86a.704.694-77.649 0 1-.83.54l-16.38-3.48a.789.78-76.632 0 1-.59-.97l8.67-32.72a.782.779 21.09 0 1 1.11-.49q1.19.61 3.45 1.16 18.39 4.44 35.89 7.53 24.34 4.3 53.99 5.02a.85.84.699 0 1 .83.84v33.11a.801.791 1.048 0 1-.83.79l-16.7-.58a.64.64-60.14 0 1-.62-.66l.38-10.8a.431.422-87.189 0 0-.39-.44l-17.24-1.51a.603.602-84.674 0 0-.65.54l-1.85 17.22a.601.594 5.566 0 0 .55.66q15.74 1.13 30.05 1.86 23.15 1.19 58.54-1.68a.748.735 84.094 0 0 .67-.84l-2.37-17.43a.506.502 83.319 0 0-.54-.43l-17.15 1.5a.332.331-3.695 0 0-.3.34l.44 11.05a.611.61 87.691 0 1-.59.64l-17.19.69a.47.46 88.198 0 1-.48-.46l-.42-33.63a.82.82-1.061 0 1 .8-.83c23.2-.68 44.68-2.56 67.36-7.1q17.6-3.52 26.66-5.91a.383.383-62.035 0 1 .47.27l8.82 32.53a.592.587 75.732 0 1-.43.73l-16.4 3.81a.606.606-45 0 1-.73-.45l-2.4-10.34a.42.418 78.001 0 0-.49-.32l-16.73 3.19a.406.394-11.032 0 0-.32.46l2.98 17.47a.42.417-10.545 0 0 .5.34q6.93-1.46 24.11-4.92 3.8-.77 26.24-7.12c10.91-3.09 21.51-7.06 34.06-11.3a1.384 1.384-20.35 0 0 .84-1.83l-6.21-15.55a.697.69 69.141 0 0-.88-.4l-16.15 5.88a.504.5 71.759 0 0-.31.62l3.12 10.58a.585.585 48.065 0 1-.39.73l-16.55 4.88a.962.952-16.44 0 1-1.19-.64l-9.34-31.65a.567.557 75.484 0 1 .41-.71q2.93-.67 4.55-1.29c9.2-3.55 21.02-7.32 31.31-11.55q25.17-10.35 49.01-23.84a.641.639-30.39 0 1 .85.22l17.5 28.2a.661.659 59.107 0 1-.23.92l-13.83 7.98a.476.471-27.847 0 1-.66-.2l-4.79-9.69a.577.577-26.779 0 0-.79-.26l-13.8 7.21a.98.98 63.984 0 0-.44 1.28l7.16 15.52a.73.73-27.051 0 0 1.02.33q7-4 15.92-8.41 13.26-6.56 32.37-18.92 12.4-8.02 22.42-15.31 2.89-2.09 2.94-2.15a.866.851-41.311 0 0 .08-1.09l-10.03-13.89a.519.516-34.477 0 0-.71-.13L751.81 861a1.12 1.12 57.265 0 0-.33 1.52l5.66 9.13a.35.347-32.588 0 1-.11.49l-14.99 9.31a1.27 1.27 51.598 0 1-1.75-.41l-17.15-27.64a.535.53-32.935 0 1 .16-.73q11.65-7.65 23.5-16.13 13.36-9.56 20.93-16.07 16.49-14.18 31.27-29.19a1.042 1.04 43.374 0 1 1.44-.04c5.48 5 12.29 11.98 21.53 21.29q1.44 1.45 2.35 2.81a.331.33-38.346 0 1-.05.42l-12.13 12.13a.517.51-46.228 0 1-.71.02l-7.98-7.23a.648.641 45.333 0 0-.86-.01l-12.71 11.36a.51.51 0 0 0-.04.72l12.18 13.64a.425.419 48.42 0 0 .59.04q34.22-29.74 62.07-65.55a.934.93-53.309 0 0-.19-1.32l-14.23-10.45a.4.398 37.611 0 0-.55.07l-10.45 13.2a.845.841 39.718 0 0 .11 1.16l7.79 6.83a.581.574 41.876 0 1 .05.82l-11.7 12.89a.61.61 75.276 0 1-.86.04l-25.33-22.98a.354.354 72.293 0 1-.02-.5q32.89-36.06 56.59-77.85a.641.628 29.58 0 1 .87-.23l28.88 16.67a1.518 1.515-59.161 0 1 .53 2.11l-8.32 13.3a.373.36 30.229 0 1-.49.12l-9.2-5.31a.606.602 31.128 0 0-.82.2l-8.82 14.12a.273.27 34.346 0 0 .07.36l14.12 10.36a.695.694 34.671 0 0 .99-.18q18.37-27.53 32.22-56.12c3.28-6.8 6.7-16.06 9.39-21.37a.502.498 26.077 0 0-.24-.69l-6.8-3.06a.427.296 55.278 0 1-.08-.03l-9.65-3.74a.722.719-68.123 0 0-.93.4l-6.43 15.48a.709.706 24.996 0 0 .33.9l9.32 4.75a.774.774-54.124 0 1 .34 1.04l-7.44 14.59a.631.622 26.77 0 1-.84.27l-30.56-15.58a.407.407 69.675 0 1-.17-.55q22.23-42.84 33.29-90a.73.728-76.736 0 1 .87-.54l32.76 7.9a.65.64-76.505 0 1 .47.78l-3.86 16.03a.442.438-77.612 0 1-.51.33l-11-2.34a.53.522-75.391 0 0-.62.37l-4.84 16.45a.693.687 17.358 0 0 .45.85l17.2 5.65a.503.496-73.927 0 0 .64-.36c1.97-8.24 6.67-20.88 8.72-30.67 1.52-7.31 4.15-18.01 5.58-26.63q2.1-12.76 3.74-29.04a.483.483 77.79 0 0-.43-.53l-17.93-1.93a.624.623-83.917 0 0-.68.55l-1.86 17.35a.473.473 25.537 0 0 .42.52l10.39 1.11a.313.313 38.286 0 1 .27.35l-1.77 16.55a1.358 1.355 9.026 0 1-1.63 1.18l-33.06-7.04a.542.538 11.098 0 1-.42-.62q1.83-10.96 2.61-16.38 4.27-29.75 4.1-59.99-.02-3.32-.42-19.9a.621.62-2.347 0 1 .59-.64l34.47-1.37a.571.57 87.444 0 1 .59.54l.7 17.56a.651.65 89.145 0 1-.65.67h-11.38a.32.32-44.99 0 0-.32.32v18.29a.26.26 1.146 0 0 .25.26l18.2.63a.58.58 85.978 0 0 .6-.56q.86-31.99-2.48-62.8-1.78-16.35-3.31-27.79a.92.92 81.165 0 0-1.08-.79l-17.65 3.37a.678.673 80.616 0 0-.54.76l2.37 17.42a.646.643 83.914 0 0 .69.56l11.14-.98a.453.452 84.16 0 1 .49.4l1.95 17.12a.662.654-5.915 0 1-.6.73l-34.1 2.99a.541.531 84.661 0 1-.58-.49q-2.36-23.33-5.38-38.92-.41-2.08-4.79-21.79-2.01-9.04-4.51-17.17-4.46-14.52-5.29-16.94a.636.636-73.51 0 1 .39-.81l32.19-10.84a.478.474-18.623 0 1 .61.3l5.39 15.99a1.185 1.183 73.081 0 1-.81 1.52l-9.87 2.68a.65.646-15.59 0 0-.46.81l4.88 16.51a.489.481 75.337 0 0 .57.34l17.28-4.02a.925.922-14.254 0 0 .68-1.14q-6.19-22.82-14.71-46.44c-3.79-10.5-8.33-19.95-13.54-32.26q-1.14-2.71-1.66-3.59a1.697 1.697-29.106 0 0-2.25-.64l-15.05 7.86a.426.423-24.939 0 0-.2.54l6.63 15.78a.843.83 66.981 0 0 1.09.45l10.07-4.24a.513.507 68.101 0 1 .67.29l6.09 15.24a.67.67-73.845 0 1-.37.87l-31.18 12.46a.691.687-21.421 0 1-.9-.39q-17.4-44.05-44.26-84.13a.691.685 56.423 0 1 .19-.96l28.28-18.89a.439.436-33.001 0 1 .62.13l8.75 14.08a.317.315-33.157 0 1-.09.42l-8.56 5.71a.881.88 57.347 0 0-.26 1.19l8.99 14.47a.75.75-10.371 0 0 1.03.25l14.77-9.17a.548.535 59.519 0 0 .18-.73q-21.87-38.94-51.34-71.76a.39.383 47.67 0 0-.54-.03l-13.5 12.06a.405.404 49.161 0 0-.04.56l11.41 13.36a.547.542 50.821 0 0 .75.08l8.5-6.47a.572.564 52.434 0 1 .8.11l9.98 13.1a.944.942-36.929 0 1-.19 1.33l-27.39 20.14a.311.308 55.085 0 1-.44-.08q-3.42-5.05-5.42-7.45c-5.06-6.09-14.81-18.77-22.42-26.65-3.29-3.4-10.74-11.84-16.66-17.13-3.83-3.42-9.02-8.88-14.13-13.3q-5.22-4.53-6.64-5.65a.364.363 38.539 0 1-.06-.52l20.73-26.18a1.026 1.016-50.582 0 1 1.46-.15q6.9 5.83 11.2 9.1 1.52 1.17 2.05 2.19a1.212 1.21 54.318 0 1-.23 1.41l-6.81 6.82a.707.707 0 0 0 0 1l11.82 11.82a.792.785-44.74 0 0 1.11 0l12.81-12.82a.503.503 44.236 0 0-.01-.73c-4.74-4.41-8.89-9.18-13.04-12.33q-1.57-1.19-10.63-9.41-4.62-4.19-11.02-9.31-18.03-14.4-33.88-24.59a.752.746-56.845 0 0-1.03.22l-9.7 14.39a.836.83-55.128 0 0 .2 1.14l13.7 10.05a.652.644-53.395 0 0 .91-.14l6.31-8.6a.989.983-52.52 0 1 1.41-.19l13.19 10.45a.606.598 38.658 0 1 .1.85l-20.91 26.4a.583.576 38.433 0 1-.82.09"></path><path fill="#e8c24c" fill-rule="evenodd" d="m761.61 194.71 20.91-26.4a.606.598 38.658 0 0-.1-.85l-13.19-10.45a.989.983-52.52 0 0-1.41.19l-6.31 8.6a.652.644-53.395 0 1-.91.14l-13.7-10.05a.836.83-55.128 0 1-.2-1.14l9.7-14.39a.752.746-56.845 0 1 1.03-.22q15.85 10.19 33.88 24.59 6.4 5.12 11.02 9.31 9.06 8.22 10.63 9.41c4.15 3.15 8.3 7.92 13.04 12.33a.503.503 44.236 0 1 .01.73l-12.81 12.82a.792.785-44.74 0 1-1.11 0l-11.82-11.82a.707.707-90 0 1 0-1l6.81-6.82a1.212 1.21 54.318 0 0 .23-1.41q-.53-1.02-2.05-2.19-4.3-3.27-11.2-9.1a1.026 1.016-50.582 0 0-1.46.15l-20.73 26.18a.364.363 38.539 0 0 .06.52q1.42 1.12 6.64 5.65c5.11 4.42 10.3 9.88 14.13 13.3 5.92 5.29 13.37 13.73 16.66 17.13 7.61 7.88 17.36 20.56 22.42 26.65q2 2.4 5.42 7.45a.311.308 55.085 0 0 .44.08l27.39-20.14a.944.942-36.929 0 0 .19-1.33l-9.98-13.1a.572.564 52.434 0 0-.8-.11l-8.5 6.47a.547.542 50.821 0 1-.75-.08l-11.41-13.36a.405.404 49.161 0 1 .04-.56l13.5-12.06a.39.383 47.67 0 1 .54.03q29.47 32.82 51.34 71.76a.548.535 59.519 0 1-.18.73l-14.77 9.17a.75.75 8.384 0 1-1.03-.25l-8.99-14.47a.881.88 57.347 0 1 .26-1.19l8.56-5.71a.317.315-33.157 0 0 .09-.42l-8.75-14.08a.439.436-33.001 0 0-.62-.13l-28.28 18.89a.691.685 56.423 0 0-.19.96q26.86 40.08 44.26 84.13a.691.687-21.421 0 0 .9.39l31.18-12.46a.67.67-88.198 0 0 .37-.87l-6.09-15.24a.513.507 68.101 0 0-.67-.29l-10.07 4.24a.843.83 66.981 0 1-1.09-.45l-6.63-15.78a.426.423-24.939 0 1 .2-.54l15.05-7.86a1.697 1.697-29.106 0 1 2.25.64q.52.88 1.66 3.59c5.21 12.31 9.75 21.76 13.54 32.26q8.52 23.62 14.71 46.44a.925.922-14.254 0 1-.68 1.14l-17.28 4.02a.489.481 75.337 0 1-.57-.34l-4.88-16.51a.65.646-15.59 0 1 .46-.81l9.87-2.68a1.185 1.183 73.081 0 0 .81-1.52l-5.39-15.99a.478.474-18.623 0 0-.61-.3l-32.19 10.84a.636.636 77.465 0 0-.39.81q.83 2.42 5.29 16.94 2.5 8.13 4.51 17.17 4.38 19.71 4.79 21.79 3.02 15.59 5.38 38.92a.541.531 84.661 0 0 .58.49l34.1-2.99a.662.654-5.915 0 0 .6-.73l-1.95-17.12a.453.452 84.16 0 0-.49-.4l-11.14.98a.646.643 83.914 0 1-.69-.56l-2.37-17.42a.678.673 80.616 0 1 .54-.76l17.65-3.37a.92.92 81.165 0 1 1.08.79q1.53 11.44 3.31 27.79 3.34 30.81 2.48 62.8a.58.58-56.318 0 1-.6.56l-18.2-.63a.26.26 1.146 0 1-.25-.26v-18.29a.32.32-44.993 0 1 .32-.32h11.38a.651.65 89.145 0 0 .65-.67l-.7-17.56a.571.57 87.444 0 0-.59-.54l-34.47 1.37a.621.62-2.347 0 0-.59.64q.4 16.58.42 19.9.17 30.24-4.1 59.99-.78 5.42-2.61 16.38a.542.538 11.098 0 0 .42.62l33.06 7.04a1.358 1.355 9.026 0 0 1.63-1.18l1.77-16.55a.313.313 25.848 0 0-.27-.35l-10.39-1.11a.473.473 25.552 0 1-.42-.52l1.86-17.35a.624.623-83.917 0 1 .68-.55l17.93 1.93a.483.483-51.893 0 1 .43.53q-1.64 16.28-3.74 29.04c-1.43 8.62-4.06 19.32-5.58 26.63-2.05 9.79-6.75 22.43-8.72 30.67a.503.496-73.927 0 1-.64.36l-17.2-5.65a.693.687 17.358 0 1-.45-.85l4.84-16.45a.53.522-75.391 0 1 .62-.37l11 2.34a.442.438-77.612 0 0 .51-.33l3.86-16.03a.65.64-76.505 0 0-.47-.78l-32.76-7.9a.73.728-76.736 0 0-.87.54q-11.06 47.16-33.29 90a.407.407 65.133 0 0 .17.55l30.56 15.58a.631.622 26.77 0 0 .84-.27l7.44-14.59a.774.774-54.057 0 0-.34-1.04l-9.32-4.75a.709.706 24.996 0 1-.33-.9l6.43-15.48a.722.719-68.123 0 1 .93-.4l9.65 3.74a.427.296 55.278 0 0 .08.03l6.8 3.06a.502.498 26.077 0 1 .24.69c-2.69 5.31-6.11 14.57-9.39 21.37q-13.85 28.59-32.22 56.12a.695.694 34.671 0 1-.99.18l-14.12-10.36a.273.27 34.346 0 1-.07-.36l8.82-14.12a.606.602 31.128 0 1 .82-.2l9.2 5.31a.373.36 30.229 0 0 .49-.12l8.32-13.3a1.518 1.515-59.161 0 0-.53-2.11l-28.88-16.67a.641.628 29.58 0 0-.87.23q-23.7 41.79-56.59 77.85a.354.354 77.1 0 0 .02.5l25.33 22.98a.61.61 51.416 0 0 .86-.04l11.7-12.89a.581.574 41.876 0 0-.05-.82l-7.79-6.83a.845.841 39.718 0 1-.11-1.16l10.45-13.2a.4.398 37.611 0 1 .55-.07l14.23 10.45a.934.93-53.309 0 1 .19 1.32q-27.85 35.81-62.07 65.55a.425.419 48.42 0 1-.59-.04l-12.18-13.64a.51.51 8.253 0 1 .04-.72l12.71-11.36a.648.641 45.333 0 1 .86.01l7.98 7.23a.517.51-46.228 0 0 .71-.02l12.13-12.13a.331.33-38.346 0 0 .05-.42q-.91-1.36-2.35-2.81c-9.24-9.31-16.05-16.29-21.53-21.29a1.042 1.04 43.374 0 0-1.44.04q-14.78 15.01-31.27 29.19-7.57 6.51-20.93 16.07-11.85 8.48-23.5 16.13a.535.53-32.935 0 0-.16.73l17.15 27.64a1.27 1.27 51.618 0 0 1.75.41l14.99-9.31a.35.347-32.588 0 0 .11-.49l-5.66-9.13a1.12 1.12 57.265 0 1 .33-1.52l13.94-9.31a.519.516-34.477 0 1 .71.13l10.03 13.89a.866.851-41.311 0 1-.08 1.09q-.05.06-2.94 2.15-10.02 7.29-22.42 15.31-19.11 12.36-32.37 18.92-8.92 4.41-15.92 8.41a.73.73-27.051 0 1-1.02-.33l-7.16-15.52a.98.98 63.984 0 1 .44-1.28l13.8-7.21a.577.577-26.779 0 1 .79.26l4.79 9.69a.476.471-27.847 0 0 .66.2l13.83-7.98a.661.659 59.107 0 0 .23-.92l-17.5-28.2a.641.639-30.39 0 0-.85-.22q-23.84 13.49-49.01 23.84c-10.29 4.23-22.11 8-31.31 11.55q-1.62.62-4.55 1.29a.567.557 75.484 0 0-.41.71l9.34 31.65a.962.952-16.44 0 0 1.19.64l16.55-4.88a.585.585-69.971 0 0 .39-.73l-3.12-10.58a.504.5 71.759 0 1 .31-.62l16.15-5.88a.697.69 69.141 0 1 .88.4l6.21 15.55a1.384 1.384-20.35 0 1-.84 1.83c-12.55 4.24-23.15 8.21-34.06 11.3q-22.44 6.35-26.24 7.12-17.18 3.46-24.11 4.92a.42.417-10.545 0 1-.5-.34l-2.98-17.47a.406.394-11.032 0 1 .32-.46l16.73-3.19a.42.418 78.001 0 1 .49.32l2.4 10.34a.606.606-73.034 0 0 .73.45l16.4-3.81a.592.587 75.732 0 0 .43-.73l-8.82-32.53a.383.383-45 0 0-.47-.27q-9.06 2.39-26.66 5.91c-22.68 4.54-44.16 6.42-67.36 7.1a.82.82-1.061 0 0-.8.83l.42 33.63a.47.46 88.198 0 0 .48.46l17.19-.69a.611.61 87.691 0 0 .59-.64l-.44-11.05a.332.331-3.695 0 1 .3-.34l17.15-1.5a.506.502 83.319 0 1 .54.43l2.37 17.43a.748.735 84.094 0 1-.67.84q-35.39 2.87-58.54 1.68-14.31-.73-30.05-1.86a.601.594 5.566 0 1-.55-.66l1.85-17.22a.603.602-84.674 0 1 .65-.54l17.24 1.51a.431.422-87.189 0 1 .39.44l-.38 10.8a.64.64-76.597 0 0 .62.66l16.7.58a.801.791 1.048 0 0 .83-.79V914.4a.85.84.699 0 0-.83-.84q-29.65-.72-53.99-5.02-17.5-3.09-35.89-7.53-2.26-.55-3.45-1.16a.782.779 21.09 0 0-1.11.49l-8.67 32.72a.789.78-76.632 0 0 .59.97l16.38 3.48a.704.694-77.649 0 0 .83-.54l2.1-9.86a.44.436-78.953 0 1 .5-.34l16.95 2.93a.52.52 45.452 0 1 .42.6l-2.99 17.35a.56.56 72.619 0 1-.65.45q-42.59-7.95-84.17-23.83a.977.976-68.145 0 1-.55-1.29l6.62-15.96a.238.228 20.401 0 1 .3-.13l16.73 6.12a.526.522-71.388 0 1 .32.65l-3.3 10.02a1.042 1.041 17.083 0 0 .7 1.32l15.1 4.45a.959.956-73.764 0 0 1.18-.65l9.27-31.52a.72.72-71.828 0 0-.45-.89c-15.63-5.48-33.34-11.6-47.38-18.21-12.43-5.86-25.63-11.86-37.06-19.1a.98.98 31.154 0 0-1.38.34l-16.33 28.28a.883.878-59.975 0 0 .32 1.21l12.92 7.46a1.368 1.362 28.439 0 0 1.9-.56l3.95-7.75a1.695 1.695-27.991 0 1 2.28-.74l13.46 6.87a.85.846 25.783 0 1 .39 1.11l-7.22 15.49a.891.886-64.715 0 1-1.19.43q-17.58-8.62-34.05-18.29-20.45-12.02-39.81-26.45a1.044 1.044-18.625 0 1-.22-1.46l10.06-13.7a.922.916 36.005 0 1 1.29-.2l13.59 9.97a.895.894 35.266 0 1 .21 1.22l-5.85 8.69a.472.469 33.195 0 0 .14.66l15.13 9.45a.607.602 32.007 0 0 .84-.19l17.68-28.28a.578.575 31.128 0 0-.2-.8q-4.61-2.73-17.72-11.9-24.05-16.82-43.95-35.57-11.97-11.28-14.88-14.31a.263.256 45.754 0 0-.38-.01l-24.08 24.08a.559.552 45.358 0 0 0 .79l12.31 12.31a.453.453 37.468 0 0 .64 0l7.55-7.55a.638.637 43.667 0 1 .88-.02l13.04 11.84a.56.559 42.172 0 1 .04.8l-11.92 13.14a.453.446 41.897 0 1-.64.03q-4.43-4.06-11.03-9.77-3.1-2.68-10.61-10.14c-14.26-14.17-27.66-29.22-39.94-44.9a1.22 1.218-37.752 0 1 .22-1.72l13.53-10.31a.543.533-37.524 0 1 .74.09l10.64 13.12a1.06 1.06 50.441 0 1-.14 1.48l-7.9 6.75a.355.354-41.697 0 0-.03.51l11.93 13.36a.135.135-69.779 0 0 .19.01l25.27-22.58a1.056 1.048-42.541 0 0 .07-1.5q-12.12-13.1-21.47-25.36-19.35-25.37-34.18-51.75a.995.99-29.639 0 0-1.36-.37l-28.94 16.71a1.147 1.143 59.117 0 0-.4 1.6l8.35 13.46a.413.413 86.252 0 0 .57.13l8.81-5.46a.885.885-84.352 0 1 1.22.28l9.06 14.59a.342.339 57.535 0 1-.1.46l-14.43 9.63a.885.877-34.052 0 1-1.22-.23q-7.29-10.79-17.13-27.76-14.01-24.18-23.9-49.26a1.001.992 68.735 0 1 .56-1.29l16.36-6.54a.327.318-22.131 0 1 .42.17l6.88 16.38a.76.76-82.341 0 1-.4 1l-9.48 3.98a.705.703-24.506 0 0-.36.96l7.46 15.11a.326.326 65.081 0 0 .44.14l30.51-15.07a.926.926 63.03 0 0 .41-1.26q-5.17-9.82-11.5-23.9-3.46-7.7-5.49-13.54c-2.29-6.56-4.87-12.47-6.6-18.41q-1.84-6.29-4.56-14.44c-1.97-5.9-3.64-13.39-4.87-18.84a1.136 1.128 77.119 0 0-1.36-.86l-32.44 7.55a.45.45 68.417 0 0-.34.54l3.79 16.29a.565.565 3.89 0 0 .68.42l10.33-2.4a1.249 1.243 75.315 0 1 1.48.87l4.72 15.97a.501.497 72.902 0 1-.32.61l-16.86 5.68a.478.474-18.623 0 1-.61-.3q-9.08-26.88-14.46-56.07-2.89-15.69-4.06-29.98a.584.582-5.104 0 1 .52-.62l17.6-2.01a.474.465-6.886 0 1 .52.4l2.38 17.46a.445.436 82.148 0 1-.37.5l-10.92 1.48a.487.485 81.297 0 0-.41.56l2.83 16.57a.597.591 79.7 0 0 .7.49l33.32-6.36a.347.345-11.145 0 0 .27-.4q-8.65-47.64-6.4-96.76a.76.76-87.397 0 0-.73-.8l-34.43-1.2a.4.4.699 0 0-.41.4v17.61a.43.42-89.318 0 0 .41.43l10.92.39a.41.41 45.141 0 1 .4.4l.71 17.77a.451.45 88.132 0 1-.44.47l-18.47.74a.731.73-1.528 0 1-.76-.72q-.22-28.29.32-36.36 1.84-27.2 6.11-53.86a.589.587 9.148 0 1 .68-.49l17.29 2.99a.616.611-81.949 0 1 .5.67l-1.85 17.25a.744.732-84.402 0 1-.79.66l-11.17-.98a.543.542-84.075 0 0-.59.48l-1.82 17.02a.532.522 6.519 0 0 .47.58l33.78 3.62a.701.695-85.34 0 0 .77-.66q.3-5.12 2.71-22.5 5.08-36.64 17.17-71.84a.811.806 23.976 0 0-.38-.98q-3.12-1.69-4.8-2.2-15.62-4.81-27.34-9.18a.408.402-71.137 0 0-.52.26l-5.37 16.33a.645.642-71.703 0 0 .41.82l10.43 3.43a.637.633-72.9 0 1 .41.78l-4.74 16.1a.639.636-75.601 0 1-.74.44l-16.95-3.61a.92.917 13.084 0 1-.7-1.12q9.35-38.01 25.76-74.08 2.61-5.73 4.21-8.63a.747.738-62.016 0 1 .99-.31l15.58 7.94a.437.431-65.395 0 1 .2.55l-6.44 15.52a.708.704 22.621 0 1-.93.38l-10.02-4.16a.79.79 55.685 0 0-1.03.43l-6.23 15.02a.247.247 27.392 0 0 .14.32l31.89 13.24a.529.526 21.307 0 0 .69-.3q11.24-29.19 27.06-56.89c6.69-11.73 10.77-19.36 17.19-27.67a.506.498-54.95 0 0-.12-.72l-27.88-18.78a.559.555-54.521 0 0-.76.13l-9.4 12.81a1.086 1.072-55.022 0 0 .26 1.53l9.04 6.09a.312.31 31.484 0 1 .1.41l-8.68 15.03a.492.484-59.537 0 1-.67.18l-15.52-8.96a.726.722 30.563 0 1-.26-1c2.74-4.57 4.86-8.73 7.64-13.03q15.14-23.42 22.74-33.56 9.98-13.32 20.03-24.62a.758.751 40.932 0 1 1.06-.07l13.19 11.57a.328.327-51.486 0 1 .05.45l-10.64 13.43a.481.477 36.862 0 1-.65.09l-9.08-6.67a.436.428 35.925 0 0-.6.09l-9.79 13.35a.92.92-52.41 0 0 .19 1.29l27.24 19.98a.2.2 69.055 0 0 .28-.04q6.52-9.01 15.8-20 16.85-19.94 35.79-37.71 8.11-7.61 13.03-12.32a.575.561-42.758 0 0 .04-.78l-21.82-25.57a.597.589 49.401 0 0-.84-.07l-12.1 10.33a1.044 1.035-40.98 0 0-.11 1.48l6.77 7.57a.497.496 46.737 0 1-.02.68l-11.61 11.61a1.09 1.09 79.236 0 1-1.54 0l-12.29-12.29a.44.44-90 0 1 0-.62q16.08-15.97 32.93-29.99c6.97-5.81 13.6-10.42 23.46-17.79 3.73-2.78 7.54-4.58 10.96-7.36a.83.819 54.38 0 1 1.22.21l9.24 14.89a.716.704 57.122 0 1-.2.97l-13.3 8.88a.917.909-34.689 0 1-1.24-.22l-5.99-8.14a.628.622-36.329 0 0-.88-.13l-14.08 10.35a.581.577-37.622 0 0-.11.83l21.38 26.36a.538.533-40.272 0 0 .77.06q2.48-2.17 5.28-4.24 20.04-14.86 43.48-28.28c10.98-6.3 18.68-9.76 32.98-16.6a.935.935 64.699 0 0 .44-1.23l-14.32-31.04a.6.591 64.269 0 0-.81-.29l-14.94 7.38a.787.774 63.923 0 0-.35 1.05l4.7 9.51a.6.6-26.787 0 1-.26.79l-15.34 8.01a.738.734-27.598 0 1-1-.31l-7.93-15.19a1.252 1.248 62.824 0 1 .54-1.69c10.81-5.53 20.36-10.73 30.9-15.47q20.29-9.12 40.52-15.99 7.23-2.46 9.33-2.92a.514.514 75.224 0 1 .6.35l5.07 17.18a.715.709-17.654 0 1-.46.88l-15.73 5.31a.781.778 71.447 0 1-.98-.49l-3.42-10.16a.563.56-18.912 0 0-.72-.35l-16.11 5.87a.838.833 68.559 0 0-.48 1.11l13.19 31.38a.622.61-23.386 0 0 .83.32c1.91-.93 3.07-1.68 4.91-2.27 8.88-2.82 16.64-5.99 24.26-8.29q23.08-6.99 30.98-8.49 23.08-4.37 25.78-4.93 3.7-.76 6.46-.96a.501.495-5.97 0 0 .46-.56l-4.65-34.18a.848.842 81.133 0 0-.98-.72l-16.83 2.86a.377.375-10.237 0 0-.3.43l1.91 11.22a.42.416-11.599 0 1-.32.48l-16.48 3.83a.82.81 76.559 0 1-.98-.61l-4.06-17.45a.607.6 79.205 0 1 .49-.73q7.18-1.11 15.51-3.05c6.54-1.52 10.31-1.72 16.83-2.83q2.86-.49 6.77-.96 15.4-1.83 22.54-2.64c9.42-1.07 17.88-1.34 26.06-2a.362.351-3.075 0 1 .39.34l.73 18.35a.691.69 87.954 0 1-.67.72l-17.48.7a.292.291 85.758 0 1-.3-.26l-.99-11.31a.664.663-5.542 0 0-.73-.6l-16.87 1.93a.453.453-45 0 0-.4.5l3.86 33.87a.443.434-6.036 0 0 .48.38q47.58-5.18 96.35-.12a.563.563 12.574 0 0 .62-.5l3.68-34.34a.303.293-84.195 0 0-.26-.33l-17.03-1.82a.533.532 5.816 0 0-.59.48l-.98 11.14a.662.661-86.423 0 1-.69.61l-16.96-.59a.681.68-87.925 0 1-.66-.71l.63-18.06a.38.38 41.753 0 1 .39-.37c16.71.59 33.02 2.34 53.87 4.86q6.61.8 16.82 2.87 8.41 1.71 16.7 3.34a.916.91 11.729 0 1 .72 1.09l-3.67 17.25a.59.59 68.199 0 1-.7.46l-17.05-3.63a.46.456 10.545 0 1-.36-.52l1.71-11.46a.446.446 82.41 0 0-.37-.51l-16.82-2.51a.67.67 22.357 0 0-.76.56l-5.03 33.63a.739.735-82.872 0 0 .65.84q2.58.28 26.53 4.93 11.55 2.24 19.77 4.55 15.77 4.43 19.48 5.7 1.42.49 26.75 9.46a.481.475 20.767 0 0 .61-.27l12.9-31.08a1.131 1.128-68.822 0 0-.66-1.5l-15.37-5.5a.396.395 22.083 0 0-.5.21l-4.16 10.03a.877.875-69.772 0 1-1.08.5l-15.7-5.16a.516.51 17.707 0 1-.33-.63l5.19-17.63a.551.541-73.052 0 1 .68-.37q19.7 6.02 40.64 14.64 7.91 3.25 14.62 6.67c8.91 4.54 17.19 8.17 26.36 13.25a.501.492 29.884 0 1 .19.68l-9.4 16.28a.264.259-60.386 0 1-.35.1l-14.48-7.38a1.194 1.19-63.008 0 1-.52-1.61l4.59-9a.863.859-62.983 0 0-.37-1.15q-6.95-3.59-12.52-6.27-1.08-.52-1.66-1.03-.94-.81-1.61-.33-.47.33-1.03 1.37-1.63 3.04-1.93 3.72-4.81 11.1-9.79 21.9-1.12 2.41-1.96 5.05a.625.617-69.773 0 0 .34.75q3.77 1.6 11.65 5.21c10.04 4.59 18.71 9.74 27.91 14.86 10.64 5.92 22.34 14.16 31.76 20.82q3.68 2.6 10.83 8.38a.583.576 38.433 0 0 .82-.09M512.346 894.892c28.571-.034 57.549-3.638 85.662-10.019q2.762-.623 9.782-2.563c9.22-2.53 15.18-3.98 24.3-7.05q63.36-21.35 114.96-60.92 56.86-43.59 95.05-104.66c30.69-49.08 49.38-103.27 55.5-160.65q1.79-16.74 2.07-29.27 1.69-76.13-24.08-144.69c-23.01-61.23-61.01-114.66-110.56-157.33q-1.75-1.51-12.57-10.3c-8.29-6.75-13.29-9.86-21.97-16.09q-4.61-3.32-9.35-6.19-15.83-9.6-19.92-11.86-45.87-25.26-96.509-36.936-45.853-10.569-93.282-10.513-47.43.057-93.258 10.735-50.61 11.797-96.42 37.167-4.085 2.269-19.892 11.907-4.733 2.881-9.335 6.212c-8.665 6.251-13.658 9.373-21.931 16.143q-10.799 8.816-12.546 10.33c-49.448 42.788-87.32 96.308-110.184 157.593q-25.607 68.621-23.735 144.747.31 12.529 2.14 29.265c6.257 57.365 25.076 111.511 55.883 160.517q38.336 60.979 95.299 104.433 51.695 39.447 115.105 60.646c9.128 3.048 15.091 4.484 24.317 6.992q7.025 1.923 9.788 2.539c28.129 6.314 57.115 9.849 85.686 9.815"></path><path fill="#073b9a" fill-rule="evenodd" d="M511.429 125.851q47.429-.056 93.282 10.513Q655.35 148.04 701.22 173.3q4.09 2.26 19.92 11.86 4.74 2.87 9.35 6.19c8.68 6.23 13.68 9.34 21.97 16.09q10.82 8.79 12.57 10.3c49.55 42.67 87.55 96.1 110.56 157.33q25.77 68.56 24.08 144.69-.28 12.53-2.07 29.27c-6.12 57.38-24.81 111.57-55.5 160.65q-38.19 61.07-95.05 104.66-51.6 39.57-114.96 60.92c-9.12 3.07-15.08 4.52-24.3 7.05q-7.02 1.94-9.782 2.563c-28.113 6.381-57.091 9.985-85.662 10.019s-57.557-3.501-85.686-9.815q-2.763-.616-9.788-2.539c-9.226-2.508-15.189-3.944-24.317-6.992q-63.41-21.199-115.105-60.646-56.963-43.454-95.299-104.433c-30.807-49.006-49.626-103.152-55.883-160.517q-1.83-16.736-2.14-29.265-1.872-76.126 23.735-144.747c22.864-61.285 60.736-114.805 110.184-157.593q1.747-1.514 12.546-10.33c8.273-6.77 13.266-9.892 21.931-16.143q4.602-3.331 9.335-6.212 15.807-9.638 19.892-11.907 45.81-25.37 96.42-37.167 45.828-10.678 93.258-10.735m1.741 33.425a.47.47 15.646 0 0-.486.454l-2.708 77.46a.47.47 56.164 0 0 .454.486l33.2 1.158a.47.47-72.471 0 0 .486-.454l.468-13.53a.47.47 58.628 0 0-.454-.486l-16.51-.578a.47.47-17.905 0 1-.454-.486l2.198-62.99a.47.47 77.177 0 0-.454-.486zm-14.821 20.436a20.24 20.24 0 0 0-22.214-18.052l-3.481.359a20.24 20.24 0 0 0-18.052 22.214l3.969 38.415a20.24 20.24 0 0 0 22.214 18.052l3.481-.359a20.24 20.24 0 0 0 18.052-22.214zM622.4 208.74q1.01-4.82 2.42-9.62 2.01-6.87 1.71-9.66-.77-6.92-5.35-11.15c-9.63-8.87-26.08-10.66-34.86.36q-2.36 2.96-4.86 12.29-2.24 8.37-6.52 22.73c-2.64 8.87-5.75 18.72-.56 25.53 7.01 9.17 18.88 13.67 29.42 9.02 11.32-5 10.99-14.8 14.62-25.17a.731.728 17.83 0 0-.48-.93l-15.1-4.44a.732.73 14.485 0 0-.92.54q-1.28 5.58-3.34 12.06c-.64 2-2.03 4.26-3.8 4.81-4.2 1.29-7.06-2.88-6.03-6.62q7.15-26 11.29-39.19c2.16-6.89 11-5.13 9.16 2.93q-.41 1.8-2.97 11.67a.6.595-74.88 0 0 .41.72l15.18 4.47a.46.46-76.103 0 0 .58-.35m-184.463-3.619q.019-.047 1.605-1.994 2.605-3.207 1.793-6.941-.78-3.583-3.265-12.784-2.215-8.179-9.677-10.468c-2.716-.83-8.264-.828-10.876-.149q-10.624 2.73-25.267 7.215a.819.813 73.952 0 0-.547.998l20.633 74.422a.62.62 76.357 0 0 .765.431q13.981-3.837 24.694-7.14c9.085-2.799 16.055-8.867 13.343-19.228q-1.46-5.577-3.701-13.463c-1.552-5.434-4.235-8.766-9.18-10.154a.52.519-68.293 0 1-.32-.745m177.642 51.368a.78.78 22.058 0 0 .422 1.02l30.489 12.642a.78.78 24.149 0 0 1.019-.421l4.882-11.76a.78.78 72.528 0 0-.421-1.019l-14.82-6.152a.78.78-56.256 0 1-.421-1.019l24.272-58.51a.78.78 6.754 0 0-.421-1.019l-14.23-5.902a.78.78 18.188 0 0-1.019.421zm-232.925-57.934a.68.68 76.22 0 0 .342-.881l-5.013-11.935a.68.68 57.78 0 0-.912-.354l-33.363 15.38a.68.68-14.584 0 0-.333.903l5.33 11.546a.68.68 60.825 0 0 .881.341l8.638-3.63a.68.68-74.078 0 1 .881.342l26.39 57.216a.68.68-87.595 0 0 .902.333l14.195-6.541a.68.68-64.372 0 0 .333-.903l-26.43-57.305a.68.68 13.042 0 1 .332-.902zM729.16 228.6l-13.33-8.33a.463.463-56.659 0 0-.64.14q-13.42 21.15-31.48 50.02c-1.98 3.17-6.48 4.68-9 1.44-1.86-2.37-.92-5.22.71-7.82 9.56-15.23 13.88-22.46 21.63-34.2 3.36-5.08 6.18-10.53 9.77-15.28a.493.488-55.7 0 0-.13-.71l-13.42-8.39a.487.481 33.33 0 0-.65.13q-4.38 6.12-7.7 11.55-1.69 2.79-21.81 34.62-3.95 6.25-4.73 9.11-1.37 5.04.19 10.38c5.42 18.56 29.5 24.6 40.43 6.52q2.29-3.78 30.33-48.45a.53.53 76.618 0 0-.17-.73m-382.442 47.938c-5.206 3.426-8.99-4.109-12.18-8.892Q322.54 249.65 306.88 225.14a.674.671 56.89 0 0-.94-.2l-13.33 8.9a.269.255-34.004 0 0-.08.36q19.19 29.69 27.6 41.93c3.2 4.65 5.47 8.9 8.564 11.463 7.424 6.154 17.469 5.824 25.607.469s12.415-14.449 9.702-23.702c-1.13-3.856-4.135-7.622-7.139-12.401q-7.913-12.567-27.586-41.939a.269.255-32.686 0 0-.363-.069l-13.448 8.72a.674.671 56.42 0 0-.188.943q16.313 24.08 28.092 42.22c3.13 4.822 8.553 11.278 3.347 14.704M748.7 292.86q.05-.01 2.56.25 4.13.42 6.82-2.32 2.58-2.63 8.94-9.79 5.65-6.37 3.46-13.9c-.8-2.74-3.86-7.4-5.87-9.22q-8.15-7.42-19.99-17.25a.823.817-49.318 0 0-1.14.09l-51.15 58.36a.624.624-19.884 0 0 .06.88q10.93 9.63 19.61 16.81c7.36 6.09 16.3 8.6 23.51.61q3.88-4.3 9.27-10.53c3.71-4.3 5.03-8.39 3.47-13.31a.523.522-11.563 0 1 .45-.68m-495.922-25.357a.4.4-31.536 0 0-.031.565l52.536 58.794a.4.4 75.853 0 0 .565.031l12.224-10.926a.4.4-46.893 0 0 .031-.565l-23.38-26.157a.4.4 22.283 0 1 .038-.571l13.358-11.398a.4.4-34.431 0 0 .039-.571l-8.391-9.397a.4.4-46.607 0 0-.565-.031l-13.124 11.726a.4.4-.974 0 1-.565-.031l-10.856-12.154a.4.4 80.588 0 1 .031-.564l13.513-12.067a.4.4 59.047 0 0 .032-.565l-8.577-9.594a.4.4 48.171 0 0-.564-.032zm290.761 72.879a.81.81 55.28 0 1 .381.687v75.851a.81.81 7.738 0 0 .81.81h40.54a.81.81 1.723 0 0 .81-.81v-99.291a.81.81-1.17 0 0-.381-.687l-73.481-45.925a.81.81 60.043 0 0-.857-.001l-75.898 47.116a.81.81-26.922 0 0-.383.689v389.39a.81.81 27.645 0 0 .381.687l75.201 46.995a.81.81-33.783 0 0 .857.001l74.188-46.046a.81.81-3.266 0 0 .383-.689V605.77a.81.81-8.147 0 0-.81-.81h-41.06a.81.81-2.456 0 0-.81.81v80.6a.81.81 60.826 0 1-.383.688l-30.578 18.986a.81.81 81.158 0 1-.857-.001l-32.721-20.445a.81.81-86.271 0 1-.381-.687v-341.7a.81.81 18.699 0 1 .383-.689l33.738-20.936a.81.81-11.356 0 1 .857.001zM697.71 586.061a.4.4 16.057 0 1-.185.337l-40.29 25.719a.4.4 15.726 0 1-.615-.337V412.912a.4.4-44.7 0 1 .612-.339l40.32 25.21a.4.4-37.456 0 1 .188.339v52.938a.4.4-10.392 0 0 .4.4h42.37a.4.4-78.76 0 0 .4-.4v-77.098a.4.4-55.435 0 0-.188-.34l-123.87-77.419a.4.4-79.219 0 0-.612.339V688.26a.4.4 83.979 0 0 .615.337l123.91-79.099a.4.4 64.83 0 0 .185-.337V534.56a.4.4 11.254 0 0-.4-.4h-42.44a.4.4-2.46 0 0-.4.4zM325.96 439.484a.42.42 26.259 0 1 .198-.357l39.88-24.759a.42.42-65.481 0 1 .642.357v51.495a.42.42 87.564 0 0 .42.42h40.27a.42.42 87.54 0 0 .42-.42V337.365a.42.42-47.909 0 0-.642-.357l-122.14 75.819a.42.42 70.603 0 0-.198.357v199.023a.42.42-57.761 0 0 .197.356l40.3 25.195a.42.42 10.314 0 0 .643-.356V536.71a.42.42-60.187 0 1 .42-.42h80.96a.42.42 45.01 0 0 .42-.42V493.4a.42.42-45 0 0-.42-.42h-80.95a.42.42-54.47 0 1-.42-.42zm427.066 323.777a.65.65 34.109 0 0 .863-.05l11.425-11.425a.65.65 31.702 0 0-.056-.969l-58.744-46.547a.65.65 35.824 0 0-.863.049l-16.999 16.999a.65.65-59.78 0 0-.058.854l45.275 59.446a.65.65-39.595 0 0 .977.066l11.58-11.58a.65.65 57.757 0 0 .045-.869l-6.272-7.74a.65.65-9.493 0 1 .045-.869l3.767-3.767a.65.65 76.506 0 1 .863-.05zM308.2 759.2l-10.96-8.69a.994.991-50.73 0 0-1.37.14l-8.46 9.91a4.513 4.508-49.161 0 1-6.41.47l-.21-.19a4.487 4.481-49.823 0 1-.52-6.21l25.38-31.15a4.149 4.139-53.354 0 1 5.54-.82l.33.22a4.409 4.405-54.905 0 1 1.09 6.26l-7.34 10a.769.767 37.499 0 0 .14 1.05l11.48 9.08a.534.526 36.484 0 0 .77-.11l2.08-2.97a2.512 1.404-51.666 0 1 .23-.27q5.19-5.53 7.07-8.85c2.9-5.14 2.4-11.72-.48-17.2-4.52-8.62-13.77-14.11-23.35-12.42q-6.64 1.17-10.66 6.12-20.4 25.15-23.08 28.42-4 4.88-4.81 7.42c-3.79 11.92 6.47 24.99 18.3 26.93q11.23 1.83 17.82-6.5 5.4-6.84 7.55-9.68a.699.694 37.468 0 0-.13-.96m19.835 39.136q.162.099 2.148 1.206a.623.615-63.017 0 1 .257.808l-4.41 9.47a.281.277-61.322 0 0 .1.35l13.61 8.51a.517.511 28.122 0 0 .74-.22l31.43-67.49a1.092 1.084 28.166 0 0-.425-1.388q-4.828-2.938-9.919-6.053-5.09-3.114-9.904-6.075a1.092 1.084 34.752 0 0-1.43.253l-45.78 58.71a.517.511 34.795 0 0 .141.76l13.773 8.243a.281.277-55.76 0 0 .357-.07l6.424-8.238a.623.615-54.066 0 1 .837-.139q1.889 1.264 2.051 1.363M686.98 779.6q4.66 6.87 6.44 9.7c1.77 2.81 1.63 6.86-1.97 7.99q-2.46.77-4.2-1.06-3.1-3.24-6.68-8.79Q672.52 775 665.79 765c-2.22-3.3-4.04-8.3.82-9.93 2.33-.78 3.67.13 5.23 1.85q3.85 4.25 6.87 9.38a.791.782-32.088 0 0 1.12.25l12.33-8.23a.502.497 55.838 0 0 .13-.7c-2.85-4.12-6.51-10.79-9.82-13.38-7.95-6.2-16.09-4.9-24.4.04-10.37 6.16-13.14 17.97-6.58 28.45q4.59 7.35 16.32 24.9c4.94 7.39 7.19 11.73 14.2 13.87 6.64 2.02 13.47-.27 19.09-4.21q6.4-4.47 8.54-12.22 2.09-7.54-2.38-14.31-3.06-4.63-7.18-10.76a.28.275-32.864 0 0-.39-.08l-12.44 8.3a1.001.996-34.092 0 0-.27 1.38m-39.08 55.3 14.33-6.02a.784.778-27.537 0 0 .36-1.13l-18.51-29.82a1.773 1.764 44.846 0 1-.01-1.86q2.71-4.39.98-9.36-1.71-4.91-4.95-11.92-2.44-5.3-4.42-7.03c-4.32-3.77-11.05-4.09-16.13-2.16q-10.81 4.1-23.79 10.12a.784.781-24.004 0 0-.39 1.01l28.4 67.59a.641.637 67.099 0 0 .83.34l14.02-5.9a.63.63-11.2 0 0 .34-.82l-12.27-29.2a.409.403-23.193 0 1 .22-.54l3.39-1.43a.726.721 63.623 0 1 .91.31l15.91 27.56a.629.624 63.181 0 0 .78.26m-263.46-32.77-14.01-5.81a.448.444 22.622 0 0-.59.24q-4.4 10.64-5.47 13.32-6.46 16.17 7.79 25.24 8.57 5.45 16.85 3.52 9.55-2.21 12.87-10.16 21.01-50.28 22.07-53.28a.663.654-68.807 0 0-.36-.83l-13.77-5.71a.63.63-18.015 0 0-.82.34q-12.33 29.51-17.97 43.54-2.88 7.16-4.05 9.43c-2.52 4.92-9.47 3.32-8.86-2.16q.13-1.19.97-3.46 1.94-5.21 5.64-13.48a.559.556-66.601 0 0-.29-.74m184.466-20.515q-5.666 1.232-11.465 2.306a.725.724 82.225 0 0-.591.779l6.45 73.57a.79.79-9.154 0 0 .97.7l15.53-3.61a.617.607-10.829 0 0 .47-.68l-1.4-10.29a.61.61 79.267 0 1 .458-.672q1.451-.363 2.942-.687 1.49-.324 2.961-.598a.61.61 76.182 0 1 .696.421l3.002 9.942a.617.607-13.722 0 0 .71.423l15.626-3.169a.79.79-15.396 0 0 .591-1.04l-24.701-69.598a.725.724 73.224 0 0-.861-.464q-5.721 1.434-11.388 2.667M456.67 858.81l6.46-73.84a.803.799 8.601 0 0-.63-.85l-22.82-4.86a.956.955-75.322 0 0-1.11.65q-1.24 3.77-2.93 8.39-6.35 17.26-18.6 54.48-1.41 4.27-2.14 7.29a.701.697-77.123 0 0 .53.85l15.07 3.2a.892.891 13.627 0 0 1.05-.64l2.64-9.95a.9.9 13.469 0 1 1.06-.65l5.01 1.07a.973.969-81.544 0 1 .76 1.03l-.92 10.49a.297.292 7.692 0 0 .24.31l15.85 3.38a.402.395 8.43 0 0 .48-.35m53.37-36.1q-3.97-15.12-7.23-34.07a.854.842-4.797 0 0-.84-.7l-24.07.31a.65.64 90 0 0-.64.65v73.16a.8.79 89.646 0 0 .8.8l15.16-.19a.66.66-15.737 0 0 .65-.67l-.57-45.42a.37.367-50.989 0 1 .73-.08l8.7 45.54a.722.71-5.671 0 0 .72.58l14.4-.18a.447.443-86.317 0 0 .44-.39q3.13-24.43 7.79-46.14a.39.389-45.713 0 1 .76-.01q.36 1.56.38 2.86.17 13.74.29 42.64a.72.72 0 0 0 .72.72h14.96a.74.74 89.618 0 0 .74-.75l-.93-73.61a.36.36-.774 0 0-.37-.36l-24.07.3a.814.808 5.866 0 0-.78.63l-7.31 34.37a.221.22 43.551 0 1-.43.01"></path><path fill="#e8c24c" fill-rule="evenodd" d="m513.17 159.276 15.74.548a.47.47-61.429 0 1 .454.486l-2.198 62.99a.47.47-21.716 0 0 .454.486l16.51.578a.47.47 89.816 0 1 .454.486l-.468 13.53a.47.47-49.168 0 1-.486.454l-33.2-1.158a.47.47 72.693 0 1-.454-.486l2.708-77.46a.47.47 42.595 0 1 .486-.454M502.318 218.127a20.24 20.24 0 0 1-18.052 22.214l-3.481.359a20.24 20.24 0 0 1-22.214-18.052l-3.969-38.415a20.24 20.24 0 0 1 18.052-22.214l3.481-.359a20.24 20.24 0 0 1 22.214 18.052zm-21.171-37.906a4.97 4.97 0 0 0-5.493-4.385l-.219.024a4.97 4.97 0 0 0-4.385 5.493l4.543 40.506a4.97 4.97 0 0 0 5.493 4.385l.219-.024a4.97 4.97 0 0 0 4.385-5.493zM622.4 208.74a.46.46-76.103 0 1-.58.35l-15.18-4.47a.6.595-74.88 0 1-.41-.72q2.56-9.87 2.97-11.67c1.84-8.06-7-9.82-9.16-2.93q-4.14 13.19-11.29 39.19c-1.03 3.74 1.83 7.91 6.03 6.62 1.77-.55 3.16-2.81 3.8-4.81q2.06-6.48 3.34-12.06a.732.73 14.485 0 1 .92-.54l15.1 4.44a.731.728 17.83 0 1 .48.93c-3.63 10.37-3.3 20.17-14.62 25.17-10.54 4.65-22.41.15-29.42-9.02-5.19-6.81-2.08-16.66.56-25.53q4.28-14.36 6.52-22.73 2.5-9.33 4.86-12.29c8.78-11.02 25.23-9.23 34.86-.36q4.58 4.23 5.35 11.15.3 2.79-1.71 9.66-1.41 4.8-2.42 9.62M437.937 205.121a.52.519-68.293 0 0 .32.745c4.945 1.388 7.628 4.72 9.18 10.154q2.241 7.886 3.701 13.463c2.712 10.361-4.258 16.429-13.343 19.228q-10.713 3.303-24.694 7.14a.62.62 81.276 0 1-.765-.431l-20.633-74.422a.819.813 73.952 0 1 .547-.998q14.643-4.485 25.267-7.215c2.612-.679 8.16-.681 10.876.149q7.462 2.289 9.677 10.468 2.485 9.201 3.265 12.784.812 3.734-1.793 6.941-1.586 1.947-1.605 1.994m-26.262-15.665 4.326 14.989a.5.5 73.405 0 0 .619.341l3.766-1.087a5.68 5.16-16.1 0 0 4.027-6.533l-1.742-6.033a5.68 5.16-16.1 0 0-6.888-3.383l-3.766 1.087a.5.5.343 0 0-.342.619m8.209 28.956 5.473 18.717a.57.57 69.628 0 0 .707.387l3.647-1.067a5.61 5.39-16.3 0 0 3.872-6.748l-2.767-9.463a5.61 5.39-16.3 0 0-6.898-3.599l-3.647 1.066a.57.57 3.52 0 0-.387.707"></path><path fill="#073b9a" fill-rule="evenodd" d="M485.69 220.727a4.97 4.97 0 0 1-4.385 5.493l-.219.024a4.97 4.97 0 0 1-5.493-4.385l-4.543-40.506a4.97 4.97 0 0 1 4.385-5.493l.219-.024a4.97 4.97 0 0 1 5.493 4.385z"></path><path fill="#e8c24c" fill-rule="evenodd" d="m615.579 256.489 29.752-71.719a.78.78 54.749 0 1 1.019-.421l14.23 5.902a.78.78 41.917 0 1 .421 1.019l-24.272 58.51a.78.78 89.869 0 0 .421 1.019l14.82 6.152a.78.78-31.827 0 1 .421 1.019l-4.882 11.76a.78.78 59.279 0 1-1.019.421l-30.489-12.642a.78.78 61.898 0 1-.422-1.02M382.654 198.555l-7.827 3.61a.68.68-8.297 0 0-.332.902l26.43 57.305a.68.68-44.315 0 1-.333.903l-14.195 6.541a.68.68-72.145 0 1-.902-.333l-26.39-57.216a.68.68 35.397 0 0-.881-.342l-8.638 3.63a.68.68-86.156 0 1-.881-.341l-5.33-11.546a.68.68 11.355 0 1 .333-.903l33.363-15.38a.68.68-78.098 0 1 .912.354l5.013 11.935a.68.68-75.17 0 1-.342.881"></path><path fill="#073b9a" fill-rule="evenodd" d="M411.675 189.456a.5.5 5.25 0 1 .342-.619l3.766-1.087a5.68 5.16-16.1 0 1 6.888 3.383l1.742 6.033a5.68 5.16-16.1 0 1-4.027 6.533l-3.766 1.087a.5.5-68.145 0 1-.619-.341z"></path><path fill="#e8c24c" fill-rule="evenodd" d="M729.33 229.33Q701.29 274 699 277.78c-10.93 18.08-35.01 12.04-40.43-6.52q-1.56-5.34-.19-10.38.78-2.86 4.73-9.11 20.12-31.83 21.81-34.62 3.32-5.43 7.7-11.55a.487.481 33.33 0 1 .65-.13l13.42 8.39a.493.488-55.7 0 1 .13.71c-3.59 4.75-6.41 10.2-9.77 15.28-7.75 11.74-12.07 18.97-21.63 34.2-1.63 2.6-2.57 5.45-.71 7.82 2.52 3.24 7.02 1.73 9-1.44q18.06-28.87 31.48-50.02a.463.463-21.493 0 1 .64-.14l13.33 8.33a.53.53-13.102 0 1 .17.73M354.301 288.062c-8.138 5.355-18.183 5.685-25.607-.469-3.094-2.563-5.364-6.813-8.564-11.463q-8.41-12.24-27.6-41.93a.269.255-34.004 0 1 .08-.36l13.33-8.9a.674.671 56.89 0 1 .94.2q15.66 24.51 27.658 42.506c3.19 4.783 6.974 12.318 12.18 8.892s-.217-9.882-3.347-14.704q-11.779-18.14-28.092-42.22a.674.671 56.42 0 1 .188-.943l13.448-8.72a.269.255-32.686 0 1 .363.069q19.673 29.372 27.586 41.939c3.004 4.779 6.009 8.545 7.139 12.401 2.713 9.253-1.564 18.347-9.702 23.702"></path><path fill="#073b9a" fill-rule="evenodd" d="M419.884 218.412a.57.57 21.371 0 1 .387-.707l3.647-1.066a5.61 5.39-16.3 0 1 6.898 3.599l2.767 9.463a5.61 5.39-16.3 0 1-3.872 6.748l-3.647 1.067a.57.57-72.519 0 1-.707-.387z"></path><path fill="#e8c24c" fill-rule="evenodd" d="M748.7 292.86a.523.522-11.563 0 0-.45.68c1.56 4.92.24 9.01-3.47 13.31q-5.39 6.23-9.27 10.53c-7.21 7.99-16.15 5.48-23.51-.61q-8.68-7.18-19.61-16.81a.624.624 86.885 0 1-.06-.88l51.15-58.36a.823.817-49.318 0 1 1.14-.09q11.84 9.83 19.99 17.25c2.01 1.82 5.07 6.48 5.87 9.22q2.19 7.53-3.46 13.9-6.36 7.16-8.94 9.79-2.69 2.74-6.82 2.32-2.51-.26-2.56-.25m-1.603-30.5-9.789 11.339a.84.84 34.585 0 0 .087 1.185l2.597 2.241a5.71 4.85 40.8 0 0 7.492.06l4.547-5.269a5.71 4.85 40.8 0 0-1.153-7.402l-2.597-2.241a.84.84 29.824 0 0-1.184.087m-20.644 23.428-11.696 13.84a1.17 1.17-73.537 0 0 .138 1.649l2.437 2.059a5.84 4.77 40.2 0 0 7.539.126l7.049-8.34a5.84 4.77 40.2 0 0-1.382-7.413l-2.437-2.059a1.17 1.17 33.993 0 0-1.648.138M252.778 267.503l26.314-23.507a.4.4 84.676 0 1 .564.032l8.577 9.594a.4.4 84.07 0 1-.032.565l-13.513 12.067a.4.4 44.144 0 0-.031.564l10.856 12.154a.4.4-83.969 0 0 .565.031l13.124-11.726a.4.4-12.497 0 1 .565.031l8.391 9.397a.4.4-5.839 0 1-.039.571l-13.358 11.398a.4.4 86.206 0 0-.038.571l23.38 26.157a.4.4-6.281 0 1-.031.565l-12.224 10.926a.4.4 89.895 0 1-.565-.031l-52.536-58.794a.4.4-8.106 0 1 .031-.565" data-source="https://football-logos.cc"></path><path fill="#073b9a" fill-rule="evenodd" d="M747.097 262.36a.84.84 72.978 0 1 1.184-.087l2.597 2.241a5.71 4.85 40.8 0 1 1.153 7.402l-4.547 5.269a5.71 4.85 40.8 0 1-7.492-.06l-2.597-2.241a.84.84 73.795 0 1-.087-1.185z"></path><path fill="#e8c24c" fill-rule="evenodd" d="m543.539 340.382-30.071-18.795a.81.81-36.862 0 0-.857-.001l-33.738 20.936a.81.81-42.783 0 0-.383.689v341.7a.81.81 89.424 0 0 .381.687l32.721 20.445a.81.81 43.227 0 0 .857.001l30.578-18.986a.81.81 74.096 0 0 .383-.688v-80.6a.81.81 35.534 0 1 .81-.81h41.06a.81.81 25.189 0 1 .81.81v103.389a.81.81-66.293 0 1-.383.689l-74.188 46.046a.81.81-5.445 0 1-.857-.001l-75.201-46.995a.81.81 54.25 0 1-.381-.687v-389.39a.81.81 11.936 0 1 .383-.689l75.898-47.116a.81.81 19.805 0 1 .857.001l73.481 45.925a.81.81 55.297 0 1 .381.687v99.291a.81.81 33.305 0 1-.81.81h-40.54a.81.81 33.141 0 1-.81-.81v-75.851a.81.81-7.221 0 0-.381-.687"></path><path fill="#073b9a" fill-rule="evenodd" d="M726.453 285.788a1.17 1.17 80.413 0 1 1.648-.138l2.437 2.059a5.84 4.77 40.2 0 1 1.382 7.413l-7.049 8.34a5.84 4.77 40.2 0 1-7.539-.126l-2.437-2.059a1.17 1.17-11.09 0 1-.138-1.649z"></path><path fill="#e8c24c" fill-rule="evenodd" d="M697.71 586.061V534.56a.4.4 35.529 0 1 .4-.4h42.44a.4.4 36.844 0 1 .4.4v74.601a.4.4-70.188 0 1-.185.337l-123.91 79.099a.4.4-83.772 0 1-.615-.337V336.542a.4.4-42.32 0 1 .612-.339l123.87 77.419a.4.4-36.235 0 1 .188.34v77.098a.4.4-53.163 0 1-.4.4h-42.37a.4.4 38.176 0 1-.4-.4v-52.938a.4.4-79.343 0 0-.188-.339l-40.32-25.21a.4.4-80.845 0 0-.612.339V611.78a.4.4-27.019 0 0 .615.337l40.29-25.719a.4.4-19.423 0 0 .185-.337M325.96 439.484v53.076a.42.42 87.564 0 0 .42.42h80.95a.42.42-45 0 1 .42.42v42.47a.42.42-45.012 0 1-.42.42h-80.96a.42.42-84.171 0 0-.42.42v100.692a.42.42 47.091 0 1-.643.356l-40.3-25.195a.42.42-37.062 0 1-.197-.356V413.184a.42.42-74.079 0 1 .198-.357l122.14-75.819a.42.42-8.263 0 1 .642.357V466.22a.42.42-54.466 0 1-.42.42H367.1a.42.42-54.47 0 1-.42-.42v-51.495a.42.42 37.227 0 0-.642-.357l-39.88 24.759a.42.42-44.447 0 0-.198.357M753.026 763.261l-8.152-6.452a.65.65 44.848 0 0-.863.05l-3.767 3.767a.65.65-56.474 0 0-.045.869l6.272 7.74a.65.65 75.145 0 1-.045.869l-11.58 11.58a.65.65-5.969 0 1-.977-.066l-45.275-59.446a.65.65-16.686 0 1 .058-.854l16.999-16.999a.65.65 73.282 0 1 .863-.049l58.744 46.547a.65.65 2.098 0 1 .056.969l-11.425 11.425a.65.65 4.676 0 1-.863.05m-19.604-13.372q.917-.898 1.818-1.73a.34.336-45.998 0 0-.005-.505q-21.596-19.055-22.181-18.482-.516.506 18.096 22.485a.34.336-42.836 0 0 .504.016q.85-.884 1.768-1.784M308.33 760.16q-2.15 2.84-7.55 9.68-6.59 8.33-17.82 6.5c-11.83-1.94-22.09-15.01-18.3-26.93q.81-2.54 4.81-7.42 2.68-3.27 23.08-28.42 4.02-4.95 10.66-6.12c9.58-1.69 18.83 3.8 23.35 12.42 2.88 5.48 3.38 12.06.48 17.2q-1.88 3.32-7.07 8.85a2.512 1.404-51.666 0 0-.23.27l-2.08 2.97a.534.526 36.484 0 1-.77.11l-11.48-9.08a.769.767 37.499 0 1-.14-1.05l7.34-10a4.409 4.405-54.905 0 0-1.09-6.26l-.33-.22a4.149 4.139-53.354 0 0-5.54.82l-25.38 31.15a4.487 4.481-49.823 0 0 .52 6.21l.21.19a4.513 4.508-49.161 0 0 6.41-.47l8.46-9.91a.994.991-50.73 0 1 1.37-.14l10.96 8.69a.699.694 37.468 0 1 .13.96"></path><path fill="#073b9a" fill-rule="evenodd" d="M733.422 749.889q-.918.9-1.768 1.784a.34.336-42.836 0 1-.504-.016q-18.612-21.979-18.096-22.485.585-.573 22.181 18.482a.34.336-45.998 0 1 .005.505q-.901.832-1.818 1.73"></path><path fill="#e8c24c" fill-rule="evenodd" d="M361.566 743.529q5.091 3.115 9.919 6.053a1.092 1.084 28.166 0 1 .425 1.388l-31.43 67.49a.517.511 28.122 0 1-.74.22l-13.61-8.51a.281.277-61.322 0 1-.1-.35l4.41-9.47a.623.615-63.017 0 0-.257-.808q-1.986-1.107-2.148-1.206t-2.051-1.363a.623.615-54.066 0 0-.837.139l-6.424 8.238a.281.277-55.76 0 1-.357.07l-13.773-8.243a.517.511 34.795 0 1-.141-.76l45.78-58.71a1.092 1.084 34.752 0 1 1.43-.253q4.814 2.961 9.904 6.075m-27.058 44.05q1.078.655 2.087 1.311a.334.33 29.706 0 0 .479-.128q12.885-25.149 12.279-25.517-.686-.418-17.075 22.603a.334.33 32.868 0 0 .107.484q1.047.593 2.123 1.247M686.98 779.6a1.001.996-34.092 0 1 .27-1.38l12.44-8.3a.28.275-32.864 0 1 .39.08q4.12 6.13 7.18 10.76 4.47 6.77 2.38 14.31-2.14 7.75-8.54 12.22c-5.62 3.94-12.45 6.23-19.09 4.21-7.01-2.14-9.26-6.48-14.2-13.87q-11.73-17.55-16.32-24.9c-6.56-10.48-3.79-22.29 6.58-28.45 8.31-4.94 16.45-6.24 24.4-.04 3.31 2.59 6.97 9.26 9.82 13.38a.502.497 55.838 0 1-.13.7l-12.33 8.23a.791.782-32.088 0 1-1.12-.25q-3.02-5.13-6.87-9.38c-1.56-1.72-2.9-2.63-5.23-1.85-4.86 1.63-3.04 6.63-.82 9.93q6.73 10 14.78 22.44 3.58 5.55 6.68 8.79 1.74 1.83 4.2 1.06c3.6-1.13 3.74-5.18 1.97-7.99q-1.78-2.83-6.44-9.7"></path><path fill="#073b9a" fill-rule="evenodd" d="M334.508 787.579q-1.076-.654-2.123-1.247a.334.33 32.868 0 1-.107-.484q16.389-23.021 17.075-22.603.606.368-12.279 25.517a.334.33 29.706 0 1-.479.128q-1.009-.656-2.087-1.311"></path><path fill="#e8c24c" fill-rule="evenodd" d="M647.9 834.9a.629.624 63.181 0 1-.78-.26l-15.91-27.56a.726.721 63.623 0 0-.91-.31l-3.39 1.43a.409.403-23.193 0 0-.22.54l12.27 29.2a.63.63-11.244 0 1-.34.82l-14.02 5.9a.641.637 67.099 0 1-.83-.34l-28.4-67.59a.784.781-24.004 0 1 .39-1.01q12.98-6.02 23.79-10.12c5.08-1.93 11.81-1.61 16.13 2.16q1.98 1.73 4.42 7.03 3.24 7.01 4.95 11.92 1.73 4.97-.98 9.36a1.773 1.764 44.846 0 0 .01 1.86l18.51 29.82a.784.778-27.537 0 1-.36 1.13zm-32.487-52.671 5.649 13.181a.76.76-25.371 0 0 .998.399l2.647-1.135a5.7 4.08-23.2 0 0 3.632-5.995l-3.033-7.077a5.7 4.08-23.2 0 0-6.847-1.505l-2.647 1.135a.76.76 62.082 0 0-.399.997M384.44 802.13a.559.556-66.601 0 1 .29.74q-3.7 8.27-5.64 13.48-.84 2.27-.97 3.46c-.61 5.48 6.34 7.08 8.86 2.16q1.17-2.27 4.05-9.43Q396.67 798.51 409 769a.63.63 65.427 0 1 .82-.34l13.77 5.71a.663.654-68.807 0 1 .36.83q-1.06 3-22.07 53.28-3.32 7.95-12.87 10.16-8.28 1.93-16.85-3.52-14.25-9.07-7.79-25.24 1.07-2.68 5.47-13.32a.448.444 22.622 0 1 .59-.24zM582.27 843.031q-1.491.324-2.942.687a.61.61 79.267 0 0-.458.672l1.4 10.29a.617.607-10.829 0 1-.47.68l-15.53 3.61a.79.79-9.154 0 1-.97-.7l-6.45-73.57a.725.724 82.225 0 1 .591-.779q5.799-1.074 11.465-2.306 5.667-1.233 11.388-2.667a.725.724 73.224 0 1 .861.464l24.701 69.598a.79.79-15.396 0 1-.591 1.04l-15.626 3.169a.617.607-13.722 0 1-.71-.423l-3.002-9.942a.61.61 76.182 0 0-.696-.421q-1.471.274-2.961.598m-2.368-11.947q1.218-.264 2.386-.48a.33.326-13.801 0 0 .256-.417q-7.87-26.777-8.554-26.629-.776.168 3.138 27.802a.33.326-10.639 0 0 .405.274q1.154-.287 2.369-.55M456.67 858.81a.402.395 8.43 0 1-.48.35l-15.85-3.38a.297.292 7.692 0 1-.24-.31l.92-10.49a.973.969-81.544 0 0-.76-1.03l-5.01-1.07a.9.9 13.469 0 0-1.06.65l-2.64 9.95a.892.891 13.627 0 1-1.05.64l-15.07-3.2a.701.697-77.123 0 1-.53-.85q.73-3.02 2.14-7.29 12.25-37.22 18.6-54.48 1.69-4.62 2.93-8.39a.956.955-75.322 0 1 1.11-.65l22.82 4.86a.803.799 8.601 0 1 .63.85zm-16.347-27.087q1.246.252 2.429.529a.337.333 9.874 0 0 .41-.285q3.623-28.297 2.828-28.458-.701-.142-8.38 27.333a.337.333 13.036 0 0 .268.423q1.197.205 2.445.458"></path><path fill="#073b9a" fill-rule="evenodd" d="M615.413 782.229a.76.76-73.076 0 1 .399-.997l2.647-1.135a5.7 4.08-23.2 0 1 6.847 1.505l3.033 7.077a5.7 4.08-23.2 0 1-3.632 5.995l-2.647 1.135a.76.76-3.49 0 1-.998-.399z"></path><path fill="#e8c24c" fill-rule="evenodd" d="M510.04 822.71a.221.22 43.551 0 0 .43-.01l7.31-34.37a.814.808 5.866 0 1 .78-.63l24.07-.3a.36.36-.774 0 1 .37.36l.93 73.61a.74.74 89.618 0 1-.74.75h-14.96a.72.72 0 0 1-.72-.72q-.12-28.9-.29-42.64-.02-1.3-.38-2.86a.39.389-45.713 0 0-.76.01q-4.66 21.71-7.79 46.14a.447.443-86.317 0 1-.44.39l-14.4.18a.722.71-5.671 0 1-.72-.58l-8.7-45.54a.37.367-50.989 0 0-.73.08l.57 45.42a.66.66 32.926 0 1-.65.67l-15.16.19a.8.79 89.646 0 1-.8-.8V788.9a.65.64-90 0 1 .64-.65l24.07-.31a.854.842-4.797 0 1 .84.7q3.26 18.95 7.23 34.07"></path><path fill="#073b9a" fill-rule="evenodd" d="M440.323 831.723q-1.248-.253-2.445-.458a.337.333 13.036 0 1-.268-.423q7.679-27.475 8.38-27.333.795.161-2.828 28.458a.337.333 9.874 0 1-.41.285q-1.183-.277-2.429-.529M579.902 831.084q-1.215.263-2.369.55a.33.326-10.639 0 1-.405-.274q-3.914-27.634-3.138-27.802.684-.148 8.554 26.629a.33.326-13.801 0 1-.256.417q-1.168.216-2.386.48" data-source="https://football-logos.cc"></path><!-- source: https://football-logos.cc --></svg>