<svg xmlns="http://www.w3.org/2000/svg" id="Capa_1" data-name="Capa 1" version="1.1" viewBox="143.14 143.26 847.54 847.38"><!-- Source: https://football-logos.cc --><defs data-source="https://football-logos.cc"><style>.cls-1,.cls-2,.cls-3,.cls-5,.cls-7,.cls-8{stroke-width:0}.cls-1,.cls-3,.cls-8{fill-rule:evenodd}.cls-1,.cls-5{fill:#8d1207}.cls-2{fill:#de071b}.cls-3{fill:#fdfeff}.cls-7{fill:#fff}.cls-8{fill:#f08301}</style></defs><path d="M471.46 153.48c-2.2 1.5-47.92 13.67-59.29 18.98l-26.56 11.76c-29.49 14.96-32.2 16.18-61.26 35.35-4.29 2.83-6.8 5.48-10.69 8.07-11.62 7.74-30.87 25.31-41.69 35.21l-19.36 20c-3.52 3.74-5.44 6.93-8.94 10.73-6.34 6.87-15.74 20.48-21.19 27.1l-18.86 28.54c-4.83 7.48-9.31 16.08-13.73 24.61-4.2 8.11-8.13 17.93-12.38 26.14l-15.43 42.86c-.82 2.79-2.95 11.66-4.88 13.88-.8 7.97-7.49 31.97-9.66 46.21-2.69 17.6-2.66 34.17-3.95 52.83-1.68 24.31 1.58 53.61 5.28 78.02 1.07 7.05 3.73 17.2 4.08 23.93 2.36 13.48 8.26 32.45 12.67 45.04 2.61 7.45 5.14 14.27 7.99 21.5 2.36 5.98 7.52 16.19 8.63 21.37 11.06 18.24 14.31 30.51 30.05 53.38 8.6 12.49 17.21 24.95 26.59 36.03 3.17 3.74 7.51 8.27 9.82 12.52 1.96.47 26.91 27.12 30.38 30.37 1.95 1.83 3.23 2.9 5.23 4.65l4.99 5.23 36.53 27.44c35.44 25.02 80.73 46.98 123.53 58.85.59.16 2.13.55 2.75.78.28.11 1.08.44 1.33.57 1.47.74.96.4 1.9 1.23 1.82-.22 33.7 6.49 35.74 7.92 2.91-.48 13.45.79 16.37 2.67 3.87-.85 8.5.4 12.78.87 1.98.22 4.25.42 6.5.61 3.17.26 4.11-.05 6.12 1.3 7.12-1.31 15.12.34 22.47.5 7.97.16 16.18.16 24.14-.06 14.81-.43 29.37-1.64 43.75-3.57 28.2-3.77 51.81-9.73 77-17.71 32.87-10.41 68.01-27.84 96.17-46l28.49-19.37 26.68-22.89c4.35-3.64 8.85-8.26 12.86-12.15 2.3-2.23 3.99-3.98 6.23-6.31 1.97-2.04 3.99-5.64 6.55-5.98l17.52-20.9c45.28-57.45 67.31-102.58 86.39-177.57 1.55-11.14 4.24-22.53 5.84-34.14 1.6-11.55 1.88-24.82 3.35-35.3l.39-42.16c-1.45-3.67-3.04-31.29-3.98-38.25-.85-6.26-5.97-31.62-5.51-34.91l-7.38-25.42c-16.32-54.24-40.83-102.28-75.56-145.24-37.88-46.85-79.73-82.09-138.83-113.59-7.28-2.38-16.9-7.89-24.97-11.41-8.28-3.62-17.04-6.96-25.64-10.01-15.62-5.55-38.78-13.02-55.62-15.55-14.29-1.21-29.61-5.33-44.82-6.67-28.92-2.55-65.76-3.42-94.51 1.07-13.7 2.14-29.52 3.86-42.43 7.07Z" style="stroke-width:0;fill-rule:evenodd;fill:#f4e718"></path><path d="M305.83 536.15c.07-.92.16-1.85.24-2.78-.12.92-.23 1.83-.34 2.75.03 0 .06.02.09.03ZM970.07 529.26c-4.48-71.45-38.39-152.01-79.14-205.05-13.1-17.05-19.78-24.7-33.49-38.93-4.32-4.48-6.75-7.1-12.33-12.68l-25.96-22.33c-116.48-92.33-274.72-115.05-412.82-55.08-30.47 13.23-65.7 33.74-90.54 54.28-4.4 3.64-8.79 7.44-13.21 10.92-2.6 2.04-4.07 3.84-6.56 5.93L271.41 290c-2.18 2.44-3.62 4.41-5.76 6.82-22.94 25.83-43.14 53.19-59.48 86.23-20.05 40.54-38.71 93.25-42.27 146.21h142.59c5.1-43.93 27.66-92.19 53.09-124.23 47.18-59.43 118.95-101.3 207.39-101.24 137.59.09 247.65 105.54 261.19 231.98.02 0 .07 0 .09-.01-.26-2.17-.53-4.34-.84-6.5h142.65Z" class="cls-5"></path><path d="M306.61 529.26h-.11c-.16 1.38-.3 2.75-.43 4.11.17-1.37.35-2.75.54-4.11" class="cls-2"></path><path d="M163.91 529.26h-.2c-.69 7.56-1.17 15.18-1.45 22.85h142.1c.3-5.37.77-10.7 1.38-15.99.11-.92.22-1.84.34-2.75.12-1.37.27-2.74.43-4.11H163.92ZM970.33 529.26H827.42c.31 2.16.58 4.33.84 6.5.64 5.4 1.12 10.86 1.42 16.36h142.1c-.28-7.67-.76-15.29-1.45-22.85Z" class="cls-2"></path><path d="M322.97 568.6c.12 132.44 109.52 242.13 243.11 242.23 37.03.03 73.74-8.38 101.57-21.76 30.06-14.45 48.21-26.6 71.39-49.29 37.5-36.7 72.12-98.7 71.95-170.28-.16-70.89-25.49-128.2-72.4-176.09-37.22-37.99-99.02-70.58-169.82-70.58-42.98 0-71.62 7.98-105.62 23.05-25.5 11.31-51.88 31.13-70.51 50.17-38.82 39.68-69.72 98.19-69.66 172.55Z" class="cls-3"></path><path d="m970.22 599.84-142.31-.03c-13.57 124.69-123.79 230.15-261.83 230-70.92-.08-125.96-25.42-176.49-68.65-2.61-2.23-4.64-4.6-7.51-7.66-2.68-2.86-4.69-4.41-7.77-7.41l-13.91-16.53c-27.62-35-49.67-82.34-54.35-129.68l-142.34-.07c1.75 50.54 22.87 112.43 42.49 150.76 20.03 39.14 41.84 68.08 70.77 98.19l25.09 24.07c15.01 12.34 24.11 19.96 41.13 31.29 19.1 12.72 40.32 24.45 63.2 34.28 125.44 53.92 270.74 41.23 383.33-33.55 17.26-11.47 26.23-18.81 41.2-31.21 10.74-8.89 16.33-14.43 25.24-23.95 7.06-7.55 16.67-17.3 22.96-25.31 22.64-28.86 28.76-37.07 48.32-73.26 19.4-35.88 41.34-102.76 42.8-151.3Z" class="cls-1"></path><path d="M437.21 557.66c3.59-4.86 3.03-7.39 5.15-13.68 8.53 11.16.77 6.59-7.37 21.4-5.36 9.74-20.75 45.48-19.1 55.87 1.72 10.82 13.82 11.8 25.04 12.7-1.73 3.93-6.59 9.63-7.48 13.07-1.72 6.63 4.19 9.75 6.39 12.78-4.56 18.01 3.41 12.62 8.98 23.4 5.19 10.05-3.3 22.03 5.17 28.81 17.77 14.21 40.25-2.17 61.2.75-.7 1.91-5.97 6.41-4 9.62 5.63 5.22 9.89-4.65 17.83-3.92 10.26 4.83-8.57 37.94-7.3 47.29l27.46.03c-3.95 8.63-17.49 15.78-17.91 26.21 10.32 1.7 9.91-.52 18.25-4.78 17.27-8.83 33.34-16.96 47.85-29.98 9.25-8.3 17.26-15.98 24.92-26.93 3.36-4.81 6.95-10.16 10.03-15.88 2.94-5.47 5.72-12.09 8.65-17.24-1.97 18.37-15.26 43.5-24.99 59.03-3.56 5.68-9.75 12.24-7.35 18.14 4.22 1.35 5.77.73 8.04-2.25 22.69-29.88 46.62-65.39 64.02-98.73 2.67-5.11 5.13-12.01 8.68-16.26-1.27 23.42-21.17 70.38-38.57 90.99-1.83 2.17-2.72 3.02-4.11 4.83-.33.43-1.68 2.39-1.83 2.9-1.01 3.51-.63 2.31.76 4.08 4.81 5.86 12.67-7.48 19.67-16.1 11.99-14.76 23.11-29.2 32.36-46.33 3.99-7.39 9.5-19.9 13.91-26.06-1.08 15.89-11.6 42.36-18.49 57.29-2.78 6.04-7.1 11.3-5.97 19.19 5.25.66 7.08-.47 9.81-3.78 18.86-22.94 26.99-31.73 42.2-61.53 67.57-132.36-23.71-214.85-23.69-223.95 0-2.68 16.48-31.78 11.69-46.64-5.17-1.47-8.16 1.86-12.47 3.86-4.04 1.87-10.87 2.51-15.44 3.14-10.15 1.39-22.59 4.86-30.77-.19-15.76-9.71-27.62-18.75-48.76-25.44-20.21-6.4-43.59-3.89-64.96-9.27-28.04-7.07-20.76-9.95-53.09 10.97-11 7.12-11.7 7.03-26.61 10.03-27.48 5.53-44.46 11.18-68.35 24.64-5.55 3.13-4.26 6.9-3.7 13.95 2.21 27.74 2.76 38.81 11.15 63.2 1.56 4.53 3.47 8.22 4.66 13.2 3.29 13.71 3.82 15.08 9.51 28.05 2.53 5.77 2.17 9.55 8.94 9.52Z" class="cls-1"></path><path d="M531.48 675.55c20.71-8.24 25.76-21.14 34.29-17.24 1.24 5.66-13.53 26.35-17.21 31.65 19.39-13.94 28.4-26.1 42.1-48.48 5.6-9.15 11.29-19.34 16.03-29.55 4.33-9.32 11.27-31.98 17.51-26.45 6.39 10.24-13.69 65.45-17.85 75.2-5 11.69-9.9 20.85-15.61 31.81-2.54 4.88-5.77 10.21-8.48 14.76l-9.21 15.3c11.21-7.57 26.37-29.09 32.31-44.04 1.83-4.59 3.82-17.93 11.21-10.07 1.79 6.09-6.83 26.11-9.4 31.5-4.7 9.87-9.98 18.51-15.87 27.02l-37.02 48.29c9.38-2.67 27.45-16.86 34.39-22.29 10.56-8.27 19.3-18.02 27.83-29.36 12.98-17.25 21.59-39.94 22.95-62.89.44-7.52-2.6-21.63 5.33-23.32 6.71.75 8.41 28.79 8.36 34.92-.12 15.66-3.8 25.07-5.63 38.7 11.83-11.69 38.55-67.05 45.08-86.52 4.69-14 6.62-33.21 8.19-36.33 10.24-1.1 7.29 3.56 5.03 23.64-1.07 9.5-2.17 19.25-3.68 28.42l-11.36 52.15c.68-2.57 6.13-12.52 7.82-16.31 6.32-14.2 9.64-22.33 12.62-38.27 1.67-8.96.54-15.5 5.98-20.14 14.02 8.02 2.75 60.91-1.28 74.81-1.21 4.16-6.78 19.24-5.87 21.57 3.14-1.91 13.28-21.25 15.92-25.8 30.17-51.9 40.09-111.45 15.87-168.43-4.31-10.13-9.28-19.07-14.49-27.51-3.12-5.06-13.86-21.31-17.3-24.45-2.8 1.53-22.62 17.96-24.12 20.3 2.01 4.97 5.57 10.19 8.09 16.05 5.67 13.18 8 27.39 6.11 41.97-.96 7.41-1.19 16.35-9.43 14.93-2.44-3.75-2.74-10.77-3.53-16.06-.46-3.07-.87-5.66-1.3-8.65-.2-1.4-.36-3.42-.67-4.75-1.04-4.43.35-2.12-1.77-3.21.58 25.58 1.56 37.41-13.01 60.42-1.96 3.09-2.09 4.05-7.1 3.86-5.99-11.51 10.62-40.86-10.14-79.92-14.16-26.63-15.52-11.95-26.19-20.22-8.24-6.39-14.36-18.34-22.66-24.75-9.55-7.39-19.75-9.95-30.67-15.81-11.45-6.15-18.93-10.89-33.79-13.6-13.14-2.39-30.48-3.52-41.03 3.04-15.19 9.44-8.51 16.09-4.24 32.44 3.75 14.34 10.62 17.09 23.84 22.58 12.42 5.15 21.88 9.02 36.72 10.81 14.25 1.72 38.38-.42 41.01 5.4 3.17 7.02 4.01 34.2 3.29 43.03-3.48 42.48-26.31 81.37-55.92 108.33-4.04 3.68-8.15 8.23-12.02 11.52Z" class="cls-3"></path><path d="M461.04 625.27c1.11-4.67 1.08-4.5-.73-8.42 10 4.07.84 9.12 5.73 16.01 6.91 9.72 17.36 19.27 17.96 28.7.3 4.64-1.86 16.94-3.75 20.29-2.21-4.05 2.48-16.74-.14-23.67-2.1-5.56-13.91-17.33-18.39-22.75-9.38-11.36-12.97 1.95-14.35 4.92-1.68 3.61-4.23 5.97-3.98 10.8 4.43 1.78 24.09 12.13 27.16 11.58l.2-1.18c0-.11.02-.45 0-.58l-3.81-7.2c12.66 4.01 10.6 15.79 1.96 20.18l2.25-8.13c-7.61-.77-33.02-5.6-20.62 5.82 18.38 16.92-2.4 33.1 17.17 38.25 6.36 1.67 14.16.99 20.21-.38 6.25-1.41 11.81-3.33 18.34-3.92 20.24-1.82 11.5 9.51 28.59-12.67 2.4-3.11 8.76-9.82 8.62-13.05-8.56 4.69-34.95 13.83-45.36 14.15-5.09.16-12.42-3.93.48-9.66 3.64-1.62 6.9-3.41 10.01-5.14 17.8-9.88 36.97-27.11 49.08-43.01 17.75-23.31 33.46-52.54 33.6-90.83.02-6.66-.48-17.05-1.95-23.18-1.47-6.11-8.04-5.05-19.61-5.25-51.02-.89-69.88-23.9-76.77-23.28-1.69.15-12.98 6.36-17.43 7.66-16.3 4.77-24.88-5.05-28.69 22.13-3.31 23.63 15.56 22.06 2.77 36.8-4.54 5.23-7.29 7.67-10.35 15.61-4.41 11.42-10.06 24.57-13.63 36.42-2.93 9.73 1.75 12.14 10.81 12.46 6.06.21 19.68 2.04 24.64.55ZM718.06 424.41c-42.08 7.17-31.25 7.05-77.76 5.75-23.39-.65-21.19-4.6-26.74 16.09-4.3 16.04-4.58 13.67 8.88 28.43 9.72 10.67 8.11 13.71 29.42 12.17 12.36-.89 23.86-4.19 32.84-9.72 16.95-10.44 31.42-33.13 33.36-52.73ZM488.92 484.47c-6.99-21.61-16.6-39.17 7.34-51.88 3.71-1.97 5.18-2.03 4.27-7.04-2.99-1.29-5.56.08-7.16-3.27-1.46-3.04-.11-7.55-.31-10.97-7.56-.23-20.3 2.9-28.03 4.37-15.78 3.01-12.28 1.67-18.84 14.21-4.72 9.02-14.48 21.3-21.74 27.45-13.13 11.12-12.87 3.18-6.35 33.07 3.6 16.53 3.86 10.38 18.1 7.24 21.49-4.75 37.09.07 52.72-13.19Z" class="cls-3" data-source="https://football-logos.cc"></path><path d="M500.48 412.52c.17-.21.4-.8.48-.64.45.9.43-.95 2.27-3.25 7.34.14 41.1 18.55 49.73 22.89 6.91 3.47 44.47 22.9 48.88 23.3 1.84-3.51 2.04-8.83 3.04-12.77 6.87-26.92 12.61-20.7 50.68-21.12-6.98-5.93-24.13-14.42-34.68-17.93-25.24-8.41-44.66-4.27-68.15-10.53-20.29-5.41-18.11-8.8-39.64 5.14-2.94 1.9-5.61 3.39-8.1 5.34-3.47 2.72-4.61 3.83-4.52 9.57Z" class="cls-3"></path><path d="M706.53 439.08c-1.61-1.74-.89-1.63-4.21-2.2l-29.85-.21c-14.54 0-30.37-2.34-41.19-2.34-6.53 0-6.6 1.59-8.06 7.27-4.36 16.95-7.31 18.38 5.37 31.39 2.63 2.7 4.17 5.62 7.2 8.01 5.21 4.13 17.18-1.32 22.93-3.02 7.66-2.27 14.98-4.75 21.36-8.16 10.27-5.49 30.13-23.17 26.45-30.74" class="cls-1"></path><path d="m693.67 444.51-57.92-1.24c-4.36.44-4.54 1.89-5.88 5.83-3.46 10.18-.09 11.41 4.49 17.24 7.71 9.81 11.58 7.42 33.46-.74 9.01-3.36 26.14-12.85 25.85-21.09M534.09 712.6c.82 4.77 3.48 11.9 6.07 15.29 4.91-1.06 10.43-3.13 15.16-4.71 8.25-2.74 7.38-1.83 11.43-9.06l28.71-51.76 8.67-20.85c1.26-3.23 2.76-5.43 1.29-7.43-6.12 9-9.52 19.51-21.72 34.38-2.6 3.16-6.03 7.65-8.63 10.18-12.88 12.52-24.43 24.57-40.98 33.96" class="cls-3"></path><path d="M449.84 536.42c.85 2.19 6.92 8.46 8.89 10.76 5.54 6.46 3.27 7.4 1.37 14.37 7.54.95 10.51-.42 18.12-1.39 7.84-.99 11.6-.45 19.13.6-4.53-9.5-19.91-13.16-25.24-16.3 9.31-10.88 24.26-.64 36.33 2.23-2.45-7.98-15.66-15.23-24.59-15.75-6.11-.35-29.63 3.21-34 5.47Z" style="stroke-width:0;fill-rule:evenodd;fill:#851313"></path><path d="M477.17 589.56c23.15 1.48 40.92 1.99 61.68 12.55 6.39 3.25 10.08 6.43 15.58 9.64-3.69-7.96-24.4-18.91-36.3-23.83-7.26-3-14.84-5.57-23.13-7.19-4.21-.82-9.61-1.62-13.89-1.38-4.51.25-6.05 1.88-3.93 10.21Z" class="cls-1"></path><path d="M653.74 496.19c4.89 10.41 6.96 9.27 13.28 26.9 3.93 10.97 5.24 21.44 6.29 34.07 4.4-8.4 2.16-24.76.15-34.3-2.48-11.79-6.6-18.77-9.94-28.48-3.37.32-7.56.54-9.78 1.82ZM411.6 437.23l.21 18.18c4.68-1.33 26.77-23.51 26.15-31.27-8.04 3.37-19 8.84-26.36 13.09M426.09 511.7c-.58 4.44 1.72 11.51 2.81 16.22l2.69 11.62c1.49 4.26-.17 1.95 2.17 2.79 1.45-2.2 8.77-32.81 8.56-35.89-3.98-.44-13.49 3.47-16.23 5.26M530.67 758.59l5.6.08c3.1-4.4 2.54-5.52 9.48-14.6 3.56-4.66 7.56-9.42 10.56-14.34-4.29.32-5.91 1.4-11.66 2.94-7.33 2.97-6.32 3.85-7.86 9.98-2.47 6.95-4.21 9.24-6.12 15.93Z" class="cls-3"></path><path d="M492.12 602.44c8.89 1.68 17.31.58 26.31 3.05 9.18 2.52 13.77 7.11 20.83 9.7-4.9-8.83-30.47-21.95-47.19-20.74l.04 8Z" class="cls-1"></path><path d="M162.26 552h142.1c-.27 4.89-.42 9.81-.42 14.77 0 2.71.05 5.4.13 8.08H162.06c-.05-2.69-.1-5.38-.1-8.08 0-4.95.12-9.87.3-14.77M829.67 552h142.1c.18 4.9.3 9.82.3 14.77 0 2.7-.05 5.39-.1 8.08H829.96c.08-2.69.14-5.38.14-8.08 0-4.96-.15-9.88-.42-14.77Z" class="cls-8"></path><path d="M506.57 416.72s-.48 12.27 0 12.27 25.81 2.39 25.81 2.39-2.55-7.17-25.81-14.66M471.04 550.31l-2.87 6.8s17.37-1.33 22.25.05c0 0-8.15-5.02-19.38-6.85M512.98 920.07c-.18 6.61-2.55 21.22-20.34 21.22s-21.35-12.86-21.35-33.25c0-23.12 7.34-32.98 21.95-32.98 17.05 0 19.56 13.04 19.75 20.66h-14.62c-.12-3.57-.22-9.09-5.34-9.09s-6.33 5.84-6.33 21.47c0 13.72.77 21.75 6.15 21.75 5 0 5.32-5.95 5.5-9.78H513ZM553.96 940.09v-20.74c0-.92-.09-1.89-.51-2.94l-14.99-40.21h16.2c2.64 9.64 5.59 20.74 7.15 28.59 1.77-7.23 4.94-19.19 7.31-28.59h15.18l-15.21 40.37c-.22.71-.41 1.43-.41 2.54v20.98h-14.71ZM649.88 920.07c-.18 6.61-2.55 21.22-20.34 21.22s-21.35-12.86-21.35-33.25c0-23.12 7.33-32.98 21.95-32.98 17.05 0 19.56 13.04 19.75 20.66h-14.62c-.12-3.57-.22-9.09-5.34-9.09s-6.33 5.84-6.33 21.47c0 13.72.77 21.75 6.15 21.75 5 0 5.32-5.95 5.5-9.78h14.65ZM251.46 435.47l5.25-11.33 40.11 18.57 7.24-15.65 8.72 5.32-12 25.92-49.31-22.83ZM330.16 358.93c15.7 12.25 19.15 21.84 10.85 32.48-7.74 9.93-18.09 8.94-33.89-3.39-15.18-11.84-17.89-21.84-10.22-31.68 7.88-10.1 18.36-9.04 33.27 2.58Zm-15.03 18.81c10.57 8.25 15.72 10.73 18.35 7.35 2.78-3.57-.68-7.57-11.56-16.06-10.17-7.93-14.61-10.03-17.36-6.51-2.65 3.39.58 7.42 10.56 15.21ZM375.27 332.39c3.01 3.31 5.91 4.93 8.84 2.62 2.85-2.25 2.24-4.88.33-7.3-2.33-2.95-5.18-3.52-12.23-2.13-10.43 2.02-15.77 1.01-20.72-5.26-5.76-7.29-5.08-15.6 3.37-22.27 9.94-7.85 17.68-3.88 22.93 2.6l-9.43 7.45c-2.51-2.84-5.07-4.96-7.85-2.77-2.18 1.72-2.04 3.9-.16 6.28 1.93 2.44 3.88 2.95 10.34 1.61 11.05-2.26 17.06-1.54 22.72 5.63 5.57 7.05 5.88 15.92-3.69 23.48-10.37 8.19-18.2 4.78-24.12-2.3l9.67-7.63ZM500.91 269.43c1.39 5.45 2.86 17.96-11.69 22.1-14.44 4.11-20.46-5.54-25.21-22.22-5.39-18.91-1.68-28.69 10.27-32.09 13.94-3.97 19.04 6.11 20.97 12.3l-11.96 3.41c-.93-2.89-2.3-7.39-6.49-6.19-4.12 1.17-3.82 6.25-.18 19.04 3.2 11.23 5.7 17.61 10.1 16.36 4.09-1.17 2.96-6.11 2.22-9.28l11.99-3.41ZM537.55 226.3l12.48-.44.72 20.53 9.41-.33-.72-20.53 12.54-.44 1.91 54.31-12.54.44-.82-23.28-9.41.33.82 23.28-12.48.44zM623.63 273.52l-4.2 11-12.22-2.57 21.67-50.97 17.17 3.61-.56 55.41-12.69-2.67.53-11.77zm10.24-8.57c.43-8.01 1.08-16.91 1.44-21.94l-.4-.08c-1.59 4.99-4.67 13.16-7.56 20.65zM676.63 300.95l23.77-48.86 12.28 5.98c-3.77 26.64-4.74 33.02-5.32 35.49l.2.1c2.51-6.38 6.27-14.51 9.98-22.14l4.36-8.97 9.91 4.82-23.77 48.86-12.1-5.89c4.64-29.15 5.58-34.78 6.06-37.16l-.22-.11c-2.47 6.07-6.67 15.22-10.56 23.21l-4.63 9.51-9.96-4.85ZM774 294.95l9.33 7.84-14.57 17.35c5.56-2.55 16.67-7.62 23.04-10.24l10.58 8.88-23.06 8.43-11.7 33.34-10.43-8.75 8.48-22.01-6.71 2.01-10.58 12.6-9.33-7.83 34.94-41.61ZM805.19 386.63 794.71 392l-7.37-10.08 50.19-23.41 10.35 14.17-37.46 40.83-7.65-10.47 8.27-8.4-5.85-8Zm13.36.47c5.67-5.67 12.11-11.85 15.74-15.36l-.24-.33c-4.52 2.65-12.27 6.67-19.43 10.31zM845.08 446.87c-4.01 1.99-6.36 4.33-4.94 7.78 1.38 3.35 4.08 3.5 6.93 2.32 3.48-1.43 4.8-4.02 5.4-11.18.92-10.58 3.36-15.44 10.75-18.48 8.59-3.54 16.39-.6 20.49 9.35 4.82 11.71-1.12 18.07-8.8 21.34l-4.57-11.11c3.42-1.63 6.16-3.51 4.81-6.79-1.06-2.57-3.19-3.03-6-1.88-2.88 1.18-3.9 2.92-4.38 9.5-.86 11.24-3.2 16.83-11.64 20.3-8.3 3.42-16.92 1.29-21.56-9.99-5.03-12.22.4-18.81 8.83-22.57l4.69 11.39Z" class="cls-7" data-source="https://football-logos.cc"></path><!-- source: https://football-logos.cc --></svg>