<svg xmlns="http://www.w3.org/2000/svg" id="Calque_2" data-name="Calque 2" viewBox="0 0 59.75 67.12"><!-- Source: https://football-logos.cc --><defs data-source="https://football-logos.cc"><style>.cls-1{fill:#fff}.cls-2{fill:#e0022b}.cls-3{fill:#d49f4f}</style></defs><g id="Calque_4" data-name="Calque 4" data-source="https://football-logos.cc"><path d="M28.73 66.69C7.52 58.78 0 39.62 0 25.62V7.96l1.7-.94C13.75.34 27.01 0 29.54 0h.67c2.53 0 15.78.34 27.84 7.02l1.7.94v17.66c0 14-7.52 33.16-28.72 41.07l-1.16.43-1.15-.43Z" class="cls-3"></path><path d="M29.11 65.66C8.44 57.95 1.1 39.27 1.1 25.62V8.61l1.13-.63C14.05 1.43 27.05 1.1 29.54 1.1h.67c2.49 0 15.49.33 27.31 6.88l1.13.63v17.02c0 13.65-7.33 32.32-28.01 40.04l-.77.29-.77-.29Z" class="cls-2"></path><path d="M29.5 64.63C9.35 57.12 2.2 38.92 2.2 25.62V9.25l.57-.31C14.34 2.52 27.1 2.2 29.54 2.2h.67c2.44 0 15.19.32 26.78 6.74l.57.31v16.37c0 13.3-7.15 31.49-27.29 39.01l-.38.14-.38-.14Z" class="cls-1"></path><path d="M56.46 9.9v15.72c0 13.86-7.64 30.91-26.58 37.98C10.93 56.53 3.3 39.48 3.3 25.62V9.9c12.47-6.91 26.29-6.6 26.58-6.6s14.1-.31 26.58 6.6" class="cls-2"></path><path d="M26.9 27.02s-.32 2.9-1.84 3.4c-1.38.45-2.65.37-2.99 1.01s-.32 1.15-.95 1.5-4.86 2.33-5.54 4.03c0 0 .65-.31 1.11-.13.33.12.81-.29.82.04.01.37-.04.46-.35.52-.23.04-.87.72-1.19 1.08-.11.12-.11.31 0 .43.56.64 2.28 2.42 3.95 1.93 2.02-.6 1.65-2.38 2.27-2.44s1.45-.06 1.45-.77c0-.4-.95-.96-.13-1.28.96-.38 2.64-1.06 3.65-1.28.9-.34 1.74-.76 1.22-2.27.47.25 2.43 3.29-.63 6.47-.29.31-.4.65.04.48.54-.21 2.25-1.02 2.43-2.28 0 0 .67 1.08-1 2.3-1.53 1.12-4.48 3.58-5.1 4.71 0 0 1.92-.78 2.44-.82 0 0-7.66 3.91-4.32 12.36.06.14.27.07.3-.07.13-.84.77-3.12 2.01-3.58 0 0-2.59 3.36 1.18 6.24.08.06.2-.01.17-.11-.3-.99-.72-4.16 4.62-7.21 3.84-2.2 8.54.12 11.31-7.27.02-.06.11-.06.12 0 .12.8.55 3.38-1.26 5.71-.04.05 0 .13.07.1 1.02-.49 5.03-3.12 3.98-8.63-.73-3.47-3.96-5.27-3.96-5.27s1.25-.6 3.41 1.49c.06.06.17.02.16-.07-.21-1.23-1.68-6.43-8.08-6.31 0 0 .46-1.37 2.91-.74.13.03.24-.12.16-.23-.69-.98-3.54-3.99-12.41-3.04Z" class="cls-3"></path><path d="M43.51 49.59s-1.48 1.65-6.97 2.19-8.61 3.46-9.68 6.07c-.03.08-.01.16.05.21.29.26 1.3.9 3.73.55 2.99-.44 5.79-1.16 5.45-1.69s-2.3-1.79-4.75-.35c0 0 .08-1.91 3.04-2.08s5.97.44 9.13-4.9" class="cls-3"></path><path d="M22.21 32.29c-.05.13.42.46.37.68s-.71.53-.71.95.73 0 1.1-.23 1.62-.69 2.27-.87.29-.36 0-.43c-1.2-.25-2.97-.24-3.03-.11Z" class="cls-2"></path><path d="M19.5 41.77c.07.77-.28.51-.69 1.16-.32.51-1.21 1.31-1.33.44-.14-1-.98-2.31-.36-2.31.23 0 .39.24.66.45.19.14.55.25.78.26h.93Z" class="cls-3"></path><path d="M31.4 29.96s-1.18.67-.39.76 6.74.38 9.11 6.9v.72s-2.85-5.06-7.55-5.13c6.58 2.88 7.69 10.04 3.66 13.72-.5.41.53-2.32.15-3.39-.29-.82-.45 2.45-4.6 3.16-3.31.56-4.1.4-5.17 4.97 0 0-2.05-3.63 2.78-7.14s4.54-4.25 4.3-5.85c0 0-.69 1.6-2.01 1.6 0 0 1.3-1.06.37-3.97-1.04-3.24-4.1-4.79-3.45-6.2.6-1.32 5.03-2.53 6.75-.8 0 0-2.02-.65-3.95.64Z" class="cls-2"></path><path d="M9.05 24.22v-5.09H7.16v5.09H5.63V13h1.53v4.77h1.89V13h1.53v11.22zM17.21 13v9.09c0 1.42-.62 2.12-1.85 2.12h-1.29c-1.23 0-1.84-.71-1.84-2.14v-9.08h1.53v9.12c0 .49.22.73.67.73h.62c.42 0 .62-.24.62-.73v-9.12h1.53ZM20.29 24.22h-1.53v-9.3c0-1.28.61-1.92 1.84-1.92h1.15c1.23 0 1.84.64 1.84 1.92v9.3h-1.53v-4.11H20.3v4.11Zm1.76-5.47v-3.73c0-.44-.22-.66-.67-.66h-.42c-.45 0-.67.22-.67.66v3.73zM28.31 18.42V13h1.53v11.22h-1.53v-2.23l-1.65-5.11v7.34h-1.53V13h1.53zM36.07 21.6v.72c0 1.27-.61 1.91-1.84 1.91h-.99c-1.23 0-1.84-.64-1.84-1.91v-7.41c0-1.27.61-1.91 1.84-1.91h.99c1.22 0 1.84.64 1.84 1.91v1.27h-1.53v-1.16q0-.66-.69-.66h-.3c-.41 0-.61.22-.61.66v7.19c0 .44.2.66.61.66h.38c.4 0 .61-.22.61-.66v-.61zM38.91 24.22h-1.53v-9.3c0-1.28.61-1.92 1.84-1.92h1.15c1.23 0 1.84.64 1.84 1.92v9.3h-1.53v-4.11h-1.76v4.11Zm1.76-5.47v-3.73c0-.44-.22-.66-.67-.66h-.42c-.45 0-.67.22-.67.66v3.73zM46.29 24.22h-1.53V20.1l-1.89-7.09h1.52l1.15 4.87h.05l1.04-4.87h1.52L46.3 20.1v4.12ZM50.83 24.22c-1.24 0-1.85-.64-1.85-1.91v-7.39c0-1.28.61-1.92 1.84-1.92h1.47c1.22 0 1.84.64 1.84 1.92v7.39c0 1.27-.62 1.91-1.85 1.91h-1.44Zm.37-1.36h.78c.4 0 .61-.22.61-.66v-7.19q0-.66-.69-.66h-.72c-.45 0-.67.22-.67.66v7.19q0 .66.69.66" class="cls-1"></path><path d="M23.94 7.45v-.51c0-.23-.12-.35-.35-.35h-.12c-.23 0-.34.12-.34.35v.97c0 .11.02.18.07.22s.12.09.22.15l.76.4c.17.09.28.16.35.22.07.05.12.11.16.19q.06.105.06.42v1.25q0 .99-.96.99h-.49q-.96 0-.96-1.08v-.29h.8v.32c0 .23.12.34.36.34h.14c.21 0 .32-.11.32-.34v-.99c0-.11-.02-.18-.07-.22s-.12-.09-.22-.15l-.76-.42c-.17-.09-.29-.16-.36-.22s-.13-.14-.16-.23-.05-.22-.05-.37V6.9c0-.67.32-1 .96-1h.5c.64 0 .96.33.96 1v.57h-.8ZM25.52 5.87h1.45c.64 0 .96.33.96 1V8.6q0 .99-.96.99h-.66v2.12h-.8V5.86Zm.8 3.03h.51c.21 0 .32-.11.32-.34V6.93c0-.23-.12-.34-.36-.34h-.47zM29.61 11.72q-.96 0-.96-.99V6.88c0-.67.32-1 .96-1h.76c.64 0 .96.33.96 1v3.85q0 .99-.96.99h-.75Zm.19-.71h.41c.21 0 .32-.11.32-.34V6.92c0-.23-.12-.34-.36-.34h-.37c-.23 0-.35.11-.35.34v3.75c0 .23.12.34.36.34ZM32.14 5.87h1.56c.61 0 .91.33.91 1v1.44c0 .51-.16.83-.47.97l.56 2.44h-.76l-.52-2.36h-.48v2.36h-.8zm.8 2.82h.52q.36 0 .36-.42V7.01q0-.42-.36-.42h-.52V8.7ZM36.67 6.58v5.14h-.8V6.58h-.76v-.71h2.33v.71h-.76Z" class="cls-3"></path></g><!-- source: https://football-logos.cc --></svg>