<svg xmlns="http://www.w3.org/2000/svg" viewBox="0 0 300 300"><!-- Source: https://football-logos.cc --><path d="M960 514a450 450 0 0 1-450 450A450 450 0 0 1 60 514 450 450 0 0 1 510 64a450 450 0 0 1 450 450" style="paint-order:stroke fill markers" transform="translate(-20 -21.333)scale(.33333)" data-source="https://football-logos.cc"></path><g stroke-width="1.039" aria-label="S B A"><path d="M96.684 92.263H72.805v-8.997q0-6.299-.916-8.023t-3.053-1.724q-2.321 0-3.543 2.324-1.16 2.324-1.16 7.048 0 6.073 1.344 9.147 1.282 3.074 7.267 7.423 17.16 12.521 21.62 20.544 4.457 8.022 4.457 25.867 0 12.971-2.504 19.12-2.442 6.148-9.527 10.346-7.084 4.124-16.489 4.124-10.321 0-17.65-4.798-7.267-4.8-9.527-12.222-2.26-7.423-2.26-21.069v-7.947h23.88v14.77q0 6.823.977 8.773 1.038 1.95 3.603 1.95t3.786-2.475q1.283-2.474 1.283-7.348 0-10.722-2.382-14.02-2.443-3.3-12.03-11.023-9.59-7.797-12.704-11.322t-5.19-9.747Q40.07 96.761 40.07 87.09q0-13.946 2.87-20.394 2.932-6.448 9.405-10.047 6.474-3.674 15.635-3.674 10.015 0 17.039 3.974 7.084 3.974 9.344 10.047 2.32 5.999 2.32 20.47zM115.582 84.71h25.65q12.153 0 18.382 2.324 6.29 2.325 10.138 9.447 3.848 7.048 3.848 22.794 0 10.646-2.749 14.845-2.687 4.2-10.687 6.448 8.916 2.475 12.092 8.248 3.176 5.698 3.176 17.544v11.247q0 12.297-2.321 18.22-2.26 5.924-7.267 8.098t-20.52 2.174h-29.742zm25.71 20.769v26.992q1.65-.075 2.566-.075 3.786 0 4.824-2.25 1.039-2.324 1.039-13.12 0-5.699-.855-7.948-.855-2.324-2.26-2.924-1.344-.6-5.313-.675m0 45.885v33.965q5.436-.224 6.902-2.099 1.527-1.874 1.527-9.222v-11.322q0-7.798-1.344-9.447t-7.084-1.874zM234.89 132.45l14.718 121.387h-26.321l-1.283-21.818h-9.222l-1.526 21.818h-26.627l13.069-121.387zm-13.619 78.05q-1.954-20.619-3.908-50.908-3.909 34.79-4.886 50.908z"></path></g><g stroke-width="1.018" data-source="https://football-logos.cc"><path d="m108.666 264.715-9.207-4.967-9.333 4.73 1.903-10.246-7.406-7.368 10.384-1.366 4.756-9.283 4.514 9.402 10.345 1.63-7.594 7.177zM149.252 281.266l-9.208-4.967-9.333 4.73 1.903-10.246-7.406-7.368 10.384-1.366 4.756-9.283 4.514 9.402 10.346 1.63-7.594 7.177zM77.025 237.417l-9.208-4.966-9.333 4.73 1.903-10.246-7.405-7.369 10.383-1.365 4.756-9.283 4.515 9.402 10.345 1.63-7.594 7.177zM221.804 68.2l-9.207-4.966-9.334 4.73 1.904-10.246-7.406-7.369 10.384-1.365 4.756-9.283 4.514 9.402 10.345 1.63-7.594 7.177zM254.464 92.803l-9.208-4.966-9.333 4.73 1.903-10.246-7.406-7.368 10.384-1.366 4.756-9.283 4.515 9.402 10.345 1.63-7.594 7.177zM182.108 49.084l-9.208-4.967-9.333 4.73L165.47 38.6l-7.405-7.368 10.383-1.366 4.756-9.283 4.515 9.402 10.345 1.63-7.594 7.177z"></path></g><path fill="#ffadcc" d="M960 514a450 450 0 0 1-450 450A450 450 0 0 1 60 514 450 450 0 0 1 510 64a450 450 0 0 1 450 450" style="paint-order:stroke fill markers" transform="translate(0 -1.177)scale(.29412)"></path><path d="m170.485 35.811-4.195 8.191-9.162 1.205 6.533 6.5-1.678 9.041 8.235-4.174 8.125 4.383-1.445-9.08 6.701-6.332-9.129-1.44zm35.028 16.867-4.197 8.191-9.163 1.203 6.536 6.502-1.68 9.04 8.235-4.173 8.125 4.383-1.446-9.08 6.702-6.332-9.13-1.44zM77.641 64.388q-8.084 0-13.796 3.243-5.712 3.176-8.299 8.865-2.532 5.69-2.533 17.995 0 8.535 1.78 14.025 1.83 5.49 4.58 8.601 2.749 3.11 11.209 9.99 8.46 6.814 10.615 9.725 2.102 2.91 2.102 12.372-.001 4.3-1.133 6.483-1.077 2.183-3.34 2.183t-3.18-1.72q-.862-1.72-.861-7.74v-13.033h-21.07v7.013q0 12.04 1.994 18.59t8.406 10.785q6.466 4.233 15.572 4.234 8.3 0 14.552-3.639 6.25-3.706 8.406-9.13 2.21-5.425 2.21-16.87 0-15.747-3.935-22.824-3.933-7.08-19.076-18.129-5.28-3.836-6.412-6.549-1.186-2.713-1.186-8.072 0-4.167 1.024-6.218 1.077-2.052 3.125-2.051 1.886 0 2.695 1.521.808 1.522.807 7.078v7.94h21.07V94.82q0-12.767-2.047-18.06-1.995-5.36-8.246-8.867-6.196-3.506-15.033-3.506zm156.693 9.998-4.198 8.191-9.162 1.206 6.535 6.501-1.68 9.04 8.235-4.172 8.125 4.382-1.445-9.082 6.701-6.331-9.129-1.438zM119.64 92.392V199.5h26.243q13.687 0 18.105-1.918 4.42-1.92 6.415-7.147 2.047-5.226 2.046-16.075v-9.926q0-10.453-2.802-15.48-2.802-5.093-10.67-7.277 7.06-1.985 9.431-5.69 2.425-3.703 2.424-13.099 0-13.893-3.394-20.112-3.396-6.285-8.946-8.336-5.495-2.05-16.22-2.05H119.64zm22.687 18.325q3.502.067 4.687.596 1.24.53 1.995 2.58.755 1.984.755 7.012 0 9.526-.916 11.577-.916 1.987-4.257 1.987-.81-.001-2.264.064zm49.78 23.8-11.531 107.109h23.494l1.348-19.254h8.137l1.13 19.254h23.226l-12.986-107.108h-32.817zm-49.78 16.69q5.066.197 6.252 1.652c1.186 1.455 1.186 3.75 1.186 8.338v9.99q0 6.482-1.348 8.136-1.294 1.655-6.09 1.854zm67.132 7.26q1.725 26.728 3.45 44.922h-7.76q.861-14.224 4.31-44.923M77.768 201.984l-4.198 8.191-9.162 1.206 6.535 6.501-1.68 9.04 8.235-4.172 8.125 4.382-1.445-9.082 6.701-6.331-9.129-1.438zm27.918 24.086-4.195 8.191-9.165 1.205 6.536 6.502-1.68 9.039 8.237-4.172 8.125 4.383-1.446-9.082 6.7-6.332-9.127-1.437zm35.813 14.603-4.198 8.192-9.162 1.205 6.536 6.502-1.68 9.04 8.236-4.173 8.123 4.382-1.445-9.08 6.701-6.331-9.127-1.44z" aria-label="S B A" data-source="https://football-logos.cc"></path><!-- source: https://football-logos.cc --></svg>