<svg xmlns="http://www.w3.org/2000/svg" xml:space="preserve" viewBox="0 0 221.25 221.25"><!-- Source: https://football-logos.cc --><path d="M387-420.39c0 48.877-39.623 88.5-88.5 88.5s-88.5-39.623-88.5-88.5 39.623-88.5 88.5-88.5 88.5 39.623 88.5 88.5" style="fill:#8d1618;fill-opacity:1;fill-rule:nonzero;stroke:none" transform="translate(-262.5 636.112)scale(1.25)" data-source="https://football-logos.cc"></path><path d="M377.814-420.566c0 43.901-35.59 79.49-79.49 79.49-43.902 0-79.491-35.589-79.491-79.49 0-43.902 35.589-79.491 79.49-79.491 43.902 0 79.491 35.59 79.491 79.49" style="fill:#fefcf3;fill-opacity:1;fill-rule:nonzero;stroke:none" transform="translate(-262.5 636.112)scale(1.25)" data-source="https://football-logos.cc"></path><path d="M250.058-473.097h24.73v63.104q0 15.022.919 19.472 1.585 7.154 7.563 11.486 5.977 4.33 16.34 4.33 10.531.001 15.881-4.093 5.35-4.09 6.434-10.053 1.086-5.96 1.088-19.79v-64.456h24.73v61.213q0 20.986-2.007 29.653-2.003 8.666-7.394 14.628-5.39 5.963-14.416 9.5-9.024 3.534-23.563 3.536-17.55-.001-26.615-3.856-9.068-3.855-14.333-10.016-5.267-6.161-6.934-12.917c-1.618-6.677-2.423-16.537-2.423-29.575z" style="fill:#8d1618;fill-opacity:1;fill-rule:nonzero;stroke:none" transform="translate(-262.5 636.112)scale(1.25)" data-source="https://football-logos.cc"></path><!-- source: https://football-logos.cc --></svg>