<svg xmlns="http://www.w3.org/2000/svg" preserveAspectRatio="xMinYMid meet" viewBox="0 0 462.4 596.8"><!-- Source: https://football-logos.cc --><defs data-source="https://football-logos.cc"><style>.cls-2{fill:#fff22d}</style></defs><g id="Capa_2" data-name="Capa 2" data-source="https://football-logos.cc"><g id="Capa_1-2" data-name="Capa 1"><path d="M231.12 95c63.62 0 121.45 19.88 163.28 51.85 42 32 68 76.25 68 125 0 44.74-21.95 85.66-58 116.86-36.26 31.36-86.73 52.85-143.55 58.51v35.48h129.58v76.1H260.87v38h-59.35v-37.92H71.89V482.7h129.63v-35.55C144.7 441.48 94.22 420 58 388.64c-36-31.2-58-72.13-58-116.86 0-48.72 26-92.93 68-125C109.82 114.84 167.56 95 231.12 95m0 41.07c-52.39 0-100 15.29-134.45 39.92S41 234.53 41 271.78s21.26 71.28 55.68 95.91 82.06 40 134.45 40 100.11-15.3 134.6-40c34.34-24.63 55.68-58.59 55.68-95.91s-21.35-71.21-55.69-95.78c-34.49-24.68-82.14-40-134.6-40Z"></path><path d="M393.1 148.49c41.45 31.66 67.15 75.25 67.15 123.28 0 44.06-21.65 84.51-57.29 115.26-36.09 31.28-86.49 52.69-143.32 58.05l-.91.15v39.62h129.55v71.81H258.73v38h-55.07v-37.92H74v-72h129.66v-39.51l-1-.15C145.92 439.72 95.44 418.31 59.34 387c-35.56-30.74-57.2-71.2-57.2-115.25 0-48 25.69-91.63 67.07-123.29 41.53-31.7 98.89-51.36 161.91-51.36 63.17 0 120.45 19.65 162 51.39ZM95.44 174.26c-34.95 25-56.59 59.51-56.59 97.51s21.64 72.66 56.59 97.59 82.83 40.38 135.68 40.38S332.07 394.29 367 369.36s56.59-59.5 56.59-97.59-21.69-72.5-56.59-97.51-82.9-40.38-135.83-40.38-100.93 15.45-135.73 40.38" style="fill:#db812e"></path><path d="M334 199.58c.08.07.16.23.23.3A196 196 0 0 0 345.6 174c3.15-9 4.44-15.07 4.82-21 .62-7.81-.38-15.3-1.07-28.23l-.22-3.82-3.44 1.68c-2.25 1-4.48 2.12-6.81 3.23-4.06-18.34-10.05-34.13-17.67-47.66a131.8 131.8 0 0 0-40.61-44.89 178.8 178.8 0 0 0-67.15-28.37C191.12.35 168.79-.34 147.37.12h-2.52v21.42c0 7.78-4.36 15.83-9.49 24a82 82 0 0 0-5.35-10l-.61-1.07-30.59-3.06a16 16 0 0 0-2.75-.23c-9 0-17.14 7.26-22.87 19-5.43 11.13-8.79 26.51-8.79 43.33s3.36 32.28 8.79 43.44c5.73 11.7 13.84 19 22.87 19a16 16 0 0 0 2.67-.23l2-.19v7.3c0 10.79-2 20-6.19 27a32.22 32.22 0 0 1-18 14.22 21.6 21.6 0 0 0-7.41 4 9.1 9.1 0 0 0-3.37 7.19v14a5.3 5.3 0 0 0 2.83 4.51 12.9 12.9 0 0 0 5.41 1.48h-.07c10.53.77 22 1.47 34.22 2.14A129.89 129.89 0 1 0 334 199.58m-2.48-3.12-.56-.67Zm-3-3.52-.13-.15Z"></path><path d="M285.88 150.94q23.61-11 47-22.34l1.23-.57c-3.94-18.32-9.84-34-17.36-47.45a126.8 126.8 0 0 0-39.09-43.06A172.8 172.8 0 0 0 212.54 10C191.43 5.63 170.39 4.86 150 5.17v16.37c0 10.12-5.92 19.9-12.22 29.66a91 91 0 0 1 1.83 5.29h8.79l.76 1.22c.54.92 1 1.83 1.54 2.75h7c3 0 10.94 5 16.52 11.93C178 77.13 181 82.79 181 88.68v16.9c0 5.2-1.07 8.72-2.68 11.47a20.45 20.45 0 0 1-6 6.28s-.46.38-1 .76c-2.6 1.91-5.27 3.9-6.73 7.5l-10.86 25.92a25.4 25.4 0 0 1-6.19 9.26 15.65 15.65 0 0 1-10.54 3.82h-21.9v-16.52l-9.33.92v7.8c.08 11.7-2.14 21.72-6.81 29.59a37.2 37.2 0 0 1-20.73 16.45 16.3 16.3 0 0 0-5.66 3 4.28 4.28 0 0 0-1.68 3.36v14c0 .07.16 0 .38.15a6.3 6.3 0 0 0 2.91.76h.07c17 1.23 36.1 2.3 56.82 3.29s42.91 1.84 66.24 2.68l88-55.39a17.5 17.5 0 0 1-6.23-2.81 15 15 0 0 1-1.93-1.7C258.22 187 244 195.23 232.69 202.39 219.83 210.43 211 217 204 223.5a3.05 3.05 0 0 1-2.16 1.17 3.2 3.2 0 0 1-2.2-1.25 3.37 3.37 0 0 1-1.15-2.24v-.06a3.05 3.05 0 0 1 1.25-2.05c7.36-6.9 16.51-13.67 29.67-21.94 11.37-7.15 25.55-15.34 44.47-26.2a12.9 12.9 0 0 1-.67-5c.39-5.42 4.14-11.08 12.71-15Z" class="cls-2"></path><path d="M86 214.57a288 288 0 0 0 47.53 6.43c16.29.92 33 .77 50.78.31 1.3-.08 2.52-.08 2.6 2.44s-1.15 2.61-2.45 2.61c-17.89.53-34.79.68-51.24-.23a294.5 294.5 0 0 1-48.41-6.58c-1.22-.3-2.44-.61-1.91-3.06s1.84-2.22 3.06-1.91Z"></path><path d="M298.88 174q9.19-4.17 18.35-8.41c12.16-5.51 21.26-9.72 28.46-13.24l-1.23-23.55c-2.6 1.15-5.74 2.75-9.33 4.43-12 5.74-28.3 13.54-47.11 22.26-6.58 3.06-9.49 7-9.71 10.71a7.3 7.3 0 0 0 .84 4 9.4 9.4 0 0 0 2.9 3.44c3.75 2.75 9.86 3.52 16.83.31Zm31.82 21.5a188 188 0 0 0 10.08-23.22 88 88 0 0 0 3.75-13.62c-6.5 3.06-14.68 6.81-25.16 11.62-3 1.38-6.19 2.83-10.23 4.67a130 130 0 0 1 21.56 20.55M96.06 36.3c-7 0-13.39 6.12-18.28 16.14-5.13 10.47-8.26 25-8.26 41.07s3.13 30.67 8.26 41.14c4.89 9.94 11.32 16.14 18.28 16.14s13.46-6.2 18.27-16.14c5.13-10.47 8.34-25 8.34-41.14s-3.21-30.6-8.34-41.07C109.52 42.41 103 36.3 96.06 36.3" class="cls-2"></path><path d="m126.34 39.28-16-1.61a45.9 45.9 0 0 1 9.4 14.3c5 10.94 8 25.62 8 41.53 0 16.06-3.05 30.75-8 41.76a46.2 46.2 0 0 1-9.48 14.15l16.14-1.61a90.8 90.8 0 0 0 9.87-24.09 125.84 125.84 0 0 0 0-60.34 89.2 89.2 0 0 0-9.95-24.09ZM144 110.41a78.3 78.3 0 0 0 5.28-14.69c3.28-13.84.91-25.31-3.83-34.11H141a1.25 1.25 0 0 1 .15.54 124.7 124.7 0 0 1 3.9 31.43 134 134 0 0 1-1.05 16.83" class="cls-2"></path><path d="M120.22 165.47H137a10.38 10.38 0 0 0 7.19-2.53 20.3 20.3 0 0 0 4.82-7.41l10.86-25.93c2.06-4.89 5.27-7.27 8.41-9.64a8.4 8.4 0 0 0 1-.68 17.1 17.1 0 0 0 4.58-4.74c1.23-2.07 2-4.82 2-9V88.68c0-4.51-2.44-9.1-5.66-13.07-4.74-5.81-10.63-10-12.54-10h-4.74c3.21 8.72 4.2 19.19 1.37 31.28-2.14 8.87-6.34 18.66-13.3 29.21a94.4 94.4 0 0 1-10.86 25.47l-.69 1.07-1.22.08-8 .84v11.93Z" class="cls-2"></path><path d="M94.68 42.64c12 0 21.8 22.79 21.8 50.71s-9.79 50.7-21.8 50.7-21.8-22.79-21.8-50.7 9.79-50.71 21.8-50.71"></path><path d="M94.68 47.77C85.5 47.77 78 68.27 78 93.35s7.49 45.58 16.67 45.58 16.67-20.49 16.67-45.58-7.49-45.58-16.67-45.58Z" class="cls-2"></path><path d="m326 331.82 10.25 11.62a123.2 123.2 0 0 0 18-73.58l-11.7 4.06zm-206.42-57.9-11.55-4a123.4 123.4 0 0 0 18 73.27l10-11.4-16.44-57.89Zm69.6-11.17L159.31 253l-33 20.57 15.91 55.91 48.57 5.2 14.15-20.35-15.68-51.62ZM256.89 314l14.46 20.72 48.56-5.2 15.91-55.91-33-20.57-29.74 9.64zm.23 67.14 9.41-42.06-14.91-21.34h-41.08l-15 21.34 9.46 42.06Zm-41.91 20a123.25 123.25 0 0 0 49.56-3.59l-7-9.87h-53.5l-6.88 9.79a116.4 116.4 0 0 0 17.82 3.63Zm-17.36-159.88c-13.29-.51-26.2-1-38.64-1.51l1.78 7.09 32.81 10.63 34.11-20.19V222.8l-28.6 18zm36.56-4 34 20.12 32.66-10.56 9.63-38.46-26.29-21.15-50 31.48zm60.32-56.52-4.48 2.82 25.22 20.29 11.53-2.74a124.3 124.3 0 0 0-24.58-23l-1.35.61a28.4 28.4 0 0 1-6.29 2.06Z" style="fill:#fff"></path><path d="M341 540.06v-38.23h7.26v31.58h15.53v6.65Zm-69.8-12.54 7-.76a9.83 9.83 0 0 0 2.6 5.66 7.75 7.75 0 0 0 5.28 1.76 7.44 7.44 0 0 0 5.2-1.61 4.79 4.79 0 0 0 1.84-3.67 4.14 4.14 0 0 0-.77-2.37 6.3 6.3 0 0 0-2.6-1.68c-.85-.31-2.83-.85-5.82-1.69-3.89-1-6.57-2.29-8.18-3.82a10.4 10.4 0 0 1-3.28-7.73 10.55 10.55 0 0 1 1.53-5.5 10.16 10.16 0 0 1 4.51-3.9 16.2 16.2 0 0 1 7-1.38c4.51 0 7.87 1.07 10.17 3.21a11.7 11.7 0 0 1 3.59 8.49l-7.26.38a6.88 6.88 0 0 0-2-4.28c-1-.91-2.52-1.3-4.59-1.3a7.8 7.8 0 0 0-4.89 1.37 2.86 2.86 0 0 0-1.15 2.38 2.94 2.94 0 0 0 1.07 2.36c.91.77 3.13 1.69 6.65 2.53a32.5 32.5 0 0 1 7.8 2.83 10.3 10.3 0 0 1 4 3.9 12.45 12.45 0 0 1 1.38 6.12 11.75 11.75 0 0 1-1.69 6.19 10.62 10.62 0 0 1-4.82 4.36 19.7 19.7 0 0 1-7.79 1.38c-4.59 0-8-1.15-10.48-3.37s-3.85-5.57-4.3-9.86m-29.07 12.54v-38.54h25.62V508h-18.43v8.57h17.13v6.5h-17.13v10.47h19.12v6.5Zm-119.38-14.14 7 2.36c-1.07 4.21-2.83 7.35-5.35 9.41a16 16 0 0 1-21.26-2.22c-3.06-3.51-4.59-8.26-4.59-14.38 0-6.35 1.53-11.4 4.59-14.91a15.58 15.58 0 0 1 12.16-5.35A14.48 14.48 0 0 1 126 505a16.6 16.6 0 0 1 3.67 7.11l-7.15 1.89a8.23 8.23 0 0 0-2.6-4.74 7.42 7.42 0 0 0-5-1.76 7.89 7.89 0 0 0-6.43 3.13c-1.68 2-2.52 5.36-2.52 9.95 0 4.89.84 8.33 2.44 10.4a7.85 7.85 0 0 0 6.35 3.13 6.92 6.92 0 0 0 5-2c1.46-1.29 2.45-3.35 3-6.18Zm214.91 14.14h-7.88l-3.14-8.79h-14.3l-3 8.79h-7.64l13.92-38.54h7.64Zm-13.32-15.21-5-14.31-4.81 14.31ZM207.1 540.06v-38.54h15.22a24.3 24.3 0 0 1 8.34 1.07 8 8 0 0 1 4.13 3.67 11.34 11.34 0 0 1 1.61 6 10.75 10.75 0 0 1-2.37 7.19 11 11 0 0 1-7.11 3.52 15.3 15.3 0 0 1 3.9 3.29 49 49 0 0 1 4.13 6.27l4.36 7.49h-8.65l-5.27-8.41a49.5 49.5 0 0 0-3.83-5.66 5.3 5.3 0 0 0-2.14-1.61 11.3 11.3 0 0 0-3.67-.38h-1.45v16.06Zm7.19-22.25h5.36c3.51 0 5.66-.15 6.5-.46a4 4 0 0 0 2.07-1.61 5.7 5.7 0 0 0 .68-2.9 5 5 0 0 0-.91-3.14 4.2 4.2 0 0 0-2.76-1.53c-.61-.08-2.37-.15-5.28-.15h-5.66Zm-42.21-16.29h14.37a42 42 0 0 1 6.35.38 8 8 0 0 1 3.67 1.6 8.17 8.17 0 0 1 2.76 3.22 8.8 8.8 0 0 1 1.14 4.51 9.6 9.6 0 0 1-1.37 5 8.6 8.6 0 0 1-3.68 3.36 9.68 9.68 0 0 1 5.05 3.52 9.88 9.88 0 0 1 1.76 5.82A12.2 12.2 0 0 1 201 534a10.14 10.14 0 0 1-3.13 4 9.6 9.6 0 0 1-4.82 1.83c-1.23.08-4.13.23-8.72.23h-12.26v-38.54Zm7.26 21.72v10.32H186a30.5 30.5 0 0 0 5-.22 4.58 4.58 0 0 0 2.68-1.53 5 5 0 0 0 1-3.3 5 5 0 0 0-.76-2.9 4.56 4.56 0 0 0-2.3-1.83 26 26 0 0 0-6.42-.54Zm0-15.29v8.86h4.74c2.83 0 4.59 0 5.28-.07a4.48 4.48 0 0 0 2.9-1.38 4.36 4.36 0 0 0 1.07-3.06 4.55 4.55 0 0 0-.91-2.9 4 4 0 0 0-2.76-1.3 52 52 0 0 0-6.19-.15ZM133.22 521a26.6 26.6 0 0 1 1.61-9.86 17.3 17.3 0 0 1 3.37-5.28 13.9 13.9 0 0 1 4.59-3.52 19 19 0 0 1 7.72-1.53c5.36 0 9.56 1.76 12.7 5.28s4.74 8.48 4.74 14.76-1.53 11.09-4.67 14.6-7.34 5.28-12.61 5.28-9.57-1.76-12.78-5.28-4.67-8.31-4.67-14.45m7.42-.23c0 4.36 1 7.65 2.83 9.87a9.14 9.14 0 0 0 14.23.08c1.84-2.29 2.83-5.59 2.83-10.1s-.92-7.72-2.75-9.86a8.72 8.72 0 0 0-7.19-3.29 8.9 8.9 0 0 0-7.19 3.36c-1.84 2.14-2.76 5.51-2.76 9.94"></path></g></g><!-- source: https://football-logos.cc --></svg>