<svg xmlns="http://www.w3.org/2000/svg" viewBox="0 0 92.75 104"><!-- Source: https://football-logos.cc --><defs data-source="https://football-logos.cc"><style>.cls-1,.cls-8{fill:#fff}.cls-2{fill:#761aad}.cls-3{fill:#2e269c}.cls-4{fill:#f1ce53}.cls-7,.cls-8,.cls-9{fill-rule:evenodd}.cls-7{fill:#1e1e1c}.cls-9{fill:#53aa33}</style></defs><g id="Capa_2" data-name="Capa 2" data-source="https://football-logos.cc"><g id="Capa_1-2" data-name="Capa 1"><path d="M92.75 60c0 20.92-17.34 44-46.55 44C17.58 104 0 80.87 0 60V0h92.75Z" class="cls-1"></path><path d="M90.61 60.93c0 16.35-14.88 40.93-44.08 40.93S2.14 77.18 2.14 60.93V2.14h88.47Z" class="cls-2"></path><path d="M46.53 101.88a45.5 45.5 0 0 1-19.32-4.12A42.9 42.9 0 0 1 13.32 87.5a45.8 45.8 0 0 1-8.39-13.31 35.8 35.8 0 0 1-2.81-13.26V2.12h88.51v58.81a36.3 36.3 0 0 1-2.78 13.3 45.4 45.4 0 0 1-8.32 13.31 42.85 42.85 0 0 1-13.79 10.24 45.1 45.1 0 0 1-19.21 4.1M2.15 2.15v58.78c0 8.76 4.29 18.93 11.19 26.54 5.94 6.56 16.52 14.37 33.19 14.37s27.09-7.79 33-14.33c6.83-7.6 11.08-17.78 11.08-26.58V2.15Z" class="cls-2"></path><path d="M74.88 59.27c0 10.49-9.76 26.8-28.5 26.8S17.87 69.71 17.87 59.28V17.87h57Z" class="cls-3"></path><path d="M46.38 86.09A28.5 28.5 0 0 1 34 83.36a27.8 27.8 0 0 1-8.92-6.76 30.4 30.4 0 0 1-5.38-8.73 23.6 23.6 0 0 1-1.81-8.59V17.86h57v41.41a23.3 23.3 0 0 1-1.82 8.62 30.2 30.2 0 0 1-5.4 8.72 28 28 0 0 1-8.93 6.76 28.5 28.5 0 0 1-12.36 2.72M17.9 17.88v41.4c0 5.66 2.75 12.29 7.18 17.3a27.69 27.69 0 0 0 21.31 9.48 27.72 27.72 0 0 0 21.26-9.46c4.45-5 7.22-11.66 7.22-17.33V17.88Z" class="cls-3"></path><path d="M64.4 57.59a18 18 0 0 1-36 0V28.35h36Z" class="cls-4"></path><path d="M46.53 19.06c-.12.5 0 2.2.7 2.5 1.57-.91 2.15 0 3.19-1.46a2.3 2.3 0 0 1-1.5 2.32c.28.59 2.52.18 2.65 2.12a2.39 2.39 0 0 0-2.77-.36 2.57 2.57 0 0 1 .77 2.3 2.87 2.87 0 0 0-2-1.34 2.8 2.8 0 0 1-1 .31c-.13.46-.08 1.55.5 1.9a2 2 0 0 1-1.94-2 1.46 1.46 0 0 1-.92-.86c-.87.53-2.6.55-3.1-.81 1.29.63 3-.15 3-.92a2.76 2.76 0 0 1-1.7-2.71 3 3 0 0 0 2.78 1.47 2.73 2.73 0 0 1 1.35-2.46" style="fill:#f1ce53;fill-rule:evenodd"></path><path d="M41.89 82.46a4.56 4.56 0 1 1 9.12 0 4.8 4.8 0 0 1-.22 1.43 4.56 4.56 0 0 0-8.67 0 4.5 4.5 0 0 1-.23-1.43" style="fill:#ececec"></path><path d="m26.71 25.22-2.3-.62.22 2.38-1.37-1.97-1.36 1.97.22-2.38-2.31.62 1.7-1.68-2.17-1 2.38-.2-1.02-2.16 1.95 1.38.61-2.31.61 2.31 1.95-1.38-1.01 2.16 2.38.2-2.17 1zm46.25 0-2.31-.62.22 2.38-1.36-1.97-1.37 1.97.22-2.38-2.3.62 1.69-1.68-2.17-1 2.39-.2-1.03-2.16 1.96 1.38.61-2.31.61 2.31 1.95-1.38-1.02 2.16 2.38.2-2.17 1zM32.42 74.93l-2.3-.63.22 2.38-1.37-1.96-1.36 1.96.22-2.38-2.31.63 1.7-1.68-2.17-1.01 2.38-.19-1.02-2.17 1.95 1.38.61-2.31.61 2.31 1.95-1.38-1.01 2.17 2.38.19-2.17 1.01zm35.07 0-2.31-.63.22 2.38-1.36-1.96-1.37 1.96.22-2.38-2.3.63 1.69-1.68-2.17-1.01 2.38-.19-1.01-2.17 1.95 1.38.61-2.31.6 2.31 1.96-1.38-1.02 2.17 2.38.19-2.17 1.01z" class="cls-4"></path><path d="M44.27 30.72c.71-1 1.57-.44 2-.19 1 .62 2.11 1.59 3.07 1.68 2.56-.25 1-2.82.58-3.33.69 0 2.34 2.12 1 3.62.9-.06 2.63-.78 3.2-.2a.82.82 0 0 1-.15 1.23c0-.37 0-.73-.47-.83-.91-.21-1.92.58-3.62.61.52.71.74 1.7 1.21 2.25s1.33-.13 1.19-1c-.12-.5.21-.53.32 0a3.8 3.8 0 0 1-.28 2.05c.52.18 1.07 2 .8 2.15s-.85-2.63-1.6-1.25c-.87 2.49.35 3.63 1.43 4.1.28.13.16.33-.19.38a1.9 1.9 0 0 1-1-.21 10.3 10.3 0 0 1-1.61 4.67 7.2 7.2 0 0 0 1.74-.76c.67-.21 1.2 1.49 2.1 1.09 1-.69-.94-1.83-.52-2.48.58-.88 1.92 1 2.48.31.37-.6-1.42-1.14-1.1-2.13s1.68.55 1.76-.58-2.09-.52-2.2-1.54c-.22-1.21 1.14-2.88 1.21-3.51s-1.07-1-1-1.32c.47-.8 1.83.32 2 0 .43-1.51 1.23-3.16 2-2.94 1.26.77-2.39 4.57-1.43 4.86.26 0 .45-.2.66-.43.86-1 1.5-3.14 2-2.89s-.8 2.25-1.43 3.16c-.14.22-.15.59.27.43 1.18-.62 1.79-3.78 2.84-3.32.76.44-.11 1.61-1 2.62s-1.82 1.9-1.5 2.19a.42.42 0 0 0 .48 0 14.5 14.5 0 0 0 2-1.84c.36-.3.45.09.21.36a10 10 0 0 1-1.88 1.81c-.43.28-.4.6-.24.8.7.7 3-2 3.27-1.43.25.31-.47 2.16-2.39 2.48-.74.16-.56.81.3.82 1.54 0 2-1.08 2.31-.57s-1.1 1.15-2.47 1.18-1 .54-.74.6a10 10 0 0 0 2.66-.12c.77 0 .65 1 0 1.07-.91.23-2.8-.36-3.63.09-.29.09-.52.67.2.78 1 .13 3.4-.13 3.3.64s-2.6-.18-3.55-.14c-.44 0-.55.39.06.57.84.29 2.63.28 3.53 1 .48.36 1 1.7-.58 1.3-1.39-.44-2.42-1.23-3.41-1.4-.46 0-.36.46-.28.61.53 1 3 1.56 2.72 1.87-.3.54-3.7-2.21-4.06-1.46-.63 1.52 5.93 2 4.8 4-1 1.23-2.61-1-3.54-1.56-.31-.22-.66-.17-.58.22.33 1.06 1 1.33 1.19 1.82.16.32-.11.63-.48.43-1.54-1-1.48-3-2.38-3.53-.42-.21-.63 0-.64.44.11 1.61 2.11 2.89 2.62 4 .36.87-.33 1-.62.92a2.8 2.8 0 0 1-1.75-1.93 1.85 1.85 0 0 1-.43.69c-.24.22-.36.16-.15-.18a2.23 2.23 0 0 0 .2-1.25 6.1 6.1 0 0 0-.71-2.4c-.24-.39-.52-.18-.44.32.06.7.52 1.92.09 1.91-1-.25-.45-2.89-1-2.86s-.36 1.07-.36 1.31c.06 1.18.47 1.77 0 1.82-1.18 0-.83-1.82-1.08-2.64s-.69-.4-.73 0 .2 1-.15 1 0-.85-.74-.83c-.45 0-.92 1-.37 1.31 1.17.82 2.71-.12 2.16 3 .08.25 1.13.31 1.9-.27-.46 1.81-2.09 1-2.18 1.54a3.05 3.05 0 0 0-.28 1.49c.28.66 2.56 1.79 3.31 2.06.35-1.68 3.28-3.88 5.3-.92a2.66 2.66 0 0 0-4.26 1.05c1.59.24 1.61-.63 2.32-.8a1.3 1.3 0 0 1 .89.18 2 2 0 0 1 1.25 1.7c-1.27-1.62-2.37-.88-3 .06 0 .3 2.6.71.79 3.21.46-1.51-.51-3-3.32-2.92-1.8.23-.39 1.79-1.71 2a3.3 3.3 0 0 0 .69 1.17c-.7-.16-2-1.26-1.58-1.49 1.22-.66-.49-1 1.27-2 .08-.91-.6-1.5-2.5-2-.54-.09-.25-.73-.44-1.12-.34-.85-1.44.41-.92-2.06 0-.33-.5-.62-.87-.46 0 .85-.51 1.48-.33 2.88.11.82.9 1 1.52.33a1.23 1.23 0 0 1-2 1c-.19 1.52 1.19 1.83 1.36 2.31a1.3 1.3 0 0 1-1 .17c.23 1.68.2 2.42 1 2.86 1.19.44 1.51-.3 1.56-.69.11-1.17-1.48-1.15-1-.17-.75-.34-.26-1.39.59-1.21 1.57.3 1.58 3.59-1.49 3 .06.47 0 1 .46 1.23a1.39 1.39 0 0 0 1.54-1.08c.41 2.08-1.59 2.13-1.61 2.87-.21 2.78 4.11 2.56 5 1.13a2.18 2.18 0 0 1-2 1.76c1.5 1.07 3.89.18 3.76-2.86 0-1.71-2.68-2.34-3-.24a.43.43 0 0 1-.85.07c-.58-1.78 2-3.14 3.71-2 .25-3.08 4.59-2.28 3.55.46a1 1 0 0 0-1.13-.68c-.58.08-.59.87-.6 1.1-.26 4.12-1.85 6.09-6.19 5 1 1.37-.82.6-1 1.24-.46 1.28-1.57.87-2.42 1.29a32 32 0 0 1 2.28-2.81 16 16 0 0 1-1.19-1c-2.24-.72-.54-1-1.59-2-.74-.82.4-1 .25-1.62s-.66-.37-.75-.64c-.19-.53-.54-.56-.55-.31a15.6 15.6 0 0 0 .18 4.5c.41 1.38 1.56.5 1.81 1.27.08.34-.22.56-.65.59-.13 0-.63-.09-.89.26s-.41 1.65-.79 1.7c-.55 0-.09-1.51-.65-1.72-.89-.31-1.14 1.2-1.69.82a2.47 2.47 0 0 1-.61-1.68c.06-.46 1.46.42 1.94-.09.8-.63.5-4.61.25-6.43-.29.26-.27.25-.58.55s.35.68.2 1a18 18 0 0 1-2.5 4.4c-.09.47-.06 1.24-.34 1.29s-.59-.41-.85-.77c-1.1.22-2.61-.19-4.06-1.81-.88-1-1-.44-2.07-2.64-.66-1.46-1.72-1.06-1.15.69-.74-.42-1.43-2.15-.23-2.76 1.73-.54 2.13 1.79 3.12 2.21.43-.44.68-3.14 3.35-2.75a1.62 1.62 0 0 1 1.48 1.59 1.39 1.39 0 0 1-1.34 1.29c-.61 0-.52-.33-.18-.45s.72-.31.75-.73c.12-.89-.82-1-1.21-1-1.1 0-1.82 1.54-1.41 2.11a1.62 1.62 0 0 1 1.47-1 1.94 1.94 0 0 0-.35 2.72 1.53 1.53 0 0 0 2.51-.29c1.33.21 2-1.38 2.26-2.27-.82.07-1.16-.09-1.3-.25s-.13-.33-.05-.38c.24-.18.82.2 1.31-.12a2.22 2.22 0 0 0 .4-2.32c-2.13 2.26-4.67-.14-3.46-1.43a1 1 0 0 1 1.78.44c-1.12-.57-1.71.51-.68 1a1.55 1.55 0 0 0 1.7-.45c.6-.65.33-2 .28-2.41-.17-.82-.39-.83-1.1-.57-.18.09-.34 0-.19-.21a5 5 0 0 0 .68-2.6c-.07-2.14-1.12-1.23-1.59 0 0 .36.44.55.47 1.49 0 .24-.12.71-.47.08s-1.16-.25-1.13.82c-.88-.74-1.62-.3-1.43.75-.16-.2-.47-.82-.88-.58-.82.38 1.43 1.18 0 2.91a3.45 3.45 0 0 0-.66-1.82 1.57 1.57 0 0 0-2.27-.31c-1.34 1.41.55 1 .69 3.06a2 2 0 0 1-1.9-1.57c-.19-1.07-.28-1.08-.47-1.1-.7.08-.13 1.57-1.25 2.58-1.33-2.72 1.5-3 1.34-3.74a2.34 2.34 0 0 0-2.42 1.32A1.84 1.84 0 0 1 33.25 59c1.23-.22 2.4.6 3.92.5a10.4 10.4 0 0 0 3.26-1.36c0-.17 0-.39-.07-.65-2.22-.11-1.69-.9-.13-1.08 0-.6-.06-1-.07-1.4s-.08-.49.4-.88c.89-.86 1.85-2.73 1-2.64s-1.56 3.2-2.66 4.05c-.8.62-1.34.08-1.06-.58.34-.81 1.54-2 1.7-2.58.3-.8-.08-1.15-.66-.22a21 21 0 0 0-1.43 2.42c-1 1.8-1.13.58-.17-.82.53-.78.72-1.19 1.1-1.85s-.18-.84-.55 0A5.73 5.73 0 0 1 35 54.74c-1.55.56-1.91-1.06-.61-1.59 1.71-.91 2.39-1.43 2.67-1.9.22-.31 0-.7-.36-.63a4.44 4.44 0 0 0-2.36 1.71c-.37.49-1 .23-.44-.44a5.47 5.47 0 0 1 2.33-1.65c.89-.33.63-1.15-.22-.64a4.43 4.43 0 0 1-2.06 1.21c-1 .25-1 .94-1.4 1.27-.39.52-1.32.3-.91-.88.77-1.87 2.48-1.35 3.25-2.34s.11-1.18-.36-.68a4.4 4.4 0 0 1-2 1.21c-.45.09-.79-.23-.66-.53.19-.6 2.23-.84 2.61-1.43.12-.17.25-.66-.41-.49s-1.17.43-2.12.71a1.21 1.21 0 0 1-1.66-.77 1 1 0 0 1 .48-1.07c1.09-.52 1.76-.22 2.83-.41.75-.17.83-.77.28-.77a7.2 7.2 0 0 1-3.22-.38c-.51-.24-.24-.65.61-.36 2.58.69 3.82-.17 2.39-.61-.55-.3-2.78-.11-3.49-.88-.4-.45-.11-1.07.8-1a5 5 0 0 1 1.57.33c.89.35 1 0 .4-.28a5.48 5.48 0 0 1-2.66-2.33c-.32-.75.29-.79.63-.33.52.53 1 1.9 2.5 2 .36 0 .63 0 .55-.27-.49-.88-2.14-1.7-2.53-3-.22-.93.3-1 .63-.77 1.22.87 1.79 2.56 2.37 3.14.8.79 1.62-.06 1-1-.51-1.3-2.37-3-2.59-4.38-.32-1.91 1-1.48 1.4-.77s1 3.38 2 4.34c.4.44.7.25.53-.19-.28-1.13-1.61-3.23-1.77-4.26-.19-.69.38-1 .58-.25a44 44 0 0 1 1.68 4.34c.27 1.37 1.11 1.07 1 .36-.36-2.47-1.18-3.27-1.68-5.25-.33-1.4.83-1.45 1.35-.52.47.77.9 2.21 1.18 2.78a1.29 1.29 0 0 1 2 .82c.13.39-.29.6-.47.3-.63-1-1.09-.63-.88-.11a3.13 3.13 0 0 1-.19 2.75c-.32.49 1.25 2.11.63 2.72-.8.67-1.38-.46-2.64-.6-1.26 0-1.43.91-1.21 1.51s.6.17.72 0c.34-.43.64.06.74.47.13.61.44.46.91.7s1 1.19-.78 1.16c-1.15.06-.79 1.08-.08 1a5.1 5.1 0 0 0 1.4-.6c.66-.28 1.24 0 .77.82s-.12 1.16.09 1.19c.47.06 1.14-.94 1.89-.83.55.08 1.36.12 1.6-.11.38-.39-.09-.91-.36-1.21s-.14-.58.19-.38c2 1 2.17-.94 1.35-1.18-1.1-.28-2.2.27-2.13-.34.33-1.12 3.83.72 3.21-.9-.63-1.17-2.2.35-2.27-.45 0-.35.93-.84 1.57-.43 1.4 1 1.35.06 1-.19a3.3 3.3 0 0 1-.74-.66c-.5-.66.1-1 .49-.44s1.12.72 1.19.36c.16-.77-1.65-1.74-3.31-.9-.87.51-.79.14-.3-.35a2.87 2.87 0 0 1 2.81-.68c.61.09.51-.32 0-.52a4.7 4.7 0 0 1-.83-.5c-.38-.27-.47-.71.11-.33a1.34 1.34 0 0 0 1.58.06.89.89 0 0 0-.12-1.35c-.31-.2-.66 0-.65-.94-.34-.1-1.11.42-1.69.42-.19-.63 1.39-1.58 1-1.83A2.47 2.47 0 0 0 42.26 35c-.61-1.71.91-2.67 2-4.24" class="cls-7"></path><path d="M43.52 34.79c.5-.48 1.08-.32.39.36a15.4 15.4 0 0 0-2.56 3.07 7.3 7.3 0 0 1 2.17-3.43" class="cls-7"></path><path d="M19.75 14.1V5.24h6.56v1.5h-4.77v1.97h4.44v1.49h-4.44v2.41h4.94v1.49zm28.85 0V5.24h3.77a6.5 6.5 0 0 1 2.07.24 2 2 0 0 1 1 .85 2.53 2.53 0 0 1 .39 1.39 2.37 2.37 0 0 1-.59 1.65 2.65 2.65 0 0 1-1.57.79 5.5 5.5 0 0 1 1.12 1.24c.61.9 1.75 2.7 1.75 2.7h-2.11l-1.28-1.93a13 13 0 0 0-.94-1.3 1.4 1.4 0 0 0-.54-.37 2.9 2.9 0 0 0-.91-.1h-.36v3.7ZM50.4 9h1.32a7 7 0 0 0 1.61-.11 1 1 0 0 0 .5-.37 1.17 1.17 0 0 0 .17-.68 1 1 0 0 0-.24-.72 1.07 1.07 0 0 0-.67-.35H50.4Zm16.55 5.1V5.24h6.56v1.5h-4.77v1.97h4.43v1.49h-4.43v2.41h4.94v1.49zM9.89 5.24h3.26a6.4 6.4 0 0 1 1.68.17 2.9 2.9 0 0 1 1.34.82A3.8 3.8 0 0 1 17 7.66a6.4 6.4 0 0 1 .29 2.1 5.8 5.8 0 0 1-.29 1.88 3.9 3.9 0 0 1-1 1.57 3.14 3.14 0 0 1-1.25.71 5.6 5.6 0 0 1-1.58.18H9.89Zm1.79 1.5v5.86H13a4.7 4.7 0 0 0 1.08-.08 1.55 1.55 0 0 0 .72-.37 1.9 1.9 0 0 0 .47-.85 6 6 0 0 0 .18-1.63 5.3 5.3 0 0 0-.18-1.57 2 2 0 0 0-.51-.86 1.74 1.74 0 0 0-.76-.42 9 9 0 0 0-1.47-.08Zm17.4 7.36V5.24H32a10.4 10.4 0 0 1 2.13.13 2.4 2.4 0 0 1 1.27.87A2.78 2.78 0 0 1 35.87 8a2.86 2.86 0 0 1-.3 1.37 2.5 2.5 0 0 1-.75.87 2.34 2.34 0 0 1-.93.42 9.6 9.6 0 0 1-1.85.13h-1.16v3.31Zm1.8-7.36v2.52h1a4.4 4.4 0 0 0 1.41-.14 1.2 1.2 0 0 0 .56-.43A1.25 1.25 0 0 0 34 8a1.15 1.15 0 0 0-.28-.8 1.22 1.22 0 0 0-.72-.4 8.6 8.6 0 0 0-1.28-.06Zm6.81 2.99a5.6 5.6 0 0 1 .41-2.28 4.2 4.2 0 0 1 .83-1.22 3.3 3.3 0 0 1 1.14-.8A4.9 4.9 0 0 1 42 5.08a4.13 4.13 0 0 1 3.12 1.22 4.68 4.68 0 0 1 1.18 3.38 4.65 4.65 0 0 1-1.17 3.37A4.13 4.13 0 0 1 42 14.26a4.2 4.2 0 0 1-3.15-1.2 4.6 4.6 0 0 1-1.17-3.33m1.85-.06a3.3 3.3 0 0 0 .7 2.28 2.4 2.4 0 0 0 3.53 0 3.45 3.45 0 0 0 .68-2.32 3.34 3.34 0 0 0-.67-2.28A2.25 2.25 0 0 0 42 6.61a2.3 2.3 0 0 0-1.79.76 3.33 3.33 0 0 0-.68 2.3m20.75 4.43V6.74h-2.62v-1.5h7.03v1.5h-2.61v7.36zm15.36-2.87 1.74-.17a2.13 2.13 0 0 0 .62 1.28 1.9 1.9 0 0 0 1.29.41 2 2 0 0 0 1.3-.36 1.1 1.1 0 0 0 .43-.86.8.8 0 0 0-.18-.53 1.37 1.37 0 0 0-.64-.38c-.21-.08-.68-.21-1.43-.39a4.9 4.9 0 0 1-2-.88 2.35 2.35 0 0 1 .67-4 4.3 4.3 0 0 1 1.74-.31 3.72 3.72 0 0 1 2.51.74 2.62 2.62 0 0 1 .88 2l-1.8.06a1.53 1.53 0 0 0-.48-1 1.8 1.8 0 0 0-1.13-.3 2 2 0 0 0-1.16.35.63.63 0 0 0-.28.55.7.7 0 0 0 .26.54 4.6 4.6 0 0 0 1.64.59 9 9 0 0 1 1.93.64 2.6 2.6 0 0 1 1 .9 2.7 2.7 0 0 1 .35 1.41 2.6 2.6 0 0 1-.48 1.48 2.55 2.55 0 0 1-1.2 1 5 5 0 0 1-1.93.32 3.82 3.82 0 0 1-2.58-.77 3.34 3.34 0 0 1-1.07-2.26M11.89 73.45l.15 1.8a4 4 0 0 1-2.51-.41A4.17 4.17 0 0 1 8 69.78a4.62 4.62 0 0 1 2.64-2.3 4.84 4.84 0 0 1 3.61-.22 3.87 3.87 0 0 1 2.26 2.32 3.7 3.7 0 0 1 .1 2.82 3.47 3.47 0 0 1-1.18 1.45l-1-1.48a1.85 1.85 0 0 0 .76-1 1.8 1.8 0 0 0-.08-1.27 2 2 0 0 0-1.26-1.22 3.43 3.43 0 0 0-2.35.28 3.77 3.77 0 0 0-2 1.46 2 2 0 0 0-.07 1.73 1.82 1.82 0 0 0 .88 1 2.7 2.7 0 0 0 1.6.15m2.48 3.03a5.7 5.7 0 0 1 2-1.12 4.2 4.2 0 0 1 1.46-.12 3.3 3.3 0 0 1 1.35.39 4.9 4.9 0 0 1 1.47 1.26 4.16 4.16 0 0 1 1 3.2 4.68 4.68 0 0 1-1.89 3 4.65 4.65 0 0 1-3.35 1.21 4.12 4.12 0 0 1-2.91-1.66 4.15 4.15 0 0 1-1-3.21 4.56 4.56 0 0 1 1.85-3m1.21 1.4a3.32 3.32 0 0 0-1.34 2 2.27 2.27 0 0 0 .51 1.86 2.23 2.23 0 0 0 1.71.88 3.33 3.33 0 0 0 2.23-.92 3.35 3.35 0 0 0 1.35-2 2.49 2.49 0 0 0-2.23-2.7 3.33 3.33 0 0 0-2.21.92m3.54 10.51 5.33-7.08 1.39 1.04-.66 6.94 3.57-4.74 1.33 1-5.34 7.08-1.43-1.08.64-6.82-3.51 4.66zm15.72 5.36 1.41 1.14a4 4 0 0 1-2.05 1.52A4.19 4.19 0 0 1 29.53 94a4.65 4.65 0 0 1 .18-3.49 4.87 4.87 0 0 1 2.35-2.76 3.92 3.92 0 0 1 3.25 0 3.72 3.72 0 0 1 2.09 1.88 3.65 3.65 0 0 1 .23 1.86l-1.8-.27a1.9 1.9 0 0 0-.21-1.22 1.85 1.85 0 0 0-1-.82 2 2 0 0 0-1.75 0 3.5 3.5 0 0 0-1.43 1.9 3.66 3.66 0 0 0-.33 2.44 2 2 0 0 0 1.19 1.25 1.75 1.75 0 0 0 1.31 0 2.64 2.64 0 0 0 1.22-1m4.58 4.48.62-8.84 6.54.46-.1 1.49-4.76-.33-.13 1.96 4.42.31-.11 1.5-4.42-.32-.17 2.4 4.93.34-.1 1.5zm11.38.34-1.69-8.7 2.82-.55a10.3 10.3 0 0 1 2.08-.27 2.25 2.25 0 0 1 1.41.61 2.72 2.72 0 0 1 .84 1.59 3 3 0 0 1 0 1.41 2.4 2.4 0 0 1-.57 1 2.7 2.7 0 0 1-.83.59 11 11 0 0 1-1.79.48l-1.15.25.64 3.28Zm.36-7.59.48 2.48 1-.19a4.6 4.6 0 0 0 1.35-.4 1.2 1.2 0 0 0 .47-.54 1.24 1.24 0 0 0 .06-.72 1.12 1.12 0 0 0-.43-.73 1.23 1.23 0 0 0-.78-.25 8.6 8.6 0 0 0-1.27.18Zm13.67-.58 1.76-.4a3.9 3.9 0 0 1-.06 2.54 4.15 4.15 0 0 1-4.8 2.2 4.6 4.6 0 0 1-2.64-2.29 4.84 4.84 0 0 1-.73-3.55 3.94 3.94 0 0 1 2-2.56 3.73 3.73 0 0 1 2.77-.49 3.5 3.5 0 0 1 1.61 1l-1.33 1.25a1.9 1.9 0 0 0-1.11-.62 2 2 0 0 0-1.25.26 2 2 0 0 0-1 1.42 3.45 3.45 0 0 0 .61 2.29 3.74 3.74 0 0 0 1.72 1.77 2 2 0 0 0 1.68-.24 1.85 1.85 0 0 0 .84-1 2.65 2.65 0 0 0-.07-1.61" class="cls-8"></path><path d="m65.362 83.636 1.399-1.133 5.575 6.886-1.399 1.132z" class="cls-1"></path><path d="M71.84 84.5a5.6 5.6 0 0 1-1.49-1.77 4.4 4.4 0 0 1-.4-1.42 3.35 3.35 0 0 1 .13-1.39 4.8 4.8 0 0 1 1-1.69 4.18 4.18 0 0 1 3-1.62 5.47 5.47 0 0 1 5.18 4.33 4.64 4.64 0 0 1-4 4.81 4.57 4.57 0 0 1-3.3-1.25M73 83.05a3.32 3.32 0 0 0 2.19.94 2.3 2.3 0 0 0 1.74-.86 2.24 2.24 0 0 0 .54-1.84 4.21 4.21 0 0 0-3.51-3 2.27 2.27 0 0 0-1.72.88 2.3 2.3 0 0 0-.56 1.86 3.3 3.3 0 0 0 1.32 2m9.69-5.66-8.03-3.74.73-1.58 6.93-.8-5.39-2.51.7-1.5 8.04 3.75-.76 1.62-6.8.79 5.28 2.47z" class="cls-8"></path><path d="M22.2 61v-1.91a3.75 3.75 0 0 1-2.06-3.57 3.31 3.31 0 0 1 2.1 2.08v-1.73a4.47 4.47 0 0 1-2.4-3.1 2.93 2.93 0 0 1 2.43 1.65v-2a11.4 11.4 0 0 1-1.9-2.85.77.77 0 0 0 .81-.35 11.3 11.3 0 0 0 1.14 1.9c0-1.83.08-3.93 0-4a5.6 5.6 0 0 1-1.82-4.22 5.6 5.6 0 0 1 1.9 2.65v-5.6a1.73 1.73 0 0 0 1 1v4.25c.69-1.13 1.11-1.89 1.6-2.83a.8.8 0 0 0 .74.5c-.56 1.08-1.77 3.19-2.08 3.71a6.1 6.1 0 0 1 2.82-1.24 3.34 3.34 0 0 1-3.09 2.72v3a5.5 5.5 0 0 1 2.85-1.13 3.09 3.09 0 0 1-2.87 2.39v2A5.6 5.6 0 0 1 26 52.5a4.4 4.4 0 0 1-2.67 3.28v1.75a5.6 5.6 0 0 1 2.19-2.32A3.68 3.68 0 0 1 23.4 59v2.08a3.4 3.4 0 0 1-1.23 0" class="cls-9"></path><path d="M22.42 40c-1.55 1.31-2.08.12-1.16-1-1.56-.12-2.3-1.79.28-1.66-1-2.31.94-2.43 1.72-.9 1.16-1 2.72-.32 1.35 1.41 1.39.15 1.39 1.62-.22 1.59.24 1.51-1.07 2.23-2 .51m2.54 1.58c.08-1.19 1.57-2.77 1.37-1.11.52-.26 1.67-.63.76 1 1.15.12-.24 1.3-1.17 1.41s-1.05-.74-1-1.33m-5.31 6.59c-.31-1 .52-1.43 1-.55.59-.81 1.45-.14.82 1.33-.27.67-.62.82-1.19.72a1.88 1.88 0 0 1-1.04-.59c-.34-.41-.16-.92.41-.92" class="cls-8"></path><path d="M70.55 61.05v-1.92a3.74 3.74 0 0 0 2.07-3.56 3.25 3.25 0 0 0-2.1 2.07v-1.73a4.43 4.43 0 0 0 2.4-3.09 2.94 2.94 0 0 0-2.43 1.64v-2a11.4 11.4 0 0 0 1.9-2.86.76.76 0 0 1-.81-.34 12.3 12.3 0 0 1-1.14 1.89c0-1.82-.08-3.93 0-4a5.53 5.53 0 0 0 1.85-4.26 5.5 5.5 0 0 0-1.89 2.66v-5.6a1.73 1.73 0 0 1-1 1v4.25c-.68-1.12-1.11-1.89-1.6-2.82a.79.79 0 0 1-.73.5c.56 1.08 1.77 3.19 2.08 3.71a6 6 0 0 0-2.82-1.25 3.35 3.35 0 0 0 3.08 2.73v2.95a5.6 5.6 0 0 0-2.84-1.13 3.09 3.09 0 0 0 2.86 2.4v2a5.43 5.43 0 0 0-2.65-1.76 4.42 4.42 0 0 0 2.68 3.27v1.75c-.22-.48-1.34-2.06-2.19-2.31A3.7 3.7 0 0 0 69.35 59v2.08a4 4 0 0 0 1.24 0" class="cls-9"></path><path d="M70.33 40c1.55 1.3 2.08.11 1.16-1 1.56-.12 2.3-1.8-.28-1.66 1-2.32-.94-2.43-1.72-.91-1.16-1-2.72-.32-1.35 1.41-1.43.19-1.43 1.67.22 1.64-.24 1.51 1.07 2.23 2 .52m-2.54 1.54c-.08-1.2-1.58-2.77-1.37-1.11-.52-.27-1.67-.63-.77 1-1.15.12.25 1.31 1.18 1.42s1-.74 1-1.33m5.3 6.58c.32-1.05-.52-1.44-1-.55-.59-.82-1.45-.14-.82 1.32.27.67.62.83 1.19.72a1.8 1.8 0 0 0 1.05-.59.52.52 0 0 0-.42-.91" class="cls-8"></path></g></g><!-- source: https://football-logos.cc --></svg>