<svg xmlns="http://www.w3.org/2000/svg" fill-rule="evenodd" viewBox="86.5 205.17 424 436.79"><!-- Source: https://football-logos.cc --><path d="M495.784 424.76c-7.262-18.175-14.266-35.056-14.286-61.759-.006-19.577 5.846-37.445 11.731-50.393 2.942-6.47 5.884-11.71 8.082-15.314a103 103 0 0 1 2.643-4.133c.632-.936.963-1.383.963-1.386l1.421-1.933-73.55-84.582-30.866 26.99c-9.522-5.039-53.757-27.044-103.422-27.083-49.667.039-93.903 22.044-103.425 27.084l-30.866-26.989-73.547 84.58 1.42 1.933c0 .003.33.45.963 1.386 4.453 6.544 22.496 35.585 22.454 69.84-.017 26.703-7.023 43.584-14.286 61.759-7.262 18.13-14.733 37.499-14.714 67.739-.074 40.246 17.444 65.529 40.578 82.047 12.134 8.73 24.383 14.799 40.385 18.822 16.009 4.031 35.742 6.08 63.244 7.045 18.355.64 34.772 10.145 46.577 19.655a130 130 0 0 1 13.877 12.977 106 106 0 0 1 3.709 4.227c.418.504.734.897.943 1.161.21.263.298.38.298.38l2.388 3.147 2.39-3.147c.002 0 .403-.533 1.241-1.541 5.835-7.158 32.042-35.849 64.167-36.859 27.5-.965 47.232-3.014 63.239-7.045 16.004-4.023 28.251-10.092 40.388-18.822 23.132-16.518 40.649-41.801 40.576-82.047.021-30.24-7.45-49.609-14.715-67.739" style="stroke:none;fill:#ffc500" data-source="https://football-logos.cc"></path><path d="M490.213 426.988c-7.236-18.074-14.732-36.192-14.715-63.987.055-35.684 18.049-65.047 23.214-72.784l-66.504-76.479-29.508 25.8-1.85-1.051c-.003 0-.708-.401-2.121-1.143-1.412-.742-3.5-1.807-6.181-3.088-5.364-2.563-13.1-5.989-22.531-9.414-18.866-6.854-44.522-13.682-71.517-13.675-47.251-.032-90.362 20.969-100.232 26.177-1.41.742-2.118 1.143-2.12 1.143l-1.851 1.051-29.507-25.8-66.503 76.478c5.163 7.734 23.159 37.098 23.212 72.785.019 27.795-7.476 45.913-14.714 63.987-7.238 18.12-14.266 36.25-14.284 65.511.074 38.488 16.154 61.332 38.076 77.174 11.681 8.377 23.02 14.004 38.351 17.877 15.328 3.866 34.679 5.914 61.991 6.866 20.33.755 37.757 11.043 50.124 20.976 8.293 6.675 14.34 13.237 17.456 16.878 3.116-3.641 9.164-10.203 17.455-16.878 12.369-9.933 29.797-20.221 50.129-20.976 27.31-.952 46.66-3 61.987-6.866 15.331-3.873 26.672-9.5 38.351-17.877 21.922-15.842 38.004-38.686 38.078-77.174-.019-29.261-7.049-47.391-14.286-65.511" style="stroke:none;fill:#fff"></path><path d="m426.987 232.917 4.16-3.637 51.625 59.37-74.11 64.802c-13.27-23.449-33.807-42.239-58.556-53.312z" style="stroke:none;fill:#ffc500"></path><path d="M103.5 492.499c.093-27.464 6.311-43.321 13.498-61.425 7.191-17.89 15.584-38.277 15.501-68.074-.029-22.974-6.723-43.003-13.254-57.422a165 165 0 0 0-7.336-14.264l53.943-62.034 27.08 23.679 8.634-4.898c.25-.144 12.032-6.734 30.022-13.187 17.981-6.474 42.16-12.732 66.911-12.709 25.145-.023 49.697 6.438 67.763 13.018 9.034 3.279 16.452 6.565 21.544 8.998a176 176 0 0 1 6.096 3.052l-55.358 48.405c-12.585-4.196-26.048-6.475-40.044-6.476-69.866.004-126.497 56.633-126.501 126.499a127 127 0 0 0 2.22 23.66l-70.407 61.565a117 117 0 0 1-.312-8.387" style="stroke:none;fill:#1b4062" data-source="https://football-logos.cc"></path><path d="M158.102 572.538c-7.555-3.02-14.09-6.795-21.108-11.8-9.944-7.157-18.12-15.622-23.967-26.403-3.202-5.939-5.751-12.647-7.405-20.421l71.504-62.522c7.724 26.276 23.743 48.998 45.034 65.136z" style="stroke:none;fill:#ffc500"></path><path d="M232.5 583.483c-.395-.02-.788-.045-1.185-.06-26.971-.931-45.621-2.977-59.698-6.539-.462-.118-.907-.241-1.359-.361l61.245-53.552q.496.314.997.623zM292.999 611.106a145 145 0 0 0-5.061-4.286c-6.722-5.401-14.868-10.942-24.348-15.337-6.137-2.84-12.869-5.196-20.091-6.625v-55.25c15.075 7.29 31.818 11.669 49.5 12.427zM216.829 497.332c-20.911-20.92-33.827-49.759-33.829-81.671.002-31.91 12.918-60.752 33.829-81.671 20.919-20.909 49.758-33.826 81.671-33.829 31.91.003 60.751 12.92 81.668 33.829 20.911 20.919 33.829 49.761 33.831 81.671-.002 31.912-12.92 60.751-33.831 81.671-20.917 20.91-49.758 33.826-81.668 33.828-31.913-.002-60.752-12.918-81.671-33.828M353.499 584.859c-7.224 1.429-13.954 3.785-20.09 6.624-12.006 5.578-21.875 12.953-29.409 19.617v-69.065c17.682-.758 34.424-5.136 49.499-12.427zM414 579.261c-12.463 2.132-28.032 3.462-48.301 4.162-.402.015-.801.04-1.201.061v-59.89c21.669-13.278 39.029-32.896 49.502-56.276zM460.006 560.738c-10.847 7.734-20.522 12.542-34.625 16.146-.125.031-.257.06-.382.092V415.815l.002-.154c-.001-18.573-4.005-36.21-11.194-52.096l62.472-54.625c-6.025 14.1-11.754 32.816-11.781 54.06-.083 29.797 8.311 50.184 15.504 68.074 7.184 18.104 13.404 33.961 13.498 61.425-.023 17.711-3.705 31.033-9.529 41.836-5.848 10.781-14.021 19.246-23.965 26.403" style="stroke:none;fill:#1b4062"></path><path d="M298.5 495.662c-25.882 0-48.879-12.302-63.501-31.365 5.588-11.207 9.301-23.167 10.835-35.635h95.833v-26h-95.833c-1.534-12.469-5.247-24.429-10.835-35.636 14.622-19.063 37.619-31.364 63.501-31.364 32.161 0 59.874 18.989 72.582 46.359l23.606-10.942c-16.837-36.265-53.573-61.417-96.188-61.417-31.005 0-58.899 13.314-78.283 34.534a106.3 106.3 0 0 0-15.594 22.212c7.679 11.06 12.856 23.271 14.954 36.204a81.5 81.5 0 0 1 1.056 13.05c0 4.419-.363 8.773-1.056 13.05-2.098 12.934-7.275 25.144-14.954 36.204a106.3 106.3 0 0 0 15.594 22.212c19.384 21.22 47.278 34.534 78.283 34.534 42.615 0 79.351-25.151 96.188-61.417l-23.606-10.941c-12.709 27.369-40.421 46.358-72.582 46.358" style="stroke:none;fill:#ffc500" data-source="https://football-logos.cc"></path><!-- source: https://football-logos.cc --></svg>