<?xml version="1.0" encoding="utf-8"?>
<!-- Generator: Adobe Illustrator 28.1.0, SVG Export Plug-In . SVG Version: 6.00 Build 0)  -->
<svg version="1.1" id="Capa_1" xmlns="http://www.w3.org/2000/svg" xmlns:xlink="http://www.w3.org/1999/xlink" x="0px" y="0px"
	 viewBox="0 0 1080 1080" style="enable-background:new 0 0 1080 1080;" xml:space="preserve">
<style type="text/css">
	.st0{fill:#0084CA;}
	.st1{fill:#FFFFFF;}
	.st2{fill:#FFE300;}
	.st3{fill:#DE0021;}
	.st4{fill:#1F140F;}
</style>
<path class="st0" d="M331.96,814.45V661.3c-31.23-42.87-49.67-95.66-49.67-152.75c0-57.1,18.44-109.88,49.67-152.75V165.99
	c-26.93-5.18-54.71-11.17-83.68-17.89V686C269.56,729.41,296.87,772.24,331.96,814.45z"/>
<path class="st0" d="M499.93,252.25v-64.82c-27.65-1.35-55.49-3.97-83.96-7.7v101.71C441.6,267.19,469.9,257.15,499.93,252.25z"/>
<path class="st0" d="M499.93,967.24V764.86c-30.03-4.89-58.33-14.93-83.96-29.19v164.97C441.23,923.03,469.11,945.24,499.93,967.24z
	"/>
<path class="st0" d="M667.85,281.31V180.09c-28.36,3.69-56.2,6.23-83.98,7.49v64.63C613.9,257.08,642.21,267.08,667.85,281.31z"/>
<path class="st0" d="M583.87,764.9v201.36c30.81-21.96,58.72-44.12,83.98-66.47v-164C642.21,750.02,613.9,760.03,583.87,764.9z"/>
<path class="st0" d="M835.54,685.81V148.12c-28.93,6.85-56.71,12.94-83.68,18.18v189.15c31.38,42.93,49.92,95.84,49.92,153.09
	c0,57.25-18.54,110.16-49.92,153.09v152.2C786.94,771.77,814.26,729.08,835.54,685.81z"/>
<path class="st1" d="M689.09,515.53v4.68c0,1.5,0.76,2.24,2.13,2.24c1.31,0,2.51-0.45,3.97-1.43v-10.06l-3.97,1.38
	C689.62,512.95,689.09,513.74,689.09,515.53z"/>
<path class="st1" d="M674.41,499.14c-1.44,0-2.81,0.56-4.03,1.58v20.12c1.22,1.03,2.59,1.6,4.03,1.6c1.56,0,2.49-0.74,2.49-2.51
	v-18.31C676.9,499.86,675.97,499.14,674.41,499.14z"/>
<path class="st1" d="M722.02,499.05H721c-1.86,0-2.72,0.93-2.72,2.76v17.93c0,1.83,0.86,2.76,2.72,2.76h1.01
	c1.81,0,2.76-0.93,2.76-2.76v-17.93C724.78,499.98,723.83,499.05,722.02,499.05z"/>
<path class="st1" d="M611.54,510.95l-3.94,1.38c-1.6,0.62-2.15,1.41-2.15,3.2v4.68c0,1.5,0.8,2.24,2.15,2.24
	c1.31,0,2.53-0.45,3.94-1.43V510.95z"/>
<path class="st1" d="M787.65,508.55c0-135.66-109.95-245.64-245.62-245.64c-135.68,0-245.6,109.98-245.6,245.64
	c0,135.68,109.92,245.65,245.6,245.65C677.7,754.19,787.65,644.22,787.65,508.55z M755.8,493.3c0-4.99,2.47-7.47,7.44-7.47h1.46
	c4.91,0,7.34,2.43,7.34,7.34v7.19h-4.47v-7.31c0-2.06-0.99-3.03-3.02-3.03h-1.18c-2.02,0-2.99,0.97-2.99,3.03v26.3
	c0,2.06,0.97,3.04,2.99,3.04h1.29c2.07,0,3.02-0.98,3.02-3.04v-8.51h4.47v8.29c0,4.98-2.47,7.43-7.44,7.43h-1.46
	c-4.98,0-7.44-2.46-7.44-7.43V493.3z M428.56,388.32c0-0.43,0-0.85,0-1.28c61.48-0.34,111.32-49.97,112.03-111.39
	c0.21,0,0.4,0,0.59,0c0.42,0,0.82,0,1.2,0c0.7,61.24,50.24,110.75,111.49,111.38c0,0.43,0,0.85,0,1.29c0,0.35,0,0.71,0,1.09
	c-61.31,0.61-110.9,50.23-111.49,111.56c-0.38,0-0.78,0-1.2,0c-0.38,0-0.76,0-1.14,0c-0.57-61.33-50.18-110.95-111.49-111.56
	C428.56,389.02,428.56,388.66,428.56,388.32z M646.89,499.14c-1.39,0-2.68,0.44-4.2,1.51v25.56h-4.35v-40.59h4.35v11.73
	c1.26-1.21,2.87-2.35,5.48-2.35c3.59,0,5.27,2.06,5.27,5.56v25.66h-4.35v-24.75C649.1,499.86,648.39,499.14,646.89,499.14z
	 M627.49,499.05h-0.8c-1.86,0-2.74,0.93-2.74,2.76v17.93c0,1.83,0.89,2.76,2.74,2.76h0.86c1.81,0,2.78-0.93,2.78-2.76v-6.11h4.24
	v5.94c0,4.64-2.36,6.99-7,6.99h-0.99c-4.64,0-7-2.35-7-6.99v-17.6c0-4.63,2.36-6.98,7-6.98h1.08c4.56,0,6.85,2.3,6.85,6.88v5.03
	h-4.28v-5.08C630.23,499.98,629.32,499.05,627.49,499.05z M606.25,526.57c-3.5,0-5.15-2.01-5.15-5.45v-5.65
	c0-3.84,1.27-5.38,4.64-6.53l5.8-1.98v-5.13c0-1.84-0.91-2.83-2.74-2.83h-0.34c-1.81,0-2.72,0.99-2.72,2.83v3.82h-4.28v-3.66
	c0-4.63,2.38-6.98,7-6.98h0.44c4.64,0,7,2.35,7,6.98v24.23h-4.37v-1.94C610.34,525.42,608.76,526.57,606.25,526.57z M587.73,526.57
	c-3.65,0-5.29-2.07-5.29-5.56v-25.69h4.37v24.78c0,1.6,0.7,2.34,2.21,2.34c1.37,0,2.61-0.45,4.2-1.56v-25.56h4.35v30.89h-4.35v-1.99
	C591.91,525.42,590.28,526.57,587.73,526.57z M566.3,507.92v18.29h-4.53V486.2h4.53v17.44h7.47V486.2h4.56v40.01h-4.56v-18.29H566.3
	z M421.05,621.17c-0.36,0-0.76,0-1.14,0c-0.59-61.33-50.18-110.95-111.51-111.57c0-0.37,0-0.72,0-1.08c0-0.42,0-0.86,0-1.29
	c61.5-0.32,111.34-49.96,111.99-111.37c0.25-0.01,0.44-0.01,0.65-0.01c0.4,0,0.78,0.01,1.2,0.01
	c0.67,61.24,50.2,110.75,111.49,111.37c0,0.42,0,0.86,0,1.29c0,0.36,0,0.71,0,1.08c-61.35,0.62-110.92,50.24-111.49,111.57
	C421.83,621.17,421.45,621.17,421.05,621.17z M653.89,628.88c0,0.35,0,0.71,0,1.06c-61.27,0.63-110.9,50.24-111.51,111.57
	c-0.36,0-0.74,0-1.14,0c-0.4,0-0.78,0-1.16,0c-0.59-61.33-50.15-110.94-111.51-111.57c0-0.36,0-0.72,0-1.06c0-0.43,0-0.85,0-1.28
	c61.52-0.36,111.34-49.95,112.01-111.38c0.21-0.02,0.46-0.02,0.65-0.02c0.4,0,0.78,0.02,1.14,0.02
	c0.7,61.23,50.26,110.75,111.51,111.36C653.89,628.03,653.89,628.44,653.89,628.88z M661.93,526.21h-4.37v-30.89h4.37V526.21z
	 M661.99,492.2h-4.56v-4.87h4.56V492.2z M681.25,520.44c0,3.67-1.81,6.13-5.51,6.13c-2.53,0-4.32-1.21-5.36-2.24v8.16h-4.34v-37.17
	h4.34v2.02c1.03-1.09,2.83-2.35,5.36-2.35c3.69,0,5.51,2.48,5.51,6.13V520.44z M699.49,526.21h-4.3v-1.94
	c-1.22,1.15-2.83,2.3-5.34,2.3c-3.5,0-5.1-2.01-5.1-5.45v-5.65c0-3.84,1.27-5.38,4.58-6.53l5.86-1.98v-5.13
	c0-1.84-0.93-2.83-2.76-2.83h-0.34c-1.83,0-2.76,0.99-2.76,2.83v3.82h-4.24v-3.66c0-4.63,2.34-6.98,7-6.98h0.44
	c4.6,0,6.96,2.35,6.96,6.98V526.21z M711.72,499.33h-3.14v26.88h-4.34v-26.88h-2.09v-4.01h2.09v-5.12h4.34v5.12h3.14V499.33z
	 M729.1,519.58c0,4.64-2.32,6.99-6.94,6.99h-1.27c-4.68,0-7-2.35-7-6.99v-17.6c0-4.63,2.32-6.98,7-6.98h1.27
	c4.62,0,6.94,2.35,6.94,6.98V519.58z M744.52,507.98v18.23h-4.53V486.2h12.3v4.22h-7.76v13.38h7.47v4.18H744.52z"/>
<path class="st2" d="M540.04,500.96c0.38,0,0.76,0,1.14,0c0.42,0,0.82,0,1.2,0c0.59-61.33,50.18-110.95,111.49-111.56
	c0-0.38,0-0.74,0-1.09c0-0.43,0-0.85,0-1.29c-61.25-0.63-110.79-50.14-111.49-111.38c-0.38,0-0.78,0-1.2,0c-0.19,0-0.38,0-0.59,0
	c-0.72,61.42-50.56,111.05-112.03,111.39c0,0.42,0,0.84,0,1.28c0,0.35,0,0.71,0,1.09C489.87,390.01,539.47,439.63,540.04,500.96z"/>
<path class="st0" d="M542.38,516.22c-0.36,0-0.74-0.02-1.14-0.02c-0.19,0-0.44,0-0.65,0.02c-0.67,61.43-50.49,111.02-112.01,111.38
	c0,0.42,0,0.84,0,1.28c0,0.35,0,0.71,0,1.06c61.35,0.63,110.92,50.24,111.51,111.57c0.38,0,0.76,0,1.16,0c0.4,0,0.78,0,1.14,0
	c0.61-61.33,50.24-110.94,111.51-111.57c0-0.36,0-0.72,0-1.06c0-0.44,0-0.85,0-1.3C592.64,626.97,543.08,577.45,542.38,516.22z"/>
<path class="st3" d="M533.74,509.6c0-0.37,0-0.72,0-1.08c0-0.42,0-0.86,0-1.29c-61.29-0.62-110.81-50.13-111.49-111.37
	c-0.42,0-0.8-0.01-1.2-0.01c-0.21,0-0.4,0-0.65,0.01c-0.65,61.41-50.49,111.05-111.99,111.37c0,0.42,0,0.86,0,1.29
	c0,0.36,0,0.71,0,1.08c61.33,0.62,110.92,50.24,111.51,111.57c0.38,0,0.78,0,1.14,0c0.4,0,0.78,0,1.2,0
	C422.82,559.84,472.38,510.22,533.74,509.6z"/>
<path class="st4" d="M915.8,118.75c-311.68,81-430.75,81-749.42-0.01l-5.81-1.48l0.16,6c0.87,31.89,1.23,63.98,1.58,95.01
	c3.14,280.37,6.11,545.19,376.32,786.32l2.47,1.61l2.47-1.6c374.08-242.4,375.49-508.77,376.98-790.77
	c0.16-29.59,0.32-60.2,0.92-90.6l0.12-5.99L915.8,118.75z M415.97,179.73c28.47,3.74,56.31,6.35,83.96,7.7v64.82
	c-30.03,4.89-58.33,14.93-83.96,29.19V179.73z M583.87,187.58c27.79-1.26,55.63-3.8,83.98-7.49v101.22
	c-25.65-14.22-53.95-24.23-83.98-29.09V187.58z M248.28,148.09c28.97,6.72,56.75,12.71,83.68,17.89v189.81
	c-31.23,42.87-49.67,95.65-49.67,152.75c0,57.1,18.44,109.88,49.67,152.75v153.15c-35.09-42.21-62.4-85.04-83.68-128.45V148.09z
	 M415.97,735.66c25.63,14.26,53.93,24.3,83.96,29.19v202.39c-30.81-22.01-58.7-44.21-83.96-66.61V735.66z M667.85,899.79
	c-25.27,22.35-53.17,44.51-83.98,66.47V764.9c30.03-4.86,58.34-14.87,83.98-29.1V899.79z M542.03,754.19
	c-135.68,0-245.6-109.97-245.6-245.65c0-135.66,109.92-245.64,245.6-245.64c135.68,0,245.62,109.98,245.62,245.64
	C787.65,644.22,677.7,754.19,542.03,754.19z M751.86,661.64c31.38-42.93,49.92-95.84,49.92-153.09
	c0-57.25-18.54-110.16-49.92-153.09V166.31c26.97-5.25,54.75-11.34,83.68-18.18v537.69c-21.28,43.27-48.6,85.95-83.68,128.02V661.64
	z"/>
<polygon class="st4" points="578.32,526.21 578.32,486.2 573.77,486.2 573.77,503.64 566.3,503.64 566.3,486.2 561.77,486.2 
	561.77,526.21 566.3,526.21 566.3,507.92 573.77,507.92 573.77,526.21 "/>
<path class="st4" d="M597.56,526.21v-30.89h-4.35v25.56c-1.58,1.11-2.83,1.56-4.2,1.56c-1.52,0-2.21-0.74-2.21-2.34v-24.78h-4.37
	v25.69c0,3.49,1.64,5.56,5.29,5.56c2.55,0,4.18-1.15,5.48-2.35v1.99H597.56z"/>
<path class="st4" d="M615.91,526.21v-24.23c0-4.63-2.36-6.98-7-6.98h-0.44c-4.62,0-7,2.35-7,6.98v3.66h4.28v-3.82
	c0-1.84,0.91-2.83,2.72-2.83h0.34c1.83,0,2.74,0.99,2.74,2.83v5.13l-5.8,1.98c-3.37,1.15-4.64,2.69-4.64,6.53v5.65
	c0,3.44,1.64,5.45,5.15,5.45c2.51,0,4.09-1.15,5.29-2.3v1.94H615.91z M607.6,522.44c-1.35,0-2.15-0.74-2.15-2.24v-4.68
	c0-1.78,0.55-2.57,2.15-3.2l3.94-1.38v10.06C610.13,521.99,608.91,522.44,607.6,522.44z"/>
<path class="st4" d="M634.51,506.9v-5.03c0-4.58-2.3-6.88-6.85-6.88h-1.08c-4.64,0-7,2.35-7,6.98v17.6c0,4.64,2.36,6.99,7,6.99h0.99
	c4.64,0,7-2.35,7-6.99v-5.94h-4.24v6.11c0,1.83-0.97,2.76-2.78,2.76h-0.86c-1.86,0-2.74-0.93-2.74-2.76v-17.93
	c0-1.84,0.89-2.76,2.74-2.76h0.8c1.83,0,2.74,0.93,2.74,2.76v5.08H634.51z"/>
<path class="st4" d="M653.45,526.21v-25.66c0-3.5-1.69-5.56-5.27-5.56c-2.62,0-4.22,1.14-5.48,2.35v-11.73h-4.35v40.59h4.35v-25.56
	c1.52-1.07,2.8-1.51,4.2-1.51c1.5,0,2.21,0.72,2.21,2.32v24.75H653.45z"/>
<rect x="657.56" y="495.32" class="st4" width="4.37" height="30.89"/>
<rect x="657.44" y="487.33" class="st4" width="4.56" height="4.87"/>
<path class="st4" d="M675.74,494.99c-2.53,0-4.32,1.27-5.36,2.35v-2.02h-4.34v37.17h4.34v-8.16c1.03,1.02,2.83,2.24,5.36,2.24
	c3.69,0,5.51-2.46,5.51-6.13v-19.32C681.25,497.47,679.43,494.99,675.74,494.99z M676.9,519.93c0,1.77-0.93,2.51-2.49,2.51
	c-1.44,0-2.81-0.57-4.03-1.6v-20.12c1.22-1.02,2.59-1.58,4.03-1.58c1.56,0,2.49,0.72,2.49,2.49V519.93z"/>
<path class="st4" d="M692.53,494.99h-0.44c-4.66,0-7,2.35-7,6.98v3.66h4.24v-3.82c0-1.84,0.93-2.83,2.76-2.83h0.34
	c1.84,0,2.76,0.99,2.76,2.83v5.13l-5.86,1.98c-3.31,1.15-4.58,2.69-4.58,6.53v5.65c0,3.44,1.6,5.45,5.1,5.45
	c2.51,0,4.11-1.15,5.34-2.3v1.94h4.3v-24.23C699.49,497.35,697.13,494.99,692.53,494.99z M695.19,521.01
	c-1.46,0.98-2.66,1.43-3.97,1.43c-1.37,0-2.13-0.74-2.13-2.24v-4.68c0-1.78,0.53-2.57,2.13-3.2l3.97-1.38V521.01z"/>
<polygon class="st4" points="708.58,490.2 704.24,490.2 704.24,495.32 702.15,495.32 702.15,499.33 704.24,499.33 704.24,526.21 
	708.58,526.21 708.58,499.33 711.72,499.33 711.72,495.32 708.58,495.32 "/>
<path class="st4" d="M722.16,494.99h-1.27c-4.68,0-7,2.35-7,6.98v17.6c0,4.64,2.32,6.99,7,6.99h1.27c4.62,0,6.94-2.35,6.94-6.99
	v-17.6C729.1,497.35,726.78,494.99,722.16,494.99z M724.78,519.74c0,1.83-0.95,2.76-2.76,2.76H721c-1.86,0-2.72-0.93-2.72-2.76
	v-17.93c0-1.84,0.86-2.76,2.72-2.76h1.01c1.81,0,2.76,0.93,2.76,2.76V519.74z"/>
<polygon class="st4" points="751.99,507.98 751.99,503.8 744.52,503.8 744.52,490.42 752.28,490.42 752.28,486.2 739.98,486.2 
	739.98,526.21 744.52,526.21 744.52,507.98 "/>
<path class="st4" d="M763.25,526.57h1.46c4.98,0,7.44-2.46,7.44-7.43v-8.29h-4.47v8.51c0,2.06-0.95,3.04-3.02,3.04h-1.29
	c-2.02,0-2.99-0.98-2.99-3.04v-26.3c0-2.06,0.97-3.03,2.99-3.03h1.18c2.02,0,3.02,0.97,3.02,3.03v7.31h4.47v-7.19
	c0-4.91-2.43-7.34-7.34-7.34h-1.46c-4.98,0-7.44,2.48-7.44,7.47v25.84C755.8,524.11,758.27,526.57,763.25,526.57z"/>
</svg>
