<svg xmlns="http://www.w3.org/2000/svg" viewBox="0.68 0.28 252.67 379.08"><!-- Source: https://football-logos.cc --><path d="M830.949 2702.11c-11.039 49.4-2.426 80.08 49.364 69.55 50.55 70.88 117.179 63.06 127.887-22.44-.39-125.4 70.31-228.74 132.39-240.06 59.34 2.1 110.83 83.72 78.53 177.23-22.52 76.38 10.11 158.15 118.92 159.59 273.48 1.86 417.46-249.13 502.57-615.05-50.91 82.73-69.69 73.27-69-1.13-35.17 82.5-58.84 84.92-74.59 32.55-20.24 50.94-39.6 44.95-58.33 0-20.21 47.94-39.64 48.68-58.33 2.23-18.71 43.46-36.66 44.2-53.86 2.24-25.01 42.06-44.56 46.38-56.09-4.47-27.71 50.99-54.57 47.13-80.78-2.26-25.42 47.21-48.63 50.93-69.55 11.23-36.41 22.59-60.07 17.17-65.06-29.19-55.36 38.98-93.14 35.25-97.61-15.15 36.74-24.43 50.4-53.34 30.3-88.26-99.49 48.69-144.37 47.95-134.64-2.25 6.43-11.3 47.41-27.35 130.15-49.15h716.99V460.648L952.66 4.781 5.102 449.445V2085.08h731.625c66.203 14.96 111.8 29.93 116.679 44.88 19.485 51.51-32.953 49.63-134.625 11.23-15.718 25.41-2.07 54.18 28.598 88.62 1.941 53.45-29.027 51.77-82.473 12.32-14.543 45.23-39.261 54.42-76.273 20.22-23.797 40.08-45.766 46.07-65.059 2.23-30.66 41.96-53.699 41.02-73.914-.93-25.094 42.26-45.945 49.86-60.57 6.73-28.145 40.1-52.035 42.5-69.695-10.29-16.446 49.44-32.915 50.2-49.368 2.26-19.437 47.94-38.687 46.97-58.121-.97-19.222 54.85-42.875 35.86-69.574-33.66-5.301 81.97-29.273 83.8-71.996 5.46 21.789 307.39 179.609 511.66 473.418 612.8 80.055 14.86 170.746-55.84 139.113-177.53-31.535-169.6 119.574-216.35 190.715-40.39 23.953 101.84 9.727 126.52-42.633 74.05" style="fill:#231f20;fill-opacity:1;fill-rule:evenodd;stroke:none" transform="matrix(.13333 0 0 -.13333 0 380)" data-source="https://football-logos.cc"></path><path d="M41.168 2046.93H1858.56v-520.51H41.168z" style="fill:#5f91e1;fill-opacity:1;fill-rule:evenodd;stroke:none" transform="matrix(.13333 0 0 -.13333 0 380)"></path><path d="m42.578 1484.2 583.156-.59-1.195-1278.719L42.289 475.77z" style="fill:#fff;fill-opacity:1;fill-rule:evenodd;stroke:none" transform="matrix(.13333 0 0 -.13333 0 380)"></path><path d="m1857.19 1484.99-577.54-.59 1.21-1278.732 577.04 279.586z" style="fill:#ffd100;fill-opacity:1;fill-rule:evenodd;stroke:none" transform="matrix(.13333 0 0 -.13333 0 380)" data-source="https://football-logos.cc"></path><path d="M662.688 1483.77h583.352V193.66L954.367 49.8 662.688 187.478z" style="fill:#00a650;fill-opacity:1;fill-rule:evenodd;stroke:none" transform="matrix(.13333 0 0 -.13333 0 380)"></path><path d="M1.136-9.023c0-2.93.832-5.223 2.473-6.866 1.64-1.658 3.926-2.468 6.855-2.468q4.5.002 6.961 2.422c1.618 1.613 2.426 3.854 2.426 6.783 0 2.09-.363 3.83-1.066 5.17a7.4 7.4 0 0 1-3.07 3.15C14.377-.075 12.678.303 10.686.303c-2.039 0-3.726-.325-5.062-.961C4.312-1.31 3.222-2.346 2.39-3.754c-.832-1.393-1.254-3.157-1.254-5.27M6.738-9c0 1.84.328 3.149 1.008 3.929.68.81 1.582 1.21 2.765 1.21 1.196 0 2.121-.4 2.778-1.18q.984-1.168.984-4.186c0-1.719-.352-2.953-1.031-3.733-.68-.78-1.617-1.188-2.778-1.188-1.136 0-2.039.409-2.718 1.211-.68.78-1.008 2.12-1.008 3.937m14.294-9.357h4.265l2.016 3.656h-2.367Zm10.236.303h5.578v6.328h6.106v-6.328h5.59V0h-5.59v-7.312h-6.106V0h-5.578zm21.208 0h5.602V0h-5.602zM71.147-6.532v-3.755h8.625v7.691c-1.64 1.105-3.105 1.892-4.394 2.294-1.254.4-2.766.605-4.512.605-2.145 0-3.88-.355-5.215-1.082-1.371-.735-2.402-1.817-3.152-3.278-.739-1.438-1.114-3.104-1.114-4.966 0-1.968.399-3.687 1.207-5.148.832-1.46 2.016-2.543 3.586-3.3 1.207-.606 2.871-.886 4.946-.886 1.992 0 3.48.174 4.464.53.973.378 1.817.931 2.461 1.688.657.757 1.137 1.718 1.465 2.9l-5.367.96c-.223-.68-.61-1.21-1.137-1.566-.527-.379-1.207-.553-2.015-.553-1.242 0-2.192.432-2.93 1.287-.727.833-1.078 2.195-1.078 4.035 0 1.938.351 3.33 1.078 4.186.738.833 1.77 1.234 3.082 1.234a6 6 0 0 0 1.793-.25c.55-.204 1.207-.507 1.934-.938v-1.688Zm21.009 0v-3.755h8.625v7.691c-1.64 1.105-3.106 1.892-4.395 2.294-1.254.4-2.765.605-4.511.605-2.145 0-3.88-.355-5.215-1.082-1.371-.735-2.403-1.817-3.153-3.278-.738-1.438-1.113-3.104-1.113-4.966 0-1.968.399-3.687 1.207-5.148.832-1.46 2.016-2.543 3.586-3.3 1.207-.606 2.871-.886 4.945-.886 1.993 0 3.48.174 4.465.53.973.378 1.817.931 2.461 1.688.656.757 1.137 1.718 1.465 2.9l-5.367.96c-.223-.68-.61-1.21-1.137-1.566-.527-.379-1.207-.553-2.016-.553-1.242 0-2.19.432-2.93 1.287-.726.833-1.077 2.195-1.077 4.035 0 1.938.351 3.33 1.078 4.186.738.833 1.77 1.234 3.082 1.234a6 6 0 0 0 1.793-.25c.55-.204 1.207-.507 1.933-.938v-1.688Zm12.146-11.522h5.602V0h-5.602zm9.636 0h5.203l6.809 9.985v-9.985h5.238V0h-5.238l-6.762-9.909v9.91h-5.25zM133.94-5.972l5.297-.333c.129.863.351 1.514.703 1.968.586.734 1.395 1.082 2.473 1.082.785 0 1.418-.174 1.84-.552.433-.379.632-.81.632-1.287s-.199-.878-.597-1.257c-.41-.378-1.371-.734-2.86-1.06-2.437-.53-4.207-1.264-5.238-2.172-1.066-.931-1.57-2.09-1.57-3.505 0-.909.258-1.787.808-2.62.528-.832 1.336-1.46 2.426-1.945 1.078-.477 2.543-.704 4.442-.704 2.285 0 4.054.431 5.261 1.287 1.219.855 1.946 2.218 2.168 4.088l-5.262.303c-.128-.81-.433-1.393-.89-1.772-.422-.348-1.055-.552-1.84-.552-.656 0-1.137.151-1.465.431-.328.25-.504.606-.504.984 0 .303.153.553.41.78.282.25.88.454 1.887.65 2.426.53 4.16 1.06 5.227 1.62 1.054.53 1.84 1.182 2.32 1.992.48.802.703 1.688.703 2.672 0 1.158-.328 2.218-.96 3.202-.634.984-1.536 1.711-2.673 2.218-1.16.507-2.601.757-4.36.757-3.058 0-5.202-.583-6.386-1.764-1.183-1.188-1.84-2.702-1.992-4.511m0 0" aria-label="O`HIGGINS" style="fill:#231f20;fill-opacity:1;fill-rule:nonzero;stroke:none" transform="matrix(1.33333 0 0 2.06404 25.235 159.456)" data-source="https://football-logos.cc"></path><!-- source: https://football-logos.cc --></svg>