<svg xmlns="http://www.w3.org/2000/svg" xml:space="preserve" id="Capa_1" x="0" y="0" viewBox="70.16 75.49 939.3 1220.33"><!-- Source: https://football-logos.cc --><style data-source="https://football-logos.cc">.st6{fill-rule:evenodd;clip-rule:evenodd;fill:#e5b899}</style><g id="NUEVO" data-source="https://football-logos.cc"><path d="m540.01 1295.82-2.6-1.91C341.46 1150.28 205.54 992.14 133.42 823.9 63.44 660.65 51.46 483.08 97.79 296.12l1.29-5.22 4.86 2.3c179.85 85.25 321.41 75.26 432.79-30.54l3.03-2.88 3.03 2.88c111.42 105.8 252.99 115.79 432.79 30.54l4.86-2.3 1.3 5.22c46.41 186.96 34.51 364.53-35.39 527.77-72.03 168.25-207.87 326.38-403.75 470.02zM105.06 303.45C14.83 676 161.14 1006.17 540.01 1284.91c378.71-278.72 524.85-608.89 434.47-981.46-179.56 83.76-321.84 73.44-434.71-31.56-62.67 58.32-134.45 87.42-216.65 87.42-65.78.01-138.22-18.62-218.06-55.86" style="fill:#161615"></path><path d="M540.01 1290.37C141.62 998.34 10.92 664.92 102.06 297.18c164.56 78 314.33 85.88 437.71-31.33 123.43 117.2 273.19 109.33 437.71 31.33 91.29 367.74-39.23 701.16-437.47 993.19" style="fill-rule:evenodd;clip-rule:evenodd;fill:#161615"></path><path d="M711.82 1119.82C833.13 998.25 921.07 862.1 961.48 708.6c-44.17 10.93-88.41 21.36-132.63 28.21-43.47 6.75-80.67 7.41-117.12 3.65zm274.28-587.1c1.5-66.7-5.44-136.37-21.76-209.12-85.02 37.39-170.89 57.53-252.7 46.78l.06 205.2c108.09 8.37 201.41-19.72 274.4-42.86" style="fill-rule:evenodd;clip-rule:evenodd;fill:#ce2035"></path><path d="M386.35 1137.76c46.83 45.15 98.31 88.26 153.66 129.48 55.29-41.21 106.76-84.33 153.58-129.48l-.09-399.55c-34.15-4.88-68.43-13.43-107.43-24.3-35.95-10.05-70.87-22.68-105.59-29.58-31.42-6.24-62.78-10.38-94.24-12.59zm307.12-563.9-.06-206.44c-53.6-10.22-105.29-34.33-153.64-76.35-48.33 42.01-99.99 66.13-153.6 76.35l.02 135.88c24.03 2.48 48.33 6.09 72.88 10.86 66.1 12.85 126.61 39.69 191.92 52.96 14.41 2.93 28.53 5.14 42.48 6.74" style="fill-rule:evenodd;clip-rule:evenodd;fill:#008954"></path><path d="M115.81 699.21c39.36 157.33 128.48 296.56 252.31 420.61l-.09-449.14c-29.26-1.39-58.62-1.16-88.31.51-61.18 3.45-115.59 12.96-163.91 28.02m-.59-375.61c-15.87 70.92-22.86 138.92-21.78 204.11 86.72-23.82 178.48-33.82 274.55-26.07l-.04-131.26c-81.79 10.75-167.66-9.39-252.73-46.78" style="fill-rule:evenodd;clip-rule:evenodd;fill:#fff"></path><path d="M866.54 649.65c-2.74-11.53-4.38-20.89-4.88-28.04-.55-7.17-.03-12.73 1.51-16.76 2.07-5.66 5.09-10.07 9.05-13.19 4.02-3.15 9.65-5.54 16.99-7.19 7.31-1.64 13.48-1.91 18.47-.8 4.98 1.08 9.7 3.75 14.17 7.97 3.2 3.07 6.15 7.89 8.88 14.52 2.71 6.64 5.42 15.69 8.16 27.17 2.7 11.44 4.34 20.75 4.84 27.88.53 7.18.06 12.77-1.4 16.91-2.13 5.67-5.16 10.06-9.16 13.2-3.97 3.12-9.63 5.53-16.95 7.18-7.34 1.65-13.5 1.91-18.51.81-4.98-1.12-9.65-3.78-14.04-7.99-3.23-2.96-6.18-7.75-8.94-14.4-2.75-6.63-5.47-15.74-8.19-27.27m21.18-4.78c4.27 17.88 7.99 28.93 11.24 33.05 3.27 4.18 7.75 5.63 13.54 4.31 5.67-1.29 9.05-4.44 10.06-9.46 1.03-5.02-.6-16.55-4.89-34.65-4.27-18.09-8.05-29.2-11.25-33.33-3.23-4.11-7.68-5.55-13.4-4.28-5.78 1.3-9.13 4.51-10.16 9.59-1.04 5.07.59 16.69 4.86 34.77m-111.33 72.24L764.4 606.04l21.78-2.25 38.05 74.63-8.97-77.62 20.04-2.04 11.99 111.07-21.65 2.21-38.27-74.75 8.99 77.76zm-68.6.8 11.93-111.07 21.24 2.18-11.93 111.09zm-85.92-15.83 21.47-90.86-23.87-5.41 4.21-17.91 68.6 15.43-4.25 17.95-23.89-5.38-21.48 90.89zm-105.79-72.37 20.31 6.43-2.27 6.85c-2.19 6.51-2.81 11.23-1.94 14.11.87 2.91 3.38 4.98 7.48 6.29 4.3 1.36 7.9 1.33 10.85-.07 2.96-1.37 5.11-4.15 6.49-8.31 1.04-3.17 1.17-6.12.36-8.9-.77-2.77-3.18-6.76-7.2-12l-7.96-10.47c-6.95-8.91-10.96-15.68-12.1-20.43-1.1-4.73-.67-10.08 1.33-16.04 2.97-8.93 7.99-15.07 15.11-18.38 7.09-3.37 15.41-3.52 24.92-.49 10.11 3.2 16.93 8.3 20.52 15.41 3.6 7.06 3.7 15.64.34 25.73-.34 1.01-.58 1.77-.8 2.31-.21.56-.43 1.01-.61 1.43l-19.24-6.08.96-2.85c1.91-5.74 2.31-10.16 1.21-13.24-1.11-3.08-3.9-5.32-8.32-6.75-3.24-1.02-6.11-.88-8.58.39s-4.28 3.54-5.37 6.87c-1.5 4.42 1.04 10.72 7.55 18.76.08.09.14.14.18.21l8.71 10.93c6.24 7.68 10.02 14.23 11.35 19.69 1.27 5.48.77 11.75-1.57 18.84-3.23 9.66-8.52 16.21-15.94 19.64-7.38 3.48-16.36 3.53-26.86.19-10.95-3.47-18.18-8.81-21.68-16-3.51-7.21-3.4-16.48.37-27.8.42-1.19 1.16-3.14 2.27-5.83zm-99.24 19.03 21.82-109.61 57.71 10.93-3.59 18.22-36.96-6.99-5.02 25.34 34.36 6.51-3.45 17.37-34.37-6.51-6.01 30.17 37.79 7.17-3.67 18.52zm-88.11-7.21 7.98-111.41 21.26 1.44-6.58 92.48 38.36 2.61-1.34 18.96zm-104.32 5.78 19.76-112.87 28.56-1.45 32.01 110.21-22.95 1.17-7.15-27.74-24.49 1.24-4.01 28.33zm28.18-46.34 18.11-.93-11.66-46.28zm-88.88-7.2 8.75-1.51c6.54-1.13 10.9-3.17 13.09-6.12 2.17-2.96 2.72-7.45 1.62-13.5-1.1-6.12-3.06-10.13-5.92-12.06-2.83-1.96-7.65-2.33-14.4-1.17l-9.09 1.56zm-9.1 65.31L134.7 549.1l36.46-6.27c11.1-1.91 19.56-.84 25.31 3.16 5.74 4.01 9.62 11.53 11.64 22.59 1.97 10.88.83 19.37-3.41 25.59-4.22 6.22-11.7 10.23-22.4 12.07l-15.28 2.63 8.44 46.62z" style="fill:#fff"></path><path d="m334.2 75.49 19.86 61.53 64.71-.11-52.42 37.92 20.11 61.46-52.26-38.12-52.23 38.12 20.12-61.46-52.43-37.92 64.68.11zM752.58 75.49l19.88 61.53 64.69-.11-52.42 37.92 20.13 61.46-52.28-38.12-52.24 38.12 20.11-61.46-52.42-37.92 64.69.11z" class="st6"></path></g><!-- source: https://football-logos.cc --></svg>