<svg xmlns="http://www.w3.org/2000/svg" viewBox="87.69 8.96 844.18 1115.94"><!-- Source: https://football-logos.cc --><defs data-source="https://football-logos.cc"><clipPath id="a" clipPathUnits="userSpaceOnUse"><path d="M-698.895 516.124H66.459V-334.27h-765.354Z"></path></clipPath><clipPath id="b" clipPathUnits="userSpaceOnUse"><path d="M-651.86 634.723h765.353v-850.394H-651.86Z"></path></clipPath><clipPath id="c" clipPathUnits="userSpaceOnUse"><path d="M0 850.394h765.354V0H0Z"></path></clipPath><clipPath id="d" clipPathUnits="userSpaceOnUse"><path d="M-469.157 596.655h765.354v-850.394h-765.354Z"></path></clipPath><clipPath id="e" clipPathUnits="userSpaceOnUse"><path d="M-388.302 298.041h765.354v-850.394h-765.354Z"></path></clipPath><clipPath id="f" clipPathUnits="userSpaceOnUse"><path d="M0 850.394h765.354V0H0Z"></path></clipPath><clipPath id="g" clipPathUnits="userSpaceOnUse"><path d="M0 850.394h765.354V0H0Z"></path></clipPath><clipPath id="h" clipPathUnits="userSpaceOnUse"><path d="M0 850.394h765.354V0H0Z"></path></clipPath><clipPath id="i" clipPathUnits="userSpaceOnUse"><path d="M0 850.394h765.354V0H0Z"></path></clipPath><clipPath id="j" clipPathUnits="userSpaceOnUse"><path d="M0 850.394h765.354V0H0Z"></path></clipPath><clipPath id="k" clipPathUnits="userSpaceOnUse"><path d="M0 850.394h765.354V0H0Z"></path></clipPath><clipPath id="l" clipPathUnits="userSpaceOnUse"><path d="M-373.898 319.793h765.354v-850.394h-765.354Z"></path></clipPath><clipPath id="m" clipPathUnits="userSpaceOnUse"><path d="M-402.63 319.793h765.353v-850.394H-402.63Z"></path></clipPath><clipPath id="n" clipPathUnits="userSpaceOnUse"><path d="M-385.098 281.02h765.354v-850.394h-765.354Z"></path></clipPath><clipPath id="o" clipPathUnits="userSpaceOnUse"><path d="M-395.621 256.324h765.354V-594.07h-765.354Z"></path></clipPath><clipPath id="p" clipPathUnits="userSpaceOnUse"><path d="M-163.934 608.143H601.42V-242.25h-765.354Z"></path></clipPath><clipPath id="q" clipPathUnits="userSpaceOnUse"><path d="M-138.625 653.177h765.354v-850.394h-765.354Z"></path></clipPath><clipPath id="r" clipPathUnits="userSpaceOnUse"><path d="M-601.867 605h765.354v-850.393h-765.354Z"></path></clipPath><clipPath id="s" clipPathUnits="userSpaceOnUse"><path d="M-484.783 733.478h765.354v-850.394h-765.354Z"></path></clipPath><clipPath id="t" clipPathUnits="userSpaceOnUse"><path d="M-146.88 666.702h765.354v-850.394H-146.88Z"></path></clipPath><clipPath id="u" clipPathUnits="userSpaceOnUse"><path d="M-248.243 763.98H517.11V-86.412h-765.354Z"></path></clipPath><clipPath id="v" clipPathUnits="userSpaceOnUse"><path d="M-583.5 642.611h765.355v-850.394H-583.5Z"></path></clipPath><clipPath id="w" clipPathUnits="userSpaceOnUse"><path d="M-160.756 687.062h765.354v-850.394h-765.354Z"></path></clipPath><clipPath id="x" clipPathUnits="userSpaceOnUse"><path d="M-201.303 680.404H564.05V-169.99h-765.354Z"></path></clipPath><clipPath id="y" clipPathUnits="userSpaceOnUse"><path d="M-404.427 761.582h765.354V-88.812h-765.354Z"></path></clipPath><clipPath id="z" clipPathUnits="userSpaceOnUse"><path d="M-542.259 701.766h765.354v-850.394h-765.354Z"></path></clipPath><clipPath id="A" clipPathUnits="userSpaceOnUse"><path d="M-224.238 708.447h765.354v-850.394h-765.354Z"></path></clipPath><clipPath id="B" clipPathUnits="userSpaceOnUse"><path d="M-245.627 728.067h765.354v-850.394h-765.354Z"></path></clipPath><clipPath id="C" clipPathUnits="userSpaceOnUse"><path d="M-281.112 756.94h765.354V-93.456h-765.354Z"></path></clipPath><clipPath id="D" clipPathUnits="userSpaceOnUse"><path d="M-340.594 774.315H424.76V-76.079h-765.354Z"></path></clipPath><clipPath id="E" clipPathUnits="userSpaceOnUse"><path d="M-385.06 777.76h765.355V-72.634H-385.06Z"></path></clipPath><clipPath id="F" clipPathUnits="userSpaceOnUse"><path d="M-307.038 770.736h765.354V-79.658h-765.354Z"></path></clipPath><clipPath id="G" clipPathUnits="userSpaceOnUse"><path d="M-454.106 790.12h765.354V-60.276h-765.354Z"></path></clipPath><clipPath id="H" clipPathUnits="userSpaceOnUse"><path d="M-546.35 745.615h765.355v-850.394H-546.35Z"></path></clipPath><clipPath id="I" clipPathUnits="userSpaceOnUse"><path d="M-610.298 679.879h765.354v-850.394h-765.354Z"></path></clipPath><clipPath id="J" clipPathUnits="userSpaceOnUse"><path d="M-483.37 773.94h765.353V-76.454H-483.37Z"></path></clipPath><clipPath id="K" clipPathUnits="userSpaceOnUse"><path d="M-628.604 635.705H136.75v-850.394h-765.354Z"></path></clipPath><clipPath id="L" clipPathUnits="userSpaceOnUse"><path d="M-572.452 688.516h765.354v-850.394h-765.354Z"></path></clipPath><clipPath id="M" clipPathUnits="userSpaceOnUse"><path d="M-170.633 90.499h765.354v-850.394h-765.354Z"></path></clipPath><clipPath id="N" clipPathUnits="userSpaceOnUse"><path d="M-205.717 101.471h765.354v-850.394h-765.354Z"></path></clipPath><clipPath id="O" clipPathUnits="userSpaceOnUse"><path d="M-243.065 59.759h765.354v-850.394h-765.354Z"></path></clipPath><clipPath id="P" clipPathUnits="userSpaceOnUse"><path d="M-272.935 94.94H492.42v-850.393h-765.354Z"></path></clipPath><clipPath id="Q" clipPathUnits="userSpaceOnUse"><path d="M-318.42 102.146h765.354v-850.394H-318.42Z"></path></clipPath><clipPath id="R" clipPathUnits="userSpaceOnUse"><path d="M-359.948 67.666h765.354v-850.394h-765.354Z"></path></clipPath><clipPath id="S" clipPathUnits="userSpaceOnUse"><path d="M-406.815 75.782H358.54v-850.394h-765.354Z"></path></clipPath><clipPath id="T" clipPathUnits="userSpaceOnUse"><path d="M-439.067 103.25h765.354v-850.395h-765.354Z"></path></clipPath><clipPath id="U" clipPathUnits="userSpaceOnUse"><path d="M-610.539 103.284h765.354V-747.11h-765.354Z"></path></clipPath><clipPath id="V" clipPathUnits="userSpaceOnUse"><path d="M-486.076 74.675h765.354v-850.394h-765.354Z"></path></clipPath><clipPath id="W" clipPathUnits="userSpaceOnUse"><path d="M-532.542 59.742h765.354v-850.394h-765.354Z"></path></clipPath><clipPath id="X" clipPathUnits="userSpaceOnUse"><path d="M0 850.394h765.354V0H0Z"></path></clipPath><clipPath id="Y" clipPathUnits="userSpaceOnUse"><path d="M-577.659 109.338h765.354v-850.394h-765.354Z"></path></clipPath></defs><path d="M0 0c.628-88.439-23.401-170.949-106.846-248.295-49.584-45.959-123.505-79.255-209.717-79.255-85.797 0-158.656 32.384-212.689 81.692-65.898 60.135-104.823 142.216-103.827 239.622l-.046 515.64H0z" clip-path="url(#a)" style="fill:#e7df04;fill-opacity:1;fill-rule:nonzero;stroke:none" transform="matrix(1.33333 0 0 -1.33333 931.86 688.165)"></path><path d="M0 0c-15.848-40.074-39.674-75.399-77.831-110.328-20.339-18.832-53.139-39.502-84.186-51.828-34.316-13.621-69.612-20.384-107.496-20.384-37.949 0-74.169 7.156-108.158 20.74-31.738 12.681-60.884 30.883-86.471 54.242-30.764 28.084-54.385 60.835-70.487 97.137-16.739 37.732-25.313 78.759-24.867 122.515l-.041 489.495H20.519V118.412C21.12 69.453 13.801 34.896 0 0m35.346 118.518V616.42h-609.714l.045-504.175c-.47-45.889 8.664-89.139 26.269-128.825 16.94-38.19 41.595-72.498 73.884-101.975 26.906-24.565 57.708-43.584 91.104-56.932 35.747-14.287 73.712-21.88 113.553-21.88 39.763 0 78.007 7.61 114.072 21.925 32.734 12.992 67.263 35.677 87.692 54.243C-29.24-85.489-2.795-47.561 13.887-5.378 28.398 31.32 35.91 70.16 35.346 118.518" clip-path="url(#b)" style="fill:#1c2445;fill-opacity:1;fill-rule:nonzero;stroke:none" transform="matrix(1.33333 0 0 -1.33333 869.147 846.297)"></path><path d="M628.124 721.054H136.388v6.597h491.736z" clip-path="url(#c)" style="fill:#1c2445;fill-opacity:1;fill-rule:nonzero;stroke:none" transform="matrix(1.33333 0 0 -1.33333 0 1133.859)"></path><path d="M0 0h-173.713a222 222 0 0 0-1.577 7.172H1.651A232 232 0 0 0 0 0m-3.196-11.708h-167.399c-.6 2.018-1.164 4.037-1.7 6.052H-1.471a288 288 0 0 0-1.725-6.052m-3.355-10.52q-.532-1.49-1.095-2.966h-158.38a168 168 0 0 0-2.341 6.497H-5.378c-.38-1.164-.768-2.341-1.173-3.531m-7.642-17.891h-145.233a146 146 0 0 0-3.175 6.649h151.559a138 138 0 0 0-3.151-6.649m-9.052-15.141h-127.096a111 111 0 0 0-4.16 6.326h135.412a111 111 0 0 0-4.156-6.326m-15.104-16.735h-96.908a84 84 0 0 0-7.442 7.217h111.812a83 83 0 0 0-7.462-7.217m-48.697-17.471c-12.673 0-23.707 2.751-33.303 7.54h66.997c-9.677-4.789-20.842-7.54-33.694-7.54m-21.823 447.092h49.927v-47.63h-49.927zm0-51.737h49.927V146.202h-49.927zm18.48-184.67V88.064h-18.48v54.002h49.927V88.064h-18.726v33.155zm-16.666 247.625h45.877l5.395-9.011h-56.703zm6.796 11.279h32.326l5.509-9.195H-105.8Zm6.796 11.28h18.779l5.431-9.073h-29.678zm9.42 15.631 8.186-13.67h-16.425zm38.558 47.385v-20.781S6.528 437.5 6.253 373.527V54.884c0-12.252-.36-26.077-3.789-43.744l-12.64.017-28.165 76.907H-55.17v267.372l6.775.028-35.819 59.625-36.127-59.69 6.968-.008V88.064h-22.285l-28.075-76.907-12.326.012c-2.995 16.375-3.886 31.647-3.886 42.898v319.46c0 62.993 51.46 60.111 51.46 60.111v20.781h-204.286v-20.781s51.77 2.882 51.77-60.111V108.632c-.367-64.864 9.747-163.892 81.101-210.574 26.216-17.152 68.869-26.605 113.221-26.605 40.459 0 83.737 8.46 111.183 25.791 76.903 48.567 83.017 150.141 82.649 211.388v264.895c-.215 63.146 51.521 60.111 51.521 60.111v20.781z" clip-path="url(#d)" style="fill:#1c2445;fill-opacity:1;fill-rule:nonzero;stroke:none" transform="matrix(1.33333 0 0 -1.33333 625.543 795.54)"></path><path d="M0 0v-21.753h-6.191V0a2.487 2.487 0 0 0 2.484 2.489h1.218A2.49 2.49 0 0 0 0 0" clip-path="url(#e)" style="fill:#1c2445;fill-opacity:1;fill-rule:nonzero;stroke:none" transform="matrix(1.33333 0 0 -1.33333 517.736 397.388)"></path><path d="M388.302 511.384h-6.191v11.541h6.191z" clip-path="url(#f)" style="fill:#1c2445;fill-opacity:1;fill-rule:nonzero;stroke:none" transform="matrix(1.33333 0 0 -1.33333 0 1133.859)"></path><path d="M388.302 491.567h-6.191v11.357h6.191z" clip-path="url(#g)" style="fill:#1c2445;fill-opacity:1;fill-rule:nonzero;stroke:none" transform="matrix(1.33333 0 0 -1.33333 0 1133.859)"></path><path d="M388.302 471.755h-6.191v11.537h6.191z" clip-path="url(#h)" style="fill:#1c2445;fill-opacity:1;fill-rule:nonzero;stroke:none" transform="matrix(1.33333 0 0 -1.33333 0 1133.859)"></path><path d="M388.302 451.894h-6.191v11.582h6.191z" clip-path="url(#i)" style="fill:#1c2445;fill-opacity:1;fill-rule:nonzero;stroke:none" transform="matrix(1.33333 0 0 -1.33333 0 1133.859)"></path><path d="M388.302 432.078h-6.191v11.541h6.191z" clip-path="url(#j)" style="fill:#1c2445;fill-opacity:1;fill-rule:nonzero;stroke:none" transform="matrix(1.33333 0 0 -1.33333 0 1133.859)"></path><path d="M388.302 412.192h-6.191v11.794h6.191z" clip-path="url(#k)" style="fill:#1c2445;fill-opacity:1;fill-rule:nonzero;stroke:none" transform="matrix(1.33333 0 0 -1.33333 0 1133.859)"></path><path d="M0 0h-6.193v21.144a3.096 3.096 0 0 0 6.193 0Z" clip-path="url(#l)" style="fill:#1c2445;fill-opacity:1;fill-rule:nonzero;stroke:none" transform="matrix(1.33333 0 0 -1.33333 498.531 426.39)"></path><path d="M0 0h-6.084v21.198a3.041 3.041 0 1 0 6.084 0z" clip-path="url(#m)" style="fill:#1c2445;fill-opacity:1;fill-rule:nonzero;stroke:none" transform="matrix(1.33333 0 0 -1.33333 536.841 426.39)"></path><path d="M0 0c-10.078 0-18.251 8.173-18.251 18.251 0 10.082 8.173 18.255 18.251 18.255 10.082 0 18.255-8.173 18.255-18.255C18.255 8.173 10.082 0 0 0m0 38.591c-11.23 0-20.335-9.106-20.335-20.34C-20.335 7.021-11.23-2.084 0-2.084c11.234 0 20.339 9.105 20.339 20.335 0 11.234-9.105 20.34-20.339 20.34" clip-path="url(#n)" style="fill:#1c2445;fill-opacity:1;fill-rule:nonzero;stroke:none" transform="matrix(1.33333 0 0 -1.33333 513.464 374.693)"></path><path d="m0 0-11.054-11.05-7.516 7.515 2.146 2.145 5.37-5.369 8.908 8.905z" clip-path="url(#o)" style="fill:#1c2445;fill-opacity:1;fill-rule:nonzero;stroke:none" transform="matrix(1.33333 0 0 -1.33333 527.495 341.766)"></path><path d="m0 0-28.815-9.395c-7.144-1.966-12.894-1.185-16.004 7.985-4.074 12.019.952 15.06 11.132 18.304l25.477 8.3 2.386-7.327-30.053-9.796a5.28 5.28 0 0 1-3.388-6.657l.184-.564a5.28 5.28 0 0 1 6.657-3.384l30.058 9.796z" clip-path="url(#p)" style="fill:#1c2445;fill-opacity:1;fill-rule:nonzero;stroke:none" transform="matrix(1.33333 0 0 -1.33333 218.58 810.857)"></path><path d="m0 0-3.431 7.204C7.541 20.048 20.72 32.124 20.72 32.124S4.843 22.867-7.994 16.784l-3.322 6.974 37.852 18.029 3.348-7.03C17.778 20.354 5.702 9.504 5.702 9.504s11.156 7.172 28.868 15.414l3.281-6.89z" clip-path="url(#q)" style="fill:#1c2445;fill-opacity:1;fill-rule:nonzero;stroke:none" transform="matrix(1.33333 0 0 -1.33333 184.833 870.902)"></path><path d="m0 0 2.409 7.607c16.785 1.898 34.66 1.729 34.66 1.729s-17.922 4.071-31.456 8.386l2.332 7.365 39.969-12.658-2.351-7.423C26.885 2.742 10.654 3.054 10.654 3.054S23.703.682 42.273-5.384l-2.304-7.275z" clip-path="url(#r)" style="fill:#1c2445;fill-opacity:1;fill-rule:nonzero;stroke:none" transform="matrix(1.33333 0 0 -1.33333 802.49 806.668)"></path><path d="m0 0 7.088 3.818C23.471-8.41 33.752-19.08 33.752-19.08S23.867-4.552 16.512 9.207l6.711 3.827 20.403-36.422-7.162-4.013C18.488-13.655 9.269-3.993 9.269-3.993s8.602-11.592 18.125-28.65l-6.837-3.779z" clip-path="url(#s)" style="fill:#1c2445;fill-opacity:1;fill-rule:nonzero;stroke:none" transform="matrix(1.33333 0 0 -1.33333 646.377 977.97)"></path><path d="m0 0-3.928 6.572 35.971 21.5 3.929-6.572z" clip-path="url(#t)" style="fill:#1c2445;fill-opacity:1;fill-rule:nonzero;stroke:none" transform="matrix(1.33333 0 0 -1.33333 195.84 888.936)"></path><path d="m0 0-6.631 3.828 20.953 36.293 6.631-3.829z" clip-path="url(#u)" style="fill:#1c2445;fill-opacity:1;fill-rule:nonzero;stroke:none" transform="matrix(1.33333 0 0 -1.33333 330.99 1018.641)"></path><path d="m0 0 3.828 6.631 36.293-20.953-3.829-6.631z" clip-path="url(#v)" style="fill:#1c2445;fill-opacity:1;fill-rule:nonzero;stroke:none" transform="matrix(1.33333 0 0 -1.33333 778 856.815)"></path><path d="m0 0-6.021 8.369 28.628 31.809 4.784-6.649C9.608 14.364.551 6.456.551 6.456s13.148 7.494 33.978 17.15l4.818-6.698z" clip-path="url(#w)" style="fill:#1c2445;fill-opacity:1;fill-rule:nonzero;stroke:none" transform="matrix(1.33333 0 0 -1.33333 214.342 916.083)"></path><path d="m0 0-7.883-7.119 8.864-9.816-4.528-4.091-8.864 9.816-9.78-8.827 9.559-10.585-4.409-3.98-14.647 16.216L-.503 9.775 14.144-6.441 9.559-10.58Z" clip-path="url(#x)" style="fill:#1c2445;fill-opacity:1;fill-rule:nonzero;stroke:none" transform="matrix(1.33333 0 0 -1.33333 268.404 907.205)"></path><path d="m0 0 1.065-10.568 13.16 1.326.613-6.072L1.679-16.64l1.318-13.108 14.19 1.431.595-5.911-21.741-2.193-4.214 41.807L13.568 7.58l.619-6.147z" clip-path="url(#y)" style="fill:#1c2445;fill-opacity:1;fill-rule:nonzero;stroke:none" transform="matrix(1.33333 0 0 -1.33333 539.236 1015.442)"></path><path d="m0 0 7.304-7.716L16.935.986l3.917-4.333-9.604-8.779 8.95-9.747 10.577 9.619 3.981-4.408-16.275-14.774L-9.775-.505 6.437 14.146l3.975-4.401Z" clip-path="url(#z)" style="fill:#1c2445;fill-opacity:1;fill-rule:nonzero;stroke:none" transform="matrix(1.33333 0 0 -1.33333 723.011 935.689)" data-source="https://football-logos.cc"></path><path d="m0 0-2.293-2.562a4.446 4.446 0 0 0-6.277-.339l-4.847 4.344 7.806 8.708 5.317-4.765A3.814 3.814 0 0 0 0 0m2.64 10.924-9.976 8.946-28.092-31.337 5.791-5.19 12.228 13.645 4.964-4.727a4.203 4.203 0 0 0 .231-5.849s-7.752-8.657-8.545-10.694l6.608-5.85c.397 4.182 8.554 12.444 8.554 12.444 2.187 2.439 2.258 6.495-.182 8.681l.233.339c2.407-1.962 7.438-1.769 11.37 3.22 6.183 7.843.392 13.106-3.184 16.372" clip-path="url(#A)" style="fill:#1c2445;fill-opacity:1;fill-rule:nonzero;stroke:none" transform="matrix(1.33333 0 0 -1.33333 298.983 944.596)"></path><path d="M0 0c2.542 4.03 3.698 7.062.033 9.232-1.761 1.045-3.202.946-4.613-.012-1.936-1.315-2.653-3.833-1.78-6.004l3.213-7.993.924-2.3C-.418-11.571-.957-17.236-4.17-20.858a10 10 0 0 0-.679-.697c-5.578-5.174-10.509-3.932-15.531-1.073-5.901 3.358-10.123 10.27-2.003 20.581l6.336-4.306c-3.518-4.621-5.291-7.9-1.196-10.85 1.978-1.427 3.812-1.306 5.483-.123 2.398 1.698 3.219 4.888 2.123 7.614l-3.248 8.077-.631 1.571c-1.771 4.409-1.152 9.477 1.799 13.201q.46.58.944 1.06c4.238 4.209 9.768 2.885 13.421.531 8.468-5.463 8.46-9.93 3.568-18.905z" clip-path="url(#B)" style="fill:#1c2445;fill-opacity:1;fill-rule:nonzero;stroke:none" transform="matrix(1.33333 0 0 -1.33333 327.503 970.756)"></path><path d="M0 0c-5.112-12.093-8.239-13.441-16.11-8.668l12.407 27.029C6.902 14.757 5.112 12.092 0 0m11.708 13.323c-.792 5.819-7.204 7.842-10.617 9.358l-9.268 4.254-17.467-38.059 9.534-4.381c2.477-.94 6.416-3.653 10.63-2.685 4.021.924 8.255 5.243 13.114 15.758 3.261 7.058 4.548 12.265 4.074 15.755" clip-path="url(#C)" style="fill:#1c2445;fill-opacity:1;fill-rule:nonzero;stroke:none" transform="matrix(1.33333 0 0 -1.33333 374.816 1009.253)"></path><path d="M0 0c-2.039-12.97-4.747-15.034-13.538-12.304l5.508 29.227C3.132 15.988 2.039 12.97 0 0m8.142 15.757c-2.176 5.455-8.886 5.869-12.564 6.516l-10.022 1.888-7.752-41.152 10.31-1.947c2.631-.314 7.109-1.995 10.964-.037 3.679 1.868 6.743 7.083 8.917 18.46 1.459 7.637 1.45 13 .147 16.272" clip-path="url(#D)" style="fill:#1c2445;fill-opacity:1;fill-rule:nonzero;stroke:none" transform="matrix(1.33333 0 0 -1.33333 454.125 1032.42)"></path><path d="M0 0c.118-13.128-2.214-15.609-11.334-14.36l.635 29.735C.464 16.285-.118 13.128 0 0m5.444 16.88c-3.041 5.024-9.729 4.33-13.463 4.364l-10.196.218-.89-41.867 10.49-.228c2.646.123 7.34-.8 10.821 1.764C5.528-16.422 7.695-10.775 7.971.805c.186 7.772-.704 13.061-2.527 16.075" clip-path="url(#E)" style="fill:#1c2445;fill-opacity:1;fill-rule:nonzero;stroke:none" transform="matrix(1.33333 0 0 -1.33333 513.412 1037.013)"></path><path d="M0 0a91 91 0 0 1-6.972 2.125c4.164 7.732 8.619 16.093 9.788 18.676C2.411 19.326 1.136 9.318 0 0m-.613 26.6-22.313-36.964 7.867-2.419s2.284 4.181 5.239 9.628c1.72-.572 4.797-1.561 9.101-2.816-.728-6.105-1.275-10.825-1.275-10.825l7.834-2.411 3.572 42.726z" clip-path="url(#F)" style="fill:#1c2445;fill-opacity:1;fill-rule:nonzero;stroke:none" transform="matrix(1.33333 0 0 -1.33333 409.384 1027.648)"></path><path d="M0 0c-13.237-2.942-14.957 5.946-18.21 17.654-3.58 12.874-4.524 21.672 6.379 24.549 9.293 2.456 12.718-.56 15.95-9.853l-7.748-2.06-.813 3.041c-.695 2.468-3.102 4.16-5.542 3.359 0 0-4.45-1.688-2.942-8.815l4.757-17.511c.731-2.697 3.739-5.043 6.453-4.389l.004.004c2.223.535 3.396 2.366 3.257 4.605-.025.417-.111.83-.221 1.235L.053 16.555l7.957 2.113C10.029 9.575 9.673 2.158 0 0" clip-path="url(#G)" style="fill:#1c2445;fill-opacity:1;fill-rule:nonzero;stroke:none" transform="matrix(1.33333 0 0 -1.33333 605.474 1053.492)"></path><path d="M0 0c-11.298-7.861-15.887-.233-23.384 9.401-8.246 10.59-12.293 18.644-3.518 25.235 7.848 5.896 12.926 4.259 18.902-3.373l-6.206-4.459-2.34 2.568c-1.589 2.028-4.13 2.864-6.078 1.188 0 0-3.778-3.252.349-9.296l10.968-14.803c1.71-2.226 5.39-3.257 7.648-1.614l.002.005c1.849 1.346 2.231 3.494 1.244 5.521-.183.378-3.38 4.891-3.38 4.891L.46 19.907C5.813 12.232 8.138 5.662 0 0" clip-path="url(#H)" style="fill:#1c2445;fill-opacity:1;fill-rule:nonzero;stroke:none" transform="matrix(1.33333 0 0 -1.33333 728.466 994.154)"></path><path d="M0 0c-8.286-10.734-15.297-5.007-25.292 1.906-10.99 7.598-17.348 13.753-10.813 22.943 5.567 7.836 10.129 7.711 18.561 2.641l-4.518-6.378-2.687 1.651c-2.114 1.452-5.047 1.211-6.408-.967 0 0-2.339-4.145 3.382-8.655l14.561-10.075c2.288-1.604 6.405-1.814 8.071.425v.006c1.365 1.835 1.095 3.992-.446 5.623a6 6 0 0 1-.959.807l-3.844 3.059 4.595 6.483C1.575 13.776 6.05 7.85 0 0" clip-path="url(#I)" style="fill:#1c2445;fill-opacity:1;fill-rule:nonzero;stroke:none" transform="matrix(1.33333 0 0 -1.33333 813.73 906.505)"></path><path d="M0 0a5.773 5.773 0 0 0-7.556 3.09l-7.777 18.553a5.774 5.774 0 0 0 5.321 8.006 5.78 5.78 0 0 0 5.325-3.543l7.781-18.55A5.773 5.773 0 0 0 0 0m6.747 20.062c-4.679 11.156-8.5 20.127-21.206 14.859-11.822-4.896-8.937-14.381-4.262-25.538 4.679-11.157 8.672-20.527 21.206-14.859C14.704.049 11.422 8.909 6.747 20.062" clip-path="url(#J)" style="fill:#1c2445;fill-opacity:1;fill-rule:nonzero;stroke:none" transform="matrix(1.33333 0 0 -1.33333 644.494 1031.92)"></path><path d="M0 0c-1.258-2.928-5.213-3.961-8.114-2.641l-17.499 8.175c-2.901 1.32-4.517 4.7-3.197 7.601.33.721.788 1.34 1.334 1.844 1.657 1.531 5.147 1.545 7.329.55l16.24-7.401C-1.006 6.808 1.436 3.342 0 0m-8.924 19.005c-11.009 5.017-19.639 9.32-25.395-3.172C-39.679 4.214-33.176.291-20.117-5.815c11.453-5.356 20.3-9.19 25.658 3.48 5.225 12.351-3.462 16.322-14.465 21.34" clip-path="url(#K)" style="fill:#1c2445;fill-opacity:1;fill-rule:nonzero;stroke:none" transform="matrix(1.33333 0 0 -1.33333 838.139 847.607)"></path><path d="m0 0-3.265-3.727-9.253 8.1 4.038 4.614a4.01 4.01 0 0 0 5.648.372l2.346-2.056A5.17 5.17 0 0 0 0 0m1.336-7.761 4.692 5.358c3.984 4.553 3.527 11.471-1.026 15.46L2.46 15.28c-4.23 3.703-10.658 3.278-14.36-.952L-22.215 2.546 9.367-25.109l5.112 5.84z" clip-path="url(#L)" style="fill:#1c2445;fill-opacity:1;fill-rule:nonzero;stroke:none" transform="matrix(1.33333 0 0 -1.33333 763.27 918.021)"></path><path d="M0 0c-.311-11.255-2.407-19.616-16.649-19.616-16.707 0-17.503 11.5-17.503 25.685s1.777 25.685 17.503 25.685c13.024 0 16.15-7.54 16.058-17.839h-9.797c-.376 6.306-1.725 10.666-6.572 10.666-6.71 0-6.71-8.369-6.71-18.696s0-18.697 6.71-18.697c5.378 0 6.449 5.37 6.662 12.812z" clip-path="url(#M)" style="fill:#1c2445;fill-opacity:1;fill-rule:nonzero;stroke:none" transform="matrix(1.33333 0 0 -1.33333 227.51 120.665)"></path><path d="M0 0v-7.753h-28.872v49.466h10.335V0Z" clip-path="url(#N)" style="fill:#1c2445;fill-opacity:1;fill-rule:nonzero;stroke:none" transform="matrix(1.33333 0 0 -1.33333 274.29 135.295)"></path><path d="M0 0v-35.665c0-3.183 0-14.72-16.482-14.72-16.559 0-16.559 11.492-16.559 14.72V0h10.282v-35.244c0-4.139 1.198-8.177 6.241-8.177 5.038 0 6.314 4.16 6.314 8.177V0z" clip-path="url(#O)" style="fill:#1c2445;fill-opacity:1;fill-rule:nonzero;stroke:none" transform="matrix(1.33333 0 0 -1.33333 324.087 79.678)"></path><path d="M0 0a7.386 7.386 0 0 0-7.389-7.389h-5.484V7.936h5.484c2.003 0 3.85-.637 5.182-1.929C-.826 4.663 0 2.628 0 .552Zm-12.873 27.92h5.64a6.07 6.07 0 0 0 6.068-6.068v-1.104a6.07 6.07 0 0 0-6.068-6.069h-5.64zm11.557-16.244c8.182 0 10.266 6.804 10.266 11.34 0 11.463-10.483 12.166-13.903 12.166h-18.402v-49.465h17.54c13.907.151 16.359 8.12 16.359 14.312 0 6.191-3.282 11.647-11.86 11.647" clip-path="url(#P)" style="fill:#1c2445;fill-opacity:1;fill-rule:nonzero;stroke:none" transform="matrix(1.33333 0 0 -1.33333 363.913 126.588)"></path><path d="M0 0v34.986c11.063.335 13.241.241 13.686-17.421C14.156-1.23 8.643-.384 0 0m-10.025 42.387V-7.078c10.303 0 17.978-.597 23.294.948 8.092 2.35 10.945 9.685 10.945 23.784 0 28.015-10.851 24.398-34.239 24.733" clip-path="url(#Q)" style="fill:#1c2445;fill-opacity:1;fill-rule:nonzero;stroke:none" transform="matrix(1.33333 0 0 -1.33333 424.56 136.194)"></path><path d="M0 0v-12.15h17.442v-7.924H0v-13.76h19.281v-7.838h-29.579v49.58h28.761V0z" clip-path="url(#R)" style="fill:#1c2445;fill-opacity:1;fill-rule:nonzero;stroke:none" transform="matrix(1.33333 0 0 -1.33333 479.931 90.222)"></path><path d="M0 0a6.693 6.693 0 0 0-6.694-6.694h-5.076V8.672h5.562A6.207 6.207 0 0 0 0 2.464Zm.895 15.198c-3.743 1.034-8.092.826-12.268.826h-10.834v-49.58h10.437v19.976h.397c9.289 0 21.671 0 21.671 14.802 0 8.709-4.049 12.501-9.403 13.976" clip-path="url(#S)" style="fill:#1c2445;fill-opacity:1;fill-rule:nonzero;stroke:none" transform="matrix(1.33333 0 0 -1.33333 542.42 101.043)"></path><path d="M0 0c-7.287 0-7.287 8.357-7.287 18.668 0 10.307 0 18.664 7.287 18.664s7.287-8.357 7.287-18.664C7.287 8.357 7.287 0 0 0m-.069 44.32c-16.306 0-17.655-11.508-17.655-25.701S-15.946-6.919-.069-6.919c16.122 0 17.654 11.345 17.654 25.538S16.359 44.32-.069 44.32" clip-path="url(#T)" style="fill:#1c2445;fill-opacity:1;fill-rule:nonzero;stroke:none" transform="matrix(1.33333 0 0 -1.33333 585.422 137.666)"></path><path d="M0 0c-7.287 0-7.287 8.357-7.287 18.668 0 10.307 0 18.664 7.287 18.664s7.287-8.357 7.287-18.664C7.287 8.357 7.287 0 0 0m-.069 44.32c-16.306 0-17.655-11.508-17.655-25.701S-15.946-6.919-.069-6.919c16.121 0 17.654 11.345 17.654 25.538S16.359 44.32-.069 44.32" clip-path="url(#U)" style="fill:#1c2445;fill-opacity:1;fill-rule:nonzero;stroke:none" transform="matrix(1.33333 0 0 -1.33333 814.052 137.712)"></path><path d="M0 0a6.78 6.78 0 0 0-6.78-6.784h-6.093V7.609h6.436A6.436 6.436 0 0 0 0 1.173Zm9.657-28.725-.339 10.237c-.066 4.368-2.912 8.089-7.448 8.008l-.016.74c5.042.782 8.216 4.44 8.216 12.523 0 11.86-11.034 12.272-16.768 12.133h-16.384v-49.579h10.209v21.291h6.228a6.203 6.203 0 0 0 6.2-6.154l.094-12.988a2.16 2.16 0 0 1 2.161-2.149h10.327c-2.607 1.708-2.48 5.938-2.48 5.938" clip-path="url(#V)" style="fill:#1c2445;fill-opacity:1;fill-rule:nonzero;stroke:none" transform="matrix(1.33333 0 0 -1.33333 648.101 99.567)"></path><path d="M0 0v-8.128h-11.279v-41.468h-10.299v41.468h-11.524V0Z" clip-path="url(#W)" style="fill:#1c2445;fill-opacity:1;fill-rule:nonzero;stroke:none" transform="matrix(1.33333 0 0 -1.33333 710.055 79.656)"></path><path d="M548.081 741.056h-10.39v49.597h10.39z" clip-path="url(#X)" style="fill:#1c2445;fill-opacity:1;fill-rule:nonzero;stroke:none" transform="matrix(1.33333 0 0 -1.33333 0 1133.859)"></path><path d="M0 0h-12.873L-25.01 49.596h10.911l7.662-38.603 8.031 38.603h10.543z" clip-path="url(#Y)" style="fill:#1c2445;fill-opacity:1;fill-rule:nonzero;stroke:none" transform="matrix(1.33333 0 0 -1.33333 770.211 145.784)" data-source="https://football-logos.cc"></path><!-- source: https://football-logos.cc --></svg>